<svg xml:space="preserve" style="enable-background:new 0 0 727 516" viewBox="0 0 727 516" xmlns="http://www.w3.org/2000/svg">
  <style>
    .galasa-hybrid-cloud_svg__st0{fill:#fff}.galasa-hybrid-cloud_svg__st23{fill:#003594}.galasa-hybrid-cloud_svg__st35{fill:#e0e0e0}.galasa-hybrid-cloud_svg__st39{fill:#f8f68f}.galasa-hybrid-cloud_svg__st42{stroke-width:1.0057}.galasa-hybrid-cloud_svg__st42,.galasa-hybrid-cloud_svg__st44,.galasa-hybrid-cloud_svg__st45,.galasa-hybrid-cloud_svg__st46,.galasa-hybrid-cloud_svg__st53{fill:none;stroke:#000;stroke-miterlimit:10}.galasa-hybrid-cloud_svg__st45{stroke-dasharray:1,4}.galasa-hybrid-cloud_svg__st46{stroke-dasharray:6,6}.galasa-hybrid-cloud_svg__st53{stroke-dasharray:1,4,6,2}
  </style>
  <g id="galasa-hybrid-cloud_svg__images">
    <path d="M430 111V25h288v483H430V132" class="galasa-hybrid-cloud_svg__st0"/>
    <path d="M439 198v-59.5h270v131H439V253" class="galasa-hybrid-cloud_svg__st35"/>
    <path d="M430 232v-13" class="galasa-hybrid-cloud_svg__st45"/>
    <path d="M192 236.2v3" class="galasa-hybrid-cloud_svg__st44"/>
    <path d="M192 245.2v45" class="galasa-hybrid-cloud_svg__st46"/>
    <path d="M192 293.2v3h3" class="galasa-hybrid-cloud_svg__st44"/>
    <path d="M201 296.2h225.3" style="fill:none;stroke:#000;stroke-miterlimit:10;stroke-dasharray:6.0067,6.0067"/>
    <path d="M429.3 296.2h3" class="galasa-hybrid-cloud_svg__st44"/>
    <path d="m431.1 300.2 6.9-3.9-6.9-4z"/>
    <path d="M74.5 194.8h127v65h-127z" class="galasa-hybrid-cloud_svg__st0"/>
    <path d="M201 195.2v64H75v-64h126m1-1H74v66h128v-66z"/>
    <path d="M19 161v128" class="galasa-hybrid-cloud_svg__st44"/>
    <path d="M3 299h32v32H3z" class="galasa-hybrid-cloud_svg__st0"/>
    <path d="M33 304v22H5v-22h28m1-1H4v24h30v-24z"/>
    <path d="M5 307h28v1H5z"/>
    <path d="M19.8 116.5c8 0 14.5 6.5 14.5 14.5" class="galasa-hybrid-cloud_svg__st0"/>
    <path d="M19.8 116.5c7.2 0 13.2 5.3 14.3 12.2" class="galasa-hybrid-cloud_svg__st44"/>
    <path d="m32.4 128.4 1.8 2.6 1.4-2.9z"/>
    <path d="m13.4 132.5-.7-2.3-.2-.1c-.6-.2-1.1-.5-1.5-.9l-.2-.2-2.5.6-1.1-1.8 1.9-1.9v-1.8l-1.9-1.9 1.1-1.8 2.5.6.2-.2c.5-.4 1-.7 1.5-.9l.2-.1.7-2.3h2.2l.7 2.3.2.1c.6.2 1.1.5 1.5.9l.2.2 2.5-.6 1.1 1.8-1.9 1.9v1.8l1.9 1.9-1.1 1.8-2.5-.6-.2.2c-.5.4-1 .7-1.5.9l-.2.1-.7 2.3h-2.2z" class="galasa-hybrid-cloud_svg__st0"/>
    <path d="m15.2 118 .5 1.7.1.5.5.2c.5.2 1 .5 1.4.8l.4.3.5-.1 1.9-.5.7 1.1-1.5 1.5-.4.3.1.5v1.2l-.1.5.4.3 1.5 1.5-.7 1.1-1.9-.5-.5-.1-.4.3c-.4.3-.9.6-1.4.8l-.5.2-.1.5-.5 1.7h-1.5l-.5-1.7-.1-.5-.5-.2c-.5-.2-1-.5-1.4-.8l-.4-.3-.5.1-1.9.5-.7-1.1 1.5-1.5.4-.3-.1-.5v-1.2l.1-.5-.4-.3-1.5-1.5.7-1.1 1.9.5.5.1.4-.3c.4-.3.9-.6 1.4-.8l.5-.2.1-.5.5-1.7h1.5m.8-1h-3l-.7 2.4c-.6.2-1.2.6-1.7 1l-2.6-.6-1.5 2.4 2.1 2c0 .2-.1.5-.1.8s0 .5.1.8l-2.1 2 1.5 2.4 2.7-.6c.5.4 1.1.7 1.7 1l.6 2.4h3l.7-2.4c.6-.2 1.2-.6 1.7-1l2.7.6 1.5-2.4-2.1-2c0-.2.1-.5.1-.8s0-.5-.1-.8l2.1-2-1.5-2.4-2.7.6c-.5-.4-1.1-.7-1.7-1L16 117z"/>
    <circle cx="14.5" cy="125" r="2.5" class="galasa-hybrid-cloud_svg__st0"/>
    <path d="M14.5 123c1.1 0 2 .9 2 2s-.9 2-2 2-2-.9-2-2 .9-2 2-2m0-1c-1.7 0-3 1.3-3 3s1.3 3 3 3 3-1.3 3-3-1.3-3-3-3z"/>
    <path d="m24.4 144.5-.7-2.3-.2-.1c-.6-.2-1.1-.5-1.5-.9l-.2-.2-2.5.6-1.1-1.8 1.9-1.9v-1.8l-1.9-1.9 1.1-1.8 2.5.6.2-.2c.5-.4 1-.7 1.5-.9l.2-.1.7-2.3h2.2l.7 2.3.2.1c.6.2 1.1.5 1.5.9l.2.2 2.5-.6 1.1 1.8-1.9 1.9v1.8l1.9 1.9-1.1 1.8-2.5-.6-.2.2c-.5.4-1 .7-1.5.9l-.2.1-.7 2.3h-2.2z" class="galasa-hybrid-cloud_svg__st0"/>
    <path d="m26.2 130 .5 1.7.1.5.5.2c.5.2 1 .5 1.4.8l.4.3.5-.1 1.9-.5.7 1.1-1.5 1.5-.4.3.1.5v1.2l-.1.5.4.3 1.5 1.5-.7 1.1-1.9-.5-.5-.1-.4.3c-.4.3-.9.6-1.4.8l-.5.2-.1.5-.5 1.7h-1.5l-.5-1.7-.1-.5-.5-.2c-.5-.2-1-.5-1.4-.8l-.4-.3-.5.1-1.9.5-.7-1.1 1.5-1.5.4-.3-.1-.5v-1.2l.1-.5-.4-.3-1.5-1.5.7-1.1 1.9.5.5.1.4-.3c.4-.3.9-.6 1.4-.8l.5-.2.1-.5.5-1.7h1.5m.8-1h-3l-.7 2.4c-.6.2-1.2.6-1.7 1l-2.7-.6-1.5 2.4 2.1 2c0 .2-.1.5-.1.8s0 .5.1.8l-2.1 2 1.5 2.4 2.7-.6c.5.4 1.1.7 1.7 1l.7 2.4h3l.7-2.4c.6-.2 1.2-.6 1.7-1l2.7.6 1.5-2.4-2.1-2c0-.2.1-.5.1-.8s0-.5-.1-.8l2.1-2-1.5-2.4-2.7.6c-.5-.4-1.1-.7-1.7-1L27 129z"/>
    <circle cx="25.5" cy="137" r="2.5" class="galasa-hybrid-cloud_svg__st0"/>
    <path d="M25.5 135c1.1 0 2 .9 2 2s-.9 2-2 2-2-.9-2-2 .9-2 2-2m0-1c-1.7 0-3 1.3-3 3s1.3 3 3 3 3-1.3 3-3-1.3-3-3-3z"/>
    <path d="M20.2 145.5c-8 0-14.5-6.5-14.5-14.5" class="galasa-hybrid-cloud_svg__st0"/>
    <path d="M20.2 145.5c-7.2 0-13.2-5.3-14.3-12.2" class="galasa-hybrid-cloud_svg__st44"/>
    <path d="M7.6 133.6 5.8 131l-1.4 2.9zm143.6 88.6-4.2 4 4.2 4 .8-.7-3.4-3.3 3.4-3.2zm-26.4 8 4.2-4-4.2-4-.8.8 3.4 3.2-3.4 3.3z"/>
    <circle cx="133" cy="226.2" r="1"/>
    <circle cx="138" cy="226.2" r="1"/>
    <circle cx="143" cy="226.2" r="1"/>
    <path d="M74.5 172.8h127v23h-127z" class="galasa-hybrid-cloud_svg__st23"/>
    <path d="M201 173.2v22H75v-22h126m1-1H74v24h128v-24z"/>
    <path d="M18 225.4h50.3" class="galasa-hybrid-cloud_svg__st44"/>
    <path d="m67.1 229.4 6.9-4-6.9-4z"/>
    <path d="M202 209h50.3" class="galasa-hybrid-cloud_svg__st44"/>
    <path d="m251.1 213 6.9-4-6.9-4z"/>
    <path d="M203.4 241.8h48.9" class="galasa-hybrid-cloud_svg__st46"/>
    <path d="m251.1 245.7 6.9-3.9-6.9-4z"/>
    <path d="M587 416H439V286h270v130h-55" class="galasa-hybrid-cloud_svg__st35"/>
    <circle cx="479" cy="349.2" r="27.5" style="fill:#efa284"/>
    <path d="M479 322.2c14.9 0 27 12.1 27 27s-12.1 27-27 27-27-12.1-27-27 12.1-27 27-27m0-1c-15.5 0-28 12.5-28 28s12.5 28 28 28 28-12.5 28-28-12.5-28-28-28z"/>
    <path d="M479 381.2v3" class="galasa-hybrid-cloud_svg__st44"/>
    <path d="M479 389.9v65.5" style="fill:none;stroke:#000;stroke-miterlimit:10;stroke-dasharray:5.6923,5.6923"/>
    <path d="M479 458.2v3h3" class="galasa-hybrid-cloud_svg__st44"/>
    <path d="M488.3 461.2h96.8" style="fill:none;stroke:#000;stroke-miterlimit:10;stroke-dasharray:6.2506,6.2506"/>
    <path d="M588.3 461.2h3" class="galasa-hybrid-cloud_svg__st44"/>
    <path d="m590.1 465.2 6.9-3.9-6.9-4z"/>
    <path d="M619.6 118.2v.6" class="galasa-hybrid-cloud_svg__st44"/>
    <path d="M619.6 122.5v6.6" style="fill:none;stroke:#000;stroke-miterlimit:10;stroke-dasharray:5.6188,1.8729"/>
    <path d="M619.6 130v35.6" style="fill:none;stroke:#000;stroke-miterlimit:10;stroke-dasharray:.9365,3.7458,5.6188,1.8729"/>
    <path d="M619.6 166.5v.5" class="galasa-hybrid-cloud_svg__st44"/>
    <path d="m615.6 165.8 4 7 4-7z"/>
    <path d="M556.5 56.5h127v63h-127z" class="galasa-hybrid-cloud_svg__st0"/>
    <path d="M683 57v62H557V57h126m1-1H556v64h128V56z"/>
    <path d="M556.5 34.5h127v23h-127z" class="galasa-hybrid-cloud_svg__st39"/>
    <path d="M683 35v22H557V35h126m1-1H556v24h128V34zm-49.9 38.5v22h-28v-22h28m1-1h-30v24h30v-24z"/>
    <path d="M606.1 75.5h28v1h-28zm13 4.1c3.3 0 5.9 2.7 5.9 5.9s-2.7 5.9-5.9 5.9-5.9-2.7-5.9-5.9 2.6-5.9 5.9-5.9m0-1.1c-3.9 0-7 3.1-7 7s3.1 7 7 7 7-3.1 7-7c0-3.8-3.1-7-7-7z"/>
    <path d="M619.1 79.5c.7 0 2 2.3 2 6s-1.3 6-2 6-2-2.3-2-6 1.3-6 2-6m0-1c-1.7 0-3 3.1-3 7s1.3 7 3 7 3-3.1 3-7c0-3.8-1.3-7-3-7z"/>
    <path d="M625.1 85h-12v1h12v-1zm-6 3.6c1.4 0 2.8.5 3.8 1.4-1.1.9-2.4 1.4-3.8 1.4s-2.8-.5-3.8-1.4c1-.9 2.4-1.4 3.8-1.4m0-1.1c-2.2 0-4.1 1-5.4 2.5 1.3 1.5 3.2 2.5 5.4 2.5s4.1-1 5.4-2.5c-1.3-1.5-3.2-2.5-5.4-2.5zm0-7.9c1.4 0 2.8.5 3.8 1.4-1.1.9-2.4 1.4-3.8 1.4s-2.8-.5-3.8-1.4c1-.9 2.4-1.4 3.8-1.4m0-1.1c-2.2 0-4.1 1-5.4 2.5 1.3 1.5 3.2 2.5 5.4 2.5s4.1-1 5.4-2.5c-1.3-1.5-3.2-2.5-5.4-2.5z"/>
    <circle cx="632.6" cy="74" r=".2" class="galasa-hybrid-cloud_svg__st0"/>
    <path d="M632.6 73.5c-.3 0-.5.2-.5.5s.2.5.5.5.5-.2.5-.5c0-.2-.2-.5-.5-.5z"/>
    <circle cx="630.6" cy="74" r=".2" class="galasa-hybrid-cloud_svg__st0"/>
    <path d="M630.6 73.5c-.3 0-.5.2-.5.5s.2.5.5.5.5-.2.5-.5c0-.2-.2-.5-.5-.5z"/>
    <circle cx="628.6" cy="74" r=".2" class="galasa-hybrid-cloud_svg__st0"/>
    <path d="M628.6 73.5c-.3 0-.5.2-.5.5s.2.5.5.5.5-.2.5-.5c0-.2-.2-.5-.5-.5z"/>
    <path d="M556.5 343.2h127v63h-127z" class="galasa-hybrid-cloud_svg__st0"/>
    <path d="M683 343.8v62H557v-62h126m1-1H556v64h128v-64z"/>
    <path d="M556.5 320.2h127v23h-127z" class="galasa-hybrid-cloud_svg__st39"/>
    <path d="M683 320.8v22H557v-22h126m1-1H556v24h128v-24z"/>
    <path d="M614.9 365.5v6l5.2 3 5.3-3v-6l-5.3-3z" class="galasa-hybrid-cloud_svg__st42"/>
    <path d="m614.9 365.5 5.2 3 5.2-3m-5.2 3v6m-3.3-4-5.2 3v6m11.8-9 5.2 3v6" class="galasa-hybrid-cloud_svg__st42"/>
    <path d="M622.9 379.5v6l5.2 3 5.3-3v-6l-5.3-3z" class="galasa-hybrid-cloud_svg__st42"/>
    <path d="m622.9 379.5 5.2 3 5.2-3m-5.2 3v6m-21.2-9v6l5.2 3 5.3-3v-6l-5.3-3z" class="galasa-hybrid-cloud_svg__st42"/>
    <path d="m606.9 379.5 5.2 3 5.2-3m-5.2 3v6" class="galasa-hybrid-cloud_svg__st42"/>
    <path d="m614.8 384 5.2 3 5.3-3" style="fill:none;stroke:#000;stroke-width:1.006;stroke-miterlimit:10"/>
    <ellipse cx="620.2" cy="450.2" class="galasa-hybrid-cloud_svg__st44" rx="12" ry="4"/>
    <path d="M632.2 450v18.2c0 2.2-5.4 4-12 4s-12-1.8-12-4V450" class="galasa-hybrid-cloud_svg__st44"/>
    <path d="M632.2 456.2c0 2.2-5.4 4-12 4s-12-1.8-12-4m24 6c0 2.2-5.4 4-12 4s-12-1.8-12-4" class="galasa-hybrid-cloud_svg__st44"/>
    <path d="M598.5 407.3v25" class="galasa-hybrid-cloud_svg__st46"/>
    <path d="m594.5 431.1 4 6.9 4-6.9z"/>
    <path d="M643.5 407.3v25" class="galasa-hybrid-cloud_svg__st53"/>
    <path d="m639.5 431.1 4 6.9 4-6.9z"/>
    <path d="M619.6 259.2v.6" class="galasa-hybrid-cloud_svg__st44"/>
    <path d="M619.6 264v7.3" style="fill:none;stroke:#000;stroke-miterlimit:10;stroke-dasharray:6.3246,2.1082"/>
    <path d="M619.6 272.4v40.1" style="fill:none;stroke:#000;stroke-miterlimit:10;stroke-dasharray:1.0541,4.2164,6.3246,2.1082"/>
    <path d="M619.6 313.5v.5" class="galasa-hybrid-cloud_svg__st44"/>
    <path d="m615.6 312.8 4 7 4-7z"/>
    <path d="M540.5 196.5h159v63h-159z" class="galasa-hybrid-cloud_svg__st0"/>
    <path d="M699 197v62H541v-62h158m1-1H540v64h160v-64z"/>
    <path d="M617 236.7h6v1h-6z" class="galasa-hybrid-cloud_svg__st0"/>
    <path d="M623 236.7h-6v1h6v-1zm-3-21.3c4.7 0 8.5 3.4 9 7.8l.1.9h1c2.8 0 5 2.2 5 4.8 0 2.7-2.2 4.8-5 4.8h-20c-2.8 0-5-2.2-5-4.8 0-2.7 2.2-4.8 5-4.8h1l.1-.9c.3-4.4 4.1-7.8 8.8-7.8m0-1c-5.2 0-9.4 3.8-9.9 8.7h-.1c-3.3 0-6 2.6-6 5.8s2.7 5.8 6 5.8h20c3.3 0 6-2.6 6-5.8s-2.7-5.8-6-5.8h-.1c-.5-4.8-4.7-8.7-9.9-8.7z"/>
    <path d="M616.4 240.1c-1 0-1.9-.8-1.9-1.9v-15.6c0-1 .8-1.9 1.9-1.9h7.2c1 0 1.9.8 1.9 1.9v15.6c0 1-.8 1.9-1.9 1.9h-7.2z" class="galasa-hybrid-cloud_svg__st0"/>
    <path d="M623.6 221.3c.8 0 1.4.6 1.4 1.4v15.6c0 .8-.6 1.4-1.4 1.4h-7.2c-.8 0-1.4-.6-1.4-1.4v-15.6c0-.8.6-1.4 1.4-1.4h7.2m0-1.1h-7.2c-1.3 0-2.4 1.1-2.4 2.4v15.6c0 1.3 1.1 2.4 2.4 2.4h7.2c1.3 0 2.4-1.1 2.4-2.4v-15.6c0-1.3-1.1-2.4-2.4-2.4z"/>
    <path d="M617 228h6v1h-6z" class="galasa-hybrid-cloud_svg__st0"/>
    <path d="M623 228h-6v1h6v-1z"/>
    <path d="M617 230.9h6v1h-6z" class="galasa-hybrid-cloud_svg__st0"/>
    <path d="M623 230.9h-6v1h6v-1z"/>
    <path d="M617 233.8h6v1h-6z" class="galasa-hybrid-cloud_svg__st0"/>
    <path d="M623 233.8h-6v1h6v-1z"/>
    <circle cx="622.5" cy="223.6" r=".2" class="galasa-hybrid-cloud_svg__st0"/>
    <path d="M622.5 223.2c-.3 0-.5.2-.5.5s.2.5.5.5.5-.2.5-.5-.2-.5-.5-.5z"/>
    <path d="M540.6 173.6h158.9v22.9H540.6z" class="galasa-hybrid-cloud_svg__st39"/>
    <path d="M698.9 174.1v21.8H541.1v-21.8h157.8m1.1-1.1H540v24h160v-24z"/>
    <path d="m20.8 312.1-1-.3-2.9 10 1 .3 2.9-10zm3.6 9.3 4.4-4.4-4.4-4.4-.7.7 3.6 3.6-3.6 3.6.7.9zm-10-.8-3.6-3.6 3.6-3.6-.7-.7-4.4 4.3 4.4 4.4.7-.8z" style="fill:#161616"/>
    <path d="M385.5 209H529v88h38v17.5" class="galasa-hybrid-cloud_svg__st44"/>
    <path d="m563 313.3 4 6.9 4-6.9z"/>
    <path d="M192 173.2v-.4" class="galasa-hybrid-cloud_svg__st44"/>
    <path d="M192 168.8v-6.9" style="fill:none;stroke:#000;stroke-miterlimit:10;stroke-dasharray:5.9412,1.9804"/>
    <path d="M192 160.9v-37.7" style="fill:none;stroke:#000;stroke-miterlimit:10;stroke-dasharray:.9902,3.9608,5.9412,1.9804"/>
    <path d="M192 122.2v-.4h.5" class="galasa-hybrid-cloud_svg__st44"/>
    <path d="M196.5 121.8h7" style="fill:none;stroke:#000;stroke-miterlimit:10;stroke-dasharray:6,2"/>
    <path d="M204.5 121.8h233" class="galasa-hybrid-cloud_svg__st53"/>
    <path d="M438.5 121.8h.5v-.6" class="galasa-hybrid-cloud_svg__st44"/>
    <path d="M439 117.4v-6.7" style="fill:none;stroke:#000;stroke-miterlimit:10;stroke-dasharray:5.7662,1.9221"/>
    <path d="M439 109.7V48.2" style="fill:none;stroke:#000;stroke-miterlimit:10;stroke-dasharray:.961,3.8442,5.7662,1.9221"/>
    <path d="M439 47.2v-.4h.5" class="galasa-hybrid-cloud_svg__st44"/>
    <path d="M443.3 46.8h6.7" style="fill:none;stroke:#000;stroke-miterlimit:10;stroke-dasharray:5.7031,1.901"/>
    <path d="M450.9 46.8h97.9" style="fill:none;stroke:#000;stroke-miterlimit:10;stroke-dasharray:.9505,3.802,5.7031,1.901"/>
    <path d="M549.8 46.8h.5" class="galasa-hybrid-cloud_svg__st44"/>
    <path d="m549.1 50.7 6.9-3.9-6.9-4z"/>
    <path d="M384.5 241.8h3" class="galasa-hybrid-cloud_svg__st44"/>
    <path d="M393.6 241.8H512" style="fill:none;stroke:#000;stroke-miterlimit:10;stroke-dasharray:6.0714,6.0714"/>
    <path d="M515 241.8h3v3" class="galasa-hybrid-cloud_svg__st44"/>
    <path d="M518 250.9v119.8" style="fill:none;stroke:#000;stroke-miterlimit:10;stroke-dasharray:6.1429,6.1429"/>
    <path d="M518 373.8v3h3" class="galasa-hybrid-cloud_svg__st44"/>
    <path d="M526.3 376.8h18.3" style="fill:none;stroke:#000;stroke-miterlimit:10;stroke-dasharray:5.2519,5.2519"/>
    <path d="M547.3 376.8h3" class="galasa-hybrid-cloud_svg__st44"/>
    <path d="m549.1 380.7 6.9-3.9-6.9-4z"/>
    <path d="M258.5 194.8h127v65h-127z" class="galasa-hybrid-cloud_svg__st0"/>
    <path d="M385 195.2v64H259v-64h126m1-1H258v66h128v-66z"/>
    <path d="M306 208.2h32v32h-32z" class="galasa-hybrid-cloud_svg__st0"/>
    <path d="m312.8 230.3 4.2-4-4.2-4-.8.7 3.4 3.3-3.4 3.2zm5.2-1.1h6v1h-6z"/>
    <path d="M336 213.2v22h-28v-22h28m1-1h-30v24h30v-24z"/>
    <path d="M308 216.2h28v1h-28z"/>
    <path d="M258.5 172.8h127v23h-127z" class="galasa-hybrid-cloud_svg__st23"/>
    <path d="M385 173.2v22H259v-22h126m1-1H258v24h128v-24z"/>
    <path d="M620.5 407.3v25" class="galasa-hybrid-cloud_svg__st44"/>
    <path d="m616.5 431.1 4 6.9 4-6.9z"/>
    <path d="M430 283v-32m0-140V25h288v483H430V309m0-109v-67.5" class="galasa-hybrid-cloud_svg__st45"/>
  </g>
  <g id="galasa-hybrid-cloud_svg__text">
    <path d="M463.8 340.2h2.4c1.1 0 2 .2 2.5.5s.8.9.8 1.6c0 .5-.1.9-.4 1.3s-.7.5-1.2.6v.1c1.3.2 2 .9 2 2.1 0 .8-.3 1.4-.8 1.8s-1.2.6-2.2.6h-3v-8.6zm1 3.7h1.6c.7 0 1.2-.1 1.5-.3s.5-.6.5-1.1c0-.5-.2-.8-.5-1s-.9-.3-1.6-.3h-1.5v2.7zm0 .9v3.2h1.8c.7 0 1.2-.1 1.6-.4s.5-.7.5-1.3c0-.5-.2-.9-.5-1.2s-.9-.4-1.6-.4h-1.8zm10.6 4-.2-.9c-.3.4-.6.7-1 .8s-.7.2-1.2.2c-.6 0-1.1-.2-1.5-.5s-.5-.8-.5-1.4c0-1.3 1-2 3.1-2h1.1v-.4c0-.5-.1-.9-.3-1.1s-.6-.4-1-.4c-.5 0-1.1.2-1.8.5l-.3-.7c.3-.2.7-.3 1-.4s.8-.1 1.1-.1c.8 0 1.3.2 1.7.5s.6.9.6 1.6v4.4h-.8zm-2.2-.7c.6 0 1.1-.2 1.4-.5s.5-.8.5-1.4v-.6h-1c-.8 0-1.3.1-1.7.4s-.5.5-.5 1c0 .4.1.6.3.8s.6.3 1 .3zm7 0h.5c.2 0 .3-.1.4-.1v.7c-.1.1-.3.1-.5.1h-.6c-1.2 0-1.9-.7-1.9-2V343h-.9v-.5l.9-.4.4-1.4h.6v1.5h1.9v.8h-1.9v3.8c0 .4.1.7.3.9s.5.4.8.4zm4.7.8c-.9 0-1.6-.3-2.2-.9s-.8-1.4-.8-2.4c0-1.1.3-1.9.8-2.5s1.3-.9 2.2-.9c.3 0 .6 0 .9.1s.6.1.7.2l-.3.8c-.2-.1-.4-.2-.7-.2s-.5-.1-.7-.1c-1.3 0-2 .8-2 2.5 0 .8.2 1.4.5 1.8s.8.6 1.4.6c.5 0 1.1-.1 1.6-.3v.9c-.2.3-.7.4-1.4.4zm7.5-.1v-4.2c0-.5-.1-.9-.4-1.2s-.6-.4-1.1-.4c-.7 0-1.2.2-1.5.6s-.5 1-.5 1.8v3.4h-1v-9.1h1v3.6h.1c.2-.3.5-.6.8-.7s.8-.3 1.2-.3c.8 0 1.4.2 1.8.6s.6 1 .6 1.8v4.2h-1zm-22.5 14.9c-.4 0-.7 0-.9-.1v-.8c.3.1.5.1.8.1.3 0 .5-.1.7-.2s.2-.4.2-.8v-7.5h1v7.4c0 1.3-.6 1.9-1.8 1.9zm.7-11.1c0-.2.1-.4.2-.5s.2-.2.4-.2.3.1.4.2.2.3.2.5-.1.4-.2.5-.2.2-.4.2-.3-.1-.4-.2-.2-.2-.2-.5zm8.7 5c0 1-.3 1.9-.8 2.5s-1.3.9-2.2.9c-.6 0-1.1-.1-1.5-.4s-.8-.7-1-1.2-.4-1.1-.4-1.8c0-1 .3-1.9.8-2.4s1.2-.9 2.2-.9c.9 0 1.6.3 2.1.9s.8 1.4.8 2.4zm-4.9 0c0 .8.2 1.4.5 1.9s.8.6 1.4.6 1.1-.2 1.5-.6.5-1.1.5-1.9c0-.8-.2-1.4-.5-1.9s-.8-.6-1.5-.6c-.6 0-1.1.2-1.4.6s-.5 1.1-.5 1.9zm9.6-3.3c.8 0 1.5.3 2 .9s.7 1.4.7 2.4-.2 1.9-.7 2.5-1.1.9-2 .9c-.4 0-.8-.1-1.1-.2s-.6-.4-.9-.7h-.1l-.2.8h-.7v-9.1h1v3.5c.4-.7 1.1-1 2-1zm-.2.8c-.7 0-1.1.2-1.4.6s-.4 1-.4 1.9.2 1.5.5 1.9.8.6 1.4.6c.6 0 1-.2 1.3-.7s.4-1.1.4-1.9c0-.8-.1-1.5-.4-1.9s-.7-.5-1.4-.5zm-29.2-204.8c0 1.4-.3 2.4-1 3.2s-1.7 1.2-2.9 1.2c-1.3 0-2.2-.4-2.9-1.2s-1-1.9-1-3.3.3-2.5 1-3.2 1.7-1.2 2.9-1.2 2.2.4 2.9 1.2 1 1.9 1 3.3zm-6.8 0c0 1.2.2 2 .7 2.6s1.2.9 2.2.9c.9 0 1.7-.3 2.2-.9s.7-1.5.7-2.6c0-1.2-.2-2-.7-2.6s-1.2-.9-2.1-.9c-.9 0-1.7.3-2.2.9s-.8 1.4-.8 2.6zm13 4.3v-4.2c0-.5-.1-.9-.4-1.2s-.6-.4-1.1-.4c-.7 0-1.2.2-1.5.5s-.5 1-.5 1.8v3.4h-1v-6.4h.8l.2.9c.2-.3.5-.6.8-.7s.8-.3 1.2-.3c.8 0 1.4.2 1.7.6s.6 1 .6 1.8v4.2h-.8zm6.2-8.6-3.2 8.6h-1l3.2-8.6h1zm8.7 4.3c0 1.4-.3 2.4-1 3.2s-1.7 1.2-2.9 1.2c-1.3 0-2.2-.4-2.9-1.2s-1-1.9-1-3.3.3-2.5 1-3.2 1.7-1.2 2.9-1.2 2.2.4 2.9 1.2 1 1.9 1 3.3zm-6.8 0c0 1.2.2 2 .7 2.6s1.2.9 2.2.9c.9 0 1.7-.3 2.2-.9s.7-1.5.7-2.6c0-1.2-.2-2-.7-2.6s-1.2-.9-2.1-.9c-.9 0-1.7.3-2.2.9s-.8 1.4-.8 2.6zm11.5-1.4h-1.6v5.7h-1v-5.7h-1.1v-.4l1.1-.4v-.4c0-1.6.7-2.4 2.1-2.4.3 0 .7.1 1.2.2l-.3.8c-.4-.1-.7-.2-1-.2-.4 0-.6.1-.8.4s-.3.6-.3 1.2v.4h1.6v.8zm4.1 0h-1.6v5.7h-1v-5.7h-1.1v-.4l1.1-.4v-.4c0-1.6.7-2.4 2.1-2.4.3 0 .7.1 1.2.2l-.3.8c-.4-.1-.7-.2-1-.2-.4 0-.6.1-.8.4s-.3.6-.3 1.2v.4h1.6v.8zm7.2 5.8c-.4 0-.8-.1-1.1-.2s-.6-.4-.9-.7h-.1c0 .4.1.7.1 1.1v2.6h-1v-9.3h.8l.1.9c.2-.4.5-.6.9-.8s.7-.2 1.1-.2c.9 0 1.5.3 2 .9s.7 1.4.7 2.4c0 1.1-.2 1.9-.7 2.5s-1 .8-1.9.8zm-.1-5.9c-.7 0-1.1.2-1.4.5s-.4.9-.5 1.7v.2c0 .9.2 1.5.5 1.9s.8.6 1.4.6c.6 0 1-.2 1.3-.7s.5-1.1.5-1.9c0-.8-.2-1.4-.5-1.8s-.7-.5-1.3-.5zm7.4-.8c.3 0 .5 0 .8.1l-.1.9c-.3-.1-.5-.1-.7-.1-.5 0-1 .2-1.3.6s-.6.9-.6 1.6v3.4h-1v-6.4h.8l.1 1.2c.2-.4.5-.7.9-1s.7-.3 1.1-.3zm4.7 6.7c-.9 0-1.7-.3-2.2-.9s-.8-1.4-.8-2.4.3-1.9.8-2.5 1.2-.9 2.1-.9c.8 0 1.4.3 1.9.8s.7 1.2.7 2.1v.6h-4.4c0 .8.2 1.3.6 1.7s.9.6 1.5.6c.7 0 1.4-.1 2.1-.4v.9c-.3.1-.7.3-1 .3s-.9.1-1.3.1zm-.2-5.9c-.5 0-.9.2-1.2.5s-.5.8-.5 1.4h3.4c0-.6-.1-1.1-.4-1.4s-.8-.5-1.3-.5zm12.4 5.8v-4.2c0-.5-.1-.9-.3-1.2s-.6-.4-1-.4c-.6 0-1.1.2-1.3.5s-.4.9-.4 1.6v3.6h-1v-4.2c0-.5-.1-.9-.3-1.2s-.6-.4-1-.4c-.6 0-1.1.2-1.3.5s-.4 1-.4 1.8v3.4h-1V148h.8l.2.9c.2-.3.4-.6.8-.7s.7-.3 1.1-.3c1 0 1.7.4 2 1.1.2-.3.5-.6.8-.8s.8-.3 1.2-.3c.7 0 1.3.2 1.6.6s.5 1 .5 1.8v4.2h-1zm2.9-8.2c0-.2.1-.4.2-.5s.2-.2.4-.2.3.1.4.2.2.3.2.5-.1.4-.2.5-.2.2-.4.2-.3-.1-.4-.2-.2-.3-.2-.5zm1.1 8.2h-1v-6.4h1v6.4zm6.2-1.8c0 .6-.2 1.1-.7 1.4s-1.1.5-1.9.5c-.9 0-1.5-.1-2-.4v-.9c.3.2.6.3 1 .4s.7.1 1 .1c.5 0 .9-.1 1.2-.2s.4-.4.4-.7c0-.2-.1-.5-.3-.6s-.6-.4-1.3-.6c-.6-.2-1-.4-1.3-.6s-.4-.4-.6-.6-.2-.5-.2-.8c0-.5.2-.9.6-1.2s1-.5 1.8-.5c.7 0 1.4.1 2 .4l-.3.8c-.6-.3-1.2-.4-1.8-.4-.5 0-.8.1-1 .2s-.4.3-.4.6c0 .2 0 .3.1.4s.2.2.4.3.6.3 1.1.5c.8.3 1.3.6 1.5.8s.7.7.7 1.1zm4.3 1.9c-.9 0-1.7-.3-2.2-.9s-.8-1.4-.8-2.4.3-1.9.8-2.5 1.2-.9 2.1-.9c.8 0 1.4.3 1.9.8s.7 1.2.7 2.1v.6h-4.4c0 .8.2 1.3.6 1.7s.9.6 1.5.6c.7 0 1.4-.1 2.1-.4v.9c-.3.1-.7.3-1 .3s-.9.1-1.3.1zm-.3-5.9c-.5 0-.9.2-1.2.5s-.5.8-.5 1.4h3.4c0-.6-.1-1.1-.4-1.4s-.8-.5-1.3-.5zm10 5.9c-.9 0-1.6-.3-2.2-.9s-.8-1.4-.8-2.4c0-1.1.3-1.9.8-2.5s1.3-.9 2.2-.9c.3 0 .6 0 .9.1s.6.1.7.2l-.3.8c-.2-.1-.4-.2-.7-.2s-.5-.1-.7-.1c-1.3 0-2 .8-2 2.5 0 .8.2 1.4.5 1.8s.8.6 1.4.6c.5 0 1.1-.1 1.6-.3v.9c-.2.3-.8.4-1.4.4zm4.1-.1h-1v-9.1h1v9.1zm7.6-3.3c0 1-.3 1.9-.8 2.5s-1.3.9-2.2.9c-.6 0-1.1-.1-1.5-.4s-.8-.7-1-1.2-.4-1.1-.4-1.8c0-1 .3-1.9.8-2.4s1.2-.9 2.2-.9c.9 0 1.6.3 2.1.9s.8 1.4.8 2.4zm-4.9 0c0 .8.2 1.4.5 1.9s.8.6 1.4.6 1.1-.2 1.5-.6.5-1.1.5-1.9c0-.8-.2-1.4-.5-1.9s-.8-.6-1.5-.6c-.6 0-1.1.2-1.4.6s-.5 1.1-.5 1.9zm7.5-3.2v4.2c0 .5.1.9.4 1.2s.6.4 1.1.4c.7 0 1.2-.2 1.5-.6s.5-1 .5-1.8v-3.4h1v6.4h-.9l-.1-.9h-.1c-.2.3-.5.6-.8.7s-.8.3-1.2.3c-.8 0-1.4-.2-1.8-.6s-.6-1-.6-1.8V148h1zm10.8 5.6c-.5.7-1.2 1-2.1 1-.8 0-1.5-.3-2-.9s-.7-1.4-.7-2.4.2-1.9.7-2.5 1.1-.9 2-.9c.9 0 1.5.3 2 .9h.1v-3.6h1v9.1h-.8l-.2-.7zm-1.9.2c.7 0 1.1-.2 1.4-.5s.4-.9.4-1.7v-.2c0-.9-.2-1.6-.5-1.9s-.8-.6-1.5-.6c-.6 0-1 .2-1.3.7s-.5 1.1-.5 1.9c0 .8.2 1.4.5 1.9s.9.4 1.5.4zM452.6 16.6l-1.1-2.7h-3.4l-1.1 2.7h-1l3.4-8.6h.8l3.4 8.6h-1zm-1.4-3.7-1-2.7c-.1-.3-.3-.7-.4-1.2-.1.4-.2.8-.4 1.2l-1 2.7h2.8zm6.4 3.8c-.4 0-.8-.1-1.1-.2s-.6-.4-.9-.7h-.1c0 .4.1.7.1 1.1v2.6h-1v-9.3h.8l.1.9c.2-.4.5-.6.9-.8s.7-.2 1.1-.2c.9 0 1.5.3 2 .9s.7 1.4.7 2.4c0 1.1-.2 1.9-.7 2.5s-1.1.8-1.9.8zm-.1-5.9c-.7 0-1.1.2-1.4.5s-.4.9-.5 1.7v.2c0 .9.2 1.5.5 1.9s.8.6 1.4.6c.6 0 1-.2 1.3-.7s.5-1.1.5-1.9c0-.8-.2-1.4-.5-1.8s-.8-.5-1.3-.5zm7.5 5.9c-.4 0-.8-.1-1.1-.2s-.6-.4-.9-.7h-.1c0 .4.1.7.1 1.1v2.6h-1v-9.3h.8l.1.9c.2-.4.5-.6.9-.8s.7-.2 1.1-.2c.9 0 1.5.3 2 .9s.7 1.4.7 2.4c0 1.1-.2 1.9-.7 2.5s-1.1.8-1.9.8zm-.2-5.9c-.7 0-1.1.2-1.4.5s-.4.9-.5 1.7v.2c0 .9.2 1.5.5 1.9s.8.6 1.4.6c.6 0 1-.2 1.3-.7s.5-1.1.5-1.9c0-.8-.2-1.4-.5-1.8s-.7-.5-1.3-.5zm5.5 5.8h-1V7.4h1v9.2zm2-8.2c0-.2.1-.4.2-.5s.2-.2.4-.2.3.1.4.2.2.3.2.5-.1.4-.2.5-.3.1-.4.1c-.2 0-.3-.1-.4-.2s-.2-.2-.2-.4zm1 8.2h-1v-6.4h1v6.4zm4.7.1c-.9 0-1.6-.3-2.2-.9s-.8-1.4-.8-2.4c0-1.1.3-1.9.8-2.5s1.3-.9 2.2-.9c.3 0 .6 0 .9.1s.6.1.7.2l-.3.8c-.2-.1-.4-.2-.7-.2s-.5-.1-.7-.1c-1.3 0-2 .8-2 2.5 0 .8.2 1.4.5 1.8s.8.6 1.4.6c.5 0 1.1-.1 1.6-.3v.9c-.2.3-.8.4-1.4.4zm7.1-.1-.2-.9c-.3.4-.6.7-1 .8s-.7.2-1.2.2c-.6 0-1.1-.2-1.5-.5s-.5-.8-.5-1.4c0-1.3 1-2 3.1-2h1.1v-.4c0-.5-.1-.9-.3-1.1s-.6-.4-1-.4c-.5 0-1.1.2-1.8.5l-.3-.7c.3-.2.7-.3 1-.4s.8-.1 1.1-.1c.8 0 1.3.2 1.7.5s.6.9.6 1.6v4.4h-.8zm-2.2-.7c.6 0 1.1-.2 1.4-.5s.5-.8.5-1.4v-.6h-1c-.8 0-1.3.1-1.7.4s-.5.5-.5 1c0 .4.1.6.3.8s.6.3 1 .3zm7 0h.5c.2 0 .3-.1.4-.1v.7c-.1.1-.3.1-.5.1h-.6c-1.2 0-1.9-.7-1.9-2v-3.8h-.9v-.5l.9-.4.4-1.4h.6V10h1.9v.8h-1.9v3.8c0 .4.1.7.3.9s.4.4.8.4zm2-7.5c0-.2.1-.4.2-.5s.2-.2.4-.2.3.1.4.2.2.3.2.5-.1.4-.2.5-.2.1-.4.1-.3-.1-.4-.2-.2-.2-.2-.4zm1.1 8.2h-1v-6.4h1v6.4zm7.6-3.3c0 1-.3 1.9-.8 2.5s-1.3.9-2.2.9c-.6 0-1.1-.1-1.5-.4s-.8-.7-1-1.2-.4-1.1-.4-1.8c0-1 .3-1.9.8-2.4s1.2-.9 2.2-.9c.9 0 1.6.3 2.1.9s.8 1.4.8 2.4zm-4.9 0c0 .8.2 1.4.5 1.9s.8.6 1.4.6 1.1-.2 1.5-.6.5-1.1.5-1.9c0-.8-.2-1.4-.5-1.9s-.8-.6-1.5-.6c-.6 0-1.1.2-1.4.6s-.5 1.1-.5 1.9zm11 3.3v-4.2c0-.5-.1-.9-.4-1.2s-.6-.4-1.1-.4c-.7 0-1.2.2-1.5.5s-.5 1-.5 1.8v3.4h-1v-6.4h.8l.2.9c.2-.3.5-.6.8-.7s.8-.3 1.2-.3c.8 0 1.4.2 1.7.6s.6 1 .6 1.8v4.2h-.8zm-55.6 285.5h-4.7v-.7l3.5-5h-3.3v-.8h4.4v.8l-3.5 4.9h3.5v.8zm4.8-8.6-3.2 8.6h-1l3.2-8.6h1zm8.7 4.3c0 1.4-.3 2.4-1 3.2s-1.7 1.2-2.9 1.2c-1.3 0-2.2-.4-2.9-1.2s-1-1.9-1-3.3.3-2.5 1-3.2 1.7-1.2 2.9-1.2 2.2.4 2.9 1.2 1 1.9 1 3.3zm-6.8 0c0 1.2.2 2 .7 2.6s1.2.9 2.2.9c.9 0 1.7-.3 2.2-.9s.7-1.5.7-2.6c0-1.2-.2-2-.7-2.6s-1.2-.9-2.1-.9c-.9 0-1.7.3-2.2.9s-.8 1.4-.8 2.6zm13.6 2c0 .8-.3 1.3-.8 1.8s-1.3.6-2.2.6c-1 0-1.8-.1-2.3-.4v-1c.4.1.7.3 1.1.4s.8.1 1.2.1c.7 0 1.2-.1 1.5-.4s.5-.6.5-1.1c0-.3-.1-.5-.2-.7s-.3-.4-.6-.5-.7-.3-1.3-.5c-.8-.3-1.4-.6-1.7-1s-.5-.9-.5-1.5c0-.7.2-1.2.7-1.6s1.2-.6 2-.6c.9 0 1.6.2 2.3.5l-.3.9c-.7-.3-1.4-.4-2.1-.4-.5 0-.9.1-1.2.3s-.4.5-.4.9c0 .3.1.5.2.7s.3.4.6.5.7.3 1.2.5c.9.3 1.5.7 1.9 1s.4.9.4 1.5zm4.8 2.3v-8.6h1v7.7h3.8v.9h-4.8zm11.7-6.1c0 .9-.3 1.5-.9 2s-1.4.7-2.5.7h-1v3.4h-1v-8.6h2.2c2.1 0 3.2.8 3.2 2.5zm-4.4 1.8h.9c.9 0 1.5-.1 1.9-.4s.6-.7.6-1.4c0-.6-.2-1-.6-1.3s-.9-.4-1.7-.4h-1.1v3.5zm11.6 4.3-1.1-2.7h-3.4l-1.1 2.7h-1l3.4-8.6h.8l3.4 8.6h-1zm-1.4-3.7-1-2.7c-.1-.3-.3-.7-.4-1.2-.1.4-.2.8-.4 1.2l-1 2.7h2.8zm4.6.1v3.6h-1v-8.6h2.3c1.1 0 1.8.2 2.3.6s.8 1 .8 1.8c0 1.1-.6 1.9-1.7 2.3l2.3 3.8h-1.2l-2.1-3.6h-1.7zm0-.9h1.4c.7 0 1.2-.1 1.5-.4s.5-.7.5-1.3c0-.6-.2-1-.5-1.2s-.9-.4-1.6-.4h-1.3v3.3zm74.4-247h-1l-1.7-5.7c-.1-.3-.2-.6-.3-1s-.2-.6-.2-.7c-.1.5-.2 1.1-.4 1.7l-1.7 5.7h-1l-2.3-8.6h1.1l1.4 5.3c.2.7.3 1.4.4 2 .1-.7.3-1.4.5-2.1L569 42h1.1l1.6 5.3c.2.6.3 1.3.5 2.1.1-.6.2-1.2.4-2l1.3-5.3h1.1l-2.3 8.5zm6.2.1c-.9 0-1.7-.3-2.2-.9s-.8-1.4-.8-2.4.3-1.9.8-2.5 1.2-.9 2.1-.9c.8 0 1.4.3 1.9.8s.7 1.2.7 2.1v.6H577c0 .8.2 1.3.6 1.7s.9.6 1.5.6c.7 0 1.4-.1 2.1-.4v.9c-.3.1-.7.3-1 .3s-.9.1-1.3.1zm-.3-5.9c-.5 0-.9.2-1.2.5s-.5.8-.5 1.4h3.4c0-.6-.1-1.1-.4-1.4s-.8-.5-1.3-.5zm7.3-.8c.8 0 1.5.3 2 .9s.7 1.4.7 2.4-.2 1.9-.7 2.5-1.1.9-2 .9c-.4 0-.8-.1-1.1-.2s-.6-.4-.9-.7h-.1l-.2.8h-.7v-9.1h1V45c.4-.6 1.1-1 2-1zm-.2.8c-.7 0-1.1.2-1.4.6s-.4 1-.4 1.9.2 1.5.5 1.9.8.6 1.4.6c.6 0 1-.2 1.3-.7s.4-1.1.4-1.9c0-.8-.1-1.5-.4-1.9s-.8-.5-1.4-.5zm10.6-.8c.8 0 1.5.3 2 .9s.7 1.4.7 2.4-.2 1.9-.7 2.5-1.1.9-2 .9c-.4 0-.8-.1-1.1-.2s-.6-.4-.9-.7h-.1l-.2.8h-.7v-9.1h1V45c.5-.6 1.1-1 2-1zm-.1.8c-.7 0-1.1.2-1.4.6s-.4 1-.4 1.9.2 1.5.5 1.9.8.6 1.4.6c.6 0 1-.2 1.3-.7s.4-1.1.4-1.9c0-.8-.1-1.5-.4-1.9s-.8-.5-1.4-.5zm7.4-.8c.3 0 .5 0 .8.1l-.1.9c-.3-.1-.5-.1-.7-.1-.5 0-1 .2-1.3.6s-.6.9-.6 1.6v3.4h-1v-6.4h.8l.1 1.2c.2-.4.5-.7.9-1s.7-.3 1.1-.3zm7.5 3.3c0 1-.3 1.9-.8 2.5s-1.3.9-2.2.9c-.6 0-1.1-.1-1.5-.4s-.8-.7-1-1.2-.4-1.1-.4-1.8c0-1 .3-1.9.8-2.4s1.2-.9 2.2-.9c.9 0 1.6.3 2.1.9s.8 1.4.8 2.4zm-4.9 0c0 .8.2 1.4.5 1.9s.8.6 1.4.6 1.1-.2 1.5-.6.5-1.1.5-1.9c0-.8-.2-1.4-.5-1.9s-.8-.6-1.5-.6c-.6 0-1.1.2-1.4.6s-.5 1.1-.5 1.9zm11.9 3.3-1.2-3.8c-.1-.2-.2-.8-.4-1.6-.2.7-.3 1.2-.4 1.6l-1.2 3.8h-1.1l-1.8-6.4h1c.4 1.6.7 2.8.9 3.7s.3 1.4.4 1.7c0-.2.1-.5.2-.9s.2-.6.2-.8l1.2-3.7h1.1l1.1 3.7c.2.7.4 1.2.4 1.7 0-.1.1-.4.1-.7s.5-1.9 1.2-4.7h1l-1.8 6.4h-.9zm8.2-1.8c0 .6-.2 1.1-.7 1.4s-1.1.5-1.9.5c-.9 0-1.5-.1-2-.4v-.9c.3.2.6.3 1 .4s.7.1 1 .1c.5 0 .9-.1 1.2-.2s.4-.4.4-.7c0-.2-.1-.5-.3-.6s-.6-.4-1.3-.6c-.6-.2-1-.4-1.3-.6s-.4-.4-.6-.6-.2-.5-.2-.8c0-.5.2-.9.6-1.2s1-.5 1.8-.5c.7 0 1.4.1 2 .4l-.3.8c-.6-.3-1.2-.4-1.8-.4-.5 0-.8.1-1 .2s-.4.3-.4.6c0 .2 0 .3.1.4s.2.2.4.3.6.3 1.1.5c.8.3 1.3.6 1.5.8s.7.7.7 1.1zm4.3 1.9c-.9 0-1.7-.3-2.2-.9s-.8-1.4-.8-2.4.3-1.9.8-2.5 1.2-.9 2.1-.9c.8 0 1.4.3 1.9.8s.7 1.2.7 2.1v.6h-4.4c0 .8.2 1.3.6 1.7s.9.6 1.5.6c.7 0 1.4-.1 2.1-.4v.9c-.3.1-.7.3-1 .3s-.9.1-1.3.1zm-.2-5.9c-.5 0-.9.2-1.2.5s-.5.8-.5 1.4h3.4c0-.6-.1-1.1-.4-1.4s-.8-.5-1.3-.5zm7.2-.8c.3 0 .5 0 .8.1l-.1.9c-.3-.1-.5-.1-.7-.1-.5 0-1 .2-1.3.6s-.6.9-.6 1.6v3.4h-1v-6.4h.8l.1 1.2c.2-.4.5-.7.9-1s.7-.3 1.1-.3zm-68.8 284.5c-.9 0-1.7.3-2.2.9s-.8 1.5-.8 2.6.3 2 .8 2.6 1.3.9 2.2.9c.6 0 1.3-.1 2-.3v.9c-.6.2-1.3.3-2.2.3-1.3 0-2.2-.4-2.9-1.1s-1-1.9-1-3.3c0-.9.2-1.7.5-2.3s.8-1.2 1.4-1.5 1.4-.5 2.2-.5c.9 0 1.7.2 2.4.5l-.4.9c-.7-.4-1.3-.6-2-.6zm3.9 7.8v-8.6h1v8.6h-1zm7.1-7.8c-.9 0-1.7.3-2.2.9s-.8 1.5-.8 2.6.3 2 .8 2.6 1.3.9 2.2.9c.6 0 1.3-.1 2-.3v.9c-.6.2-1.3.3-2.2.3-1.3 0-2.2-.4-2.9-1.1s-1-1.9-1-3.3c0-.9.2-1.7.5-2.3s.8-1.2 1.4-1.5 1.4-.5 2.2-.5c.9 0 1.7.2 2.4.5l-.4.9c-.7-.4-1.4-.6-2-.6zm8.7 5.5c0 .8-.3 1.3-.8 1.8s-1.3.6-2.2.6c-1 0-1.8-.1-2.3-.4v-1c.4.1.7.3 1.1.4s.8.1 1.2.1c.7 0 1.2-.1 1.5-.4s.5-.6.5-1.1c0-.3-.1-.5-.2-.7s-.3-.4-.6-.5-.7-.3-1.3-.5c-.8-.3-1.4-.6-1.7-1s-.5-.9-.5-1.5c0-.7.2-1.2.7-1.6s1.2-.6 2-.6c.9 0 1.6.2 2.3.5l-.2.9c-.7-.3-1.4-.4-2.1-.4-.5 0-.9.1-1.2.3s-.4.5-.4.9c0 .3.1.5.2.7s.3.4.6.5.7.3 1.2.5c.9.3 1.5.7 1.9 1s.3.9.3 1.5zm8.7 2.3-.2-.9c-.3.4-.6.7-1 .8s-.7.2-1.2.2c-.6 0-1.1-.2-1.5-.5s-.5-.8-.5-1.4c0-1.3 1-2 3.1-2h1.1v-.4c0-.5-.1-.9-.3-1.1s-.6-.4-1-.4c-.5 0-1.1.2-1.8.5l-.3-.7c.3-.2.7-.3 1-.4s.8-.1 1.1-.1c.8 0 1.3.2 1.7.5s.6.9.6 1.6v4.4h-.8zm-2.2-.7c.6 0 1.1-.2 1.4-.5s.5-.8.5-1.4v-.6h-1c-.8 0-1.3.1-1.7.4s-.5.5-.5 1c0 .4.1.6.3.8s.6.3 1 .3zm7.9.8c-.4 0-.8-.1-1.1-.2s-.6-.4-.9-.7h-.1c0 .4.1.7.1 1.1v2.6h-1v-9.3h.8l.1.9c.2-.4.5-.6.9-.8s.7-.2 1.1-.2c.9 0 1.5.3 2 .9s.7 1.4.7 2.4c0 1.1-.2 1.9-.7 2.5s-1.1.8-1.9.8zm-.2-5.8c-.7 0-1.1.2-1.4.5s-.4.9-.5 1.7v.2c0 .9.2 1.5.5 1.9s.8.6 1.4.6c.6 0 1-.2 1.3-.7s.5-1.1.5-1.9c0-.8-.2-1.4-.5-1.8s-.7-.5-1.3-.5zm7.5 5.8c-.4 0-.8-.1-1.1-.2s-.6-.4-.9-.7h-.1c0 .4.1.7.1 1.1v2.6h-1v-9.3h.8l.1.9c.2-.4.5-.6.9-.8s.7-.2 1.1-.2c.9 0 1.5.3 2 .9s.7 1.4.7 2.4c0 1.1-.2 1.9-.7 2.5s-1 .8-1.9.8zm-.1-5.8c-.7 0-1.1.2-1.4.5s-.4.9-.5 1.7v.2c0 .9.2 1.5.5 1.9s.8.6 1.4.6c.6 0 1-.2 1.3-.7s.5-1.1.5-1.9c0-.8-.2-1.4-.5-1.8s-.7-.5-1.3-.5zm5.5 5.7h-1v-9.1h1v9.1zm2-8.2c0-.2.1-.4.2-.5s.2-.2.4-.2.3.1.4.2.2.3.2.5-.1.4-.2.5-.2.2-.4.2-.3-.1-.4-.2-.2-.2-.2-.5zm1 8.2h-1v-6.4h1v6.4zm4.6.1c-.9 0-1.6-.3-2.2-.9s-.8-1.4-.8-2.4c0-1.1.3-1.9.8-2.5s1.3-.9 2.2-.9c.3 0 .6 0 .9.1s.6.1.7.2l-.3.8c-.2-.1-.4-.2-.7-.2s-.5-.1-.7-.1c-1.3 0-2 .8-2 2.5 0 .8.2 1.4.5 1.8s.8.6 1.4.6c.5 0 1.1-.1 1.6-.3v.9c-.2.3-.7.4-1.4.4zm7.1-.1-.2-.9c-.3.4-.6.7-1 .8s-.7.2-1.2.2c-.6 0-1.1-.2-1.5-.5s-.5-.8-.5-1.4c0-1.3 1-2 3.1-2h1.1v-.4c0-.5-.1-.9-.3-1.1s-.6-.4-1-.4c-.5 0-1.1.2-1.8.5l-.3-.7c.3-.2.7-.3 1-.4s.8-.1 1.1-.1c.8 0 1.3.2 1.7.5s.6.9.6 1.6v4.4h-.8zm-2.2-.7c.6 0 1.1-.2 1.4-.5s.5-.8.5-1.4v-.6h-1c-.8 0-1.3.1-1.7.4s-.5.5-.5 1c0 .4.1.6.3.8s.7.3 1 .3zm7 0h.5c.2 0 .3-.1.4-.1v.7c-.1.1-.3.1-.5.1h-.6c-1.2 0-1.9-.7-1.9-2v-3.8h-.9v-.5l.9-.4.4-1.4h.6v1.5h1.9v.8H634v3.8c0 .4.1.7.3.9s.5.4.8.4zm2.1-7.5c0-.2.1-.4.2-.5s.2-.2.4-.2.3.1.4.2.2.3.2.5-.1.4-.2.5-.2.2-.4.2-.3-.1-.4-.2-.2-.2-.2-.5zm1.1 8.2h-1v-6.4h1v6.4zm7.6-3.2c0 1-.3 1.9-.8 2.5s-1.3.9-2.2.9c-.6 0-1.1-.1-1.5-.4s-.8-.7-1-1.2-.4-1.1-.4-1.8c0-1 .3-1.9.8-2.4s1.2-.9 2.2-.9c.9 0 1.6.3 2.1.9s.8 1.4.8 2.4zm-4.9 0c0 .8.2 1.4.5 1.9s.8.6 1.4.6 1.1-.2 1.5-.6.5-1.1.5-1.9c0-.8-.2-1.4-.5-1.9s-.8-.6-1.5-.6c-.6 0-1.1.2-1.4.6s-.5 1.1-.5 1.9zm11 3.2v-4.2c0-.5-.1-.9-.4-1.2s-.6-.4-1.1-.4c-.7 0-1.2.2-1.5.5s-.5 1-.5 1.8v3.4h-1v-6.4h.8l.2.9c.2-.3.5-.6.8-.7s.8-.3 1.2-.3c.8 0 1.4.2 1.7.6s.6 1 .6 1.8v4.2h-.8zm-49.4 151.6c0 1.4-.4 2.5-1.2 3.2s-1.9 1.1-3.3 1.1h-2.4v-8.6h2.6c1.3 0 2.4.4 3.1 1.1s1.2 1.9 1.2 3.2zm-1 .1c0-1.1-.3-2-.8-2.5s-1.4-.8-2.5-.8h-1.4v6.8h1.2c1.2 0 2.1-.3 2.7-.9s.8-1.5.8-2.6zm6.7 4.3-.2-.9c-.3.4-.6.7-1 .8s-.7.2-1.2.2c-.6 0-1.1-.2-1.5-.5s-.5-.8-.5-1.4c0-1.3 1-2 3.1-2h1.1v-.4c0-.5-.1-.9-.3-1.1s-.6-.4-1-.4c-.5 0-1.1.2-1.8.5l-.3-.7c.3-.2.7-.3 1-.4s.8-.1 1.1-.1c.8 0 1.3.2 1.7.5s.6.9.6 1.6v4.4h-.8zm-2.2-.7c.6 0 1.1-.2 1.4-.5s.5-.8.5-1.4v-.6h-1c-.8 0-1.3.1-1.7.4s-.5.5-.5 1c0 .4.1.6.3.8s.6.3 1 .3zm7 0h.5c.2 0 .3-.1.4-.1v.7c-.1.1-.3.1-.5.1s-.4.1-.6.1c-1.2 0-1.9-.7-1.9-2v-3.8h-.9v-.5l.9-.4.4-1.4h.6v1.5h1.9v.8H612v3.8c0 .4.1.7.3.9s.5.3.8.3zm6.1.7-.2-.9c-.3.4-.6.7-1 .8s-.7.2-1.2.2c-.6 0-1.1-.2-1.5-.5s-.5-.8-.5-1.4c0-1.3 1-2 3.1-2h1.1v-.4c0-.5-.1-.9-.3-1.1s-.6-.4-1-.4c-.5 0-1.1.2-1.8.5l-.3-.7c.3-.2.7-.3 1-.4s.8-.1 1.1-.1c.8 0 1.3.2 1.7.5s.6.9.6 1.6v4.4h-.8zm-2.2-.7c.6 0 1.1-.2 1.4-.5s.5-.8.5-1.4v-.6h-1c-.8 0-1.3.1-1.7.4s-.5.5-.5 1c0 .4.1.6.3.8s.7.3 1 .3zm7.9-5.8c.8 0 1.5.3 2 .9s.7 1.4.7 2.4-.2 1.9-.7 2.5-1.1.9-2 .9c-.4 0-.8-.1-1.1-.2s-.6-.4-.9-.7h-.1l-.2.8h-.6v-9.1h1v3.5c.4-.7 1.1-1 1.9-1zm-.1.8c-.7 0-1.1.2-1.4.6s-.4 1-.4 1.9.2 1.5.5 1.9.8.6 1.4.6c.6 0 1-.2 1.3-.7s.4-1.1.4-1.9c0-.8-.1-1.5-.4-1.9s-.8-.5-1.4-.5zm8.5 5.7-.2-.9c-.3.4-.6.7-1 .8s-.7.2-1.2.2c-.6 0-1.1-.2-1.5-.5s-.5-.8-.5-1.4c0-1.3 1-2 3.1-2h1.1v-.4c0-.5-.1-.9-.3-1.1s-.6-.4-1-.4c-.5 0-1.1.2-1.8.5l-.3-.7c.3-.2.7-.3 1-.4s.8-.1 1.1-.1c.8 0 1.3.2 1.7.5s.6.9.6 1.6v4.4h-.8zm-2.2-.7c.6 0 1.1-.2 1.4-.5s.5-.8.5-1.4v-.6h-1c-.8 0-1.3.1-1.7.4s-.5.5-.5 1c0 .4.1.6.3.8s.6.3 1 .3zm9-1c0 .6-.2 1.1-.7 1.4s-1.1.5-1.9.5c-.9 0-1.5-.1-2-.4v-.9c.3.2.6.3 1 .4s.7.1 1 .1c.5 0 .9-.1 1.2-.2s.4-.4.4-.7c0-.2-.1-.5-.3-.6s-.6-.4-1.3-.6c-.6-.2-1-.4-1.3-.6s-.4-.4-.6-.6-.2-.5-.2-.8c0-.5.2-.9.6-1.2s1-.5 1.8-.5c.7 0 1.4.1 2 .4l-.3.8c-.6-.3-1.2-.4-1.8-.4-.5 0-.8.1-1 .2s-.4.3-.4.6c0 .2 0 .3.1.4s.2.2.4.3.6.3 1.1.5c.8.3 1.3.6 1.5.8s.7.6.7 1.1zm4.3 1.8c-.9 0-1.7-.3-2.2-.9s-.8-1.4-.8-2.4.3-1.9.8-2.5 1.2-.9 2.1-.9c.8 0 1.4.3 1.9.8s.7 1.2.7 2.1v.6h-4.4c0 .8.2 1.3.6 1.7s.9.6 1.5.6c.7 0 1.4-.1 2.1-.4v.9c-.3.1-.7.3-1 .3s-.8.1-1.3.1zm-.2-5.8c-.5 0-.9.2-1.2.5s-.5.8-.5 1.4h3.4c0-.6-.1-1.1-.4-1.4s-.8-.5-1.3-.5zm-91.4-304.8c-.9 0-1.7.3-2.2.9s-.8 1.5-.8 2.6.3 2 .8 2.6 1.3.9 2.2.9c.6 0 1.3-.1 2-.3v.9c-.6.2-1.3.3-2.2.3-1.3 0-2.2-.4-2.9-1.1s-1-1.9-1-3.3c0-.9.2-1.7.5-2.3s.8-1.2 1.4-1.5 1.4-.5 2.2-.5c.9 0 1.7.2 2.4.5l-.4.9c-.7-.5-1.3-.6-2-.6zm4.8 7.8h-1v-9.1h1v9.1zm7.6-3.3c0 1-.3 1.9-.8 2.5s-1.3.9-2.2.9c-.6 0-1.1-.1-1.5-.4s-.8-.7-1-1.2-.4-1.1-.4-1.8c0-1 .3-1.9.8-2.4s1.2-.9 2.2-.9c.9 0 1.6.3 2.1.9s.8 1.4.8 2.4zm-4.9 0c0 .8.2 1.4.5 1.9s.8.6 1.4.6 1.1-.2 1.5-.6.5-1.1.5-1.9c0-.8-.2-1.4-.5-1.9s-.8-.6-1.5-.6c-.6 0-1.1.2-1.4.6s-.5 1.1-.5 1.9zm7.5-3.2v4.2c0 .5.1.9.4 1.2s.6.4 1.1.4c.7 0 1.2-.2 1.5-.6s.5-1 .5-1.8v-3.4h1v6.4h-.8l-.1-.9h-.1c-.2.3-.5.6-.8.7s-.8.3-1.2.3c-.8 0-1.4-.2-1.8-.6s-.6-1-.6-1.8V183h.9zm10.8 5.6c-.5.7-1.2 1-2.1 1-.8 0-1.5-.3-2-.9s-.7-1.4-.7-2.4.2-1.9.7-2.5 1.1-.9 2-.9c.9 0 1.5.3 2 .9h.1v-3.6h1v9.1h-.8l-.2-.7zm-1.9.2c.7 0 1.1-.2 1.4-.5s.4-.9.4-1.7v-.2c0-.9-.2-1.6-.5-1.9s-.8-.6-1.5-.6c-.6 0-1 .2-1.3.7s-.5 1.1-.5 1.9c0 .8.2 1.4.5 1.9s.9.4 1.5.4zm12.4.7v-4.2c0-.5-.1-.9-.4-1.2s-.6-.4-1.1-.4c-.7 0-1.2.2-1.5.6s-.5 1-.5 1.8v3.4h-1v-9.1h1v3.6h.1c.2-.3.5-.6.8-.7s.8-.3 1.2-.3c.8 0 1.4.2 1.8.6s.6 1 .6 1.8v4.2h-1zm8.5-3.3c0 1-.3 1.9-.8 2.5s-1.3.9-2.2.9c-.6 0-1.1-.1-1.5-.4s-.8-.7-1-1.2-.4-1.1-.4-1.8c0-1 .3-1.9.8-2.4s1.2-.9 2.2-.9c.9 0 1.6.3 2.1.9s.8 1.4.8 2.4zm-4.9 0c0 .8.2 1.4.5 1.9s.8.6 1.4.6 1.1-.2 1.5-.6.5-1.1.5-1.9c0-.8-.2-1.4-.5-1.9s-.8-.6-1.5-.6c-.6 0-1.1.2-1.4.6s-.5 1.1-.5 1.9zm10.8 1.5c0 .6-.2 1.1-.7 1.4s-1.1.5-1.9.5c-.9 0-1.5-.1-2-.4v-.9c.3.2.6.3 1 .4s.7.1 1 .1c.5 0 .9-.1 1.2-.2s.4-.4.4-.7c0-.2-.1-.5-.3-.6s-.6-.4-1.3-.6c-.6-.2-1-.4-1.3-.6s-.4-.4-.6-.6-.2-.5-.2-.8c0-.5.2-.9.6-1.2s1-.5 1.8-.5c.7 0 1.4.1 2 .4l-.3.8c-.6-.3-1.2-.4-1.8-.4-.5 0-.8.1-1 .2s-.4.3-.4.6c0 .2 0 .3.1.4s.2.2.4.3.6.3 1.1.5c.8.3 1.3.6 1.5.8s.7.7.7 1.1zm3.6 1.1h.5c.2 0 .3-.1.4-.1v.7c-.1.1-.3.1-.5.1h-.6c-1.2 0-1.9-.7-1.9-2v-3.8h-.9v-.5l.9-.4.4-1.4h.6v1.5h1.9v.8H606v3.8c0 .4.1.7.3.9s.5.4.8.4zm4.9.8c-.9 0-1.7-.3-2.2-.9s-.8-1.4-.8-2.4.3-1.9.8-2.5 1.2-.9 2.1-.9c.8 0 1.4.3 1.9.8s.7 1.2.7 2.1v.6h-4.4c0 .8.2 1.3.6 1.7s.9.6 1.5.6c.7 0 1.4-.1 2.1-.4v.9c-.3.1-.7.3-1 .3s-.9.1-1.3.1zm-.3-5.9c-.5 0-.9.2-1.2.5s-.5.8-.5 1.4h3.4c0-.6-.1-1.1-.4-1.4s-.7-.5-1.3-.5zm8.7 4.9c-.5.7-1.2 1-2.1 1-.8 0-1.5-.3-2-.9s-.7-1.4-.7-2.4.2-1.9.7-2.5 1.1-.9 2-.9c.9 0 1.5.3 2 .9h.1v-3.6h1v9.1h-.8l-.2-.7zm-1.9.2c.7 0 1.1-.2 1.4-.5s.4-.9.4-1.7v-.2c0-.9-.2-1.6-.5-1.9s-.8-.6-1.5-.6c-.6 0-1 .2-1.3.7s-.5 1.1-.5 1.9c0 .8.2 1.4.5 1.9s.9.4 1.5.4zm13.2.7-1.2-3.8c-.1-.2-.2-.8-.4-1.6-.2.7-.3 1.2-.4 1.6l-1.2 3.8h-1.1l-1.8-6.4h1c.4 1.6.7 2.8.9 3.7s.3 1.4.4 1.7c0-.2.1-.5.2-.9s.2-.6.2-.8l1.2-3.7h1.1l1.1 3.7c.2.7.4 1.2.4 1.7 0-.1.1-.4.1-.7s.5-1.9 1.2-4.7h1l-1.8 6.4h-.9zm6.8.1c-.9 0-1.7-.3-2.2-.9s-.8-1.4-.8-2.4.3-1.9.8-2.5 1.2-.9 2.1-.9c.8 0 1.4.3 1.9.8s.7 1.2.7 2.1v.6h-4.4c0 .8.2 1.3.6 1.7s.9.6 1.5.6c.7 0 1.4-.1 2.1-.4v.9c-.3.1-.7.3-1 .3s-.8.1-1.3.1zm-.2-5.9c-.5 0-.9.2-1.2.5s-.5.8-.5 1.4h3.4c0-.6-.1-1.1-.4-1.4s-.8-.5-1.3-.5zm7.3-.8c.8 0 1.5.3 2 .9s.7 1.4.7 2.4-.2 1.9-.7 2.5-1.1.9-2 .9c-.4 0-.8-.1-1.1-.2s-.6-.4-.9-.7h-.1l-.2.8h-.7v-9.1h1v3.5c.4-.6 1.1-1 2-1zm-.2.8c-.7 0-1.1.2-1.4.6s-.4 1-.4 1.9.2 1.5.5 1.9.8.6 1.4.6c.6 0 1-.2 1.3-.7s.4-1.1.4-1.9c0-.8-.1-1.5-.4-1.9s-.8-.5-1.4-.5zm11.8 4c0 .6-.2 1.1-.7 1.4s-1.1.5-1.9.5c-.9 0-1.5-.1-2-.4v-.9c.3.2.6.3 1 .4s.7.1 1 .1c.5 0 .9-.1 1.2-.2s.4-.4.4-.7c0-.2-.1-.5-.3-.6s-.6-.4-1.3-.6c-.6-.2-1-.4-1.3-.6s-.4-.4-.6-.6-.2-.5-.2-.8c0-.5.2-.9.6-1.2s1-.5 1.8-.5c.7 0 1.4.1 2 .4l-.3.8c-.6-.3-1.2-.4-1.8-.4-.5 0-.8.1-1 .2s-.4.3-.4.6c0 .2 0 .3.1.4s.2.2.4.3.6.3 1.1.5c.8.3 1.3.6 1.5.8s.7.7.7 1.1zm4.3 1.9c-.9 0-1.7-.3-2.2-.9s-.8-1.4-.8-2.4.3-1.9.8-2.5 1.2-.9 2.1-.9c.8 0 1.4.3 1.9.8s.7 1.2.7 2.1v.6h-4.4c0 .8.2 1.3.6 1.7s.9.6 1.5.6c.7 0 1.4-.1 2.1-.4v.9c-.3.1-.7.3-1 .3s-.9.1-1.3.1zm-.3-5.9c-.5 0-.9.2-1.2.5s-.5.8-.5 1.4h3.4c0-.6-.1-1.1-.4-1.4s-.8-.5-1.3-.5zm7.2-.8c.3 0 .5 0 .8.1l-.1.9c-.3-.1-.5-.1-.7-.1-.5 0-1 .2-1.3.6s-.6.9-.6 1.6v3.4h-1v-6.4h.8l.1 1.2c.2-.4.5-.7.9-1s.7-.3 1.1-.3zm3.4 6.6-2.4-6.4h1l1.4 3.8c.3.9.5 1.5.6 1.7 0-.2.2-.6.4-1.3s.7-2.1 1.5-4.3h1l-2.4 6.4h-1.1zm7.3.1c-.9 0-1.7-.3-2.2-.9s-.8-1.4-.8-2.4.3-1.9.8-2.5 1.2-.9 2.1-.9c.8 0 1.4.3 1.9.8s.7 1.2.7 2.1v.6h-4.4c0 .8.2 1.3.6 1.7s.9.6 1.5.6c.7 0 1.4-.1 2.1-.4v.9c-.3.1-.7.3-1 .3s-.9.1-1.3.1zm-.2-5.9c-.5 0-.9.2-1.2.5s-.5.8-.5 1.4h3.4c0-.6-.1-1.1-.4-1.4s-.8-.5-1.3-.5zm7.2-.8c.3 0 .5 0 .8.1l-.1.9c-.3-.1-.5-.1-.7-.1-.5 0-1 .2-1.3.6s-.6.9-.6 1.6v3.4h-1v-6.4h.8l.1 1.2c.2-.4.5-.7.9-1s.7-.3 1.1-.3zm-644 136v-8.6h1v8.6h-1zm10.2-4.3c0 1.4-.4 2.5-1.2 3.2s-1.9 1.1-3.3 1.1h-2.4v-8.6H48c1.3 0 2.4.4 3.1 1.1s1.2 1.8 1.2 3.2zm-1.1 0c0-1.1-.3-2-.8-2.5s-1.4-.8-2.5-.8h-1.4v6.8h1.2c1.2 0 2.1-.3 2.7-.9s.8-1.5.8-2.6zm7.7 4.3h-4.8v-8.6h4.8v.9h-3.8v2.8h3.6v.9h-3.6v3.2h3.8v.8z"/>
    <path d="M4 441.4h26.3" class="galasa-hybrid-cloud_svg__st53"/>
    <path d="m29.1 445.4 6.9-4-6.9-4zm25.6.6h-1v-7.7H51v-.9h6.4v.9h-2.7v7.7zm6.6.1c-.9 0-1.7-.3-2.2-.9s-.8-1.4-.8-2.4.3-1.9.8-2.5 1.2-.9 2.1-.9c.8 0 1.4.3 1.9.8s.7 1.2.7 2.1v.6h-4.4c0 .8.2 1.3.6 1.7s.9.6 1.5.6c.7 0 1.4-.1 2.1-.4v.9c-.3.1-.7.3-1 .3s-.9.1-1.3.1zm-.3-5.8c-.5 0-.9.2-1.2.5s-.5.8-.5 1.4h3.4c0-.6-.1-1.1-.4-1.4s-.8-.5-1.3-.5zm8.4 4c0 .6-.2 1.1-.7 1.4s-1.1.5-1.9.5c-.9 0-1.5-.1-2-.4v-.9c.3.2.6.3 1 .4s.7.1 1 .1c.5 0 .9-.1 1.2-.2s.4-.4.4-.7c0-.2-.1-.5-.3-.6s-.6-.4-1.3-.6c-.6-.2-1-.4-1.3-.6s-.4-.4-.6-.6-.2-.5-.2-.8c0-.5.2-.9.6-1.2s1-.5 1.8-.5c.7 0 1.4.1 2 .4l-.3.8c-.6-.3-1.2-.4-1.8-.4-.5 0-.8.1-1 .2s-.4.3-.4.6c0 .2 0 .3.1.4s.2.2.4.3.6.3 1.1.5c.8.3 1.3.6 1.5.8s.7.6.7 1.1zm3.7 1h.5c.2 0 .3-.1.4-.1v.7c-.1.1-.3.1-.5.1h-.6c-1.2 0-1.9-.7-1.9-2v-3.8h-.9v-.5l.9-.4.4-1.4h.6v1.5h1.9v.8H72v3.8c0 .4.1.7.3.9s.5.4.8.4zm2.1-7.4c0-.2.1-.4.2-.5s.2-.2.4-.2.3.1.4.2.2.3.2.5-.1.4-.2.5-.2.2-.4.2-.3-.1-.4-.2-.2-.3-.2-.5zm1 8.1h-1v-6.4h1v6.4zm6.5 0v-4.2c0-.5-.1-.9-.4-1.2s-.6-.4-1.1-.4c-.7 0-1.2.2-1.5.5s-.5 1-.5 1.8v3.4h-1v-6.4h.8l.2.9c.2-.3.5-.6.8-.7s.8-.3 1.2-.3c.8 0 1.4.2 1.7.6s.6 1 .6 1.8v4.2h-.8zm8.2-6.4v.6l-1.2.1c.1.1.2.3.3.5s.1.5.1.7c0 .6-.2 1.1-.6 1.5s-1 .6-1.8.6h-.5c-.4.2-.6.5-.6.8 0 .2.1.3.2.4s.4.1.7.1h1.1c.7 0 1.2.1 1.6.4s.6.7.6 1.3c0 .7-.3 1.3-.9 1.6s-1.4.6-2.5.6c-.8 0-1.5-.2-1.9-.5s-.7-.8-.7-1.3c0-.4.1-.7.4-1s.6-.5 1.1-.6c-.2-.1-.3-.2-.4-.3s-.2-.3-.2-.5.1-.4.2-.6.3-.3.6-.5c-.3-.1-.6-.4-.8-.7s-.3-.7-.3-1.1c0-.7.2-1.2.6-1.6s1-.6 1.8-.6c.3 0 .6 0 .9.1h2.2zm-5.1 7.5c0 .3.1.6.4.8s.7.3 1.3.3c.8 0 1.4-.1 1.8-.4s.6-.6.6-1c0-.3-.1-.6-.3-.7s-.6-.2-1.2-.2h-1.2c-.4 0-.8.1-1 .3s-.4.5-.4.9zm.5-5.4c0 .4.1.8.4 1s.6.3 1.1.3c.9 0 1.4-.5 1.4-1.4 0-1-.5-1.4-1.4-1.4-.5 0-.8.1-1.1.4s-.4.6-.4 1.1zm12 4.4c-.4 0-.8-.1-1.1-.2s-.6-.4-.9-.7h-.1c0 .4.1.7.1 1.1v2.6h-1v-9.3h.8l.1.9c.2-.4.5-.6.9-.8s.7-.2 1.1-.2c.9 0 1.5.3 2 .9s.7 1.4.7 2.4c0 1.1-.2 1.9-.7 2.5s-1 .8-1.9.8zm-.1-5.8c-.7 0-1.1.2-1.4.5s-.4.9-.5 1.7v.2c0 .9.2 1.5.5 1.9s.8.6 1.4.6c.6 0 1-.2 1.3-.7s.5-1.1.5-1.9c0-.8-.2-1.4-.5-1.8s-.7-.5-1.3-.5zm8.5 5.7-.2-.9c-.3.4-.6.7-1 .8s-.7.2-1.2.2c-.6 0-1.1-.2-1.5-.5s-.5-.8-.5-1.4c0-1.3 1-2 3.1-2h1.1v-.4c0-.5-.1-.9-.3-1.1s-.6-.4-1-.4c-.5 0-1.1.2-1.8.5l-.3-.7c.3-.2.7-.3 1-.4s.8-.1 1.1-.1c.8 0 1.3.2 1.7.5s.6.9.6 1.6v4.4h-.8zm-2.2-.7c.6 0 1.1-.2 1.4-.5s.5-.8.5-1.4v-.6h-1c-.8 0-1.3.1-1.7.4s-.5.5-.5 1c0 .4.1.6.3.8s.6.3 1 .3zm7 0h.5c.2 0 .3-.1.4-.1v.7c-.1.1-.3.1-.5.1h-.6c-1.2 0-1.9-.7-1.9-2v-3.8h-.9v-.5l.9-.4.4-1.4h.6v1.5h1.9v.8h-1.9v3.8c0 .4.1.7.3.9s.4.4.8.4zm6.5.7v-4.2c0-.5-.1-.9-.4-1.2s-.6-.4-1.1-.4c-.7 0-1.2.2-1.5.6s-.5 1-.5 1.8v3.4h-1v-9.1h1v3.6h.1c.2-.3.5-.6.8-.7s.8-.3 1.2-.3c.8 0 1.4.2 1.8.6s.6 1 .6 1.8v4.2h-1z"/>
    <path d="M4 467.4h26.3" class="galasa-hybrid-cloud_svg__st44"/>
    <path d="m29.1 471.4 6.9-4-6.9-4zm27.9-7.9h1l-3 8.5h-1l-3.1-8.6H52l2 5.5c.2.6.4 1.3.5 1.9.1-.6.3-1.3.6-1.9l1.9-5.4zm6 8.5-.2-.9c-.3.4-.6.7-1 .8s-.7.2-1.2.2c-.6 0-1.1-.2-1.5-.5s-.5-.8-.5-1.4c0-1.3 1-2 3.1-2h1.1v-.4c0-.5-.1-.9-.3-1.1s-.6-.4-1-.4c-.5 0-1.1.2-1.8.5l-.3-.7c.3-.2.7-.3 1-.4s.8-.1 1.1-.1c.8 0 1.3.2 1.7.5s.6.9.6 1.6v4.4H63zm-2.2-.7c.6 0 1.1-.2 1.4-.5s.5-.8.5-1.4v-.6h-1c-.8 0-1.3.1-1.7.4s-.5.5-.5 1c0 .4.1.6.3.8s.6.3 1 .3zm5.9.7h-1v-9.1h1v9.1zm2-8.1c0-.2.1-.4.2-.5s.2-.2.4-.2.3.1.4.2.2.3.2.5-.1.4-.2.5-.2.2-.4.2-.3-.1-.4-.2-.2-.3-.2-.5zm1.1 8.1h-1v-6.4h1v6.4zm6.4-.8c-.5.7-1.2 1-2.1 1-.8 0-1.5-.3-2-.9s-.7-1.4-.7-2.4.2-1.9.7-2.5 1.1-.9 2-.9c.9 0 1.5.3 2 .9h.1v-3.6h1v9.1h-.8l-.2-.7zm-2 .1c.7 0 1.1-.2 1.4-.5s.4-.9.4-1.7v-.2c0-.9-.2-1.6-.5-1.9s-.8-.6-1.5-.6c-.6 0-1 .2-1.3.7s-.5 1.1-.5 1.9c0 .8.2 1.4.5 1.9s1 .4 1.5.4zm8.9.7-.2-.9c-.3.4-.6.7-1 .8s-.7.2-1.2.2c-.6 0-1.1-.2-1.5-.5s-.5-.8-.5-1.4c0-1.3 1-2 3.1-2h1.1v-.4c0-.5-.1-.9-.3-1.1s-.6-.4-1-.4c-.5 0-1.1.2-1.8.5l-.3-.7c.3-.2.7-.3 1-.4s.8-.1 1.1-.1c.8 0 1.3.2 1.7.5s.6.9.6 1.6v4.4h-.8zm-2.2-.7c.6 0 1.1-.2 1.4-.5s.5-.8.5-1.4v-.6h-1c-.8 0-1.3.1-1.7.4s-.5.5-.5 1c0 .4.1.6.3.8s.6.3 1 .3zm7 0h.5c.2 0 .3-.1.4-.1v.7c-.1.1-.3.1-.5.1h-.6c-1.2 0-1.9-.7-1.9-2v-3.8H85v-.5l.9-.4.4-1.4h.6v1.5h1.9v.8h-1.9v3.8c0 .4.1.7.3.9s.4.4.7.4zm2.1-7.4c0-.2.1-.4.2-.5s.2-.2.4-.2.3.1.4.2.2.3.2.5-.1.4-.2.5-.2.2-.4.2-.3-.1-.4-.2-.2-.3-.2-.5zm1.1 8.1h-1v-6.4h1v6.4zm7.6-3.2c0 1-.3 1.9-.8 2.5s-1.3.9-2.2.9c-.6 0-1.1-.1-1.5-.4s-.8-.7-1-1.2-.4-1.1-.4-1.8c0-1 .3-1.9.8-2.4s1.2-.9 2.2-.9c.9 0 1.6.3 2.1.9s.8 1.4.8 2.4zm-4.9 0c0 .8.2 1.4.5 1.9s.8.6 1.4.6 1.1-.2 1.5-.6.5-1.1.5-1.9c0-.8-.2-1.4-.5-1.9s-.8-.6-1.5-.6c-.6 0-1.1.2-1.4.6s-.5 1.1-.5 1.9zm11 3.2v-4.2c0-.5-.1-.9-.4-1.2s-.6-.4-1.1-.4c-.7 0-1.2.2-1.5.5s-.5 1-.5 1.8v3.4h-1v-6.4h.8l.2.9c.2-.3.5-.6.8-.7s.8-.3 1.2-.3c.8 0 1.4.2 1.7.6s.6 1 .6 1.8v4.2h-.8zm9 .1c-.4 0-.8-.1-1.1-.2s-.6-.4-.9-.7h-.1c0 .4.1.7.1 1.1v2.6h-1v-9.3h.8l.1.9c.2-.4.5-.6.9-.8s.7-.2 1.1-.2c.9 0 1.5.3 2 .9s.7 1.4.7 2.4c0 1.1-.2 1.9-.7 2.5s-1 .8-1.9.8zm-.1-5.8c-.7 0-1.1.2-1.4.5s-.4.9-.5 1.7v.2c0 .9.2 1.5.5 1.9s.8.6 1.4.6c.6 0 1-.2 1.3-.7s.5-1.1.5-1.9c0-.8-.2-1.4-.5-1.8s-.7-.5-1.3-.5zm8.4 5.7-.2-.9c-.3.4-.6.7-1 .8s-.7.2-1.2.2c-.6 0-1.1-.2-1.5-.5s-.5-.8-.5-1.4c0-1.3 1-2 3.1-2h1.1v-.4c0-.5-.1-.9-.3-1.1s-.6-.4-1-.4c-.5 0-1.1.2-1.8.5l-.3-.7c.3-.2.7-.3 1-.4s.8-.1 1.1-.1c.8 0 1.3.2 1.7.5s.6.9.6 1.6v4.4h-.8zm-2.2-.7c.6 0 1.1-.2 1.4-.5s.5-.8.5-1.4v-.6h-1c-.8 0-1.3.1-1.7.4s-.5.5-.5 1c0 .4.1.6.3.8s.7.3 1 .3zm7 0h.5c.2 0 .3-.1.4-.1v.7c-.1.1-.3.1-.5.1h-.6c-1.2 0-1.9-.7-1.9-2v-3.8h-.8v-.5l.9-.4.4-1.4h.6v1.5h1.9v.8h-1.9v3.8c0 .4.1.7.3.9s.4.4.7.4zm6.6.7v-4.2c0-.5-.1-.9-.4-1.2s-.6-.4-1.1-.4c-.7 0-1.2.2-1.5.6s-.5 1-.5 1.8v3.4h-1v-9.1h1v3.6h.1c.2-.3.5-.6.8-.7s.8-.3 1.2-.3c.8 0 1.4.2 1.8.6s.6 1 .6 1.8v4.2h-1z"/>
    <path d="M4.8 416.4h25.5" class="galasa-hybrid-cloud_svg__st46"/>
    <path d="m29.1 420.4 6.9-4-6.9-4zm23-.4v-8.6h1v8.6h-1zm7.6 0v-4.2c0-.5-.1-.9-.4-1.2s-.6-.4-1.1-.4c-.7 0-1.2.2-1.5.5s-.5 1-.5 1.8v3.4h-1v-6.4h.8l.2.9c.2-.3.5-.6.8-.7s.8-.3 1.2-.3c.8 0 1.4.2 1.7.6s.6 1 .6 1.8v4.2h-.8zm2.9-8.1c0-.2.1-.4.2-.5s.2-.2.4-.2.3.1.4.2.2.3.2.5-.1.4-.2.5-.2.2-.4.2-.3-.1-.4-.2-.2-.3-.2-.5zm1 8.1h-1v-6.4h1v6.4zm4.1-.7h.5c.2 0 .3-.1.4-.1v.7c-.1.1-.3.1-.5.1h-.6c-1.2 0-1.9-.7-1.9-2v-3.8h-.9v-.5l.9-.4.4-1.4h.6v1.5h1.9v.8h-1.9v3.8c0 .4.1.7.3.9s.5.4.8.4zm2.1-7.4c0-.2.1-.4.2-.5s.2-.2.4-.2.3.1.4.2.2.3.2.5-.1.4-.2.5-.2.2-.4.2-.3-.1-.4-.2-.2-.3-.2-.5zm1.1 8.1h-1v-6.4h1v6.4zm6 0-.2-.9c-.3.4-.6.7-1 .8s-.7.2-1.2.2c-.6 0-1.1-.2-1.5-.5s-.5-.8-.5-1.4c0-1.3 1-2 3.1-2h1.1v-.4c0-.5-.1-.9-.3-1.1s-.6-.4-1-.4c-.5 0-1.1.2-1.8.5l-.3-.7c.3-.2.7-.3 1-.4s.8-.1 1.1-.1c.8 0 1.3.2 1.7.5s.6.9.6 1.6v4.4h-.8zm-2.2-.7c.6 0 1.1-.2 1.4-.5s.5-.8.5-1.4v-.6h-1c-.8 0-1.3.1-1.7.4s-.5.5-.5 1c0 .4.1.6.3.8s.6.3 1 .3zm5.9.7h-1v-9.1h1v9.1zm2-8.1c0-.2.1-.4.2-.5s.2-.2.4-.2.3.1.4.2.2.3.2.5-.1.4-.2.5-.2.2-.4.2-.3-.1-.4-.2-.2-.3-.2-.5zm1 8.1h-1v-6.4h1v6.4zm6.2 0h-4.7v-.7l3.5-5h-3.3v-.8h4.4v.8l-3.5 4.9h3.5v.8zm4.2.1c-.9 0-1.7-.3-2.2-.9s-.8-1.4-.8-2.4.3-1.9.8-2.5 1.2-.9 2.1-.9c.8 0 1.4.3 1.9.8s.7 1.2.7 2.1v.6H92c0 .8.2 1.3.6 1.7s.9.6 1.5.6c.7 0 1.4-.1 2.1-.4v.9c-.3.1-.7.3-1 .3s-.8.1-1.2.1zm-.2-5.8c-.5 0-.9.2-1.2.5s-.5.8-.5 1.4h3.4c0-.6-.1-1.1-.4-1.4s-.8-.5-1.3-.5zm10.3 5.8c-.4 0-.8-.1-1.1-.2s-.6-.4-.9-.7h-.1c0 .4.1.7.1 1.1v2.6h-1v-9.3h.8l.1.9c.2-.4.5-.6.9-.8s.7-.2 1.1-.2c.9 0 1.5.3 2 .9s.7 1.4.7 2.4c0 1.1-.2 1.9-.7 2.5s-1 .8-1.9.8zm-.1-5.8c-.7 0-1.1.2-1.4.5s-.4.9-.5 1.7v.2c0 .9.2 1.5.5 1.9s.8.6 1.4.6c.6 0 1-.2 1.3-.7s.5-1.1.5-1.9c0-.8-.2-1.4-.5-1.8s-.7-.5-1.3-.5zm8.5 5.7-.2-.9c-.3.4-.6.7-1 .8s-.7.2-1.2.2c-.6 0-1.1-.2-1.5-.5s-.5-.8-.5-1.4c0-1.3 1-2 3.1-2h1.1v-.4c0-.5-.1-.9-.3-1.1s-.6-.4-1-.4c-.5 0-1.1.2-1.8.5l-.3-.7c.3-.2.7-.3 1-.4s.8-.1 1.1-.1c.8 0 1.3.2 1.7.5s.6.9.6 1.6v4.4h-.8zm-2.2-.7c.6 0 1.1-.2 1.4-.5s.5-.8.5-1.4v-.6h-1c-.8 0-1.3.1-1.7.4s-.5.5-.5 1c0 .4.1.6.3.8s.6.3 1 .3zm7 0h.5c.2 0 .3-.1.4-.1v.7c-.1.1-.3.1-.5.1h-.6c-1.2 0-1.9-.7-1.9-2v-3.8h-.9v-.5l.9-.4.4-1.4h.6v1.5h1.9v.8h-1.9v3.8c0 .4.1.7.3.9s.4.4.8.4zm6.5.7v-4.2c0-.5-.1-.9-.4-1.2s-.6-.4-1.1-.4c-.7 0-1.2.2-1.5.6s-.5 1-.5 1.8v3.4h-1v-9.1h1v3.6h.1c.2-.3.5-.6.8-.7s.8-.3 1.2-.3c.8 0 1.4.2 1.8.6s.6 1 .6 1.8v4.2h-1zM47.5 130c0 .9-.3 1.5-.9 2s-1.4.7-2.5.7h-1v3.4h-1v-8.6h2.2c2.1 0 3.2.8 3.2 2.5zm-4.4 1.8h.9c.9 0 1.5-.1 1.9-.4s.6-.7.6-1.4c0-.6-.2-1-.6-1.3s-.9-.4-1.7-.4h-1.1v3.5zm6-3.9c0-.2.1-.4.2-.5s.2-.2.4-.2.3.1.4.2.2.3.2.5-.1.4-.2.5-.2.2-.4.2-.3-.1-.4-.2-.2-.3-.2-.5zm1 8.1h-1v-6.4h1v6.4zm5.1.1c-.4 0-.8-.1-1.1-.2s-.6-.4-.9-.7h-.1c0 .4.1.7.1 1.1v2.6h-1v-9.3h.8l.1.9c.2-.4.5-.6.9-.8s.7-.2 1.1-.2c.9 0 1.5.3 2 .9s.7 1.4.7 2.4c0 1.1-.2 1.9-.7 2.5s-1.1.8-1.9.8zm-.2-5.8c-.7 0-1.1.2-1.4.5s-.4.9-.5 1.7v.2c0 .9.2 1.5.5 1.9s.8.6 1.4.6c.6 0 1-.2 1.3-.7s.5-1.1.5-1.9c0-.8-.2-1.4-.5-1.8s-.7-.5-1.3-.5zm7.3 5.8c-.9 0-1.7-.3-2.2-.9s-.8-1.4-.8-2.4.3-1.9.8-2.5 1.2-.9 2.1-.9c.8 0 1.4.3 1.9.8s.7 1.2.7 2.1v.6h-4.4c0 .8.2 1.3.6 1.7s.9.6 1.5.6c.7 0 1.4-.1 2.1-.4v.9c-.3.1-.7.3-1 .3s-.9.1-1.3.1zm-.3-5.8c-.5 0-.9.2-1.2.5s-.5.8-.5 1.4h3.4c0-.6-.1-1.1-.4-1.4s-.8-.5-1.3-.5zm5.2 5.7h-1v-9.1h1v9.1zm2-8.1c0-.2.1-.4.2-.5s.2-.2.4-.2.3.1.4.2.2.3.2.5-.1.4-.2.5-.2.2-.4.2-.3-.1-.4-.2-.2-.3-.2-.5zm1.1 8.1h-1v-6.4h1v6.4zm6.4 0v-4.2c0-.5-.1-.9-.4-1.2s-.6-.4-1.1-.4c-.7 0-1.2.2-1.5.5s-.5 1-.5 1.8v3.4h-1v-6.4h.8l.2.9c.2-.3.5-.6.8-.7s.8-.3 1.2-.3c.8 0 1.4.2 1.7.6s.6 1 .6 1.8v4.2h-.8zm5.7.1c-.9 0-1.7-.3-2.2-.9s-.8-1.4-.8-2.4.3-1.9.8-2.5 1.2-.9 2.1-.9c.8 0 1.4.3 1.9.8s.7 1.2.7 2.1v.6h-4.4c0 .8.2 1.3.6 1.7s.9.6 1.5.6c.7 0 1.4-.1 2.1-.4v.9c-.3.1-.7.3-1 .3s-.8.1-1.3.1zm-.2-5.8c-.5 0-.9.2-1.2.5s-.5.8-.5 1.4h3.4c0-.6-.1-1.1-.4-1.4s-.8-.5-1.3-.5z"/>
    <path d="M86.9 184.3h2.9v4.2c-.5.1-.9.3-1.4.3s-1 .1-1.6.1c-1.3 0-2.3-.4-3-1.2s-1.1-1.9-1.1-3.2c0-.9.2-1.7.5-2.3s.9-1.2 1.5-1.5 1.5-.5 2.4-.5c.9 0 1.8.2 2.6.5l-.4.9c-.8-.3-1.5-.5-2.2-.5-1 0-1.9.3-2.4.9s-.9 1.5-.9 2.6c0 1.2.3 2 .8 2.6s1.4.9 2.5.9c.6 0 1.2-.1 1.7-.2v-2.6h-1.9v-1zm8.8 4.5-.2-.9c-.3.4-.6.7-1 .8s-.7.2-1.2.2c-.6 0-1.1-.2-1.5-.5s-.5-.8-.5-1.4c0-1.3 1-2 3.1-2h1.1v-.4c0-.5-.1-.9-.3-1.1s-.6-.4-1-.4c-.5 0-1.1.2-1.8.5l-.3-.7c.3-.2.7-.3 1-.4s.8-.1 1.1-.1c.8 0 1.3.2 1.7.5s.6.9.6 1.6v4.4h-.8zm-2.2-.7c.6 0 1.1-.2 1.4-.5s.5-.8.5-1.4v-.6h-1c-.8 0-1.3.1-1.7.4s-.5.5-.5 1c0 .4.1.6.3.8s.6.3 1 .3zm5.9.7h-1v-9.1h1v9.1zm6 0-.2-.9c-.3.4-.6.7-1 .8s-.7.2-1.2.2c-.6 0-1.1-.2-1.5-.5s-.5-.8-.5-1.4c0-1.3 1-2 3.1-2h1.1v-.4c0-.5-.1-.9-.3-1.1s-.6-.4-1-.4c-.5 0-1.1.2-1.8.5l-.3-.7c.3-.2.7-.3 1-.4s.8-.1 1.1-.1c.8 0 1.3.2 1.7.5s.6.9.6 1.6v4.4h-.8zm-2.2-.7c.6 0 1.1-.2 1.4-.5s.5-.8.5-1.4v-.6h-1c-.8 0-1.3.1-1.7.4s-.5.5-.5 1c0 .4.1.6.3.8s.6.3 1 .3zm9.1-1c0 .6-.2 1.1-.7 1.4s-1.1.5-1.9.5c-.9 0-1.5-.1-2-.4v-.9c.3.2.6.3 1 .4s.7.1 1 .1c.5 0 .9-.1 1.2-.2s.4-.4.4-.7c0-.2-.1-.5-.3-.6s-.6-.4-1.3-.6c-.6-.2-1-.4-1.3-.6s-.4-.4-.6-.6-.2-.5-.2-.8c0-.5.2-.9.6-1.2s1-.5 1.8-.5c.7 0 1.4.1 2 .4l-.3.8c-.6-.3-1.2-.4-1.8-.4-.5 0-.8.1-1 .2s-.4.3-.4.6c0 .2 0 .3.1.4s.2.2.4.3.6.3 1.1.5c.8.3 1.3.6 1.5.8s.7.6.7 1.1zm5.5 1.7-.2-.9c-.3.4-.6.7-1 .8s-.7.2-1.2.2c-.6 0-1.1-.2-1.5-.5s-.5-.8-.5-1.4c0-1.3 1-2 3.1-2h1.1v-.4c0-.5-.1-.9-.3-1.1s-.6-.4-1-.4c-.5 0-1.1.2-1.8.5l-.3-.7c.3-.2.7-.3 1-.4s.8-.1 1.1-.1c.8 0 1.3.2 1.7.5s.6.9.6 1.6v4.4h-.8zm-2.2-.7c.6 0 1.1-.2 1.4-.5s.5-.8.5-1.4v-.6h-1c-.8 0-1.3.1-1.7.4s-.5.5-.5 1c0 .4.1.6.3.8s.6.3 1 .3zm10.1 0h.5c.2 0 .3-.1.4-.1v.7c-.1.1-.3.1-.5.1h-.6c-1.2 0-1.9-.7-1.9-2V183h-.9v-.5l.9-.4.4-1.4h.6v1.5h1.9v.8h-1.9v3.8c0 .4.1.7.3.9s.5.4.8.4zm4.9.8c-.9 0-1.7-.3-2.2-.9s-.8-1.4-.8-2.4.3-1.9.8-2.5 1.2-.9 2.1-.9c.8 0 1.4.3 1.9.8s.7 1.2.7 2.1v.6h-4.4c0 .8.2 1.3.6 1.7s.9.6 1.5.6c.7 0 1.4-.1 2.1-.4v.9c-.3.1-.7.3-1 .3s-.9.1-1.3.1zm-.2-5.8c-.5 0-.9.2-1.2.5s-.5.8-.5 1.4h3.4c0-.6-.1-1.1-.4-1.4s-.8-.5-1.3-.5zm8.4 4c0 .6-.2 1.1-.7 1.4s-1.1.5-1.9.5c-.9 0-1.5-.1-2-.4v-.9c.3.2.6.3 1 .4s.7.1 1 .1c.5 0 .9-.1 1.2-.2s.4-.4.4-.7c0-.2-.1-.5-.3-.6s-.6-.4-1.3-.6c-.6-.2-1-.4-1.3-.6s-.4-.4-.6-.6-.2-.5-.2-.8c0-.5.2-.9.6-1.2s1-.5 1.8-.5c.7 0 1.4.1 2 .4l-.3.8c-.6-.3-1.2-.4-1.8-.4-.5 0-.8.1-1 .2s-.4.3-.4.6c0 .2 0 .3.1.4s.2.2.4.3.6.3 1.1.5c.8.3 1.3.6 1.5.8s.7.6.7 1.1zm3.6 1h.5c.2 0 .3-.1.4-.1v.7c-.1.1-.3.1-.5.1h-.6c-1.2 0-1.9-.7-1.9-2V183h-.9v-.5l.9-.4.4-1.4h.6v1.5h1.9v.8h-1.9v3.8c0 .4.1.7.3.9s.5.4.8.4zm129.5-5.8c0 .5-.2 1-.5 1.3s-.7.6-1.3.7c.7.1 1.2.3 1.5.7s.5.8.5 1.4c0 .8-.3 1.4-.8 1.9s-1.4.7-2.4.7c-.5 0-.9 0-1.2-.1s-.7-.2-1.1-.4v-.9c.4.2.8.3 1.2.4s.8.1 1.2.1c1.5 0 2.2-.6 2.2-1.7 0-1-.8-1.6-2.4-1.6h-.8v-.8h.9c.7 0 1.2-.1 1.6-.4s.6-.7.6-1.2c0-.4-.1-.7-.4-1s-.7-.4-1.2-.4c-.4 0-.7.1-1.1.2s-.7.3-1.1.6l-.5-.7c.4-.3.8-.5 1.2-.7s.9-.2 1.5-.2c.8 0 1.5.2 1.9.6s.5.8.5 1.5zm7.2 6.5h-5.6v-.8l2.3-2.3c.7-.7 1.1-1.2 1.4-1.5s.4-.6.5-.9.2-.6.2-.9c0-.5-.1-.8-.4-1.1s-.7-.4-1.2-.4c-.4 0-.7.1-1 .2s-.7.3-1.1.6l-.5-.7c.8-.7 1.6-1 2.6-1 .8 0 1.4.2 1.9.6s.7 1 .7 1.7c0 .5-.2 1.1-.5 1.6s-.9 1.2-1.7 2l-1.9 1.8h4.4v1.1zm2.3 0 3.6-7.7h-4.7v-.9h5.7v.8l-3.5 7.8h-1.1zm11.4-4.3c0 1.5-.2 2.6-.7 3.3s-1.2 1.1-2.1 1.1c-.9 0-1.6-.4-2.1-1.1s-.7-1.8-.7-3.3c0-1.5.2-2.6.7-3.3s1.2-1.1 2.1-1.1c.9 0 1.6.4 2.1 1.1s.7 1.9.7 3.3zm-4.6 0c0 1.2.1 2.2.4 2.7s.8.9 1.4.9c.6 0 1.1-.3 1.4-.9s.4-1.5.4-2.7-.1-2.1-.4-2.7-.8-.9-1.4-.9c-.6 0-1.1.3-1.4.8s-.4 1.6-.4 2.8zm12.1 4.4c-.9 0-1.7-.3-2.2-.9s-.8-1.4-.8-2.4.3-1.9.8-2.5 1.2-.9 2.1-.9c.8 0 1.4.3 1.9.8s.7 1.2.7 2.1v.6h-4.4c0 .8.2 1.3.6 1.7s.9.6 1.5.6c.7 0 1.4-.1 2.1-.4v.9c-.3.1-.7.3-1 .3s-.9.1-1.3.1zm-.3-5.8c-.5 0-.9.2-1.2.5s-.5.8-.5 1.4h3.4c0-.6-.1-1.1-.4-1.4s-.7-.5-1.3-.5zm12.5 5.7v-4.2c0-.5-.1-.9-.3-1.2s-.6-.4-1-.4c-.6 0-1.1.2-1.3.5s-.4.9-.4 1.6v3.6h-1v-4.2c0-.5-.1-.9-.3-1.2s-.6-.4-1-.4c-.6 0-1.1.2-1.3.5s-.4 1-.4 1.8v3.4h-1v-6.4h.8l.2.9c.2-.3.4-.6.8-.7s.7-.3 1.1-.3c1 0 1.7.4 2 1.1.2-.3.5-.6.8-.8s.8-.3 1.2-.3c.7 0 1.3.2 1.6.6s.5 1 .5 1.8v4.2h-1zm3.9-6.4v4.2c0 .5.1.9.4 1.2s.6.4 1.1.4c.7 0 1.2-.2 1.5-.6s.5-1 .5-1.8v-3.4h1v6.4h-.9l-.1-.9h-.1c-.2.3-.5.6-.8.7s-.8.3-1.2.3c-.8 0-1.4-.2-1.8-.6s-.6-1-.6-1.8v-4.2h1zm7.4 6.4h-1v-9.1h1v9.1zm6 0-.2-.9c-.3.4-.6.7-1 .8s-.7.2-1.2.2c-.6 0-1.1-.2-1.5-.5s-.5-.8-.5-1.4c0-1.3 1-2 3.1-2h1.1v-.4c0-.5-.1-.9-.3-1.1s-.6-.4-1-.4c-.5 0-1.1.2-1.8.5l-.3-.7c.3-.2.7-.3 1-.4s.8-.1 1.1-.1c.8 0 1.3.2 1.7.5s.6.9.6 1.6v4.4h-.8zm-2.2-.7c.6 0 1.1-.2 1.4-.5s.5-.8.5-1.4v-.6h-1c-.8 0-1.3.1-1.7.4s-.5.5-.5 1c0 .4.1.6.3.8s.7.3 1 .3zm7 0h.5c.2 0 .3-.1.4-.1v.7c-.1.1-.3.1-.5.1h-.6c-1.2 0-1.9-.7-1.9-2V183h-.9v-.5l.9-.4.4-1.4h.6v1.5h1.9v.8h-1.9v3.8c0 .4.1.7.3.9s.5.4.8.4zm7.7-2.5c0 1-.3 1.9-.8 2.5s-1.3.9-2.2.9c-.6 0-1.1-.1-1.5-.4s-.8-.7-1-1.2-.4-1.1-.4-1.8c0-1 .3-1.9.8-2.4s1.2-.9 2.2-.9c.9 0 1.6.3 2.1.9s.8 1.4.8 2.4zm-4.9 0c0 .8.2 1.4.5 1.9s.8.6 1.4.6 1.1-.2 1.5-.6.5-1.1.5-1.9c0-.8-.2-1.4-.5-1.9s-.8-.6-1.5-.6c-.6 0-1.1.2-1.4.6s-.5 1.1-.5 1.9zm9.6-3.3c.3 0 .5 0 .8.1l-.1.9c-.3-.1-.5-.1-.7-.1-.5 0-1 .2-1.3.6s-.6.9-.6 1.6v3.4h-1v-6.4h.8l.1 1.2c.2-.4.5-.7.9-1s.7-.3 1.1-.3z" class="galasa-hybrid-cloud_svg__st0"/>
  </g>
</svg>
