<?xml version="1.0" encoding="utf-8"?>
<!-- Generator: Adobe Illustrator 24.3.0, SVG Export Plug-In . SVG Version: 6.00 Build 0)  -->
<svg version="1.1" xmlns="http://www.w3.org/2000/svg" xmlns:xlink="http://www.w3.org/1999/xlink" x="0px" y="0px"
	 viewBox="0 0 730 304" style="enable-background:new 0 0 730 304;" xml:space="preserve">
<style type="text/css">
	.st0{fill:#161616;}
	.st1{fill:#03429D;}
	.st2{fill:#393939;}
	.st3{fill:#8D8D8D;}
	.st4{fill:#9EBAE3;}
	.st5{fill:#DFECFF;}
	.st6{clip-path:url(#SVGID_2_);fill:#03429D;}
	.st7{clip-path:url(#SVGID_4_);fill:#0F55BA;}
	.st8{clip-path:url(#SVGID_6_);fill:#9EBAE3;}
	.st9{clip-path:url(#SVGID_8_);fill:#002A66;}
	.st10{clip-path:url(#SVGID_10_);fill:#FFDB12;}
	.st11{clip-path:url(#SVGID_12_);fill:#FFE36C;}
	.st12{clip-path:url(#SVGID_14_);}
	.st13{clip-path:url(#SVGID_16_);fill:#FFFFFF;}
	.st14{clip-path:url(#SVGID_18_);fill:#161616;}
	.st15{clip-path:url(#SVGID_20_);fill:#262626;}
	.st16{clip-path:url(#SVGID_22_);fill:#393939;}
	.st17{clip-path:url(#SVGID_24_);fill:#525252;}
	.st18{clip-path:url(#SVGID_26_);fill:#6F6F6F;}
	.st19{clip-path:url(#SVGID_28_);fill:#DFECFF;}
	.st20{clip-path:url(#SVGID_30_);fill:#F8F788;}
	.st21{clip-path:url(#SVGID_32_);fill:#8D8D8D;}
	.st22{clip-path:url(#SVGID_34_);fill:#A8A8A8;}
	.st23{clip-path:url(#SVGID_36_);fill:#C6C6C6;}
	.st24{clip-path:url(#SVGID_38_);fill:#E0E0E0;}
	.st25{clip-path:url(#SVGID_40_);fill:#F4F4F4;}
	.st26{clip-path:url(#SVGID_42_);fill:#D62525;}
	.st27{fill:#002A66;}
	.st28{fill:#0F55BA;}
	.st29{fill:#262626;}
	.st30{fill:#525252;}
	.st31{fill:#6F6F6F;}
	.st32{fill:#A8A8A8;}
	.st33{fill:#C6C6C6;}
	.st34{fill:#E0E0E0;}
	.st35{fill:#F4F4F4;}
	.st36{fill:#FFFFFF;}
	.st37{fill:#FFDB12;}
	.st38{fill:#FFE36C;}
	.st39{fill:#F8F788;}
	.st40{fill:#FF832B;}
	.st41{fill:#EFA284;}
	.st42{fill:none;stroke:#161616;stroke-miterlimit:10;}
	.st43{fill:none;stroke:#000000;stroke-linecap:round;stroke-linejoin:round;stroke-miterlimit:10;}
	.st44{fill:none;stroke:#000000;stroke-linecap:round;stroke-miterlimit:10;}
	.st45{fill:#C0D0E6;}
	.st46{fill:#FBE8E0;}
	.st47{fill:#81A0CE;}
	.st48{fill:#F7D0C1;}
	.st49{fill:#4271B5;}
	.st50{fill:#F3B9A3;}
	.st51{fill:none;stroke:#C6C6C6;stroke-miterlimit:10;stroke-dasharray:8;}
</style>
<g id="Layer_1">
	<g>
		<path class="st0" d="M232,232c0,4.4-3.6,8-8,8H8c-4.4,0-8-3.6-8-8v-16c0-4.4,3.6-8,8-8h216c4.4,0,8,3.6,8,8V232z"/>
	</g>
	<g>
		<path class="st1" d="M730,36c0,6.6-5.4,12-12,12H12C5.4,48,0,42.6,0,36V12C0,5.4,5.4,0,12,0h706c6.6,0,12,5.4,12,12V36z"/>
	</g>
	<g>
		<path class="st0" d="M232,88c0,4.4-3.6,8-8,8H8c-4.4,0-8-3.6-8-8V72c0-4.4,3.6-8,8-8h216c4.4,0,8,3.6,8,8V88z"/>
	</g>
	<g>
		<path class="st0" d="M232,184c0,4.4-3.6,8-8,8H8c-4.4,0-8-3.6-8-8v-16c0-4.4,3.6-8,8-8h216c4.4,0,8,3.6,8,8V184z"/>
	</g>
	<g>
		<path class="st0" d="M232,136c0,4.4-3.6,8-8,8H8c-4.4,0-8-3.6-8-8v-16c0-4.4,3.6-8,8-8h216c4.4,0,8,3.6,8,8V136z"/>
	</g>
	<g>
		<path class="st2" d="M481,232c0,4.4-3.6,8-8,8H255c-4.4,0-8-3.6-8-8v-16c0-4.4,3.6-8,8-8h218c4.4,0,8,3.6,8,8V232z"/>
	</g>
	<g>
		<path class="st2" d="M481,88c0,4.4-3.6,8-8,8H255c-4.4,0-8-3.6-8-8V72c0-4.4,3.6-8,8-8h218c4.4,0,8,3.6,8,8V88z"/>
	</g>
	<g>
		<path class="st2" d="M481,184c0,4.4-3.6,8-8,8H255c-4.4,0-8-3.6-8-8v-16c0-4.4,3.6-8,8-8h218c4.4,0,8,3.6,8,8V184z"/>
	</g>
	<g>
		<path class="st2" d="M481,136c0,4.4-3.6,8-8,8H255c-4.4,0-8-3.6-8-8v-16c0-4.4,3.6-8,8-8h218c4.4,0,8,3.6,8,8V136z"/>
	</g>
	<g>
		<path class="st3" d="M730,232c0,4.4-3.6,8-8,8H506c-4.4,0-8-3.6-8-8v-16c0-4.4,3.6-8,8-8h216c4.4,0,8,3.6,8,8V232z"/>
	</g>
	<g>
		<path class="st3" d="M730,88c0,4.4-3.6,8-8,8H506c-4.4,0-8-3.6-8-8V72c0-4.4,3.6-8,8-8h216c4.4,0,8,3.6,8,8V88z"/>
	</g>
	<g>
		<path class="st3" d="M730,184c0,4.4-3.6,8-8,8H506c-4.4,0-8-3.6-8-8v-16c0-4.4,3.6-8,8-8h216c4.4,0,8,3.6,8,8V184z"/>
	</g>
	<g>
		<path class="st3" d="M730,136c0,4.4-3.6,8-8,8H506c-4.4,0-8-3.6-8-8v-16c0-4.4,3.6-8,8-8h216c4.4,0,8,3.6,8,8V136z"/>
	</g>
	<g>
		<path class="st4" d="M730,292c0,6.6-5.4,12-12,12H12c-6.6,0-12-5.4-12-12v-24c0-6.6,5.4-12,12-12h706c6.6,0,12,5.4,12,12V292z"/>
	</g>
	<g>
		<path class="st36" d="M287.73,16.92v1.8h-5.52v14.04h-1.92V18.72h-5.52v-1.8H287.73z"/>
		<path class="st36" d="M293.11,33c-1.14,0-2.15-0.25-3.04-0.74c-0.89-0.5-1.58-1.21-2.08-2.15s-0.74-2.05-0.74-3.35
			s0.25-2.41,0.74-3.35s1.18-1.65,2.04-2.15c0.86-0.5,1.85-0.74,2.95-0.74c1.12,0,2.08,0.24,2.87,0.72s1.4,1.13,1.81,1.96
			c0.42,0.82,0.62,1.75,0.62,2.77c0,0.27-0.01,0.52-0.02,0.74c-0.02,0.22-0.04,0.42-0.07,0.6h-9.7v-1.7h8.86l-0.98,0.19
			c0-1.15-0.32-2.04-0.95-2.66c-0.63-0.62-1.46-0.94-2.48-0.94c-0.78,0-1.46,0.18-2.03,0.54s-1.01,0.88-1.32,1.56
			c-0.31,0.68-0.47,1.5-0.47,2.46c0,0.94,0.16,1.76,0.48,2.45c0.32,0.69,0.77,1.21,1.36,1.57s1.28,0.54,2.1,0.54
			c0.88,0,1.6-0.17,2.15-0.5c0.55-0.34,1-0.79,1.33-1.37l1.51,0.89c-0.3,0.54-0.69,1.02-1.16,1.42c-0.47,0.4-1.02,0.71-1.66,0.92
			S293.89,33,293.11,33z"/>
		<path class="st36" d="M306.26,33c-1.17,0-2.24-0.25-3.23-0.74c-0.98-0.5-1.74-1.2-2.27-2.11l1.63-1.18
			c0.35,0.74,0.87,1.31,1.55,1.73c0.68,0.42,1.5,0.62,2.46,0.62c0.85,0,1.51-0.16,1.99-0.49c0.48-0.33,0.72-0.76,0.72-1.28
			c0-0.34-0.11-0.64-0.32-0.92c-0.22-0.28-0.63-0.48-1.24-0.61l-2.88-0.6c-1.17-0.24-2-0.64-2.51-1.2s-0.76-1.26-0.76-2.09
			c0-0.66,0.19-1.26,0.56-1.8s0.91-0.98,1.61-1.31c0.7-0.33,1.52-0.49,2.46-0.49c1.18,0,2.18,0.23,3,0.7
			c0.82,0.46,1.42,1.12,1.82,1.97l-1.61,1.06c-0.27-0.7-0.71-1.22-1.32-1.55c-0.61-0.33-1.24-0.49-1.9-0.49
			c-0.58,0-1.07,0.08-1.48,0.24c-0.41,0.16-0.72,0.38-0.94,0.66c-0.22,0.28-0.32,0.6-0.32,0.95s0.12,0.68,0.36,0.97
			c0.24,0.3,0.69,0.51,1.34,0.64l3,0.62c1.12,0.22,1.9,0.59,2.35,1.1c0.45,0.51,0.67,1.14,0.67,1.87c0,0.75-0.2,1.41-0.6,1.98
			c-0.4,0.57-0.96,1-1.68,1.31S307.21,33,306.26,33z"/>
		<path class="st36" d="M321.79,20.76v1.66h-8.69v-1.66H321.79z M317.42,17.35v12.1c0,0.59,0.17,1.03,0.5,1.32
			c0.34,0.29,0.77,0.43,1.3,0.43c0.46,0,0.86-0.08,1.2-0.24c0.34-0.16,0.64-0.38,0.91-0.65l0.67,1.61c-0.37,0.34-0.8,0.6-1.31,0.79
			c-0.5,0.19-1.08,0.29-1.74,0.29c-0.61,0-1.18-0.11-1.7-0.32c-0.53-0.22-0.95-0.56-1.26-1.03c-0.31-0.47-0.48-1.09-0.49-1.86v-11.9
			L317.42,17.35z"/>
		<path class="st36" d="M339.24,20.76v1.66h-8.33v-1.66H339.24z M337.24,15.12c0.42,0,0.81,0.05,1.18,0.14
			c0.37,0.1,0.66,0.23,0.86,0.41l-0.5,1.56c-0.19-0.13-0.4-0.22-0.62-0.28c-0.22-0.06-0.47-0.08-0.74-0.08
			c-0.69,0-1.22,0.16-1.61,0.49c-0.38,0.33-0.58,0.85-0.58,1.57v1.82v0.62v11.38h-1.92V18.74c0-0.53,0.08-1.02,0.24-1.46
			c0.16-0.45,0.4-0.83,0.73-1.15c0.33-0.32,0.74-0.57,1.24-0.74C336.01,15.21,336.59,15.12,337.24,15.12z"/>
		<path class="st36" d="M341.8,32.76v-12h1.56l0.26,1.97c0.34-0.74,0.83-1.29,1.48-1.66c0.65-0.37,1.44-0.55,2.36-0.55
			c0.21,0,0.44,0.02,0.68,0.05c0.25,0.03,0.46,0.1,0.64,0.19l-0.34,1.75c-0.18-0.06-0.37-0.11-0.58-0.14
			c-0.21-0.03-0.5-0.05-0.89-0.05c-0.5,0-1,0.14-1.5,0.43c-0.5,0.29-0.92,0.72-1.26,1.31c-0.34,0.58-0.5,1.32-0.5,2.22v6.48H341.8z"
			/>
		<path class="st36" d="M358.27,25.01c0-0.9-0.24-1.59-0.72-2.08c-0.48-0.49-1.16-0.73-2.04-0.73c-0.83,0-1.54,0.18-2.11,0.54
			s-1,0.94-1.27,1.74l-1.56-0.96c0.32-0.9,0.91-1.62,1.78-2.17c0.86-0.55,1.94-0.83,3.22-0.83c0.86,0,1.65,0.15,2.35,0.44
			c0.7,0.3,1.26,0.74,1.67,1.34c0.41,0.6,0.61,1.37,0.61,2.32v5.81c0,0.58,0.3,0.86,0.91,0.86c0.3,0,0.6-0.04,0.89-0.12l-0.1,1.51
			c-0.32,0.16-0.74,0.24-1.25,0.24c-0.46,0-0.88-0.09-1.25-0.26c-0.37-0.18-0.66-0.44-0.86-0.8s-0.31-0.81-0.31-1.36v-0.24
			l0.48,0.07c-0.19,0.62-0.52,1.13-0.98,1.52c-0.46,0.39-0.98,0.68-1.56,0.86c-0.58,0.18-1.14,0.28-1.7,0.28
			c-0.7,0-1.36-0.12-1.97-0.36c-0.61-0.24-1.09-0.6-1.45-1.09c-0.36-0.49-0.54-1.09-0.54-1.81c0-0.9,0.3-1.64,0.9-2.22
			c0.6-0.58,1.44-0.98,2.51-1.19l4.75-0.94v1.58l-3.86,0.79c-0.78,0.16-1.37,0.38-1.75,0.67c-0.38,0.29-0.58,0.69-0.58,1.2
			c0,0.5,0.2,0.9,0.59,1.21c0.39,0.31,0.95,0.47,1.67,0.47c0.46,0,0.91-0.06,1.33-0.18s0.8-0.3,1.14-0.55s0.6-0.56,0.79-0.94
			c0.19-0.38,0.29-0.82,0.29-1.33V25.01z"/>
		<path class="st36" d="M364.84,32.76v-12h1.68l0.12,1.87c0.43-0.74,1-1.27,1.69-1.61c0.7-0.34,1.41-0.5,2.15-0.5
			c0.85,0,1.65,0.19,2.4,0.58c0.75,0.38,1.33,0.98,1.73,1.78c0.26-0.54,0.62-0.99,1.08-1.33c0.46-0.34,0.97-0.6,1.52-0.77
			c0.55-0.17,1.08-0.25,1.57-0.25c0.77,0,1.5,0.16,2.2,0.48c0.7,0.32,1.27,0.82,1.72,1.49s0.67,1.54,0.67,2.59v7.68h-1.92v-7.49
			c0-1.09-0.27-1.87-0.82-2.35c-0.54-0.48-1.22-0.72-2.02-0.72c-0.62,0-1.21,0.15-1.75,0.46c-0.54,0.3-0.98,0.75-1.31,1.34
			c-0.33,0.59-0.49,1.32-0.49,2.18v6.58h-1.92v-7.49c0-1.09-0.27-1.87-0.82-2.35s-1.22-0.72-2.02-0.72c-0.53,0-1.07,0.14-1.62,0.42
			c-0.55,0.28-1.01,0.72-1.38,1.33c-0.37,0.61-0.55,1.41-0.55,2.4v6.41H364.84z"/>
		<path class="st36" d="M392.73,33c-1.14,0-2.15-0.25-3.04-0.74c-0.89-0.5-1.58-1.21-2.08-2.15s-0.74-2.05-0.74-3.35
			s0.25-2.41,0.74-3.35s1.18-1.65,2.04-2.15c0.86-0.5,1.85-0.74,2.95-0.74c1.12,0,2.08,0.24,2.87,0.72s1.4,1.13,1.81,1.96
			c0.42,0.82,0.62,1.75,0.62,2.77c0,0.27-0.01,0.52-0.02,0.74c-0.02,0.22-0.04,0.42-0.07,0.6h-9.7v-1.7h8.86L396,25.8
			c0-1.15-0.32-2.04-0.95-2.66c-0.63-0.62-1.46-0.94-2.48-0.94c-0.78,0-1.46,0.18-2.03,0.54s-1.01,0.88-1.32,1.56
			c-0.31,0.68-0.47,1.5-0.47,2.46c0,0.94,0.16,1.76,0.48,2.45c0.32,0.69,0.77,1.21,1.36,1.57s1.28,0.54,2.1,0.54
			c0.88,0,1.6-0.17,2.15-0.5c0.55-0.34,1-0.79,1.33-1.37l1.51,0.89c-0.3,0.54-0.69,1.02-1.16,1.42c-0.47,0.4-1.02,0.71-1.66,0.92
			S393.52,33,392.73,33z"/>
		<path class="st36" d="M416.32,20.76h2.14l-4.18,12h-1.92l-3.38-9.55l-3.19,9.55h-1.92l-4.18-12h2.14l3.02,9.77l3.26-9.77h1.92
			l3.26,9.77L416.32,20.76z"/>
		<path class="st36" d="M425.92,20.52c1.14,0,2.14,0.25,3.01,0.74c0.87,0.5,1.56,1.21,2.05,2.15s0.74,2.05,0.74,3.35
			s-0.25,2.41-0.74,3.35s-1.18,1.65-2.05,2.15c-0.87,0.5-1.88,0.74-3.01,0.74c-1.12,0-2.12-0.25-3-0.74
			c-0.88-0.5-1.57-1.21-2.06-2.15s-0.74-2.05-0.74-3.35s0.25-2.41,0.74-3.35s1.18-1.65,2.06-2.15
			C423.8,20.77,424.8,20.52,425.92,20.52z M425.92,22.18c-0.82,0-1.51,0.18-2.09,0.55c-0.58,0.37-1.02,0.89-1.33,1.57
			c-0.31,0.68-0.47,1.5-0.47,2.46c0,0.94,0.16,1.76,0.47,2.45c0.31,0.69,0.76,1.22,1.33,1.58s1.27,0.55,2.09,0.55
			c0.82,0,1.51-0.18,2.09-0.55s1.02-0.9,1.33-1.58c0.31-0.69,0.47-1.5,0.47-2.45c0-0.96-0.16-1.78-0.47-2.46
			c-0.31-0.68-0.76-1.2-1.33-1.57C427.43,22.36,426.74,22.18,425.92,22.18z"/>
		<path class="st36" d="M435.36,32.76v-12h1.56l0.26,1.97c0.34-0.74,0.83-1.29,1.48-1.66c0.65-0.37,1.44-0.55,2.36-0.55
			c0.21,0,0.44,0.02,0.68,0.05c0.25,0.03,0.46,0.1,0.64,0.19L442,22.51c-0.18-0.06-0.37-0.11-0.58-0.14
			c-0.21-0.03-0.5-0.05-0.89-0.05c-0.5,0-1,0.14-1.5,0.43c-0.5,0.29-0.92,0.72-1.26,1.31c-0.34,0.58-0.5,1.32-0.5,2.22v6.48H435.36z
			"/>
		<path class="st36" d="M447.07,15.24v17.52h-1.92V15.24H447.07z M455.68,20.76l-5.18,5.18l-0.46,0.46l-3.94,3.94v-2.4l7.15-7.18
			H455.68z M450.67,24.96l5.3,7.8h-2.33l-4.58-6.72L450.67,24.96z"/>
	</g>
	<g>
		<path class="st36" d="M311.73,272.92v1.8h-5.52v14.04h-1.92v-14.04h-5.52v-1.8H311.73z"/>
		<path class="st36" d="M317.11,289c-1.14,0-2.15-0.25-3.04-0.74c-0.89-0.5-1.58-1.21-2.08-2.15s-0.74-2.05-0.74-3.35
			s0.25-2.41,0.74-3.35s1.18-1.65,2.04-2.15c0.86-0.5,1.85-0.74,2.95-0.74c1.12,0,2.08,0.24,2.87,0.72s1.4,1.13,1.81,1.96
			c0.42,0.82,0.62,1.75,0.62,2.77c0,0.27-0.01,0.52-0.02,0.74c-0.02,0.22-0.04,0.42-0.07,0.6h-9.7v-1.7h8.86l-0.98,0.19
			c0-1.15-0.32-2.04-0.95-2.66c-0.63-0.62-1.46-0.94-2.48-0.94c-0.78,0-1.46,0.18-2.03,0.54s-1.01,0.88-1.32,1.56
			c-0.31,0.68-0.47,1.5-0.47,2.46c0,0.94,0.16,1.76,0.48,2.45c0.32,0.69,0.77,1.21,1.36,1.57s1.28,0.54,2.1,0.54
			c0.88,0,1.6-0.17,2.15-0.5c0.55-0.34,1-0.79,1.33-1.37l1.51,0.89c-0.3,0.54-0.69,1.02-1.16,1.42c-0.47,0.4-1.02,0.71-1.66,0.92
			S317.89,289,317.11,289z"/>
		<path class="st36" d="M330.26,289c-1.17,0-2.24-0.25-3.23-0.74c-0.98-0.5-1.74-1.2-2.27-2.11l1.63-1.18
			c0.35,0.74,0.87,1.31,1.55,1.73c0.68,0.42,1.5,0.62,2.46,0.62c0.85,0,1.51-0.16,1.99-0.49c0.48-0.33,0.72-0.76,0.72-1.28
			c0-0.34-0.11-0.64-0.32-0.92c-0.22-0.28-0.63-0.48-1.24-0.61l-2.88-0.6c-1.17-0.24-2-0.64-2.51-1.2s-0.76-1.26-0.76-2.09
			c0-0.66,0.19-1.26,0.56-1.8s0.91-0.98,1.61-1.31c0.7-0.33,1.52-0.49,2.46-0.49c1.18,0,2.18,0.23,3,0.7
			c0.82,0.46,1.42,1.12,1.82,1.97l-1.61,1.06c-0.27-0.7-0.71-1.22-1.32-1.55c-0.61-0.33-1.24-0.49-1.9-0.49
			c-0.58,0-1.07,0.08-1.48,0.24c-0.41,0.16-0.72,0.38-0.94,0.66c-0.22,0.28-0.32,0.6-0.32,0.95s0.12,0.68,0.36,0.97
			c0.24,0.3,0.69,0.51,1.34,0.64l3,0.62c1.12,0.22,1.9,0.59,2.35,1.1c0.45,0.51,0.67,1.14,0.67,1.87c0,0.75-0.2,1.41-0.6,1.98
			c-0.4,0.57-0.96,1-1.68,1.31S331.21,289,330.26,289z"/>
		<path class="st36" d="M345.79,276.76v1.66h-8.69v-1.66H345.79z M341.42,273.35v12.1c0,0.59,0.17,1.03,0.5,1.32
			c0.34,0.29,0.77,0.43,1.3,0.43c0.46,0,0.86-0.08,1.2-0.24c0.34-0.16,0.64-0.38,0.91-0.65l0.67,1.61c-0.37,0.34-0.8,0.6-1.31,0.79
			c-0.5,0.19-1.08,0.29-1.74,0.29c-0.61,0-1.18-0.11-1.7-0.32c-0.53-0.22-0.95-0.56-1.26-1.03c-0.31-0.47-0.48-1.09-0.49-1.86v-11.9
			L341.42,273.35z"/>
		<path class="st36" d="M356.83,288.76v-12h1.56l0.26,1.97c0.34-0.74,0.83-1.29,1.48-1.66c0.65-0.37,1.44-0.55,2.36-0.55
			c0.21,0,0.44,0.02,0.68,0.05c0.25,0.03,0.46,0.1,0.64,0.19l-0.34,1.75c-0.18-0.06-0.37-0.11-0.58-0.14
			c-0.21-0.03-0.5-0.05-0.89-0.05c-0.5,0-1,0.14-1.5,0.43c-0.5,0.29-0.92,0.72-1.26,1.31c-0.34,0.58-0.5,1.32-0.5,2.22v6.48H356.83z
			"/>
		<path class="st36" d="M370.96,289c-0.77,0-1.49-0.14-2.17-0.43c-0.68-0.29-1.23-0.76-1.66-1.4s-0.64-1.49-0.64-2.53v-7.87h1.92
			v7.37c0,1.22,0.26,2.05,0.79,2.51c0.53,0.46,1.27,0.68,2.23,0.68c0.45,0,0.89-0.08,1.32-0.23c0.43-0.15,0.82-0.39,1.16-0.72
			c0.34-0.33,0.62-0.75,0.82-1.26c0.2-0.51,0.3-1.12,0.3-1.82v-6.53h1.92v12h-1.68l-0.12-1.82c-0.42,0.72-0.98,1.24-1.69,1.57
			S371.92,289,370.96,289z"/>
		<path class="st36" d="M381.43,288.76v-12h1.68l0.17,2.69l-0.31-0.26c0.26-0.64,0.6-1.16,1.03-1.55c0.43-0.39,0.93-0.68,1.5-0.85
			c0.57-0.18,1.16-0.26,1.76-0.26c0.86,0,1.65,0.16,2.35,0.49c0.7,0.33,1.27,0.83,1.69,1.5c0.42,0.67,0.64,1.53,0.64,2.57v7.68
			h-1.92v-7.01c0-1.33-0.28-2.25-0.85-2.77c-0.57-0.52-1.27-0.78-2.1-0.78c-0.58,0-1.15,0.14-1.73,0.41
			c-0.58,0.27-1.05,0.71-1.43,1.32c-0.38,0.61-0.56,1.42-0.56,2.45v6.38H381.43z"/>
		<path class="st36" d="M396.28,288.76v-12h1.68l0.17,2.69l-0.31-0.26c0.26-0.64,0.6-1.16,1.03-1.55c0.43-0.39,0.93-0.68,1.5-0.85
			c0.57-0.18,1.16-0.26,1.76-0.26c0.86,0,1.65,0.16,2.35,0.49c0.7,0.33,1.27,0.83,1.69,1.5c0.42,0.67,0.64,1.53,0.64,2.57v7.68
			h-1.92v-7.01c0-1.33-0.28-2.25-0.85-2.77c-0.57-0.52-1.27-0.78-2.1-0.78c-0.58,0-1.15,0.14-1.73,0.41
			c-0.58,0.27-1.05,0.71-1.43,1.32c-0.38,0.61-0.56,1.42-0.56,2.45v6.38H396.28z"/>
		<path class="st36" d="M416.15,289c-1.14,0-2.15-0.25-3.04-0.74c-0.89-0.5-1.58-1.21-2.08-2.15s-0.74-2.05-0.74-3.35
			s0.25-2.41,0.74-3.35s1.18-1.65,2.04-2.15c0.86-0.5,1.85-0.74,2.95-0.74c1.12,0,2.08,0.24,2.87,0.72s1.4,1.13,1.81,1.96
			c0.42,0.82,0.62,1.75,0.62,2.77c0,0.27-0.01,0.52-0.02,0.74c-0.02,0.22-0.04,0.42-0.07,0.6h-9.7v-1.7h8.86l-0.98,0.19
			c0-1.15-0.32-2.04-0.95-2.66c-0.63-0.62-1.46-0.94-2.48-0.94c-0.78,0-1.46,0.18-2.03,0.54s-1.01,0.88-1.32,1.56
			c-0.31,0.68-0.47,1.5-0.47,2.46c0,0.94,0.16,1.76,0.48,2.45c0.32,0.69,0.77,1.21,1.36,1.57s1.28,0.54,2.1,0.54
			c0.88,0,1.6-0.17,2.15-0.5c0.55-0.34,1-0.79,1.33-1.37l1.51,0.89c-0.3,0.54-0.69,1.02-1.16,1.42c-0.47,0.4-1.02,0.71-1.66,0.92
			S416.94,289,416.15,289z"/>
		<path class="st36" d="M424.99,288.76v-12h1.56l0.26,1.97c0.34-0.74,0.83-1.29,1.48-1.66c0.65-0.37,1.44-0.55,2.36-0.55
			c0.21,0,0.44,0.02,0.68,0.05c0.25,0.03,0.46,0.1,0.64,0.19l-0.34,1.75c-0.18-0.06-0.37-0.11-0.58-0.14
			c-0.21-0.03-0.5-0.05-0.89-0.05c-0.5,0-1,0.14-1.5,0.43c-0.5,0.29-0.92,0.72-1.26,1.31c-0.34,0.58-0.5,1.32-0.5,2.22v6.48H424.99z
			"/>
	</g>
	<g>
		<path class="st36" d="M71.05,85.32h-5.44v-0.77l4.09-5.84h-3.83v-0.88h5.08v0.88l-4.03,5.73h4.14V85.32z"/>
		<path class="st36" d="M79.27,81.57c0,1.22-0.31,2.17-0.92,2.86s-1.47,1.03-2.55,1.03c-0.67,0-1.26-0.16-1.78-0.47
			s-0.92-0.77-1.2-1.35c-0.28-0.59-0.42-1.28-0.42-2.06c0-1.22,0.3-2.17,0.92-2.85c0.61-0.68,1.46-1.02,2.54-1.02
			c1.05,0,1.88,0.35,2.5,1.05S79.27,80.38,79.27,81.57z M73.57,81.57c0,0.96,0.19,1.69,0.57,2.19s0.95,0.75,1.69,0.75
			c0.74,0,1.31-0.25,1.69-0.75s0.58-1.23,0.58-2.19c0-0.95-0.19-1.68-0.58-2.17s-0.95-0.74-1.71-0.74c-0.74,0-1.3,0.24-1.68,0.73
			C73.75,79.87,73.57,80.6,73.57,81.57z"/>
		<path class="st36" d="M86.1,83.28c0,0.7-0.26,1.23-0.78,1.61s-1.25,0.57-2.19,0.57c-0.99,0-1.77-0.16-2.32-0.47v-1.05
			c0.36,0.18,0.75,0.33,1.16,0.43s0.81,0.16,1.19,0.16c0.59,0,1.05-0.09,1.37-0.28c0.32-0.19,0.48-0.48,0.48-0.86
			c0-0.29-0.13-0.54-0.38-0.75s-0.75-0.45-1.48-0.73c-0.7-0.26-1.19-0.49-1.49-0.68s-0.51-0.41-0.66-0.66s-0.21-0.54-0.21-0.88
			c0-0.61,0.25-1.09,0.74-1.45c0.5-0.35,1.18-0.53,2.04-0.53c0.81,0,1.59,0.16,2.37,0.49l-0.4,0.92c-0.75-0.31-1.43-0.46-2.04-0.46
			c-0.54,0-0.94,0.08-1.22,0.25s-0.41,0.4-0.41,0.7c0,0.2,0.05,0.37,0.15,0.51s0.27,0.28,0.5,0.4c0.23,0.13,0.67,0.31,1.31,0.55
			c0.89,0.32,1.49,0.65,1.8,0.98S86.1,82.78,86.1,83.28z"/>
		<path class="st36" d="M89.28,85.32h-1.16v-9.99h5.57v1.03h-4.41v3.66h4.14v1.03h-4.14V85.32z"/>
		<path class="st36" d="M95.07,75.8c0-0.26,0.06-0.45,0.19-0.57c0.13-0.12,0.29-0.18,0.48-0.18c0.18,0,0.34,0.06,0.47,0.18
			c0.13,0.12,0.2,0.31,0.2,0.57s-0.07,0.45-0.2,0.57c-0.13,0.13-0.29,0.19-0.47,0.19c-0.19,0-0.35-0.06-0.48-0.19
			C95.14,76.24,95.07,76.05,95.07,75.8z M96.3,85.32h-1.13v-7.49h1.13V85.32z"/>
		<path class="st36" d="M99.84,85.32h-1.13V74.68h1.13V85.32z"/>
		<path class="st36" d="M105.41,85.46c-1.11,0-1.98-0.34-2.62-1.01s-0.96-1.61-0.96-2.81c0-1.21,0.3-2.17,0.89-2.88
			s1.39-1.07,2.4-1.07c0.94,0,1.68,0.31,2.23,0.93s0.82,1.43,0.82,2.44v0.72h-5.16c0.02,0.88,0.25,1.55,0.67,2s1.01,0.68,1.78,0.68
			c0.81,0,1.6-0.17,2.39-0.51v1.01c-0.4,0.17-0.78,0.3-1.14,0.37S105.92,85.46,105.41,85.46z M105.11,78.64
			c-0.6,0-1.08,0.2-1.44,0.59s-0.57,0.93-0.63,1.63h3.92c0-0.72-0.16-1.26-0.48-1.64C106.16,78.83,105.7,78.64,105.11,78.64z"/>
		<path class="st36" d="M114.7,85.32l-3.39-8.86h-0.05c0.06,0.7,0.1,1.54,0.1,2.5v6.36h-1.07v-9.99h1.75l3.16,8.24h0.05l3.19-8.24
			h1.74v9.99h-1.16v-6.44c0-0.74,0.03-1.54,0.1-2.41h-0.05l-3.42,8.85H114.7z"/>
		<path class="st36" d="M127.35,85.32l-0.23-1.07h-0.05c-0.37,0.47-0.75,0.79-1.12,0.95c-0.37,0.17-0.83,0.25-1.39,0.25
			c-0.74,0-1.33-0.19-1.75-0.57c-0.42-0.38-0.63-0.93-0.63-1.63c0-1.51,1.21-2.31,3.63-2.38l1.27-0.04v-0.46
			c0-0.59-0.13-1.02-0.38-1.3c-0.25-0.28-0.66-0.42-1.21-0.42c-0.62,0-1.33,0.19-2.12,0.57l-0.35-0.87c0.37-0.2,0.77-0.36,1.21-0.47
			c0.44-0.11,0.88-0.17,1.32-0.17c0.89,0,1.55,0.2,1.99,0.59c0.43,0.4,0.65,1.03,0.65,1.91v5.11H127.35z M124.79,84.52
			c0.71,0,1.26-0.19,1.67-0.58c0.4-0.39,0.6-0.93,0.6-1.63v-0.68l-1.13,0.05c-0.9,0.03-1.55,0.17-1.95,0.42
			c-0.4,0.25-0.6,0.63-0.6,1.16c0,0.41,0.12,0.72,0.37,0.94C123.99,84.41,124.34,84.52,124.79,84.52z"/>
		<path class="st36" d="M135.66,85.32v-4.85c0-0.61-0.14-1.07-0.42-1.37s-0.71-0.45-1.31-0.45c-0.78,0-1.36,0.21-1.72,0.64
			s-0.55,1.12-0.55,2.1v3.93h-1.13v-7.49h0.92l0.18,1.03h0.05c0.23-0.37,0.56-0.66,0.98-0.86s0.89-0.3,1.4-0.3
			c0.9,0,1.58,0.22,2.04,0.65s0.68,1.13,0.68,2.09v4.89H135.66z"/>
		<path class="st36" d="M143.73,85.32l-0.23-1.07h-0.05c-0.37,0.47-0.75,0.79-1.12,0.95c-0.37,0.17-0.83,0.25-1.39,0.25
			c-0.74,0-1.33-0.19-1.75-0.57c-0.42-0.38-0.63-0.93-0.63-1.63c0-1.51,1.21-2.31,3.63-2.38l1.27-0.04v-0.46
			c0-0.59-0.13-1.02-0.38-1.3c-0.25-0.28-0.66-0.42-1.21-0.42c-0.62,0-1.33,0.19-2.12,0.57l-0.35-0.87c0.37-0.2,0.77-0.36,1.21-0.47
			c0.44-0.11,0.88-0.17,1.32-0.17c0.89,0,1.55,0.2,1.99,0.59c0.43,0.4,0.65,1.03,0.65,1.91v5.11H143.73z M141.17,84.52
			c0.71,0,1.26-0.19,1.67-0.58c0.4-0.39,0.6-0.93,0.6-1.63v-0.68l-1.13,0.05c-0.9,0.03-1.55,0.17-1.95,0.42
			c-0.4,0.25-0.6,0.63-0.6,1.16c0,0.41,0.12,0.72,0.37,0.94C140.37,84.41,140.72,84.52,141.17,84.52z"/>
		<path class="st36" d="M153.04,77.83v0.72l-1.39,0.16c0.13,0.16,0.24,0.37,0.34,0.63s0.15,0.55,0.15,0.87
			c0,0.73-0.25,1.32-0.75,1.76s-1.19,0.66-2.06,0.66c-0.22,0-0.43-0.02-0.63-0.05c-0.48,0.26-0.72,0.58-0.72,0.96
			c0,0.21,0.08,0.36,0.25,0.45s0.46,0.15,0.87,0.15h1.33c0.81,0,1.43,0.17,1.87,0.51c0.44,0.34,0.65,0.84,0.65,1.49
			c0,0.83-0.33,1.46-1,1.9s-1.64,0.65-2.91,0.65c-0.98,0-1.74-0.18-2.27-0.55c-0.53-0.36-0.8-0.88-0.8-1.54
			c0-0.46,0.15-0.85,0.44-1.18s0.7-0.56,1.23-0.68c-0.19-0.09-0.35-0.22-0.48-0.4c-0.13-0.18-0.2-0.39-0.2-0.64
			c0-0.27,0.07-0.51,0.22-0.72s0.38-0.4,0.69-0.59c-0.39-0.16-0.7-0.43-0.95-0.81c-0.24-0.38-0.37-0.82-0.37-1.31
			c0-0.82,0.25-1.45,0.74-1.9s1.19-0.67,2.09-0.67c0.39,0,0.75,0.05,1.06,0.14H153.04z M147.07,86.58c0,0.41,0.17,0.71,0.51,0.92
			s0.83,0.31,1.47,0.31c0.95,0,1.66-0.14,2.12-0.43c0.46-0.28,0.69-0.67,0.69-1.16c0-0.41-0.12-0.69-0.38-0.84s-0.72-0.24-1.42-0.24
			h-1.36c-0.51,0-0.92,0.12-1.2,0.37S147.07,86.12,147.07,86.58z M147.68,80.23c0,0.52,0.15,0.92,0.44,1.19s0.71,0.4,1.24,0.4
			c1.11,0,1.66-0.54,1.66-1.61c0-1.13-0.56-1.69-1.68-1.69c-0.53,0-0.94,0.14-1.23,0.43S147.68,79.66,147.68,80.23z"/>
		<path class="st36" d="M157.74,85.46c-1.11,0-1.98-0.34-2.62-1.01c-0.64-0.67-0.96-1.61-0.96-2.81c0-1.21,0.3-2.17,0.89-2.88
			c0.6-0.71,1.39-1.07,2.4-1.07c0.94,0,1.68,0.31,2.23,0.93s0.82,1.43,0.82,2.44v0.72h-5.16c0.02,0.88,0.25,1.55,0.67,2
			c0.42,0.46,1.01,0.68,1.78,0.68c0.81,0,1.6-0.17,2.39-0.51v1.01c-0.4,0.17-0.78,0.3-1.14,0.37
			C158.68,85.42,158.25,85.46,157.74,85.46z M157.44,78.64c-0.6,0-1.08,0.2-1.44,0.59c-0.36,0.39-0.57,0.93-0.63,1.63h3.92
			c0-0.72-0.16-1.26-0.48-1.64S158.03,78.64,157.44,78.64z"/>
		<path class="st36" d="M165.85,77.69c0.33,0,0.63,0.03,0.9,0.08l-0.16,1.05c-0.31-0.07-0.58-0.1-0.82-0.1
			c-0.61,0-1.12,0.25-1.55,0.74c-0.43,0.49-0.65,1.1-0.65,1.84v4.02h-1.13v-7.49h0.94l0.13,1.39h0.05c0.28-0.49,0.61-0.86,1-1.13
			S165.38,77.69,165.85,77.69z"/>
	</g>
	<g>
		<path class="st36" d="M63.6,133.32h-5.43v-0.77l4.09-5.84h-3.83v-0.88h5.08v0.88l-4.03,5.73h4.14V133.32z"/>
		<path class="st36" d="M71.83,129.57c0,1.22-0.31,2.17-0.92,2.86s-1.47,1.03-2.55,1.03c-0.67,0-1.26-0.16-1.78-0.47
			s-0.92-0.77-1.2-1.35s-0.42-1.28-0.42-2.06c0-1.22,0.31-2.17,0.92-2.85s1.46-1.02,2.54-1.02c1.05,0,1.88,0.35,2.5,1.05
			C71.52,127.43,71.83,128.38,71.83,129.57z M66.12,129.57c0,0.96,0.19,1.69,0.57,2.19s0.95,0.75,1.69,0.75s1.31-0.25,1.69-0.75
			c0.39-0.5,0.58-1.23,0.58-2.19c0-0.95-0.19-1.68-0.58-2.17c-0.38-0.49-0.95-0.74-1.71-0.74c-0.74,0-1.3,0.24-1.68,0.73
			S66.12,128.6,66.12,129.57z"/>
		<path class="st36" d="M78.65,131.28c0,0.7-0.26,1.23-0.78,1.61s-1.25,0.57-2.19,0.57c-0.99,0-1.77-0.16-2.32-0.47v-1.05
			c0.36,0.18,0.75,0.33,1.16,0.43c0.41,0.1,0.81,0.16,1.19,0.16c0.59,0,1.05-0.09,1.37-0.28s0.48-0.48,0.48-0.86
			c0-0.29-0.13-0.54-0.38-0.75c-0.25-0.21-0.75-0.45-1.48-0.73c-0.7-0.26-1.19-0.49-1.49-0.68c-0.29-0.19-0.51-0.41-0.66-0.66
			c-0.14-0.25-0.22-0.54-0.22-0.88c0-0.61,0.25-1.09,0.75-1.45s1.18-0.53,2.04-0.53c0.81,0,1.59,0.16,2.37,0.49l-0.4,0.92
			c-0.75-0.31-1.43-0.46-2.04-0.46c-0.54,0-0.94,0.08-1.22,0.25s-0.41,0.4-0.41,0.7c0,0.2,0.05,0.37,0.15,0.51
			c0.1,0.14,0.27,0.28,0.5,0.4s0.67,0.31,1.31,0.55c0.89,0.32,1.49,0.65,1.8,0.98C78.49,130.37,78.65,130.78,78.65,131.28z"/>
		<path class="st36" d="M80.67,123.33h2.82c1.33,0,2.29,0.2,2.88,0.59s0.89,1.02,0.89,1.88c0,0.59-0.17,1.08-0.5,1.47
			c-0.33,0.39-0.81,0.63-1.45,0.75v0.07c1.52,0.26,2.28,1.06,2.28,2.39c0,0.89-0.3,1.59-0.91,2.09c-0.6,0.5-1.45,0.75-2.53,0.75
			h-3.49V123.33z M81.83,127.6h1.91c0.82,0,1.41-0.13,1.77-0.39s0.54-0.69,0.54-1.3c0-0.56-0.2-0.96-0.6-1.21s-1.04-0.37-1.91-0.37
			h-1.71V127.6z M81.83,128.59v3.74h2.08c0.81,0,1.41-0.16,1.82-0.47c0.41-0.31,0.61-0.8,0.61-1.47c0-0.62-0.21-1.08-0.62-1.37
			c-0.42-0.29-1.05-0.44-1.9-0.44H81.83z"/>
		<path class="st36" d="M94.17,133.32l-0.23-1.07h-0.05c-0.37,0.47-0.75,0.79-1.12,0.95c-0.37,0.17-0.84,0.25-1.39,0.25
			c-0.74,0-1.33-0.19-1.75-0.57c-0.42-0.38-0.63-0.93-0.63-1.63c0-1.51,1.21-2.31,3.63-2.38l1.27-0.04v-0.46
			c0-0.59-0.13-1.02-0.38-1.3c-0.25-0.28-0.66-0.42-1.21-0.42c-0.62,0-1.33,0.19-2.12,0.57l-0.35-0.87c0.37-0.2,0.77-0.36,1.21-0.47
			c0.44-0.11,0.88-0.17,1.32-0.17c0.89,0,1.56,0.2,1.99,0.59c0.43,0.4,0.65,1.03,0.65,1.91v5.11H94.17z M91.61,132.52
			c0.71,0,1.26-0.19,1.66-0.58c0.4-0.39,0.61-0.93,0.61-1.63v-0.68l-1.13,0.05c-0.9,0.03-1.55,0.17-1.95,0.42
			c-0.4,0.25-0.6,0.63-0.6,1.16c0,0.41,0.12,0.72,0.37,0.94C90.82,132.41,91.16,132.52,91.61,132.52z"/>
		<path class="st36" d="M99.77,132.52c0.2,0,0.39-0.01,0.58-0.04s0.33-0.06,0.44-0.09v0.87c-0.12,0.06-0.3,0.11-0.54,0.15
			c-0.24,0.04-0.46,0.06-0.65,0.06c-1.45,0-2.17-0.76-2.17-2.29v-4.46h-1.07v-0.55l1.07-0.47l0.48-1.6h0.66v1.74h2.17v0.88h-2.17
			v4.41c0,0.45,0.11,0.8,0.32,1.04S99.4,132.52,99.77,132.52z"/>
		<path class="st36" d="M105.29,133.46c-1.08,0-1.92-0.33-2.52-1c-0.6-0.67-0.89-1.61-0.89-2.83c0-1.25,0.3-2.22,0.91-2.91
			c0.6-0.68,1.46-1.03,2.58-1.03c0.36,0,0.72,0.04,1.08,0.12s0.64,0.17,0.85,0.27l-0.35,0.96c-0.25-0.1-0.52-0.18-0.82-0.25
			s-0.56-0.1-0.79-0.1c-1.52,0-2.28,0.97-2.28,2.91c0,0.92,0.19,1.63,0.56,2.12c0.37,0.49,0.92,0.74,1.65,0.74
			c0.62,0,1.26-0.13,1.92-0.4v1C106.68,133.33,106.05,133.46,105.29,133.46z"/>
		<path class="st36" d="M114.09,133.32v-4.85c0-0.61-0.14-1.07-0.42-1.37s-0.71-0.45-1.31-0.45c-0.79,0-1.36,0.21-1.73,0.64
			c-0.36,0.43-0.54,1.13-0.54,2.11v3.92h-1.13v-10.64h1.13v3.22c0,0.39-0.02,0.71-0.05,0.96h0.07c0.22-0.36,0.54-0.64,0.95-0.85
			c0.41-0.21,0.88-0.31,1.41-0.31c0.92,0,1.6,0.22,2.06,0.65c0.46,0.44,0.69,1.13,0.69,2.07v4.89H114.09z"/>
		<path class="st36" d="M122.15,133.32l-3.39-8.86h-0.05c0.06,0.7,0.1,1.54,0.1,2.5v6.36h-1.07v-9.99h1.75l3.17,8.24h0.05l3.19-8.24
			h1.74v9.99h-1.16v-6.44c0-0.74,0.03-1.54,0.1-2.41h-0.05l-3.42,8.85H122.15z"/>
		<path class="st36" d="M134.8,133.32l-0.23-1.07h-0.05c-0.37,0.47-0.75,0.79-1.12,0.95c-0.37,0.17-0.83,0.25-1.39,0.25
			c-0.74,0-1.33-0.19-1.75-0.57c-0.42-0.38-0.63-0.93-0.63-1.63c0-1.51,1.21-2.31,3.63-2.38l1.27-0.04v-0.46
			c0-0.59-0.13-1.02-0.38-1.3c-0.25-0.28-0.66-0.42-1.21-0.42c-0.62,0-1.33,0.19-2.12,0.57l-0.35-0.87c0.37-0.2,0.77-0.36,1.21-0.47
			c0.44-0.11,0.88-0.17,1.32-0.17c0.89,0,1.55,0.2,1.99,0.59c0.43,0.4,0.65,1.03,0.65,1.91v5.11H134.8z M132.24,132.52
			c0.71,0,1.26-0.19,1.67-0.58c0.4-0.39,0.6-0.93,0.6-1.63v-0.68l-1.13,0.05c-0.9,0.03-1.55,0.17-1.95,0.42
			c-0.4,0.25-0.6,0.63-0.6,1.16c0,0.41,0.12,0.72,0.37,0.94C131.44,132.41,131.79,132.52,132.24,132.52z"/>
		<path class="st36" d="M143.1,133.32v-4.85c0-0.61-0.14-1.07-0.42-1.37s-0.71-0.45-1.31-0.45c-0.78,0-1.36,0.21-1.72,0.64
			s-0.55,1.12-0.55,2.1v3.93h-1.13v-7.49h0.92l0.18,1.03h0.05c0.23-0.37,0.56-0.66,0.98-0.86s0.89-0.3,1.4-0.3
			c0.9,0,1.58,0.22,2.04,0.65s0.68,1.13,0.68,2.09v4.89H143.1z"/>
		<path class="st36" d="M151.18,133.32l-0.23-1.07h-0.05c-0.37,0.47-0.75,0.79-1.12,0.95c-0.37,0.17-0.83,0.25-1.39,0.25
			c-0.74,0-1.33-0.19-1.75-0.57c-0.42-0.38-0.63-0.93-0.63-1.63c0-1.51,1.21-2.31,3.63-2.38l1.27-0.04v-0.46
			c0-0.59-0.13-1.02-0.38-1.3c-0.25-0.28-0.66-0.42-1.21-0.42c-0.62,0-1.33,0.19-2.12,0.57l-0.35-0.87c0.37-0.2,0.77-0.36,1.21-0.47
			c0.44-0.11,0.88-0.17,1.32-0.17c0.89,0,1.55,0.2,1.99,0.59c0.43,0.4,0.65,1.03,0.65,1.91v5.11H151.18z M148.61,132.52
			c0.71,0,1.26-0.19,1.67-0.58c0.4-0.39,0.6-0.93,0.6-1.63v-0.68l-1.13,0.05c-0.9,0.03-1.55,0.17-1.95,0.42
			c-0.4,0.25-0.6,0.63-0.6,1.16c0,0.41,0.12,0.72,0.37,0.94C147.82,132.41,148.17,132.52,148.61,132.52z"/>
		<path class="st36" d="M160.49,125.83v0.72l-1.39,0.16c0.13,0.16,0.24,0.37,0.34,0.63s0.15,0.55,0.15,0.87
			c0,0.73-0.25,1.32-0.75,1.76s-1.19,0.66-2.06,0.66c-0.22,0-0.43-0.02-0.63-0.05c-0.48,0.26-0.72,0.58-0.72,0.96
			c0,0.21,0.08,0.36,0.25,0.45s0.46,0.15,0.87,0.15h1.33c0.81,0,1.43,0.17,1.87,0.51c0.44,0.34,0.65,0.84,0.65,1.49
			c0,0.83-0.33,1.46-1,1.9s-1.64,0.65-2.91,0.65c-0.98,0-1.74-0.18-2.27-0.55c-0.53-0.36-0.8-0.88-0.8-1.54
			c0-0.46,0.15-0.85,0.44-1.18s0.7-0.56,1.23-0.68c-0.19-0.09-0.35-0.22-0.48-0.4c-0.13-0.18-0.2-0.39-0.2-0.64
			c0-0.27,0.07-0.51,0.22-0.72s0.38-0.4,0.69-0.59c-0.39-0.16-0.7-0.43-0.95-0.81c-0.24-0.38-0.37-0.82-0.37-1.31
			c0-0.82,0.25-1.45,0.74-1.9s1.19-0.67,2.09-0.67c0.39,0,0.75,0.05,1.06,0.14H160.49z M154.51,134.58c0,0.41,0.17,0.71,0.51,0.92
			s0.83,0.31,1.47,0.31c0.95,0,1.66-0.14,2.12-0.43c0.46-0.28,0.69-0.67,0.69-1.16c0-0.41-0.12-0.69-0.38-0.84s-0.72-0.24-1.42-0.24
			h-1.36c-0.51,0-0.92,0.12-1.2,0.37S154.51,134.12,154.51,134.58z M155.13,128.23c0,0.52,0.15,0.92,0.44,1.19s0.71,0.4,1.24,0.4
			c1.11,0,1.66-0.54,1.66-1.61c0-1.13-0.56-1.69-1.68-1.69c-0.53,0-0.94,0.14-1.23,0.43S155.13,127.66,155.13,128.23z"/>
		<path class="st36" d="M165.19,133.46c-1.11,0-1.98-0.34-2.62-1.01c-0.64-0.67-0.96-1.61-0.96-2.81c0-1.21,0.3-2.17,0.89-2.88
			c0.6-0.71,1.39-1.07,2.4-1.07c0.94,0,1.68,0.31,2.23,0.93s0.82,1.43,0.82,2.44v0.72h-5.16c0.02,0.88,0.25,1.55,0.67,2
			c0.42,0.46,1.01,0.68,1.78,0.68c0.81,0,1.6-0.17,2.39-0.51v1.01c-0.4,0.17-0.78,0.3-1.14,0.37
			C166.13,133.42,165.7,133.46,165.19,133.46z M164.88,126.64c-0.6,0-1.08,0.2-1.44,0.59c-0.36,0.39-0.57,0.93-0.63,1.63h3.92
			c0-0.72-0.16-1.26-0.48-1.64S165.48,126.64,164.88,126.64z"/>
		<path class="st36" d="M173.3,125.69c0.33,0,0.63,0.03,0.9,0.08l-0.16,1.05c-0.31-0.07-0.58-0.1-0.82-0.1
			c-0.61,0-1.12,0.25-1.55,0.74c-0.43,0.49-0.65,1.1-0.65,1.84v4.02h-1.13v-7.49h0.94l0.13,1.39H171c0.28-0.49,0.61-0.86,1-1.13
			S172.83,125.69,173.3,125.69z"/>
	</g>
	<g>
		<path class="st36" d="M47.99,181.32h-5.44v-0.77l4.09-5.84H42.8v-0.88h5.08v0.88l-4.03,5.73h4.14V181.32z"/>
		<path class="st36" d="M56.21,177.57c0,1.22-0.31,2.17-0.92,2.86s-1.47,1.03-2.55,1.03c-0.67,0-1.26-0.16-1.78-0.47
			s-0.92-0.77-1.2-1.35c-0.28-0.59-0.42-1.28-0.42-2.06c0-1.22,0.3-2.17,0.92-2.85c0.61-0.68,1.46-1.02,2.54-1.02
			c1.05,0,1.88,0.35,2.5,1.05S56.21,176.38,56.21,177.57z M50.5,177.57c0,0.96,0.19,1.69,0.57,2.19s0.95,0.75,1.69,0.75
			c0.74,0,1.31-0.25,1.69-0.75s0.58-1.23,0.58-2.19c0-0.95-0.19-1.68-0.58-2.17s-0.95-0.74-1.71-0.74c-0.74,0-1.3,0.24-1.68,0.73
			C50.69,175.87,50.5,176.6,50.5,177.57z"/>
		<path class="st36" d="M63.03,179.28c0,0.7-0.26,1.23-0.78,1.61s-1.25,0.57-2.19,0.57c-0.99,0-1.77-0.16-2.32-0.47v-1.05
			c0.36,0.18,0.75,0.33,1.16,0.43s0.81,0.16,1.19,0.16c0.59,0,1.05-0.09,1.37-0.28c0.32-0.19,0.48-0.48,0.48-0.86
			c0-0.29-0.13-0.54-0.38-0.75s-0.75-0.45-1.48-0.73c-0.7-0.26-1.19-0.49-1.49-0.68s-0.51-0.41-0.66-0.66s-0.21-0.54-0.21-0.88
			c0-0.61,0.25-1.09,0.74-1.45c0.5-0.35,1.18-0.53,2.04-0.53c0.81,0,1.59,0.16,2.37,0.49l-0.4,0.92c-0.75-0.31-1.43-0.46-2.04-0.46
			c-0.54,0-0.94,0.08-1.22,0.25s-0.41,0.4-0.41,0.7c0,0.2,0.05,0.37,0.15,0.51s0.27,0.28,0.5,0.4c0.23,0.13,0.67,0.31,1.31,0.55
			c0.89,0.32,1.49,0.65,1.8,0.98S63.03,178.78,63.03,179.28z"/>
		<path class="st36" d="M69.33,172.22c-1.1,0-1.97,0.37-2.6,1.1s-0.95,1.73-0.95,3c0,1.31,0.31,2.32,0.92,3.03s1.49,1.07,2.62,1.07
			c0.7,0,1.49-0.13,2.38-0.38v1.02c-0.69,0.26-1.55,0.39-2.56,0.39c-1.47,0-2.61-0.45-3.41-1.34s-1.2-2.16-1.2-3.81
			c0-1.03,0.19-1.93,0.58-2.71s0.94-1.37,1.67-1.79s1.58-0.63,2.57-0.63c1.05,0,1.96,0.19,2.75,0.57l-0.49,1
			C70.84,172.4,70.08,172.22,69.33,172.22z"/>
		<path class="st36" d="M80.18,177.57c0,1.22-0.31,2.17-0.92,2.86s-1.47,1.03-2.55,1.03c-0.67,0-1.26-0.16-1.78-0.47
			s-0.92-0.77-1.2-1.35c-0.28-0.59-0.42-1.28-0.42-2.06c0-1.22,0.3-2.17,0.92-2.85c0.61-0.68,1.46-1.02,2.54-1.02
			c1.05,0,1.88,0.35,2.5,1.05S80.18,176.38,80.18,177.57z M74.47,177.57c0,0.96,0.19,1.69,0.57,2.19s0.95,0.75,1.69,0.75
			c0.74,0,1.31-0.25,1.69-0.75s0.58-1.23,0.58-2.19c0-0.95-0.19-1.68-0.58-2.17s-0.95-0.74-1.71-0.74c-0.74,0-1.3,0.24-1.68,0.73
			C74.66,175.87,74.47,176.6,74.47,177.57z"/>
		<path class="st36" d="M91.71,181.32v-4.87c0-0.6-0.13-1.04-0.38-1.34c-0.25-0.3-0.65-0.45-1.19-0.45c-0.71,0-1.23,0.2-1.56,0.61
			c-0.34,0.41-0.51,1.03-0.51,1.87v4.18h-1.13v-4.87c0-0.6-0.13-1.04-0.38-1.34c-0.26-0.3-0.65-0.45-1.2-0.45
			c-0.71,0-1.23,0.21-1.56,0.64s-0.5,1.12-0.5,2.1v3.93h-1.13v-7.49h0.92l0.19,1.03h0.05c0.21-0.36,0.52-0.65,0.91-0.85
			s0.83-0.31,1.31-0.31c1.17,0,1.94,0.42,2.3,1.27h0.05c0.22-0.39,0.55-0.7,0.97-0.93s0.91-0.34,1.45-0.34
			c0.85,0,1.48,0.22,1.9,0.65s0.63,1.13,0.63,2.09v4.89H91.71z"/>
		<path class="st36" d="M104.74,181.32v-4.87c0-0.6-0.13-1.04-0.38-1.34c-0.26-0.3-0.65-0.45-1.19-0.45c-0.71,0-1.23,0.2-1.57,0.61
			c-0.34,0.41-0.51,1.03-0.51,1.87v4.18h-1.13v-4.87c0-0.6-0.13-1.04-0.38-1.34c-0.25-0.3-0.65-0.45-1.2-0.45
			c-0.71,0-1.23,0.21-1.56,0.64s-0.5,1.12-0.5,2.1v3.93h-1.13v-7.49h0.92l0.18,1.03h0.05c0.21-0.36,0.52-0.65,0.91-0.85
			s0.83-0.31,1.31-0.31c1.17,0,1.94,0.42,2.3,1.27h0.05c0.22-0.39,0.55-0.7,0.97-0.93s0.91-0.34,1.45-0.34
			c0.85,0,1.48,0.22,1.9,0.65s0.63,1.13,0.63,2.09v4.89H104.74z"/>
		<path class="st36" d="M112.82,181.32l-0.23-1.07h-0.05c-0.37,0.47-0.75,0.79-1.12,0.95s-0.83,0.25-1.39,0.25
			c-0.74,0-1.33-0.19-1.75-0.57s-0.63-0.93-0.63-1.63c0-1.51,1.21-2.31,3.63-2.38l1.27-0.04v-0.46c0-0.59-0.13-1.02-0.38-1.3
			s-0.66-0.42-1.21-0.42c-0.62,0-1.33,0.19-2.12,0.57l-0.35-0.87c0.37-0.2,0.77-0.36,1.21-0.47s0.88-0.17,1.32-0.17
			c0.89,0,1.55,0.2,1.99,0.59s0.65,1.03,0.65,1.91v5.11H112.82z M110.25,180.52c0.71,0,1.26-0.19,1.67-0.58s0.6-0.93,0.6-1.63v-0.68
			l-1.13,0.05c-0.9,0.03-1.55,0.17-1.95,0.42s-0.6,0.63-0.6,1.16c0,0.41,0.12,0.72,0.37,0.94S109.81,180.52,110.25,180.52z"/>
		<path class="st36" d="M121.12,181.32v-4.85c0-0.61-0.14-1.07-0.42-1.37c-0.28-0.3-0.71-0.45-1.31-0.45
			c-0.78,0-1.36,0.21-1.72,0.64c-0.36,0.42-0.55,1.12-0.55,2.1v3.93H116v-7.49h0.92l0.18,1.03h0.05c0.23-0.37,0.56-0.66,0.98-0.86
			c0.42-0.2,0.89-0.3,1.4-0.3c0.9,0,1.58,0.22,2.04,0.65c0.46,0.44,0.68,1.13,0.68,2.09v4.89H121.12z"/>
		<path class="st36" d="M129.69,180.31h-0.06c-0.52,0.76-1.31,1.14-2.35,1.14c-0.98,0-1.74-0.33-2.29-1
			c-0.54-0.67-0.82-1.62-0.82-2.86s0.27-2.19,0.82-2.88s1.31-1.03,2.28-1.03c1.02,0,1.8,0.37,2.34,1.11h0.09l-0.05-0.54l-0.03-0.53
			v-3.05h1.13v10.64h-0.92L129.69,180.31z M127.42,180.51c0.77,0,1.34-0.21,1.69-0.63c0.35-0.42,0.52-1.1,0.52-2.04v-0.24
			c0-1.06-0.18-1.82-0.53-2.27c-0.35-0.45-0.92-0.68-1.69-0.68c-0.67,0-1.17,0.26-1.53,0.78c-0.35,0.52-0.53,1.25-0.53,2.19
			c0,0.96,0.18,1.68,0.53,2.17S126.74,180.51,127.42,180.51z"/>
		<path class="st36" d="M137.76,181.32l-3.39-8.86h-0.05c0.06,0.7,0.1,1.54,0.1,2.5v6.36h-1.07v-9.99h1.75l3.17,8.24h0.05l3.19-8.24
			h1.74v9.99h-1.16v-6.44c0-0.74,0.03-1.54,0.1-2.41h-0.05l-3.42,8.85H137.76z"/>
		<path class="st36" d="M150.42,181.32l-0.23-1.07h-0.05c-0.37,0.47-0.75,0.79-1.12,0.95c-0.37,0.17-0.83,0.25-1.39,0.25
			c-0.74,0-1.33-0.19-1.75-0.57c-0.42-0.38-0.63-0.93-0.63-1.63c0-1.51,1.21-2.31,3.63-2.38l1.27-0.04v-0.46
			c0-0.59-0.13-1.02-0.38-1.3c-0.25-0.28-0.66-0.42-1.21-0.42c-0.62,0-1.33,0.19-2.12,0.57l-0.35-0.87c0.37-0.2,0.77-0.36,1.21-0.47
			c0.44-0.11,0.88-0.17,1.32-0.17c0.89,0,1.55,0.2,1.99,0.59c0.43,0.4,0.65,1.03,0.65,1.91v5.11H150.42z M147.85,180.52
			c0.71,0,1.26-0.19,1.67-0.58c0.4-0.39,0.6-0.93,0.6-1.63v-0.68l-1.13,0.05c-0.9,0.03-1.55,0.17-1.95,0.42
			c-0.4,0.25-0.6,0.63-0.6,1.16c0,0.41,0.12,0.72,0.37,0.94C147.06,180.41,147.41,180.52,147.85,180.52z"/>
		<path class="st36" d="M158.72,181.32v-4.85c0-0.61-0.14-1.07-0.42-1.37s-0.71-0.45-1.31-0.45c-0.78,0-1.36,0.21-1.72,0.64
			s-0.55,1.12-0.55,2.1v3.93h-1.13v-7.49h0.92l0.18,1.03h0.05c0.23-0.37,0.56-0.66,0.98-0.86s0.89-0.3,1.4-0.3
			c0.9,0,1.58,0.22,2.04,0.65s0.68,1.13,0.68,2.09v4.89H158.72z"/>
		<path class="st36" d="M166.79,181.32l-0.23-1.07h-0.05c-0.37,0.47-0.75,0.79-1.12,0.95c-0.37,0.17-0.83,0.25-1.39,0.25
			c-0.74,0-1.33-0.19-1.75-0.57c-0.42-0.38-0.63-0.93-0.63-1.63c0-1.51,1.21-2.31,3.63-2.38l1.27-0.04v-0.46
			c0-0.59-0.13-1.02-0.38-1.3c-0.25-0.28-0.66-0.42-1.21-0.42c-0.62,0-1.33,0.19-2.12,0.57l-0.35-0.87c0.37-0.2,0.77-0.36,1.21-0.47
			c0.44-0.11,0.88-0.17,1.32-0.17c0.89,0,1.55,0.2,1.99,0.59c0.43,0.4,0.65,1.03,0.65,1.91v5.11H166.79z M164.23,180.52
			c0.71,0,1.26-0.19,1.67-0.58c0.4-0.39,0.6-0.93,0.6-1.63v-0.68l-1.13,0.05c-0.9,0.03-1.55,0.17-1.95,0.42
			c-0.4,0.25-0.6,0.63-0.6,1.16c0,0.41,0.12,0.72,0.37,0.94C163.44,180.41,163.79,180.52,164.23,180.52z"/>
		<path class="st36" d="M176.11,173.83v0.72l-1.39,0.16c0.13,0.16,0.24,0.37,0.34,0.63s0.15,0.55,0.15,0.87
			c0,0.73-0.25,1.32-0.75,1.76s-1.19,0.66-2.06,0.66c-0.22,0-0.43-0.02-0.63-0.05c-0.48,0.26-0.72,0.58-0.72,0.96
			c0,0.21,0.08,0.36,0.25,0.45s0.46,0.15,0.87,0.15h1.33c0.81,0,1.43,0.17,1.87,0.51c0.44,0.34,0.65,0.84,0.65,1.49
			c0,0.83-0.33,1.46-1,1.9s-1.64,0.65-2.91,0.65c-0.98,0-1.74-0.18-2.27-0.55c-0.53-0.36-0.8-0.88-0.8-1.54
			c0-0.46,0.15-0.85,0.44-1.18s0.7-0.56,1.23-0.68c-0.19-0.09-0.35-0.22-0.48-0.4c-0.13-0.18-0.2-0.39-0.2-0.64
			c0-0.27,0.07-0.51,0.22-0.72s0.38-0.4,0.69-0.59c-0.39-0.16-0.7-0.43-0.95-0.81c-0.24-0.38-0.37-0.82-0.37-1.31
			c0-0.82,0.25-1.45,0.74-1.9s1.19-0.67,2.09-0.67c0.39,0,0.75,0.05,1.06,0.14H176.11z M170.13,182.58c0,0.41,0.17,0.71,0.51,0.92
			s0.83,0.31,1.47,0.31c0.95,0,1.66-0.14,2.12-0.43c0.46-0.28,0.69-0.67,0.69-1.16c0-0.41-0.12-0.69-0.38-0.84s-0.72-0.24-1.42-0.24
			h-1.36c-0.51,0-0.92,0.12-1.2,0.37S170.13,182.12,170.13,182.58z M170.75,176.23c0,0.52,0.15,0.92,0.44,1.19s0.71,0.4,1.24,0.4
			c1.11,0,1.66-0.54,1.66-1.61c0-1.13-0.56-1.69-1.68-1.69c-0.53,0-0.94,0.14-1.23,0.43S170.75,175.66,170.75,176.23z"/>
		<path class="st36" d="M180.81,181.46c-1.11,0-1.98-0.34-2.62-1.01c-0.64-0.67-0.96-1.61-0.96-2.81c0-1.21,0.3-2.17,0.89-2.88
			c0.6-0.71,1.39-1.07,2.4-1.07c0.94,0,1.68,0.31,2.23,0.93s0.82,1.43,0.82,2.44v0.72h-5.16c0.02,0.88,0.25,1.55,0.67,2
			c0.42,0.46,1.01,0.68,1.78,0.68c0.81,0,1.6-0.17,2.39-0.51v1.01c-0.4,0.17-0.78,0.3-1.14,0.37
			C181.75,181.42,181.31,181.46,180.81,181.46z M180.5,174.64c-0.6,0-1.08,0.2-1.44,0.59c-0.36,0.39-0.57,0.93-0.63,1.63h3.92
			c0-0.72-0.16-1.26-0.48-1.64S181.09,174.64,180.5,174.64z"/>
		<path class="st36" d="M188.92,173.69c0.33,0,0.63,0.03,0.9,0.08l-0.16,1.05c-0.31-0.07-0.58-0.1-0.82-0.1
			c-0.61,0-1.12,0.25-1.55,0.74c-0.43,0.49-0.65,1.1-0.65,1.84v4.02h-1.13v-7.49h0.94l0.13,1.39h0.05c0.28-0.49,0.61-0.86,1-1.13
			S188.45,173.69,188.92,173.69z"/>
	</g>
	<g>
		<path class="st36" d="M107.81,228.6c0-0.31,0.07-0.54,0.21-0.69s0.34-0.24,0.6-0.24c0.26,0,0.47,0.08,0.62,0.24
			s0.22,0.39,0.22,0.69c0,0.3-0.07,0.52-0.22,0.68s-0.36,0.24-0.62,0.24c-0.23,0-0.43-0.07-0.58-0.22S107.81,228.92,107.81,228.6z"
			/>
		<path class="st36" d="M115.18,228.6c0-0.31,0.07-0.54,0.21-0.69s0.34-0.24,0.6-0.24c0.27,0,0.47,0.08,0.62,0.24
			s0.22,0.39,0.22,0.69c0,0.3-0.08,0.52-0.23,0.68s-0.36,0.24-0.62,0.24c-0.23,0-0.42-0.07-0.58-0.22S115.18,228.92,115.18,228.6z"
			/>
		<path class="st36" d="M122.54,228.6c0-0.31,0.07-0.54,0.21-0.69c0.14-0.16,0.34-0.24,0.6-0.24c0.26,0,0.47,0.08,0.62,0.24
			c0.15,0.16,0.22,0.39,0.22,0.69c0,0.3-0.08,0.52-0.23,0.68s-0.36,0.24-0.62,0.24c-0.23,0-0.42-0.07-0.58-0.22
			C122.62,229.16,122.54,228.92,122.54,228.6z"/>
	</g>
	<g>
		<path class="st36" d="M326.01,76.22c-1.1,0-1.96,0.37-2.6,1.1c-0.63,0.73-0.95,1.73-0.95,3c0,1.31,0.31,2.32,0.92,3.03
			c0.61,0.71,1.49,1.07,2.62,1.07c0.7,0,1.49-0.13,2.39-0.38v1.02c-0.69,0.26-1.55,0.39-2.56,0.39c-1.47,0-2.61-0.45-3.41-1.34
			c-0.8-0.89-1.2-2.16-1.2-3.81c0-1.03,0.19-1.93,0.58-2.71c0.38-0.77,0.94-1.37,1.67-1.79c0.73-0.42,1.58-0.63,2.57-0.63
			c1.05,0,1.96,0.19,2.75,0.57l-0.49,1C327.52,76.4,326.76,76.22,326.01,76.22z"/>
		<path class="st36" d="M330.56,85.32v-9.99h1.16v9.99H330.56z"/>
		<path class="st36" d="M338.74,76.22c-1.1,0-1.97,0.37-2.6,1.1c-0.64,0.73-0.95,1.73-0.95,3c0,1.31,0.31,2.32,0.92,3.03
			c0.61,0.71,1.49,1.07,2.62,1.07c0.7,0,1.49-0.13,2.39-0.38v1.02c-0.69,0.26-1.55,0.39-2.56,0.39c-1.47,0-2.61-0.45-3.41-1.34
			c-0.8-0.89-1.2-2.16-1.2-3.81c0-1.03,0.19-1.93,0.58-2.71c0.39-0.77,0.94-1.37,1.67-1.79c0.73-0.42,1.58-0.63,2.57-0.63
			c1.05,0,1.96,0.19,2.75,0.57l-0.49,1C340.25,76.4,339.5,76.22,338.74,76.22z"/>
		<path class="st36" d="M348.93,82.66c0,0.88-0.32,1.57-0.96,2.06s-1.5,0.74-2.6,0.74c-1.19,0-2.1-0.15-2.73-0.46v-1.12
			c0.41,0.17,0.86,0.31,1.34,0.41s0.96,0.15,1.44,0.15c0.78,0,1.36-0.15,1.75-0.44s0.59-0.7,0.59-1.23c0-0.35-0.07-0.63-0.21-0.85
			c-0.14-0.22-0.37-0.42-0.7-0.61c-0.33-0.19-0.82-0.4-1.49-0.64c-0.93-0.33-1.59-0.73-1.99-1.18c-0.4-0.46-0.6-1.05-0.6-1.78
			c0-0.77,0.29-1.38,0.87-1.84s1.34-0.68,2.3-0.68c0.99,0,1.91,0.18,2.74,0.55l-0.36,1.01c-0.82-0.35-1.63-0.52-2.41-0.52
			c-0.62,0-1.1,0.13-1.44,0.4s-0.52,0.63-0.52,1.1c0,0.35,0.06,0.63,0.19,0.85s0.34,0.42,0.65,0.61c0.3,0.18,0.77,0.39,1.39,0.61
			c1.05,0.37,1.77,0.77,2.16,1.2C348.74,81.42,348.93,81.98,348.93,82.66z"/>
		<path class="st36" d="M355.4,85.32l-3.39-8.86h-0.05c0.06,0.7,0.1,1.54,0.1,2.5v6.36h-1.07v-9.99h1.75l3.17,8.24h0.05l3.19-8.24
			h1.74v9.99h-1.16v-6.44c0-0.74,0.03-1.54,0.1-2.41h-0.05l-3.42,8.85H355.4z"/>
		<path class="st36" d="M368.05,85.32l-0.23-1.07h-0.05c-0.37,0.47-0.75,0.79-1.12,0.95c-0.37,0.17-0.83,0.25-1.39,0.25
			c-0.74,0-1.33-0.19-1.75-0.57c-0.42-0.38-0.63-0.93-0.63-1.63c0-1.51,1.21-2.31,3.63-2.38l1.27-0.04v-0.46
			c0-0.59-0.13-1.02-0.38-1.3c-0.25-0.28-0.66-0.42-1.21-0.42c-0.62,0-1.33,0.19-2.12,0.57l-0.35-0.87c0.37-0.2,0.77-0.36,1.21-0.47
			c0.44-0.11,0.88-0.17,1.32-0.17c0.89,0,1.55,0.2,1.99,0.59c0.43,0.4,0.65,1.03,0.65,1.91v5.11H368.05z M365.49,84.52
			c0.71,0,1.26-0.19,1.67-0.58c0.4-0.39,0.6-0.93,0.6-1.63v-0.68l-1.13,0.05c-0.9,0.03-1.55,0.17-1.95,0.42
			c-0.4,0.25-0.6,0.63-0.6,1.16c0,0.41,0.12,0.72,0.37,0.94C364.7,84.41,365.04,84.52,365.49,84.52z"/>
		<path class="st36" d="M376.36,85.32v-4.85c0-0.61-0.14-1.07-0.42-1.37s-0.71-0.45-1.31-0.45c-0.78,0-1.36,0.21-1.72,0.64
			s-0.55,1.12-0.55,2.1v3.93h-1.13v-7.49h0.92l0.18,1.03h0.05c0.23-0.37,0.56-0.66,0.98-0.86s0.89-0.3,1.4-0.3
			c0.9,0,1.58,0.22,2.04,0.65s0.68,1.13,0.68,2.09v4.89H376.36z"/>
		<path class="st36" d="M384.43,85.32l-0.23-1.07h-0.05c-0.37,0.47-0.75,0.79-1.12,0.95c-0.37,0.17-0.83,0.25-1.39,0.25
			c-0.74,0-1.33-0.19-1.75-0.57c-0.42-0.38-0.63-0.93-0.63-1.63c0-1.51,1.21-2.31,3.63-2.38l1.27-0.04v-0.46
			c0-0.59-0.13-1.02-0.38-1.3c-0.25-0.28-0.66-0.42-1.21-0.42c-0.62,0-1.33,0.19-2.12,0.57l-0.35-0.87c0.37-0.2,0.77-0.36,1.21-0.47
			c0.44-0.11,0.88-0.17,1.32-0.17c0.89,0,1.55,0.2,1.99,0.59c0.43,0.4,0.65,1.03,0.65,1.91v5.11H384.43z M381.87,84.52
			c0.71,0,1.26-0.19,1.67-0.58c0.4-0.39,0.6-0.93,0.6-1.63v-0.68L383,81.68c-0.9,0.03-1.55,0.17-1.95,0.42
			c-0.4,0.25-0.6,0.63-0.6,1.16c0,0.41,0.12,0.72,0.37,0.94C381.08,84.41,381.42,84.52,381.87,84.52z"/>
		<path class="st36" d="M393.74,77.83v0.72l-1.39,0.16c0.13,0.16,0.24,0.37,0.34,0.63s0.15,0.55,0.15,0.87
			c0,0.73-0.25,1.32-0.75,1.76s-1.19,0.66-2.06,0.66c-0.22,0-0.43-0.02-0.63-0.05c-0.48,0.26-0.72,0.58-0.72,0.96
			c0,0.21,0.08,0.36,0.25,0.45s0.46,0.15,0.87,0.15h1.33c0.81,0,1.43,0.17,1.87,0.51c0.44,0.34,0.65,0.84,0.65,1.49
			c0,0.83-0.33,1.46-1,1.9s-1.64,0.65-2.91,0.65c-0.98,0-1.74-0.18-2.27-0.55c-0.53-0.36-0.8-0.88-0.8-1.54
			c0-0.46,0.15-0.85,0.44-1.18s0.7-0.56,1.23-0.68c-0.19-0.09-0.35-0.22-0.48-0.4c-0.13-0.18-0.2-0.39-0.2-0.64
			c0-0.27,0.07-0.51,0.22-0.72s0.38-0.4,0.69-0.59c-0.39-0.16-0.7-0.43-0.95-0.81c-0.24-0.38-0.37-0.82-0.37-1.31
			c0-0.82,0.25-1.45,0.74-1.9s1.19-0.67,2.09-0.67c0.39,0,0.75,0.05,1.06,0.14H393.74z M387.77,86.58c0,0.41,0.17,0.71,0.51,0.92
			s0.83,0.31,1.47,0.31c0.95,0,1.66-0.14,2.12-0.43c0.46-0.28,0.69-0.67,0.69-1.16c0-0.41-0.12-0.69-0.38-0.84s-0.72-0.24-1.42-0.24
			h-1.36c-0.51,0-0.92,0.12-1.2,0.37S387.77,86.12,387.77,86.58z M388.38,80.23c0,0.52,0.15,0.92,0.44,1.19s0.71,0.4,1.24,0.4
			c1.11,0,1.66-0.54,1.66-1.61c0-1.13-0.56-1.69-1.68-1.69c-0.53,0-0.94,0.14-1.23,0.43S388.38,79.66,388.38,80.23z"/>
		<path class="st36" d="M398.45,85.46c-1.11,0-1.98-0.34-2.62-1.01c-0.64-0.67-0.96-1.61-0.96-2.81c0-1.21,0.3-2.17,0.89-2.88
			c0.6-0.71,1.39-1.07,2.4-1.07c0.94,0,1.68,0.31,2.23,0.93s0.82,1.43,0.82,2.44v0.72h-5.16c0.02,0.88,0.25,1.55,0.67,2
			c0.42,0.46,1.01,0.68,1.78,0.68c0.81,0,1.6-0.17,2.39-0.51v1.01c-0.4,0.17-0.78,0.3-1.14,0.37
			C399.38,85.42,398.95,85.46,398.45,85.46z M398.14,78.64c-0.6,0-1.08,0.2-1.44,0.59c-0.36,0.39-0.57,0.93-0.63,1.63h3.92
			c0-0.72-0.16-1.26-0.48-1.64S398.73,78.64,398.14,78.64z"/>
		<path class="st36" d="M406.55,77.69c0.33,0,0.63,0.03,0.9,0.08l-0.16,1.05c-0.31-0.07-0.58-0.1-0.82-0.1
			c-0.61,0-1.12,0.25-1.55,0.74c-0.43,0.49-0.65,1.1-0.65,1.84v4.02h-1.13v-7.49h0.94l0.13,1.39h0.05c0.28-0.49,0.61-0.86,1-1.13
			S406.08,77.69,406.55,77.69z"/>
	</g>
	<g>
		<path class="st36" d="M326.82,133.32h-1.15l-2.02-6.69c-0.1-0.3-0.2-0.67-0.32-1.12c-0.12-0.45-0.18-0.72-0.18-0.81
			c-0.1,0.6-0.26,1.26-0.48,1.98l-1.96,6.65h-1.15l-2.66-9.99h1.23l1.58,6.17c0.22,0.87,0.38,1.65,0.48,2.35
			c0.12-0.83,0.3-1.65,0.55-2.45l1.79-6.08h1.23l1.88,6.13c0.22,0.71,0.4,1.5,0.55,2.39c0.09-0.65,0.25-1.44,0.49-2.37l1.57-6.16
			h1.23L326.82,133.32z"/>
		<path class="st36" d="M335.48,133.32l-3.39-8.86h-0.05c0.06,0.7,0.1,1.54,0.1,2.5v6.36h-1.07v-9.99h1.75l3.17,8.24h0.05l3.19-8.24
			h1.74v9.99h-1.16v-6.44c0-0.74,0.03-1.54,0.1-2.41h-0.05l-3.42,8.85H335.48z"/>
		<path class="st36" d="M352.38,128.31c0,1.28-0.26,2.34-0.77,3.19c-0.52,0.85-1.24,1.42-2.18,1.72l2.38,2.47h-1.69l-1.95-2.26
			l-0.38,0.01c-1.47,0-2.61-0.45-3.41-1.35s-1.2-2.17-1.2-3.81c0-1.63,0.4-2.89,1.2-3.78c0.8-0.9,1.94-1.34,3.42-1.34
			c1.44,0,2.56,0.46,3.36,1.37S352.38,126.71,352.38,128.31z M344.41,128.31c0,1.35,0.29,2.38,0.86,3.08s1.41,1.05,2.51,1.05
			c1.11,0,1.94-0.35,2.51-1.05c0.57-0.7,0.85-1.73,0.85-3.08c0-1.34-0.28-2.36-0.84-3.06s-1.4-1.04-2.5-1.04
			c-1.11,0-1.95,0.35-2.53,1.05S344.41,126.97,344.41,128.31z"/>
		<path class="st36" d="M359.03,133.32l-3.39-8.86h-0.05c0.06,0.7,0.1,1.54,0.1,2.5v6.36h-1.07v-9.99h1.75l3.17,8.24h0.05l3.19-8.24
			h1.74v9.99h-1.16v-6.44c0-0.74,0.03-1.54,0.1-2.41h-0.05l-3.42,8.85H359.03z"/>
		<path class="st36" d="M371.68,133.32l-0.23-1.07h-0.05c-0.37,0.47-0.75,0.79-1.12,0.95c-0.37,0.17-0.83,0.25-1.39,0.25
			c-0.74,0-1.33-0.19-1.75-0.57c-0.42-0.38-0.63-0.93-0.63-1.63c0-1.51,1.21-2.31,3.63-2.38l1.27-0.04v-0.46
			c0-0.59-0.13-1.02-0.38-1.3c-0.25-0.28-0.66-0.42-1.21-0.42c-0.62,0-1.33,0.19-2.12,0.57l-0.35-0.87c0.37-0.2,0.77-0.36,1.21-0.47
			c0.44-0.11,0.88-0.17,1.32-0.17c0.89,0,1.55,0.2,1.99,0.59c0.43,0.4,0.65,1.03,0.65,1.91v5.11H371.68z M369.12,132.52
			c0.71,0,1.26-0.19,1.67-0.58c0.4-0.39,0.6-0.93,0.6-1.63v-0.68l-1.13,0.05c-0.9,0.03-1.55,0.17-1.95,0.42
			c-0.4,0.25-0.6,0.63-0.6,1.16c0,0.41,0.12,0.72,0.37,0.94C368.32,132.41,368.67,132.52,369.12,132.52z"/>
		<path class="st36" d="M379.99,133.32v-4.85c0-0.61-0.14-1.07-0.42-1.37s-0.71-0.45-1.31-0.45c-0.78,0-1.36,0.21-1.72,0.64
			s-0.55,1.12-0.55,2.1v3.93h-1.13v-7.49h0.92l0.18,1.03h0.05c0.23-0.37,0.56-0.66,0.98-0.86s0.89-0.3,1.4-0.3
			c0.9,0,1.58,0.22,2.04,0.65s0.68,1.13,0.68,2.09v4.89H379.99z"/>
		<path class="st36" d="M388.06,133.32l-0.23-1.07h-0.05c-0.37,0.47-0.75,0.79-1.12,0.95c-0.37,0.17-0.83,0.25-1.39,0.25
			c-0.74,0-1.33-0.19-1.75-0.57c-0.42-0.38-0.63-0.93-0.63-1.63c0-1.51,1.21-2.31,3.63-2.38l1.27-0.04v-0.46
			c0-0.59-0.13-1.02-0.38-1.3c-0.25-0.28-0.66-0.42-1.21-0.42c-0.62,0-1.33,0.19-2.12,0.57l-0.35-0.87c0.37-0.2,0.77-0.36,1.21-0.47
			c0.44-0.11,0.88-0.17,1.32-0.17c0.89,0,1.55,0.2,1.99,0.59c0.43,0.4,0.65,1.03,0.65,1.91v5.11H388.06z M385.5,132.52
			c0.71,0,1.26-0.19,1.67-0.58c0.4-0.39,0.6-0.93,0.6-1.63v-0.68l-1.13,0.05c-0.9,0.03-1.55,0.17-1.95,0.42
			c-0.4,0.25-0.6,0.63-0.6,1.16c0,0.41,0.12,0.72,0.37,0.94C384.7,132.41,385.05,132.52,385.5,132.52z"/>
		<path class="st36" d="M397.37,125.83v0.72l-1.39,0.16c0.13,0.16,0.24,0.37,0.34,0.63s0.15,0.55,0.15,0.87
			c0,0.73-0.25,1.32-0.75,1.76s-1.19,0.66-2.06,0.66c-0.22,0-0.43-0.02-0.63-0.05c-0.48,0.26-0.72,0.58-0.72,0.96
			c0,0.21,0.08,0.36,0.25,0.45s0.46,0.15,0.87,0.15h1.33c0.81,0,1.43,0.17,1.87,0.51c0.44,0.34,0.65,0.84,0.65,1.49
			c0,0.83-0.33,1.46-1,1.9s-1.64,0.65-2.91,0.65c-0.98,0-1.74-0.18-2.27-0.55c-0.53-0.36-0.8-0.88-0.8-1.54
			c0-0.46,0.15-0.85,0.44-1.18s0.7-0.56,1.23-0.68c-0.19-0.09-0.35-0.22-0.48-0.4c-0.13-0.18-0.2-0.39-0.2-0.64
			c0-0.27,0.07-0.51,0.22-0.72s0.38-0.4,0.69-0.59c-0.39-0.16-0.7-0.43-0.95-0.81c-0.24-0.38-0.37-0.82-0.37-1.31
			c0-0.82,0.25-1.45,0.74-1.9s1.19-0.67,2.09-0.67c0.39,0,0.75,0.05,1.06,0.14H397.37z M391.39,134.58c0,0.41,0.17,0.71,0.51,0.92
			s0.83,0.31,1.47,0.31c0.95,0,1.66-0.14,2.12-0.43c0.46-0.28,0.69-0.67,0.69-1.16c0-0.41-0.12-0.69-0.38-0.84s-0.72-0.24-1.42-0.24
			h-1.36c-0.51,0-0.92,0.12-1.2,0.37S391.39,134.12,391.39,134.58z M392.01,128.23c0,0.52,0.15,0.92,0.44,1.19s0.71,0.4,1.24,0.4
			c1.11,0,1.66-0.54,1.66-1.61c0-1.13-0.56-1.69-1.68-1.69c-0.53,0-0.94,0.14-1.23,0.43S392.01,127.66,392.01,128.23z"/>
		<path class="st36" d="M402.07,133.46c-1.11,0-1.98-0.34-2.62-1.01c-0.64-0.67-0.96-1.61-0.96-2.81c0-1.21,0.3-2.17,0.89-2.88
			c0.6-0.71,1.39-1.07,2.4-1.07c0.94,0,1.68,0.31,2.23,0.93s0.82,1.43,0.82,2.44v0.72h-5.16c0.02,0.88,0.25,1.55,0.67,2
			c0.42,0.46,1.01,0.68,1.78,0.68c0.81,0,1.6-0.17,2.39-0.51v1.01c-0.4,0.17-0.78,0.3-1.14,0.37
			C403.01,133.42,402.58,133.46,402.07,133.46z M401.76,126.64c-0.6,0-1.08,0.2-1.44,0.59c-0.36,0.39-0.57,0.93-0.63,1.63h3.92
			c0-0.72-0.16-1.26-0.48-1.64S402.36,126.64,401.76,126.64z"/>
		<path class="st36" d="M410.18,125.69c0.33,0,0.63,0.03,0.9,0.08l-0.16,1.05c-0.31-0.07-0.58-0.1-0.82-0.1
			c-0.61,0-1.12,0.25-1.55,0.74c-0.43,0.49-0.65,1.1-0.65,1.84v4.02h-1.13v-7.49h0.94l0.13,1.39h0.05c0.28-0.49,0.61-0.86,1-1.13
			S409.71,125.69,410.18,125.69z"/>
	</g>
	<g>
		<path class="st36" d="M330.69,176.23c0,1.65-0.45,2.91-1.34,3.78c-0.9,0.87-2.18,1.31-3.87,1.31h-2.77v-9.99h3.06
			c1.55,0,2.76,0.43,3.62,1.29S330.69,174.68,330.69,176.23z M329.46,176.27c0-1.3-0.33-2.29-0.98-2.95
			c-0.65-0.66-1.62-0.99-2.92-0.99h-1.69v7.98h1.42c1.39,0,2.43-0.34,3.12-1.02S329.46,177.6,329.46,176.27z"/>
		<path class="st36" d="M332.92,171.33h2.82c1.33,0,2.29,0.2,2.88,0.59s0.89,1.02,0.89,1.88c0,0.59-0.17,1.08-0.5,1.47
			c-0.33,0.39-0.81,0.63-1.45,0.75v0.07c1.52,0.26,2.28,1.06,2.28,2.39c0,0.89-0.3,1.59-0.91,2.09c-0.6,0.5-1.45,0.75-2.53,0.75
			h-3.49V171.33z M334.08,175.6h1.91c0.82,0,1.41-0.13,1.77-0.39s0.54-0.69,0.54-1.3c0-0.56-0.2-0.96-0.6-1.21s-1.04-0.37-1.91-0.37
			h-1.71V175.6z M334.08,176.59v3.74h2.08c0.81,0,1.41-0.16,1.82-0.47c0.41-0.31,0.61-0.8,0.61-1.47c0-0.62-0.21-1.08-0.62-1.37
			c-0.42-0.29-1.05-0.44-1.9-0.44H334.08z"/>
		<path class="st36" d="M347.87,181.32h-6.57v-0.98l2.63-2.65c0.8-0.81,1.33-1.39,1.59-1.74s0.45-0.68,0.57-1.01
			s0.19-0.68,0.19-1.06c0-0.53-0.16-0.96-0.49-1.27s-0.77-0.47-1.35-0.47c-0.41,0-0.81,0.07-1.18,0.21
			c-0.37,0.14-0.79,0.39-1.24,0.75l-0.6-0.77c0.92-0.77,1.92-1.15,3.01-1.15c0.94,0,1.67,0.24,2.21,0.72s0.8,1.13,0.8,1.94
			c0,0.63-0.18,1.26-0.53,1.88s-1.02,1.4-2,2.35l-2.19,2.14v0.05h5.14V181.32z"/>
		<path class="st36" d="M354.42,181.32l-3.39-8.86h-0.05c0.06,0.7,0.1,1.54,0.1,2.5v6.36h-1.07v-9.99h1.75l3.17,8.24h0.05l3.19-8.24
			h1.74v9.99h-1.16v-6.44c0-0.74,0.03-1.54,0.1-2.41h-0.05l-3.42,8.85H354.42z"/>
		<path class="st36" d="M367.07,181.32l-0.23-1.07h-0.05c-0.37,0.47-0.75,0.79-1.12,0.95c-0.37,0.17-0.83,0.25-1.39,0.25
			c-0.74,0-1.33-0.19-1.75-0.57c-0.42-0.38-0.63-0.93-0.63-1.63c0-1.51,1.21-2.31,3.63-2.38l1.27-0.04v-0.46
			c0-0.59-0.13-1.02-0.38-1.3c-0.25-0.28-0.66-0.42-1.21-0.42c-0.62,0-1.33,0.19-2.12,0.57l-0.35-0.87c0.37-0.2,0.77-0.36,1.21-0.47
			c0.44-0.11,0.88-0.17,1.32-0.17c0.89,0,1.55,0.2,1.99,0.59c0.43,0.4,0.65,1.03,0.65,1.91v5.11H367.07z M364.51,180.52
			c0.71,0,1.26-0.19,1.67-0.58c0.4-0.39,0.6-0.93,0.6-1.63v-0.68l-1.13,0.05c-0.9,0.03-1.55,0.17-1.95,0.42
			c-0.4,0.25-0.6,0.63-0.6,1.16c0,0.41,0.12,0.72,0.37,0.94C363.71,180.41,364.06,180.52,364.51,180.52z"/>
		<path class="st36" d="M375.38,181.32v-4.85c0-0.61-0.14-1.07-0.42-1.37s-0.71-0.45-1.31-0.45c-0.78,0-1.36,0.21-1.72,0.64
			s-0.55,1.12-0.55,2.1v3.93h-1.13v-7.49h0.92l0.18,1.03h0.05c0.23-0.37,0.56-0.66,0.98-0.86s0.89-0.3,1.4-0.3
			c0.9,0,1.58,0.22,2.04,0.65s0.68,1.13,0.68,2.09v4.89H375.38z"/>
		<path class="st36" d="M383.45,181.32l-0.23-1.07h-0.05c-0.37,0.47-0.75,0.79-1.12,0.95c-0.37,0.17-0.83,0.25-1.39,0.25
			c-0.74,0-1.33-0.19-1.75-0.57c-0.42-0.38-0.63-0.93-0.63-1.63c0-1.51,1.21-2.31,3.63-2.38l1.27-0.04v-0.46
			c0-0.59-0.13-1.02-0.38-1.3c-0.25-0.28-0.66-0.42-1.21-0.42c-0.62,0-1.33,0.19-2.12,0.57l-0.35-0.87c0.37-0.2,0.77-0.36,1.21-0.47
			c0.44-0.11,0.88-0.17,1.32-0.17c0.89,0,1.55,0.2,1.99,0.59c0.43,0.4,0.65,1.03,0.65,1.91v5.11H383.45z M380.88,180.52
			c0.71,0,1.26-0.19,1.67-0.58c0.4-0.39,0.6-0.93,0.6-1.63v-0.68l-1.13,0.05c-0.9,0.03-1.55,0.17-1.95,0.42
			c-0.4,0.25-0.6,0.63-0.6,1.16c0,0.41,0.12,0.72,0.37,0.94C380.09,180.41,380.44,180.52,380.88,180.52z"/>
		<path class="st36" d="M392.76,173.83v0.72l-1.39,0.16c0.13,0.16,0.24,0.37,0.34,0.63s0.15,0.55,0.15,0.87
			c0,0.73-0.25,1.32-0.75,1.76s-1.19,0.66-2.06,0.66c-0.22,0-0.43-0.02-0.63-0.05c-0.48,0.26-0.72,0.58-0.72,0.96
			c0,0.21,0.08,0.36,0.25,0.45s0.46,0.15,0.87,0.15h1.33c0.81,0,1.43,0.17,1.87,0.51c0.44,0.34,0.65,0.84,0.65,1.49
			c0,0.83-0.33,1.46-1,1.9s-1.64,0.65-2.91,0.65c-0.98,0-1.74-0.18-2.27-0.55c-0.53-0.36-0.8-0.88-0.8-1.54
			c0-0.46,0.15-0.85,0.44-1.18s0.7-0.56,1.23-0.68c-0.19-0.09-0.35-0.22-0.48-0.4c-0.13-0.18-0.2-0.39-0.2-0.64
			c0-0.27,0.07-0.51,0.22-0.72s0.38-0.4,0.69-0.59c-0.39-0.16-0.7-0.43-0.95-0.81c-0.24-0.38-0.37-0.82-0.37-1.31
			c0-0.82,0.25-1.45,0.74-1.9s1.19-0.67,2.09-0.67c0.39,0,0.75,0.05,1.06,0.14H392.76z M386.78,182.58c0,0.41,0.17,0.71,0.51,0.92
			s0.83,0.31,1.47,0.31c0.95,0,1.66-0.14,2.12-0.43c0.46-0.28,0.69-0.67,0.69-1.16c0-0.41-0.12-0.69-0.38-0.84s-0.72-0.24-1.42-0.24
			h-1.36c-0.51,0-0.92,0.12-1.2,0.37S386.78,182.12,386.78,182.58z M387.4,176.23c0,0.52,0.15,0.92,0.44,1.19s0.71,0.4,1.24,0.4
			c1.11,0,1.66-0.54,1.66-1.61c0-1.13-0.56-1.69-1.68-1.69c-0.53,0-0.94,0.14-1.23,0.43S387.4,175.66,387.4,176.23z"/>
		<path class="st36" d="M397.46,181.46c-1.11,0-1.98-0.34-2.62-1.01c-0.64-0.67-0.96-1.61-0.96-2.81c0-1.21,0.3-2.17,0.89-2.88
			c0.6-0.71,1.39-1.07,2.4-1.07c0.94,0,1.68,0.31,2.23,0.93s0.82,1.43,0.82,2.44v0.72h-5.16c0.02,0.88,0.25,1.55,0.67,2
			c0.42,0.46,1.01,0.68,1.78,0.68c0.81,0,1.6-0.17,2.39-0.51v1.01c-0.4,0.17-0.78,0.3-1.14,0.37
			C398.4,181.42,397.97,181.46,397.46,181.46z M397.15,174.64c-0.6,0-1.08,0.2-1.44,0.59c-0.36,0.39-0.57,0.93-0.63,1.63H399
			c0-0.72-0.16-1.26-0.48-1.64S397.75,174.64,397.15,174.64z"/>
		<path class="st36" d="M405.57,173.69c0.33,0,0.63,0.03,0.9,0.08l-0.16,1.05c-0.31-0.07-0.58-0.1-0.82-0.1
			c-0.61,0-1.12,0.25-1.55,0.74c-0.43,0.49-0.65,1.1-0.65,1.84v4.02h-1.13v-7.49h0.94l0.13,1.39h0.05c0.28-0.49,0.61-0.86,1-1.13
			S405.1,173.69,405.57,173.69z"/>
	</g>
	<g>
		<path class="st36" d="M356.98,227.94c0-0.26,0.06-0.46,0.18-0.59s0.29-0.2,0.51-0.2c0.23,0,0.4,0.07,0.53,0.2s0.19,0.33,0.19,0.59
			c0,0.25-0.06,0.45-0.19,0.59s-0.3,0.21-0.53,0.21c-0.2,0-0.36-0.06-0.5-0.18S356.98,228.22,356.98,227.94z"/>
		<path class="st36" d="M363.29,227.94c0-0.26,0.06-0.46,0.18-0.59s0.29-0.2,0.51-0.2c0.23,0,0.4,0.07,0.53,0.2s0.19,0.33,0.19,0.59
			c0,0.25-0.06,0.45-0.19,0.59s-0.3,0.21-0.53,0.21c-0.2,0-0.36-0.06-0.5-0.18S363.29,228.22,363.29,227.94z"/>
		<path class="st36" d="M369.6,227.94c0-0.26,0.06-0.46,0.18-0.59s0.29-0.2,0.51-0.2c0.23,0,0.4,0.07,0.53,0.2s0.19,0.33,0.19,0.59
			c0,0.25-0.06,0.45-0.19,0.59s-0.3,0.21-0.53,0.21c-0.2,0-0.36-0.06-0.5-0.18S369.6,228.22,369.6,227.94z"/>
	</g>
	<g>
		<path class="st36" d="M561.65,82.66c0,0.88-0.32,1.57-0.96,2.06s-1.5,0.74-2.6,0.74c-1.19,0-2.1-0.15-2.73-0.46v-1.12
			c0.41,0.17,0.86,0.31,1.34,0.41s0.96,0.15,1.44,0.15c0.78,0,1.36-0.15,1.75-0.44s0.59-0.7,0.59-1.23c0-0.35-0.07-0.63-0.21-0.85
			c-0.14-0.22-0.37-0.42-0.7-0.61c-0.33-0.19-0.82-0.4-1.49-0.64c-0.93-0.33-1.59-0.73-1.99-1.18c-0.4-0.46-0.6-1.05-0.6-1.78
			c0-0.77,0.29-1.38,0.87-1.84s1.34-0.68,2.3-0.68c0.99,0,1.91,0.18,2.74,0.55l-0.36,1.01c-0.82-0.35-1.63-0.52-2.41-0.52
			c-0.62,0-1.1,0.13-1.44,0.4s-0.52,0.63-0.52,1.1c0,0.35,0.06,0.63,0.19,0.85s0.34,0.42,0.65,0.61c0.3,0.18,0.77,0.39,1.39,0.61
			c1.05,0.37,1.77,0.77,2.16,1.2C561.45,81.42,561.65,81.98,561.65,82.66z"/>
		<path class="st36" d="M566.69,85.46c-1.11,0-1.98-0.34-2.62-1.01c-0.64-0.67-0.96-1.61-0.96-2.81c0-1.21,0.3-2.17,0.89-2.88
			c0.6-0.71,1.39-1.07,2.4-1.07c0.94,0,1.68,0.31,2.23,0.93s0.82,1.43,0.82,2.44v0.72h-5.16c0.02,0.88,0.25,1.55,0.67,2
			c0.42,0.46,1.01,0.68,1.78,0.68c0.81,0,1.6-0.17,2.39-0.51v1.01c-0.4,0.17-0.78,0.3-1.14,0.37
			C567.63,85.42,567.19,85.46,566.69,85.46z M566.38,78.64c-0.6,0-1.08,0.2-1.44,0.59c-0.36,0.39-0.57,0.93-0.63,1.63h3.92
			c0-0.72-0.16-1.26-0.48-1.64S566.97,78.64,566.38,78.64z"/>
		<path class="st36" d="M572.51,85.32h-1.13V74.68h1.13V85.32z"/>
		<path class="st36" d="M578.08,85.46c-1.11,0-1.98-0.34-2.62-1.01c-0.64-0.67-0.96-1.61-0.96-2.81c0-1.21,0.3-2.17,0.89-2.88
			c0.59-0.71,1.39-1.07,2.4-1.07c0.94,0,1.68,0.31,2.23,0.93s0.82,1.43,0.82,2.44v0.72h-5.16c0.02,0.88,0.25,1.55,0.67,2
			c0.42,0.46,1.02,0.68,1.78,0.68c0.81,0,1.6-0.17,2.39-0.51v1.01c-0.4,0.17-0.78,0.3-1.14,0.37
			C579.02,85.42,578.59,85.46,578.08,85.46z M577.78,78.64c-0.6,0-1.08,0.2-1.44,0.59c-0.36,0.39-0.57,0.93-0.63,1.63h3.92
			c0-0.72-0.16-1.26-0.48-1.64S578.37,78.64,577.78,78.64z"/>
		<path class="st36" d="M587.9,85.32v-4.85c0-0.61-0.14-1.07-0.42-1.37s-0.71-0.45-1.31-0.45c-0.78,0-1.36,0.21-1.72,0.64
			s-0.55,1.12-0.55,2.1v3.93h-1.13v-7.49h0.92l0.18,1.03h0.05c0.23-0.37,0.56-0.66,0.98-0.86s0.89-0.3,1.4-0.3
			c0.9,0,1.58,0.22,2.04,0.65s0.68,1.13,0.68,2.09v4.89H587.9z"/>
		<path class="st36" d="M591.27,75.8c0-0.26,0.06-0.45,0.19-0.57s0.29-0.18,0.48-0.18c0.18,0,0.34,0.06,0.47,0.18s0.2,0.31,0.2,0.57
			s-0.07,0.45-0.2,0.57s-0.29,0.19-0.47,0.19c-0.19,0-0.35-0.06-0.48-0.19S591.27,76.05,591.27,75.8z M592.5,85.32h-1.13v-7.49h1.13
			V85.32z"/>
		<path class="st36" d="M595.97,77.83v4.86c0,0.61,0.14,1.07,0.42,1.37s0.71,0.45,1.31,0.45c0.78,0,1.36-0.21,1.72-0.64
			c0.36-0.43,0.54-1.13,0.54-2.1v-3.94h1.13v7.49h-0.94l-0.16-1h-0.06c-0.23,0.37-0.55,0.65-0.97,0.85
			c-0.41,0.2-0.88,0.29-1.41,0.29c-0.91,0-1.59-0.22-2.05-0.65c-0.45-0.43-0.68-1.13-0.68-2.08v-4.9H595.97z"/>
		<path class="st36" d="M613.05,85.32v-4.87c0-0.6-0.13-1.04-0.38-1.34s-0.65-0.45-1.19-0.45c-0.71,0-1.23,0.2-1.57,0.61
			s-0.51,1.03-0.51,1.87v4.18h-1.13v-4.87c0-0.6-0.13-1.04-0.38-1.34s-0.65-0.45-1.2-0.45c-0.71,0-1.23,0.21-1.56,0.64
			c-0.33,0.43-0.5,1.12-0.5,2.1v3.93h-1.13v-7.49h0.92l0.18,1.03h0.05c0.21-0.36,0.52-0.65,0.91-0.85c0.39-0.21,0.83-0.31,1.31-0.31
			c1.17,0,1.94,0.42,2.3,1.27h0.05c0.22-0.39,0.55-0.7,0.97-0.93s0.91-0.34,1.45-0.34c0.85,0,1.48,0.22,1.9,0.65
			c0.42,0.44,0.63,1.13,0.63,2.09v4.89H613.05z"/>
		<path class="st36" d="M621.12,85.32l-3.39-8.86h-0.05c0.06,0.7,0.1,1.54,0.1,2.5v6.36h-1.07v-9.99h1.75l3.17,8.24h0.05l3.19-8.24
			h1.74v9.99h-1.16v-6.44c0-0.74,0.03-1.54,0.1-2.41h-0.05l-3.42,8.85H621.12z"/>
		<path class="st36" d="M633.77,85.32l-0.23-1.07h-0.05c-0.37,0.47-0.75,0.79-1.12,0.95c-0.37,0.17-0.83,0.25-1.39,0.25
			c-0.74,0-1.33-0.19-1.75-0.57c-0.42-0.38-0.63-0.93-0.63-1.63c0-1.51,1.21-2.31,3.63-2.38l1.27-0.04v-0.46
			c0-0.59-0.13-1.02-0.38-1.3c-0.25-0.28-0.66-0.42-1.21-0.42c-0.62,0-1.33,0.19-2.12,0.57l-0.35-0.87c0.37-0.2,0.77-0.36,1.21-0.47
			c0.44-0.11,0.88-0.17,1.32-0.17c0.89,0,1.55,0.2,1.99,0.59c0.43,0.4,0.65,1.03,0.65,1.91v5.11H633.77z M631.21,84.52
			c0.71,0,1.26-0.19,1.67-0.58c0.4-0.39,0.6-0.93,0.6-1.63v-0.68l-1.13,0.05c-0.9,0.03-1.55,0.17-1.95,0.42
			c-0.4,0.25-0.6,0.63-0.6,1.16c0,0.41,0.12,0.72,0.37,0.94C630.41,84.41,630.76,84.52,631.21,84.52z"/>
		<path class="st36" d="M642.08,85.32v-4.85c0-0.61-0.14-1.07-0.42-1.37s-0.71-0.45-1.31-0.45c-0.78,0-1.36,0.21-1.72,0.64
			s-0.55,1.12-0.55,2.1v3.93h-1.13v-7.49h0.92l0.18,1.03h0.05c0.23-0.37,0.56-0.66,0.98-0.86s0.89-0.3,1.4-0.3
			c0.9,0,1.58,0.22,2.04,0.65s0.68,1.13,0.68,2.09v4.89H642.08z"/>
		<path class="st36" d="M650.15,85.32l-0.23-1.07h-0.05c-0.37,0.47-0.75,0.79-1.12,0.95c-0.37,0.17-0.83,0.25-1.39,0.25
			c-0.74,0-1.33-0.19-1.75-0.57c-0.42-0.38-0.63-0.93-0.63-1.63c0-1.51,1.21-2.31,3.63-2.38l1.27-0.04v-0.46
			c0-0.59-0.13-1.02-0.38-1.3c-0.25-0.28-0.66-0.42-1.21-0.42c-0.62,0-1.33,0.19-2.12,0.57l-0.35-0.87c0.37-0.2,0.77-0.36,1.21-0.47
			c0.44-0.11,0.88-0.17,1.32-0.17c0.89,0,1.55,0.2,1.99,0.59c0.43,0.4,0.65,1.03,0.65,1.91v5.11H650.15z M647.58,84.52
			c0.71,0,1.26-0.19,1.67-0.58c0.4-0.39,0.6-0.93,0.6-1.63v-0.68l-1.13,0.05c-0.9,0.03-1.55,0.17-1.95,0.42
			c-0.4,0.25-0.6,0.63-0.6,1.16c0,0.41,0.12,0.72,0.37,0.94C646.79,84.41,647.14,84.52,647.58,84.52z"/>
		<path class="st36" d="M659.46,77.83v0.72l-1.39,0.16c0.13,0.16,0.24,0.37,0.34,0.63s0.15,0.55,0.15,0.87
			c0,0.73-0.25,1.32-0.75,1.76s-1.19,0.66-2.06,0.66c-0.22,0-0.43-0.02-0.63-0.05c-0.48,0.26-0.72,0.58-0.72,0.96
			c0,0.21,0.08,0.36,0.25,0.45s0.46,0.15,0.87,0.15h1.33c0.81,0,1.43,0.17,1.87,0.51c0.44,0.34,0.65,0.84,0.65,1.49
			c0,0.83-0.33,1.46-1,1.9s-1.64,0.65-2.91,0.65c-0.98,0-1.74-0.18-2.27-0.55c-0.53-0.36-0.8-0.88-0.8-1.54
			c0-0.46,0.15-0.85,0.44-1.18s0.7-0.56,1.23-0.68c-0.19-0.09-0.35-0.22-0.48-0.4c-0.13-0.18-0.2-0.39-0.2-0.64
			c0-0.27,0.07-0.51,0.22-0.72s0.38-0.4,0.69-0.59c-0.39-0.16-0.7-0.43-0.95-0.81c-0.24-0.38-0.37-0.82-0.37-1.31
			c0-0.82,0.25-1.45,0.74-1.9s1.19-0.67,2.09-0.67c0.39,0,0.75,0.05,1.06,0.14H659.46z M653.48,86.58c0,0.41,0.17,0.71,0.51,0.92
			s0.83,0.31,1.47,0.31c0.95,0,1.66-0.14,2.12-0.43c0.46-0.28,0.69-0.67,0.69-1.16c0-0.41-0.12-0.69-0.38-0.84s-0.72-0.24-1.42-0.24
			h-1.36c-0.51,0-0.92,0.12-1.2,0.37S653.48,86.12,653.48,86.58z M654.1,80.23c0,0.52,0.15,0.92,0.44,1.19s0.71,0.4,1.24,0.4
			c1.11,0,1.66-0.54,1.66-1.61c0-1.13-0.56-1.69-1.68-1.69c-0.53,0-0.94,0.14-1.23,0.43S654.1,79.66,654.1,80.23z"/>
		<path class="st36" d="M664.16,85.46c-1.11,0-1.98-0.34-2.62-1.01c-0.64-0.67-0.96-1.61-0.96-2.81c0-1.21,0.3-2.17,0.89-2.88
			c0.6-0.71,1.39-1.07,2.4-1.07c0.94,0,1.68,0.31,2.23,0.93s0.82,1.43,0.82,2.44v0.72h-5.16c0.02,0.88,0.25,1.55,0.67,2
			c0.42,0.46,1.01,0.68,1.78,0.68c0.81,0,1.6-0.17,2.39-0.51v1.01c-0.4,0.17-0.78,0.3-1.14,0.37
			C665.1,85.42,664.67,85.46,664.16,85.46z M663.85,78.64c-0.6,0-1.08,0.2-1.44,0.59c-0.36,0.39-0.57,0.93-0.63,1.63h3.92
			c0-0.72-0.16-1.26-0.48-1.64S664.45,78.64,663.85,78.64z"/>
		<path class="st36" d="M672.27,77.69c0.33,0,0.63,0.03,0.9,0.08l-0.16,1.05c-0.31-0.07-0.58-0.1-0.82-0.1
			c-0.61,0-1.12,0.25-1.55,0.74c-0.43,0.49-0.65,1.1-0.65,1.84v4.02h-1.13v-7.49h0.94l0.13,1.39h0.05c0.28-0.49,0.61-0.86,1-1.13
			S671.8,77.69,672.27,77.69z"/>
	</g>
	<g>
		<path class="st36" d="M563.52,135.95c-0.43,0-0.77-0.06-1.01-0.18v-0.99c0.32,0.09,0.66,0.14,1.01,0.14
			c0.45,0,0.79-0.14,1.03-0.41c0.23-0.27,0.35-0.67,0.35-1.18v-9.99h1.16v9.9c0,0.87-0.22,1.54-0.66,2.01
			S564.34,135.95,563.52,135.95z"/>
		<path class="st36" d="M573.14,133.32l-3.39-8.86h-0.05c0.06,0.7,0.1,1.54,0.1,2.5v6.36h-1.07v-9.99h1.75l3.17,8.24h0.05l3.19-8.24
			h1.74v9.99h-1.16v-6.44c0-0.74,0.03-1.54,0.1-2.41h-0.05l-3.42,8.85H573.14z"/>
		<path class="st36" d="M584.35,133.46c-1.11,0-1.98-0.34-2.62-1.01c-0.64-0.67-0.96-1.61-0.96-2.81c0-1.21,0.3-2.17,0.89-2.88
			c0.6-0.71,1.39-1.07,2.4-1.07c0.94,0,1.68,0.31,2.23,0.93s0.82,1.43,0.82,2.44v0.72h-5.16c0.02,0.88,0.25,1.55,0.67,2
			c0.42,0.46,1.01,0.68,1.78,0.68c0.81,0,1.6-0.17,2.39-0.51v1.01c-0.4,0.17-0.78,0.3-1.14,0.37
			C585.29,133.42,584.86,133.46,584.35,133.46z M584.04,126.64c-0.6,0-1.08,0.2-1.44,0.59c-0.36,0.39-0.57,0.93-0.63,1.63h3.92
			c0-0.72-0.16-1.26-0.48-1.64S584.64,126.64,584.04,126.64z"/>
		<path class="st36" d="M591.46,132.52c0.2,0,0.39-0.01,0.58-0.04s0.33-0.06,0.44-0.09v0.87c-0.12,0.06-0.3,0.11-0.54,0.15
			c-0.24,0.04-0.45,0.06-0.65,0.06c-1.45,0-2.17-0.76-2.17-2.29v-4.46h-1.07v-0.55l1.07-0.47l0.48-1.6h0.66v1.74h2.17v0.88h-2.17
			v4.41c0,0.45,0.11,0.8,0.32,1.04S591.09,132.52,591.46,132.52z"/>
		<path class="st36" d="M597.15,133.46c-1.11,0-1.98-0.34-2.62-1.01c-0.64-0.67-0.96-1.61-0.96-2.81c0-1.21,0.3-2.17,0.89-2.88
			c0.6-0.71,1.39-1.07,2.4-1.07c0.94,0,1.68,0.31,2.23,0.93s0.82,1.43,0.82,2.44v0.72h-5.16c0.02,0.88,0.25,1.55,0.67,2
			c0.42,0.46,1.01,0.68,1.78,0.68c0.81,0,1.6-0.17,2.39-0.51v1.01c-0.4,0.17-0.78,0.3-1.14,0.37
			C598.09,133.42,597.66,133.46,597.15,133.46z M596.84,126.64c-0.6,0-1.08,0.2-1.44,0.59c-0.36,0.39-0.57,0.93-0.63,1.63h3.92
			c0-0.72-0.16-1.26-0.48-1.64S597.43,126.64,596.84,126.64z"/>
		<path class="st36" d="M605.26,125.69c0.33,0,0.63,0.03,0.9,0.08l-0.16,1.05c-0.31-0.07-0.58-0.1-0.82-0.1
			c-0.61,0-1.12,0.25-1.56,0.74c-0.43,0.49-0.65,1.1-0.65,1.84v4.02h-1.13v-7.49h0.94l0.13,1.39h0.05c0.28-0.49,0.61-0.86,1-1.13
			S604.79,125.69,605.26,125.69z"/>
		<path class="st36" d="M612.15,133.32l-3.39-8.86h-0.05c0.06,0.7,0.1,1.54,0.1,2.5v6.36h-1.07v-9.99h1.75l3.17,8.24h0.05l3.19-8.24
			h1.74v9.99h-1.16v-6.44c0-0.74,0.03-1.54,0.1-2.41h-0.05l-3.42,8.85H612.15z"/>
		<path class="st36" d="M624.8,133.32l-0.23-1.07h-0.05c-0.37,0.47-0.75,0.79-1.12,0.95c-0.37,0.17-0.83,0.25-1.39,0.25
			c-0.74,0-1.33-0.19-1.75-0.57c-0.42-0.38-0.63-0.93-0.63-1.63c0-1.51,1.21-2.31,3.63-2.38l1.27-0.04v-0.46
			c0-0.59-0.13-1.02-0.38-1.3c-0.25-0.28-0.66-0.42-1.21-0.42c-0.62,0-1.33,0.19-2.12,0.57l-0.35-0.87c0.37-0.2,0.77-0.36,1.21-0.47
			c0.44-0.11,0.88-0.17,1.32-0.17c0.89,0,1.55,0.2,1.99,0.59c0.43,0.4,0.65,1.03,0.65,1.91v5.11H624.8z M622.24,132.52
			c0.71,0,1.26-0.19,1.67-0.58c0.4-0.39,0.6-0.93,0.6-1.63v-0.68l-1.13,0.05c-0.9,0.03-1.55,0.17-1.95,0.42
			c-0.4,0.25-0.6,0.63-0.6,1.16c0,0.41,0.12,0.72,0.37,0.94C621.44,132.41,621.79,132.52,622.24,132.52z"/>
		<path class="st36" d="M633.11,133.32v-4.85c0-0.61-0.14-1.07-0.42-1.37s-0.71-0.45-1.31-0.45c-0.78,0-1.36,0.21-1.72,0.64
			s-0.55,1.12-0.55,2.1v3.93h-1.13v-7.49h0.92l0.18,1.03h0.05c0.23-0.37,0.56-0.66,0.98-0.86s0.89-0.3,1.4-0.3
			c0.9,0,1.58,0.22,2.04,0.65s0.68,1.13,0.68,2.09v4.89H633.11z"/>
		<path class="st36" d="M641.18,133.32l-0.23-1.07h-0.05c-0.37,0.47-0.75,0.79-1.12,0.95c-0.37,0.17-0.83,0.25-1.39,0.25
			c-0.74,0-1.33-0.19-1.75-0.57c-0.42-0.38-0.63-0.93-0.63-1.63c0-1.51,1.21-2.31,3.63-2.38l1.27-0.04v-0.46
			c0-0.59-0.13-1.02-0.38-1.3c-0.25-0.28-0.66-0.42-1.21-0.42c-0.62,0-1.33,0.19-2.12,0.57l-0.35-0.87c0.37-0.2,0.77-0.36,1.21-0.47
			c0.44-0.11,0.88-0.17,1.32-0.17c0.89,0,1.55,0.2,1.99,0.59c0.43,0.4,0.65,1.03,0.65,1.91v5.11H641.18z M638.62,132.52
			c0.71,0,1.26-0.19,1.67-0.58c0.4-0.39,0.6-0.93,0.6-1.63v-0.68l-1.13,0.05c-0.9,0.03-1.55,0.17-1.95,0.42
			c-0.4,0.25-0.6,0.63-0.6,1.16c0,0.41,0.12,0.72,0.37,0.94C637.82,132.41,638.17,132.52,638.62,132.52z"/>
		<path class="st36" d="M650.49,125.83v0.72l-1.39,0.16c0.13,0.16,0.24,0.37,0.34,0.63s0.15,0.55,0.15,0.87
			c0,0.73-0.25,1.32-0.75,1.76s-1.19,0.66-2.06,0.66c-0.22,0-0.43-0.02-0.63-0.05c-0.48,0.26-0.72,0.58-0.72,0.96
			c0,0.21,0.08,0.36,0.25,0.45s0.46,0.15,0.87,0.15h1.33c0.81,0,1.43,0.17,1.87,0.51c0.44,0.34,0.65,0.84,0.65,1.49
			c0,0.83-0.33,1.46-1,1.9s-1.64,0.65-2.91,0.65c-0.98,0-1.74-0.18-2.27-0.55c-0.53-0.36-0.8-0.88-0.8-1.54
			c0-0.46,0.15-0.85,0.44-1.18s0.7-0.56,1.23-0.68c-0.19-0.09-0.35-0.22-0.48-0.4c-0.13-0.18-0.2-0.39-0.2-0.64
			c0-0.27,0.07-0.51,0.22-0.72s0.38-0.4,0.69-0.59c-0.39-0.16-0.7-0.43-0.95-0.81c-0.24-0.38-0.37-0.82-0.37-1.31
			c0-0.82,0.25-1.45,0.74-1.9s1.19-0.67,2.09-0.67c0.39,0,0.75,0.05,1.06,0.14H650.49z M644.52,134.58c0,0.41,0.17,0.71,0.51,0.92
			s0.83,0.31,1.47,0.31c0.95,0,1.66-0.14,2.12-0.43c0.46-0.28,0.69-0.67,0.69-1.16c0-0.41-0.12-0.69-0.38-0.84s-0.72-0.24-1.42-0.24
			h-1.36c-0.51,0-0.92,0.12-1.2,0.37S644.52,134.12,644.52,134.58z M645.13,128.23c0,0.52,0.15,0.92,0.44,1.19s0.71,0.4,1.24,0.4
			c1.11,0,1.66-0.54,1.66-1.61c0-1.13-0.56-1.69-1.68-1.69c-0.53,0-0.94,0.14-1.23,0.43S645.13,127.66,645.13,128.23z"/>
		<path class="st36" d="M655.19,133.46c-1.11,0-1.98-0.34-2.62-1.01c-0.64-0.67-0.96-1.61-0.96-2.81c0-1.21,0.3-2.17,0.89-2.88
			c0.6-0.71,1.39-1.07,2.4-1.07c0.94,0,1.68,0.31,2.23,0.93s0.82,1.43,0.82,2.44v0.72h-5.16c0.02,0.88,0.25,1.55,0.67,2
			c0.42,0.46,1.01,0.68,1.78,0.68c0.81,0,1.6-0.17,2.39-0.51v1.01c-0.4,0.17-0.78,0.3-1.14,0.37
			C656.13,133.42,655.7,133.46,655.19,133.46z M654.89,126.64c-0.6,0-1.08,0.2-1.44,0.59c-0.36,0.39-0.57,0.93-0.63,1.63h3.92
			c0-0.72-0.16-1.26-0.48-1.64S655.48,126.64,654.89,126.64z"/>
		<path class="st36" d="M663.3,125.69c0.33,0,0.63,0.03,0.9,0.08l-0.16,1.05c-0.31-0.07-0.58-0.1-0.82-0.1
			c-0.61,0-1.12,0.25-1.55,0.74c-0.43,0.49-0.65,1.1-0.65,1.84v4.02h-1.13v-7.49h0.94l0.13,1.39H661c0.28-0.49,0.61-0.86,1-1.13
			S662.83,125.69,663.3,125.69z"/>
	</g>
	<g>
		<path class="st36" d="M571.21,176.23c0,1.65-0.45,2.91-1.34,3.78c-0.89,0.87-2.18,1.31-3.87,1.31h-2.77v-9.99h3.06
			c1.55,0,2.76,0.43,3.62,1.29S571.21,174.68,571.21,176.23z M569.98,176.27c0-1.3-0.33-2.29-0.98-2.95
			c-0.65-0.66-1.63-0.99-2.92-0.99h-1.69v7.98h1.42c1.38,0,2.43-0.34,3.12-1.02S569.98,177.6,569.98,176.27z"/>
		<path class="st36" d="M579.73,177.57c0,1.22-0.31,2.17-0.92,2.86s-1.46,1.03-2.55,1.03c-0.67,0-1.26-0.16-1.78-0.47
			s-0.92-0.77-1.2-1.35s-0.42-1.28-0.42-2.06c0-1.22,0.3-2.17,0.92-2.85s1.46-1.02,2.54-1.02c1.05,0,1.88,0.35,2.5,1.05
			C579.42,175.43,579.73,176.38,579.73,177.57z M574.02,177.57c0,0.96,0.19,1.69,0.57,2.19s0.95,0.75,1.69,0.75s1.31-0.25,1.69-0.75
			c0.38-0.5,0.58-1.23,0.58-2.19c0-0.95-0.19-1.68-0.58-2.17c-0.39-0.49-0.95-0.74-1.71-0.74c-0.74,0-1.3,0.24-1.68,0.73
			S574.02,176.6,574.02,177.57z"/>
		<path class="st36" d="M584.71,181.46c-1.08,0-1.92-0.33-2.52-1c-0.59-0.67-0.89-1.61-0.89-2.83c0-1.25,0.3-2.22,0.91-2.91
			c0.6-0.68,1.46-1.03,2.58-1.03c0.36,0,0.72,0.04,1.08,0.12s0.64,0.17,0.85,0.27l-0.35,0.96c-0.25-0.1-0.52-0.18-0.82-0.25
			s-0.56-0.1-0.79-0.1c-1.52,0-2.28,0.97-2.28,2.91c0,0.92,0.19,1.63,0.56,2.12c0.37,0.49,0.92,0.74,1.65,0.74
			c0.62,0,1.26-0.13,1.92-0.4v1C586.11,181.33,585.48,181.46,584.71,181.46z"/>
		<path class="st36" d="M589.51,177.48c0.2-0.28,0.5-0.64,0.9-1.09l2.42-2.56h1.35l-3.04,3.19l3.25,4.3h-1.37l-2.65-3.54l-0.85,0.74
			v2.8h-1.12v-10.64h1.12v5.64c0,0.25-0.02,0.64-0.05,1.16H589.51z"/>
		<path class="st36" d="M598.9,181.46c-1.11,0-1.98-0.34-2.62-1.01c-0.64-0.67-0.96-1.61-0.96-2.81c0-1.21,0.3-2.17,0.89-2.88
			c0.6-0.71,1.39-1.07,2.4-1.07c0.94,0,1.68,0.31,2.23,0.93s0.82,1.43,0.82,2.44v0.72h-5.16c0.02,0.88,0.25,1.55,0.67,2
			c0.42,0.46,1.01,0.68,1.78,0.68c0.81,0,1.6-0.17,2.39-0.51v1.01c-0.4,0.17-0.78,0.3-1.14,0.37
			C599.84,181.42,599.41,181.46,598.9,181.46z M598.59,174.64c-0.6,0-1.08,0.2-1.44,0.59c-0.36,0.39-0.57,0.93-0.63,1.63h3.92
			c0-0.72-0.16-1.26-0.48-1.64S599.18,174.64,598.59,174.64z"/>
		<path class="st36" d="M607.01,173.69c0.33,0,0.63,0.03,0.9,0.08l-0.16,1.05c-0.31-0.07-0.58-0.1-0.82-0.1
			c-0.61,0-1.12,0.25-1.56,0.74c-0.43,0.49-0.65,1.1-0.65,1.84v4.02h-1.13v-7.49h0.94l0.13,1.39h0.05c0.28-0.49,0.61-0.86,1-1.13
			S606.54,173.69,607.01,173.69z"/>
		<path class="st36" d="M613.9,181.32l-3.39-8.86h-0.05c0.06,0.7,0.1,1.54,0.1,2.5v6.36h-1.07v-9.99h1.75l3.17,8.24h0.05l3.19-8.24
			h1.74v9.99h-1.16v-6.44c0-0.74,0.03-1.54,0.1-2.41h-0.05l-3.42,8.85H613.9z"/>
		<path class="st36" d="M626.55,181.32l-0.23-1.07h-0.05c-0.37,0.47-0.75,0.79-1.12,0.95c-0.37,0.17-0.83,0.25-1.39,0.25
			c-0.74,0-1.33-0.19-1.75-0.57c-0.42-0.38-0.63-0.93-0.63-1.63c0-1.51,1.21-2.31,3.63-2.38l1.27-0.04v-0.46
			c0-0.59-0.13-1.02-0.38-1.3c-0.25-0.28-0.66-0.42-1.21-0.42c-0.62,0-1.33,0.19-2.12,0.57l-0.35-0.87c0.37-0.2,0.77-0.36,1.21-0.47
			c0.44-0.11,0.88-0.17,1.32-0.17c0.89,0,1.55,0.2,1.99,0.59c0.43,0.4,0.65,1.03,0.65,1.91v5.11H626.55z M623.99,180.52
			c0.71,0,1.26-0.19,1.67-0.58c0.4-0.39,0.6-0.93,0.6-1.63v-0.68l-1.13,0.05c-0.9,0.03-1.55,0.17-1.95,0.42
			c-0.4,0.25-0.6,0.63-0.6,1.16c0,0.41,0.12,0.72,0.37,0.94C623.19,180.41,623.54,180.52,623.99,180.52z"/>
		<path class="st36" d="M634.86,181.32v-4.85c0-0.61-0.14-1.07-0.42-1.37s-0.71-0.45-1.31-0.45c-0.78,0-1.36,0.21-1.72,0.64
			s-0.55,1.12-0.55,2.1v3.93h-1.13v-7.49h0.92l0.18,1.03h0.05c0.23-0.37,0.56-0.66,0.98-0.86s0.89-0.3,1.4-0.3
			c0.9,0,1.58,0.22,2.04,0.65s0.68,1.13,0.68,2.09v4.89H634.86z"/>
		<path class="st36" d="M642.93,181.32l-0.23-1.07h-0.05c-0.37,0.47-0.75,0.79-1.12,0.95c-0.37,0.17-0.83,0.25-1.39,0.25
			c-0.74,0-1.33-0.19-1.75-0.57c-0.42-0.38-0.63-0.93-0.63-1.63c0-1.51,1.21-2.31,3.63-2.38l1.27-0.04v-0.46
			c0-0.59-0.13-1.02-0.38-1.3c-0.25-0.28-0.66-0.42-1.21-0.42c-0.62,0-1.33,0.19-2.12,0.57l-0.35-0.87c0.37-0.2,0.77-0.36,1.21-0.47
			c0.44-0.11,0.88-0.17,1.32-0.17c0.89,0,1.55,0.2,1.99,0.59c0.43,0.4,0.65,1.03,0.65,1.91v5.11H642.93z M640.37,180.52
			c0.71,0,1.26-0.19,1.67-0.58c0.4-0.39,0.6-0.93,0.6-1.63v-0.68l-1.13,0.05c-0.9,0.03-1.55,0.17-1.95,0.42
			c-0.4,0.25-0.6,0.63-0.6,1.16c0,0.41,0.12,0.72,0.37,0.94C639.57,180.41,639.92,180.52,640.37,180.52z"/>
		<path class="st36" d="M652.24,173.83v0.72l-1.39,0.16c0.13,0.16,0.24,0.37,0.34,0.63s0.15,0.55,0.15,0.87
			c0,0.73-0.25,1.32-0.75,1.76s-1.19,0.66-2.06,0.66c-0.22,0-0.43-0.02-0.63-0.05c-0.48,0.26-0.72,0.58-0.72,0.96
			c0,0.21,0.08,0.36,0.25,0.45s0.46,0.15,0.87,0.15h1.33c0.81,0,1.43,0.17,1.87,0.51c0.44,0.34,0.65,0.84,0.65,1.49
			c0,0.83-0.33,1.46-1,1.9s-1.64,0.65-2.91,0.65c-0.98,0-1.74-0.18-2.27-0.55c-0.53-0.36-0.8-0.88-0.8-1.54
			c0-0.46,0.15-0.85,0.44-1.18s0.7-0.56,1.23-0.68c-0.19-0.09-0.35-0.22-0.48-0.4c-0.13-0.18-0.2-0.39-0.2-0.64
			c0-0.27,0.07-0.51,0.22-0.72s0.38-0.4,0.69-0.59c-0.39-0.16-0.7-0.43-0.95-0.81c-0.24-0.38-0.37-0.82-0.37-1.31
			c0-0.82,0.25-1.45,0.74-1.9s1.19-0.67,2.09-0.67c0.39,0,0.75,0.05,1.06,0.14H652.24z M646.27,182.58c0,0.41,0.17,0.71,0.51,0.92
			s0.83,0.31,1.47,0.31c0.95,0,1.66-0.14,2.12-0.43c0.46-0.28,0.69-0.67,0.69-1.16c0-0.41-0.12-0.69-0.38-0.84s-0.72-0.24-1.42-0.24
			h-1.36c-0.51,0-0.92,0.12-1.2,0.37S646.27,182.12,646.27,182.58z M646.88,176.23c0,0.52,0.15,0.92,0.44,1.19s0.71,0.4,1.24,0.4
			c1.11,0,1.66-0.54,1.66-1.61c0-1.13-0.56-1.69-1.68-1.69c-0.53,0-0.94,0.14-1.23,0.43S646.88,175.66,646.88,176.23z"/>
		<path class="st36" d="M656.94,181.46c-1.11,0-1.98-0.34-2.62-1.01c-0.64-0.67-0.96-1.61-0.96-2.81c0-1.21,0.3-2.17,0.89-2.88
			c0.6-0.71,1.39-1.07,2.4-1.07c0.94,0,1.68,0.31,2.23,0.93s0.82,1.43,0.82,2.44v0.72h-5.16c0.02,0.88,0.25,1.55,0.67,2
			c0.42,0.46,1.01,0.68,1.78,0.68c0.81,0,1.6-0.17,2.39-0.51v1.01c-0.4,0.17-0.78,0.3-1.14,0.37
			C657.88,181.42,657.45,181.46,656.94,181.46z M656.64,174.64c-0.6,0-1.08,0.2-1.44,0.59c-0.36,0.39-0.57,0.93-0.63,1.63h3.92
			c0-0.72-0.16-1.26-0.48-1.64S657.23,174.64,656.64,174.64z"/>
		<path class="st36" d="M665.05,173.69c0.33,0,0.63,0.03,0.9,0.08l-0.16,1.05c-0.31-0.07-0.58-0.1-0.82-0.1
			c-0.61,0-1.12,0.25-1.55,0.74c-0.43,0.49-0.65,1.1-0.65,1.84v4.02h-1.13v-7.49h0.94l0.13,1.39h0.05c0.28-0.49,0.61-0.86,1-1.13
			S664.58,173.69,665.05,173.69z"/>
	</g>
	<g>
		<path class="st36" d="M605.81,228.6c0-0.31,0.07-0.54,0.21-0.69s0.34-0.24,0.6-0.24c0.26,0,0.47,0.08,0.62,0.24
			s0.22,0.39,0.22,0.69c0,0.3-0.07,0.52-0.22,0.68s-0.36,0.24-0.62,0.24c-0.23,0-0.43-0.07-0.58-0.22S605.81,228.92,605.81,228.6z"
			/>
		<path class="st36" d="M613.18,228.6c0-0.31,0.07-0.54,0.21-0.69s0.34-0.24,0.6-0.24c0.27,0,0.47,0.08,0.62,0.24
			s0.22,0.39,0.22,0.69c0,0.3-0.08,0.52-0.23,0.68s-0.36,0.24-0.62,0.24c-0.23,0-0.42-0.07-0.58-0.22S613.18,228.92,613.18,228.6z"
			/>
		<path class="st36" d="M620.54,228.6c0-0.31,0.07-0.54,0.21-0.69c0.14-0.16,0.34-0.24,0.6-0.24c0.26,0,0.47,0.08,0.62,0.24
			c0.15,0.16,0.22,0.39,0.22,0.69c0,0.3-0.08,0.52-0.23,0.68s-0.36,0.24-0.62,0.24c-0.23,0-0.42-0.07-0.58-0.22
			C620.62,229.16,620.54,228.92,620.54,228.6z"/>
	</g>
</g>
<g id="Layer_2">
</g>
<g id="Layer_3">
</g>
</svg>
