<?xml version="1.0" encoding="utf-8"?>
<!-- Generator: Adobe Illustrator 24.3.0, SVG Export Plug-In . SVG Version: 6.00 Build 0)  -->
<svg version="1.1" xmlns="http://www.w3.org/2000/svg" xmlns:xlink="http://www.w3.org/1999/xlink" x="0px" y="0px"
	 viewBox="0 0 727 516" style="enable-background:new 0 0 727 516;" xml:space="preserve">
<style type="text/css">
	.st0{fill:#FFFFFF;}
	.st1{clip-path:url(#SVGID_2_);fill:#003594;}
	.st2{clip-path:url(#SVGID_4_);fill:#0F55BA;}
	.st3{clip-path:url(#SVGID_6_);fill:#9EBAE3;}
	.st4{clip-path:url(#SVGID_8_);fill:#002A66;}
	.st5{clip-path:url(#SVGID_10_);fill:#FFDB12;}
	.st6{clip-path:url(#SVGID_12_);fill:#FFE36C;}
	.st7{clip-path:url(#SVGID_14_);}
	.st8{clip-path:url(#SVGID_16_);fill:#FFFFFF;}
	.st9{clip-path:url(#SVGID_18_);fill:#161616;}
	.st10{clip-path:url(#SVGID_20_);fill:#262626;}
	.st11{clip-path:url(#SVGID_22_);fill:#393939;}
	.st12{clip-path:url(#SVGID_24_);fill:#525252;}
	.st13{clip-path:url(#SVGID_26_);fill:#6F6F6F;}
	.st14{clip-path:url(#SVGID_28_);fill:#DFECFF;}
	.st15{clip-path:url(#SVGID_30_);fill:#F8F788;}
	.st16{clip-path:url(#SVGID_32_);fill:#8D8D8D;}
	.st17{clip-path:url(#SVGID_34_);fill:#A8A8A8;}
	.st18{clip-path:url(#SVGID_36_);fill:#C6C6C6;}
	.st19{clip-path:url(#SVGID_38_);fill:#E0E0E0;}
	.st20{clip-path:url(#SVGID_40_);fill:#F4F4F4;}
	.st21{clip-path:url(#SVGID_42_);fill:#D62525;}
	.st22{fill:#002A66;}
	.st23{fill:#003594;}
	.st24{fill:#0F55BA;}
	.st25{fill:#9EBAE3;}
	.st26{fill:#DFECFF;}
	.st27{fill:#161616;}
	.st28{fill:#262626;}
	.st29{fill:#393939;}
	.st30{fill:#525252;}
	.st31{fill:#6F6F6F;}
	.st32{fill:#8D8D8D;}
	.st33{fill:#A8A8A8;}
	.st34{fill:#C6C6C6;}
	.st35{fill:#E0E0E0;}
	.st36{fill:#F4F4F4;}
	.st37{fill:#FFDB12;}
	.st38{fill:#FFE36C;}
	.st39{fill:#F8F788;}
	.st40{fill:#FF832B;}
	.st41{fill:#EFA284;}
	.st42{fill:none;stroke:#000000;stroke-width:1.0057;stroke-miterlimit:10;}
	.st43{fill:none;stroke:#000000;stroke-width:1.006;stroke-miterlimit:10;}
	.st44{fill:none;stroke:#000000;stroke-miterlimit:10;}
	.st45{fill:none;stroke:#000000;stroke-miterlimit:10;stroke-dasharray:1,4;}
	.st46{fill:none;stroke:#000000;stroke-miterlimit:10;stroke-dasharray:6,6;}
	.st47{fill:none;stroke:#000000;stroke-miterlimit:10;stroke-dasharray:6.0067,6.0067;}
	.st48{fill:none;stroke:#000000;stroke-miterlimit:10;stroke-dasharray:5.6923,5.6923;}
	.st49{fill:none;stroke:#000000;stroke-miterlimit:10;stroke-dasharray:6.2506,6.2506;}
	.st50{fill:#F8F8F8;}
	.st51{fill:none;stroke:#000000;stroke-miterlimit:10;stroke-dasharray:5.6188,1.8729;}
	.st52{fill:none;stroke:#000000;stroke-miterlimit:10;stroke-dasharray:0.9365,3.7458,5.6188,1.8729;}
	.st53{fill:none;stroke:#000000;stroke-miterlimit:10;stroke-dasharray:1,4,6,2;}
	.st54{fill:none;stroke:#000000;stroke-miterlimit:10;stroke-dasharray:6.3246,2.1082;}
	.st55{fill:none;stroke:#000000;stroke-miterlimit:10;stroke-dasharray:1.0541,4.2164,6.3246,2.1082;}
	.st56{fill:none;stroke:#000000;stroke-miterlimit:10;stroke-dasharray:5.9412,1.9804;}
	.st57{fill:none;stroke:#000000;stroke-miterlimit:10;stroke-dasharray:0.9902,3.9608,5.9412,1.9804;}
	.st58{fill:none;stroke:#000000;stroke-miterlimit:10;stroke-dasharray:6,2;}
	.st59{fill:none;stroke:#000000;stroke-miterlimit:10;stroke-dasharray:5.7662,1.9221;}
	.st60{fill:none;stroke:#000000;stroke-miterlimit:10;stroke-dasharray:0.961,3.8442,5.7662,1.9221;}
	.st61{fill:none;stroke:#000000;stroke-miterlimit:10;stroke-dasharray:5.7031,1.901;}
	.st62{fill:none;stroke:#000000;stroke-miterlimit:10;stroke-dasharray:0.9505,3.802,5.7031,1.901;}
	.st63{fill:none;stroke:#000000;stroke-miterlimit:10;stroke-dasharray:6.0714,6.0714;}
	.st64{fill:none;stroke:#000000;stroke-miterlimit:10;stroke-dasharray:6.1429,6.1429;}
	.st65{fill:none;stroke:#000000;stroke-miterlimit:10;stroke-dasharray:5.2519,5.2519;}
</style>
<g id="images">
	<polyline class="st0" points="430,111 430,25 718,25 718,508 430,508 430,132 	"/>
	<polyline class="st35" points="439,198 439,138.5 709,138.5 709,269.5 439,269.5 439,253 	"/>
	<line class="st45" x1="430" y1="232" x2="430" y2="219"/>
	<g>
		<g>
			<line class="st44" x1="192" y1="236.2" x2="192" y2="239.2"/>
			<line class="st46" x1="192" y1="245.2" x2="192" y2="290.2"/>
			<polyline class="st44" points="192,293.2 192,296.2 195,296.2 			"/>
			<line class="st47" x1="201" y1="296.2" x2="426.3" y2="296.2"/>
			<line class="st44" x1="429.3" y1="296.2" x2="432.3" y2="296.2"/>
			<g>
				<polygon points="431.1,300.2 438,296.3 431.1,292.3 				"/>
			</g>
		</g>
	</g>
	<g>
		<rect x="74.5" y="194.8" class="st0" width="127" height="65"/>
		<path d="M201,195.2v64H75v-64H201 M202,194.2H74v66h128V194.2L202,194.2z"/>
	</g>
	<line class="st44" x1="19" y1="161" x2="19" y2="289"/>
	<rect x="3" y="299" class="st0" width="32" height="32"/>
	<g>
		<path d="M33,304v22H5v-22H33 M34,303H4v24h30V303L34,303z"/>
	</g>
	<rect x="5" y="307" width="28" height="1"/>
	<g>
		<path class="st0" d="M19.8,116.5c8,0,14.5,6.5,14.5,14.5"/>
		<g>
			<path class="st44" d="M19.8,116.5c7.2,0,13.2,5.3,14.3,12.2"/>
			<g>
				<polygon points="32.4,128.4 34.2,131 35.6,128.1 				"/>
			</g>
		</g>
	</g>
	<g>
		<g>
			<g>
				<path class="st0" d="M13.4,132.5l-0.7-2.3l-0.2-0.1c-0.6-0.2-1.1-0.5-1.5-0.9l-0.2-0.2l-2.5,0.6l-1.1-1.8l1.9-1.9l0-0.2
					c0-0.2,0-0.5,0-0.7s0-0.5,0-0.7l0-0.2l-1.9-1.9l1.1-1.8l2.5,0.6l0.2-0.2c0.5-0.4,1-0.7,1.5-0.9l0.2-0.1l0.7-2.3h2.2l0.7,2.3
					l0.2,0.1c0.6,0.2,1.1,0.5,1.5,0.9l0.2,0.2l2.5-0.6l1.1,1.8l-1.9,1.9l0,0.2c0,0.2,0,0.5,0,0.7s0,0.5,0,0.7l0,0.2l1.9,1.9
					l-1.1,1.8l-2.5-0.6l-0.2,0.2c-0.5,0.4-1,0.7-1.5,0.9l-0.2,0.1l-0.7,2.3H13.4z"/>
				<path d="M15.2,118l0.5,1.7l0.1,0.5l0.5,0.2c0.5,0.2,1,0.5,1.4,0.8l0.4,0.3l0.5-0.1l1.9-0.5l0.7,1.1l-1.5,1.5l-0.4,0.3l0.1,0.5
					c0,0.2,0,0.4,0,0.6s0,0.4,0,0.6l-0.1,0.5l0.4,0.3l1.5,1.5l-0.7,1.1l-1.9-0.5l-0.5-0.1l-0.4,0.3c-0.4,0.3-0.9,0.6-1.4,0.8
					l-0.5,0.2l-0.1,0.5l-0.5,1.7h-1.5l-0.5-1.7l-0.1-0.5l-0.5-0.2c-0.5-0.2-1-0.5-1.4-0.8l-0.4-0.3l-0.5,0.1l-1.9,0.5l-0.7-1.1
					l1.5-1.5l0.4-0.3l-0.1-0.5c0-0.2,0-0.4,0-0.6s0-0.4,0-0.6l0.1-0.5l-0.4-0.3l-1.5-1.5l0.7-1.1l1.9,0.5l0.5,0.1l0.4-0.3
					c0.4-0.3,0.9-0.6,1.4-0.8l0.5-0.2l0.1-0.5l0.5-1.7H15.2 M16,117h-3l-0.7,2.4c-0.6,0.2-1.2,0.6-1.7,1L8,119.8l-1.5,2.4l2.1,2
					c0,0.2-0.1,0.5-0.1,0.8s0,0.5,0.1,0.8l-2.1,2l1.5,2.4l2.7-0.6c0.5,0.4,1.1,0.7,1.7,1L13,133h3l0.7-2.4c0.6-0.2,1.2-0.6,1.7-1
					l2.7,0.6l1.5-2.4l-2.1-2c0-0.2,0.1-0.5,0.1-0.8s0-0.5-0.1-0.8l2.1-2l-1.5-2.4l-2.7,0.6c-0.5-0.4-1.1-0.7-1.7-1L16,117L16,117z"
					/>
			</g>
			<g>
				<circle class="st0" cx="14.5" cy="125" r="2.5"/>
				<path d="M14.5,123c1.1,0,2,0.9,2,2s-0.9,2-2,2s-2-0.9-2-2S13.4,123,14.5,123 M14.5,122c-1.7,0-3,1.3-3,3s1.3,3,3,3s3-1.3,3-3
					S16.2,122,14.5,122L14.5,122z"/>
			</g>
		</g>
		<g>
			<g>
				<path class="st0" d="M24.4,144.5l-0.7-2.3l-0.2-0.1c-0.6-0.2-1.1-0.5-1.5-0.9l-0.2-0.2l-2.5,0.6l-1.1-1.8l1.9-1.9l0-0.2
					c0-0.2,0-0.5,0-0.7s0-0.5,0-0.7l0-0.2l-1.9-1.9l1.1-1.8l2.5,0.6l0.2-0.2c0.5-0.4,1-0.7,1.5-0.9l0.2-0.1l0.7-2.3h2.2l0.7,2.3
					l0.2,0.1c0.6,0.2,1.1,0.5,1.5,0.9l0.2,0.2l2.5-0.6l1.1,1.8l-1.9,1.9l0,0.2c0,0.2,0,0.5,0,0.7s0,0.5,0,0.7l0,0.2l1.9,1.9
					l-1.1,1.8l-2.5-0.6l-0.2,0.2c-0.5,0.4-1,0.7-1.5,0.9l-0.2,0.1l-0.7,2.3H24.4z"/>
				<path d="M26.2,130l0.5,1.7l0.1,0.5l0.5,0.2c0.5,0.2,1,0.5,1.4,0.8l0.4,0.3l0.5-0.1l1.9-0.5l0.7,1.1l-1.5,1.5l-0.4,0.3l0.1,0.5
					c0,0.2,0,0.4,0,0.6s0,0.4,0,0.6l-0.1,0.5l0.4,0.3l1.5,1.5l-0.7,1.1l-1.9-0.5l-0.5-0.1l-0.4,0.3c-0.4,0.3-0.9,0.6-1.4,0.8
					l-0.5,0.2l-0.1,0.5l-0.5,1.7h-1.5l-0.5-1.7l-0.1-0.5l-0.5-0.2c-0.5-0.2-1-0.5-1.4-0.8l-0.4-0.3l-0.5,0.1l-1.9,0.5l-0.7-1.1
					l1.5-1.5l0.4-0.3l-0.1-0.5c0-0.2,0-0.4,0-0.6s0-0.4,0-0.6l0.1-0.5l-0.4-0.3l-1.5-1.5l0.7-1.1l1.9,0.5l0.5,0.1l0.4-0.3
					c0.4-0.3,0.9-0.6,1.4-0.8l0.5-0.2l0.1-0.5l0.5-1.7H26.2 M27,129h-3l-0.7,2.4c-0.6,0.2-1.2,0.6-1.7,1l-2.7-0.6l-1.5,2.4l2.1,2
					c0,0.2-0.1,0.5-0.1,0.8s0,0.5,0.1,0.8l-2.1,2l1.5,2.4l2.7-0.6c0.5,0.4,1.1,0.7,1.7,1L24,145h3l0.7-2.4c0.6-0.2,1.2-0.6,1.7-1
					l2.7,0.6l1.5-2.4l-2.1-2c0-0.2,0.1-0.5,0.1-0.8s0-0.5-0.1-0.8l2.1-2l-1.5-2.4l-2.7,0.6c-0.5-0.4-1.1-0.7-1.7-1L27,129L27,129z"
					/>
			</g>
			<g>
				<circle class="st0" cx="25.5" cy="137" r="2.5"/>
				<path d="M25.5,135c1.1,0,2,0.9,2,2s-0.9,2-2,2s-2-0.9-2-2S24.4,135,25.5,135 M25.5,134c-1.7,0-3,1.3-3,3s1.3,3,3,3s3-1.3,3-3
					S27.2,134,25.5,134L25.5,134z"/>
			</g>
		</g>
	</g>
	<g>
		<path class="st0" d="M20.2,145.5c-8,0-14.5-6.5-14.5-14.5"/>
		<g>
			<path class="st44" d="M20.2,145.5c-7.2,0-13.2-5.3-14.3-12.2"/>
			<g>
				<polygon points="7.6,133.6 5.8,131 4.4,133.9 				"/>
			</g>
		</g>
	</g>
	<g>
		<polygon points="151.2,222.2 147,226.2 151.2,230.2 152,229.5 148.6,226.2 152,223 		"/>
		<polygon points="124.8,230.2 129,226.2 124.8,222.2 124,223 127.4,226.2 124,229.5 		"/>
		<circle cx="133" cy="226.2" r="1"/>
		<circle cx="138" cy="226.2" r="1"/>
		<circle cx="143" cy="226.2" r="1"/>
	</g>
	<g>
		<rect x="74.5" y="172.8" class="st23" width="127" height="23"/>
		<path d="M201,173.2v22H75v-22H201 M202,172.2H74v24h128V172.2L202,172.2z"/>
	</g>
	<g>
		<g>
			<line class="st44" x1="18" y1="225.4" x2="68.3" y2="225.4"/>
			<g>
				<polygon points="67.1,229.4 74,225.4 67.1,221.4 				"/>
			</g>
		</g>
	</g>
	<g>
		<g>
			<line class="st44" x1="202" y1="209" x2="252.3" y2="209"/>
			<g>
				<polygon points="251.1,213 258,209 251.1,205 				"/>
			</g>
		</g>
	</g>
	<g>
		<g>
			<line class="st46" x1="203.4" y1="241.8" x2="252.3" y2="241.8"/>
			<g>
				<polygon points="251.1,245.7 258,241.8 251.1,237.8 				"/>
			</g>
		</g>
	</g>
	<polyline class="st35" points="587,416 439,416 439,286 709,286 709,416 654,416 	"/>
	<g>
		<circle class="st41" cx="479" cy="349.2" r="27.5"/>
		<path d="M479,322.2c14.9,0,27,12.1,27,27s-12.1,27-27,27s-27-12.1-27-27S464.1,322.2,479,322.2 M479,321.2c-15.5,0-28,12.5-28,28
			s12.5,28,28,28s28-12.5,28-28S494.5,321.2,479,321.2L479,321.2z"/>
	</g>
	<g>
		<g>
			<line class="st44" x1="479" y1="381.2" x2="479" y2="384.2"/>
			<line class="st48" x1="479" y1="389.9" x2="479" y2="455.4"/>
			<polyline class="st44" points="479,458.2 479,461.2 482,461.2 			"/>
			<line class="st49" x1="488.3" y1="461.2" x2="585.1" y2="461.2"/>
			<line class="st44" x1="588.3" y1="461.2" x2="591.3" y2="461.2"/>
			<g>
				<polygon points="590.1,465.2 597,461.3 590.1,457.3 				"/>
			</g>
		</g>
	</g>
	<g>
		<g>
			<line class="st44" x1="619.6" y1="118.2" x2="619.6" y2="118.8"/>
			<line class="st51" x1="619.6" y1="122.5" x2="619.6" y2="129.1"/>
			<line class="st52" x1="619.6" y1="130" x2="619.6" y2="165.6"/>
			<line class="st44" x1="619.6" y1="166.5" x2="619.6" y2="167"/>
			<g>
				<polygon points="615.6,165.8 619.6,172.8 623.6,165.8 				"/>
			</g>
		</g>
	</g>
	<g>
		<rect x="556.5" y="56.5" class="st0" width="127" height="63"/>
		<path d="M683,57v62H557V57H683 M684,56H556v64h128V56L684,56z"/>
	</g>
	<g>
		<rect x="556.5" y="34.5" class="st39" width="127" height="23"/>
		<path d="M683,35v22H557V35H683 M684,34H556v24h128V34L684,34z"/>
	</g>
	<g>
		<path d="M634.1,72.5v22h-28v-22H634.1 M635.1,71.5h-30v24h30V71.5L635.1,71.5z"/>
	</g>
	<rect x="606.1" y="75.5" width="28" height="1"/>
	<g>
		<path d="M619.1,79.6c3.3,0,5.9,2.7,5.9,5.9s-2.7,5.9-5.9,5.9s-5.9-2.7-5.9-5.9S615.8,79.6,619.1,79.6 M619.1,78.5
			c-3.9,0-7,3.1-7,7c0,3.9,3.1,7,7,7c3.9,0,7-3.1,7-7C626.1,81.7,623,78.5,619.1,78.5L619.1,78.5z"/>
	</g>
	<g>
		<path d="M619.1,79.5c0.7,0,2,2.3,2,6s-1.3,6-2,6s-2-2.3-2-6S618.4,79.5,619.1,79.5 M619.1,78.5c-1.7,0-3,3.1-3,7c0,3.9,1.3,7,3,7
			c1.7,0,3-3.1,3-7C622.1,81.7,620.8,78.5,619.1,78.5L619.1,78.5z"/>
	</g>
	<g>
		<polygon points="625.1,85 613.1,85 613.1,86 625.1,86 625.1,85 		"/>
	</g>
	<g>
		<path d="M619.1,88.6c1.4,0,2.8,0.5,3.8,1.4c-1.1,0.9-2.4,1.4-3.8,1.4s-2.8-0.5-3.8-1.4C616.3,89.1,617.7,88.6,619.1,88.6
			 M619.1,87.5c-2.2,0-4.1,1-5.4,2.5c1.3,1.5,3.2,2.5,5.4,2.5s4.1-1,5.4-2.5C623.2,88.5,621.3,87.5,619.1,87.5L619.1,87.5z"/>
	</g>
	<g>
		<path d="M619.1,79.6c1.4,0,2.8,0.5,3.8,1.4c-1.1,0.9-2.4,1.4-3.8,1.4s-2.8-0.5-3.8-1.4C616.3,80.1,617.7,79.6,619.1,79.6
			 M619.1,78.5c-2.2,0-4.1,1-5.4,2.5c1.3,1.5,3.2,2.5,5.4,2.5s4.1-1,5.4-2.5C623.2,79.5,621.3,78.5,619.1,78.5L619.1,78.5z"/>
	</g>
	<g>
		<circle class="st0" cx="632.6" cy="74" r="0.2"/>
		<path d="M632.6,73.5c-0.3,0-0.5,0.2-0.5,0.5c0,0.3,0.2,0.5,0.5,0.5c0.3,0,0.5-0.2,0.5-0.5C633.1,73.8,632.9,73.5,632.6,73.5
			L632.6,73.5z"/>
	</g>
	<g>
		<circle class="st0" cx="630.6" cy="74" r="0.2"/>
		<path d="M630.6,73.5c-0.3,0-0.5,0.2-0.5,0.5c0,0.3,0.2,0.5,0.5,0.5c0.3,0,0.5-0.2,0.5-0.5C631.1,73.8,630.9,73.5,630.6,73.5
			L630.6,73.5z"/>
	</g>
	<g>
		<circle class="st0" cx="628.6" cy="74" r="0.2"/>
		<path d="M628.6,73.5c-0.3,0-0.5,0.2-0.5,0.5c0,0.3,0.2,0.5,0.5,0.5c0.3,0,0.5-0.2,0.5-0.5C629.1,73.8,628.9,73.5,628.6,73.5
			L628.6,73.5z"/>
	</g>
	<g>
		<rect x="556.5" y="343.2" class="st0" width="127" height="63"/>
		<path d="M683,343.8v62H557v-62H683 M684,342.8H556v64h128V342.8L684,342.8z"/>
	</g>
	<g>
		<rect x="556.5" y="320.2" class="st39" width="127" height="23"/>
		<path d="M683,320.8v22H557v-22H683 M684,319.8H556v24h128V319.8L684,319.8z"/>
	</g>
	<g>
		<polygon class="st42" points="614.9,365.5 614.9,371.5 620.1,374.5 625.4,371.5 625.4,365.5 620.1,362.5 		"/>
		<polyline class="st42" points="614.9,365.5 620.1,368.5 625.3,365.5 		"/>
		<line class="st42" x1="620.1" y1="368.5" x2="620.1" y2="374.5"/>
	</g>
	<polyline class="st42" points="616.8,370.5 611.6,373.5 611.6,379.5 	"/>
	<polyline class="st42" points="623.4,370.5 628.6,373.5 628.6,379.5 	"/>
	<g>
		<polygon class="st42" points="622.9,379.5 622.9,385.5 628.1,388.5 633.4,385.5 633.4,379.5 628.1,376.5 		"/>
		<polyline class="st42" points="622.9,379.5 628.1,382.5 633.3,379.5 		"/>
		<line class="st42" x1="628.1" y1="382.5" x2="628.1" y2="388.5"/>
	</g>
	<g>
		<polygon class="st42" points="606.9,379.5 606.9,385.5 612.1,388.5 617.4,385.5 617.4,379.5 612.1,376.5 		"/>
		<polyline class="st42" points="606.9,379.5 612.1,382.5 617.3,379.5 		"/>
		<line class="st42" x1="612.1" y1="382.5" x2="612.1" y2="388.5"/>
	</g>
	<polyline class="st43" points="614.8,384 620,387 625.3,384 	"/>
	<g>
		<ellipse class="st44" cx="620.2" cy="450.2" rx="12" ry="4"/>
		<path class="st44" d="M632.2,450v18v0.2c0,2.2-5.4,4-12,4c-6.6,0-12-1.8-12-4V468v-18"/>
		<path class="st44" d="M632.2,456.2c0,2.2-5.4,4-12,4c-6.6,0-12-1.8-12-4"/>
		<path class="st44" d="M632.2,462.2c0,2.2-5.4,4-12,4c-6.6,0-12-1.8-12-4"/>
	</g>
	<g>
		<g>
			<line class="st46" x1="598.5" y1="407.3" x2="598.5" y2="432.3"/>
			<g>
				<polygon points="594.5,431.1 598.5,438 602.5,431.1 				"/>
			</g>
		</g>
	</g>
	<g>
		<g>
			<line class="st53" x1="643.5" y1="407.3" x2="643.5" y2="432.3"/>
			<g>
				<polygon points="639.5,431.1 643.5,438 647.5,431.1 				"/>
			</g>
		</g>
	</g>
	<g>
		<g>
			<line class="st44" x1="619.6" y1="259.2" x2="619.6" y2="259.8"/>
			<line class="st54" x1="619.6" y1="264" x2="619.6" y2="271.3"/>
			<line class="st55" x1="619.6" y1="272.4" x2="619.6" y2="312.5"/>
			<line class="st44" x1="619.6" y1="313.5" x2="619.6" y2="314"/>
			<g>
				<polygon points="615.6,312.8 619.6,319.8 623.6,312.8 				"/>
			</g>
		</g>
	</g>
	<g>
		<rect x="540.5" y="196.5" class="st0" width="159" height="63"/>
		<path d="M699,197v62H541v-62H699 M700,196H540v64h160V196L700,196z"/>
	</g>
	<g>
		<g>
			<rect x="617" y="236.7" class="st0" width="6" height="1"/>
			<polygon points="623,236.7 617,236.7 617,237.7 623,237.7 623,236.7 			"/>
		</g>
		<g>
			<path d="M620,215.4c4.7,0,8.5,3.4,9,7.8l0.1,0.9h0.9h0.1c2.8,0,5,2.2,5,4.8c0,2.7-2.2,4.8-5,4.8h-20c-2.8,0-5-2.2-5-4.8
				c0-2.7,2.2-4.8,5-4.8h0.1h0.9l0.1-0.9C611.5,218.8,615.3,215.4,620,215.4 M620,214.4c-5.2,0-9.4,3.8-9.9,8.7H610
				c-3.3,0-6,2.6-6,5.8s2.7,5.8,6,5.8h20c3.3,0,6-2.6,6-5.8s-2.7-5.8-6-5.8h-0.1C629.4,218.3,625.2,214.4,620,214.4L620,214.4z"/>
		</g>
		<g>
			<path class="st0" d="M616.4,240.1c-1,0-1.9-0.8-1.9-1.9v-15.6c0-1,0.8-1.9,1.9-1.9h7.2c1,0,1.9,0.8,1.9,1.9v15.6
				c0,1-0.8,1.9-1.9,1.9H616.4z"/>
			<path d="M623.6,221.3c0.8,0,1.4,0.6,1.4,1.4v15.6c0,0.8-0.6,1.4-1.4,1.4h-7.2c-0.8,0-1.4-0.6-1.4-1.4v-15.6
				c0-0.8,0.6-1.4,1.4-1.4H623.6 M623.6,220.2h-7.2c-1.3,0-2.4,1.1-2.4,2.4v15.6c0,1.3,1.1,2.4,2.4,2.4h7.2c1.3,0,2.4-1.1,2.4-2.4
				v-15.6C626,221.3,624.9,220.2,623.6,220.2L623.6,220.2z"/>
		</g>
		<g>
			<rect x="617" y="228" class="st0" width="6" height="1"/>
			<polygon points="623,228 617,228 617,229 623,229 623,228 			"/>
		</g>
		<g>
			<rect x="617" y="230.9" class="st0" width="6" height="1"/>
			<polygon points="623,230.9 617,230.9 617,231.9 623,231.9 623,230.9 			"/>
		</g>
		<g>
			<rect x="617" y="233.8" class="st0" width="6" height="1"/>
			<polygon points="623,233.8 617,233.8 617,234.8 623,234.8 623,233.8 			"/>
		</g>
		<g>
			<ellipse class="st0" cx="622.5" cy="223.6" rx="0.2" ry="0.2"/>
			<path d="M622.5,223.2c-0.3,0-0.5,0.2-0.5,0.5s0.2,0.5,0.5,0.5s0.5-0.2,0.5-0.5S622.8,223.2,622.5,223.2L622.5,223.2z"/>
		</g>
	</g>
	<g>
		<rect x="540.6" y="173.6" class="st39" width="158.9" height="22.9"/>
		<path d="M698.9,174.1v21.8H541.1v-21.8H698.9 M700,173H540v24h160V173L700,173z"/>
	</g>
	<g>
		<path class="st27" d="M20.8,312.1l-1-0.3l-2.9,10l1,0.3L20.8,312.1z M24.4,321.4l4.4-4.4l-4.4-4.4l-0.7,0.7l3.6,3.6l-3.6,3.6
			L24.4,321.4z M14.4,320.6l-3.6-3.6l3.6-3.6l-0.7-0.7L9.3,317l4.4,4.4L14.4,320.6z"/>
	</g>
	<g>
		<g>
			<polyline class="st44" points="385.5,209 529,209 529,297 567,297 567,314.5 			"/>
			<g>
				<polygon points="563,313.3 567,320.2 571,313.3 				"/>
			</g>
		</g>
	</g>
	<g>
		<g>
			<line class="st44" x1="192" y1="173.2" x2="192" y2="172.8"/>
			<line class="st56" x1="192" y1="168.8" x2="192" y2="161.9"/>
			<line class="st57" x1="192" y1="160.9" x2="192" y2="123.2"/>
			<polyline class="st44" points="192,122.2 192,121.8 192.5,121.8 			"/>
			<line class="st58" x1="196.5" y1="121.8" x2="203.5" y2="121.8"/>
			<line class="st53" x1="204.5" y1="121.8" x2="437.5" y2="121.8"/>
			<polyline class="st44" points="438.5,121.8 439,121.8 439,121.2 			"/>
			<line class="st59" x1="439" y1="117.4" x2="439" y2="110.7"/>
			<line class="st60" x1="439" y1="109.7" x2="439" y2="48.2"/>
			<polyline class="st44" points="439,47.2 439,46.8 439.5,46.8 			"/>
			<line class="st61" x1="443.3" y1="46.8" x2="450" y2="46.8"/>
			<line class="st62" x1="450.9" y1="46.8" x2="548.8" y2="46.8"/>
			<line class="st44" x1="549.8" y1="46.8" x2="550.3" y2="46.8"/>
			<g>
				<polygon points="549.1,50.7 556,46.8 549.1,42.8 				"/>
			</g>
		</g>
	</g>
	<g>
		<g>
			<line class="st44" x1="384.5" y1="241.8" x2="387.5" y2="241.8"/>
			<line class="st63" x1="393.6" y1="241.8" x2="512" y2="241.8"/>
			<polyline class="st44" points="515,241.8 518,241.8 518,244.8 			"/>
			<line class="st64" x1="518" y1="250.9" x2="518" y2="370.7"/>
			<polyline class="st44" points="518,373.8 518,376.8 521,376.8 			"/>
			<line class="st65" x1="526.3" y1="376.8" x2="544.6" y2="376.8"/>
			<line class="st44" x1="547.3" y1="376.8" x2="550.3" y2="376.8"/>
			<g>
				<polygon points="549.1,380.7 556,376.8 549.1,372.8 				"/>
			</g>
		</g>
	</g>
	<g>
		<rect x="258.5" y="194.8" class="st0" width="127" height="65"/>
		<path d="M385,195.2v64H259v-64H385 M386,194.2H258v66h128V194.2L386,194.2z"/>
	</g>
	<rect x="306" y="208.2" class="st0" width="32" height="32"/>
	<polygon points="312.8,230.3 317,226.3 312.8,222.3 312,223 315.4,226.3 312,229.5 	"/>
	<rect x="318" y="229.2" width="6" height="1"/>
	<g>
		<path d="M336,213.2v22h-28v-22H336 M337,212.2h-30v24h30V212.2L337,212.2z"/>
	</g>
	<rect x="308" y="216.2" width="28" height="1"/>
	<g>
		<rect x="258.5" y="172.8" class="st23" width="127" height="23"/>
		<path d="M385,173.2v22H259v-22H385 M386,172.2H258v24h128V172.2L386,172.2z"/>
	</g>
	<g>
		<g>
			<line class="st44" x1="620.5" y1="407.3" x2="620.5" y2="432.3"/>
			<g>
				<polygon points="616.5,431.1 620.5,438 624.5,431.1 				"/>
			</g>
		</g>
	</g>
	<line class="st45" x1="430" y1="283" x2="430" y2="251"/>
	<polyline class="st45" points="430,111 430,25 718,25 718,508 430,508 430,309 	"/>
	<line class="st45" x1="430" y1="200" x2="430" y2="132.5"/>
</g>
<g id="text">
	<g>
		<path d="M463.8,340.2h2.4c1.1,0,2,0.2,2.5,0.5s0.8,0.9,0.8,1.6c0,0.5-0.1,0.9-0.4,1.3s-0.7,0.5-1.2,0.6v0.1c1.3,0.2,2,0.9,2,2.1
			c0,0.8-0.3,1.4-0.8,1.8s-1.2,0.6-2.2,0.6h-3V340.2z M464.8,343.9h1.6c0.7,0,1.2-0.1,1.5-0.3s0.5-0.6,0.5-1.1c0-0.5-0.2-0.8-0.5-1
			s-0.9-0.3-1.6-0.3h-1.5V343.9z M464.8,344.8v3.2h1.8c0.7,0,1.2-0.1,1.6-0.4s0.5-0.7,0.5-1.3c0-0.5-0.2-0.9-0.5-1.2
			s-0.9-0.4-1.6-0.4H464.8z"/>
		<path d="M475.4,348.8l-0.2-0.9h0c-0.3,0.4-0.6,0.7-1,0.8s-0.7,0.2-1.2,0.2c-0.6,0-1.1-0.2-1.5-0.5s-0.5-0.8-0.5-1.4
			c0-1.3,1-2,3.1-2l1.1,0v-0.4c0-0.5-0.1-0.9-0.3-1.1s-0.6-0.4-1-0.4c-0.5,0-1.1,0.2-1.8,0.5l-0.3-0.7c0.3-0.2,0.7-0.3,1-0.4
			s0.8-0.1,1.1-0.1c0.8,0,1.3,0.2,1.7,0.5s0.6,0.9,0.6,1.6v4.4H475.4z M473.2,348.1c0.6,0,1.1-0.2,1.4-0.5s0.5-0.8,0.5-1.4v-0.6
			l-1,0c-0.8,0-1.3,0.1-1.7,0.4s-0.5,0.5-0.5,1c0,0.4,0.1,0.6,0.3,0.8S472.8,348.1,473.2,348.1z"/>
		<path d="M480.2,348.1c0.2,0,0.3,0,0.5,0s0.3-0.1,0.4-0.1v0.7c-0.1,0.1-0.3,0.1-0.5,0.1s-0.4,0-0.6,0c-1.2,0-1.9-0.7-1.9-2v-3.8
			h-0.9v-0.5l0.9-0.4l0.4-1.4h0.6v1.5h1.9v0.8h-1.9v3.8c0,0.4,0.1,0.7,0.3,0.9S479.9,348.1,480.2,348.1z"/>
		<path d="M484.9,348.9c-0.9,0-1.6-0.3-2.2-0.9s-0.8-1.4-0.8-2.4c0-1.1,0.3-1.9,0.8-2.5s1.3-0.9,2.2-0.9c0.3,0,0.6,0,0.9,0.1
			s0.6,0.1,0.7,0.2l-0.3,0.8c-0.2-0.1-0.4-0.2-0.7-0.2s-0.5-0.1-0.7-0.1c-1.3,0-2,0.8-2,2.5c0,0.8,0.2,1.4,0.5,1.8s0.8,0.6,1.4,0.6
			c0.5,0,1.1-0.1,1.6-0.3v0.9C486.1,348.8,485.6,348.9,484.9,348.9z"/>
		<path d="M492.4,348.8v-4.2c0-0.5-0.1-0.9-0.4-1.2s-0.6-0.4-1.1-0.4c-0.7,0-1.2,0.2-1.5,0.6s-0.5,1-0.5,1.8v3.4h-1v-9.1h1v2.8
			c0,0.3,0,0.6,0,0.8h0.1c0.2-0.3,0.5-0.6,0.8-0.7s0.8-0.3,1.2-0.3c0.8,0,1.4,0.2,1.8,0.6s0.6,1,0.6,1.8v4.2H492.4z"/>
		<path d="M469.9,363.7c-0.4,0-0.7,0-0.9-0.1v-0.8c0.3,0.1,0.5,0.1,0.8,0.1c0.3,0,0.5-0.1,0.7-0.2s0.2-0.4,0.2-0.8v-7.5h1v7.4
			C471.7,363.1,471.1,363.7,469.9,363.7z M470.6,352.6c0-0.2,0.1-0.4,0.2-0.5s0.2-0.2,0.4-0.2c0.2,0,0.3,0.1,0.4,0.2
			s0.2,0.3,0.2,0.5s-0.1,0.4-0.2,0.5s-0.2,0.2-0.4,0.2c-0.2,0-0.3-0.1-0.4-0.2S470.6,352.9,470.6,352.6z"/>
		<path d="M479.3,357.6c0,1-0.3,1.9-0.8,2.5s-1.3,0.9-2.2,0.9c-0.6,0-1.1-0.1-1.5-0.4s-0.8-0.7-1-1.2s-0.4-1.1-0.4-1.8
			c0-1,0.3-1.9,0.8-2.4s1.2-0.9,2.2-0.9c0.9,0,1.6,0.3,2.1,0.9S479.3,356.6,479.3,357.6z M474.4,357.6c0,0.8,0.2,1.4,0.5,1.9
			s0.8,0.6,1.4,0.6s1.1-0.2,1.5-0.6s0.5-1.1,0.5-1.9c0-0.8-0.2-1.4-0.5-1.9s-0.8-0.6-1.5-0.6c-0.6,0-1.1,0.2-1.4,0.6
			S474.4,356.8,474.4,357.6z"/>
		<path d="M484,354.3c0.8,0,1.5,0.3,2,0.9s0.7,1.4,0.7,2.4s-0.2,1.9-0.7,2.5s-1.1,0.9-2,0.9c-0.4,0-0.8-0.1-1.1-0.2
			s-0.6-0.4-0.9-0.7h-0.1l-0.2,0.8H481v-9.1h1v2.2c0,0.5,0,0.9,0,1.3h0C482.4,354.6,483.1,354.3,484,354.3z M483.8,355.1
			c-0.7,0-1.1,0.2-1.4,0.6s-0.4,1-0.4,1.9s0.2,1.5,0.5,1.9s0.8,0.6,1.4,0.6c0.6,0,1-0.2,1.3-0.7s0.4-1.1,0.4-1.9
			c0-0.8-0.1-1.5-0.4-1.9S484.5,355.1,483.8,355.1z"/>
	</g>
	<g>
		<path d="M454.6,150.3c0,1.4-0.3,2.4-1,3.2s-1.7,1.2-2.9,1.2c-1.3,0-2.2-0.4-2.9-1.2s-1-1.9-1-3.3c0-1.4,0.3-2.5,1-3.2
			s1.7-1.2,2.9-1.2c1.2,0,2.2,0.4,2.9,1.2S454.6,148.9,454.6,150.3z M447.8,150.3c0,1.2,0.2,2,0.7,2.6s1.2,0.9,2.2,0.9
			c0.9,0,1.7-0.3,2.2-0.9s0.7-1.5,0.7-2.6c0-1.2-0.2-2-0.7-2.6s-1.2-0.9-2.1-0.9c-0.9,0-1.7,0.3-2.2,0.9S447.8,149.1,447.8,150.3z"
			/>
		<path d="M460.8,154.6v-4.2c0-0.5-0.1-0.9-0.4-1.2s-0.6-0.4-1.1-0.4c-0.7,0-1.2,0.2-1.5,0.5s-0.5,1-0.5,1.8v3.4h-1v-6.4h0.8
			l0.2,0.9h0c0.2-0.3,0.5-0.6,0.8-0.7s0.8-0.3,1.2-0.3c0.8,0,1.4,0.2,1.7,0.6s0.6,1,0.6,1.8v4.2H460.8z"/>
		<path d="M467,146l-3.2,8.6h-1l3.2-8.6H467z"/>
		<path d="M475.7,150.3c0,1.4-0.3,2.4-1,3.2s-1.7,1.2-2.9,1.2c-1.3,0-2.2-0.4-2.9-1.2s-1-1.9-1-3.3c0-1.4,0.3-2.5,1-3.2
			s1.7-1.2,2.9-1.2c1.2,0,2.2,0.4,2.9,1.2S475.7,148.9,475.7,150.3z M468.9,150.3c0,1.2,0.2,2,0.7,2.6s1.2,0.9,2.2,0.9
			c0.9,0,1.7-0.3,2.2-0.9s0.7-1.5,0.7-2.6c0-1.2-0.2-2-0.7-2.6s-1.2-0.9-2.1-0.9c-0.9,0-1.7,0.3-2.2,0.9S468.9,149.1,468.9,150.3z"
			/>
		<path d="M480.4,148.9h-1.6v5.7h-1v-5.7h-1.1v-0.4l1.1-0.4v-0.4c0-1.6,0.7-2.4,2.1-2.4c0.3,0,0.7,0.1,1.2,0.2l-0.3,0.8
			c-0.4-0.1-0.7-0.2-1-0.2c-0.4,0-0.6,0.1-0.8,0.4s-0.3,0.6-0.3,1.2v0.4h1.6V148.9z M484.5,148.9h-1.6v5.7h-1v-5.7h-1.1v-0.4
			l1.1-0.4v-0.4c0-1.6,0.7-2.4,2.1-2.4c0.3,0,0.7,0.1,1.2,0.2l-0.3,0.8c-0.4-0.1-0.7-0.2-1-0.2c-0.4,0-0.6,0.1-0.8,0.4
			s-0.3,0.6-0.3,1.2v0.4h1.6V148.9z"/>
		<path d="M491.7,154.7c-0.4,0-0.8-0.1-1.1-0.2s-0.6-0.4-0.9-0.7h-0.1c0,0.4,0.1,0.7,0.1,1.1v2.6h-1v-9.3h0.8l0.1,0.9h0
			c0.2-0.4,0.5-0.6,0.9-0.8s0.7-0.2,1.1-0.2c0.9,0,1.5,0.3,2,0.9s0.7,1.4,0.7,2.4c0,1.1-0.2,1.9-0.7,2.5S492.6,154.7,491.7,154.7z
			 M491.6,148.8c-0.7,0-1.1,0.2-1.4,0.5s-0.4,0.9-0.5,1.7v0.2c0,0.9,0.2,1.5,0.5,1.9s0.8,0.6,1.4,0.6c0.6,0,1-0.2,1.3-0.7
			s0.5-1.1,0.5-1.9c0-0.8-0.2-1.4-0.5-1.8S492.2,148.8,491.6,148.8z"/>
		<path d="M499,148c0.3,0,0.5,0,0.8,0.1l-0.1,0.9c-0.3-0.1-0.5-0.1-0.7-0.1c-0.5,0-1,0.2-1.3,0.6s-0.6,0.9-0.6,1.6v3.4h-1v-6.4h0.8
			l0.1,1.2h0c0.2-0.4,0.5-0.7,0.9-1S498.6,148,499,148z"/>
		<path d="M503.7,154.7c-0.9,0-1.7-0.3-2.2-0.9s-0.8-1.4-0.8-2.4c0-1,0.3-1.9,0.8-2.5s1.2-0.9,2.1-0.9c0.8,0,1.4,0.3,1.9,0.8
			s0.7,1.2,0.7,2.1v0.6h-4.4c0,0.8,0.2,1.3,0.6,1.7s0.9,0.6,1.5,0.6c0.7,0,1.4-0.1,2.1-0.4v0.9c-0.3,0.1-0.7,0.3-1,0.3
			S504.1,154.7,503.7,154.7z M503.5,148.8c-0.5,0-0.9,0.2-1.2,0.5s-0.5,0.8-0.5,1.4h3.4c0-0.6-0.1-1.1-0.4-1.4
			S504,148.8,503.5,148.8z"/>
		<path d="M515.9,154.6v-4.2c0-0.5-0.1-0.9-0.3-1.2s-0.6-0.4-1-0.4c-0.6,0-1.1,0.2-1.3,0.5s-0.4,0.9-0.4,1.6v3.6h-1v-4.2
			c0-0.5-0.1-0.9-0.3-1.2s-0.6-0.4-1-0.4c-0.6,0-1.1,0.2-1.3,0.5s-0.4,1-0.4,1.8v3.4h-1v-6.4h0.8l0.2,0.9h0c0.2-0.3,0.4-0.6,0.8-0.7
			s0.7-0.3,1.1-0.3c1,0,1.7,0.4,2,1.1h0c0.2-0.3,0.5-0.6,0.8-0.8s0.8-0.3,1.2-0.3c0.7,0,1.3,0.2,1.6,0.6s0.5,1,0.5,1.8v4.2H515.9z"
			/>
		<path d="M518.8,146.4c0-0.2,0.1-0.4,0.2-0.5s0.2-0.2,0.4-0.2c0.2,0,0.3,0.1,0.4,0.2s0.2,0.3,0.2,0.5s-0.1,0.4-0.2,0.5
			s-0.2,0.2-0.4,0.2c-0.2,0-0.3-0.1-0.4-0.2S518.8,146.6,518.8,146.4z M519.9,154.6h-1v-6.4h1V154.6z"/>
		<path d="M526.1,152.8c0,0.6-0.2,1.1-0.7,1.4s-1.1,0.5-1.9,0.5c-0.9,0-1.5-0.1-2-0.4v-0.9c0.3,0.2,0.6,0.3,1,0.4s0.7,0.1,1,0.1
			c0.5,0,0.9-0.1,1.2-0.2s0.4-0.4,0.4-0.7c0-0.2-0.1-0.5-0.3-0.6s-0.6-0.4-1.3-0.6c-0.6-0.2-1-0.4-1.3-0.6s-0.4-0.4-0.6-0.6
			s-0.2-0.5-0.2-0.8c0-0.5,0.2-0.9,0.6-1.2s1-0.5,1.8-0.5c0.7,0,1.4,0.1,2,0.4l-0.3,0.8c-0.6-0.3-1.2-0.4-1.8-0.4
			c-0.5,0-0.8,0.1-1,0.2s-0.4,0.3-0.4,0.6c0,0.2,0,0.3,0.1,0.4s0.2,0.2,0.4,0.3s0.6,0.3,1.1,0.5c0.8,0.3,1.3,0.6,1.5,0.8
			S526.1,152.4,526.1,152.8z"/>
		<path d="M530.4,154.7c-0.9,0-1.7-0.3-2.2-0.9s-0.8-1.4-0.8-2.4c0-1,0.3-1.9,0.8-2.5s1.2-0.9,2.1-0.9c0.8,0,1.4,0.3,1.9,0.8
			s0.7,1.2,0.7,2.1v0.6h-4.4c0,0.8,0.2,1.3,0.6,1.7s0.9,0.6,1.5,0.6c0.7,0,1.4-0.1,2.1-0.4v0.9c-0.3,0.1-0.7,0.3-1,0.3
			S530.8,154.7,530.4,154.7z M530.1,148.8c-0.5,0-0.9,0.2-1.2,0.5s-0.5,0.8-0.5,1.4h3.4c0-0.6-0.1-1.1-0.4-1.4
			S530.6,148.8,530.1,148.8z"/>
		<path d="M540.1,154.7c-0.9,0-1.6-0.3-2.2-0.9s-0.8-1.4-0.8-2.4c0-1.1,0.3-1.9,0.8-2.5s1.3-0.9,2.2-0.9c0.3,0,0.6,0,0.9,0.1
			s0.6,0.1,0.7,0.2l-0.3,0.8c-0.2-0.1-0.4-0.2-0.7-0.2s-0.5-0.1-0.7-0.1c-1.3,0-2,0.8-2,2.5c0,0.8,0.2,1.4,0.5,1.8s0.8,0.6,1.4,0.6
			c0.5,0,1.1-0.1,1.6-0.3v0.9C541.3,154.6,540.7,154.7,540.1,154.7z"/>
		<path d="M544.2,154.6h-1v-9.1h1V154.6z"/>
		<path d="M551.8,151.3c0,1-0.3,1.9-0.8,2.5s-1.3,0.9-2.2,0.9c-0.6,0-1.1-0.1-1.5-0.4s-0.8-0.7-1-1.2s-0.4-1.1-0.4-1.8
			c0-1,0.3-1.9,0.8-2.4s1.2-0.9,2.2-0.9c0.9,0,1.6,0.3,2.1,0.9S551.8,150.3,551.8,151.3z M546.9,151.3c0,0.8,0.2,1.4,0.5,1.9
			s0.8,0.6,1.4,0.6s1.1-0.2,1.5-0.6s0.5-1.1,0.5-1.9c0-0.8-0.2-1.4-0.5-1.9s-0.8-0.6-1.5-0.6c-0.6,0-1.1,0.2-1.4,0.6
			S546.9,150.5,546.9,151.3z"/>
		<path d="M554.4,148.1v4.2c0,0.5,0.1,0.9,0.4,1.2s0.6,0.4,1.1,0.4c0.7,0,1.2-0.2,1.5-0.6s0.5-1,0.5-1.8v-3.4h1v6.4H558l-0.1-0.9
			h-0.1c-0.2,0.3-0.5,0.6-0.8,0.7s-0.8,0.3-1.2,0.3c-0.8,0-1.4-0.2-1.8-0.6s-0.6-1-0.6-1.8v-4.2H554.4z"/>
		<path d="M565.2,153.7L565.2,153.7c-0.5,0.7-1.2,1-2.1,1c-0.8,0-1.5-0.3-2-0.9s-0.7-1.4-0.7-2.4s0.2-1.9,0.7-2.5s1.1-0.9,2-0.9
			c0.9,0,1.5,0.3,2,0.9h0.1l0-0.5l0-0.5v-2.6h1v9.1h-0.8L565.2,153.7z M563.3,153.9c0.7,0,1.1-0.2,1.4-0.5s0.4-0.9,0.4-1.7v-0.2
			c0-0.9-0.2-1.6-0.5-1.9s-0.8-0.6-1.5-0.6c-0.6,0-1,0.2-1.3,0.7s-0.5,1.1-0.5,1.9c0,0.8,0.2,1.4,0.5,1.9S562.7,153.9,563.3,153.9z"
			/>
	</g>
	<g>
		<path d="M452.6,16.6l-1.1-2.7h-3.4l-1.1,2.7h-1l3.4-8.6h0.8l3.4,8.6H452.6z M451.2,12.9l-1-2.7c-0.1-0.3-0.3-0.7-0.4-1.2
			c-0.1,0.4-0.2,0.8-0.4,1.2l-1,2.7H451.2z"/>
		<path d="M457.6,16.7c-0.4,0-0.8-0.1-1.1-0.2s-0.6-0.4-0.9-0.7h-0.1c0,0.4,0.1,0.7,0.1,1.1v2.6h-1v-9.3h0.8l0.1,0.9h0
			c0.2-0.4,0.5-0.6,0.9-0.8s0.7-0.2,1.1-0.2c0.9,0,1.5,0.3,2,0.9s0.7,1.4,0.7,2.4c0,1.1-0.2,1.9-0.7,2.5S458.4,16.7,457.6,16.7z
			 M457.5,10.8c-0.7,0-1.1,0.2-1.4,0.5s-0.4,0.9-0.5,1.7v0.2c0,0.9,0.2,1.5,0.5,1.9s0.8,0.6,1.4,0.6c0.6,0,1-0.2,1.3-0.7
			s0.5-1.1,0.5-1.9c0-0.8-0.2-1.4-0.5-1.8S458,10.8,457.5,10.8z"/>
		<path d="M465,16.7c-0.4,0-0.8-0.1-1.1-0.2s-0.6-0.4-0.9-0.7h-0.1c0,0.4,0.1,0.7,0.1,1.1v2.6h-1v-9.3h0.8l0.1,0.9h0
			c0.2-0.4,0.5-0.6,0.9-0.8s0.7-0.2,1.1-0.2c0.9,0,1.5,0.3,2,0.9s0.7,1.4,0.7,2.4c0,1.1-0.2,1.9-0.7,2.5S465.8,16.7,465,16.7z
			 M464.8,10.8c-0.7,0-1.1,0.2-1.4,0.5s-0.4,0.9-0.5,1.7v0.2c0,0.9,0.2,1.5,0.5,1.9s0.8,0.6,1.4,0.6c0.6,0,1-0.2,1.3-0.7
			s0.5-1.1,0.5-1.9c0-0.8-0.2-1.4-0.5-1.8S465.4,10.8,464.8,10.8z"/>
		<path d="M470.3,16.6h-1V7.4h1V16.6z"/>
		<path d="M472.3,8.4c0-0.2,0.1-0.4,0.2-0.5s0.2-0.2,0.4-0.2c0.2,0,0.3,0.1,0.4,0.2s0.2,0.3,0.2,0.5s-0.1,0.4-0.2,0.5S473,9,472.9,9
			c-0.2,0-0.3-0.1-0.4-0.2S472.3,8.6,472.3,8.4z M473.3,16.6h-1v-6.4h1V16.6z"/>
		<path d="M478,16.7c-0.9,0-1.6-0.3-2.2-0.9s-0.8-1.4-0.8-2.4c0-1.1,0.3-1.9,0.8-2.5s1.3-0.9,2.2-0.9c0.3,0,0.6,0,0.9,0.1
			s0.6,0.1,0.7,0.2l-0.3,0.8c-0.2-0.1-0.4-0.2-0.7-0.2s-0.5-0.1-0.7-0.1c-1.3,0-2,0.8-2,2.5c0,0.8,0.2,1.4,0.5,1.8s0.8,0.6,1.4,0.6
			c0.5,0,1.1-0.1,1.6-0.3v0.9C479.2,16.6,478.6,16.7,478,16.7z"/>
		<path d="M485.1,16.6l-0.2-0.9h0c-0.3,0.4-0.6,0.7-1,0.8s-0.7,0.2-1.2,0.2c-0.6,0-1.1-0.2-1.5-0.5s-0.5-0.8-0.5-1.4
			c0-1.3,1-2,3.1-2l1.1,0v-0.4c0-0.5-0.1-0.9-0.3-1.1s-0.6-0.4-1-0.4c-0.5,0-1.1,0.2-1.8,0.5l-0.3-0.7c0.3-0.2,0.7-0.3,1-0.4
			s0.8-0.1,1.1-0.1c0.8,0,1.3,0.2,1.7,0.5s0.6,0.9,0.6,1.6v4.4H485.1z M482.9,15.9c0.6,0,1.1-0.2,1.4-0.5s0.5-0.8,0.5-1.4v-0.6l-1,0
			c-0.8,0-1.3,0.1-1.7,0.4s-0.5,0.5-0.5,1c0,0.4,0.1,0.6,0.3,0.8S482.5,15.9,482.9,15.9z"/>
		<path d="M489.9,15.9c0.2,0,0.3,0,0.5,0s0.3-0.1,0.4-0.1v0.7c-0.1,0.1-0.3,0.1-0.5,0.1s-0.4,0-0.6,0c-1.2,0-1.9-0.7-1.9-2v-3.8
			h-0.9v-0.5l0.9-0.4l0.4-1.4h0.6v1.5h1.9v0.8h-1.9v3.8c0,0.4,0.1,0.7,0.3,0.9S489.5,15.9,489.9,15.9z"/>
		<path d="M491.9,8.4c0-0.2,0.1-0.4,0.2-0.5s0.2-0.2,0.4-0.2c0.2,0,0.3,0.1,0.4,0.2s0.2,0.3,0.2,0.5s-0.1,0.4-0.2,0.5
			S492.7,9,492.5,9c-0.2,0-0.3-0.1-0.4-0.2S491.9,8.6,491.9,8.4z M493,16.6h-1v-6.4h1V16.6z"/>
		<path d="M500.6,13.3c0,1-0.3,1.9-0.8,2.5s-1.3,0.9-2.2,0.9c-0.6,0-1.1-0.1-1.5-0.4s-0.8-0.7-1-1.2s-0.4-1.1-0.4-1.8
			c0-1,0.3-1.9,0.8-2.4s1.2-0.9,2.2-0.9c0.9,0,1.6,0.3,2.1,0.9S500.6,12.3,500.6,13.3z M495.7,13.3c0,0.8,0.2,1.4,0.5,1.9
			s0.8,0.6,1.4,0.6s1.1-0.2,1.5-0.6s0.5-1.1,0.5-1.9c0-0.8-0.2-1.4-0.5-1.9s-0.8-0.6-1.5-0.6c-0.6,0-1.1,0.2-1.4,0.6
			S495.7,12.5,495.7,13.3z"/>
		<path d="M506.7,16.6v-4.2c0-0.5-0.1-0.9-0.4-1.2s-0.6-0.4-1.1-0.4c-0.7,0-1.2,0.2-1.5,0.5s-0.5,1-0.5,1.8v3.4h-1v-6.4h0.8l0.2,0.9
			h0c0.2-0.3,0.5-0.6,0.8-0.7s0.8-0.3,1.2-0.3c0.8,0,1.4,0.2,1.7,0.6s0.6,1,0.6,1.8v4.2H506.7z"/>
	</g>
	<g>
		<path d="M451.1,302.1h-4.7v-0.7l3.5-5h-3.3v-0.8h4.4v0.8l-3.5,4.9h3.5V302.1z"/>
		<path d="M455.9,293.5l-3.2,8.6h-1l3.2-8.6H455.9z"/>
		<path d="M464.6,297.8c0,1.4-0.3,2.4-1,3.2s-1.7,1.2-2.9,1.2c-1.3,0-2.2-0.4-2.9-1.2s-1-1.9-1-3.3c0-1.4,0.3-2.5,1-3.2
			s1.7-1.2,2.9-1.2c1.2,0,2.2,0.4,2.9,1.2S464.6,296.4,464.6,297.8z M457.8,297.8c0,1.2,0.2,2,0.7,2.6s1.2,0.9,2.2,0.9
			c0.9,0,1.7-0.3,2.2-0.9s0.7-1.5,0.7-2.6c0-1.2-0.2-2-0.7-2.6s-1.2-0.9-2.1-0.9c-0.9,0-1.7,0.3-2.2,0.9S457.8,296.6,457.8,297.8z"
			/>
		<path d="M471.4,299.8c0,0.8-0.3,1.3-0.8,1.8s-1.3,0.6-2.2,0.6c-1,0-1.8-0.1-2.3-0.4v-1c0.4,0.1,0.7,0.3,1.1,0.4s0.8,0.1,1.2,0.1
			c0.7,0,1.2-0.1,1.5-0.4s0.5-0.6,0.5-1.1c0-0.3-0.1-0.5-0.2-0.7s-0.3-0.4-0.6-0.5s-0.7-0.3-1.3-0.5c-0.8-0.3-1.4-0.6-1.7-1
			s-0.5-0.9-0.5-1.5c0-0.7,0.2-1.2,0.7-1.6s1.2-0.6,2-0.6c0.9,0,1.6,0.2,2.3,0.5l-0.3,0.9c-0.7-0.3-1.4-0.4-2.1-0.4
			c-0.5,0-0.9,0.1-1.2,0.3s-0.4,0.5-0.4,0.9c0,0.3,0.1,0.5,0.2,0.7s0.3,0.4,0.6,0.5s0.7,0.3,1.2,0.5c0.9,0.3,1.5,0.7,1.9,1
			S471.4,299.2,471.4,299.8z"/>
		<path d="M476.2,302.1v-8.6h1v7.7h3.8v0.9H476.2z"/>
		<path d="M487.9,296c0,0.9-0.3,1.5-0.9,2s-1.4,0.7-2.5,0.7h-1v3.4h-1v-8.6h2.2C486.8,293.5,487.9,294.3,487.9,296z M483.5,297.8
			h0.9c0.9,0,1.5-0.1,1.9-0.4s0.6-0.7,0.6-1.4c0-0.6-0.2-1-0.6-1.3s-0.9-0.4-1.7-0.4h-1.1V297.8z"/>
		<path d="M495.1,302.1l-1.1-2.7h-3.4l-1.1,2.7h-1l3.4-8.6h0.8l3.4,8.6H495.1z M493.7,298.4l-1-2.7c-0.1-0.3-0.3-0.7-0.4-1.2
			c-0.1,0.4-0.2,0.8-0.4,1.2l-1,2.7H493.7z"/>
		<path d="M498.3,298.5v3.6h-1v-8.6h2.3c1.1,0,1.8,0.2,2.3,0.6s0.8,1,0.8,1.8c0,1.1-0.6,1.9-1.7,2.3l2.3,3.8h-1.2l-2.1-3.6H498.3z
			 M498.3,297.6h1.4c0.7,0,1.2-0.1,1.5-0.4s0.5-0.7,0.5-1.3c0-0.6-0.2-1-0.5-1.2s-0.9-0.4-1.6-0.4h-1.3V297.6z"/>
	</g>
	<g>
		<path d="M572.7,50.6h-1l-1.7-5.7c-0.1-0.3-0.2-0.6-0.3-1s-0.2-0.6-0.2-0.7c-0.1,0.5-0.2,1.1-0.4,1.7l-1.7,5.7h-1l-2.3-8.6h1.1
			l1.4,5.3c0.2,0.7,0.3,1.4,0.4,2c0.1-0.7,0.3-1.4,0.5-2.1L569,42h1.1l1.6,5.3c0.2,0.6,0.3,1.3,0.5,2.1c0.1-0.6,0.2-1.2,0.4-2
			l1.3-5.3h1.1L572.7,50.6z"/>
		<path d="M578.9,50.7c-0.9,0-1.7-0.3-2.2-0.9s-0.8-1.4-0.8-2.4c0-1,0.3-1.9,0.8-2.5s1.2-0.9,2.1-0.9c0.8,0,1.4,0.3,1.9,0.8
			s0.7,1.2,0.7,2.1v0.6h-4.4c0,0.8,0.2,1.3,0.6,1.7s0.9,0.6,1.5,0.6c0.7,0,1.4-0.1,2.1-0.4v0.9c-0.3,0.1-0.7,0.3-1,0.3
			S579.3,50.7,578.9,50.7z M578.6,44.8c-0.5,0-0.9,0.2-1.2,0.5s-0.5,0.8-0.5,1.4h3.4c0-0.6-0.1-1.1-0.4-1.4S579.1,44.8,578.6,44.8z"
			/>
		<path d="M585.9,44c0.8,0,1.5,0.3,2,0.9s0.7,1.4,0.7,2.4s-0.2,1.9-0.7,2.5s-1.1,0.9-2,0.9c-0.4,0-0.8-0.1-1.1-0.2s-0.6-0.4-0.9-0.7
			h-0.1l-0.2,0.8h-0.7v-9.1h1v2.2c0,0.5,0,0.9,0,1.3h0C584.3,44.4,585,44,585.9,44z M585.7,44.8c-0.7,0-1.1,0.2-1.4,0.6
			s-0.4,1-0.4,1.9s0.2,1.5,0.5,1.9s0.8,0.6,1.4,0.6c0.6,0,1-0.2,1.3-0.7s0.4-1.1,0.4-1.9c0-0.8-0.1-1.5-0.4-1.9
			S586.3,44.8,585.7,44.8z"/>
		<path d="M596.3,44c0.8,0,1.5,0.3,2,0.9s0.7,1.4,0.7,2.4s-0.2,1.9-0.7,2.5s-1.1,0.9-2,0.9c-0.4,0-0.8-0.1-1.1-0.2s-0.6-0.4-0.9-0.7
			h-0.1l-0.2,0.8h-0.7v-9.1h1v2.2c0,0.5,0,0.9,0,1.3h0C594.8,44.4,595.4,44,596.3,44z M596.2,44.8c-0.7,0-1.1,0.2-1.4,0.6
			s-0.4,1-0.4,1.9s0.2,1.5,0.5,1.9s0.8,0.6,1.4,0.6c0.6,0,1-0.2,1.3-0.7s0.4-1.1,0.4-1.9c0-0.8-0.1-1.5-0.4-1.9
			S596.8,44.8,596.2,44.8z"/>
		<path d="M603.6,44c0.3,0,0.5,0,0.8,0.1l-0.1,0.9c-0.3-0.1-0.5-0.1-0.7-0.1c-0.5,0-1,0.2-1.3,0.6s-0.6,0.9-0.6,1.6v3.4h-1v-6.4h0.8
			l0.1,1.2h0c0.2-0.4,0.5-0.7,0.9-1S603.2,44,603.6,44z"/>
		<path d="M611.1,47.3c0,1-0.3,1.9-0.8,2.5s-1.3,0.9-2.2,0.9c-0.6,0-1.1-0.1-1.5-0.4s-0.8-0.7-1-1.2s-0.4-1.1-0.4-1.8
			c0-1,0.3-1.9,0.8-2.4s1.2-0.9,2.2-0.9c0.9,0,1.6,0.3,2.1,0.9S611.1,46.3,611.1,47.3z M606.2,47.3c0,0.8,0.2,1.4,0.5,1.9
			s0.8,0.6,1.4,0.6s1.1-0.2,1.5-0.6s0.5-1.1,0.5-1.9c0-0.8-0.2-1.4-0.5-1.9s-0.8-0.6-1.5-0.6c-0.6,0-1.1,0.2-1.4,0.6
			S606.2,46.5,606.2,47.3z"/>
		<path d="M618.1,50.6l-1.2-3.8c-0.1-0.2-0.2-0.8-0.4-1.6h0c-0.2,0.7-0.3,1.2-0.4,1.6l-1.2,3.8h-1.1l-1.8-6.4h1
			c0.4,1.6,0.7,2.8,0.9,3.7s0.3,1.4,0.4,1.7h0c0-0.2,0.1-0.5,0.2-0.9s0.2-0.6,0.2-0.8l1.2-3.7h1.1l1.1,3.7c0.2,0.7,0.4,1.2,0.4,1.7
			h0c0-0.1,0.1-0.4,0.1-0.7s0.5-1.9,1.2-4.7h1l-1.8,6.4H618.1z"/>
		<path d="M626.3,48.8c0,0.6-0.2,1.1-0.7,1.4s-1.1,0.5-1.9,0.5c-0.9,0-1.5-0.1-2-0.4v-0.9c0.3,0.2,0.6,0.3,1,0.4s0.7,0.1,1,0.1
			c0.5,0,0.9-0.1,1.2-0.2s0.4-0.4,0.4-0.7c0-0.2-0.1-0.5-0.3-0.6s-0.6-0.4-1.3-0.6c-0.6-0.2-1-0.4-1.3-0.6s-0.4-0.4-0.6-0.6
			s-0.2-0.5-0.2-0.8c0-0.5,0.2-0.9,0.6-1.2s1-0.5,1.8-0.5c0.7,0,1.4,0.1,2,0.4l-0.3,0.8c-0.6-0.3-1.2-0.4-1.8-0.4
			c-0.5,0-0.8,0.1-1,0.2s-0.4,0.3-0.4,0.6c0,0.2,0,0.3,0.1,0.4s0.2,0.2,0.4,0.3s0.6,0.3,1.1,0.5c0.8,0.3,1.3,0.6,1.5,0.8
			S626.3,48.4,626.3,48.8z"/>
		<path d="M630.6,50.7c-0.9,0-1.7-0.3-2.2-0.9s-0.8-1.4-0.8-2.4c0-1,0.3-1.9,0.8-2.5s1.2-0.9,2.1-0.9c0.8,0,1.4,0.3,1.9,0.8
			s0.7,1.2,0.7,2.1v0.6h-4.4c0,0.8,0.2,1.3,0.6,1.7s0.9,0.6,1.5,0.6c0.7,0,1.4-0.1,2.1-0.4v0.9c-0.3,0.1-0.7,0.3-1,0.3
			S631,50.7,630.6,50.7z M630.4,44.8c-0.5,0-0.9,0.2-1.2,0.5s-0.5,0.8-0.5,1.4h3.4c0-0.6-0.1-1.1-0.4-1.4S630.9,44.8,630.4,44.8z"/>
		<path d="M637.6,44c0.3,0,0.5,0,0.8,0.1l-0.1,0.9c-0.3-0.1-0.5-0.1-0.7-0.1c-0.5,0-1,0.2-1.3,0.6s-0.6,0.9-0.6,1.6v3.4h-1v-6.4h0.8
			l0.1,1.2h0c0.2-0.4,0.5-0.7,0.9-1S637.2,44,637.6,44z"/>
	</g>
	<g>
		<path d="M568.8,328.5c-0.9,0-1.7,0.3-2.2,0.9s-0.8,1.5-0.8,2.6c0,1.1,0.3,2,0.8,2.6s1.3,0.9,2.2,0.9c0.6,0,1.3-0.1,2-0.3v0.9
			c-0.6,0.2-1.3,0.3-2.2,0.3c-1.3,0-2.2-0.4-2.9-1.1s-1-1.9-1-3.3c0-0.9,0.2-1.7,0.5-2.3s0.8-1.2,1.4-1.5s1.4-0.5,2.2-0.5
			c0.9,0,1.7,0.2,2.4,0.5l-0.4,0.9C570.1,328.7,569.5,328.5,568.8,328.5z"/>
		<path d="M572.7,336.3v-8.6h1v8.6H572.7z"/>
		<path d="M579.8,328.5c-0.9,0-1.7,0.3-2.2,0.9s-0.8,1.5-0.8,2.6c0,1.1,0.3,2,0.8,2.6s1.3,0.9,2.2,0.9c0.6,0,1.3-0.1,2-0.3v0.9
			c-0.6,0.2-1.3,0.3-2.2,0.3c-1.3,0-2.2-0.4-2.9-1.1s-1-1.9-1-3.3c0-0.9,0.2-1.7,0.5-2.3s0.8-1.2,1.4-1.5s1.4-0.5,2.2-0.5
			c0.9,0,1.7,0.2,2.4,0.5l-0.4,0.9C581.1,328.7,580.4,328.5,579.8,328.5z"/>
		<path d="M588.5,334c0,0.8-0.3,1.3-0.8,1.8s-1.3,0.6-2.2,0.6c-1,0-1.8-0.1-2.3-0.4v-1c0.4,0.1,0.7,0.3,1.1,0.4s0.8,0.1,1.2,0.1
			c0.7,0,1.2-0.1,1.5-0.4s0.5-0.6,0.5-1.1c0-0.3-0.1-0.5-0.2-0.7s-0.3-0.4-0.6-0.5s-0.7-0.3-1.3-0.5c-0.8-0.3-1.4-0.6-1.7-1
			s-0.5-0.9-0.5-1.5c0-0.7,0.2-1.2,0.7-1.6s1.2-0.6,2-0.6c0.9,0,1.6,0.2,2.3,0.5L588,329c-0.7-0.3-1.4-0.4-2.1-0.4
			c-0.5,0-0.9,0.1-1.2,0.3s-0.4,0.5-0.4,0.9c0,0.3,0.1,0.5,0.2,0.7s0.3,0.4,0.6,0.5s0.7,0.3,1.2,0.5c0.9,0.3,1.5,0.7,1.9,1
			S588.5,333.4,588.5,334z"/>
		<path d="M597.2,336.3l-0.2-0.9h0c-0.3,0.4-0.6,0.7-1,0.8s-0.7,0.2-1.2,0.2c-0.6,0-1.1-0.2-1.5-0.5s-0.5-0.8-0.5-1.4
			c0-1.3,1-2,3.1-2l1.1,0v-0.4c0-0.5-0.1-0.9-0.3-1.1s-0.6-0.4-1-0.4c-0.5,0-1.1,0.2-1.8,0.5l-0.3-0.7c0.3-0.2,0.7-0.3,1-0.4
			s0.8-0.1,1.1-0.1c0.8,0,1.3,0.2,1.7,0.5s0.6,0.9,0.6,1.6v4.4H597.2z M595,335.6c0.6,0,1.1-0.2,1.4-0.5s0.5-0.8,0.5-1.4v-0.6l-1,0
			c-0.8,0-1.3,0.1-1.7,0.4s-0.5,0.5-0.5,1c0,0.4,0.1,0.6,0.3,0.8S594.6,335.6,595,335.6z"/>
		<path d="M602.9,336.4c-0.4,0-0.8-0.1-1.1-0.2s-0.6-0.4-0.9-0.7h-0.1c0,0.4,0.1,0.7,0.1,1.1v2.6h-1v-9.3h0.8l0.1,0.9h0
			c0.2-0.4,0.5-0.6,0.9-0.8s0.7-0.2,1.1-0.2c0.9,0,1.5,0.3,2,0.9s0.7,1.4,0.7,2.4c0,1.1-0.2,1.9-0.7,2.5S603.7,336.4,602.9,336.4z
			 M602.7,330.6c-0.7,0-1.1,0.2-1.4,0.5s-0.4,0.9-0.5,1.7v0.2c0,0.9,0.2,1.5,0.5,1.9s0.8,0.6,1.4,0.6c0.6,0,1-0.2,1.3-0.7
			s0.5-1.1,0.5-1.9c0-0.8-0.2-1.4-0.5-1.8S603.3,330.6,602.7,330.6z"/>
		<path d="M610.2,336.4c-0.4,0-0.8-0.1-1.1-0.2s-0.6-0.4-0.9-0.7h-0.1c0,0.4,0.1,0.7,0.1,1.1v2.6h-1v-9.3h0.8l0.1,0.9h0
			c0.2-0.4,0.5-0.6,0.9-0.8s0.7-0.2,1.1-0.2c0.9,0,1.5,0.3,2,0.9s0.7,1.4,0.7,2.4c0,1.1-0.2,1.9-0.7,2.5S611.1,336.4,610.2,336.4z
			 M610.1,330.6c-0.7,0-1.1,0.2-1.4,0.5s-0.4,0.9-0.5,1.7v0.2c0,0.9,0.2,1.5,0.5,1.9s0.8,0.6,1.4,0.6c0.6,0,1-0.2,1.3-0.7
			s0.5-1.1,0.5-1.9c0-0.8-0.2-1.4-0.5-1.8S610.7,330.6,610.1,330.6z"/>
		<path d="M615.6,336.3h-1v-9.1h1V336.3z"/>
		<path d="M617.6,328.1c0-0.2,0.1-0.4,0.2-0.5s0.2-0.2,0.4-0.2c0.2,0,0.3,0.1,0.4,0.2s0.2,0.3,0.2,0.5s-0.1,0.4-0.2,0.5
			s-0.2,0.2-0.4,0.2c-0.2,0-0.3-0.1-0.4-0.2S617.6,328.4,617.6,328.1z M618.6,336.3h-1v-6.4h1V336.3z"/>
		<path d="M623.2,336.4c-0.9,0-1.6-0.3-2.2-0.9s-0.8-1.4-0.8-2.4c0-1.1,0.3-1.9,0.8-2.5s1.3-0.9,2.2-0.9c0.3,0,0.6,0,0.9,0.1
			s0.6,0.1,0.7,0.2l-0.3,0.8c-0.2-0.1-0.4-0.2-0.7-0.2s-0.5-0.1-0.7-0.1c-1.3,0-2,0.8-2,2.5c0,0.8,0.2,1.4,0.5,1.8s0.8,0.6,1.4,0.6
			c0.5,0,1.1-0.1,1.6-0.3v0.9C624.4,336.3,623.9,336.4,623.2,336.4z"/>
		<path d="M630.3,336.3l-0.2-0.9h0c-0.3,0.4-0.6,0.7-1,0.8s-0.7,0.2-1.2,0.2c-0.6,0-1.1-0.2-1.5-0.5s-0.5-0.8-0.5-1.4
			c0-1.3,1-2,3.1-2l1.1,0v-0.4c0-0.5-0.1-0.9-0.3-1.1s-0.6-0.4-1-0.4c-0.5,0-1.1,0.2-1.8,0.5l-0.3-0.7c0.3-0.2,0.7-0.3,1-0.4
			s0.8-0.1,1.1-0.1c0.8,0,1.3,0.2,1.7,0.5s0.6,0.9,0.6,1.6v4.4H630.3z M628.1,335.6c0.6,0,1.1-0.2,1.4-0.5s0.5-0.8,0.5-1.4v-0.6
			l-1,0c-0.8,0-1.3,0.1-1.7,0.4s-0.5,0.5-0.5,1c0,0.4,0.1,0.6,0.3,0.8S627.8,335.6,628.1,335.6z"/>
		<path d="M635.1,335.6c0.2,0,0.3,0,0.5,0s0.3-0.1,0.4-0.1v0.7c-0.1,0.1-0.3,0.1-0.5,0.1s-0.4,0-0.6,0c-1.2,0-1.9-0.7-1.9-2v-3.8
			h-0.9v-0.5l0.9-0.4l0.4-1.4h0.6v1.5h1.9v0.8h-1.9v3.8c0,0.4,0.1,0.7,0.3,0.9S634.8,335.6,635.1,335.6z"/>
		<path d="M637.2,328.1c0-0.2,0.1-0.4,0.2-0.5s0.2-0.2,0.4-0.2c0.2,0,0.3,0.1,0.4,0.2s0.2,0.3,0.2,0.5s-0.1,0.4-0.2,0.5
			s-0.2,0.2-0.4,0.2c-0.2,0-0.3-0.1-0.4-0.2S637.2,328.4,637.2,328.1z M638.3,336.3h-1v-6.4h1V336.3z"/>
		<path d="M645.9,333.1c0,1-0.3,1.9-0.8,2.5s-1.3,0.9-2.2,0.9c-0.6,0-1.1-0.1-1.5-0.4s-0.8-0.7-1-1.2s-0.4-1.1-0.4-1.8
			c0-1,0.3-1.9,0.8-2.4s1.2-0.9,2.2-0.9c0.9,0,1.6,0.3,2.1,0.9S645.9,332.1,645.9,333.1z M641,333.1c0,0.8,0.2,1.4,0.5,1.9
			s0.8,0.6,1.4,0.6s1.1-0.2,1.5-0.6s0.5-1.1,0.5-1.9c0-0.8-0.2-1.4-0.5-1.9s-0.8-0.6-1.5-0.6c-0.6,0-1.1,0.2-1.4,0.6
			S641,332.3,641,333.1z"/>
		<path d="M652,336.3v-4.2c0-0.5-0.1-0.9-0.4-1.2s-0.6-0.4-1.1-0.4c-0.7,0-1.2,0.2-1.5,0.5s-0.5,1-0.5,1.8v3.4h-1v-6.4h0.8l0.2,0.9
			h0c0.2-0.3,0.5-0.6,0.8-0.7s0.8-0.3,1.2-0.3c0.8,0,1.4,0.2,1.7,0.6s0.6,1,0.6,1.8v4.2H652z"/>
	</g>
	<g>
		<path d="M602.6,487.9c0,1.4-0.4,2.5-1.2,3.2s-1.9,1.1-3.3,1.1h-2.4v-8.6h2.6c1.3,0,2.4,0.4,3.1,1.1S602.6,486.6,602.6,487.9z
			 M601.6,488c0-1.1-0.3-2-0.8-2.5s-1.4-0.8-2.5-0.8h-1.4v6.8h1.2c1.2,0,2.1-0.3,2.7-0.9S601.6,489.1,601.6,488z"/>
		<path d="M608.3,492.3l-0.2-0.9h0c-0.3,0.4-0.6,0.7-1,0.8s-0.7,0.2-1.2,0.2c-0.6,0-1.1-0.2-1.5-0.5s-0.5-0.8-0.5-1.4
			c0-1.3,1-2,3.1-2l1.1,0v-0.4c0-0.5-0.1-0.9-0.3-1.1s-0.6-0.4-1-0.4c-0.5,0-1.1,0.2-1.8,0.5l-0.3-0.7c0.3-0.2,0.7-0.3,1-0.4
			s0.8-0.1,1.1-0.1c0.8,0,1.3,0.2,1.7,0.5s0.6,0.9,0.6,1.6v4.4H608.3z M606.1,491.6c0.6,0,1.1-0.2,1.4-0.5s0.5-0.8,0.5-1.4v-0.6
			l-1,0c-0.8,0-1.3,0.1-1.7,0.4s-0.5,0.5-0.5,1c0,0.4,0.1,0.6,0.3,0.8S605.7,491.6,606.1,491.6z"/>
		<path d="M613.1,491.6c0.2,0,0.3,0,0.5,0s0.3-0.1,0.4-0.1v0.7c-0.1,0.1-0.3,0.1-0.5,0.1s-0.4,0.1-0.6,0.1c-1.2,0-1.9-0.7-1.9-2
			v-3.8h-0.9v-0.5l0.9-0.4l0.4-1.4h0.6v1.5h1.9v0.8h-1.9v3.8c0,0.4,0.1,0.7,0.3,0.9S612.8,491.6,613.1,491.6z"/>
		<path d="M619.2,492.3l-0.2-0.9h0c-0.3,0.4-0.6,0.7-1,0.8s-0.7,0.2-1.2,0.2c-0.6,0-1.1-0.2-1.5-0.5s-0.5-0.8-0.5-1.4
			c0-1.3,1-2,3.1-2l1.1,0v-0.4c0-0.5-0.1-0.9-0.3-1.1s-0.6-0.4-1-0.4c-0.5,0-1.1,0.2-1.8,0.5l-0.3-0.7c0.3-0.2,0.7-0.3,1-0.4
			s0.8-0.1,1.1-0.1c0.8,0,1.3,0.2,1.7,0.5s0.6,0.9,0.6,1.6v4.4H619.2z M617,491.6c0.6,0,1.1-0.2,1.4-0.5s0.5-0.8,0.5-1.4v-0.6l-1,0
			c-0.8,0-1.3,0.1-1.7,0.4s-0.5,0.5-0.5,1c0,0.4,0.1,0.6,0.3,0.8S616.7,491.6,617,491.6z"/>
		<path d="M624.9,485.8c0.8,0,1.5,0.3,2,0.9s0.7,1.4,0.7,2.4s-0.2,1.9-0.7,2.5s-1.1,0.9-2,0.9c-0.4,0-0.8-0.1-1.1-0.2
			s-0.6-0.4-0.9-0.7h-0.1l-0.2,0.8H622v-9.1h1v2.2c0,0.5,0,0.9,0,1.3h0C623.4,486.1,624.1,485.8,624.9,485.8z M624.8,486.6
			c-0.7,0-1.1,0.2-1.4,0.6s-0.4,1-0.4,1.9s0.2,1.5,0.5,1.9s0.8,0.6,1.4,0.6c0.6,0,1-0.2,1.3-0.7s0.4-1.1,0.4-1.9
			c0-0.8-0.1-1.5-0.4-1.9S625.4,486.6,624.8,486.6z"/>
		<path d="M633.3,492.3l-0.2-0.9h0c-0.3,0.4-0.6,0.7-1,0.8s-0.7,0.2-1.2,0.2c-0.6,0-1.1-0.2-1.5-0.5s-0.5-0.8-0.5-1.4
			c0-1.3,1-2,3.1-2l1.1,0v-0.4c0-0.5-0.1-0.9-0.3-1.1s-0.6-0.4-1-0.4c-0.5,0-1.1,0.2-1.8,0.5l-0.3-0.7c0.3-0.2,0.7-0.3,1-0.4
			s0.8-0.1,1.1-0.1c0.8,0,1.3,0.2,1.7,0.5s0.6,0.9,0.6,1.6v4.4H633.3z M631.1,491.6c0.6,0,1.1-0.2,1.4-0.5s0.5-0.8,0.5-1.4v-0.6
			l-1,0c-0.8,0-1.3,0.1-1.7,0.4s-0.5,0.5-0.5,1c0,0.4,0.1,0.6,0.3,0.8S630.7,491.6,631.1,491.6z"/>
		<path d="M640.1,490.6c0,0.6-0.2,1.1-0.7,1.4s-1.1,0.5-1.9,0.5c-0.9,0-1.5-0.1-2-0.4v-0.9c0.3,0.2,0.6,0.3,1,0.4s0.7,0.1,1,0.1
			c0.5,0,0.9-0.1,1.2-0.2s0.4-0.4,0.4-0.7c0-0.2-0.1-0.5-0.3-0.6s-0.6-0.4-1.3-0.6c-0.6-0.2-1-0.4-1.3-0.6s-0.4-0.4-0.6-0.6
			s-0.2-0.5-0.2-0.8c0-0.5,0.2-0.9,0.6-1.2s1-0.5,1.8-0.5c0.7,0,1.4,0.1,2,0.4l-0.3,0.8c-0.6-0.3-1.2-0.4-1.8-0.4
			c-0.5,0-0.8,0.1-1,0.2s-0.4,0.3-0.4,0.6c0,0.2,0,0.3,0.1,0.4s0.2,0.2,0.4,0.3s0.6,0.3,1.1,0.5c0.8,0.3,1.3,0.6,1.5,0.8
			S640.1,490.1,640.1,490.6z"/>
		<path d="M644.4,492.4c-0.9,0-1.7-0.3-2.2-0.9s-0.8-1.4-0.8-2.4c0-1,0.3-1.9,0.8-2.5s1.2-0.9,2.1-0.9c0.8,0,1.4,0.3,1.9,0.8
			s0.7,1.2,0.7,2.1v0.6h-4.4c0,0.8,0.2,1.3,0.6,1.7s0.9,0.6,1.5,0.6c0.7,0,1.4-0.1,2.1-0.4v0.9c-0.3,0.1-0.7,0.3-1,0.3
			S644.9,492.4,644.4,492.4z M644.2,486.6c-0.5,0-0.9,0.2-1.2,0.5s-0.5,0.8-0.5,1.4h3.4c0-0.6-0.1-1.1-0.4-1.4
			S644.7,486.6,644.2,486.6z"/>
	</g>
	<g>
		<path d="M552.8,181.8c-0.9,0-1.7,0.3-2.2,0.9s-0.8,1.5-0.8,2.6c0,1.1,0.3,2,0.8,2.6s1.3,0.9,2.2,0.9c0.6,0,1.3-0.1,2-0.3v0.9
			c-0.6,0.2-1.3,0.3-2.2,0.3c-1.3,0-2.2-0.4-2.9-1.1s-1-1.9-1-3.3c0-0.9,0.2-1.7,0.5-2.3s0.8-1.2,1.4-1.5s1.4-0.5,2.2-0.5
			c0.9,0,1.7,0.2,2.4,0.5l-0.4,0.9C554.1,181.9,553.5,181.8,552.8,181.8z"/>
		<path d="M557.6,189.6h-1v-9.1h1V189.6z"/>
		<path d="M565.2,186.3c0,1-0.3,1.9-0.8,2.5s-1.3,0.9-2.2,0.9c-0.6,0-1.1-0.1-1.5-0.4s-0.8-0.7-1-1.2s-0.4-1.1-0.4-1.8
			c0-1,0.3-1.9,0.8-2.4s1.2-0.9,2.2-0.9c0.9,0,1.6,0.3,2.1,0.9S565.2,185.3,565.2,186.3z M560.3,186.3c0,0.8,0.2,1.4,0.5,1.9
			s0.8,0.6,1.4,0.6s1.1-0.2,1.5-0.6s0.5-1.1,0.5-1.9c0-0.8-0.2-1.4-0.5-1.9s-0.8-0.6-1.5-0.6c-0.6,0-1.1,0.2-1.4,0.6
			S560.3,185.5,560.3,186.3z"/>
		<path d="M567.8,183.1v4.2c0,0.5,0.1,0.9,0.4,1.2s0.6,0.4,1.1,0.4c0.7,0,1.2-0.2,1.5-0.6s0.5-1,0.5-1.8v-3.4h1v6.4h-0.8l-0.1-0.9
			h-0.1c-0.2,0.3-0.5,0.6-0.8,0.7s-0.8,0.3-1.2,0.3c-0.8,0-1.4-0.2-1.8-0.6s-0.6-1-0.6-1.8v-4.2H567.8z"/>
		<path d="M578.6,188.7L578.6,188.7c-0.5,0.7-1.2,1-2.1,1c-0.8,0-1.5-0.3-2-0.9s-0.7-1.4-0.7-2.4s0.2-1.9,0.7-2.5s1.1-0.9,2-0.9
			c0.9,0,1.5,0.3,2,0.9h0.1l0-0.5l0-0.5v-2.6h1v9.1h-0.8L578.6,188.7z M576.7,188.9c0.7,0,1.1-0.2,1.4-0.5s0.4-0.9,0.4-1.7v-0.2
			c0-0.9-0.2-1.6-0.5-1.9s-0.8-0.6-1.5-0.6c-0.6,0-1,0.2-1.3,0.7s-0.5,1.1-0.5,1.9c0,0.8,0.2,1.4,0.5,1.9S576.1,188.9,576.7,188.9z"
			/>
		<path d="M589.1,189.6v-4.2c0-0.5-0.1-0.9-0.4-1.2s-0.6-0.4-1.1-0.4c-0.7,0-1.2,0.2-1.5,0.6s-0.5,1-0.5,1.8v3.4h-1v-9.1h1v2.8
			c0,0.3,0,0.6,0,0.8h0.1c0.2-0.3,0.5-0.6,0.8-0.7s0.8-0.3,1.2-0.3c0.8,0,1.4,0.2,1.8,0.6s0.6,1,0.6,1.8v4.2H589.1z"/>
		<path d="M597.6,186.3c0,1-0.3,1.9-0.8,2.5s-1.3,0.9-2.2,0.9c-0.6,0-1.1-0.1-1.5-0.4s-0.8-0.7-1-1.2s-0.4-1.1-0.4-1.8
			c0-1,0.3-1.9,0.8-2.4s1.2-0.9,2.2-0.9c0.9,0,1.6,0.3,2.1,0.9S597.6,185.3,597.6,186.3z M592.7,186.3c0,0.8,0.2,1.4,0.5,1.9
			s0.8,0.6,1.4,0.6s1.1-0.2,1.5-0.6s0.5-1.1,0.5-1.9c0-0.8-0.2-1.4-0.5-1.9s-0.8-0.6-1.5-0.6c-0.6,0-1.1,0.2-1.4,0.6
			S592.7,185.5,592.7,186.3z"/>
		<path d="M603.5,187.8c0,0.6-0.2,1.1-0.7,1.4s-1.1,0.5-1.9,0.5c-0.9,0-1.5-0.1-2-0.4v-0.9c0.3,0.2,0.6,0.3,1,0.4s0.7,0.1,1,0.1
			c0.5,0,0.9-0.1,1.2-0.2s0.4-0.4,0.4-0.7c0-0.2-0.1-0.5-0.3-0.6s-0.6-0.4-1.3-0.6c-0.6-0.2-1-0.4-1.3-0.6s-0.4-0.4-0.6-0.6
			s-0.2-0.5-0.2-0.8c0-0.5,0.2-0.9,0.6-1.2s1-0.5,1.8-0.5c0.7,0,1.4,0.1,2,0.4l-0.3,0.8c-0.6-0.3-1.2-0.4-1.8-0.4
			c-0.5,0-0.8,0.1-1,0.2s-0.4,0.3-0.4,0.6c0,0.2,0,0.3,0.1,0.4s0.2,0.2,0.4,0.3s0.6,0.3,1.1,0.5c0.8,0.3,1.3,0.6,1.5,0.8
			S603.5,187.4,603.5,187.8z"/>
		<path d="M607.1,188.9c0.2,0,0.3,0,0.5,0s0.3-0.1,0.4-0.1v0.7c-0.1,0.1-0.3,0.1-0.5,0.1s-0.4,0-0.6,0c-1.2,0-1.9-0.7-1.9-2v-3.8
			h-0.9v-0.5l0.9-0.4l0.4-1.4h0.6v1.5h1.9v0.8h-1.9v3.8c0,0.4,0.1,0.7,0.3,0.9S606.8,188.9,607.1,188.9z"/>
		<path d="M612,189.7c-0.9,0-1.7-0.3-2.2-0.9s-0.8-1.4-0.8-2.4c0-1,0.3-1.9,0.8-2.5s1.2-0.9,2.1-0.9c0.8,0,1.4,0.3,1.9,0.8
			s0.7,1.2,0.7,2.1v0.6h-4.4c0,0.8,0.2,1.3,0.6,1.7s0.9,0.6,1.5,0.6c0.7,0,1.4-0.1,2.1-0.4v0.9c-0.3,0.1-0.7,0.3-1,0.3
			S612.4,189.7,612,189.7z M611.7,183.8c-0.5,0-0.9,0.2-1.2,0.5s-0.5,0.8-0.5,1.4h3.4c0-0.6-0.1-1.1-0.4-1.4
			S612.3,183.8,611.7,183.8z"/>
		<path d="M620.4,188.7L620.4,188.7c-0.5,0.7-1.2,1-2.1,1c-0.8,0-1.5-0.3-2-0.9s-0.7-1.4-0.7-2.4s0.2-1.9,0.7-2.5s1.1-0.9,2-0.9
			c0.9,0,1.5,0.3,2,0.9h0.1l0-0.5l0-0.5v-2.6h1v9.1h-0.8L620.4,188.7z M618.5,188.9c0.7,0,1.1-0.2,1.4-0.5s0.4-0.9,0.4-1.7v-0.2
			c0-0.9-0.2-1.6-0.5-1.9s-0.8-0.6-1.5-0.6c-0.6,0-1,0.2-1.3,0.7s-0.5,1.1-0.5,1.9c0,0.8,0.2,1.4,0.5,1.9S617.9,188.9,618.5,188.9z"
			/>
		<path d="M631.7,189.6l-1.2-3.8c-0.1-0.2-0.2-0.8-0.4-1.6h0c-0.2,0.7-0.3,1.2-0.4,1.6l-1.2,3.8h-1.1l-1.8-6.4h1
			c0.4,1.6,0.7,2.8,0.9,3.7s0.3,1.4,0.4,1.7h0c0-0.2,0.1-0.5,0.2-0.9s0.2-0.6,0.2-0.8l1.2-3.7h1.1l1.1,3.7c0.2,0.7,0.4,1.2,0.4,1.7
			h0c0-0.1,0.1-0.4,0.1-0.7s0.5-1.9,1.2-4.7h1l-1.8,6.4H631.7z"/>
		<path d="M638.5,189.7c-0.9,0-1.7-0.3-2.2-0.9s-0.8-1.4-0.8-2.4c0-1,0.3-1.9,0.8-2.5s1.2-0.9,2.1-0.9c0.8,0,1.4,0.3,1.9,0.8
			s0.7,1.2,0.7,2.1v0.6h-4.4c0,0.8,0.2,1.3,0.6,1.7s0.9,0.6,1.5,0.6c0.7,0,1.4-0.1,2.1-0.4v0.9c-0.3,0.1-0.7,0.3-1,0.3
			S639,189.7,638.5,189.7z M638.3,183.8c-0.5,0-0.9,0.2-1.2,0.5s-0.5,0.8-0.5,1.4h3.4c0-0.6-0.1-1.1-0.4-1.4
			S638.8,183.8,638.3,183.8z"/>
		<path d="M645.6,183c0.8,0,1.5,0.3,2,0.9s0.7,1.4,0.7,2.4s-0.2,1.9-0.7,2.5s-1.1,0.9-2,0.9c-0.4,0-0.8-0.1-1.1-0.2
			s-0.6-0.4-0.9-0.7h-0.1l-0.2,0.8h-0.7v-9.1h1v2.2c0,0.5,0,0.9,0,1.3h0C644,183.4,644.7,183,645.6,183z M645.4,183.8
			c-0.7,0-1.1,0.2-1.4,0.6s-0.4,1-0.4,1.9s0.2,1.5,0.5,1.9s0.8,0.6,1.4,0.6c0.6,0,1-0.2,1.3-0.7s0.4-1.1,0.4-1.9
			c0-0.8-0.1-1.5-0.4-1.9S646,183.8,645.4,183.8z"/>
		<path d="M657.2,187.8c0,0.6-0.2,1.1-0.7,1.4s-1.1,0.5-1.9,0.5c-0.9,0-1.5-0.1-2-0.4v-0.9c0.3,0.2,0.6,0.3,1,0.4s0.7,0.1,1,0.1
			c0.5,0,0.9-0.1,1.2-0.2s0.4-0.4,0.4-0.7c0-0.2-0.1-0.5-0.3-0.6s-0.6-0.4-1.3-0.6c-0.6-0.2-1-0.4-1.3-0.6s-0.4-0.4-0.6-0.6
			s-0.2-0.5-0.2-0.8c0-0.5,0.2-0.9,0.6-1.2s1-0.5,1.8-0.5c0.7,0,1.4,0.1,2,0.4l-0.3,0.8c-0.6-0.3-1.2-0.4-1.8-0.4
			c-0.5,0-0.8,0.1-1,0.2s-0.4,0.3-0.4,0.6c0,0.2,0,0.3,0.1,0.4s0.2,0.2,0.4,0.3s0.6,0.3,1.1,0.5c0.8,0.3,1.3,0.6,1.5,0.8
			S657.2,187.4,657.2,187.8z"/>
		<path d="M661.5,189.7c-0.9,0-1.7-0.3-2.2-0.9s-0.8-1.4-0.8-2.4c0-1,0.3-1.9,0.8-2.5s1.2-0.9,2.1-0.9c0.8,0,1.4,0.3,1.9,0.8
			s0.7,1.2,0.7,2.1v0.6h-4.4c0,0.8,0.2,1.3,0.6,1.7s0.9,0.6,1.5,0.6c0.7,0,1.4-0.1,2.1-0.4v0.9c-0.3,0.1-0.7,0.3-1,0.3
			S661.9,189.7,661.5,189.7z M661.2,183.8c-0.5,0-0.9,0.2-1.2,0.5s-0.5,0.8-0.5,1.4h3.4c0-0.6-0.1-1.1-0.4-1.4
			S661.7,183.8,661.2,183.8z"/>
		<path d="M668.4,183c0.3,0,0.5,0,0.8,0.1l-0.1,0.9c-0.3-0.1-0.5-0.1-0.7-0.1c-0.5,0-1,0.2-1.3,0.6s-0.6,0.9-0.6,1.6v3.4h-1v-6.4
			h0.8l0.1,1.2h0c0.2-0.4,0.5-0.7,0.9-1S668,183,668.4,183z"/>
		<path d="M671.8,189.6l-2.4-6.4h1l1.4,3.8c0.3,0.9,0.5,1.5,0.6,1.7h0c0-0.2,0.2-0.6,0.4-1.3s0.7-2.1,1.5-4.3h1l-2.4,6.4H671.8z"/>
		<path d="M679.1,189.7c-0.9,0-1.7-0.3-2.2-0.9s-0.8-1.4-0.8-2.4c0-1,0.3-1.9,0.8-2.5s1.2-0.9,2.1-0.9c0.8,0,1.4,0.3,1.9,0.8
			s0.7,1.2,0.7,2.1v0.6h-4.4c0,0.8,0.2,1.3,0.6,1.7s0.9,0.6,1.5,0.6c0.7,0,1.4-0.1,2.1-0.4v0.9c-0.3,0.1-0.7,0.3-1,0.3
			S679.5,189.7,679.1,189.7z M678.9,183.8c-0.5,0-0.9,0.2-1.2,0.5s-0.5,0.8-0.5,1.4h3.4c0-0.6-0.1-1.1-0.4-1.4
			S679.4,183.8,678.9,183.8z"/>
		<path d="M686.1,183c0.3,0,0.5,0,0.8,0.1l-0.1,0.9c-0.3-0.1-0.5-0.1-0.7-0.1c-0.5,0-1,0.2-1.3,0.6s-0.6,0.9-0.6,1.6v3.4h-1v-6.4
			h0.8l0.1,1.2h0c0.2-0.4,0.5-0.7,0.9-1S685.7,183,686.1,183z"/>
	</g>
	<g>
		<path d="M42.1,319v-8.6h1v8.6H42.1z"/>
		<path d="M52.3,314.7c0,1.4-0.4,2.5-1.2,3.2s-1.9,1.1-3.3,1.1h-2.4v-8.6H48c1.3,0,2.4,0.4,3.1,1.1S52.3,313.3,52.3,314.7z
			 M51.2,314.7c0-1.1-0.3-2-0.8-2.5s-1.4-0.8-2.5-0.8h-1.4v6.8h1.2c1.2,0,2.1-0.3,2.7-0.9S51.2,315.8,51.2,314.7z"/>
		<path d="M58.9,319h-4.8v-8.6h4.8v0.9h-3.8v2.8h3.6v0.9h-3.6v3.2h3.8V319z"/>
	</g>
	<g>
		<g>
			<g>
				<line class="st53" x1="4" y1="441.4" x2="30.3" y2="441.4"/>
				<g>
					<polygon points="29.1,445.4 36,441.4 29.1,437.4 					"/>
				</g>
			</g>
		</g>
		<g>
			<path d="M54.7,446h-1v-7.7H51v-0.9h6.4v0.9h-2.7V446z"/>
			<path d="M61.3,446.1c-0.9,0-1.7-0.3-2.2-0.9s-0.8-1.4-0.8-2.4c0-1,0.3-1.9,0.8-2.5s1.2-0.9,2.1-0.9c0.8,0,1.4,0.3,1.9,0.8
				s0.7,1.2,0.7,2.1v0.6h-4.4c0,0.8,0.2,1.3,0.6,1.7s0.9,0.6,1.5,0.6c0.7,0,1.4-0.1,2.1-0.4v0.9c-0.3,0.1-0.7,0.3-1,0.3
				S61.7,446.1,61.3,446.1z M61,440.3c-0.5,0-0.9,0.2-1.2,0.5s-0.5,0.8-0.5,1.4h3.4c0-0.6-0.1-1.1-0.4-1.4S61.5,440.3,61,440.3z"/>
			<path d="M69.4,444.3c0,0.6-0.2,1.1-0.7,1.4s-1.1,0.5-1.9,0.5c-0.9,0-1.5-0.1-2-0.4v-0.9c0.3,0.2,0.6,0.3,1,0.4s0.7,0.1,1,0.1
				c0.5,0,0.9-0.1,1.2-0.2s0.4-0.4,0.4-0.7c0-0.2-0.1-0.5-0.3-0.6s-0.6-0.4-1.3-0.6c-0.6-0.2-1-0.4-1.3-0.6s-0.4-0.4-0.6-0.6
				s-0.2-0.5-0.2-0.8c0-0.5,0.2-0.9,0.6-1.2s1-0.5,1.8-0.5c0.7,0,1.4,0.1,2,0.4l-0.3,0.8c-0.6-0.3-1.2-0.4-1.8-0.4
				c-0.5,0-0.8,0.1-1,0.2s-0.4,0.3-0.4,0.6c0,0.2,0,0.3,0.1,0.4s0.2,0.2,0.4,0.3s0.6,0.3,1.1,0.5c0.8,0.3,1.3,0.6,1.5,0.8
				S69.4,443.8,69.4,444.3z"/>
			<path d="M73.1,445.3c0.2,0,0.3,0,0.5,0s0.3-0.1,0.4-0.1v0.7c-0.1,0.1-0.3,0.1-0.5,0.1s-0.4,0-0.6,0c-1.2,0-1.9-0.7-1.9-2v-3.8
				h-0.9v-0.5l0.9-0.4l0.4-1.4h0.6v1.5h1.9v0.8h-1.9v3.8c0,0.4,0.1,0.7,0.3,0.9S72.8,445.3,73.1,445.3z"/>
			<path d="M75.2,437.9c0-0.2,0.1-0.4,0.2-0.5s0.2-0.2,0.4-0.2c0.2,0,0.3,0.1,0.4,0.2s0.2,0.3,0.2,0.5s-0.1,0.4-0.2,0.5
				s-0.2,0.2-0.4,0.2c-0.2,0-0.3-0.1-0.4-0.2S75.2,438.1,75.2,437.9z M76.2,446h-1v-6.4h1V446z"/>
			<path d="M82.7,446v-4.2c0-0.5-0.1-0.9-0.4-1.2s-0.6-0.4-1.1-0.4c-0.7,0-1.2,0.2-1.5,0.5s-0.5,1-0.5,1.8v3.4h-1v-6.4h0.8l0.2,0.9
				h0c0.2-0.3,0.5-0.6,0.8-0.7s0.8-0.3,1.2-0.3c0.8,0,1.4,0.2,1.7,0.6s0.6,1,0.6,1.8v4.2H82.7z"/>
			<path d="M90.9,439.6v0.6l-1.2,0.1c0.1,0.1,0.2,0.3,0.3,0.5s0.1,0.5,0.1,0.7c0,0.6-0.2,1.1-0.6,1.5s-1,0.6-1.8,0.6
				c-0.2,0-0.4,0-0.5,0c-0.4,0.2-0.6,0.5-0.6,0.8c0,0.2,0.1,0.3,0.2,0.4s0.4,0.1,0.7,0.1h1.1c0.7,0,1.2,0.1,1.6,0.4s0.6,0.7,0.6,1.3
				c0,0.7-0.3,1.3-0.9,1.6s-1.4,0.6-2.5,0.6c-0.8,0-1.5-0.2-1.9-0.5s-0.7-0.8-0.7-1.3c0-0.4,0.1-0.7,0.4-1s0.6-0.5,1.1-0.6
				c-0.2-0.1-0.3-0.2-0.4-0.3s-0.2-0.3-0.2-0.5c0-0.2,0.1-0.4,0.2-0.6s0.3-0.3,0.6-0.5c-0.3-0.1-0.6-0.4-0.8-0.7s-0.3-0.7-0.3-1.1
				c0-0.7,0.2-1.2,0.6-1.6s1-0.6,1.8-0.6c0.3,0,0.6,0,0.9,0.1H90.9z M85.8,447.1c0,0.3,0.1,0.6,0.4,0.8s0.7,0.3,1.3,0.3
				c0.8,0,1.4-0.1,1.8-0.4s0.6-0.6,0.6-1c0-0.3-0.1-0.6-0.3-0.7s-0.6-0.2-1.2-0.2h-1.2c-0.4,0-0.8,0.1-1,0.3S85.8,446.7,85.8,447.1z
				 M86.3,441.7c0,0.4,0.1,0.8,0.4,1s0.6,0.3,1.1,0.3c0.9,0,1.4-0.5,1.4-1.4c0-1-0.5-1.4-1.4-1.4c-0.5,0-0.8,0.1-1.1,0.4
				S86.3,441.2,86.3,441.7z"/>
			<path d="M98.3,446.1c-0.4,0-0.8-0.1-1.1-0.2s-0.6-0.4-0.9-0.7h-0.1c0,0.4,0.1,0.7,0.1,1.1v2.6h-1v-9.3h0.8l0.1,0.9h0
				c0.2-0.4,0.5-0.6,0.9-0.8s0.7-0.2,1.1-0.2c0.9,0,1.5,0.3,2,0.9s0.7,1.4,0.7,2.4c0,1.1-0.2,1.9-0.7,2.5S99.2,446.1,98.3,446.1z
				 M98.2,440.3c-0.7,0-1.1,0.2-1.4,0.5s-0.4,0.9-0.5,1.7v0.2c0,0.9,0.2,1.5,0.5,1.9s0.8,0.6,1.4,0.6c0.6,0,1-0.2,1.3-0.7
				s0.5-1.1,0.5-1.9c0-0.8-0.2-1.4-0.5-1.8S98.8,440.3,98.2,440.3z"/>
			<path d="M106.7,446l-0.2-0.9h0c-0.3,0.4-0.6,0.7-1,0.8s-0.7,0.2-1.2,0.2c-0.6,0-1.1-0.2-1.5-0.5s-0.5-0.8-0.5-1.4
				c0-1.3,1-2,3.1-2l1.1,0v-0.4c0-0.5-0.1-0.9-0.3-1.1s-0.6-0.4-1-0.4c-0.5,0-1.1,0.2-1.8,0.5l-0.3-0.7c0.3-0.2,0.7-0.3,1-0.4
				s0.8-0.1,1.1-0.1c0.8,0,1.3,0.2,1.7,0.5s0.6,0.9,0.6,1.6v4.4H106.7z M104.5,445.3c0.6,0,1.1-0.2,1.4-0.5s0.5-0.8,0.5-1.4v-0.6
				l-1,0c-0.8,0-1.3,0.1-1.7,0.4s-0.5,0.5-0.5,1c0,0.4,0.1,0.6,0.3,0.8S104.1,445.3,104.5,445.3z"/>
			<path d="M111.5,445.3c0.2,0,0.3,0,0.5,0s0.3-0.1,0.4-0.1v0.7c-0.1,0.1-0.3,0.1-0.5,0.1s-0.4,0-0.6,0c-1.2,0-1.9-0.7-1.9-2v-3.8
				h-0.9v-0.5l0.9-0.4l0.4-1.4h0.6v1.5h1.9v0.8h-1.9v3.8c0,0.4,0.1,0.7,0.3,0.9S111.1,445.3,111.5,445.3z"/>
			<path d="M118,446v-4.2c0-0.5-0.1-0.9-0.4-1.2s-0.6-0.4-1.1-0.4c-0.7,0-1.2,0.2-1.5,0.6s-0.5,1-0.5,1.8v3.4h-1v-9.1h1v2.8
				c0,0.3,0,0.6,0,0.8h0.1c0.2-0.3,0.5-0.6,0.8-0.7s0.8-0.3,1.2-0.3c0.8,0,1.4,0.2,1.8,0.6s0.6,1,0.6,1.8v4.2H118z"/>
		</g>
	</g>
	<g>
		<g>
			<g>
				<line class="st44" x1="4" y1="467.4" x2="30.3" y2="467.4"/>
				<g>
					<polygon points="29.1,471.4 36,467.4 29.1,463.4 					"/>
				</g>
			</g>
		</g>
		<g>
			<path d="M57,463.5H58L55,472h-1l-3.1-8.6H52l2,5.5c0.2,0.6,0.4,1.3,0.5,1.9c0.1-0.6,0.3-1.3,0.6-1.9L57,463.5z"/>
			<path d="M63,472l-0.2-0.9h0c-0.3,0.4-0.6,0.7-1,0.8s-0.7,0.2-1.2,0.2c-0.6,0-1.1-0.2-1.5-0.5s-0.5-0.8-0.5-1.4c0-1.3,1-2,3.1-2
				l1.1,0v-0.4c0-0.5-0.1-0.9-0.3-1.1s-0.6-0.4-1-0.4c-0.5,0-1.1,0.2-1.8,0.5l-0.3-0.7c0.3-0.2,0.7-0.3,1-0.4s0.8-0.1,1.1-0.1
				c0.8,0,1.3,0.2,1.7,0.5s0.6,0.9,0.6,1.6v4.4H63z M60.8,471.3c0.6,0,1.1-0.2,1.4-0.5s0.5-0.8,0.5-1.4v-0.6l-1,0
				c-0.8,0-1.3,0.1-1.7,0.4s-0.5,0.5-0.5,1c0,0.4,0.1,0.6,0.3,0.8S60.4,471.3,60.8,471.3z"/>
			<path d="M66.7,472h-1v-9.1h1V472z"/>
			<path d="M68.7,463.9c0-0.2,0.1-0.4,0.2-0.5s0.2-0.2,0.4-0.2c0.2,0,0.3,0.1,0.4,0.2s0.2,0.3,0.2,0.5s-0.1,0.4-0.2,0.5
				s-0.2,0.2-0.4,0.2c-0.2,0-0.3-0.1-0.4-0.2S68.7,464.1,68.7,463.9z M69.8,472h-1v-6.4h1V472z"/>
			<path d="M76.2,471.2L76.2,471.2c-0.5,0.7-1.2,1-2.1,1c-0.8,0-1.5-0.3-2-0.9s-0.7-1.4-0.7-2.4s0.2-1.9,0.7-2.5s1.1-0.9,2-0.9
				c0.9,0,1.5,0.3,2,0.9h0.1l0-0.5l0-0.5v-2.6h1v9.1h-0.8L76.2,471.2z M74.2,471.3c0.7,0,1.1-0.2,1.4-0.5s0.4-0.9,0.4-1.7v-0.2
				c0-0.9-0.2-1.6-0.5-1.9s-0.8-0.6-1.5-0.6c-0.6,0-1,0.2-1.3,0.7s-0.5,1.1-0.5,1.9c0,0.8,0.2,1.4,0.5,1.9S73.7,471.3,74.2,471.3z"
				/>
			<path d="M83.1,472l-0.2-0.9h0c-0.3,0.4-0.6,0.7-1,0.8s-0.7,0.2-1.2,0.2c-0.6,0-1.1-0.2-1.5-0.5s-0.5-0.8-0.5-1.4c0-1.3,1-2,3.1-2
				l1.1,0v-0.4c0-0.5-0.1-0.9-0.3-1.1s-0.6-0.4-1-0.4c-0.5,0-1.1,0.2-1.8,0.5l-0.3-0.7c0.3-0.2,0.7-0.3,1-0.4s0.8-0.1,1.1-0.1
				c0.8,0,1.3,0.2,1.7,0.5s0.6,0.9,0.6,1.6v4.4H83.1z M80.9,471.3c0.6,0,1.1-0.2,1.4-0.5s0.5-0.8,0.5-1.4v-0.6l-1,0
				c-0.8,0-1.3,0.1-1.7,0.4s-0.5,0.5-0.5,1c0,0.4,0.1,0.6,0.3,0.8S80.5,471.3,80.9,471.3z"/>
			<path d="M87.9,471.3c0.2,0,0.3,0,0.5,0s0.3-0.1,0.4-0.1v0.7c-0.1,0.1-0.3,0.1-0.5,0.1s-0.4,0-0.6,0c-1.2,0-1.9-0.7-1.9-2v-3.8H85
				v-0.5l0.9-0.4l0.4-1.4h0.6v1.5h1.9v0.8h-1.9v3.8c0,0.4,0.1,0.7,0.3,0.9S87.6,471.3,87.9,471.3z"/>
			<path d="M90,463.9c0-0.2,0.1-0.4,0.2-0.5s0.2-0.2,0.4-0.2c0.2,0,0.3,0.1,0.4,0.2s0.2,0.3,0.2,0.5s-0.1,0.4-0.2,0.5
				s-0.2,0.2-0.4,0.2c-0.2,0-0.3-0.1-0.4-0.2S90,464.1,90,463.9z M91.1,472h-1v-6.4h1V472z"/>
			<path d="M98.7,468.8c0,1-0.3,1.9-0.8,2.5s-1.3,0.9-2.2,0.9c-0.6,0-1.1-0.1-1.5-0.4s-0.8-0.7-1-1.2s-0.4-1.1-0.4-1.8
				c0-1,0.3-1.9,0.8-2.4s1.2-0.9,2.2-0.9c0.9,0,1.6,0.3,2.1,0.9S98.7,467.8,98.7,468.8z M93.8,468.8c0,0.8,0.2,1.4,0.5,1.9
				s0.8,0.6,1.4,0.6s1.1-0.2,1.5-0.6s0.5-1.1,0.5-1.9c0-0.8-0.2-1.4-0.5-1.9s-0.8-0.6-1.5-0.6c-0.6,0-1.1,0.2-1.4,0.6
				S93.8,468,93.8,468.8z"/>
			<path d="M104.8,472v-4.2c0-0.5-0.1-0.9-0.4-1.2s-0.6-0.4-1.1-0.4c-0.7,0-1.2,0.2-1.5,0.5s-0.5,1-0.5,1.8v3.4h-1v-6.4h0.8l0.2,0.9
				h0c0.2-0.3,0.5-0.6,0.8-0.7s0.8-0.3,1.2-0.3c0.8,0,1.4,0.2,1.7,0.6s0.6,1,0.6,1.8v4.2H104.8z"/>
			<path d="M113.8,472.1c-0.4,0-0.8-0.1-1.1-0.2s-0.6-0.4-0.9-0.7h-0.1c0,0.4,0.1,0.7,0.1,1.1v2.6h-1v-9.3h0.8l0.1,0.9h0
				c0.2-0.4,0.5-0.6,0.9-0.8s0.7-0.2,1.1-0.2c0.9,0,1.5,0.3,2,0.9s0.7,1.4,0.7,2.4c0,1.1-0.2,1.9-0.7,2.5S114.7,472.1,113.8,472.1z
				 M113.7,466.3c-0.7,0-1.1,0.2-1.4,0.5s-0.4,0.9-0.5,1.7v0.2c0,0.9,0.2,1.5,0.5,1.9s0.8,0.6,1.4,0.6c0.6,0,1-0.2,1.3-0.7
				s0.5-1.1,0.5-1.9c0-0.8-0.2-1.4-0.5-1.8S114.3,466.3,113.7,466.3z"/>
			<path d="M122.1,472l-0.2-0.9h0c-0.3,0.4-0.6,0.7-1,0.8s-0.7,0.2-1.2,0.2c-0.6,0-1.1-0.2-1.5-0.5s-0.5-0.8-0.5-1.4
				c0-1.3,1-2,3.1-2l1.1,0v-0.4c0-0.5-0.1-0.9-0.3-1.1s-0.6-0.4-1-0.4c-0.5,0-1.1,0.2-1.8,0.5l-0.3-0.7c0.3-0.2,0.7-0.3,1-0.4
				s0.8-0.1,1.1-0.1c0.8,0,1.3,0.2,1.7,0.5s0.6,0.9,0.6,1.6v4.4H122.1z M119.9,471.3c0.6,0,1.1-0.2,1.4-0.5s0.5-0.8,0.5-1.4v-0.6
				l-1,0c-0.8,0-1.3,0.1-1.7,0.4s-0.5,0.5-0.5,1c0,0.4,0.1,0.6,0.3,0.8S119.6,471.3,119.9,471.3z"/>
			<path d="M126.9,471.3c0.2,0,0.3,0,0.5,0s0.3-0.1,0.4-0.1v0.7c-0.1,0.1-0.3,0.1-0.5,0.1s-0.4,0-0.6,0c-1.2,0-1.9-0.7-1.9-2v-3.8
				H124v-0.5l0.9-0.4l0.4-1.4h0.6v1.5h1.9v0.8h-1.9v3.8c0,0.4,0.1,0.7,0.3,0.9S126.6,471.3,126.9,471.3z"/>
			<path d="M133.5,472v-4.2c0-0.5-0.1-0.9-0.4-1.2s-0.6-0.4-1.1-0.4c-0.7,0-1.2,0.2-1.5,0.6s-0.5,1-0.5,1.8v3.4h-1v-9.1h1v2.8
				c0,0.3,0,0.6,0,0.8h0.1c0.2-0.3,0.5-0.6,0.8-0.7s0.8-0.3,1.2-0.3c0.8,0,1.4,0.2,1.8,0.6s0.6,1,0.6,1.8v4.2H133.5z"/>
		</g>
	</g>
	<g>
		<g>
			<g>
				<line class="st46" x1="4.8" y1="416.4" x2="30.3" y2="416.4"/>
				<g>
					<polygon points="29.1,420.4 36,416.4 29.1,412.4 					"/>
				</g>
			</g>
		</g>
		<g>
			<path d="M52.1,420v-8.6h1v8.6H52.1z"/>
			<path d="M59.7,420v-4.2c0-0.5-0.1-0.9-0.4-1.2s-0.6-0.4-1.1-0.4c-0.7,0-1.2,0.2-1.5,0.5s-0.5,1-0.5,1.8v3.4h-1v-6.4h0.8l0.2,0.9
				h0c0.2-0.3,0.5-0.6,0.8-0.7s0.8-0.3,1.2-0.3c0.8,0,1.4,0.2,1.7,0.6s0.6,1,0.6,1.8v4.2H59.7z"/>
			<path d="M62.6,411.9c0-0.2,0.1-0.4,0.2-0.5s0.2-0.2,0.4-0.2c0.2,0,0.3,0.1,0.4,0.2s0.2,0.3,0.2,0.5s-0.1,0.4-0.2,0.5
				s-0.2,0.2-0.4,0.2c-0.2,0-0.3-0.1-0.4-0.2S62.6,412.1,62.6,411.9z M63.6,420h-1v-6.4h1V420z"/>
			<path d="M67.7,419.3c0.2,0,0.3,0,0.5,0s0.3-0.1,0.4-0.1v0.7c-0.1,0.1-0.3,0.1-0.5,0.1s-0.4,0-0.6,0c-1.2,0-1.9-0.7-1.9-2v-3.8
				h-0.9v-0.5l0.9-0.4l0.4-1.4h0.6v1.5h1.9v0.8h-1.9v3.8c0,0.4,0.1,0.7,0.3,0.9S67.4,419.3,67.7,419.3z"/>
			<path d="M69.8,411.9c0-0.2,0.1-0.4,0.2-0.5s0.2-0.2,0.4-0.2c0.2,0,0.3,0.1,0.4,0.2s0.2,0.3,0.2,0.5s-0.1,0.4-0.2,0.5
				s-0.2,0.2-0.4,0.2c-0.2,0-0.3-0.1-0.4-0.2S69.8,412.1,69.8,411.9z M70.9,420h-1v-6.4h1V420z"/>
			<path d="M76.9,420l-0.2-0.9h0c-0.3,0.4-0.6,0.7-1,0.8s-0.7,0.2-1.2,0.2c-0.6,0-1.1-0.2-1.5-0.5s-0.5-0.8-0.5-1.4c0-1.3,1-2,3.1-2
				l1.1,0v-0.4c0-0.5-0.1-0.9-0.3-1.1s-0.6-0.4-1-0.4c-0.5,0-1.1,0.2-1.8,0.5l-0.3-0.7c0.3-0.2,0.7-0.3,1-0.4s0.8-0.1,1.1-0.1
				c0.8,0,1.3,0.2,1.7,0.5s0.6,0.9,0.6,1.6v4.4H76.9z M74.7,419.3c0.6,0,1.1-0.2,1.4-0.5s0.5-0.8,0.5-1.4v-0.6l-1,0
				c-0.8,0-1.3,0.1-1.7,0.4s-0.5,0.5-0.5,1c0,0.4,0.1,0.6,0.3,0.8S74.3,419.3,74.7,419.3z"/>
			<path d="M80.6,420h-1v-9.1h1V420z"/>
			<path d="M82.6,411.9c0-0.2,0.1-0.4,0.2-0.5s0.2-0.2,0.4-0.2c0.2,0,0.3,0.1,0.4,0.2s0.2,0.3,0.2,0.5s-0.1,0.4-0.2,0.5
				s-0.2,0.2-0.4,0.2c-0.2,0-0.3-0.1-0.4-0.2S82.6,412.1,82.6,411.9z M83.6,420h-1v-6.4h1V420z"/>
			<path d="M89.8,420h-4.7v-0.7l3.5-5h-3.3v-0.8h4.4v0.8l-3.5,4.9h3.5V420z"/>
			<path d="M94,420.1c-0.9,0-1.7-0.3-2.2-0.9s-0.8-1.4-0.8-2.4c0-1,0.3-1.9,0.8-2.5s1.2-0.9,2.1-0.9c0.8,0,1.4,0.3,1.9,0.8
				s0.7,1.2,0.7,2.1v0.6H92c0,0.8,0.2,1.3,0.6,1.7s0.9,0.6,1.5,0.6c0.7,0,1.4-0.1,2.1-0.4v0.9c-0.3,0.1-0.7,0.3-1,0.3
				S94.4,420.1,94,420.1z M93.8,414.3c-0.5,0-0.9,0.2-1.2,0.5s-0.5,0.8-0.5,1.4h3.4c0-0.6-0.1-1.1-0.4-1.4S94.3,414.3,93.8,414.3z"
				/>
			<path d="M104.1,420.1c-0.4,0-0.8-0.1-1.1-0.2s-0.6-0.4-0.9-0.7h-0.1c0,0.4,0.1,0.7,0.1,1.1v2.6h-1v-9.3h0.8l0.1,0.9h0
				c0.2-0.4,0.5-0.6,0.9-0.8s0.7-0.2,1.1-0.2c0.9,0,1.5,0.3,2,0.9s0.7,1.4,0.7,2.4c0,1.1-0.2,1.9-0.7,2.5S105,420.1,104.1,420.1z
				 M104,414.3c-0.7,0-1.1,0.2-1.4,0.5s-0.4,0.9-0.5,1.7v0.2c0,0.9,0.2,1.5,0.5,1.9s0.8,0.6,1.4,0.6c0.6,0,1-0.2,1.3-0.7
				s0.5-1.1,0.5-1.9c0-0.8-0.2-1.4-0.5-1.8S104.6,414.3,104,414.3z"/>
			<path d="M112.5,420l-0.2-0.9h0c-0.3,0.4-0.6,0.7-1,0.8s-0.7,0.2-1.2,0.2c-0.6,0-1.1-0.2-1.5-0.5s-0.5-0.8-0.5-1.4
				c0-1.3,1-2,3.1-2l1.1,0v-0.4c0-0.5-0.1-0.9-0.3-1.1s-0.6-0.4-1-0.4c-0.5,0-1.1,0.2-1.8,0.5l-0.3-0.7c0.3-0.2,0.7-0.3,1-0.4
				s0.8-0.1,1.1-0.1c0.8,0,1.3,0.2,1.7,0.5s0.6,0.9,0.6,1.6v4.4H112.5z M110.3,419.3c0.6,0,1.1-0.2,1.4-0.5s0.5-0.8,0.5-1.4v-0.6
				l-1,0c-0.8,0-1.3,0.1-1.7,0.4s-0.5,0.5-0.5,1c0,0.4,0.1,0.6,0.3,0.8S109.9,419.3,110.3,419.3z"/>
			<path d="M117.3,419.3c0.2,0,0.3,0,0.5,0s0.3-0.1,0.4-0.1v0.7c-0.1,0.1-0.3,0.1-0.5,0.1s-0.4,0-0.6,0c-1.2,0-1.9-0.7-1.9-2v-3.8
				h-0.9v-0.5l0.9-0.4l0.4-1.4h0.6v1.5h1.9v0.8h-1.9v3.8c0,0.4,0.1,0.7,0.3,0.9S116.9,419.3,117.3,419.3z"/>
			<path d="M123.8,420v-4.2c0-0.5-0.1-0.9-0.4-1.2s-0.6-0.4-1.1-0.4c-0.7,0-1.2,0.2-1.5,0.6s-0.5,1-0.5,1.8v3.4h-1v-9.1h1v2.8
				c0,0.3,0,0.6,0,0.8h0.1c0.2-0.3,0.5-0.6,0.8-0.7s0.8-0.3,1.2-0.3c0.8,0,1.4,0.2,1.8,0.6s0.6,1,0.6,1.8v4.2H123.8z"/>
		</g>
	</g>
	<g>
		<path d="M47.5,130c0,0.9-0.3,1.5-0.9,2s-1.4,0.7-2.5,0.7h-1v3.4h-1v-8.6h2.2C46.4,127.5,47.5,128.3,47.5,130z M43.1,131.8H44
			c0.9,0,1.5-0.1,1.9-0.4s0.6-0.7,0.6-1.4c0-0.6-0.2-1-0.6-1.3s-0.9-0.4-1.7-0.4h-1.1V131.8z"/>
		<path d="M49.1,127.9c0-0.2,0.1-0.4,0.2-0.5s0.2-0.2,0.4-0.2c0.2,0,0.3,0.1,0.4,0.2s0.2,0.3,0.2,0.5s-0.1,0.4-0.2,0.5
			s-0.2,0.2-0.4,0.2c-0.2,0-0.3-0.1-0.4-0.2S49.1,128.1,49.1,127.9z M50.1,136h-1v-6.4h1V136z"/>
		<path d="M55.2,136.1c-0.4,0-0.8-0.1-1.1-0.2s-0.6-0.4-0.9-0.7h-0.1c0,0.4,0.1,0.7,0.1,1.1v2.6h-1v-9.3H53l0.1,0.9h0
			c0.2-0.4,0.5-0.6,0.9-0.8s0.7-0.2,1.1-0.2c0.9,0,1.5,0.3,2,0.9s0.7,1.4,0.7,2.4c0,1.1-0.2,1.9-0.7,2.5S56,136.1,55.2,136.1z
			 M55,130.3c-0.7,0-1.1,0.2-1.4,0.5s-0.4,0.9-0.5,1.7v0.2c0,0.9,0.2,1.5,0.5,1.9s0.8,0.6,1.4,0.6c0.6,0,1-0.2,1.3-0.7
			s0.5-1.1,0.5-1.9c0-0.8-0.2-1.4-0.5-1.8S55.6,130.3,55,130.3z"/>
		<path d="M62.3,136.1c-0.9,0-1.7-0.3-2.2-0.9s-0.8-1.4-0.8-2.4c0-1,0.3-1.9,0.8-2.5s1.2-0.9,2.1-0.9c0.8,0,1.4,0.3,1.9,0.8
			s0.7,1.2,0.7,2.1v0.6h-4.4c0,0.8,0.2,1.3,0.6,1.7s0.9,0.6,1.5,0.6c0.7,0,1.4-0.1,2.1-0.4v0.9c-0.3,0.1-0.7,0.3-1,0.3
			S62.7,136.1,62.3,136.1z M62,130.3c-0.5,0-0.9,0.2-1.2,0.5s-0.5,0.8-0.5,1.4h3.4c0-0.6-0.1-1.1-0.4-1.4S62.5,130.3,62,130.3z"/>
		<path d="M67.2,136h-1v-9.1h1V136z"/>
		<path d="M69.2,127.9c0-0.2,0.1-0.4,0.2-0.5s0.2-0.2,0.4-0.2c0.2,0,0.3,0.1,0.4,0.2s0.2,0.3,0.2,0.5s-0.1,0.4-0.2,0.5
			s-0.2,0.2-0.4,0.2c-0.2,0-0.3-0.1-0.4-0.2S69.2,128.1,69.2,127.9z M70.3,136h-1v-6.4h1V136z"/>
		<path d="M76.7,136v-4.2c0-0.5-0.1-0.9-0.4-1.2s-0.6-0.4-1.1-0.4c-0.7,0-1.2,0.2-1.5,0.5s-0.5,1-0.5,1.8v3.4h-1v-6.4h0.8l0.2,0.9h0
			c0.2-0.3,0.5-0.6,0.8-0.7s0.8-0.3,1.2-0.3c0.8,0,1.4,0.2,1.7,0.6s0.6,1,0.6,1.8v4.2H76.7z"/>
		<path d="M82.4,136.1c-0.9,0-1.7-0.3-2.2-0.9s-0.8-1.4-0.8-2.4c0-1,0.3-1.9,0.8-2.5s1.2-0.9,2.1-0.9c0.8,0,1.4,0.3,1.9,0.8
			s0.7,1.2,0.7,2.1v0.6h-4.4c0,0.8,0.2,1.3,0.6,1.7s0.9,0.6,1.5,0.6c0.7,0,1.4-0.1,2.1-0.4v0.9c-0.3,0.1-0.7,0.3-1,0.3
			S82.9,136.1,82.4,136.1z M82.2,130.3c-0.5,0-0.9,0.2-1.2,0.5s-0.5,0.8-0.5,1.4h3.4c0-0.6-0.1-1.1-0.4-1.4S82.7,130.3,82.2,130.3z"
			/>
	</g>
	<g>
		<path class="st0" d="M86.9,184.3h2.9v4.2c-0.5,0.1-0.9,0.3-1.4,0.3s-1,0.1-1.6,0.1c-1.3,0-2.3-0.4-3-1.2s-1.1-1.9-1.1-3.2
			c0-0.9,0.2-1.7,0.5-2.3s0.9-1.2,1.5-1.5s1.5-0.5,2.4-0.5c0.9,0,1.8,0.2,2.6,0.5l-0.4,0.9c-0.8-0.3-1.5-0.5-2.2-0.5
			c-1,0-1.9,0.3-2.4,0.9s-0.9,1.5-0.9,2.6c0,1.2,0.3,2,0.8,2.6s1.4,0.9,2.5,0.9c0.6,0,1.2-0.1,1.7-0.2v-2.6h-1.9V184.3z"/>
		<path class="st0" d="M95.7,188.8l-0.2-0.9h0c-0.3,0.4-0.6,0.7-1,0.8s-0.7,0.2-1.2,0.2c-0.6,0-1.1-0.2-1.5-0.5s-0.5-0.8-0.5-1.4
			c0-1.3,1-2,3.1-2l1.1,0v-0.4c0-0.5-0.1-0.9-0.3-1.1s-0.6-0.4-1-0.4c-0.5,0-1.1,0.2-1.8,0.5l-0.3-0.7c0.3-0.2,0.7-0.3,1-0.4
			s0.8-0.1,1.1-0.1c0.8,0,1.3,0.2,1.7,0.5s0.6,0.9,0.6,1.6v4.4H95.7z M93.5,188.1c0.6,0,1.1-0.2,1.4-0.5s0.5-0.8,0.5-1.4v-0.6l-1,0
			c-0.8,0-1.3,0.1-1.7,0.4s-0.5,0.5-0.5,1c0,0.4,0.1,0.6,0.3,0.8S93.1,188.1,93.5,188.1z"/>
		<path class="st0" d="M99.4,188.8h-1v-9.1h1V188.8z"/>
		<path class="st0" d="M105.4,188.8l-0.2-0.9h0c-0.3,0.4-0.6,0.7-1,0.8s-0.7,0.2-1.2,0.2c-0.6,0-1.1-0.2-1.5-0.5s-0.5-0.8-0.5-1.4
			c0-1.3,1-2,3.1-2l1.1,0v-0.4c0-0.5-0.1-0.9-0.3-1.1s-0.6-0.4-1-0.4c-0.5,0-1.1,0.2-1.8,0.5l-0.3-0.7c0.3-0.2,0.7-0.3,1-0.4
			s0.8-0.1,1.1-0.1c0.8,0,1.3,0.2,1.7,0.5s0.6,0.9,0.6,1.6v4.4H105.4z M103.2,188.1c0.6,0,1.1-0.2,1.4-0.5s0.5-0.8,0.5-1.4v-0.6
			l-1,0c-0.8,0-1.3,0.1-1.7,0.4s-0.5,0.5-0.5,1c0,0.4,0.1,0.6,0.3,0.8S102.8,188.1,103.2,188.1z"/>
		<path class="st0" d="M112.3,187.1c0,0.6-0.2,1.1-0.7,1.4s-1.1,0.5-1.9,0.5c-0.9,0-1.5-0.1-2-0.4v-0.9c0.3,0.2,0.6,0.3,1,0.4
			s0.7,0.1,1,0.1c0.5,0,0.9-0.1,1.2-0.2s0.4-0.4,0.4-0.7c0-0.2-0.1-0.5-0.3-0.6s-0.6-0.4-1.3-0.6c-0.6-0.2-1-0.4-1.3-0.6
			s-0.4-0.4-0.6-0.6s-0.2-0.5-0.2-0.8c0-0.5,0.2-0.9,0.6-1.2s1-0.5,1.8-0.5c0.7,0,1.4,0.1,2,0.4l-0.3,0.8c-0.6-0.3-1.2-0.4-1.8-0.4
			c-0.5,0-0.8,0.1-1,0.2s-0.4,0.3-0.4,0.6c0,0.2,0,0.3,0.1,0.4s0.2,0.2,0.4,0.3s0.6,0.3,1.1,0.5c0.8,0.3,1.3,0.6,1.5,0.8
			S112.3,186.6,112.3,187.1z"/>
		<path class="st0" d="M117.8,188.8l-0.2-0.9h0c-0.3,0.4-0.6,0.7-1,0.8s-0.7,0.2-1.2,0.2c-0.6,0-1.1-0.2-1.5-0.5s-0.5-0.8-0.5-1.4
			c0-1.3,1-2,3.1-2l1.1,0v-0.4c0-0.5-0.1-0.9-0.3-1.1s-0.6-0.4-1-0.4c-0.5,0-1.1,0.2-1.8,0.5l-0.3-0.7c0.3-0.2,0.7-0.3,1-0.4
			s0.8-0.1,1.1-0.1c0.8,0,1.3,0.2,1.7,0.5s0.6,0.9,0.6,1.6v4.4H117.8z M115.6,188.1c0.6,0,1.1-0.2,1.4-0.5s0.5-0.8,0.5-1.4v-0.6
			l-1,0c-0.8,0-1.3,0.1-1.7,0.4s-0.5,0.5-0.5,1c0,0.4,0.1,0.6,0.3,0.8S115.2,188.1,115.6,188.1z"/>
		<path class="st0" d="M125.7,188.1c0.2,0,0.3,0,0.5,0s0.3-0.1,0.4-0.1v0.7c-0.1,0.1-0.3,0.1-0.5,0.1s-0.4,0-0.6,0
			c-1.2,0-1.9-0.7-1.9-2v-3.8h-0.9v-0.5l0.9-0.4l0.4-1.4h0.6v1.5h1.9v0.8h-1.9v3.8c0,0.4,0.1,0.7,0.3,0.9S125.4,188.1,125.7,188.1z"
			/>
		<path class="st0" d="M130.6,188.9c-0.9,0-1.7-0.3-2.2-0.9s-0.8-1.4-0.8-2.4c0-1,0.3-1.9,0.8-2.5s1.2-0.9,2.1-0.9
			c0.8,0,1.4,0.3,1.9,0.8s0.7,1.2,0.7,2.1v0.6h-4.4c0,0.8,0.2,1.3,0.6,1.7s0.9,0.6,1.5,0.6c0.7,0,1.4-0.1,2.1-0.4v0.9
			c-0.3,0.1-0.7,0.3-1,0.3S131,188.9,130.6,188.9z M130.4,183.1c-0.5,0-0.9,0.2-1.2,0.5s-0.5,0.8-0.5,1.4h3.4c0-0.6-0.1-1.1-0.4-1.4
			S130.9,183.1,130.4,183.1z"/>
		<path class="st0" d="M138.8,187.1c0,0.6-0.2,1.1-0.7,1.4s-1.1,0.5-1.9,0.5c-0.9,0-1.5-0.1-2-0.4v-0.9c0.3,0.2,0.6,0.3,1,0.4
			s0.7,0.1,1,0.1c0.5,0,0.9-0.1,1.2-0.2s0.4-0.4,0.4-0.7c0-0.2-0.1-0.5-0.3-0.6s-0.6-0.4-1.3-0.6c-0.6-0.2-1-0.4-1.3-0.6
			s-0.4-0.4-0.6-0.6s-0.2-0.5-0.2-0.8c0-0.5,0.2-0.9,0.6-1.2s1-0.5,1.8-0.5c0.7,0,1.4,0.1,2,0.4l-0.3,0.8c-0.6-0.3-1.2-0.4-1.8-0.4
			c-0.5,0-0.8,0.1-1,0.2s-0.4,0.3-0.4,0.6c0,0.2,0,0.3,0.1,0.4s0.2,0.2,0.4,0.3s0.6,0.3,1.1,0.5c0.8,0.3,1.3,0.6,1.5,0.8
			S138.8,186.6,138.8,187.1z"/>
		<path class="st0" d="M142.4,188.1c0.2,0,0.3,0,0.5,0s0.3-0.1,0.4-0.1v0.7c-0.1,0.1-0.3,0.1-0.5,0.1s-0.4,0-0.6,0
			c-1.2,0-1.9-0.7-1.9-2v-3.8h-0.9v-0.5l0.9-0.4l0.4-1.4h0.6v1.5h1.9v0.8h-1.9v3.8c0,0.4,0.1,0.7,0.3,0.9S142.1,188.1,142.4,188.1z"
			/>
	</g>
	<g>
		<path class="st0" d="M271.9,182.3c0,0.5-0.2,1-0.5,1.3s-0.7,0.6-1.3,0.7v0c0.7,0.1,1.2,0.3,1.5,0.7s0.5,0.8,0.5,1.4
			c0,0.8-0.3,1.4-0.8,1.9s-1.4,0.7-2.4,0.7c-0.5,0-0.9,0-1.2-0.1s-0.7-0.2-1.1-0.4v-0.9c0.4,0.2,0.8,0.3,1.2,0.4s0.8,0.1,1.2,0.1
			c1.5,0,2.2-0.6,2.2-1.7c0-1-0.8-1.6-2.4-1.6h-0.8V184h0.9c0.7,0,1.2-0.1,1.6-0.4s0.6-0.7,0.6-1.2c0-0.4-0.1-0.7-0.4-1
			s-0.7-0.4-1.2-0.4c-0.4,0-0.7,0.1-1.1,0.2s-0.7,0.3-1.1,0.6l-0.5-0.7c0.4-0.3,0.8-0.5,1.2-0.7s0.9-0.2,1.5-0.2
			c0.8,0,1.5,0.2,1.9,0.6S271.9,181.6,271.9,182.3z"/>
		<path class="st0" d="M279.1,188.8h-5.6V188l2.3-2.3c0.7-0.7,1.1-1.2,1.4-1.5s0.4-0.6,0.5-0.9s0.2-0.6,0.2-0.9
			c0-0.5-0.1-0.8-0.4-1.1s-0.7-0.4-1.2-0.4c-0.4,0-0.7,0.1-1,0.2s-0.7,0.3-1.1,0.6l-0.5-0.7c0.8-0.7,1.6-1,2.6-1
			c0.8,0,1.4,0.2,1.9,0.6s0.7,1,0.7,1.7c0,0.5-0.2,1.1-0.5,1.6s-0.9,1.2-1.7,2l-1.9,1.8v0h4.4V188.8z"/>
		<path class="st0" d="M281.4,188.8l3.6-7.7h-4.7v-0.9h5.7v0.8l-3.5,7.8H281.4z"/>
		<path class="st0" d="M292.8,184.5c0,1.5-0.2,2.6-0.7,3.3s-1.2,1.1-2.1,1.1c-0.9,0-1.6-0.4-2.1-1.1s-0.7-1.8-0.7-3.3
			c0-1.5,0.2-2.6,0.7-3.3s1.2-1.1,2.1-1.1c0.9,0,1.6,0.4,2.1,1.1S292.8,183.1,292.8,184.5z M288.2,184.5c0,1.2,0.1,2.2,0.4,2.7
			s0.8,0.9,1.4,0.9c0.6,0,1.1-0.3,1.4-0.9s0.4-1.5,0.4-2.7s-0.1-2.1-0.4-2.7s-0.8-0.9-1.4-0.9c-0.6,0-1.1,0.3-1.4,0.8
			S288.2,183.3,288.2,184.5z"/>
		<path class="st0" d="M300.3,188.9c-0.9,0-1.7-0.3-2.2-0.9s-0.8-1.4-0.8-2.4c0-1,0.3-1.9,0.8-2.5s1.2-0.9,2.1-0.9
			c0.8,0,1.4,0.3,1.9,0.8s0.7,1.2,0.7,2.1v0.6h-4.4c0,0.8,0.2,1.3,0.6,1.7s0.9,0.6,1.5,0.6c0.7,0,1.4-0.1,2.1-0.4v0.9
			c-0.3,0.1-0.7,0.3-1,0.3S300.7,188.9,300.3,188.9z M300,183.1c-0.5,0-0.9,0.2-1.2,0.5s-0.5,0.8-0.5,1.4h3.4c0-0.6-0.1-1.1-0.4-1.4
			S300.6,183.1,300,183.1z"/>
		<path class="st0" d="M312.5,188.8v-4.2c0-0.5-0.1-0.9-0.3-1.2s-0.6-0.4-1-0.4c-0.6,0-1.1,0.2-1.3,0.5s-0.4,0.9-0.4,1.6v3.6h-1
			v-4.2c0-0.5-0.1-0.9-0.3-1.2s-0.6-0.4-1-0.4c-0.6,0-1.1,0.2-1.3,0.5s-0.4,1-0.4,1.8v3.4h-1v-6.4h0.8l0.2,0.9h0
			c0.2-0.3,0.4-0.6,0.8-0.7s0.7-0.3,1.1-0.3c1,0,1.7,0.4,2,1.1h0c0.2-0.3,0.5-0.6,0.8-0.8s0.8-0.3,1.2-0.3c0.7,0,1.3,0.2,1.6,0.6
			s0.5,1,0.5,1.8v4.2H312.5z"/>
		<path class="st0" d="M316.4,182.4v4.2c0,0.5,0.1,0.9,0.4,1.2s0.6,0.4,1.1,0.4c0.7,0,1.2-0.2,1.5-0.6s0.5-1,0.5-1.8v-3.4h1v6.4H320
			l-0.1-0.9h-0.1c-0.2,0.3-0.5,0.6-0.8,0.7s-0.8,0.3-1.2,0.3c-0.8,0-1.4-0.2-1.8-0.6s-0.6-1-0.6-1.8v-4.2H316.4z"/>
		<path class="st0" d="M323.8,188.8h-1v-9.1h1V188.8z"/>
		<path class="st0" d="M329.8,188.8l-0.2-0.9h0c-0.3,0.4-0.6,0.7-1,0.8s-0.7,0.2-1.2,0.2c-0.6,0-1.1-0.2-1.5-0.5s-0.5-0.8-0.5-1.4
			c0-1.3,1-2,3.1-2l1.1,0v-0.4c0-0.5-0.1-0.9-0.3-1.1s-0.6-0.4-1-0.4c-0.5,0-1.1,0.2-1.8,0.5l-0.3-0.7c0.3-0.2,0.7-0.3,1-0.4
			s0.8-0.1,1.1-0.1c0.8,0,1.3,0.2,1.7,0.5s0.6,0.9,0.6,1.6v4.4H329.8z M327.6,188.1c0.6,0,1.1-0.2,1.4-0.5s0.5-0.8,0.5-1.4v-0.6
			l-1,0c-0.8,0-1.3,0.1-1.7,0.4s-0.5,0.5-0.5,1c0,0.4,0.1,0.6,0.3,0.8S327.3,188.1,327.6,188.1z"/>
		<path class="st0" d="M334.6,188.1c0.2,0,0.3,0,0.5,0s0.3-0.1,0.4-0.1v0.7c-0.1,0.1-0.3,0.1-0.5,0.1s-0.4,0-0.6,0
			c-1.2,0-1.9-0.7-1.9-2v-3.8h-0.9v-0.5l0.9-0.4l0.4-1.4h0.6v1.5h1.9v0.8h-1.9v3.8c0,0.4,0.1,0.7,0.3,0.9S334.3,188.1,334.6,188.1z"
			/>
		<path class="st0" d="M342.3,185.6c0,1-0.3,1.9-0.8,2.5s-1.3,0.9-2.2,0.9c-0.6,0-1.1-0.1-1.5-0.4s-0.8-0.7-1-1.2s-0.4-1.1-0.4-1.8
			c0-1,0.3-1.9,0.8-2.4s1.2-0.9,2.2-0.9c0.9,0,1.6,0.3,2.1,0.9S342.3,184.6,342.3,185.6z M337.4,185.6c0,0.8,0.2,1.4,0.5,1.9
			s0.8,0.6,1.4,0.6s1.1-0.2,1.5-0.6s0.5-1.1,0.5-1.9c0-0.8-0.2-1.4-0.5-1.9s-0.8-0.6-1.5-0.6c-0.6,0-1.1,0.2-1.4,0.6
			S337.4,184.8,337.4,185.6z"/>
		<path class="st0" d="M347,182.3c0.3,0,0.5,0,0.8,0.1l-0.1,0.9c-0.3-0.1-0.5-0.1-0.7-0.1c-0.5,0-1,0.2-1.3,0.6s-0.6,0.9-0.6,1.6
			v3.4h-1v-6.4h0.8l0.1,1.2h0c0.2-0.4,0.5-0.7,0.9-1S346.6,182.3,347,182.3z"/>
	</g>
</g>
</svg>
