<svg id="Layer_1" data-name="Layer 1" xmlns="http://www.w3.org/2000/svg" viewBox="0 0 637.5 262.5"><title>galasa-architecture</title><rect x="0.8" width="636.7" height="46.88" fill="#3f7dbf"/><path d="M219,34.05h-2.49V14.85h-6.78V12.63h16.06v2.22H219Z" fill="#fff"/><path d="M235.41,34.34a7.35,7.35,0,0,1-5.62-2.17,8.39,8.39,0,0,1-2.06-6A9.32,9.32,0,0,1,229.64,20a6.35,6.35,0,0,1,5.14-2.29,6,6,0,0,1,4.77,2,7.61,7.61,0,0,1,1.76,5.23v1.54H230.25a6.31,6.31,0,0,0,1.43,4.29,4.91,4.91,0,0,0,3.81,1.47,12.82,12.82,0,0,0,5.13-1.09V33.3a12.82,12.82,0,0,1-2.44.8A13.79,13.79,0,0,1,235.41,34.34Zm-.66-14.6A4,4,0,0,0,231.66,21a5.8,5.8,0,0,0-1.35,3.48h8.39a5.37,5.37,0,0,0-1-3.52A3.63,3.63,0,0,0,234.75,19.74Z" fill="#fff"/><path d="M255.81,29.67a4,4,0,0,1-1.67,3.46,7.86,7.86,0,0,1-4.69,1.21,10.12,10.12,0,0,1-5-1V31.08A12.29,12.29,0,0,0,247,32a10.53,10.53,0,0,0,2.55.34,5.84,5.84,0,0,0,2.93-.61,2.09,2.09,0,0,0,.21-3.46,12.77,12.77,0,0,0-3.17-1.57,17.79,17.79,0,0,1-3.18-1.46,4.5,4.5,0,0,1-1.41-1.41,3.68,3.68,0,0,1-.46-1.89,3.59,3.59,0,0,1,1.6-3.1,7.4,7.4,0,0,1,4.38-1.14,12.69,12.69,0,0,1,5.06,1.06l-.86,2a11.68,11.68,0,0,0-4.38-1,5.08,5.08,0,0,0-2.61.54,1.69,1.69,0,0,0-.88,1.49,1.82,1.82,0,0,0,.33,1.1,3.33,3.33,0,0,0,1.06.87A23.48,23.48,0,0,0,251,24.92a10.7,10.7,0,0,1,3.86,2.1A3.69,3.69,0,0,1,255.81,29.67Z" fill="#fff"/><path d="M265,32.34a8.44,8.44,0,0,0,1.25-.1,7.25,7.25,0,0,0,.95-.2V33.9a4.23,4.23,0,0,1-1.17.32,9,9,0,0,1-1.38.12q-4.67,0-4.66-4.9V19.88h-2.3V18.71l2.3-1,1-3.43h1.4V18H267v1.88h-4.66v9.45a3.25,3.25,0,0,0,.69,2.23A2.39,2.39,0,0,0,265,32.34Z" fill="#fff"/><path d="M285.39,19.88H281.3V34.05h-2.43V19.88H276V18.79l2.87-.88V17q0-5.91,5.17-5.91a10.74,10.74,0,0,1,3,.51l-.63,2A7.87,7.87,0,0,0,284,13.1a2.34,2.34,0,0,0-2,.92A5.11,5.11,0,0,0,281.3,17v1h4.09Z" fill="#fff"/><path d="M295.64,17.7a9.35,9.35,0,0,1,1.92.18l-.34,2.25a8.7,8.7,0,0,0-1.76-.22,4.27,4.27,0,0,0-3.33,1.59,5.76,5.76,0,0,0-1.38,3.94v8.61h-2.43V18h2l.28,3h.12a7,7,0,0,1,2.15-2.42A4.89,4.89,0,0,1,295.64,17.7Z" fill="#fff"/><path d="M310.43,34.05,310,31.76h-.12a6.81,6.81,0,0,1-2.39,2.05,7.43,7.43,0,0,1-3,.53,5.35,5.35,0,0,1-3.74-1.23,4.47,4.47,0,0,1-1.36-3.5q0-4.86,7.78-5.1l2.72-.08v-1a4.08,4.08,0,0,0-.81-2.79,3.34,3.34,0,0,0-2.6-.9A10.59,10.59,0,0,0,301.91,21l-.75-1.86a11.25,11.25,0,0,1,2.6-1,11,11,0,0,1,2.84-.37A6.1,6.1,0,0,1,310.85,19a5.32,5.32,0,0,1,1.39,4.08v11Zm-5.49-1.71a5,5,0,0,0,3.57-1.25,4.62,4.62,0,0,0,1.29-3.49V26.15l-2.43.11a8.91,8.91,0,0,0-4.18.9,2.72,2.72,0,0,0-1.28,2.48,2.52,2.52,0,0,0,.8,2A3.29,3.29,0,0,0,304.94,32.34Z" fill="#fff"/><path d="M337.71,34.05V23.61a4.32,4.32,0,0,0-.82-2.88,3.18,3.18,0,0,0-2.55-1,4.1,4.1,0,0,0-3.35,1.3,6.15,6.15,0,0,0-1.09,4v9h-2.43V23.61a4.32,4.32,0,0,0-.82-2.88,3.19,3.19,0,0,0-2.56-1,4,4,0,0,0-3.35,1.37,7.39,7.39,0,0,0-1.06,4.49v8.42h-2.43V18h2l.4,2.19h.12a4.76,4.76,0,0,1,1.94-1.83,5.9,5.9,0,0,1,2.8-.66q3.76,0,4.92,2.73h.12a5.14,5.14,0,0,1,2.08-2,6.55,6.55,0,0,1,3.11-.73,5.47,5.47,0,0,1,4.08,1.4,6.28,6.28,0,0,1,1.35,4.48V34.05Z" fill="#fff"/><path d="M351.93,34.34a7.34,7.34,0,0,1-5.61-2.17,8.35,8.35,0,0,1-2.06-6A9.32,9.32,0,0,1,346.17,20a6.33,6.33,0,0,1,5.13-2.29,6,6,0,0,1,4.78,2,7.61,7.61,0,0,1,1.76,5.23v1.54H346.78a6.31,6.31,0,0,0,1.43,4.29A4.91,4.91,0,0,0,352,32.22a12.82,12.82,0,0,0,5.13-1.09V33.3a12.82,12.82,0,0,1-2.44.8A13.83,13.83,0,0,1,351.93,34.34Zm-.66-14.6A4,4,0,0,0,348.19,21a5.73,5.73,0,0,0-1.35,3.48h8.39a5.32,5.32,0,0,0-1-3.52A3.62,3.62,0,0,0,351.27,19.74Z" fill="#fff"/><path d="M375.09,34.05l-2.94-9.42c-.19-.58-.53-1.88-1-3.92H371c-.39,1.7-.73,3-1,3.95l-3,9.39h-2.81l-4.38-16h2.55c1,4,1.82,7.1,2.37,9.21a38.37,38.37,0,0,1,.93,4.26h.11c.11-.55.28-1.28.52-2.16s.45-1.58.63-2.1L369.79,18h2.64l2.87,9.21a31.33,31.33,0,0,1,1.11,4.23h.12a15.6,15.6,0,0,1,.31-1.62q.26-1.11,3.06-11.82h2.52l-4.44,16Z" fill="#fff"/><path d="M399.17,26a8.86,8.86,0,0,1-2,6.13,7,7,0,0,1-5.47,2.2,7.17,7.17,0,0,1-3.82-1,6.7,6.7,0,0,1-2.58-2.9,10.17,10.17,0,0,1-.91-4.42,8.85,8.85,0,0,1,2-6.12,6.94,6.94,0,0,1,5.45-2.19,6.8,6.8,0,0,1,5.35,2.24A8.86,8.86,0,0,1,399.17,26Zm-12.23,0a7.64,7.64,0,0,0,1.23,4.69,4.89,4.89,0,0,0,7.25,0A7.6,7.6,0,0,0,396.66,26a7.49,7.49,0,0,0-1.24-4.65,4.37,4.37,0,0,0-3.66-1.59,4.28,4.28,0,0,0-3.6,1.56A7.58,7.58,0,0,0,386.94,26Z" fill="#fff"/><path d="M410.76,17.7a9.35,9.35,0,0,1,1.92.18l-.34,2.25a8.69,8.69,0,0,0-1.75-.22,4.29,4.29,0,0,0-3.34,1.59,5.76,5.76,0,0,0-1.38,3.94v8.61h-2.43V18h2l.28,3h.12A7.09,7.09,0,0,1,408,18.55,4.92,4.92,0,0,1,410.76,17.7Z" fill="#fff"/><path d="M418.09,25.83c.42-.59,1.06-1.37,1.91-2.34L425.19,18h2.89l-6.51,6.84,7,9.21h-2.94l-5.67-7.59L418.09,28v6h-2.41V11.26h2.41V23.34q0,.81-.12,2.49Z" fill="#fff"/><rect x="215.63" y="50.63" width="206.25" height="37.5" fill="#424241"/><rect x="5" y="50.63" width="206.25" height="37.5" fill="#212120"/><path d="M36.11,74.82V73.46L41.94,67H36.31V65.79h7.15v1.37l-5.82,6.46h6v1.2Z" fill="#fff"/><path d="M50.38,75a4.27,4.27,0,0,1-1.71-.33,3.62,3.62,0,0,1-1.3-1,4.46,4.46,0,0,1-.81-1.49,6.9,6.9,0,0,1,0-3.89,4.41,4.41,0,0,1,.81-1.5,3.62,3.62,0,0,1,1.3-1,4.28,4.28,0,0,1,1.71-.34,4.23,4.23,0,0,1,1.7.34,3.62,3.62,0,0,1,1.3,1,4.41,4.41,0,0,1,.81,1.5,6.9,6.9,0,0,1,0,3.89,4.46,4.46,0,0,1-.81,1.49,3.62,3.62,0,0,1-1.3,1A4.23,4.23,0,0,1,50.38,75Zm0-1.2a2.62,2.62,0,0,0,1.89-.7A3,3,0,0,0,53,71v-1.3a3,3,0,0,0-.71-2.17,2.62,2.62,0,0,0-1.89-.7,2.59,2.59,0,0,0-1.89.7,2.91,2.91,0,0,0-.72,2.17V71a2.91,2.91,0,0,0,.72,2.17A2.59,2.59,0,0,0,50.38,73.83Z" fill="#fff"/><path d="M61,75a5.71,5.71,0,0,1-2.44-.48,5.46,5.46,0,0,1-1.74-1.28l.94-.83a4.67,4.67,0,0,0,1.42,1,4.2,4.2,0,0,0,1.86.37,3.51,3.51,0,0,0,1.72-.37,1.26,1.26,0,0,0,.67-1.19,1.16,1.16,0,0,0-.13-.58,1,1,0,0,0-.36-.38,2.52,2.52,0,0,0-.5-.22l-.6-.13-1.42-.21c-.31,0-.65-.11-1-.19a3.42,3.42,0,0,1-1-.39,2.51,2.51,0,0,1-.76-.73,2.12,2.12,0,0,1-.3-1.19,2.32,2.32,0,0,1,1-2,3.44,3.44,0,0,1,1.15-.51A6.09,6.09,0,0,1,61,65.58a5.31,5.31,0,0,1,2.12.39A4.58,4.58,0,0,1,64.62,67l-.91.85a4.76,4.76,0,0,0-.39-.39,2.9,2.9,0,0,0-.58-.37,3.74,3.74,0,0,0-.8-.27,4.68,4.68,0,0,0-1-.1,3.05,3.05,0,0,0-1.63.36,1.21,1.21,0,0,0-.57,1.07,1.17,1.17,0,0,0,.13.59,1,1,0,0,0,.36.37,1.68,1.68,0,0,0,.51.22,4.16,4.16,0,0,0,.59.13l1.42.21c.32.05.67.12,1,.2a3.47,3.47,0,0,1,1,.39,2.3,2.3,0,0,1,.76.73,2.12,2.12,0,0,1,.31,1.19,2.39,2.39,0,0,1-1,2.08A4.69,4.69,0,0,1,61,75Z" fill="#fff"/><path d="M67.7,74.82V62.61h7.7v1.28H69.17V68h5.71v1.28H69.17v5.54Z" fill="#fff"/><path d="M78.48,73.62h3.26V67H78.48V65.79h4.66v7.83h3v1.2h-7.7Zm4-9.82a1.16,1.16,0,0,1-.86-.25.92.92,0,0,1-.25-.64v-.28a.9.9,0,0,1,.25-.64,1.54,1.54,0,0,1,1.71,0,.86.86,0,0,1,.25.64v.28a.87.87,0,0,1-.25.64A1.15,1.15,0,0,1,82.44,63.8Z" fill="#fff"/><path d="M88.53,73.62h3.15V63.08H88.53V61.87h4.55V73.62h3.15v1.2h-7.7Z" fill="#fff"/><path d="M103,75a4.49,4.49,0,0,1-1.76-.33,3.82,3.82,0,0,1-1.33-1,4.34,4.34,0,0,1-.84-1.49,5.88,5.88,0,0,1-.3-1.93,6,6,0,0,1,.3-2,4.66,4.66,0,0,1,.85-1.5,3.65,3.65,0,0,1,1.31-1,4.18,4.18,0,0,1,1.69-.34,4.06,4.06,0,0,1,1.65.34,3.67,3.67,0,0,1,1.27.92,3.9,3.9,0,0,1,.8,1.39A5.2,5.2,0,0,1,107,70v.67h-6.68v.42a3,3,0,0,0,.19,1.1,2.4,2.4,0,0,0,1.43,1.45,3.17,3.17,0,0,0,1.14.2,2.89,2.89,0,0,0,1.58-.42,2.72,2.72,0,0,0,1-1.16l1,.7a3.38,3.38,0,0,1-1.34,1.5A4.26,4.26,0,0,1,103,75ZM103,66.74a2.69,2.69,0,0,0-1.07.21,2.62,2.62,0,0,0-1.41,1.44,3,3,0,0,0-.2,1.1v.12h5.18v-.19a2.94,2.94,0,0,0-.19-1.09,2.77,2.77,0,0,0-.5-.85,2.21,2.21,0,0,0-.79-.55A2.61,2.61,0,0,0,103,66.74Z" fill="#fff"/><path d="M116.09,68.7V64.83H116l-2.57,6.28-2.58-6.28h-.14v10h-1.34V62.61h1.89L113.36,68h.1l2.16-5.39h1.82V74.82h-1.35Z" fill="#fff"/><path d="M127.29,74.82a1.44,1.44,0,0,1-1.17-.42,2,2,0,0,1-.44-1.05h-.09a2.58,2.58,0,0,1-1,1.24,3.08,3.08,0,0,1-1.76.44,3.3,3.3,0,0,1-2.26-.73,2.53,2.53,0,0,1-.84-2,2.3,2.3,0,0,1,.92-2,5.08,5.08,0,0,1,3-.68h1.92v-.88a1.89,1.89,0,0,0-.56-1.49,2.31,2.31,0,0,0-1.59-.5A2.56,2.56,0,0,0,121,68.12l-.94-.7a2.87,2.87,0,0,1,.47-.68,3,3,0,0,1,.74-.6,4,4,0,0,1,1-.4,4.85,4.85,0,0,1,1.25-.16,3.7,3.7,0,0,1,2.52.81,2.8,2.8,0,0,1,.94,2.25v5h1.26v1.2Zm-4.17-1a3.44,3.44,0,0,0,1-.13,2.8,2.8,0,0,0,.78-.35,1.72,1.72,0,0,0,.52-.52,1.31,1.31,0,0,0,.18-.66V70.71h-1.92a3.71,3.71,0,0,0-1.84.35,1.12,1.12,0,0,0-.58,1v.36a1.23,1.23,0,0,0,.5,1.06A2.3,2.3,0,0,0,123.12,73.86Z" fill="#fff"/><path d="M130.84,74.82v-9h1.4v1.47h.07a3.25,3.25,0,0,1,.35-.63,2.05,2.05,0,0,1,.52-.54,2.71,2.71,0,0,1,.72-.37,3.22,3.22,0,0,1,1-.14,3,3,0,0,1,2.28.91A3.55,3.55,0,0,1,138,69v5.79h-1.4V69.28a2.66,2.66,0,0,0-.55-1.85,2,2,0,0,0-1.59-.6,3.23,3.23,0,0,0-.82.1,2.36,2.36,0,0,0-.72.32,1.65,1.65,0,0,0-.51.54,1.6,1.6,0,0,0-.19.77v6.26Z" fill="#fff"/><path d="M148.29,74.82a1.44,1.44,0,0,1-1.17-.42,2,2,0,0,1-.44-1.05h-.09a2.58,2.58,0,0,1-1,1.24,3.08,3.08,0,0,1-1.76.44,3.3,3.3,0,0,1-2.26-.73,2.53,2.53,0,0,1-.84-2,2.3,2.3,0,0,1,.92-2,5.08,5.08,0,0,1,3-.68h1.92v-.88a1.89,1.89,0,0,0-.56-1.49,2.31,2.31,0,0,0-1.59-.5A2.56,2.56,0,0,0,142,68.12l-.94-.7a2.87,2.87,0,0,1,.47-.68,3,3,0,0,1,.74-.6,4,4,0,0,1,1-.4,4.85,4.85,0,0,1,1.25-.16,3.7,3.7,0,0,1,2.52.81,2.8,2.8,0,0,1,.94,2.25v5h1.26v1.2Zm-4.17-1a3.44,3.44,0,0,0,1-.13,2.8,2.8,0,0,0,.78-.35,1.72,1.72,0,0,0,.52-.52,1.31,1.31,0,0,0,.18-.66V70.71h-1.92a3.71,3.71,0,0,0-1.84.35,1.12,1.12,0,0,0-.58,1v.36a1.23,1.23,0,0,0,.5,1.06A2.3,2.3,0,0,0,144.12,73.86Z" fill="#fff"/><path d="M159.94,75.87a2.18,2.18,0,0,1-1.13,2,7,7,0,0,1-3.42.65,6.46,6.46,0,0,1-3.14-.57,1.85,1.85,0,0,1-.95-1.67,1.59,1.59,0,0,1,.38-1.13,2.34,2.34,0,0,1,1.09-.6v-.21a1.56,1.56,0,0,1-.6-.49,1.28,1.28,0,0,1-.21-.75,1.23,1.23,0,0,1,.47-1,3.28,3.28,0,0,1,1.16-.53v-.07a2.83,2.83,0,0,1-1.3-1.08,3.26,3.26,0,0,1-.22-2.94,2.69,2.69,0,0,1,.71-1,3.37,3.37,0,0,1,1.11-.64,4.33,4.33,0,0,1,1.43-.23,4.21,4.21,0,0,1,1.79.37v-.16a1.48,1.48,0,0,1,.24-.86,1,1,0,0,1,.84-.34h1.67v1.2h-2v.62a3,3,0,0,1,.75,1,3.21,3.21,0,0,1,.26,1.3,3.12,3.12,0,0,1-.25,1.26,3,3,0,0,1-.71,1,3.27,3.27,0,0,1-1.11.64,4.46,4.46,0,0,1-1.45.22h-.43a3,3,0,0,1-.42-.06l-.44.12a1.65,1.65,0,0,0-.42.21,1.35,1.35,0,0,0-.32.31.71.71,0,0,0-.12.41.54.54,0,0,0,.4.54,3.41,3.41,0,0,0,1.05.13h2a4,4,0,0,1,2.54.65A2.18,2.18,0,0,1,159.94,75.87Zm-1.31.06a1,1,0,0,0-.44-.87,2.62,2.62,0,0,0-1.52-.32h-3.13a1.25,1.25,0,0,0-.91,1.22,1.36,1.36,0,0,0,.47,1,2.37,2.37,0,0,0,1.58.42H156A4,4,0,0,0,158,77,1.2,1.2,0,0,0,158.63,75.93Zm-3.31-5.2a2.12,2.12,0,0,0,1.55-.49,1.76,1.76,0,0,0,.5-1.3v-.5a1.72,1.72,0,0,0-.5-1.29,2.16,2.16,0,0,0-1.55-.48,2.14,2.14,0,0,0-1.54.48,1.75,1.75,0,0,0-.49,1.29v.5a1.79,1.79,0,0,0,.49,1.3A2.09,2.09,0,0,0,155.32,70.73Z" fill="#fff"/><path d="M166,75a4.49,4.49,0,0,1-1.76-.33,3.82,3.82,0,0,1-1.33-1,4.34,4.34,0,0,1-.84-1.49,5.88,5.88,0,0,1-.3-1.93,6,6,0,0,1,.3-2,4.66,4.66,0,0,1,.85-1.5,3.65,3.65,0,0,1,1.31-1,4.18,4.18,0,0,1,1.69-.34,4.06,4.06,0,0,1,1.65.34,3.67,3.67,0,0,1,1.27.92,3.9,3.9,0,0,1,.8,1.39A5.2,5.2,0,0,1,170,70v.67h-6.68v.42a3,3,0,0,0,.19,1.1,2.4,2.4,0,0,0,1.43,1.45,3.17,3.17,0,0,0,1.14.2,2.89,2.89,0,0,0,1.58-.42,2.72,2.72,0,0,0,1-1.16l1,.7a3.38,3.38,0,0,1-1.34,1.5A4.26,4.26,0,0,1,166,75ZM166,66.74a2.69,2.69,0,0,0-1.07.21,2.62,2.62,0,0,0-1.41,1.44,3,3,0,0,0-.2,1.1v.12h5.18v-.19a2.94,2.94,0,0,0-.19-1.09,2.77,2.77,0,0,0-.5-.85,2.21,2.21,0,0,0-.79-.55A2.61,2.61,0,0,0,166,66.74Z" fill="#fff"/><path d="M172.47,73.62h2.65V67h-2.65V65.79h4.05v2.28h.08a3,3,0,0,1,1.06-1.67,3.17,3.17,0,0,1,2-.61h1.26v1.4h-1.7a2.77,2.77,0,0,0-2,.7,2.4,2.4,0,0,0-.74,1.84v3.89H180v1.2h-7.55Z" fill="#fff"/><rect x="5" y="91.88" width="206.25" height="37.5" fill="#212120"/><path d="M30.86,116.07v-1.36l5.83-6.46H31.06V107h7.15v1.37l-5.82,6.46h6v1.2Z" fill="#fff"/><path d="M45.13,116.28a4.27,4.27,0,0,1-1.71-.33,3.62,3.62,0,0,1-1.3-1,4.46,4.46,0,0,1-.81-1.49,6.9,6.9,0,0,1,0-3.89,4.41,4.41,0,0,1,.81-1.5,3.62,3.62,0,0,1,1.3-1,4.28,4.28,0,0,1,1.71-.34,4.19,4.19,0,0,1,1.7.34,3.62,3.62,0,0,1,1.3,1,4.41,4.41,0,0,1,.81,1.5,6.9,6.9,0,0,1,0,3.89,4.46,4.46,0,0,1-.81,1.49,3.62,3.62,0,0,1-1.3,1A4.19,4.19,0,0,1,45.13,116.28Zm0-1.2a2.62,2.62,0,0,0,1.89-.7,3,3,0,0,0,.71-2.17v-1.3a3,3,0,0,0-.71-2.17,2.62,2.62,0,0,0-1.89-.7,2.59,2.59,0,0,0-1.89.7,2.91,2.91,0,0,0-.72,2.17v1.3a2.91,2.91,0,0,0,.72,2.17A2.59,2.59,0,0,0,45.13,115.08Z" fill="#fff"/><path d="M55.73,116.28a5.71,5.71,0,0,1-2.44-.48,5.46,5.46,0,0,1-1.74-1.28l.94-.83a4.79,4.79,0,0,0,1.42,1,4.2,4.2,0,0,0,1.86.37,3.51,3.51,0,0,0,1.72-.37,1.26,1.26,0,0,0,.67-1.19A1.16,1.16,0,0,0,58,113a.94.94,0,0,0-.36-.38,2.52,2.52,0,0,0-.5-.22l-.6-.13L55.15,112c-.31,0-.65-.11-1-.19a3.42,3.42,0,0,1-1-.39,2.51,2.51,0,0,1-.76-.73,2.12,2.12,0,0,1-.3-1.19,2.32,2.32,0,0,1,1-2,3.44,3.44,0,0,1,1.15-.51,6.09,6.09,0,0,1,1.46-.17,5.31,5.31,0,0,1,2.12.39,4.58,4.58,0,0,1,1.55,1.07l-.91.85a3.57,3.57,0,0,0-.39-.39,2.9,2.9,0,0,0-.58-.37,3.74,3.74,0,0,0-.8-.27,4.68,4.68,0,0,0-1-.1,3.05,3.05,0,0,0-1.63.36,1.21,1.21,0,0,0-.57,1.07,1.17,1.17,0,0,0,.13.59,1,1,0,0,0,.36.37,1.63,1.63,0,0,0,.52.22,3.75,3.75,0,0,0,.58.13l1.42.21c.33.05.67.12,1,.2a3.36,3.36,0,0,1,1,.39,2.3,2.3,0,0,1,.76.73,2.12,2.12,0,0,1,.31,1.19,2.4,2.4,0,0,1-1,2.08A4.74,4.74,0,0,1,55.73,116.28Z" fill="#fff"/><path d="M62.42,103.86h4.14a3.42,3.42,0,0,1,2.47.86,3,3,0,0,1,.89,2.29,2.58,2.58,0,0,1-.53,1.73,2.85,2.85,0,0,1-1.37.89v.06a3.41,3.41,0,0,1,1.69.92,2.64,2.64,0,0,1,.67,2,3.72,3.72,0,0,1-.25,1.38,3.29,3.29,0,0,1-.69,1.12,3.17,3.17,0,0,1-1,.74,3.12,3.12,0,0,1-1.3.27H62.42Zm4,5.3a2.27,2.27,0,0,0,1.45-.41,1.48,1.48,0,0,0,.52-1.25v-.68a1.51,1.51,0,0,0-.52-1.26,2.27,2.27,0,0,0-1.45-.42H63.89v4Zm.24,5.64a2.45,2.45,0,0,0,1.59-.46,1.66,1.66,0,0,0,.58-1.4v-.72a1.67,1.67,0,0,0-.58-1.39,2.45,2.45,0,0,0-1.59-.46H63.89v4.43Z" fill="#fff"/><path d="M80,116.07a1.44,1.44,0,0,1-1.17-.42,2,2,0,0,1-.44-1.05h-.09a2.52,2.52,0,0,1-1,1.24,3.08,3.08,0,0,1-1.76.44,3.3,3.3,0,0,1-2.26-.73,2.53,2.53,0,0,1-.84-2,2.3,2.3,0,0,1,.92-2,5.08,5.08,0,0,1,3-.68h1.92V110a1.89,1.89,0,0,0-.56-1.49,2.31,2.31,0,0,0-1.59-.5,2.56,2.56,0,0,0-2.42,1.33l-.94-.7a3.2,3.2,0,0,1,.47-.68,3,3,0,0,1,.74-.6,4,4,0,0,1,1-.4,4.85,4.85,0,0,1,1.25-.16,3.75,3.75,0,0,1,2.53.81,2.83,2.83,0,0,1,.93,2.25v5H81v1.2Zm-4.17-1a3.35,3.35,0,0,0,1-.13,2.8,2.8,0,0,0,.78-.35,1.61,1.61,0,0,0,.52-.52,1.31,1.31,0,0,0,.18-.66V112H76.42a3.71,3.71,0,0,0-1.84.35,1.12,1.12,0,0,0-.58,1v.36a1.23,1.23,0,0,0,.5,1.06A2.3,2.3,0,0,0,75.87,115.11Z" fill="#fff"/><path d="M87.56,116.07a1.88,1.88,0,0,1-1.51-.57,2.26,2.26,0,0,1-.48-1.49v-5.76h-3V107H84.8a.91.91,0,0,0,.64-.18.89.89,0,0,0,.18-.64v-2.36H87V107h4.11v1.21H87v6.62h4.11v1.2Z" fill="#fff"/><path d="M97.94,116.28a4.19,4.19,0,0,1-1.74-.34,3.5,3.5,0,0,1-1.29-1,4.08,4.08,0,0,1-.79-1.49,6.54,6.54,0,0,1-.27-1.94,6.23,6.23,0,0,1,.28-1.94,4.23,4.23,0,0,1,.8-1.5,3.55,3.55,0,0,1,1.28-1,4.21,4.21,0,0,1,1.71-.34,3.68,3.68,0,0,1,2.14.58,3.44,3.44,0,0,1,1.21,1.51l-1.12.59a2.14,2.14,0,0,0-.82-1.08,2.44,2.44,0,0,0-1.41-.39,2.9,2.9,0,0,0-1.09.2,2.37,2.37,0,0,0-.81.57,2.32,2.32,0,0,0-.5.88,3.52,3.52,0,0,0-.17,1.1v1.54a3.52,3.52,0,0,0,.17,1.1,2.27,2.27,0,0,0,1.32,1.45,3,3,0,0,0,1.12.2,2.51,2.51,0,0,0,1.5-.42,2.88,2.88,0,0,0,1-1.16l1,.68a3.65,3.65,0,0,1-1.25,1.51A3.78,3.78,0,0,1,97.94,116.28Z" fill="#fff"/><path d="M104.59,103.12H106v5.39h.07a3.25,3.25,0,0,1,.35-.63,2.05,2.05,0,0,1,.52-.54,2.71,2.71,0,0,1,.72-.37,3.22,3.22,0,0,1,1-.14,3,3,0,0,1,2.28.91,3.55,3.55,0,0,1,.86,2.54v5.79h-1.4v-5.54a2.66,2.66,0,0,0-.55-1.85,2,2,0,0,0-1.59-.6,3.23,3.23,0,0,0-.82.1,2.36,2.36,0,0,0-.72.32,1.65,1.65,0,0,0-.51.54,1.6,1.6,0,0,0-.19.77v6.26h-1.4Z" fill="#fff"/><path d="M121.34,110v-3.87h-.14l-2.57,6.28-2.58-6.28h-.14v10h-1.34V103.86h1.89l2.15,5.39h.1l2.16-5.39h1.82v12.21h-1.35Z" fill="#fff"/><path d="M132.54,116.07a1.44,1.44,0,0,1-1.17-.42,2,2,0,0,1-.44-1.05h-.09a2.52,2.52,0,0,1-1,1.24,3.08,3.08,0,0,1-1.76.44,3.3,3.3,0,0,1-2.26-.73,2.53,2.53,0,0,1-.84-2,2.3,2.3,0,0,1,.92-2,5.08,5.08,0,0,1,3-.68h1.92V110a1.89,1.89,0,0,0-.56-1.49,2.31,2.31,0,0,0-1.59-.5,2.56,2.56,0,0,0-2.42,1.33l-.94-.7a3.2,3.2,0,0,1,.47-.68,3,3,0,0,1,.74-.6,4,4,0,0,1,1-.4,4.85,4.85,0,0,1,1.25-.16,3.75,3.75,0,0,1,2.53.81,2.83,2.83,0,0,1,.93,2.25v5h1.26v1.2Zm-4.17-1a3.35,3.35,0,0,0,1-.13,2.8,2.8,0,0,0,.78-.35,1.61,1.61,0,0,0,.52-.52,1.31,1.31,0,0,0,.18-.66V112h-1.92a3.71,3.71,0,0,0-1.84.35,1.12,1.12,0,0,0-.58,1v.36a1.23,1.23,0,0,0,.5,1.06A2.3,2.3,0,0,0,128.37,115.11Z" fill="#fff"/><path d="M136.09,116.07v-9h1.4v1.47h.07a3.25,3.25,0,0,1,.35-.63,2.05,2.05,0,0,1,.52-.54,2.71,2.71,0,0,1,.72-.37,3.22,3.22,0,0,1,1-.14,3,3,0,0,1,2.28.91,3.55,3.55,0,0,1,.86,2.54v5.79h-1.4v-5.54a2.66,2.66,0,0,0-.55-1.85,2,2,0,0,0-1.59-.6,3.23,3.23,0,0,0-.82.1,2.36,2.36,0,0,0-.72.32,1.65,1.65,0,0,0-.51.54,1.6,1.6,0,0,0-.19.77v6.26Z" fill="#fff"/><path d="M153.54,116.07a1.44,1.44,0,0,1-1.17-.42,2,2,0,0,1-.44-1.05h-.09a2.52,2.52,0,0,1-1,1.24,3.08,3.08,0,0,1-1.76.44,3.3,3.3,0,0,1-2.26-.73,2.53,2.53,0,0,1-.84-2,2.3,2.3,0,0,1,.92-2,5.08,5.08,0,0,1,3-.68h1.92V110a1.89,1.89,0,0,0-.56-1.49,2.31,2.31,0,0,0-1.59-.5,2.56,2.56,0,0,0-2.42,1.33l-.94-.7a3.2,3.2,0,0,1,.47-.68,3,3,0,0,1,.74-.6,4,4,0,0,1,1-.4,4.85,4.85,0,0,1,1.25-.16,3.75,3.75,0,0,1,2.53.81,2.83,2.83,0,0,1,.93,2.25v5h1.26v1.2Zm-4.17-1a3.35,3.35,0,0,0,1-.13,2.8,2.8,0,0,0,.78-.35,1.61,1.61,0,0,0,.52-.52,1.31,1.31,0,0,0,.18-.66V112h-1.92a3.71,3.71,0,0,0-1.84.35,1.12,1.12,0,0,0-.58,1v.36a1.23,1.23,0,0,0,.5,1.06A2.3,2.3,0,0,0,149.37,115.11Z" fill="#fff"/><path d="M165.19,117.12a2.18,2.18,0,0,1-1.13,2,7,7,0,0,1-3.42.65,6.46,6.46,0,0,1-3.14-.57,1.85,1.85,0,0,1-.95-1.67,1.59,1.59,0,0,1,.38-1.13,2.34,2.34,0,0,1,1.09-.6v-.21a1.56,1.56,0,0,1-.6-.49,1.28,1.28,0,0,1-.21-.75,1.23,1.23,0,0,1,.47-1,3.28,3.28,0,0,1,1.16-.53v-.07a2.83,2.83,0,0,1-1.3-1.08,3,3,0,0,1-.47-1.68,3.22,3.22,0,0,1,.25-1.26,2.69,2.69,0,0,1,.71-1,3.37,3.37,0,0,1,1.11-.64,4.33,4.33,0,0,1,1.43-.23,4.17,4.17,0,0,1,1.79.37V107a1.48,1.48,0,0,1,.24-.86,1,1,0,0,1,.84-.34h1.67V107h-2v.62a3,3,0,0,1,.75,1,3.21,3.21,0,0,1,.26,1.3,3.12,3.12,0,0,1-.25,1.26,3,3,0,0,1-.71,1,3.18,3.18,0,0,1-1.11.64,4.46,4.46,0,0,1-1.45.22h-.43a3,3,0,0,1-.42-.06l-.44.12a1.65,1.65,0,0,0-.42.21,1.35,1.35,0,0,0-.32.31.71.71,0,0,0-.12.41.54.54,0,0,0,.4.54,3.41,3.41,0,0,0,1.05.13h2a4,4,0,0,1,2.54.65A2.18,2.18,0,0,1,165.19,117.12Zm-1.31.06a1,1,0,0,0-.44-.87,2.62,2.62,0,0,0-1.52-.32h-3.13a1.25,1.25,0,0,0-.91,1.22,1.36,1.36,0,0,0,.47,1,2.37,2.37,0,0,0,1.58.42h1.36a4,4,0,0,0,1.91-.37A1.2,1.2,0,0,0,163.88,117.18Zm-3.31-5.2a2.12,2.12,0,0,0,1.55-.49,1.72,1.72,0,0,0,.5-1.3v-.5a1.68,1.68,0,0,0-.5-1.29,2.16,2.16,0,0,0-1.55-.48,2.14,2.14,0,0,0-1.54.48,1.75,1.75,0,0,0-.49,1.29v.5a1.79,1.79,0,0,0,.49,1.3A2.09,2.09,0,0,0,160.57,112Z" fill="#fff"/><path d="M171.28,116.28a4.4,4.4,0,0,1-1.75-.33,3.64,3.64,0,0,1-1.33-1,4.2,4.2,0,0,1-.85-1.49,5.88,5.88,0,0,1-.3-1.93,6,6,0,0,1,.3-2,4.66,4.66,0,0,1,.85-1.5,3.74,3.74,0,0,1,1.31-1,4.21,4.21,0,0,1,1.69-.34,4.06,4.06,0,0,1,1.65.34,3.67,3.67,0,0,1,1.27.92,3.9,3.9,0,0,1,.8,1.39,5.2,5.2,0,0,1,.28,1.76v.67h-6.68v.42a3,3,0,0,0,.19,1.1,2.4,2.4,0,0,0,1.43,1.45,3.17,3.17,0,0,0,1.14.2,2.89,2.89,0,0,0,1.58-.42,2.72,2.72,0,0,0,1-1.16l1,.7a3.38,3.38,0,0,1-1.34,1.5A4.26,4.26,0,0,1,171.28,116.28ZM171.2,108a2.69,2.69,0,0,0-1.07.21,2.62,2.62,0,0,0-1.41,1.44,3,3,0,0,0-.2,1.1v.12h5.18v-.19a3.16,3.16,0,0,0-.18-1.09,3,3,0,0,0-.51-.85,2.21,2.21,0,0,0-.79-.55A2.61,2.61,0,0,0,171.2,108Z" fill="#fff"/><path d="M177.72,114.87h2.65v-6.62h-2.65V107h4.05v2.28h.08a3,3,0,0,1,1.06-1.67,3.17,3.17,0,0,1,2-.61h1.26v1.4h-1.7a2.77,2.77,0,0,0-2,.7,2.4,2.4,0,0,0-.74,1.84v3.89h3.5v1.2h-7.55Z" fill="#fff"/><rect x="5" y="133.13" width="206.25" height="37.5" fill="#212120"/><path d="M20.36,157.32V156l5.83-6.46H20.56v-1.21h7.15v1.37l-5.82,6.46h6v1.2Z" fill="#fff"/><path d="M34.63,157.54a4.28,4.28,0,0,1-1.71-.34,3.62,3.62,0,0,1-1.3-.95,4.46,4.46,0,0,1-.81-1.49,6.9,6.9,0,0,1,0-3.89,4.41,4.41,0,0,1,.81-1.5,3.62,3.62,0,0,1,1.3-1,4.28,4.28,0,0,1,1.71-.34,4.19,4.19,0,0,1,1.7.34,3.62,3.62,0,0,1,1.3,1,4.41,4.41,0,0,1,.81,1.5,6.9,6.9,0,0,1,0,3.89,4.46,4.46,0,0,1-.81,1.49,3.62,3.62,0,0,1-1.3.95A4.19,4.19,0,0,1,34.63,157.54Zm0-1.21a2.62,2.62,0,0,0,1.89-.7,3,3,0,0,0,.71-2.17v-1.3a3,3,0,0,0-.71-2.17,2.62,2.62,0,0,0-1.89-.7,2.59,2.59,0,0,0-1.89.7,2.91,2.91,0,0,0-.72,2.17v1.3a2.91,2.91,0,0,0,.72,2.17A2.59,2.59,0,0,0,34.63,156.33Z" fill="#fff"/><path d="M45.23,157.54a5.71,5.71,0,0,1-2.44-.49,5.46,5.46,0,0,1-1.74-1.28L42,155a4.93,4.93,0,0,0,1.42,1,4.2,4.2,0,0,0,1.86.37A3.51,3.51,0,0,0,47,156a1.26,1.26,0,0,0,.67-1.19,1.16,1.16,0,0,0-.13-.58.94.94,0,0,0-.36-.38,2.52,2.52,0,0,0-.5-.22l-.6-.13-1.42-.21c-.31,0-.65-.11-1-.19a3.42,3.42,0,0,1-1-.39,2.51,2.51,0,0,1-.76-.73,2.12,2.12,0,0,1-.3-1.19,2.32,2.32,0,0,1,1-2,3.44,3.44,0,0,1,1.15-.51,6.09,6.09,0,0,1,1.46-.17,5.31,5.31,0,0,1,2.12.39,4.58,4.58,0,0,1,1.55,1.07l-.91.85a3.57,3.57,0,0,0-.39-.39,2.9,2.9,0,0,0-.58-.37,3.74,3.74,0,0,0-.8-.27,4.68,4.68,0,0,0-1-.1,3.05,3.05,0,0,0-1.63.36,1.21,1.21,0,0,0-.57,1.07,1.17,1.17,0,0,0,.13.59,1,1,0,0,0,.36.37,1.63,1.63,0,0,0,.52.22,3.75,3.75,0,0,0,.58.13l1.42.21c.33,0,.67.12,1,.2a3.36,3.36,0,0,1,1,.39,2.3,2.3,0,0,1,.76.73,2.12,2.12,0,0,1,.31,1.19,2.4,2.4,0,0,1-1,2.08A4.74,4.74,0,0,1,45.23,157.54Z" fill="#fff"/><path d="M56,157.54a3.74,3.74,0,0,1-3.33-1.63,10.55,10.55,0,0,1,0-9.38A3.72,3.72,0,0,1,56,144.9a4.2,4.2,0,0,1,1.45.23,3.19,3.19,0,0,1,1.05.61,4.07,4.07,0,0,1,.74.87,10.11,10.11,0,0,1,.52,1l-1.26.57a5.33,5.33,0,0,0-.37-.76,2.8,2.8,0,0,0-.49-.63,2.3,2.3,0,0,0-.69-.43,2.67,2.67,0,0,0-.95-.15,2.37,2.37,0,0,0-2.16,1.1,5.37,5.37,0,0,0-.71,2.94v2a5.37,5.37,0,0,0,.71,2.94A2.38,2.38,0,0,0,56,156.26a2.45,2.45,0,0,0,.95-.16,2.3,2.3,0,0,0,.69-.43,2.8,2.8,0,0,0,.49-.63,4.86,4.86,0,0,0,.37-.76l1.26.58a9.18,9.18,0,0,1-.52,1,4.27,4.27,0,0,1-.74.86,3.37,3.37,0,0,1-1.05.61A4.2,4.2,0,0,1,56,157.54Z" fill="#fff"/><path d="M66.13,157.54a4.28,4.28,0,0,1-1.71-.34,3.62,3.62,0,0,1-1.3-.95,4.46,4.46,0,0,1-.81-1.49,6.9,6.9,0,0,1,0-3.89,4.41,4.41,0,0,1,.81-1.5,3.62,3.62,0,0,1,1.3-1,4.28,4.28,0,0,1,1.71-.34,4.19,4.19,0,0,1,1.7.34,3.62,3.62,0,0,1,1.3,1,4.41,4.41,0,0,1,.81,1.5,6.9,6.9,0,0,1,0,3.89,4.46,4.46,0,0,1-.81,1.49,3.62,3.62,0,0,1-1.3.95A4.19,4.19,0,0,1,66.13,157.54Zm0-1.21a2.62,2.62,0,0,0,1.89-.7,3,3,0,0,0,.71-2.17v-1.3A3,3,0,0,0,68,150a2.62,2.62,0,0,0-1.89-.7,2.59,2.59,0,0,0-1.89.7,2.91,2.91,0,0,0-.72,2.17v1.3a2.91,2.91,0,0,0,.72,2.17A2.59,2.59,0,0,0,66.13,156.33Z" fill="#fff"/><path d="M72.32,157.32v-9h1.3v1.05h.07a2.48,2.48,0,0,1,.59-.89,1.63,1.63,0,0,1,1.14-.37,1.59,1.59,0,0,1,1.17.4,1.68,1.68,0,0,1,.47,1h.06a2.52,2.52,0,0,1,.7-1,1.82,1.82,0,0,1,1.26-.41,1.5,1.5,0,0,1,1.48.77,5.21,5.21,0,0,1,.37,2.21v6.26H79.64v-6a3.68,3.68,0,0,0-.24-1.6.9.9,0,0,0-.87-.45,1.23,1.23,0,0,0-.91.36,1.52,1.52,0,0,0-.35,1.09v6.63H76v-6a3.68,3.68,0,0,0-.24-1.6.87.87,0,0,0-.85-.45,1.21,1.21,0,0,0-.91.36,1.48,1.48,0,0,0-.36,1.09v6.63Z" fill="#fff"/><path d="M82.82,157.32v-9h1.3v1.05h.07a2.48,2.48,0,0,1,.59-.89,1.63,1.63,0,0,1,1.14-.37,1.59,1.59,0,0,1,1.17.4,1.68,1.68,0,0,1,.47,1h.06a2.52,2.52,0,0,1,.7-1,1.82,1.82,0,0,1,1.26-.41,1.5,1.5,0,0,1,1.48.77,5.21,5.21,0,0,1,.37,2.21v6.26H90.14v-6a3.68,3.68,0,0,0-.24-1.6.9.9,0,0,0-.87-.45,1.23,1.23,0,0,0-.91.36,1.52,1.52,0,0,0-.35,1.09v6.63H86.48v-6a3.68,3.68,0,0,0-.24-1.6.87.87,0,0,0-.85-.45,1.21,1.21,0,0,0-.91.36,1.48,1.48,0,0,0-.36,1.09v6.63Z" fill="#fff"/><path d="M101,157.32a1.44,1.44,0,0,1-1.17-.42,2,2,0,0,1-.44-1.05h-.09a2.52,2.52,0,0,1-1,1.24,3.08,3.08,0,0,1-1.76.45,3.31,3.31,0,0,1-2.26-.74,2.53,2.53,0,0,1-.84-2,2.3,2.3,0,0,1,.92-1.95,5.08,5.08,0,0,1,3-.68h1.92v-.88a1.89,1.89,0,0,0-.56-1.49,2.31,2.31,0,0,0-1.59-.5,2.56,2.56,0,0,0-2.42,1.33l-.94-.7a3.2,3.2,0,0,1,.47-.68,3,3,0,0,1,.74-.6,4,4,0,0,1,1-.4,4.85,4.85,0,0,1,1.25-.16,3.75,3.75,0,0,1,2.53.81,2.83,2.83,0,0,1,.93,2.25v5H102v1.2Zm-4.17-1a3.35,3.35,0,0,0,1-.13,2.8,2.8,0,0,0,.78-.35,1.61,1.61,0,0,0,.52-.52,1.31,1.31,0,0,0,.18-.66v-1.49H97.42a3.71,3.71,0,0,0-1.84.35,1.12,1.12,0,0,0-.58,1V155a1.22,1.22,0,0,0,.5,1.05A2.3,2.3,0,0,0,96.87,156.36Z" fill="#fff"/><path d="M104.59,157.32v-9H106v1.47h.07a3.25,3.25,0,0,1,.35-.63,2.05,2.05,0,0,1,.52-.54,2.71,2.71,0,0,1,.72-.37,3.22,3.22,0,0,1,1-.14,3,3,0,0,1,2.28.91,3.55,3.55,0,0,1,.86,2.54v5.79h-1.4v-5.54a2.66,2.66,0,0,0-.55-1.85,2,2,0,0,0-1.59-.6,3.23,3.23,0,0,0-.82.1,2.36,2.36,0,0,0-.72.32,1.65,1.65,0,0,0-.51.54,1.6,1.6,0,0,0-.19.77v6.26Z" fill="#fff"/><path d="M120.81,155.85h-.07a2.93,2.93,0,0,1-2.78,1.69,3.08,3.08,0,0,1-2.6-1.25,7,7,0,0,1,0-7,3.08,3.08,0,0,1,2.6-1.25,2.92,2.92,0,0,1,2.78,1.68h.07v-5.39h1.4v12.95h-1.4Zm-2.31.44a3.26,3.26,0,0,0,.9-.12,2.17,2.17,0,0,0,.73-.36,1.74,1.74,0,0,0,.5-.58,1.65,1.65,0,0,0,.18-.79v-3.26a1.65,1.65,0,0,0-.18-.79,1.74,1.74,0,0,0-.5-.58,2.17,2.17,0,0,0-.73-.36,3.26,3.26,0,0,0-.9-.12,2.46,2.46,0,0,0-1.9.74,2.87,2.87,0,0,0-.67,2v1.54a2.87,2.87,0,0,0,.67,2A2.46,2.46,0,0,0,118.5,156.29Z" fill="#fff"/><path d="M131.84,151.2v-3.87h-.14l-2.57,6.28-2.58-6.28h-.14v10h-1.34V145.11H127l2.15,5.39h.1l2.16-5.39h1.82v12.21h-1.35Z" fill="#fff"/><path d="M143,157.32a1.44,1.44,0,0,1-1.17-.42,2,2,0,0,1-.44-1.05h-.09a2.52,2.52,0,0,1-1,1.24,3.08,3.08,0,0,1-1.76.45,3.31,3.31,0,0,1-2.26-.74,2.53,2.53,0,0,1-.84-2,2.3,2.3,0,0,1,.92-1.95,5.08,5.08,0,0,1,3-.68h1.92v-.88a1.89,1.89,0,0,0-.56-1.49,2.31,2.31,0,0,0-1.59-.5,2.56,2.56,0,0,0-2.42,1.33l-.94-.7a3.2,3.2,0,0,1,.47-.68,3,3,0,0,1,.74-.6,4,4,0,0,1,1-.4,4.85,4.85,0,0,1,1.25-.16,3.75,3.75,0,0,1,2.53.81,2.83,2.83,0,0,1,.93,2.25v5H144v1.2Zm-4.17-1a3.35,3.35,0,0,0,1-.13,2.8,2.8,0,0,0,.78-.35,1.61,1.61,0,0,0,.52-.52,1.31,1.31,0,0,0,.18-.66v-1.49h-1.92a3.71,3.71,0,0,0-1.84.35,1.12,1.12,0,0,0-.58,1V155a1.22,1.22,0,0,0,.5,1.05A2.3,2.3,0,0,0,138.87,156.36Z" fill="#fff"/><path d="M146.59,157.32v-9H148v1.47h.07a3.25,3.25,0,0,1,.35-.63,2.05,2.05,0,0,1,.52-.54,2.71,2.71,0,0,1,.72-.37,3.22,3.22,0,0,1,1-.14,3,3,0,0,1,2.28.91,3.55,3.55,0,0,1,.86,2.54v5.79h-1.4v-5.54a2.66,2.66,0,0,0-.55-1.85,2,2,0,0,0-1.59-.6,3.23,3.23,0,0,0-.82.1,2.36,2.36,0,0,0-.72.32,1.65,1.65,0,0,0-.51.54,1.6,1.6,0,0,0-.19.77v6.26Z" fill="#fff"/><path d="M164,157.32a1.44,1.44,0,0,1-1.17-.42,2,2,0,0,1-.44-1.05h-.09a2.52,2.52,0,0,1-1,1.24,3.08,3.08,0,0,1-1.76.45,3.31,3.31,0,0,1-2.26-.74,2.53,2.53,0,0,1-.84-2,2.3,2.3,0,0,1,.92-1.95,5.08,5.08,0,0,1,3-.68h1.92v-.88a1.89,1.89,0,0,0-.56-1.49,2.31,2.31,0,0,0-1.59-.5,2.56,2.56,0,0,0-2.42,1.33l-.94-.7a3.2,3.2,0,0,1,.47-.68,3,3,0,0,1,.74-.6,4,4,0,0,1,1-.4,4.85,4.85,0,0,1,1.25-.16,3.75,3.75,0,0,1,2.53.81,2.83,2.83,0,0,1,.93,2.25v5H165v1.2Zm-4.17-1a3.35,3.35,0,0,0,1-.13,2.8,2.8,0,0,0,.78-.35,1.61,1.61,0,0,0,.52-.52,1.31,1.31,0,0,0,.18-.66v-1.49h-1.92a3.71,3.71,0,0,0-1.84.35,1.12,1.12,0,0,0-.58,1V155a1.22,1.22,0,0,0,.5,1.05A2.3,2.3,0,0,0,159.87,156.36Z" fill="#fff"/><path d="M175.69,158.37a2.18,2.18,0,0,1-1.13,2,7,7,0,0,1-3.42.66,6.44,6.44,0,0,1-3.14-.58,1.85,1.85,0,0,1-.95-1.67,1.59,1.59,0,0,1,.38-1.13,2.34,2.34,0,0,1,1.09-.6v-.21a1.56,1.56,0,0,1-.6-.49,1.28,1.28,0,0,1-.21-.75,1.23,1.23,0,0,1,.47-1.05,3.1,3.1,0,0,1,1.16-.52V154a2.83,2.83,0,0,1-1.3-1.08,3,3,0,0,1-.47-1.68,3.22,3.22,0,0,1,.25-1.26,2.69,2.69,0,0,1,.71-1,3.37,3.37,0,0,1,1.11-.64,4.33,4.33,0,0,1,1.43-.23,4.17,4.17,0,0,1,1.79.37v-.16a1.48,1.48,0,0,1,.24-.86,1,1,0,0,1,.84-.34h1.67v1.2h-2v.62a3,3,0,0,1,.75,1,3.21,3.21,0,0,1,.26,1.3,3.12,3.12,0,0,1-.25,1.26,3,3,0,0,1-.71,1,3.18,3.18,0,0,1-1.11.64,4.46,4.46,0,0,1-1.45.22h-.43l-.42-.06-.44.12a1.65,1.65,0,0,0-.42.21,1.35,1.35,0,0,0-.32.31.71.71,0,0,0-.12.41.54.54,0,0,0,.4.54,3.41,3.41,0,0,0,1.05.13h2a4,4,0,0,1,2.54.65A2.18,2.18,0,0,1,175.69,158.37Zm-1.31.06a1,1,0,0,0-.44-.87,2.62,2.62,0,0,0-1.52-.32h-3.13a1.25,1.25,0,0,0-.91,1.22,1.36,1.36,0,0,0,.47,1,2.37,2.37,0,0,0,1.58.42h1.36a4,4,0,0,0,1.91-.37A1.2,1.2,0,0,0,174.38,158.43Zm-3.31-5.2a2.12,2.12,0,0,0,1.55-.49,1.72,1.72,0,0,0,.5-1.3v-.5a1.68,1.68,0,0,0-.5-1.29,2.16,2.16,0,0,0-1.55-.48,2.14,2.14,0,0,0-1.54.48,1.75,1.75,0,0,0-.49,1.29v.5a1.79,1.79,0,0,0,.49,1.3A2.09,2.09,0,0,0,171.07,153.23Z" fill="#fff"/><path d="M181.78,157.54a4.4,4.4,0,0,1-1.75-.34,3.64,3.64,0,0,1-1.33-.95,4.2,4.2,0,0,1-.85-1.49,5.88,5.88,0,0,1-.3-1.93,6,6,0,0,1,.3-2,4.66,4.66,0,0,1,.85-1.5,3.74,3.74,0,0,1,1.31-1,4.21,4.21,0,0,1,1.69-.34,4.06,4.06,0,0,1,1.65.34,3.67,3.67,0,0,1,1.27.92,3.9,3.9,0,0,1,.8,1.39,5.2,5.2,0,0,1,.28,1.76v.67H179v.42a3,3,0,0,0,.19,1.1,2.4,2.4,0,0,0,1.43,1.45,3.17,3.17,0,0,0,1.14.2,2.89,2.89,0,0,0,1.58-.42,2.72,2.72,0,0,0,1-1.16l1,.7a3.38,3.38,0,0,1-1.34,1.5A4.26,4.26,0,0,1,181.78,157.54Zm-.08-8.3a2.69,2.69,0,0,0-1.07.21,2.62,2.62,0,0,0-1.41,1.44,3,3,0,0,0-.2,1.1v.12h5.18v-.19a3.16,3.16,0,0,0-.18-1.09,3,3,0,0,0-.51-.85,2.21,2.21,0,0,0-.79-.55A2.61,2.61,0,0,0,181.7,149.24Z" fill="#fff"/><path d="M188.22,156.12h2.65V149.5h-2.65v-1.21h4.05v2.28h.08a3,3,0,0,1,1.06-1.67,3.17,3.17,0,0,1,2-.61h1.26v1.4H195a2.77,2.77,0,0,0-2,.7,2.4,2.4,0,0,0-.74,1.84v3.89h3.5v1.2h-7.55Z" fill="#fff"/><rect x="5" y="174.38" width="206.25" height="37.5" fill="#212120"/><path d="M92.63,198.73a1.37,1.37,0,0,1-1-.3,1,1,0,0,1-.29-.75v-.31a1,1,0,0,1,.29-.75,1.83,1.83,0,0,1,2,0,1,1,0,0,1,.29.75v.31a1,1,0,0,1-.29.75A1.36,1.36,0,0,1,92.63,198.73Z" fill="#fff"/><path d="M103.13,198.73a1.37,1.37,0,0,1-1-.3,1,1,0,0,1-.29-.75v-.31a1,1,0,0,1,.29-.75,1.83,1.83,0,0,1,2,0,1,1,0,0,1,.29.75v.31a1,1,0,0,1-.29.75A1.36,1.36,0,0,1,103.13,198.73Z" fill="#fff"/><path d="M113.63,198.73a1.37,1.37,0,0,1-1-.3,1,1,0,0,1-.29-.75v-.31a1,1,0,0,1,.29-.75,1.83,1.83,0,0,1,2,0,1,1,0,0,1,.29.75v.31a1,1,0,0,1-.29.75A1.36,1.36,0,0,1,113.63,198.73Z" fill="#fff"/><path d="M266.65,75a3.75,3.75,0,0,1-3.33-1.62,8.41,8.41,0,0,1-1.09-4.69A8.38,8.38,0,0,1,263.32,64a3.73,3.73,0,0,1,3.33-1.63,4.26,4.26,0,0,1,1.46.23,3.41,3.41,0,0,1,1.05.61,4,4,0,0,1,.73.87,10.21,10.21,0,0,1,.53,1l-1.26.57a6.67,6.67,0,0,0-.37-.76,2.83,2.83,0,0,0-.5-.63,2.25,2.25,0,0,0-.68-.43,2.73,2.73,0,0,0-1-.15,2.38,2.38,0,0,0-2.16,1.1,5.37,5.37,0,0,0-.71,2.94v2a5.37,5.37,0,0,0,.71,2.94,2.39,2.39,0,0,0,2.16,1.11,2.71,2.71,0,0,0,1-.16,2.25,2.25,0,0,0,.68-.43,2.83,2.83,0,0,0,.5-.63,6,6,0,0,0,.37-.76l1.26.58a9.27,9.27,0,0,1-.53,1,3.92,3.92,0,0,1-.73.85,3.43,3.43,0,0,1-1.05.62A4.27,4.27,0,0,1,266.65,75Z" fill="#fff"/><path d="M273,74.82V73.65h3V63.78h-3V62.61h7.56v1.17h-3v9.87h3v1.17Z" fill="#fff"/><path d="M287.65,75a3.75,3.75,0,0,1-3.33-1.62,8.41,8.41,0,0,1-1.09-4.69A8.38,8.38,0,0,1,284.32,64a3.73,3.73,0,0,1,3.33-1.63,4.26,4.26,0,0,1,1.46.23,3.41,3.41,0,0,1,1.05.61,4,4,0,0,1,.73.87,10.21,10.21,0,0,1,.53,1l-1.26.57a6.67,6.67,0,0,0-.37-.76,2.83,2.83,0,0,0-.5-.63,2.25,2.25,0,0,0-.68-.43,2.73,2.73,0,0,0-1-.15,2.38,2.38,0,0,0-2.16,1.1,5.37,5.37,0,0,0-.71,2.94v2a5.37,5.37,0,0,0,.71,2.94,2.39,2.39,0,0,0,2.16,1.11,2.71,2.71,0,0,0,1-.16,2.25,2.25,0,0,0,.68-.43,2.83,2.83,0,0,0,.5-.63,6,6,0,0,0,.37-.76l1.26.58a9.27,9.27,0,0,1-.53,1,3.92,3.92,0,0,1-.73.85,3.43,3.43,0,0,1-1.05.62A4.27,4.27,0,0,1,287.65,75Z" fill="#fff"/><path d="M297.72,75a5.29,5.29,0,0,1-2.7-.61,5.41,5.41,0,0,1-1.73-1.56l1.07-.87a5.13,5.13,0,0,0,1.51,1.33,3.89,3.89,0,0,0,1.9.44,3.06,3.06,0,0,0,2-.61,2.15,2.15,0,0,0,.7-1.71,1.83,1.83,0,0,0-.51-1.38,3.34,3.34,0,0,0-1.77-.7l-1.36-.23a5.3,5.3,0,0,1-1.5-.47,3.15,3.15,0,0,1-1-.77,2.65,2.65,0,0,1-.52-1,3.68,3.68,0,0,1-.16-1.11,3,3,0,0,1,1.1-2.54,4.75,4.75,0,0,1,3-.86,5.54,5.54,0,0,1,2.47.5,4.13,4.13,0,0,1,1.62,1.39l-1,.89a4.24,4.24,0,0,0-1.23-1.08,3.59,3.59,0,0,0-1.85-.42,3,3,0,0,0-1.91.52,1.87,1.87,0,0,0-.66,1.56,1.82,1.82,0,0,0,.49,1.33,3.26,3.26,0,0,0,1.8.74l1.31.23a5.49,5.49,0,0,1,1.51.47,3.33,3.33,0,0,1,1,.76,2.56,2.56,0,0,1,.54,1,4.24,4.24,0,0,1,.16,1.14,3.31,3.31,0,0,1-1.12,2.66A4.67,4.67,0,0,1,297.72,75Z" fill="#fff"/><path d="M311,68.7V64.83h-.14l-2.57,6.28-2.57-6.28h-.14v10h-1.35V62.61h1.89L308.23,68h.11l2.15-5.39h1.82V74.82H311Z" fill="#fff"/><path d="M322.16,74.82A1.45,1.45,0,0,1,321,74.4a2.08,2.08,0,0,1-.44-1.05h-.08a2.54,2.54,0,0,1-1,1.24,3.06,3.06,0,0,1-1.76.44,3.29,3.29,0,0,1-2.25-.73,2.53,2.53,0,0,1-.84-2,2.3,2.3,0,0,1,.91-2,5.12,5.12,0,0,1,3-.68h1.93v-.88a1.89,1.89,0,0,0-.56-1.49,2.36,2.36,0,0,0-1.6-.5,2.75,2.75,0,0,0-1.48.36,2.63,2.63,0,0,0-.93,1l-.95-.7a3.26,3.26,0,0,1,.48-.68,2.93,2.93,0,0,1,.73-.6,4.1,4.1,0,0,1,1-.4,4.78,4.78,0,0,1,1.24-.16,3.73,3.73,0,0,1,2.53.81,2.83,2.83,0,0,1,.94,2.25v5h1.26v1.2Zm-4.16-1a3.44,3.44,0,0,0,1-.13,2.93,2.93,0,0,0,.78-.35,1.58,1.58,0,0,0,.51-.52,1.32,1.32,0,0,0,.19-.66V70.71h-1.93a3.74,3.74,0,0,0-1.84.35,1.13,1.13,0,0,0-.57,1v.36a1.22,1.22,0,0,0,.49,1.06A2.35,2.35,0,0,0,318,73.86Z" fill="#fff"/><path d="M325.72,74.82v-9h1.4v1.47h.07a3.25,3.25,0,0,1,.35-.63,2.18,2.18,0,0,1,.51-.54,2.94,2.94,0,0,1,.73-.37,3.17,3.17,0,0,1,1-.14,3,3,0,0,1,2.27.91,3.51,3.51,0,0,1,.86,2.54v5.79h-1.4V69.28a2.71,2.71,0,0,0-.54-1.85,2,2,0,0,0-1.59-.6,3.31,3.31,0,0,0-.83.1,2.41,2.41,0,0,0-.71.32,1.65,1.65,0,0,0-.51.54,1.49,1.49,0,0,0-.19.77v6.26Z" fill="#fff"/><path d="M343.16,74.82A1.45,1.45,0,0,1,342,74.4a2.08,2.08,0,0,1-.44-1.05h-.08a2.54,2.54,0,0,1-1,1.24,3,3,0,0,1-1.76.44,3.29,3.29,0,0,1-2.25-.73,2.53,2.53,0,0,1-.84-2,2.28,2.28,0,0,1,.92-2,5.07,5.07,0,0,1,3-.68h1.93v-.88a1.89,1.89,0,0,0-.56-1.49,2.36,2.36,0,0,0-1.6-.5,2.75,2.75,0,0,0-1.48.36,2.63,2.63,0,0,0-.93,1l-.95-.7a3.26,3.26,0,0,1,.48-.68,2.93,2.93,0,0,1,.73-.6,4.1,4.1,0,0,1,1-.4,4.78,4.78,0,0,1,1.24-.16,3.73,3.73,0,0,1,2.53.81,2.83,2.83,0,0,1,.94,2.25v5h1.26v1.2Zm-4.16-1a3.44,3.44,0,0,0,1-.13,2.93,2.93,0,0,0,.78-.35,1.58,1.58,0,0,0,.51-.52,1.32,1.32,0,0,0,.19-.66V70.71h-1.93a3.74,3.74,0,0,0-1.84.35,1.13,1.13,0,0,0-.57,1v.36a1.22,1.22,0,0,0,.49,1.06A2.35,2.35,0,0,0,339,73.86Z" fill="#fff"/><path d="M354.82,75.87a2.17,2.17,0,0,1-1.14,2,7,7,0,0,1-3.41.65,6.4,6.4,0,0,1-3.14-.57,1.84,1.84,0,0,1-1-1.67,1.55,1.55,0,0,1,.39-1.13,2.35,2.35,0,0,1,1.08-.6v-.21a1.6,1.6,0,0,1-.59-.49,1.28,1.28,0,0,1-.21-.75,1.22,1.22,0,0,1,.46-1,3.33,3.33,0,0,1,1.17-.53v-.07a2.86,2.86,0,0,1-1.31-1.08,3,3,0,0,1-.46-1.68,3.22,3.22,0,0,1,.24-1.26,2.81,2.81,0,0,1,.71-1,3.37,3.37,0,0,1,1.11-.64,4.39,4.39,0,0,1,1.44-.23A4.13,4.13,0,0,1,352,66v-.16a1.48,1.48,0,0,1,.25-.86,1,1,0,0,1,.84-.34h1.66v1.2h-2v.62a2.77,2.77,0,0,1,.75,1,3.05,3.05,0,0,1,.27,1.3,3.12,3.12,0,0,1-.26,1.26,2.91,2.91,0,0,1-.71,1,3.18,3.18,0,0,1-1.11.64,4.4,4.4,0,0,1-1.44.22h-.44a3,3,0,0,1-.42-.06l-.44.12a1.65,1.65,0,0,0-.42.21,1.14,1.14,0,0,0-.31.31.71.71,0,0,0-.12.41.53.53,0,0,0,.4.54,3.41,3.41,0,0,0,1.05.13h2a4,4,0,0,1,2.54.65A2.16,2.16,0,0,1,354.82,75.87Zm-1.31.06a1,1,0,0,0-.44-.87,2.62,2.62,0,0,0-1.52-.32h-3.14A1.26,1.26,0,0,0,347.5,76a1.34,1.34,0,0,0,.48,1,2.34,2.34,0,0,0,1.57.42h1.37a4,4,0,0,0,1.9-.37A1.2,1.2,0,0,0,353.51,75.93Zm-3.31-5.2a2.12,2.12,0,0,0,1.55-.49,1.76,1.76,0,0,0,.5-1.3v-.5a1.72,1.72,0,0,0-.5-1.29,2.16,2.16,0,0,0-1.55-.48,2.14,2.14,0,0,0-1.54.48,1.71,1.71,0,0,0-.49,1.29v.5a1.75,1.75,0,0,0,.49,1.3A2.09,2.09,0,0,0,350.2,70.73Z" fill="#fff"/><path d="M360.91,75a4.45,4.45,0,0,1-1.76-.33,3.73,3.73,0,0,1-1.33-1,4.36,4.36,0,0,1-.85-1.49,5.88,5.88,0,0,1-.3-1.93,6,6,0,0,1,.31-2,4.48,4.48,0,0,1,.85-1.5,3.62,3.62,0,0,1,1.3-1,4.21,4.21,0,0,1,1.69-.34,4,4,0,0,1,1.65.34,3.67,3.67,0,0,1,1.27.92,4.07,4.07,0,0,1,.81,1.39,5.2,5.2,0,0,1,.28,1.76v.67h-6.69v.42a3,3,0,0,0,.2,1.1,2.43,2.43,0,0,0,.55.88,2.63,2.63,0,0,0,.87.57,3.27,3.27,0,0,0,1.15.2,2.88,2.88,0,0,0,1.57-.42,2.74,2.74,0,0,0,1-1.16l1,.7a3.32,3.32,0,0,1-1.34,1.5A4.2,4.2,0,0,1,360.91,75Zm-.09-8.29a2.72,2.72,0,0,0-1.07.21,2.62,2.62,0,0,0-.85.58,2.84,2.84,0,0,0-.56.86,3,3,0,0,0-.2,1.1v.12h5.18v-.19a3.16,3.16,0,0,0-.18-1.09,2.6,2.6,0,0,0-.51-.85,2.12,2.12,0,0,0-.79-.55A2.58,2.58,0,0,0,360.82,66.74Z" fill="#fff"/><path d="M367.35,73.62H370V67h-2.64V65.79h4v2.28h.09a3,3,0,0,1,1.06-1.67,3.16,3.16,0,0,1,2-.61h1.26v1.4h-1.69a2.78,2.78,0,0,0-2,.7,2.43,2.43,0,0,0-.74,1.84v3.89h3.5v1.2h-7.54Z" fill="#fff"/><rect x="215.63" y="91.88" width="206.25" height="37.5" fill="#424241"/><path d="M267.83,116.07l-1-12.21h1.32l.5,7,.27,3.69h.14L270.7,107h1.64l1.61,7.51h.14l.26-3.69.51-7h1.28l-1,12.21h-2.12l-1.49-7.29h-.14l-1.49,7.29Z" fill="#fff"/><path d="M284.71,110v-3.87h-.14L282,112.36l-2.57-6.28h-.14v10h-1.35V103.86h1.89l2.15,5.39h.11l2.15-5.39h1.82v12.21h-1.35Z" fill="#fff"/><path d="M295.84,118.94h-2a1.88,1.88,0,0,1-1.52-.57,2.26,2.26,0,0,1-.48-1.49v-.65a3.47,3.47,0,0,1-1.6-.6,3.75,3.75,0,0,1-1.11-1.28,6.49,6.49,0,0,1-.65-1.91,13.31,13.31,0,0,1-.21-2.47,12.76,12.76,0,0,1,.25-2.67,5.71,5.71,0,0,1,.77-2,3.56,3.56,0,0,1,1.33-1.23,4,4,0,0,1,1.92-.43,4,4,0,0,1,1.93.43,3.63,3.63,0,0,1,1.33,1.23,5.91,5.91,0,0,1,.77,2,13.51,13.51,0,0,1,.24,2.67,9.49,9.49,0,0,1-.86,4.38,3.38,3.38,0,0,1-2.71,1.88v1.52h2.64ZM292.5,115a2.5,2.5,0,0,0,1.24-.29,2.35,2.35,0,0,0,.84-.82,3.38,3.38,0,0,0,.48-1.26,8.6,8.6,0,0,0,.15-1.68v-2a8.46,8.46,0,0,0-.15-1.66,3.42,3.42,0,0,0-.48-1.28,2.32,2.32,0,0,0-.84-.81,2.8,2.8,0,0,0-2.48,0,2.32,2.32,0,0,0-.84.81,3.79,3.79,0,0,0-.48,1.28,8.46,8.46,0,0,0-.15,1.66v2a8.6,8.6,0,0,0,.15,1.68,3.76,3.76,0,0,0,.48,1.26,2.35,2.35,0,0,0,.84.82A2.5,2.5,0,0,0,292.5,115Z" fill="#fff"/><path d="M305.71,110v-3.87h-.14L303,112.36l-2.57-6.28h-.14v10h-1.35V103.86h1.89l2.15,5.39h.11l2.15-5.39h1.82v12.21h-1.35Z" fill="#fff"/><path d="M316.91,116.07a1.44,1.44,0,0,1-1.17-.42,2.08,2.08,0,0,1-.44-1.05h-.08a2.54,2.54,0,0,1-1,1.24,3.06,3.06,0,0,1-1.76.44,3.29,3.29,0,0,1-2.25-.73,2.53,2.53,0,0,1-.84-2,2.3,2.3,0,0,1,.91-2,5.12,5.12,0,0,1,3-.68h1.93V110a1.89,1.89,0,0,0-.56-1.49,2.36,2.36,0,0,0-1.6-.5,2.75,2.75,0,0,0-1.48.36,2.63,2.63,0,0,0-.93,1l-.95-.7a3.26,3.26,0,0,1,.48-.68,2.93,2.93,0,0,1,.73-.6,4.1,4.1,0,0,1,1-.4,4.78,4.78,0,0,1,1.24-.16,3.73,3.73,0,0,1,2.53.81,2.83,2.83,0,0,1,.94,2.25v5h1.26v1.2Zm-4.16-1a3.44,3.44,0,0,0,1-.13,3.08,3.08,0,0,0,.78-.35,1.58,1.58,0,0,0,.51-.52,1.32,1.32,0,0,0,.19-.66V112h-1.93a3.74,3.74,0,0,0-1.84.35,1.13,1.13,0,0,0-.57,1v.36a1.22,1.22,0,0,0,.49,1.06A2.35,2.35,0,0,0,312.75,115.11Z" fill="#fff"/><path d="M320.47,116.07v-9h1.4v1.47h.07a3.25,3.25,0,0,1,.35-.63,2.18,2.18,0,0,1,.51-.54,2.94,2.94,0,0,1,.73-.37,3.17,3.17,0,0,1,1-.14,3,3,0,0,1,2.27.91,3.51,3.51,0,0,1,.86,2.54v5.79h-1.4v-5.54a2.71,2.71,0,0,0-.54-1.85,2,2,0,0,0-1.59-.6,3.31,3.31,0,0,0-.83.1,2.41,2.41,0,0,0-.71.32,1.65,1.65,0,0,0-.51.54,1.49,1.49,0,0,0-.19.77v6.26Z" fill="#fff"/><path d="M337.91,116.07a1.45,1.45,0,0,1-1.17-.42,2.08,2.08,0,0,1-.44-1.05h-.08a2.54,2.54,0,0,1-1,1.24,3,3,0,0,1-1.76.44,3.29,3.29,0,0,1-2.25-.73,2.53,2.53,0,0,1-.84-2,2.3,2.3,0,0,1,.91-2,5.12,5.12,0,0,1,3-.68h1.93V110a1.89,1.89,0,0,0-.56-1.49,2.36,2.36,0,0,0-1.6-.5,2.75,2.75,0,0,0-1.48.36,2.63,2.63,0,0,0-.93,1l-.95-.7a3.26,3.26,0,0,1,.48-.68,2.93,2.93,0,0,1,.73-.6,4.1,4.1,0,0,1,1-.4,4.78,4.78,0,0,1,1.24-.16,3.73,3.73,0,0,1,2.53.81,2.83,2.83,0,0,1,.94,2.25v5h1.26v1.2Zm-4.16-1a3.44,3.44,0,0,0,1-.13,2.93,2.93,0,0,0,.78-.35,1.58,1.58,0,0,0,.51-.52,1.32,1.32,0,0,0,.19-.66V112h-1.93a3.74,3.74,0,0,0-1.84.35,1.13,1.13,0,0,0-.57,1v.36a1.2,1.2,0,0,0,.5,1.06A2.3,2.3,0,0,0,333.75,115.11Z" fill="#fff"/><path d="M349.57,117.12a2.17,2.17,0,0,1-1.14,2,7,7,0,0,1-3.41.65,6.4,6.4,0,0,1-3.14-.57,1.84,1.84,0,0,1-1-1.67,1.55,1.55,0,0,1,.39-1.13,2.35,2.35,0,0,1,1.08-.6v-.21a1.6,1.6,0,0,1-.59-.49,1.28,1.28,0,0,1-.21-.75,1.22,1.22,0,0,1,.46-1,3.33,3.33,0,0,1,1.17-.53v-.07a2.86,2.86,0,0,1-1.31-1.08,3,3,0,0,1-.46-1.68,3.22,3.22,0,0,1,.24-1.26,2.81,2.81,0,0,1,.71-1,3.37,3.37,0,0,1,1.11-.64,4.39,4.39,0,0,1,1.44-.23,4.16,4.16,0,0,1,1.78.37V107a1.48,1.48,0,0,1,.25-.86,1,1,0,0,1,.84-.34h1.66V107h-2v.62a2.77,2.77,0,0,1,.75,1,3.05,3.05,0,0,1,.27,1.3,3.12,3.12,0,0,1-.26,1.26,2.91,2.91,0,0,1-.71,1,3.18,3.18,0,0,1-1.11.64,4.4,4.4,0,0,1-1.44.22h-.44a3,3,0,0,1-.42-.06l-.44.12a1.65,1.65,0,0,0-.42.21,1.14,1.14,0,0,0-.31.31.71.71,0,0,0-.12.41.53.53,0,0,0,.4.54,3.41,3.41,0,0,0,1.05.13h2a4,4,0,0,1,2.54.65A2.16,2.16,0,0,1,349.57,117.12Zm-1.31.06a1,1,0,0,0-.44-.87,2.62,2.62,0,0,0-1.52-.32h-3.14a1.26,1.26,0,0,0-.91,1.22,1.34,1.34,0,0,0,.48,1,2.34,2.34,0,0,0,1.57.42h1.37a4,4,0,0,0,1.9-.37A1.2,1.2,0,0,0,348.26,117.18ZM345,112a2.12,2.12,0,0,0,1.55-.49,1.76,1.76,0,0,0,.5-1.3v-.5a1.72,1.72,0,0,0-.5-1.29,2.16,2.16,0,0,0-1.55-.48,2.14,2.14,0,0,0-1.54.48,1.71,1.71,0,0,0-.49,1.29v.5a1.75,1.75,0,0,0,.49,1.3A2.09,2.09,0,0,0,345,112Z" fill="#fff"/><path d="M355.66,116.28a4.45,4.45,0,0,1-1.76-.33,3.73,3.73,0,0,1-1.33-1,4.36,4.36,0,0,1-.85-1.49,5.88,5.88,0,0,1-.3-1.93,6,6,0,0,1,.31-2,4.48,4.48,0,0,1,.85-1.5,3.71,3.71,0,0,1,1.3-1,4.21,4.21,0,0,1,1.69-.34,4,4,0,0,1,1.65.34,3.67,3.67,0,0,1,1.27.92,4.07,4.07,0,0,1,.81,1.39,5.2,5.2,0,0,1,.28,1.76v.67h-6.69v.42a3,3,0,0,0,.2,1.1,2.43,2.43,0,0,0,.55.88,2.63,2.63,0,0,0,.87.57,3.27,3.27,0,0,0,1.15.2,2.88,2.88,0,0,0,1.57-.42,2.74,2.74,0,0,0,1-1.16l1,.7a3.32,3.32,0,0,1-1.34,1.5A4.2,4.2,0,0,1,355.66,116.28Zm-.09-8.29a2.72,2.72,0,0,0-1.07.21,2.62,2.62,0,0,0-.85.58,2.84,2.84,0,0,0-.56.86,3,3,0,0,0-.2,1.1v.12h5.18v-.19a3.16,3.16,0,0,0-.18-1.09,2.6,2.6,0,0,0-.51-.85,2.12,2.12,0,0,0-.79-.55A2.58,2.58,0,0,0,355.57,108Z" fill="#fff"/><path d="M362.1,114.87h2.64v-6.62H362.1V107h4v2.28h.09a3,3,0,0,1,1.06-1.67,3.16,3.16,0,0,1,2-.61h1.26v1.4h-1.69a2.78,2.78,0,0,0-2,.7,2.43,2.43,0,0,0-.74,1.84v3.89h3.5v1.2H362.1Z" fill="#fff"/><rect x="215.63" y="133.13" width="206.25" height="37.5" fill="#424241"/><path d="M267.91,145.11h3.42a3.84,3.84,0,0,1,3.34,1.54,10,10,0,0,1,0,9.14,3.85,3.85,0,0,1-3.34,1.53h-3.42Zm3.35,10.94a2.56,2.56,0,0,0,2.21-1,4.74,4.74,0,0,0,.74-2.87v-1.89a4.78,4.78,0,0,0-.74-2.87,2.58,2.58,0,0,0-2.21-1h-1.88v9.66Z" fill="#fff"/><path d="M278.29,145.11h4.15a3.44,3.44,0,0,1,2.47.86,3,3,0,0,1,.89,2.29,2.58,2.58,0,0,1-.54,1.73,2.81,2.81,0,0,1-1.37.89v.06a3.4,3.4,0,0,1,1.7.92,2.68,2.68,0,0,1,.66,1.95,3.93,3.93,0,0,1-.24,1.38,3.64,3.64,0,0,1-.69,1.12,3.39,3.39,0,0,1-1.05.74,3.2,3.2,0,0,1-1.31.27h-4.67Zm4,5.3a2.25,2.25,0,0,0,1.45-.41,1.49,1.49,0,0,0,.53-1.25v-.68a1.52,1.52,0,0,0-.53-1.26,2.26,2.26,0,0,0-1.45-.42h-2.52v4Zm.25,5.64a2.49,2.49,0,0,0,1.59-.46,1.68,1.68,0,0,0,.58-1.4v-.72a1.7,1.7,0,0,0-.58-1.39,2.49,2.49,0,0,0-1.59-.46h-2.77v4.43Z" fill="#fff"/><path d="M296.65,157.32h-8.16v-1.5l4.08-3.68a8.55,8.55,0,0,0,1.47-1.65,3.08,3.08,0,0,0,.58-1.79v-.21a2.35,2.35,0,0,0-.58-1.71,2.27,2.27,0,0,0-1.71-.6,2.42,2.42,0,0,0-1.73.57,3.43,3.43,0,0,0-.9,1.51l-1.31-.49a5.26,5.26,0,0,1,.48-1.06,3.57,3.57,0,0,1,.78-.92,3.82,3.82,0,0,1,1.14-.65,5.22,5.22,0,0,1,3.19,0,3.34,3.34,0,0,1,1.19.74,3,3,0,0,1,.73,1.12,3.8,3.8,0,0,1,.26,1.41,4.34,4.34,0,0,1-.2,1.32,5.24,5.24,0,0,1-.56,1.17,7.75,7.75,0,0,1-.86,1.09,12.57,12.57,0,0,1-1.11,1.06l-3.41,3h6.63Z" fill="#fff"/><path d="M305.71,151.2v-3.87h-.14L303,153.61l-2.57-6.28h-.14v10h-1.35V145.11h1.89L303,150.5h.11l2.15-5.39h1.82v12.21h-1.35Z" fill="#fff"/><path d="M316.91,157.32a1.44,1.44,0,0,1-1.17-.42,2,2,0,0,1-.44-1.05h-.08a2.54,2.54,0,0,1-1,1.24,3.06,3.06,0,0,1-1.76.45,3.3,3.3,0,0,1-2.25-.74,2.53,2.53,0,0,1-.84-2,2.3,2.3,0,0,1,.91-1.95,5.12,5.12,0,0,1,3-.68h1.93v-.88a1.89,1.89,0,0,0-.56-1.49,2.36,2.36,0,0,0-1.6-.5,2.75,2.75,0,0,0-1.48.36,2.63,2.63,0,0,0-.93,1l-.95-.7a3.26,3.26,0,0,1,.48-.68,2.93,2.93,0,0,1,.73-.6,4.1,4.1,0,0,1,1-.4,4.78,4.78,0,0,1,1.24-.16,3.73,3.73,0,0,1,2.53.81,2.83,2.83,0,0,1,.94,2.25v5h1.26v1.2Zm-4.16-1a3.44,3.44,0,0,0,1-.13,3.08,3.08,0,0,0,.78-.35,1.58,1.58,0,0,0,.51-.52,1.32,1.32,0,0,0,.19-.66v-1.49h-1.93a3.74,3.74,0,0,0-1.84.35,1.13,1.13,0,0,0-.57,1V155a1.21,1.21,0,0,0,.49,1.05A2.35,2.35,0,0,0,312.75,156.36Z" fill="#fff"/><path d="M320.47,157.32v-9h1.4v1.47h.07a3.25,3.25,0,0,1,.35-.63,2.18,2.18,0,0,1,.51-.54,2.94,2.94,0,0,1,.73-.37,3.17,3.17,0,0,1,1-.14,3,3,0,0,1,2.27.91,3.51,3.51,0,0,1,.86,2.54v5.79h-1.4v-5.54a2.71,2.71,0,0,0-.54-1.85,2,2,0,0,0-1.59-.6,3.31,3.31,0,0,0-.83.1,2.41,2.41,0,0,0-.71.32,1.65,1.65,0,0,0-.51.54,1.49,1.49,0,0,0-.19.77v6.26Z" fill="#fff"/><path d="M337.91,157.32a1.45,1.45,0,0,1-1.17-.42,2,2,0,0,1-.44-1.05h-.08a2.54,2.54,0,0,1-1,1.24,3,3,0,0,1-1.76.45,3.3,3.3,0,0,1-2.25-.74,2.53,2.53,0,0,1-.84-2,2.3,2.3,0,0,1,.91-1.95,5.12,5.12,0,0,1,3-.68h1.93v-.88a1.89,1.89,0,0,0-.56-1.49,2.36,2.36,0,0,0-1.6-.5,2.75,2.75,0,0,0-1.48.36,2.63,2.63,0,0,0-.93,1l-.95-.7a3.26,3.26,0,0,1,.48-.68,2.93,2.93,0,0,1,.73-.6,4.1,4.1,0,0,1,1-.4,4.78,4.78,0,0,1,1.24-.16,3.73,3.73,0,0,1,2.53.81,2.83,2.83,0,0,1,.94,2.25v5h1.26v1.2Zm-4.16-1a3.44,3.44,0,0,0,1-.13,2.93,2.93,0,0,0,.78-.35,1.58,1.58,0,0,0,.51-.52,1.32,1.32,0,0,0,.19-.66v-1.49h-1.93a3.74,3.74,0,0,0-1.84.35,1.13,1.13,0,0,0-.57,1V155a1.2,1.2,0,0,0,.5,1.05A2.3,2.3,0,0,0,333.75,156.36Z" fill="#fff"/><path d="M349.57,158.37a2.17,2.17,0,0,1-1.14,2A7,7,0,0,1,345,161a6.39,6.39,0,0,1-3.14-.58,1.84,1.84,0,0,1-1-1.67,1.55,1.55,0,0,1,.39-1.13,2.35,2.35,0,0,1,1.08-.6v-.21a1.6,1.6,0,0,1-.59-.49,1.28,1.28,0,0,1-.21-.75,1.22,1.22,0,0,1,.46-1.05,3.15,3.15,0,0,1,1.17-.52V154a2.86,2.86,0,0,1-1.31-1.08,3,3,0,0,1-.46-1.68,3.22,3.22,0,0,1,.24-1.26,2.81,2.81,0,0,1,.71-1,3.37,3.37,0,0,1,1.11-.64,4.39,4.39,0,0,1,1.44-.23,4.16,4.16,0,0,1,1.78.37v-.16a1.48,1.48,0,0,1,.25-.86,1,1,0,0,1,.84-.34h1.66v1.2h-2v.62a2.77,2.77,0,0,1,.75,1,3.05,3.05,0,0,1,.27,1.3,3.12,3.12,0,0,1-.26,1.26,2.91,2.91,0,0,1-.71,1,3.18,3.18,0,0,1-1.11.64,4.4,4.4,0,0,1-1.44.22h-.44l-.42-.06-.44.12a1.65,1.65,0,0,0-.42.21,1.14,1.14,0,0,0-.31.31.71.71,0,0,0-.12.41.53.53,0,0,0,.4.54,3.41,3.41,0,0,0,1.05.13h2a4,4,0,0,1,2.54.65A2.16,2.16,0,0,1,349.57,158.37Zm-1.31.06a1,1,0,0,0-.44-.87,2.62,2.62,0,0,0-1.52-.32h-3.14a1.26,1.26,0,0,0-.91,1.22,1.34,1.34,0,0,0,.48,1,2.34,2.34,0,0,0,1.57.42h1.37a4,4,0,0,0,1.9-.37A1.2,1.2,0,0,0,348.26,158.43Zm-3.31-5.2a2.12,2.12,0,0,0,1.55-.49,1.76,1.76,0,0,0,.5-1.3v-.5a1.72,1.72,0,0,0-.5-1.29,2.16,2.16,0,0,0-1.55-.48,2.14,2.14,0,0,0-1.54.48,1.71,1.71,0,0,0-.49,1.29v.5a1.75,1.75,0,0,0,.49,1.3A2.09,2.09,0,0,0,345,153.23Z" fill="#fff"/><path d="M355.66,157.54a4.45,4.45,0,0,1-1.76-.34,3.73,3.73,0,0,1-1.33-.95,4.36,4.36,0,0,1-.85-1.49,5.88,5.88,0,0,1-.3-1.93,6,6,0,0,1,.31-2,4.48,4.48,0,0,1,.85-1.5,3.71,3.71,0,0,1,1.3-1,4.21,4.21,0,0,1,1.69-.34,4,4,0,0,1,1.65.34,3.67,3.67,0,0,1,1.27.92,4.07,4.07,0,0,1,.81,1.39,5.2,5.2,0,0,1,.28,1.76v.67h-6.69v.42a3,3,0,0,0,.2,1.1,2.43,2.43,0,0,0,.55.88,2.63,2.63,0,0,0,.87.57,3.27,3.27,0,0,0,1.15.2,2.88,2.88,0,0,0,1.57-.42,2.74,2.74,0,0,0,1-1.16l1,.7a3.32,3.32,0,0,1-1.34,1.5A4.2,4.2,0,0,1,355.66,157.54Zm-.09-8.3a2.72,2.72,0,0,0-1.07.21,2.62,2.62,0,0,0-.85.58,2.84,2.84,0,0,0-.56.86,3,3,0,0,0-.2,1.1v.12h5.18v-.19a3.16,3.16,0,0,0-.18-1.09,2.6,2.6,0,0,0-.51-.85,2.12,2.12,0,0,0-.79-.55A2.58,2.58,0,0,0,355.57,149.24Z" fill="#fff"/><path d="M362.1,156.12h2.64V149.5H362.1v-1.21h4v2.28h.09a3,3,0,0,1,1.06-1.67,3.16,3.16,0,0,1,2-.61h1.26v1.4h-1.69a2.78,2.78,0,0,0-2,.7,2.43,2.43,0,0,0-.74,1.84v3.89h3.5v1.2H362.1Z" fill="#fff"/><rect x="215.63" y="174.38" width="206.25" height="37.5" fill="#424241"/><path d="M308.25,198.73a1.39,1.39,0,0,1-1-.3,1,1,0,0,1-.28-.75v-.31a1,1,0,0,1,.28-.75,1.85,1.85,0,0,1,2,0,1,1,0,0,1,.29.75v.31a1,1,0,0,1-.29.75A1.39,1.39,0,0,1,308.25,198.73Z" fill="#fff"/><path d="M318.75,198.73a1.39,1.39,0,0,1-1-.3,1,1,0,0,1-.28-.75v-.31a1,1,0,0,1,.28-.75,1.85,1.85,0,0,1,2,0,1,1,0,0,1,.28.75v.31a1,1,0,0,1-.28.75A1.39,1.39,0,0,1,318.75,198.73Z" fill="#fff"/><path d="M329.25,198.73a1.39,1.39,0,0,1-1-.3,1,1,0,0,1-.28-.75v-.31a1,1,0,0,1,.28-.75,1.85,1.85,0,0,1,2,0,1,1,0,0,1,.28.75v.31a1,1,0,0,1-.28.75A1.39,1.39,0,0,1,329.25,198.73Z" fill="#fff"/><rect x="425" y="50.63" width="206.25" height="37.5" fill="#616262"/><path d="M454.59,75a5.25,5.25,0,0,1-2.69-.61,5.55,5.55,0,0,1-1.74-1.56l1.07-.87a5.16,5.16,0,0,0,1.52,1.33,3.88,3.88,0,0,0,1.89.44,3,3,0,0,0,2-.61,2.15,2.15,0,0,0,.7-1.71,1.87,1.87,0,0,0-.5-1.38,3.34,3.34,0,0,0-1.77-.7l-1.37-.23a5.34,5.34,0,0,1-1.49-.47,2.93,2.93,0,0,1-1-.77,2.67,2.67,0,0,1-.53-1,4,4,0,0,1-.16-1.11,3,3,0,0,1,1.11-2.54,4.7,4.7,0,0,1,3-.86,5.59,5.59,0,0,1,2.48.5,4.13,4.13,0,0,1,1.62,1.39l-1,.89a4.2,4.2,0,0,0-1.22-1.08,3.66,3.66,0,0,0-1.86-.42,3,3,0,0,0-1.9.52,1.85,1.85,0,0,0-.67,1.56,1.83,1.83,0,0,0,.5,1.33,3.22,3.22,0,0,0,1.79.74l1.32.23a5.52,5.52,0,0,1,1.5.47,3.25,3.25,0,0,1,1,.76,2.53,2.53,0,0,1,.53,1,3.88,3.88,0,0,1,.16,1.14,3.34,3.34,0,0,1-1.11,2.66A4.68,4.68,0,0,1,454.59,75Z" fill="#fff"/><path d="M465.28,75a4.49,4.49,0,0,1-1.76-.33,3.82,3.82,0,0,1-1.33-1,4.34,4.34,0,0,1-.84-1.49,5.88,5.88,0,0,1-.3-1.93,6,6,0,0,1,.3-2,4.66,4.66,0,0,1,.85-1.5,3.74,3.74,0,0,1,1.31-1,4.18,4.18,0,0,1,1.69-.34,4.06,4.06,0,0,1,1.65.34,3.67,3.67,0,0,1,1.27.92,3.9,3.9,0,0,1,.8,1.39A5.2,5.2,0,0,1,469.2,70v.67h-6.68v.42a3,3,0,0,0,.19,1.1,2.4,2.4,0,0,0,1.43,1.45,3.17,3.17,0,0,0,1.14.2,2.89,2.89,0,0,0,1.58-.42,2.72,2.72,0,0,0,1-1.16l1,.7a3.38,3.38,0,0,1-1.34,1.5A4.26,4.26,0,0,1,465.28,75Zm-.08-8.29a2.69,2.69,0,0,0-1.07.21,2.62,2.62,0,0,0-1.41,1.44,3,3,0,0,0-.2,1.1v.12h5.18v-.19a2.94,2.94,0,0,0-.19-1.09,2.77,2.77,0,0,0-.5-.85,2.21,2.21,0,0,0-.79-.55A2.61,2.61,0,0,0,465.2,66.74Z" fill="#fff"/><path d="M471.78,73.62h3.15V63.08h-3.15V61.87h4.55V73.62h3.15v1.2h-7.7Z" fill="#fff"/><path d="M486.28,75a4.49,4.49,0,0,1-1.76-.33,3.82,3.82,0,0,1-1.33-1,4.34,4.34,0,0,1-.84-1.49,5.88,5.88,0,0,1-.3-1.93,6,6,0,0,1,.3-2,4.66,4.66,0,0,1,.85-1.5,3.74,3.74,0,0,1,1.31-1,4.18,4.18,0,0,1,1.69-.34,4.06,4.06,0,0,1,1.65.34,3.67,3.67,0,0,1,1.27.92,3.9,3.9,0,0,1,.8,1.39A5.2,5.2,0,0,1,490.2,70v.67h-6.68v.42a3,3,0,0,0,.19,1.1,2.4,2.4,0,0,0,1.43,1.45,3.17,3.17,0,0,0,1.14.2,2.89,2.89,0,0,0,1.58-.42,2.72,2.72,0,0,0,1-1.16l1,.7a3.38,3.38,0,0,1-1.34,1.5A4.26,4.26,0,0,1,486.28,75Zm-.08-8.29a2.69,2.69,0,0,0-1.07.21,2.62,2.62,0,0,0-1.41,1.44,3,3,0,0,0-.2,1.1v.12h5.18v-.19a2.94,2.94,0,0,0-.19-1.09,2.77,2.77,0,0,0-.5-.85,2.21,2.21,0,0,0-.79-.55A2.61,2.61,0,0,0,486.2,66.74Z" fill="#fff"/><path d="M493.09,74.82v-9h1.4v1.47h.07a3.25,3.25,0,0,1,.35-.63,2.05,2.05,0,0,1,.52-.54,2.71,2.71,0,0,1,.72-.37,3.22,3.22,0,0,1,1-.14,3,3,0,0,1,2.28.91,3.55,3.55,0,0,1,.86,2.54v5.79h-1.4V69.28a2.71,2.71,0,0,0-.55-1.85,2,2,0,0,0-1.59-.6,3.23,3.23,0,0,0-.82.1,2.36,2.36,0,0,0-.72.32,1.65,1.65,0,0,0-.51.54,1.49,1.49,0,0,0-.19.77v6.26Z" fill="#fff"/><path d="M503.73,73.62H507V67h-3.26V65.79h4.66v7.83h3v1.2h-7.7Zm4-9.82a1.16,1.16,0,0,1-.86-.25.92.92,0,0,1-.25-.64v-.28a.9.9,0,0,1,.25-.64,1.54,1.54,0,0,1,1.71,0,.86.86,0,0,1,.25.64v.28a.87.87,0,0,1-.25.64A1.15,1.15,0,0,1,507.69,63.8Z" fill="#fff"/><path d="M519.76,73.35h-.07a3.06,3.06,0,0,1-.35.64,2.18,2.18,0,0,1-.51.54,2.62,2.62,0,0,1-.73.36,2.94,2.94,0,0,1-1,.14,3,3,0,0,1-2.28-.9,3.55,3.55,0,0,1-.85-2.54v-5.8h1.4v5.55a2.71,2.71,0,0,0,.54,1.85,2,2,0,0,0,1.59.6,3.18,3.18,0,0,0,.82-.1,2.36,2.36,0,0,0,.72-.32,1.72,1.72,0,0,0,.51-.53,1.5,1.5,0,0,0,.19-.78V65.79h1.4v9h-1.4Z" fill="#fff"/><path d="M523.82,74.82v-9h1.3v1h.07a2.48,2.48,0,0,1,.59-.89,1.63,1.63,0,0,1,1.14-.37,1.59,1.59,0,0,1,1.17.4,1.74,1.74,0,0,1,.47,1h.06a2.52,2.52,0,0,1,.7-1,1.82,1.82,0,0,1,1.26-.41,1.48,1.48,0,0,1,1.47.77,5,5,0,0,1,.38,2.21v6.26h-1.29v-6a3.68,3.68,0,0,0-.24-1.6.9.9,0,0,0-.87-.45,1.23,1.23,0,0,0-.91.36,1.52,1.52,0,0,0-.35,1.09v6.63h-1.29v-6a3.68,3.68,0,0,0-.24-1.6.88.88,0,0,0-.85-.45,1.25,1.25,0,0,0-.92.36,1.52,1.52,0,0,0-.35,1.09v6.63Z" fill="#fff"/><path d="M541.34,68.7V64.83h-.14l-2.57,6.28-2.58-6.28h-.14v10h-1.34V62.61h1.89L538.61,68h.1l2.16-5.39h1.82V74.82h-1.35Z" fill="#fff"/><path d="M552.54,74.82a1.44,1.44,0,0,1-1.17-.42,2,2,0,0,1-.44-1.05h-.09a2.52,2.52,0,0,1-1,1.24,3.08,3.08,0,0,1-1.76.44,3.3,3.3,0,0,1-2.26-.73,2.53,2.53,0,0,1-.84-2,2.3,2.3,0,0,1,.92-2,5.08,5.08,0,0,1,3-.68h1.92v-.88a1.89,1.89,0,0,0-.56-1.49,2.31,2.31,0,0,0-1.59-.5,2.56,2.56,0,0,0-2.42,1.33l-.94-.7a3.2,3.2,0,0,1,.47-.68,3,3,0,0,1,.74-.6,4,4,0,0,1,1-.4,4.85,4.85,0,0,1,1.25-.16,3.7,3.7,0,0,1,2.52.81,2.8,2.8,0,0,1,.94,2.25v5h1.26v1.2Zm-4.17-1a3.39,3.39,0,0,0,1-.13,2.8,2.8,0,0,0,.78-.35,1.61,1.61,0,0,0,.52-.52,1.31,1.31,0,0,0,.18-.66V70.71h-1.92a3.71,3.71,0,0,0-1.84.35,1.12,1.12,0,0,0-.58,1v.36a1.23,1.23,0,0,0,.5,1.06A2.3,2.3,0,0,0,548.37,73.86Z" fill="#fff"/><path d="M556.09,74.82v-9h1.4v1.47h.07a3.25,3.25,0,0,1,.35-.63,2.05,2.05,0,0,1,.52-.54,2.71,2.71,0,0,1,.72-.37,3.22,3.22,0,0,1,1-.14,3,3,0,0,1,2.28.91,3.55,3.55,0,0,1,.86,2.54v5.79h-1.4V69.28a2.71,2.71,0,0,0-.55-1.85,2,2,0,0,0-1.59-.6,3.23,3.23,0,0,0-.82.1,2.36,2.36,0,0,0-.72.32,1.65,1.65,0,0,0-.51.54,1.49,1.49,0,0,0-.19.77v6.26Z" fill="#fff"/><path d="M573.54,74.82a1.44,1.44,0,0,1-1.17-.42,2,2,0,0,1-.44-1.05h-.09a2.52,2.52,0,0,1-1,1.24,3.08,3.08,0,0,1-1.76.44,3.3,3.3,0,0,1-2.26-.73,2.53,2.53,0,0,1-.84-2,2.3,2.3,0,0,1,.92-2,5.08,5.08,0,0,1,3-.68h1.92v-.88a1.89,1.89,0,0,0-.56-1.49,2.31,2.31,0,0,0-1.59-.5,2.56,2.56,0,0,0-2.42,1.33l-.94-.7a3.2,3.2,0,0,1,.47-.68,3,3,0,0,1,.74-.6,4,4,0,0,1,1-.4,4.85,4.85,0,0,1,1.25-.16,3.7,3.7,0,0,1,2.52.81,2.8,2.8,0,0,1,.94,2.25v5h1.26v1.2Zm-4.17-1a3.39,3.39,0,0,0,1-.13,2.8,2.8,0,0,0,.78-.35,1.61,1.61,0,0,0,.52-.52,1.31,1.31,0,0,0,.18-.66V70.71h-1.92a3.71,3.71,0,0,0-1.84.35,1.12,1.12,0,0,0-.58,1v.36a1.23,1.23,0,0,0,.5,1.06A2.3,2.3,0,0,0,569.37,73.86Z" fill="#fff"/><path d="M585.19,75.87a2.18,2.18,0,0,1-1.13,2,7,7,0,0,1-3.42.65A6.43,6.43,0,0,1,577.5,78a1.85,1.85,0,0,1-1-1.67,1.59,1.59,0,0,1,.38-1.13,2.34,2.34,0,0,1,1.09-.6v-.21a1.56,1.56,0,0,1-.6-.49,1.28,1.28,0,0,1-.21-.75,1.23,1.23,0,0,1,.47-1,3.28,3.28,0,0,1,1.16-.53v-.07a2.83,2.83,0,0,1-1.3-1.08,3,3,0,0,1-.47-1.68,3.22,3.22,0,0,1,.25-1.26,2.69,2.69,0,0,1,.71-1,3.37,3.37,0,0,1,1.11-.64,4.33,4.33,0,0,1,1.43-.23,4.21,4.21,0,0,1,1.79.37v-.16a1.48,1.48,0,0,1,.24-.86,1,1,0,0,1,.84-.34h1.67v1.2h-2v.62a3,3,0,0,1,.75,1,3.21,3.21,0,0,1,.26,1.3,3.12,3.12,0,0,1-.25,1.26,3,3,0,0,1-.71,1,3.18,3.18,0,0,1-1.11.64,4.46,4.46,0,0,1-1.45.22h-.43a3,3,0,0,1-.42-.06l-.44.12a1.65,1.65,0,0,0-.42.21,1.18,1.18,0,0,0-.32.31.71.71,0,0,0-.12.41.53.53,0,0,0,.4.54,3.41,3.41,0,0,0,1,.13h2a4,4,0,0,1,2.54.65A2.18,2.18,0,0,1,585.19,75.87Zm-1.31.06a1,1,0,0,0-.44-.87,2.62,2.62,0,0,0-1.52-.32h-3.13a1.25,1.25,0,0,0-.91,1.22,1.36,1.36,0,0,0,.47,1,2.37,2.37,0,0,0,1.58.42h1.36A4,4,0,0,0,583.2,77,1.2,1.2,0,0,0,583.88,75.93Zm-3.31-5.2a2.12,2.12,0,0,0,1.55-.49,1.72,1.72,0,0,0,.5-1.3v-.5a1.68,1.68,0,0,0-.5-1.29,2.16,2.16,0,0,0-1.55-.48,2.14,2.14,0,0,0-1.54.48,1.75,1.75,0,0,0-.49,1.29v.5a1.79,1.79,0,0,0,.49,1.3A2.09,2.09,0,0,0,580.57,70.73Z" fill="#fff"/><path d="M591.28,75a4.49,4.49,0,0,1-1.76-.33,3.82,3.82,0,0,1-1.33-1,4.34,4.34,0,0,1-.84-1.49,5.88,5.88,0,0,1-.3-1.93,6,6,0,0,1,.3-2,4.66,4.66,0,0,1,.85-1.5,3.74,3.74,0,0,1,1.31-1,4.18,4.18,0,0,1,1.69-.34,4.06,4.06,0,0,1,1.65.34,3.67,3.67,0,0,1,1.27.92,3.9,3.9,0,0,1,.8,1.39A5.2,5.2,0,0,1,595.2,70v.67h-6.68v.42a3,3,0,0,0,.19,1.1,2.4,2.4,0,0,0,1.43,1.45,3.17,3.17,0,0,0,1.14.2,2.89,2.89,0,0,0,1.58-.42,2.72,2.72,0,0,0,1-1.16l1,.7a3.38,3.38,0,0,1-1.34,1.5A4.26,4.26,0,0,1,591.28,75Zm-.08-8.29a2.69,2.69,0,0,0-1.07.21,2.62,2.62,0,0,0-1.41,1.44,3,3,0,0,0-.2,1.1v.12h5.18v-.19a2.94,2.94,0,0,0-.19-1.09,2.77,2.77,0,0,0-.5-.85,2.21,2.21,0,0,0-.79-.55A2.61,2.61,0,0,0,591.2,66.74Z" fill="#fff"/><path d="M597.72,73.62h2.65V67h-2.65V65.79h4v2.28h.08a3,3,0,0,1,1.06-1.67,3.17,3.17,0,0,1,2-.61h1.26v1.4h-1.7a2.77,2.77,0,0,0-2,.7,2.4,2.4,0,0,0-.74,1.84v3.89h3.5v1.2h-7.55Z" fill="#fff"/><rect x="425" y="91.88" width="206.25" height="37.5" fill="#616262"/><path d="M468.28,103.86v9a3.53,3.53,0,0,1-.27,1.4,2.86,2.86,0,0,1-.74,1.06,3.22,3.22,0,0,1-1.15.68,4.2,4.2,0,0,1-1.45.23,3.62,3.62,0,0,1-2.31-.71,3.4,3.4,0,0,1-1.19-2l1.4-.3a3.74,3.74,0,0,0,.24.69,1.74,1.74,0,0,0,.4.56,2,2,0,0,0,.62.38,2.58,2.58,0,0,0,.88.14,2,2,0,0,0,1.54-.57,2.48,2.48,0,0,0,.56-1.78v-7.52H462.4v-1.28Z" fill="#fff"/><path d="M478.34,110v-3.87h-.14l-2.57,6.28-2.58-6.28h-.14v10h-1.34V103.86h1.89l2.15,5.39h.1l2.16-5.39h1.82v12.21h-1.35Z" fill="#fff"/><path d="M486.28,116.28a4.49,4.49,0,0,1-1.76-.33,3.82,3.82,0,0,1-1.33-1,4.34,4.34,0,0,1-.84-1.49,5.88,5.88,0,0,1-.3-1.93,6,6,0,0,1,.3-2,4.66,4.66,0,0,1,.85-1.5,3.74,3.74,0,0,1,1.31-1,4.18,4.18,0,0,1,1.69-.34,4.06,4.06,0,0,1,1.65.34,3.67,3.67,0,0,1,1.27.92,3.9,3.9,0,0,1,.8,1.39,5.2,5.2,0,0,1,.28,1.76v.67h-6.68v.42a3,3,0,0,0,.19,1.1,2.4,2.4,0,0,0,1.43,1.45,3.17,3.17,0,0,0,1.14.2,2.89,2.89,0,0,0,1.58-.42,2.72,2.72,0,0,0,1-1.16l1,.7a3.38,3.38,0,0,1-1.34,1.5A4.26,4.26,0,0,1,486.28,116.28ZM486.2,108a2.69,2.69,0,0,0-1.07.21,2.62,2.62,0,0,0-1.41,1.44,3,3,0,0,0-.2,1.1v.12h5.18v-.19a2.94,2.94,0,0,0-.19-1.09,2.77,2.77,0,0,0-.5-.85,2.21,2.21,0,0,0-.79-.55A2.61,2.61,0,0,0,486.2,108Z" fill="#fff"/><path d="M497.06,116.07a1.88,1.88,0,0,1-1.51-.57,2.26,2.26,0,0,1-.48-1.49v-5.76h-3V107h2.24a.92.92,0,0,0,.64-.18.89.89,0,0,0,.18-.64v-2.36h1.35V107h4.11v1.21h-4.11v6.62h4.11v1.2Z" fill="#fff"/><path d="M507.28,116.28a4.49,4.49,0,0,1-1.76-.33,3.82,3.82,0,0,1-1.33-1,4.34,4.34,0,0,1-.84-1.49,5.88,5.88,0,0,1-.3-1.93,6,6,0,0,1,.3-2,4.66,4.66,0,0,1,.85-1.5,3.74,3.74,0,0,1,1.31-1,4.18,4.18,0,0,1,1.69-.34,4.06,4.06,0,0,1,1.65.34,3.67,3.67,0,0,1,1.27.92,3.9,3.9,0,0,1,.8,1.39,5.2,5.2,0,0,1,.28,1.76v.67h-6.68v.42a3,3,0,0,0,.19,1.1,2.4,2.4,0,0,0,1.43,1.45,3.17,3.17,0,0,0,1.14.2,2.89,2.89,0,0,0,1.58-.42,2.72,2.72,0,0,0,1-1.16l1,.7a3.38,3.38,0,0,1-1.34,1.5A4.26,4.26,0,0,1,507.28,116.28ZM507.2,108a2.69,2.69,0,0,0-1.07.21,2.62,2.62,0,0,0-1.41,1.44,3,3,0,0,0-.2,1.1v.12h5.18v-.19a2.94,2.94,0,0,0-.19-1.09,2.77,2.77,0,0,0-.5-.85,2.21,2.21,0,0,0-.79-.55A2.61,2.61,0,0,0,507.2,108Z" fill="#fff"/><path d="M513.72,114.87h2.65v-6.62h-2.65V107h4v2.28h.08a3,3,0,0,1,1.06-1.67,3.17,3.17,0,0,1,2-.61h1.26v1.4h-1.7a2.77,2.77,0,0,0-2,.7,2.4,2.4,0,0,0-.74,1.84v3.89h3.5v1.2h-7.55Z" fill="#fff"/><path d="M530.84,110v-3.87h-.14l-2.57,6.28-2.58-6.28h-.14v10h-1.34V103.86H526l2.15,5.39h.1l2.16-5.39h1.82v12.21h-1.35Z" fill="#fff"/><path d="M542,116.07a1.44,1.44,0,0,1-1.17-.42,2,2,0,0,1-.44-1.05h-.09a2.52,2.52,0,0,1-1,1.24,3.08,3.08,0,0,1-1.76.44,3.3,3.3,0,0,1-2.26-.73,2.53,2.53,0,0,1-.84-2,2.3,2.3,0,0,1,.92-2,5.08,5.08,0,0,1,3-.68h1.92V110a1.89,1.89,0,0,0-.56-1.49,2.31,2.31,0,0,0-1.59-.5,2.56,2.56,0,0,0-2.42,1.33l-.94-.7a3.2,3.2,0,0,1,.47-.68,3,3,0,0,1,.74-.6,4,4,0,0,1,1-.4,4.85,4.85,0,0,1,1.25-.16,3.7,3.7,0,0,1,2.52.81,2.8,2.8,0,0,1,.94,2.25v5H543v1.2Zm-4.17-1a3.39,3.39,0,0,0,1-.13,2.8,2.8,0,0,0,.78-.35,1.61,1.61,0,0,0,.52-.52,1.31,1.31,0,0,0,.18-.66V112h-1.92a3.71,3.71,0,0,0-1.84.35,1.12,1.12,0,0,0-.58,1v.36a1.23,1.23,0,0,0,.5,1.06A2.3,2.3,0,0,0,537.87,115.11Z" fill="#fff"/><path d="M545.59,116.07v-9H547v1.47h.07a3.25,3.25,0,0,1,.35-.63,2.05,2.05,0,0,1,.52-.54,2.71,2.71,0,0,1,.72-.37,3.22,3.22,0,0,1,1-.14,3,3,0,0,1,2.28.91,3.55,3.55,0,0,1,.86,2.54v5.79h-1.4v-5.54a2.71,2.71,0,0,0-.55-1.85,2,2,0,0,0-1.59-.6,3.23,3.23,0,0,0-.82.1,2.36,2.36,0,0,0-.72.32,1.65,1.65,0,0,0-.51.54,1.49,1.49,0,0,0-.19.77v6.26Z" fill="#fff"/><path d="M563,116.07a1.44,1.44,0,0,1-1.17-.42,2,2,0,0,1-.44-1.05h-.09a2.52,2.52,0,0,1-1,1.24,3.08,3.08,0,0,1-1.76.44,3.3,3.3,0,0,1-2.26-.73,2.53,2.53,0,0,1-.84-2,2.3,2.3,0,0,1,.92-2,5.08,5.08,0,0,1,3-.68h1.92V110a1.89,1.89,0,0,0-.56-1.49,2.31,2.31,0,0,0-1.59-.5,2.56,2.56,0,0,0-2.42,1.33l-.94-.7a3.2,3.2,0,0,1,.47-.68,3,3,0,0,1,.74-.6,4,4,0,0,1,1-.4,4.85,4.85,0,0,1,1.25-.16,3.7,3.7,0,0,1,2.52.81,2.8,2.8,0,0,1,.94,2.25v5H564v1.2Zm-4.17-1a3.39,3.39,0,0,0,1-.13,2.8,2.8,0,0,0,.78-.35,1.61,1.61,0,0,0,.52-.52,1.31,1.31,0,0,0,.18-.66V112h-1.92a3.71,3.71,0,0,0-1.84.35,1.12,1.12,0,0,0-.58,1v.36a1.23,1.23,0,0,0,.5,1.06A2.3,2.3,0,0,0,558.87,115.11Z" fill="#fff"/><path d="M574.69,117.12a2.18,2.18,0,0,1-1.13,2,7,7,0,0,1-3.42.65,6.43,6.43,0,0,1-3.14-.57,1.85,1.85,0,0,1-1-1.67,1.59,1.59,0,0,1,.38-1.13,2.34,2.34,0,0,1,1.09-.6v-.21a1.56,1.56,0,0,1-.6-.49,1.28,1.28,0,0,1-.21-.75,1.23,1.23,0,0,1,.47-1,3.28,3.28,0,0,1,1.16-.53v-.07a2.83,2.83,0,0,1-1.3-1.08,3,3,0,0,1-.47-1.68,3.22,3.22,0,0,1,.25-1.26,2.69,2.69,0,0,1,.71-1,3.37,3.37,0,0,1,1.11-.64,4.33,4.33,0,0,1,1.43-.23,4.21,4.21,0,0,1,1.79.37V107a1.48,1.48,0,0,1,.24-.86,1,1,0,0,1,.84-.34h1.67V107h-2v.62a3,3,0,0,1,.75,1,3.21,3.21,0,0,1,.26,1.3,3.12,3.12,0,0,1-.25,1.26,3,3,0,0,1-.71,1,3.18,3.18,0,0,1-1.11.64,4.46,4.46,0,0,1-1.45.22h-.43a3,3,0,0,1-.42-.06l-.44.12a1.65,1.65,0,0,0-.42.21,1.18,1.18,0,0,0-.32.31.71.71,0,0,0-.12.41.53.53,0,0,0,.4.54,3.41,3.41,0,0,0,1,.13h2a4,4,0,0,1,2.54.65A2.18,2.18,0,0,1,574.69,117.12Zm-1.31.06a1,1,0,0,0-.44-.87,2.62,2.62,0,0,0-1.52-.32h-3.13a1.25,1.25,0,0,0-.91,1.22,1.36,1.36,0,0,0,.47,1,2.37,2.37,0,0,0,1.58.42h1.36a4,4,0,0,0,1.91-.37A1.2,1.2,0,0,0,573.38,117.18Zm-3.31-5.2a2.12,2.12,0,0,0,1.55-.49,1.72,1.72,0,0,0,.5-1.3v-.5a1.68,1.68,0,0,0-.5-1.29,2.16,2.16,0,0,0-1.55-.48,2.14,2.14,0,0,0-1.54.48,1.75,1.75,0,0,0-.49,1.29v.5a1.79,1.79,0,0,0,.49,1.3A2.09,2.09,0,0,0,570.07,112Z" fill="#fff"/><path d="M580.78,116.28A4.49,4.49,0,0,1,579,116a3.82,3.82,0,0,1-1.33-1,4.34,4.34,0,0,1-.84-1.49,5.88,5.88,0,0,1-.3-1.93,6,6,0,0,1,.3-2,4.66,4.66,0,0,1,.85-1.5,3.74,3.74,0,0,1,1.31-1,4.18,4.18,0,0,1,1.69-.34,4.06,4.06,0,0,1,1.65.34,3.67,3.67,0,0,1,1.27.92,3.9,3.9,0,0,1,.8,1.39,5.2,5.2,0,0,1,.28,1.76v.67H578v.42a3,3,0,0,0,.19,1.1,2.4,2.4,0,0,0,1.43,1.45,3.17,3.17,0,0,0,1.14.2,2.89,2.89,0,0,0,1.58-.42,2.72,2.72,0,0,0,1-1.16l1,.7a3.38,3.38,0,0,1-1.34,1.5A4.26,4.26,0,0,1,580.78,116.28ZM580.7,108a2.69,2.69,0,0,0-1.07.21,2.62,2.62,0,0,0-1.41,1.44,3,3,0,0,0-.2,1.1v.12h5.18v-.19a2.94,2.94,0,0,0-.19-1.09,2.77,2.77,0,0,0-.5-.85,2.21,2.21,0,0,0-.79-.55A2.61,2.61,0,0,0,580.7,108Z" fill="#fff"/><path d="M587.22,114.87h2.65v-6.62h-2.65V107h4v2.28h.08a3,3,0,0,1,1.06-1.67,3.17,3.17,0,0,1,2-.61h1.26v1.4H594a2.77,2.77,0,0,0-2,.7,2.4,2.4,0,0,0-.74,1.84v3.89h3.5v1.2h-7.55Z" fill="#fff"/><rect x="425" y="133.13" width="206.25" height="37.5" fill="#616262"/><path d="M461.54,145.11H465a3.82,3.82,0,0,1,3.34,1.54,10,10,0,0,1,0,9.14,3.84,3.84,0,0,1-3.34,1.53h-3.41Zm3.34,10.94a2.55,2.55,0,0,0,2.21-1,4.74,4.74,0,0,0,.75-2.87v-1.89a4.78,4.78,0,0,0-.75-2.87,2.57,2.57,0,0,0-2.21-1H463v9.66Z" fill="#fff"/><path d="M475.63,157.54a4.28,4.28,0,0,1-1.71-.34,3.62,3.62,0,0,1-1.3-.95,4.46,4.46,0,0,1-.81-1.49,6.9,6.9,0,0,1,0-3.89,4.41,4.41,0,0,1,.81-1.5,3.62,3.62,0,0,1,1.3-1,4.28,4.28,0,0,1,1.71-.34,4.19,4.19,0,0,1,1.7.34,3.62,3.62,0,0,1,1.3,1,4.41,4.41,0,0,1,.81,1.5,6.9,6.9,0,0,1,0,3.89,4.46,4.46,0,0,1-.81,1.49,3.62,3.62,0,0,1-1.3.95A4.19,4.19,0,0,1,475.63,157.54Zm0-1.21a2.62,2.62,0,0,0,1.89-.7,3,3,0,0,0,.71-2.17v-1.3a3,3,0,0,0-.71-2.17,2.62,2.62,0,0,0-1.89-.7,2.59,2.59,0,0,0-1.89.7,2.91,2.91,0,0,0-.72,2.17v1.3a2.91,2.91,0,0,0,.72,2.17A2.59,2.59,0,0,0,475.63,156.33Z" fill="#fff"/><path d="M486.44,157.54a4.19,4.19,0,0,1-1.74-.35,3.5,3.5,0,0,1-1.29-.95,4.08,4.08,0,0,1-.79-1.49,6.54,6.54,0,0,1-.27-1.94,6.23,6.23,0,0,1,.28-1.94,4.23,4.23,0,0,1,.8-1.5,3.55,3.55,0,0,1,1.28-1,4.21,4.21,0,0,1,1.71-.34,3.68,3.68,0,0,1,2.14.58,3.44,3.44,0,0,1,1.21,1.51l-1.12.59a2.14,2.14,0,0,0-.82-1.08,2.44,2.44,0,0,0-1.41-.39,2.86,2.86,0,0,0-1.09.2,2.37,2.37,0,0,0-.81.57,2.32,2.32,0,0,0-.5.88,3.52,3.52,0,0,0-.17,1.1v1.54a3.52,3.52,0,0,0,.17,1.1,2.27,2.27,0,0,0,1.32,1.45,3,3,0,0,0,1.12.2,2.51,2.51,0,0,0,1.5-.42,3,3,0,0,0,1-1.16l1,.68a3.6,3.6,0,0,1-1.26,1.51A3.73,3.73,0,0,1,486.44,157.54Z" fill="#fff"/><path d="M493.21,144.37h1.4v8.18h.07l1.58-1.49,3-2.77H501l-3.74,3.54,4.18,5.49h-1.73l-3.52-4.69-1.56,1.42v3.27h-1.4Z" fill="#fff"/><path d="M507.28,157.54a4.49,4.49,0,0,1-1.76-.34,3.82,3.82,0,0,1-1.33-.95,4.34,4.34,0,0,1-.84-1.49,5.88,5.88,0,0,1-.3-1.93,6,6,0,0,1,.3-2,4.66,4.66,0,0,1,.85-1.5,3.74,3.74,0,0,1,1.31-1,4.18,4.18,0,0,1,1.69-.34,4.06,4.06,0,0,1,1.65.34,3.67,3.67,0,0,1,1.27.92,3.9,3.9,0,0,1,.8,1.39,5.2,5.2,0,0,1,.28,1.76v.67h-6.68v.42a3,3,0,0,0,.19,1.1,2.4,2.4,0,0,0,1.43,1.45,3.17,3.17,0,0,0,1.14.2,2.89,2.89,0,0,0,1.58-.42,2.72,2.72,0,0,0,1-1.16l1,.7a3.38,3.38,0,0,1-1.34,1.5A4.26,4.26,0,0,1,507.28,157.54Zm-.08-8.3a2.69,2.69,0,0,0-1.07.21,2.62,2.62,0,0,0-1.41,1.44,3,3,0,0,0-.2,1.1v.12h5.18v-.19a2.94,2.94,0,0,0-.19-1.09,2.77,2.77,0,0,0-.5-.85,2.21,2.21,0,0,0-.79-.55A2.61,2.61,0,0,0,507.2,149.24Z" fill="#fff"/><path d="M513.72,156.12h2.65V149.5h-2.65v-1.21h4v2.28h.08a3,3,0,0,1,1.06-1.67,3.17,3.17,0,0,1,2-.61h1.26v1.4h-1.7a2.77,2.77,0,0,0-2,.7,2.4,2.4,0,0,0-.74,1.84v3.89h3.5v1.2h-7.55Z" fill="#fff"/><path d="M530.84,151.2v-3.87h-.14l-2.57,6.28-2.58-6.28h-.14v10h-1.34V145.11H526l2.15,5.39h.1l2.16-5.39h1.82v12.21h-1.35Z" fill="#fff"/><path d="M542,157.32a1.44,1.44,0,0,1-1.17-.42,2,2,0,0,1-.44-1.05h-.09a2.52,2.52,0,0,1-1,1.24,3.08,3.08,0,0,1-1.76.45,3.31,3.31,0,0,1-2.26-.74,2.53,2.53,0,0,1-.84-2,2.3,2.3,0,0,1,.92-1.95,5.08,5.08,0,0,1,3-.68h1.92v-.88a1.89,1.89,0,0,0-.56-1.49,2.31,2.31,0,0,0-1.59-.5,2.56,2.56,0,0,0-2.42,1.33l-.94-.7a3.2,3.2,0,0,1,.47-.68,3,3,0,0,1,.74-.6,4,4,0,0,1,1-.4,4.85,4.85,0,0,1,1.25-.16,3.7,3.7,0,0,1,2.52.81,2.8,2.8,0,0,1,.94,2.25v5H543v1.2Zm-4.17-1a3.39,3.39,0,0,0,1-.13,2.8,2.8,0,0,0,.78-.35,1.61,1.61,0,0,0,.52-.52,1.31,1.31,0,0,0,.18-.66v-1.49h-1.92a3.71,3.71,0,0,0-1.84.35,1.12,1.12,0,0,0-.58,1V155a1.22,1.22,0,0,0,.5,1.05A2.3,2.3,0,0,0,537.87,156.36Z" fill="#fff"/><path d="M545.59,157.32v-9H547v1.47h.07a3.25,3.25,0,0,1,.35-.63,2.05,2.05,0,0,1,.52-.54,2.71,2.71,0,0,1,.72-.37,3.22,3.22,0,0,1,1-.14,3,3,0,0,1,2.28.91,3.55,3.55,0,0,1,.86,2.54v5.79h-1.4v-5.54a2.71,2.71,0,0,0-.55-1.85,2,2,0,0,0-1.59-.6,3.23,3.23,0,0,0-.82.1,2.36,2.36,0,0,0-.72.32,1.65,1.65,0,0,0-.51.54,1.49,1.49,0,0,0-.19.77v6.26Z" fill="#fff"/><path d="M563,157.32a1.44,1.44,0,0,1-1.17-.42,2,2,0,0,1-.44-1.05h-.09a2.52,2.52,0,0,1-1,1.24,3.08,3.08,0,0,1-1.76.45,3.31,3.31,0,0,1-2.26-.74,2.53,2.53,0,0,1-.84-2,2.3,2.3,0,0,1,.92-1.95,5.08,5.08,0,0,1,3-.68h1.92v-.88a1.89,1.89,0,0,0-.56-1.49,2.31,2.31,0,0,0-1.59-.5,2.56,2.56,0,0,0-2.42,1.33l-.94-.7a3.2,3.2,0,0,1,.47-.68,3,3,0,0,1,.74-.6,4,4,0,0,1,1-.4,4.85,4.85,0,0,1,1.25-.16,3.7,3.7,0,0,1,2.52.81,2.8,2.8,0,0,1,.94,2.25v5H564v1.2Zm-4.17-1a3.39,3.39,0,0,0,1-.13,2.8,2.8,0,0,0,.78-.35,1.61,1.61,0,0,0,.52-.52,1.31,1.31,0,0,0,.18-.66v-1.49h-1.92a3.71,3.71,0,0,0-1.84.35,1.12,1.12,0,0,0-.58,1V155a1.22,1.22,0,0,0,.5,1.05A2.3,2.3,0,0,0,558.87,156.36Z" fill="#fff"/><path d="M574.69,158.37a2.18,2.18,0,0,1-1.13,2,7,7,0,0,1-3.42.66,6.41,6.41,0,0,1-3.14-.58,1.85,1.85,0,0,1-1-1.67,1.59,1.59,0,0,1,.38-1.13,2.34,2.34,0,0,1,1.09-.6v-.21a1.56,1.56,0,0,1-.6-.49,1.28,1.28,0,0,1-.21-.75,1.23,1.23,0,0,1,.47-1.05,3.1,3.1,0,0,1,1.16-.52V154a2.83,2.83,0,0,1-1.3-1.08,3,3,0,0,1-.47-1.68,3.22,3.22,0,0,1,.25-1.26,2.69,2.69,0,0,1,.71-1,3.37,3.37,0,0,1,1.11-.64,4.33,4.33,0,0,1,1.43-.23,4.21,4.21,0,0,1,1.79.37v-.16a1.48,1.48,0,0,1,.24-.86,1,1,0,0,1,.84-.34h1.67v1.2h-2v.62a3,3,0,0,1,.75,1,3.21,3.21,0,0,1,.26,1.3,3.12,3.12,0,0,1-.25,1.26,3,3,0,0,1-.71,1,3.18,3.18,0,0,1-1.11.64,4.46,4.46,0,0,1-1.45.22h-.43l-.42-.06-.44.12a1.65,1.65,0,0,0-.42.21,1.18,1.18,0,0,0-.32.31.71.71,0,0,0-.12.41.53.53,0,0,0,.4.54,3.41,3.41,0,0,0,1,.13h2a4,4,0,0,1,2.54.65A2.18,2.18,0,0,1,574.69,158.37Zm-1.31.06a1,1,0,0,0-.44-.87,2.62,2.62,0,0,0-1.52-.32h-3.13a1.25,1.25,0,0,0-.91,1.22,1.36,1.36,0,0,0,.47,1,2.37,2.37,0,0,0,1.58.42h1.36a4,4,0,0,0,1.91-.37A1.2,1.2,0,0,0,573.38,158.43Zm-3.31-5.2a2.12,2.12,0,0,0,1.55-.49,1.72,1.72,0,0,0,.5-1.3v-.5a1.68,1.68,0,0,0-.5-1.29,2.16,2.16,0,0,0-1.55-.48,2.14,2.14,0,0,0-1.54.48,1.75,1.75,0,0,0-.49,1.29v.5a1.79,1.79,0,0,0,.49,1.3A2.09,2.09,0,0,0,570.07,153.23Z" fill="#fff"/><path d="M580.78,157.54a4.49,4.49,0,0,1-1.76-.34,3.82,3.82,0,0,1-1.33-.95,4.34,4.34,0,0,1-.84-1.49,5.88,5.88,0,0,1-.3-1.93,6,6,0,0,1,.3-2,4.66,4.66,0,0,1,.85-1.5,3.74,3.74,0,0,1,1.31-1,4.18,4.18,0,0,1,1.69-.34,4.06,4.06,0,0,1,1.65.34,3.67,3.67,0,0,1,1.27.92,3.9,3.9,0,0,1,.8,1.39,5.2,5.2,0,0,1,.28,1.76v.67H578v.42a3,3,0,0,0,.19,1.1,2.4,2.4,0,0,0,1.43,1.45,3.17,3.17,0,0,0,1.14.2,2.89,2.89,0,0,0,1.58-.42,2.72,2.72,0,0,0,1-1.16l1,.7a3.38,3.38,0,0,1-1.34,1.5A4.26,4.26,0,0,1,580.78,157.54Zm-.08-8.3a2.69,2.69,0,0,0-1.07.21,2.62,2.62,0,0,0-1.41,1.44,3,3,0,0,0-.2,1.1v.12h5.18v-.19a2.94,2.94,0,0,0-.19-1.09,2.77,2.77,0,0,0-.5-.85,2.21,2.21,0,0,0-.79-.55A2.61,2.61,0,0,0,580.7,149.24Z" fill="#fff"/><path d="M587.22,156.12h2.65V149.5h-2.65v-1.21h4v2.28h.08a3,3,0,0,1,1.06-1.67,3.17,3.17,0,0,1,2-.61h1.26v1.4H594a2.77,2.77,0,0,0-2,.7,2.4,2.4,0,0,0-.74,1.84v3.89h3.5v1.2h-7.55Z" fill="#fff"/><rect x="425" y="174.38" width="206.25" height="37.5" fill="#616262"/><path d="M523.88,198.73a1.37,1.37,0,0,1-1-.3,1,1,0,0,1-.29-.75v-.31a1,1,0,0,1,.29-.75,1.83,1.83,0,0,1,2,0,1,1,0,0,1,.29.75v.31a1,1,0,0,1-.29.75A1.36,1.36,0,0,1,523.88,198.73Z" fill="#fff"/><path d="M534.38,198.73a1.37,1.37,0,0,1-1-.3,1,1,0,0,1-.29-.75v-.31a1,1,0,0,1,.29-.75,1.83,1.83,0,0,1,2,0,1,1,0,0,1,.29.75v.31a1,1,0,0,1-.29.75A1.36,1.36,0,0,1,534.38,198.73Z" fill="#fff"/><path d="M544.88,198.73a1.37,1.37,0,0,1-1-.3,1,1,0,0,1-.29-.75v-.31a1,1,0,0,1,.29-.75,1.83,1.83,0,0,1,2,0,1,1,0,0,1,.29.75v.31a1,1,0,0,1-.29.75A1.36,1.36,0,0,1,544.88,198.73Z" fill="#fff"/><rect y="215.63" width="636.7" height="46.88" fill="#3f7dbf"/><path d="M246.54,249.67h-2.49v-19.2h-6.78v-2.21h16.06v2.21h-6.79Z" fill="#fff"/><path d="M263,250a7.34,7.34,0,0,1-5.61-2.17,8.36,8.36,0,0,1-2.06-6,9.35,9.35,0,0,1,1.91-6.17,6.35,6.35,0,0,1,5.13-2.28,6.06,6.06,0,0,1,4.78,2,7.62,7.62,0,0,1,1.76,5.24v1.54H257.81a6.35,6.35,0,0,0,1.43,4.29,4.91,4.91,0,0,0,3.81,1.46,13,13,0,0,0,5.13-1.08v2.17a13.57,13.57,0,0,1-2.44.8A13.83,13.83,0,0,1,263,250Zm-.66-14.61a4,4,0,0,0-3.08,1.26,5.74,5.74,0,0,0-1.35,3.49h8.39a5.3,5.3,0,0,0-1-3.52A3.59,3.59,0,0,0,262.3,235.36Z" fill="#fff"/><path d="M283.37,245.29a4,4,0,0,1-1.67,3.46A7.86,7.86,0,0,1,277,250a10.23,10.23,0,0,1-5-1V246.7a11.84,11.84,0,0,0,2.48.92,10.19,10.19,0,0,0,2.56.34,5.74,5.74,0,0,0,2.93-.61,2.08,2.08,0,0,0,.21-3.45,12.7,12.7,0,0,0-3.17-1.58,17.26,17.26,0,0,1-3.19-1.46,4.37,4.37,0,0,1-1.4-1.41,3.68,3.68,0,0,1-.46-1.89,3.61,3.61,0,0,1,1.59-3.1,7.51,7.51,0,0,1,4.38-1.13,12.87,12.87,0,0,1,5.07,1l-.86,2a11.71,11.71,0,0,0-4.38-1,5,5,0,0,0-2.61.55,1.66,1.66,0,0,0-.88,1.49,1.82,1.82,0,0,0,.33,1.1,3.32,3.32,0,0,0,1.06.86,23,23,0,0,0,2.82,1.19,10.56,10.56,0,0,1,3.86,2.09A3.75,3.75,0,0,1,283.37,245.29Z" fill="#fff"/><path d="M292.51,248a8.32,8.32,0,0,0,1.24-.09,9.1,9.1,0,0,0,1-.2v1.86a4.28,4.28,0,0,1-1.17.31,8,8,0,0,1-1.38.13q-4.67,0-4.66-4.91v-9.55h-2.3v-1.17l2.3-1,1-3.43h1.4v3.72h4.66v1.89h-4.66V245a3.23,3.23,0,0,0,.69,2.22A2.39,2.39,0,0,0,292.51,248Z" fill="#fff"/><path d="M313,233.33a10.08,10.08,0,0,1,1.92.17l-.34,2.26a8,8,0,0,0-1.75-.22,4.32,4.32,0,0,0-3.34,1.58,5.79,5.79,0,0,0-1.38,3.94v8.61h-2.43v-16h2l.28,3h.12a7.05,7.05,0,0,1,2.15-2.41A4.84,4.84,0,0,1,313,233.33Z" fill="#fff"/><path d="M320.24,233.62V244a4.2,4.2,0,0,0,.89,2.92,3.63,3.63,0,0,0,2.8,1,4.58,4.58,0,0,0,3.69-1.38,7,7,0,0,0,1.16-4.49v-8.44h2.43v16h-2l-.35-2.15h-.13a4.89,4.89,0,0,1-2.07,1.82,7,7,0,0,1-3,.63,6.16,6.16,0,0,1-4.38-1.39c-1-.93-1.46-2.42-1.46-4.46v-10.5Z" fill="#fff"/><path d="M347.35,249.67V239.29a4.16,4.16,0,0,0-.89-2.93,3.63,3.63,0,0,0-2.8-1,4.64,4.64,0,0,0-3.69,1.36q-1.17,1.37-1.17,4.5v8.42h-2.43v-16h2l.4,2.2h.12A4.93,4.93,0,0,1,341,234a6.75,6.75,0,0,1,3-.65,6.06,6.06,0,0,1,4.36,1.4,5.93,5.93,0,0,1,1.47,4.47v10.47Z" fill="#fff"/><path d="M365.77,249.67V239.29a4.16,4.16,0,0,0-.9-2.93,3.61,3.61,0,0,0-2.79-1,4.67,4.67,0,0,0-3.7,1.36q-1.17,1.37-1.17,4.5v8.42h-2.43v-16h2l.39,2.2h.12a5,5,0,0,1,2.1-1.84,6.67,6.67,0,0,1,3-.65,6,6,0,0,1,4.36,1.4,5.93,5.93,0,0,1,1.47,4.47v10.47Z" fill="#fff"/><path d="M380,250a7.35,7.35,0,0,1-5.62-2.17,8.41,8.41,0,0,1-2.06-6,9.35,9.35,0,0,1,1.91-6.17,6.37,6.37,0,0,1,5.14-2.28,6,6,0,0,1,4.77,2,7.62,7.62,0,0,1,1.76,5.24v1.54H374.82a6.35,6.35,0,0,0,1.43,4.29,4.91,4.91,0,0,0,3.81,1.46,13,13,0,0,0,5.13-1.08v2.17a13.57,13.57,0,0,1-2.44.8A13.79,13.79,0,0,1,380,250Zm-.66-14.61a4,4,0,0,0-3.09,1.26,5.8,5.8,0,0,0-1.35,3.49h8.39a5.35,5.35,0,0,0-1-3.52A3.61,3.61,0,0,0,379.32,235.36Z" fill="#fff"/><path d="M397.35,233.33a10.15,10.15,0,0,1,1.92.17l-.34,2.26a8,8,0,0,0-1.76-.22,4.28,4.28,0,0,0-3.33,1.58,5.79,5.79,0,0,0-1.38,3.94v8.61H390v-16h2l.28,3h.12a7,7,0,0,1,2.15-2.41A4.82,4.82,0,0,1,397.35,233.33Z" fill="#fff"/></svg>