<svg id="Layer_1" data-name="Layer 1" xmlns="http://www.w3.org/2000/svg" viewBox="0 0 637.5 262.5">
  <title>galasa-architecture</title>
  <g>
    <rect x="0.8" width="636.7" height="46.88" fill="#3f7dbf"/>
    <text transform="translate(209.45 34.05)" font-size="30" fill="#fff" font-family="OpenSans-Regular, Open Sans">Test framework</text>
  </g>
  <rect x="215.63" y="50.63" width="206.25" height="37.5" fill="#424241"/>
  <rect x="5" y="50.63" width="206.25" height="37.5" fill="#212120"/>
  <text transform="translate(34.63 74.82)" font-size="17.5" fill="#fff" font-family="IBMPlexMono, IBM Plex Mono">zosFileManager</text>
  <rect x="5" y="91.88" width="206.25" height="37.5" fill="#212120"/>
  <text transform="translate(29.38 116.07)" font-size="17.5" fill="#fff" font-family="IBMPlexMono, IBM Plex Mono">zosBatchManager</text>
  <rect x="5" y="133.13" width="206.25" height="37.5" fill="#212120"/>
  <text transform="translate(18.88 157.32)" font-size="17.5" fill="#fff" font-family="IBMPlexMono, IBM Plex Mono">zosCommandManager</text>
  <rect x="5" y="174.38" width="206.25" height="37.5" fill="#212120"/>
  <text transform="translate(87.38 198.57)" font-size="17.5" fill="#fff" font-family="IBMPlexMono, IBM Plex Mono">...</text>
  <text transform="translate(261 74.82)" font-size="17.5" fill="#fff" font-family="IBMPlexMono, IBM Plex Mono">CICSManager</text>
  <rect x="215.63" y="91.88" width="206.25" height="37.5" fill="#424241"/>
  <text transform="translate(266.25 116.07)" font-size="17.5" fill="#fff" font-family="IBMPlexMono, IBM Plex Mono">WMQManager</text>
  <rect x="215.63" y="133.13" width="206.25" height="37.5" fill="#424241"/>
  <text transform="translate(266.25 157.32)" font-size="17.5" fill="#fff" font-family="IBMPlexMono, IBM Plex Mono">DB2Manager</text>
  <rect x="215.63" y="174.38" width="206.25" height="37.5" fill="#424241"/>
  <text transform="translate(303 198.57)" font-size="17.5" fill="#fff" font-family="IBMPlexMono, IBM Plex Mono">...</text>
  <rect x="425" y="50.63" width="206.25" height="37.5" fill="#616262"/>
  <text transform="translate(449.38 74.82)" font-size="17.5" fill="#fff" font-family="IBMPlexMono, IBM Plex Mono">SeleniumManager</text>
  <rect x="425" y="91.88" width="206.25" height="37.5" fill="#616262"/>
  <text transform="translate(459.88 116.07)" font-size="17.5" fill="#fff" font-family="IBMPlexMono, IBM Plex Mono">JMeterManager</text>
  <rect x="425" y="133.13" width="206.25" height="37.5" fill="#616262"/>
  <text transform="translate(459.88 157.32)" font-size="17.5" fill="#fff" font-family="IBMPlexMono, IBM Plex Mono">DockerManager</text>
  <rect x="425" y="174.38" width="206.25" height="37.5" fill="#616262"/>
  <text transform="translate(518.63 198.57)" font-size="17.5" fill="#fff" font-family="IBMPlexMono, IBM Plex Mono">...</text>
  <g>
    <rect y="215.63" width="636.7" height="46.88" fill="#3f7dbf"/>
    <text transform="translate(237.01 249.67)" font-size="30" fill="#fff" font-family="OpenSans-Regular, Open Sans">Test runner</text>
  </g>
</svg>
