<svg xml:space="preserve" style="enable-background:new 0 0 730 304" viewBox="0 0 730 304" xmlns="http://www.w3.org/2000/svg">
  <style>
    .galasa-architecture-framework_svg__st0{fill:#161616}
  </style>
  <g id="galasa-architecture-framework_svg__Layer_1">
    <path d="M232 232c0 4.4-3.6 8-8 8H8c-4.4 0-8-3.6-8-8v-16c0-4.4 3.6-8 8-8h216c4.4 0 8 3.6 8 8v16z" class="galasa-architecture-framework_svg__st0"/>
    <path d="M730 36c0 6.6-5.4 12-12 12H12C5.4 48 0 42.6 0 36V12C0 5.4 5.4 0 12 0h706c6.6 0 12 5.4 12 12v24z" style="fill:#003594"/>
    <path d="M232 88c0 4.4-3.6 8-8 8H8c-4.4 0-8-3.6-8-8V72c0-4.4 3.6-8 8-8h216c4.4 0 8 3.6 8 8v16zm0 96c0 4.4-3.6 8-8 8H8c-4.4 0-8-3.6-8-8v-16c0-4.4 3.6-8 8-8h216c4.4 0 8 3.6 8 8v16zm0-48c0 4.4-3.6 8-8 8H8c-4.4 0-8-3.6-8-8v-16c0-4.4 3.6-8 8-8h216c4.4 0 8 3.6 8 8v16z" class="galasa-architecture-framework_svg__st0"/>
    <path d="M481 232c0 4.4-3.6 8-8 8H255c-4.4 0-8-3.6-8-8v-16c0-4.4 3.6-8 8-8h218c4.4 0 8 3.6 8 8v16zm0-144c0 4.4-3.6 8-8 8H255c-4.4 0-8-3.6-8-8V72c0-4.4 3.6-8 8-8h218c4.4 0 8 3.6 8 8v16zm0 96c0 4.4-3.6 8-8 8H255c-4.4 0-8-3.6-8-8v-16c0-4.4 3.6-8 8-8h218c4.4 0 8 3.6 8 8v16zm0-48c0 4.4-3.6 8-8 8H255c-4.4 0-8-3.6-8-8v-16c0-4.4 3.6-8 8-8h218c4.4 0 8 3.6 8 8v16z" style="fill:#393939"/>
    <path d="M730 232c0 4.4-3.6 8-8 8H506c-4.4 0-8-3.6-8-8v-16c0-4.4 3.6-8 8-8h216c4.4 0 8 3.6 8 8v16zm0-144c0 4.4-3.6 8-8 8H506c-4.4 0-8-3.6-8-8V72c0-4.4 3.6-8 8-8h216c4.4 0 8 3.6 8 8v16zm0 96c0 4.4-3.6 8-8 8H506c-4.4 0-8-3.6-8-8v-16c0-4.4 3.6-8 8-8h216c4.4 0 8 3.6 8 8v16zm0-48c0 4.4-3.6 8-8 8H506c-4.4 0-8-3.6-8-8v-16c0-4.4 3.6-8 8-8h216c4.4 0 8 3.6 8 8v16z" style="fill:#8d8d8d"/>
    <path d="M730 292c0 6.6-5.4 12-12 12H12c-6.6 0-12-5.4-12-12v-24c0-6.6 5.4-12 12-12h706c6.6 0 12 5.4 12 12v24z" style="fill:#9ebae3"/>
    <path d="M287.73 16.92v1.8h-5.52v14.04h-1.92V18.72h-5.52v-1.8h12.96zM293.11 33c-1.14 0-2.15-.25-3.04-.74-.89-.5-1.58-1.21-2.08-2.15s-.74-2.05-.74-3.35.25-2.41.74-3.35 1.18-1.65 2.04-2.15c.86-.5 1.85-.74 2.95-.74 1.12 0 2.08.24 2.87.72s1.4 1.13 1.81 1.96c.42.82.62 1.75.62 2.77 0 .27-.01.52-.02.74-.02.22-.04.42-.07.6h-9.7v-1.7h8.86l-.98.19c0-1.15-.32-2.04-.95-2.66-.63-.62-1.46-.94-2.48-.94-.78 0-1.46.18-2.03.54s-1.01.88-1.32 1.56c-.31.68-.47 1.5-.47 2.46 0 .94.16 1.76.48 2.45.32.69.77 1.21 1.36 1.57s1.28.54 2.1.54c.88 0 1.6-.17 2.15-.5.55-.34 1-.79 1.33-1.37l1.51.89c-.3.54-.69 1.02-1.16 1.42-.47.4-1.02.71-1.66.92s-1.34.32-2.12.32zm13.15 0c-1.17 0-2.24-.25-3.23-.74-.98-.5-1.74-1.2-2.27-2.11l1.63-1.18c.35.74.87 1.31 1.55 1.73.68.42 1.5.62 2.46.62.85 0 1.51-.16 1.99-.49.48-.33.72-.76.72-1.28 0-.34-.11-.64-.32-.92-.22-.28-.63-.48-1.24-.61l-2.88-.6c-1.17-.24-2-.64-2.51-1.2s-.76-1.26-.76-2.09c0-.66.19-1.26.56-1.8s.91-.98 1.61-1.31c.7-.33 1.52-.49 2.46-.49 1.18 0 2.18.23 3 .7.82.46 1.42 1.12 1.82 1.97l-1.61 1.06c-.27-.7-.71-1.22-1.32-1.55-.61-.33-1.24-.49-1.9-.49-.58 0-1.07.08-1.48.24-.41.16-.72.38-.94.66-.22.28-.32.6-.32.95s.12.68.36.97c.24.3.69.51 1.34.64l3 .62c1.12.22 1.9.59 2.35 1.1.45.51.67 1.14.67 1.87 0 .75-.2 1.41-.6 1.98-.4.57-.96 1-1.68 1.31s-1.51.44-2.46.44zm15.53-12.24v1.66h-8.69v-1.66h8.69zm-4.37-3.41v12.1c0 .59.17 1.03.5 1.32.34.29.77.43 1.3.43.46 0 .86-.08 1.2-.24.34-.16.64-.38.91-.65l.67 1.61c-.37.34-.8.6-1.31.79-.5.19-1.08.29-1.74.29-.61 0-1.18-.11-1.7-.32-.53-.22-.95-.56-1.26-1.03-.31-.47-.48-1.09-.49-1.86v-11.9l1.92-.54zm21.82 3.41v1.66h-8.33v-1.66h8.33zm-2-5.64c.42 0 .81.05 1.18.14.37.1.66.23.86.41l-.5 1.56c-.19-.13-.4-.22-.62-.28-.22-.06-.47-.08-.74-.08-.69 0-1.22.16-1.61.49-.38.33-.58.85-.58 1.57v13.82h-1.92V18.74c0-.53.08-1.02.24-1.46.16-.45.4-.83.73-1.15.33-.32.74-.57 1.24-.74.49-.18 1.07-.27 1.72-.27zm4.56 17.64v-12h1.56l.26 1.97c.34-.74.83-1.29 1.48-1.66.65-.37 1.44-.55 2.36-.55.21 0 .44.02.68.05.25.03.46.1.64.19l-.34 1.75c-.18-.06-.37-.11-.58-.14-.21-.03-.5-.05-.89-.05-.5 0-1 .14-1.5.43s-.92.72-1.26 1.31c-.34.58-.5 1.32-.5 2.22v6.48h-1.91zm16.47-7.75c0-.9-.24-1.59-.72-2.08s-1.16-.73-2.04-.73c-.83 0-1.54.18-2.11.54s-1 .94-1.27 1.74l-1.56-.96c.32-.9.91-1.62 1.78-2.17.86-.55 1.94-.83 3.22-.83.86 0 1.65.15 2.35.44.7.3 1.26.74 1.67 1.34.41.6.61 1.37.61 2.32v5.81c0 .58.3.86.91.86.3 0 .6-.04.89-.12l-.1 1.51c-.32.16-.74.24-1.25.24-.46 0-.88-.09-1.25-.26-.37-.18-.66-.44-.86-.8s-.31-.81-.31-1.36v-.24l.48.07c-.19.62-.52 1.13-.98 1.52-.46.39-.98.68-1.56.86-.58.18-1.14.28-1.7.28-.7 0-1.36-.12-1.97-.36-.61-.24-1.09-.6-1.45-1.09-.36-.49-.54-1.09-.54-1.81 0-.9.3-1.64.9-2.22.6-.58 1.44-.98 2.51-1.19l4.75-.94v1.58l-3.86.79c-.78.16-1.37.38-1.75.67-.38.29-.58.69-.58 1.2 0 .5.2.9.59 1.21.39.31.95.47 1.67.47.46 0 .91-.06 1.33-.18s.8-.3 1.14-.55.6-.56.79-.94c.19-.38.29-.82.29-1.33v-3.29zm6.57 7.75v-12h1.68l.12 1.87c.43-.74 1-1.27 1.69-1.61.7-.34 1.41-.5 2.15-.5.85 0 1.65.19 2.4.58.75.38 1.33.98 1.73 1.78.26-.54.62-.99 1.08-1.33.46-.34.97-.6 1.52-.77.55-.17 1.08-.25 1.57-.25.77 0 1.5.16 2.2.48.7.32 1.27.82 1.72 1.49s.67 1.54.67 2.59v7.68h-1.92v-7.49c0-1.09-.27-1.87-.82-2.35-.54-.48-1.22-.72-2.02-.72-.62 0-1.21.15-1.75.46-.54.3-.98.75-1.31 1.34-.33.59-.49 1.32-.49 2.18v6.58h-1.92v-7.49c0-1.09-.27-1.87-.82-2.35s-1.22-.72-2.02-.72c-.53 0-1.07.14-1.62.42-.55.28-1.01.72-1.38 1.33-.37.61-.55 1.41-.55 2.4v6.41h-1.91zm27.89.24c-1.14 0-2.15-.25-3.04-.74-.89-.5-1.58-1.21-2.08-2.15s-.74-2.05-.74-3.35.25-2.41.74-3.35 1.18-1.65 2.04-2.15c.86-.5 1.85-.74 2.95-.74 1.12 0 2.08.24 2.87.72s1.4 1.13 1.81 1.96c.42.82.62 1.75.62 2.77 0 .27-.01.52-.02.74-.02.22-.04.42-.07.6h-9.7v-1.7h8.86l-.97.19c0-1.15-.32-2.04-.95-2.66-.63-.62-1.46-.94-2.48-.94-.78 0-1.46.18-2.03.54s-1.01.88-1.32 1.56c-.31.68-.47 1.5-.47 2.46 0 .94.16 1.76.48 2.45.32.69.77 1.21 1.36 1.57s1.28.54 2.1.54c.88 0 1.6-.17 2.15-.5.55-.34 1-.79 1.33-1.37l1.51.89c-.3.54-.69 1.02-1.16 1.42-.47.4-1.02.71-1.66.92s-1.34.32-2.13.32zm23.59-12.24h2.14l-4.18 12h-1.92l-3.38-9.55-3.19 9.55h-1.92l-4.18-12h2.14l3.02 9.77 3.26-9.77h1.92l3.26 9.77 3.03-9.77zm9.6-.24c1.14 0 2.14.25 3.01.74.87.5 1.56 1.21 2.05 2.15s.74 2.05.74 3.35-.25 2.41-.74 3.35-1.18 1.65-2.05 2.15c-.87.5-1.88.74-3.01.74-1.12 0-2.12-.25-3-.74-.88-.5-1.57-1.21-2.06-2.15s-.74-2.05-.74-3.35.25-2.41.74-3.35 1.18-1.65 2.06-2.15c.88-.49 1.88-.74 3-.74zm0 1.66c-.82 0-1.51.18-2.09.55-.58.37-1.02.89-1.33 1.57-.31.68-.47 1.5-.47 2.46 0 .94.16 1.76.47 2.45.31.69.76 1.22 1.33 1.58s1.27.55 2.09.55c.82 0 1.51-.18 2.09-.55s1.02-.9 1.33-1.58c.31-.69.47-1.5.47-2.45 0-.96-.16-1.78-.47-2.46-.31-.68-.76-1.2-1.33-1.57-.58-.37-1.27-.55-2.09-.55zm9.44 10.58v-12h1.56l.26 1.97c.34-.74.83-1.29 1.48-1.66.65-.37 1.44-.55 2.36-.55.21 0 .44.02.68.05.25.03.46.1.64.19l-.34 1.75c-.18-.06-.37-.11-.58-.14-.21-.03-.5-.05-.89-.05-.5 0-1 .14-1.5.43s-.92.72-1.26 1.31c-.34.58-.5 1.32-.5 2.22v6.48h-1.91zm11.71-17.52v17.52h-1.92V15.24h1.92zm8.61 5.52-5.18 5.18-.46.46-3.94 3.94v-2.4l7.15-7.18h2.43zm-5.01 4.2 5.3 7.8h-2.33l-4.58-6.72 1.61-1.08zM311.73 272.92v1.8h-5.52v14.04h-1.92v-14.04h-5.52v-1.8h12.96zm5.38 16.08c-1.14 0-2.15-.25-3.04-.74-.89-.5-1.58-1.21-2.08-2.15s-.74-2.05-.74-3.35.25-2.41.74-3.35 1.18-1.65 2.04-2.15c.86-.5 1.85-.74 2.95-.74 1.12 0 2.08.24 2.87.72s1.4 1.13 1.81 1.96c.42.82.62 1.75.62 2.77 0 .27-.01.52-.02.74-.02.22-.04.42-.07.6h-9.7v-1.7h8.86l-.98.19c0-1.15-.32-2.04-.95-2.66-.63-.62-1.46-.94-2.48-.94-.78 0-1.46.18-2.03.54s-1.01.88-1.32 1.56c-.31.68-.47 1.5-.47 2.46 0 .94.16 1.76.48 2.45.32.69.77 1.21 1.36 1.57s1.28.54 2.1.54c.88 0 1.6-.17 2.15-.5.55-.34 1-.79 1.33-1.37l1.51.89c-.3.54-.69 1.02-1.16 1.42-.47.4-1.02.71-1.66.92s-1.34.32-2.12.32zm13.15 0c-1.17 0-2.24-.25-3.23-.74-.98-.5-1.74-1.2-2.27-2.11l1.63-1.18c.35.74.87 1.31 1.55 1.73.68.42 1.5.62 2.46.62.85 0 1.51-.16 1.99-.49.48-.33.72-.76.72-1.28 0-.34-.11-.64-.32-.92-.22-.28-.63-.48-1.24-.61l-2.88-.6c-1.17-.24-2-.64-2.51-1.2s-.76-1.26-.76-2.09c0-.66.19-1.26.56-1.8s.91-.98 1.61-1.31c.7-.33 1.52-.49 2.46-.49 1.18 0 2.18.23 3 .7.82.46 1.42 1.12 1.82 1.97l-1.61 1.06c-.27-.7-.71-1.22-1.32-1.55-.61-.33-1.24-.49-1.9-.49-.58 0-1.07.08-1.48.24-.41.16-.72.38-.94.66-.22.28-.32.6-.32.95s.12.68.36.97c.24.3.69.51 1.34.64l3 .62c1.12.22 1.9.59 2.35 1.1.45.51.67 1.14.67 1.87 0 .75-.2 1.41-.6 1.98-.4.57-.96 1-1.68 1.31s-1.51.44-2.46.44zm15.53-12.24v1.66h-8.69v-1.66h8.69zm-4.37-3.41v12.1c0 .59.17 1.03.5 1.32.34.29.77.43 1.3.43.46 0 .86-.08 1.2-.24.34-.16.64-.38.91-.65l.67 1.61c-.37.34-.8.6-1.31.79-.5.19-1.08.29-1.74.29-.61 0-1.18-.11-1.7-.32-.53-.22-.95-.56-1.26-1.03-.31-.47-.48-1.09-.49-1.86v-11.9l1.92-.54zm15.41 15.41v-12h1.56l.26 1.97c.34-.74.83-1.29 1.48-1.66.65-.37 1.44-.55 2.36-.55.21 0 .44.02.68.05.25.03.46.1.64.19l-.34 1.75c-.18-.06-.37-.11-.58-.14-.21-.03-.5-.05-.89-.05-.5 0-1 .14-1.5.43s-.92.72-1.26 1.31c-.34.58-.5 1.32-.5 2.22v6.48h-1.91zm14.13.24c-.77 0-1.49-.14-2.17-.43-.68-.29-1.23-.76-1.66-1.4s-.64-1.49-.64-2.53v-7.87h1.92v7.37c0 1.22.26 2.05.79 2.51.53.46 1.27.68 2.23.68.45 0 .89-.08 1.32-.23.43-.15.82-.39 1.16-.72.34-.33.62-.75.82-1.26.2-.51.3-1.12.3-1.82v-6.53h1.92v12h-1.68l-.12-1.82c-.42.72-.98 1.24-1.69 1.57s-1.54.48-2.5.48zm10.47-.24v-12h1.68l.17 2.69-.31-.26c.26-.64.6-1.16 1.03-1.55.43-.39.93-.68 1.5-.85.57-.18 1.16-.26 1.76-.26.86 0 1.65.16 2.35.49.7.33 1.27.83 1.69 1.5.42.67.64 1.53.64 2.57v7.68h-1.92v-7.01c0-1.33-.28-2.25-.85-2.77s-1.27-.78-2.1-.78c-.58 0-1.15.14-1.73.41-.58.27-1.05.71-1.43 1.32-.38.61-.56 1.42-.56 2.45v6.38h-1.92zm14.85 0v-12h1.68l.17 2.69-.31-.26c.26-.64.6-1.16 1.03-1.55.43-.39.93-.68 1.5-.85.57-.18 1.16-.26 1.76-.26.86 0 1.65.16 2.35.49.7.33 1.27.83 1.69 1.5.42.67.64 1.53.64 2.57v7.68h-1.92v-7.01c0-1.33-.28-2.25-.85-2.77s-1.27-.78-2.1-.78c-.58 0-1.15.14-1.73.41-.58.27-1.05.71-1.43 1.32-.38.61-.56 1.42-.56 2.45v6.38h-1.92zm19.87.24c-1.14 0-2.15-.25-3.04-.74-.89-.5-1.58-1.21-2.08-2.15s-.74-2.05-.74-3.35.25-2.41.74-3.35 1.18-1.65 2.04-2.15c.86-.5 1.85-.74 2.95-.74 1.12 0 2.08.24 2.87.72s1.4 1.13 1.81 1.96c.42.82.62 1.75.62 2.77 0 .27-.01.52-.02.74-.02.22-.04.42-.07.6h-9.7v-1.7h8.86l-.98.19c0-1.15-.32-2.04-.95-2.66-.63-.62-1.46-.94-2.48-.94-.78 0-1.46.18-2.03.54s-1.01.88-1.32 1.56c-.31.68-.47 1.5-.47 2.46 0 .94.16 1.76.48 2.45.32.69.77 1.21 1.36 1.57s1.28.54 2.1.54c.88 0 1.6-.17 2.15-.5.55-.34 1-.79 1.33-1.37l1.51.89c-.3.54-.69 1.02-1.16 1.42-.47.4-1.02.71-1.66.92s-1.33.32-2.12.32zm8.84-.24v-12h1.56l.26 1.97c.34-.74.83-1.29 1.48-1.66.65-.37 1.44-.55 2.36-.55.21 0 .44.02.68.05.25.03.46.1.64.19l-.34 1.75c-.18-.06-.37-.11-.58-.14-.21-.03-.5-.05-.89-.05-.5 0-1 .14-1.5.43s-.92.72-1.26 1.31c-.34.58-.5 1.32-.5 2.22v6.48h-1.91zM71.05 85.32h-5.44v-.77l4.09-5.84h-3.83v-.88h5.08v.88l-4.03 5.73h4.14v.88zm8.22-3.75c0 1.22-.31 2.17-.92 2.86s-1.47 1.03-2.55 1.03c-.67 0-1.26-.16-1.78-.47s-.92-.77-1.2-1.35c-.28-.59-.42-1.28-.42-2.06 0-1.22.3-2.17.92-2.85.61-.68 1.46-1.02 2.54-1.02 1.05 0 1.88.35 2.5 1.05s.91 1.62.91 2.81zm-5.7 0c0 .96.19 1.69.57 2.19s.95.75 1.69.75 1.31-.25 1.69-.75.58-1.23.58-2.19c0-.95-.19-1.68-.58-2.17s-.95-.74-1.71-.74c-.74 0-1.3.24-1.68.73-.38.48-.56 1.21-.56 2.18zm12.53 1.71c0 .7-.26 1.23-.78 1.61s-1.25.57-2.19.57c-.99 0-1.77-.16-2.32-.47v-1.05c.36.18.75.33 1.16.43s.81.16 1.19.16c.59 0 1.05-.09 1.37-.28.32-.19.48-.48.48-.86 0-.29-.13-.54-.38-.75s-.75-.45-1.48-.73c-.7-.26-1.19-.49-1.49-.68s-.51-.41-.66-.66-.21-.54-.21-.88c0-.61.25-1.09.74-1.45.5-.35 1.18-.53 2.04-.53.81 0 1.59.16 2.37.49l-.4.92c-.75-.31-1.43-.46-2.04-.46-.54 0-.94.08-1.22.25s-.41.4-.41.7c0 .2.05.37.15.51s.27.28.5.4c.23.13.67.31 1.31.55.89.32 1.49.65 1.8.98s.47.73.47 1.23zm3.18 2.04h-1.16v-9.99h5.57v1.03h-4.41v3.66h4.14v1.03h-4.14v4.27zm5.79-9.52c0-.26.06-.45.19-.57.13-.12.29-.18.48-.18.18 0 .34.06.47.18.13.12.2.31.2.57s-.07.45-.2.57c-.13.13-.29.19-.47.19-.19 0-.35-.06-.48-.19-.12-.13-.19-.32-.19-.57zm1.23 9.52h-1.13v-7.49h1.13v7.49zm3.54 0h-1.13V74.68h1.13v10.64zm5.57.14c-1.11 0-1.98-.34-2.62-1.01s-.96-1.61-.96-2.81c0-1.21.3-2.17.89-2.88s1.39-1.07 2.4-1.07c.94 0 1.68.31 2.23.93s.82 1.43.82 2.44v.72h-5.16c.02.88.25 1.55.67 2s1.01.68 1.78.68c.81 0 1.6-.17 2.39-.51v1.01c-.4.17-.78.3-1.14.37s-.79.13-1.3.13zm-.3-6.82c-.6 0-1.08.2-1.44.59s-.57.93-.63 1.63h3.92c0-.72-.16-1.26-.48-1.64-.32-.39-.78-.58-1.37-.58zm9.59 6.68-3.39-8.86h-.05c.06.7.1 1.54.1 2.5v6.36h-1.07v-9.99h1.75l3.16 8.24h.05l3.19-8.24h1.74v9.99h-1.16v-6.44c0-.74.03-1.54.1-2.41h-.05l-3.42 8.85h-.95zm12.65 0-.23-1.07h-.05c-.37.47-.75.79-1.12.95-.37.17-.83.25-1.39.25-.74 0-1.33-.19-1.75-.57-.42-.38-.63-.93-.63-1.63 0-1.51 1.21-2.31 3.63-2.38l1.27-.04v-.46c0-.59-.13-1.02-.38-1.3s-.66-.42-1.21-.42c-.62 0-1.33.19-2.12.57l-.35-.87a5.432 5.432 0 0 1 2.53-.64c.89 0 1.55.2 1.99.59.43.4.65 1.03.65 1.91v5.11h-.84zm-2.56-.8c.71 0 1.26-.19 1.67-.58.4-.39.6-.93.6-1.63v-.68l-1.13.05c-.9.03-1.55.17-1.95.42-.4.25-.6.63-.6 1.16 0 .41.12.72.37.94.24.21.59.32 1.04.32zm10.87.8v-4.85c0-.61-.14-1.07-.42-1.37s-.71-.45-1.31-.45c-.78 0-1.36.21-1.72.64s-.55 1.12-.55 2.1v3.93h-1.13v-7.49h.92l.18 1.03h.05c.23-.37.56-.66.98-.86s.89-.3 1.4-.3c.9 0 1.58.22 2.04.65s.68 1.13.68 2.09v4.89h-1.12zm8.07 0-.23-1.07h-.05c-.37.47-.75.79-1.12.95-.37.17-.83.25-1.39.25-.74 0-1.33-.19-1.75-.57-.42-.38-.63-.93-.63-1.63 0-1.51 1.21-2.31 3.63-2.38l1.27-.04v-.46c0-.59-.13-1.02-.38-1.3s-.66-.42-1.21-.42c-.62 0-1.33.19-2.12.57l-.35-.87a5.432 5.432 0 0 1 2.53-.64c.89 0 1.55.2 1.99.59.43.4.65 1.03.65 1.91v5.11h-.84zm-2.56-.8c.71 0 1.26-.19 1.67-.58.4-.39.6-.93.6-1.63v-.68l-1.13.05c-.9.03-1.55.17-1.95.42-.4.25-.6.63-.6 1.16 0 .41.12.72.37.94.24.21.59.32 1.04.32zm11.87-6.69v.72l-1.39.16c.13.16.24.37.34.63s.15.55.15.87c0 .73-.25 1.32-.75 1.76s-1.19.66-2.06.66c-.22 0-.43-.02-.63-.05-.48.26-.72.58-.72.96 0 .21.08.36.25.45s.46.15.87.15h1.33c.81 0 1.43.17 1.87.51.44.34.65.84.65 1.49 0 .83-.33 1.46-1 1.9s-1.64.65-2.91.65c-.98 0-1.74-.18-2.27-.55-.53-.36-.8-.88-.8-1.54 0-.46.15-.85.44-1.18s.7-.56 1.23-.68a1.23 1.23 0 0 1-.48-.4c-.13-.18-.2-.39-.2-.64 0-.27.07-.51.22-.72s.38-.4.69-.59c-.39-.16-.7-.43-.95-.81-.24-.38-.37-.82-.37-1.31 0-.82.25-1.45.74-1.9s1.19-.67 2.09-.67c.39 0 .75.05 1.06.14h2.6zm-5.97 8.75c0 .41.17.71.51.92s.83.31 1.47.31c.95 0 1.66-.14 2.12-.43.46-.28.69-.67.69-1.16 0-.41-.12-.69-.38-.84s-.72-.24-1.42-.24h-1.36c-.51 0-.92.12-1.2.37s-.43.61-.43 1.07zm.61-6.35c0 .52.15.92.44 1.19s.71.4 1.24.4c1.11 0 1.66-.54 1.66-1.61 0-1.13-.56-1.69-1.68-1.69-.53 0-.94.14-1.23.43s-.43.71-.43 1.28zm10.06 5.23c-1.11 0-1.98-.34-2.62-1.01-.64-.67-.96-1.61-.96-2.81 0-1.21.3-2.17.89-2.88.6-.71 1.39-1.07 2.4-1.07.94 0 1.68.31 2.23.93s.82 1.43.82 2.44v.72h-5.16c.02.88.25 1.55.67 2 .42.46 1.01.68 1.78.68.81 0 1.6-.17 2.39-.51v1.01c-.4.17-.78.3-1.14.37-.36.09-.79.13-1.3.13zm-.3-6.82c-.6 0-1.08.2-1.44.59-.36.39-.57.93-.63 1.63h3.92c0-.72-.16-1.26-.48-1.64s-.78-.58-1.37-.58zm8.41-.95c.33 0 .63.03.9.08l-.16 1.05c-.31-.07-.58-.1-.82-.1-.61 0-1.12.25-1.55.74-.43.49-.65 1.1-.65 1.84v4.02h-1.13v-7.49h.94l.13 1.39h.05c.28-.49.61-.86 1-1.13s.82-.4 1.29-.4zM63.6 133.32h-5.43v-.77l4.09-5.84h-3.83v-.88h5.08v.88l-4.03 5.73h4.14v.88zm8.23-3.75c0 1.22-.31 2.17-.92 2.86s-1.47 1.03-2.55 1.03c-.67 0-1.26-.16-1.78-.47s-.92-.77-1.2-1.35-.42-1.28-.42-2.06c0-1.22.31-2.17.92-2.85s1.46-1.02 2.54-1.02c1.05 0 1.88.35 2.5 1.05.6.67.91 1.62.91 2.81zm-5.71 0c0 .96.19 1.69.57 2.19s.95.75 1.69.75 1.31-.25 1.69-.75c.39-.5.58-1.23.58-2.19 0-.95-.19-1.68-.58-2.17-.38-.49-.95-.74-1.71-.74-.74 0-1.3.24-1.68.73s-.56 1.21-.56 2.18zm12.53 1.71c0 .7-.26 1.23-.78 1.61s-1.25.57-2.19.57c-.99 0-1.77-.16-2.32-.47v-1.05c.36.18.75.33 1.16.43.41.1.81.16 1.19.16.59 0 1.05-.09 1.37-.28s.48-.48.48-.86c0-.29-.13-.54-.38-.75-.25-.21-.75-.45-1.48-.73-.7-.26-1.19-.49-1.49-.68-.29-.19-.51-.41-.66-.66-.14-.25-.22-.54-.22-.88 0-.61.25-1.09.75-1.45s1.18-.53 2.04-.53c.81 0 1.59.16 2.37.49l-.4.92c-.75-.31-1.43-.46-2.04-.46-.54 0-.94.08-1.22.25s-.41.4-.41.7c0 .2.05.37.15.51.1.14.27.28.5.4s.67.31 1.31.55c.89.32 1.49.65 1.8.98.31.32.47.73.47 1.23zm2.02-7.95h2.82c1.33 0 2.29.2 2.88.59s.89 1.02.89 1.88c0 .59-.17 1.08-.5 1.47-.33.39-.81.63-1.45.75v.07c1.52.26 2.28 1.06 2.28 2.39 0 .89-.3 1.59-.91 2.09-.6.5-1.45.75-2.53.75h-3.49v-9.99zm1.16 4.27h1.91c.82 0 1.41-.13 1.77-.39s.54-.69.54-1.3c0-.56-.2-.96-.6-1.21s-1.04-.37-1.91-.37h-1.71v3.27zm0 .99v3.74h2.08c.81 0 1.41-.16 1.82-.47.41-.31.61-.8.61-1.47 0-.62-.21-1.08-.62-1.37-.42-.29-1.05-.44-1.9-.44h-1.99zm12.34 4.73-.23-1.07h-.05c-.37.47-.75.79-1.12.95-.37.17-.84.25-1.39.25-.74 0-1.33-.19-1.75-.57-.42-.38-.63-.93-.63-1.63 0-1.51 1.21-2.31 3.63-2.38l1.27-.04v-.46c0-.59-.13-1.02-.38-1.3s-.66-.42-1.21-.42c-.62 0-1.33.19-2.12.57l-.35-.87a5.432 5.432 0 0 1 2.53-.64c.89 0 1.56.2 1.99.59.43.4.65 1.03.65 1.91v5.11h-.84zm-2.56-.8c.71 0 1.26-.19 1.66-.58.4-.39.61-.93.61-1.63v-.68l-1.13.05c-.9.03-1.55.17-1.95.42-.4.25-.6.63-.6 1.16 0 .41.12.72.37.94.25.21.59.32 1.04.32zm8.16 0c.2 0 .39-.01.58-.04s.33-.06.44-.09v.87c-.12.06-.3.11-.54.15-.24.04-.46.06-.65.06-1.45 0-2.17-.76-2.17-2.29v-4.46h-1.07v-.55l1.07-.47.48-1.6h.66v1.74h2.17v.88h-2.17v4.41c0 .45.11.8.32 1.04s.51.35.88.35zm5.52.94c-1.08 0-1.92-.33-2.52-1-.6-.67-.89-1.61-.89-2.83 0-1.25.3-2.22.91-2.91.6-.68 1.46-1.03 2.58-1.03.36 0 .72.04 1.08.12s.64.17.85.27l-.35.96c-.25-.1-.52-.18-.82-.25s-.56-.1-.79-.1c-1.52 0-2.28.97-2.28 2.91 0 .92.19 1.63.56 2.12.37.49.92.74 1.65.74.62 0 1.26-.13 1.92-.4v1c-.51.27-1.14.4-1.9.4zm8.8-.14v-4.85c0-.61-.14-1.07-.42-1.37s-.71-.45-1.31-.45c-.79 0-1.36.21-1.73.64-.36.43-.54 1.13-.54 2.11v3.92h-1.13v-10.64h1.13v3.22c0 .39-.02.71-.05.96h.07c.22-.36.54-.64.95-.85.41-.21.88-.31 1.41-.31.92 0 1.6.22 2.06.65.46.44.69 1.13.69 2.07v4.89h-1.13zm8.06 0-3.39-8.86h-.05c.06.7.1 1.54.1 2.5v6.36h-1.07v-9.99h1.75l3.17 8.24h.05l3.19-8.24h1.74v9.99h-1.16v-6.44c0-.74.03-1.54.1-2.41h-.05l-3.42 8.85h-.96zm12.65 0-.23-1.07h-.05c-.37.47-.75.79-1.12.95-.37.17-.83.25-1.39.25-.74 0-1.33-.19-1.75-.57-.42-.38-.63-.93-.63-1.63 0-1.51 1.21-2.31 3.63-2.38l1.27-.04v-.46c0-.59-.13-1.02-.38-1.3s-.66-.42-1.21-.42c-.62 0-1.33.19-2.12.57l-.35-.87a5.432 5.432 0 0 1 2.53-.64c.89 0 1.55.2 1.99.59.43.4.65 1.03.65 1.91v5.11h-.84zm-2.56-.8c.71 0 1.26-.19 1.67-.58.4-.39.6-.93.6-1.63v-.68l-1.13.05c-.9.03-1.55.17-1.95.42-.4.25-.6.63-.6 1.16 0 .41.12.72.37.94.24.21.59.32 1.04.32zm10.86.8v-4.85c0-.61-.14-1.07-.42-1.37s-.71-.45-1.31-.45c-.78 0-1.36.21-1.72.64s-.55 1.12-.55 2.1v3.93h-1.13v-7.49h.92l.18 1.03h.05c.23-.37.56-.66.98-.86s.89-.3 1.4-.3c.9 0 1.58.22 2.04.65s.68 1.13.68 2.09v4.89h-1.12zm8.08 0-.23-1.07h-.05c-.37.47-.75.79-1.12.95-.37.17-.83.25-1.39.25-.74 0-1.33-.19-1.75-.57-.42-.38-.63-.93-.63-1.63 0-1.51 1.21-2.31 3.63-2.38l1.27-.04v-.46c0-.59-.13-1.02-.38-1.3s-.66-.42-1.21-.42c-.62 0-1.33.19-2.12.57l-.35-.87a5.432 5.432 0 0 1 2.53-.64c.89 0 1.55.2 1.99.59.43.4.65 1.03.65 1.91v5.11h-.84zm-2.57-.8c.71 0 1.26-.19 1.67-.58.4-.39.6-.93.6-1.63v-.68l-1.13.05c-.9.03-1.55.17-1.95.42-.4.25-.6.63-.6 1.16 0 .41.12.72.37.94.25.21.6.32 1.04.32zm11.88-6.69v.72l-1.39.16c.13.16.24.37.34.63s.15.55.15.87c0 .73-.25 1.32-.75 1.76s-1.19.66-2.06.66c-.22 0-.43-.02-.63-.05-.48.26-.72.58-.72.96 0 .21.08.36.25.45s.46.15.87.15h1.33c.81 0 1.43.17 1.87.51.44.34.65.84.65 1.49 0 .83-.33 1.46-1 1.9s-1.64.65-2.91.65c-.98 0-1.74-.18-2.27-.55-.53-.36-.8-.88-.8-1.54 0-.46.15-.85.44-1.18s.7-.56 1.23-.68a1.23 1.23 0 0 1-.48-.4c-.13-.18-.2-.39-.2-.64 0-.27.07-.51.22-.72s.38-.4.69-.59c-.39-.16-.7-.43-.95-.81-.24-.38-.37-.82-.37-1.31 0-.82.25-1.45.74-1.9s1.19-.67 2.09-.67c.39 0 .75.05 1.06.14h2.6zm-5.98 8.75c0 .41.17.71.51.92s.83.31 1.47.31c.95 0 1.66-.14 2.12-.43.46-.28.69-.67.69-1.16 0-.41-.12-.69-.38-.84s-.72-.24-1.42-.24h-1.36c-.51 0-.92.12-1.2.37s-.43.61-.43 1.07zm.62-6.35c0 .52.15.92.44 1.19s.71.4 1.24.4c1.11 0 1.66-.54 1.66-1.61 0-1.13-.56-1.69-1.68-1.69-.53 0-.94.14-1.23.43s-.43.71-.43 1.28zm10.06 5.23c-1.11 0-1.98-.34-2.62-1.01-.64-.67-.96-1.61-.96-2.81 0-1.21.3-2.17.89-2.88.6-.71 1.39-1.07 2.4-1.07.94 0 1.68.31 2.23.93s.82 1.43.82 2.44v.72h-5.16c.02.88.25 1.55.67 2 .42.46 1.01.68 1.78.68.81 0 1.6-.17 2.39-.51v1.01c-.4.17-.78.3-1.14.37-.36.09-.79.13-1.3.13zm-.31-6.82c-.6 0-1.08.2-1.44.59-.36.39-.57.93-.63 1.63h3.92c0-.72-.16-1.26-.48-1.64s-.77-.58-1.37-.58zm8.42-.95c.33 0 .63.03.9.08l-.16 1.05c-.31-.07-.58-.1-.82-.1-.61 0-1.12.25-1.55.74-.43.49-.65 1.1-.65 1.84v4.02h-1.13v-7.49h.94l.13 1.39h.04c.28-.49.61-.86 1-1.13s.83-.4 1.3-.4zM47.99 181.32h-5.44v-.77l4.09-5.84H42.8v-.88h5.08v.88l-4.03 5.73h4.14v.88zm8.22-3.75c0 1.22-.31 2.17-.92 2.86s-1.47 1.03-2.55 1.03c-.67 0-1.26-.16-1.78-.47s-.92-.77-1.2-1.35c-.28-.59-.42-1.28-.42-2.06 0-1.22.3-2.17.92-2.85.61-.68 1.46-1.02 2.54-1.02 1.05 0 1.88.35 2.5 1.05s.91 1.62.91 2.81zm-5.71 0c0 .96.19 1.69.57 2.19s.95.75 1.69.75 1.31-.25 1.69-.75.58-1.23.58-2.19c0-.95-.19-1.68-.58-2.17s-.95-.74-1.71-.74c-.74 0-1.3.24-1.68.73-.37.48-.56 1.21-.56 2.18zm12.53 1.71c0 .7-.26 1.23-.78 1.61s-1.25.57-2.19.57c-.99 0-1.77-.16-2.32-.47v-1.05c.36.18.75.33 1.16.43s.81.16 1.19.16c.59 0 1.05-.09 1.37-.28.32-.19.48-.48.48-.86 0-.29-.13-.54-.38-.75s-.75-.45-1.48-.73c-.7-.26-1.19-.49-1.49-.68s-.51-.41-.66-.66-.21-.54-.21-.88c0-.61.25-1.09.74-1.45.5-.35 1.18-.53 2.04-.53.81 0 1.59.16 2.37.49l-.4.92c-.75-.31-1.43-.46-2.04-.46-.54 0-.94.08-1.22.25s-.41.4-.41.7c0 .2.05.37.15.51s.27.28.5.4c.23.13.67.31 1.31.55.89.32 1.49.65 1.8.98s.47.73.47 1.23zm6.3-7.06c-1.1 0-1.97.37-2.6 1.1s-.95 1.73-.95 3c0 1.31.31 2.32.92 3.03s1.49 1.07 2.62 1.07c.7 0 1.49-.13 2.38-.38v1.02c-.69.26-1.55.39-2.56.39-1.47 0-2.61-.45-3.41-1.34s-1.2-2.16-1.2-3.81c0-1.03.19-1.93.58-2.71s.94-1.37 1.67-1.79 1.58-.63 2.57-.63c1.05 0 1.96.19 2.75.57l-.49 1c-.77-.34-1.53-.52-2.28-.52zm10.85 5.35c0 1.22-.31 2.17-.92 2.86s-1.47 1.03-2.55 1.03c-.67 0-1.26-.16-1.78-.47s-.92-.77-1.2-1.35c-.28-.59-.42-1.28-.42-2.06 0-1.22.3-2.17.92-2.85.61-.68 1.46-1.02 2.54-1.02 1.05 0 1.88.35 2.5 1.05s.91 1.62.91 2.81zm-5.71 0c0 .96.19 1.69.57 2.19s.95.75 1.69.75 1.31-.25 1.69-.75.58-1.23.58-2.19c0-.95-.19-1.68-.58-2.17s-.95-.74-1.71-.74c-.74 0-1.3.24-1.68.73-.37.48-.56 1.21-.56 2.18zm17.24 3.75v-4.87c0-.6-.13-1.04-.38-1.34-.25-.3-.65-.45-1.19-.45-.71 0-1.23.2-1.56.61-.34.41-.51 1.03-.51 1.87v4.18h-1.13v-4.87c0-.6-.13-1.04-.38-1.34-.26-.3-.65-.45-1.2-.45-.71 0-1.23.21-1.56.64s-.5 1.12-.5 2.1v3.93h-1.13v-7.49h.92l.19 1.03h.05c.21-.36.52-.65.91-.85s.83-.31 1.31-.31c1.17 0 1.94.42 2.3 1.27h.05c.22-.39.55-.7.97-.93s.91-.34 1.45-.34c.85 0 1.48.22 1.9.65s.63 1.13.63 2.09v4.89h-1.14zm13.03 0v-4.87c0-.6-.13-1.04-.38-1.34-.26-.3-.65-.45-1.19-.45-.71 0-1.23.2-1.57.61-.34.41-.51 1.03-.51 1.87v4.18h-1.13v-4.87c0-.6-.13-1.04-.38-1.34-.25-.3-.65-.45-1.2-.45-.71 0-1.23.21-1.56.64s-.5 1.12-.5 2.1v3.93h-1.13v-7.49h.92l.18 1.03h.05c.21-.36.52-.65.91-.85s.83-.31 1.31-.31c1.17 0 1.94.42 2.3 1.27h.05c.22-.39.55-.7.97-.93s.91-.34 1.45-.34c.85 0 1.48.22 1.9.65s.63 1.13.63 2.09v4.89h-1.12zm8.08 0-.23-1.07h-.05c-.37.47-.75.79-1.12.95s-.83.25-1.39.25c-.74 0-1.33-.19-1.75-.57s-.63-.93-.63-1.63c0-1.51 1.21-2.31 3.63-2.38l1.27-.04v-.46c0-.59-.13-1.02-.38-1.3s-.66-.42-1.21-.42c-.62 0-1.33.19-2.12.57l-.35-.87a5.432 5.432 0 0 1 2.53-.64c.89 0 1.55.2 1.99.59s.65 1.03.65 1.91v5.11h-.84zm-2.57-.8c.71 0 1.26-.19 1.67-.58s.6-.93.6-1.63v-.68l-1.13.05c-.9.03-1.55.17-1.95.42s-.6.63-.6 1.16c0 .41.12.72.37.94s.6.32 1.04.32zm10.87.8v-4.85c0-.61-.14-1.07-.42-1.37-.28-.3-.71-.45-1.31-.45-.78 0-1.36.21-1.72.64-.36.42-.55 1.12-.55 2.1v3.93H116v-7.49h.92l.18 1.03h.05c.23-.37.56-.66.98-.86.42-.2.89-.3 1.4-.3.9 0 1.58.22 2.04.65.46.44.68 1.13.68 2.09v4.89h-1.13zm8.57-1.01h-.06c-.52.76-1.31 1.14-2.35 1.14-.98 0-1.74-.33-2.29-1-.54-.67-.82-1.62-.82-2.86s.27-2.19.82-2.88 1.31-1.03 2.28-1.03c1.02 0 1.8.37 2.34 1.11h.09l-.05-.54-.03-.53v-3.05h1.13v10.64h-.92l-.14-1zm-2.27.2c.77 0 1.34-.21 1.69-.63.35-.42.52-1.1.52-2.04v-.24c0-1.06-.18-1.82-.53-2.27-.35-.45-.92-.68-1.69-.68-.67 0-1.17.26-1.53.78-.35.52-.53 1.25-.53 2.19 0 .96.18 1.68.53 2.17s.86.72 1.54.72zm10.34.81-3.39-8.86h-.05c.06.7.1 1.54.1 2.5v6.36h-1.07v-9.99h1.75l3.17 8.24h.05l3.19-8.24h1.74v9.99h-1.16v-6.44c0-.74.03-1.54.1-2.41h-.05l-3.42 8.85h-.96zm12.66 0-.23-1.07h-.05c-.37.47-.75.79-1.12.95-.37.17-.83.25-1.39.25-.74 0-1.33-.19-1.75-.57-.42-.38-.63-.93-.63-1.63 0-1.51 1.21-2.31 3.63-2.38l1.27-.04v-.46c0-.59-.13-1.02-.38-1.3s-.66-.42-1.21-.42c-.62 0-1.33.19-2.12.57l-.35-.87a5.432 5.432 0 0 1 2.53-.64c.89 0 1.55.2 1.99.59.43.4.65 1.03.65 1.91v5.11h-.84zm-2.57-.8c.71 0 1.26-.19 1.67-.58.4-.39.6-.93.6-1.63v-.68l-1.13.05c-.9.03-1.55.17-1.95.42-.4.25-.6.63-.6 1.16 0 .41.12.72.37.94.25.21.6.32 1.04.32zm10.87.8v-4.85c0-.61-.14-1.07-.42-1.37s-.71-.45-1.31-.45c-.78 0-1.36.21-1.72.64s-.55 1.12-.55 2.1v3.93h-1.13v-7.49h.92l.18 1.03h.05c.23-.37.56-.66.98-.86s.89-.3 1.4-.3c.9 0 1.58.22 2.04.65s.68 1.13.68 2.09v4.89h-1.12zm8.07 0-.23-1.07h-.05c-.37.47-.75.79-1.12.95-.37.17-.83.25-1.39.25-.74 0-1.33-.19-1.75-.57-.42-.38-.63-.93-.63-1.63 0-1.51 1.21-2.31 3.63-2.38l1.27-.04v-.46c0-.59-.13-1.02-.38-1.3s-.66-.42-1.21-.42c-.62 0-1.33.19-2.12.57l-.35-.87a5.432 5.432 0 0 1 2.53-.64c.89 0 1.55.2 1.99.59.43.4.65 1.03.65 1.91v5.11h-.84zm-2.56-.8c.71 0 1.26-.19 1.67-.58.4-.39.6-.93.6-1.63v-.68l-1.13.05c-.9.03-1.55.17-1.95.42-.4.25-.6.63-.6 1.16 0 .41.12.72.37.94.25.21.6.32 1.04.32zm11.88-6.69v.72l-1.39.16c.13.16.24.37.34.63s.15.55.15.87c0 .73-.25 1.32-.75 1.76s-1.19.66-2.06.66c-.22 0-.43-.02-.63-.05-.48.26-.72.58-.72.96 0 .21.08.36.25.45s.46.15.87.15h1.33c.81 0 1.43.17 1.87.51.44.34.65.84.65 1.49 0 .83-.33 1.46-1 1.9s-1.64.65-2.91.65c-.98 0-1.74-.18-2.27-.55-.53-.36-.8-.88-.8-1.54 0-.46.15-.85.44-1.18s.7-.56 1.23-.68a1.23 1.23 0 0 1-.48-.4c-.13-.18-.2-.39-.2-.64 0-.27.07-.51.22-.72s.38-.4.69-.59c-.39-.16-.7-.43-.95-.81-.24-.38-.37-.82-.37-1.31 0-.82.25-1.45.74-1.9s1.19-.67 2.09-.67c.39 0 .75.05 1.06.14h2.6zm-5.98 8.75c0 .41.17.71.51.92s.83.31 1.47.31c.95 0 1.66-.14 2.12-.43.46-.28.69-.67.69-1.16 0-.41-.12-.69-.38-.84s-.72-.24-1.42-.24h-1.36c-.51 0-.92.12-1.2.37s-.43.61-.43 1.07zm.62-6.35c0 .52.15.92.44 1.19s.71.4 1.24.4c1.11 0 1.66-.54 1.66-1.61 0-1.13-.56-1.69-1.68-1.69-.53 0-.94.14-1.23.43s-.43.71-.43 1.28zm10.06 5.23c-1.11 0-1.98-.34-2.62-1.01-.64-.67-.96-1.61-.96-2.81 0-1.21.3-2.17.89-2.88.6-.71 1.39-1.07 2.4-1.07.94 0 1.68.31 2.23.93s.82 1.43.82 2.44v.72h-5.16c.02.88.25 1.55.67 2 .42.46 1.01.68 1.78.68.81 0 1.6-.17 2.39-.51v1.01c-.4.17-.78.3-1.14.37-.36.09-.8.13-1.3.13zm-.31-6.82c-.6 0-1.08.2-1.44.59-.36.39-.57.93-.63 1.63h3.92c0-.72-.16-1.26-.48-1.64s-.78-.58-1.37-.58zm8.42-.95c.33 0 .63.03.9.08l-.16 1.05c-.31-.07-.58-.1-.82-.1-.61 0-1.12.25-1.55.74-.43.49-.65 1.1-.65 1.84v4.02h-1.13v-7.49h.94l.13 1.39h.05c.28-.49.61-.86 1-1.13s.82-.4 1.29-.4zm-81.11 54.91c0-.31.07-.54.21-.69s.34-.24.6-.24c.26 0 .47.08.62.24s.22.39.22.69c0 .3-.07.52-.22.68s-.36.24-.62.24c-.23 0-.43-.07-.58-.22s-.23-.38-.23-.7zm7.37 0c0-.31.07-.54.21-.69s.34-.24.6-.24c.27 0 .47.08.62.24s.22.39.22.69c0 .3-.08.52-.23.68s-.36.24-.62.24c-.23 0-.42-.07-.58-.22s-.22-.38-.22-.7zm7.36 0c0-.31.07-.54.21-.69.14-.16.34-.24.6-.24.26 0 .47.08.62.24.15.16.22.39.22.69 0 .3-.08.52-.23.68s-.36.24-.62.24c-.23 0-.42-.07-.58-.22-.14-.14-.22-.38-.22-.7zM326.01 76.22c-1.1 0-1.96.37-2.6 1.1-.63.73-.95 1.73-.95 3 0 1.31.31 2.32.92 3.03.61.71 1.49 1.07 2.62 1.07.7 0 1.49-.13 2.39-.38v1.02c-.69.26-1.55.39-2.56.39-1.47 0-2.61-.45-3.41-1.34-.8-.89-1.2-2.16-1.2-3.81 0-1.03.19-1.93.58-2.71.38-.77.94-1.37 1.67-1.79.73-.42 1.58-.63 2.57-.63 1.05 0 1.96.19 2.75.57l-.49 1c-.78-.34-1.54-.52-2.29-.52zm4.55 9.1v-9.99h1.16v9.99h-1.16zm8.18-9.1c-1.1 0-1.97.37-2.6 1.1-.64.73-.95 1.73-.95 3 0 1.31.31 2.32.92 3.03.61.71 1.49 1.07 2.62 1.07.7 0 1.49-.13 2.39-.38v1.02c-.69.26-1.55.39-2.56.39-1.47 0-2.61-.45-3.41-1.34-.8-.89-1.2-2.16-1.2-3.81 0-1.03.19-1.93.58-2.71.39-.77.94-1.37 1.67-1.79.73-.42 1.58-.63 2.57-.63 1.05 0 1.96.19 2.75.57l-.49 1c-.78-.34-1.53-.52-2.29-.52zm10.19 6.44c0 .88-.32 1.57-.96 2.06s-1.5.74-2.6.74c-1.19 0-2.1-.15-2.73-.46v-1.12c.41.17.86.31 1.34.41s.96.15 1.44.15c.78 0 1.36-.15 1.75-.44s.59-.7.59-1.23c0-.35-.07-.63-.21-.85-.14-.22-.37-.42-.7-.61-.33-.19-.82-.4-1.49-.64-.93-.33-1.59-.73-1.99-1.18-.4-.46-.6-1.05-.6-1.78 0-.77.29-1.38.87-1.84s1.34-.68 2.3-.68c.99 0 1.91.18 2.74.55l-.36 1.01c-.82-.35-1.63-.52-2.41-.52-.62 0-1.1.13-1.44.4s-.52.63-.52 1.1c0 .35.06.63.19.85s.34.42.65.61c.3.18.77.39 1.39.61 1.05.37 1.77.77 2.16 1.2.4.42.59.98.59 1.66zm6.47 2.66-3.39-8.86h-.05c.06.7.1 1.54.1 2.5v6.36h-1.07v-9.99h1.75l3.17 8.24h.05l3.19-8.24h1.74v9.99h-1.16v-6.44c0-.74.03-1.54.1-2.41h-.05l-3.42 8.85h-.96zm12.65 0-.23-1.07h-.05c-.37.47-.75.79-1.12.95-.37.17-.83.25-1.39.25-.74 0-1.33-.19-1.75-.57-.42-.38-.63-.93-.63-1.63 0-1.51 1.21-2.31 3.63-2.38l1.27-.04v-.46c0-.59-.13-1.02-.38-1.3s-.66-.42-1.21-.42c-.62 0-1.33.19-2.12.57l-.35-.87a5.432 5.432 0 0 1 2.53-.64c.89 0 1.55.2 1.99.59.43.4.65 1.03.65 1.91v5.11h-.84zm-2.56-.8c.71 0 1.26-.19 1.67-.58.4-.39.6-.93.6-1.63v-.68l-1.13.05c-.9.03-1.55.17-1.95.42-.4.25-.6.63-.6 1.16 0 .41.12.72.37.94.25.21.59.32 1.04.32zm10.87.8v-4.85c0-.61-.14-1.07-.42-1.37s-.71-.45-1.31-.45c-.78 0-1.36.21-1.72.64s-.55 1.12-.55 2.1v3.93h-1.13v-7.49h.92l.18 1.03h.05c.23-.37.56-.66.98-.86s.89-.3 1.4-.3c.9 0 1.58.22 2.04.65s.68 1.13.68 2.09v4.89h-1.12zm8.07 0-.23-1.07h-.05c-.37.47-.75.79-1.12.95-.37.17-.83.25-1.39.25-.74 0-1.33-.19-1.75-.57-.42-.38-.63-.93-.63-1.63 0-1.51 1.21-2.31 3.63-2.38l1.27-.04v-.46c0-.59-.13-1.02-.38-1.3s-.66-.42-1.21-.42c-.62 0-1.33.19-2.12.57l-.35-.87a5.432 5.432 0 0 1 2.53-.64c.89 0 1.55.2 1.99.59.43.4.65 1.03.65 1.91v5.11h-.84zm-2.56-.8c.71 0 1.26-.19 1.67-.58.4-.39.6-.93.6-1.63v-.68l-1.14.05c-.9.03-1.55.17-1.95.42-.4.25-.6.63-.6 1.16 0 .41.12.72.37.94.26.21.6.32 1.05.32zm11.87-6.69v.72l-1.39.16c.13.16.24.37.34.63s.15.55.15.87c0 .73-.25 1.32-.75 1.76s-1.19.66-2.06.66c-.22 0-.43-.02-.63-.05-.48.26-.72.58-.72.96 0 .21.08.36.25.45s.46.15.87.15h1.33c.81 0 1.43.17 1.87.51.44.34.65.84.65 1.49 0 .83-.33 1.46-1 1.9s-1.64.65-2.91.65c-.98 0-1.74-.18-2.27-.55-.53-.36-.8-.88-.8-1.54 0-.46.15-.85.44-1.18s.7-.56 1.23-.68a1.23 1.23 0 0 1-.48-.4c-.13-.18-.2-.39-.2-.64 0-.27.07-.51.22-.72s.38-.4.69-.59c-.39-.16-.7-.43-.95-.81-.24-.38-.37-.82-.37-1.31 0-.82.25-1.45.74-1.9s1.19-.67 2.09-.67c.39 0 .75.05 1.06.14h2.6zm-5.97 8.75c0 .41.17.71.51.92s.83.31 1.47.31c.95 0 1.66-.14 2.12-.43.46-.28.69-.67.69-1.16 0-.41-.12-.69-.38-.84s-.72-.24-1.42-.24h-1.36c-.51 0-.92.12-1.2.37s-.43.61-.43 1.07zm.61-6.35c0 .52.15.92.44 1.19s.71.4 1.24.4c1.11 0 1.66-.54 1.66-1.61 0-1.13-.56-1.69-1.68-1.69-.53 0-.94.14-1.23.43s-.43.71-.43 1.28zm10.07 5.23c-1.11 0-1.98-.34-2.62-1.01-.64-.67-.96-1.61-.96-2.81 0-1.21.3-2.17.89-2.88.6-.71 1.39-1.07 2.4-1.07.94 0 1.68.31 2.23.93s.82 1.43.82 2.44v.72h-5.16c.02.88.25 1.55.67 2 .42.46 1.01.68 1.78.68.81 0 1.6-.17 2.39-.51v1.01c-.4.17-.78.3-1.14.37-.37.09-.8.13-1.3.13zm-.31-6.82c-.6 0-1.08.2-1.44.59-.36.39-.57.93-.63 1.63h3.92c0-.72-.16-1.26-.48-1.64s-.78-.58-1.37-.58zm8.41-.95c.33 0 .63.03.9.08l-.16 1.05c-.31-.07-.58-.1-.82-.1-.61 0-1.12.25-1.55.74-.43.49-.65 1.1-.65 1.84v4.02h-1.13v-7.49h.94l.13 1.39h.05c.28-.49.61-.86 1-1.13s.82-.4 1.29-.4zm-79.73 55.63h-1.15l-2.02-6.69c-.1-.3-.2-.67-.32-1.12-.12-.45-.18-.72-.18-.81-.1.6-.26 1.26-.48 1.98l-1.96 6.65h-1.15l-2.66-9.99h1.23l1.58 6.17c.22.87.38 1.65.48 2.35.12-.83.3-1.65.55-2.45l1.79-6.08h1.23l1.88 6.13c.22.71.4 1.5.55 2.39.09-.65.25-1.44.49-2.37l1.57-6.16h1.23l-2.66 10zm8.66 0-3.39-8.86h-.05c.06.7.1 1.54.1 2.5v6.36h-1.07v-9.99h1.75l3.17 8.24h.05l3.19-8.24h1.74v9.99h-1.16v-6.44c0-.74.03-1.54.1-2.41h-.05l-3.42 8.85h-.96zm16.9-5.01c0 1.28-.26 2.34-.77 3.19-.52.85-1.24 1.42-2.18 1.72l2.38 2.47h-1.69l-1.95-2.26-.38.01c-1.47 0-2.61-.45-3.41-1.35s-1.2-2.17-1.2-3.81c0-1.63.4-2.89 1.2-3.78.8-.9 1.94-1.34 3.42-1.34 1.44 0 2.56.46 3.36 1.37s1.22 2.18 1.22 3.78zm-7.97 0c0 1.35.29 2.38.86 3.08s1.41 1.05 2.51 1.05c1.11 0 1.94-.35 2.51-1.05.57-.7.85-1.73.85-3.08 0-1.34-.28-2.36-.84-3.06s-1.4-1.04-2.5-1.04c-1.11 0-1.95.35-2.53 1.05s-.86 1.71-.86 3.05zm14.62 5.01-3.39-8.86h-.05c.06.7.1 1.54.1 2.5v6.36h-1.07v-9.99h1.75l3.17 8.24h.05l3.19-8.24h1.74v9.99h-1.16v-6.44c0-.74.03-1.54.1-2.41h-.05l-3.42 8.85h-.96zm12.65 0-.23-1.07h-.05c-.37.47-.75.79-1.12.95-.37.17-.83.25-1.39.25-.74 0-1.33-.19-1.75-.57-.42-.38-.63-.93-.63-1.63 0-1.51 1.21-2.31 3.63-2.38l1.27-.04v-.46c0-.59-.13-1.02-.38-1.3s-.66-.42-1.21-.42c-.62 0-1.33.19-2.12.57l-.35-.87a5.432 5.432 0 0 1 2.53-.64c.89 0 1.55.2 1.99.59.43.4.65 1.03.65 1.91v5.11h-.84zm-2.56-.8c.71 0 1.26-.19 1.67-.58.4-.39.6-.93.6-1.63v-.68l-1.13.05c-.9.03-1.55.17-1.95.42-.4.25-.6.63-.6 1.16 0 .41.12.72.37.94.24.21.59.32 1.04.32zm10.87.8v-4.85c0-.61-.14-1.07-.42-1.37s-.71-.45-1.31-.45c-.78 0-1.36.21-1.72.64s-.55 1.12-.55 2.1v3.93h-1.13v-7.49h.92l.18 1.03h.05c.23-.37.56-.66.98-.86s.89-.3 1.4-.3c.9 0 1.58.22 2.04.65s.68 1.13.68 2.09v4.89h-1.12zm8.07 0-.23-1.07h-.05c-.37.47-.75.79-1.12.95-.37.17-.83.25-1.39.25-.74 0-1.33-.19-1.75-.57-.42-.38-.63-.93-.63-1.63 0-1.51 1.21-2.31 3.63-2.38l1.27-.04v-.46c0-.59-.13-1.02-.38-1.3s-.66-.42-1.21-.42c-.62 0-1.33.19-2.12.57l-.35-.87a5.432 5.432 0 0 1 2.53-.64c.89 0 1.55.2 1.99.59.43.4.65 1.03.65 1.91v5.11h-.84zm-2.56-.8c.71 0 1.26-.19 1.67-.58.4-.39.6-.93.6-1.63v-.68l-1.13.05c-.9.03-1.55.17-1.95.42-.4.25-.6.63-.6 1.16 0 .41.12.72.37.94.24.21.59.32 1.04.32zm11.87-6.69v.72l-1.39.16c.13.16.24.37.34.63s.15.55.15.87c0 .73-.25 1.32-.75 1.76s-1.19.66-2.06.66c-.22 0-.43-.02-.63-.05-.48.26-.72.58-.72.96 0 .21.08.36.25.45s.46.15.87.15h1.33c.81 0 1.43.17 1.87.51.44.34.65.84.65 1.49 0 .83-.33 1.46-1 1.9s-1.64.65-2.91.65c-.98 0-1.74-.18-2.27-.55-.53-.36-.8-.88-.8-1.54 0-.46.15-.85.44-1.18s.7-.56 1.23-.68a1.23 1.23 0 0 1-.48-.4c-.13-.18-.2-.39-.2-.64 0-.27.07-.51.22-.72s.38-.4.69-.59c-.39-.16-.7-.43-.95-.81-.24-.38-.37-.82-.37-1.31 0-.82.25-1.45.74-1.9s1.19-.67 2.09-.67c.39 0 .75.05 1.06.14h2.6zm-5.98 8.75c0 .41.17.71.51.92s.83.31 1.47.31c.95 0 1.66-.14 2.12-.43.46-.28.69-.67.69-1.16 0-.41-.12-.69-.38-.84s-.72-.24-1.42-.24h-1.36c-.51 0-.92.12-1.2.37s-.43.61-.43 1.07zm.62-6.35c0 .52.15.92.44 1.19s.71.4 1.24.4c1.11 0 1.66-.54 1.66-1.61 0-1.13-.56-1.69-1.68-1.69-.53 0-.94.14-1.23.43s-.43.71-.43 1.28zm10.06 5.23c-1.11 0-1.98-.34-2.62-1.01-.64-.67-.96-1.61-.96-2.81 0-1.21.3-2.17.89-2.88.6-.71 1.39-1.07 2.4-1.07.94 0 1.68.31 2.23.93s.82 1.43.82 2.44v.72h-5.16c.02.88.25 1.55.67 2 .42.46 1.01.68 1.78.68.81 0 1.6-.17 2.39-.51v1.01c-.4.17-.78.3-1.14.37-.36.09-.79.13-1.3.13zm-.31-6.82c-.6 0-1.08.2-1.44.59-.36.39-.57.93-.63 1.63h3.92c0-.72-.16-1.26-.48-1.64s-.77-.58-1.37-.58zm8.42-.95c.33 0 .63.03.9.08l-.16 1.05c-.31-.07-.58-.1-.82-.1-.61 0-1.12.25-1.55.74-.43.49-.65 1.1-.65 1.84v4.02h-1.13v-7.49h.94l.13 1.39h.05c.28-.49.61-.86 1-1.13s.82-.4 1.29-.4zm-79.49 50.54c0 1.65-.45 2.91-1.34 3.78-.9.87-2.18 1.31-3.87 1.31h-2.77v-9.99h3.06c1.55 0 2.76.43 3.62 1.29s1.3 2.06 1.3 3.61zm-1.23.04c0-1.3-.33-2.29-.98-2.95-.65-.66-1.62-.99-2.92-.99h-1.69v7.98h1.42c1.39 0 2.43-.34 3.12-1.02s1.05-1.69 1.05-3.02zm3.46-4.94h2.82c1.33 0 2.29.2 2.88.59s.89 1.02.89 1.88c0 .59-.17 1.08-.5 1.47-.33.39-.81.63-1.45.75v.07c1.52.26 2.28 1.06 2.28 2.39 0 .89-.3 1.59-.91 2.09-.6.5-1.45.75-2.53.75h-3.49v-9.99zm1.16 4.27h1.91c.82 0 1.41-.13 1.77-.39s.54-.69.54-1.3c0-.56-.2-.96-.6-1.21s-1.04-.37-1.91-.37h-1.71v3.27zm0 .99v3.74h2.08c.81 0 1.41-.16 1.82-.47.41-.31.61-.8.61-1.47 0-.62-.21-1.08-.62-1.37-.42-.29-1.05-.44-1.9-.44h-1.99zm13.79 4.73h-6.57v-.98l2.63-2.65c.8-.81 1.33-1.39 1.59-1.74s.45-.68.57-1.01.19-.68.19-1.06c0-.53-.16-.96-.49-1.27s-.77-.47-1.35-.47c-.41 0-.81.07-1.18.21-.37.14-.79.39-1.24.75l-.6-.77c.92-.77 1.92-1.15 3.01-1.15.94 0 1.67.24 2.21.72s.8 1.13.8 1.94c0 .63-.18 1.26-.53 1.88s-1.02 1.4-2 2.35l-2.19 2.14v.05h5.14v1.06zm6.55 0-3.39-8.86h-.05c.06.7.1 1.54.1 2.5v6.36h-1.07v-9.99h1.75l3.17 8.24h.05l3.19-8.24h1.74v9.99h-1.16v-6.44c0-.74.03-1.54.1-2.41h-.05l-3.42 8.85h-.96zm12.65 0-.23-1.07h-.05c-.37.47-.75.79-1.12.95-.37.17-.83.25-1.39.25-.74 0-1.33-.19-1.75-.57-.42-.38-.63-.93-.63-1.63 0-1.51 1.21-2.31 3.63-2.38l1.27-.04v-.46c0-.59-.13-1.02-.38-1.3s-.66-.42-1.21-.42c-.62 0-1.33.19-2.12.57l-.35-.87a5.432 5.432 0 0 1 2.53-.64c.89 0 1.55.2 1.99.59.43.4.65 1.03.65 1.91v5.11h-.84zm-2.56-.8c.71 0 1.26-.19 1.67-.58.4-.39.6-.93.6-1.63v-.68l-1.13.05c-.9.03-1.55.17-1.95.42-.4.25-.6.63-.6 1.16 0 .41.12.72.37.94.24.21.59.32 1.04.32zm10.87.8v-4.85c0-.61-.14-1.07-.42-1.37s-.71-.45-1.31-.45c-.78 0-1.36.21-1.72.64s-.55 1.12-.55 2.1v3.93h-1.13v-7.49h.92l.18 1.03h.05c.23-.37.56-.66.98-.86s.89-.3 1.4-.3c.9 0 1.58.22 2.04.65s.68 1.13.68 2.09v4.89h-1.12zm8.07 0-.23-1.07h-.05c-.37.47-.75.79-1.12.95-.37.17-.83.25-1.39.25-.74 0-1.33-.19-1.75-.57-.42-.38-.63-.93-.63-1.63 0-1.51 1.21-2.31 3.63-2.38l1.27-.04v-.46c0-.59-.13-1.02-.38-1.3s-.66-.42-1.21-.42c-.62 0-1.33.19-2.12.57l-.35-.87a5.432 5.432 0 0 1 2.53-.64c.89 0 1.55.2 1.99.59.43.4.65 1.03.65 1.91v5.11h-.84zm-2.57-.8c.71 0 1.26-.19 1.67-.58.4-.39.6-.93.6-1.63v-.68l-1.13.05c-.9.03-1.55.17-1.95.42-.4.25-.6.63-.6 1.16 0 .41.12.72.37.94.25.21.6.32 1.04.32zm11.88-6.69v.72l-1.39.16c.13.16.24.37.34.63s.15.55.15.87c0 .73-.25 1.32-.75 1.76s-1.19.66-2.06.66c-.22 0-.43-.02-.63-.05-.48.26-.72.58-.72.96 0 .21.08.36.25.45s.46.15.87.15h1.33c.81 0 1.43.17 1.87.51.44.34.65.84.65 1.49 0 .83-.33 1.46-1 1.9s-1.64.65-2.91.65c-.98 0-1.74-.18-2.27-.55-.53-.36-.8-.88-.8-1.54 0-.46.15-.85.44-1.18s.7-.56 1.23-.68a1.23 1.23 0 0 1-.48-.4c-.13-.18-.2-.39-.2-.64 0-.27.07-.51.22-.72s.38-.4.69-.59c-.39-.16-.7-.43-.95-.81-.24-.38-.37-.82-.37-1.31 0-.82.25-1.45.74-1.9s1.19-.67 2.09-.67c.39 0 .75.05 1.06.14h2.6zm-5.98 8.75c0 .41.17.71.51.92s.83.31 1.47.31c.95 0 1.66-.14 2.12-.43.46-.28.69-.67.69-1.16 0-.41-.12-.69-.38-.84s-.72-.24-1.42-.24h-1.36c-.51 0-.92.12-1.2.37s-.43.61-.43 1.07zm.62-6.35c0 .52.15.92.44 1.19s.71.4 1.24.4c1.11 0 1.66-.54 1.66-1.61 0-1.13-.56-1.69-1.68-1.69-.53 0-.94.14-1.23.43s-.43.71-.43 1.28zm10.06 5.23c-1.11 0-1.98-.34-2.62-1.01-.64-.67-.96-1.61-.96-2.81 0-1.21.3-2.17.89-2.88.6-.71 1.39-1.07 2.4-1.07.94 0 1.68.31 2.23.93s.82 1.43.82 2.44v.72h-5.16c.02.88.25 1.55.67 2 .42.46 1.01.68 1.78.68.81 0 1.6-.17 2.39-.51v1.01c-.4.17-.78.3-1.14.37-.36.09-.79.13-1.3.13zm-.31-6.82c-.6 0-1.08.2-1.44.59-.36.39-.57.93-.63 1.63H399c0-.72-.16-1.26-.48-1.64s-.77-.58-1.37-.58zm8.42-.95c.33 0 .63.03.9.08l-.16 1.05c-.31-.07-.58-.1-.82-.1-.61 0-1.12.25-1.55.74-.43.49-.65 1.1-.65 1.84v4.02h-1.13v-7.49h.94l.13 1.39h.05c.28-.49.61-.86 1-1.13s.82-.4 1.29-.4zm-48.59 54.25c0-.26.06-.46.18-.59s.29-.2.51-.2c.23 0 .4.07.53.2s.19.33.19.59c0 .25-.06.45-.19.59s-.3.21-.53.21c-.2 0-.36-.06-.5-.18s-.19-.34-.19-.62zm6.31 0c0-.26.06-.46.18-.59s.29-.2.51-.2c.23 0 .4.07.53.2s.19.33.19.59c0 .25-.06.45-.19.59s-.3.21-.53.21c-.2 0-.36-.06-.5-.18s-.19-.34-.19-.62zm6.31 0c0-.26.06-.46.18-.59s.29-.2.51-.2c.23 0 .4.07.53.2s.19.33.19.59c0 .25-.06.45-.19.59s-.3.21-.53.21c-.2 0-.36-.06-.5-.18s-.19-.34-.19-.62zM561.65 82.66c0 .88-.32 1.57-.96 2.06s-1.5.74-2.6.74c-1.19 0-2.1-.15-2.73-.46v-1.12c.41.17.86.31 1.34.41s.96.15 1.44.15c.78 0 1.36-.15 1.75-.44s.59-.7.59-1.23c0-.35-.07-.63-.21-.85-.14-.22-.37-.42-.7-.61-.33-.19-.82-.4-1.49-.64-.93-.33-1.59-.73-1.99-1.18-.4-.46-.6-1.05-.6-1.78 0-.77.29-1.38.87-1.84s1.34-.68 2.3-.68c.99 0 1.91.18 2.74.55l-.36 1.01c-.82-.35-1.63-.52-2.41-.52-.62 0-1.1.13-1.44.4s-.52.63-.52 1.1c0 .35.06.63.19.85s.34.42.65.61c.3.18.77.39 1.39.61 1.05.37 1.77.77 2.16 1.2.39.42.59.98.59 1.66zm5.04 2.8c-1.11 0-1.98-.34-2.62-1.01-.64-.67-.96-1.61-.96-2.81 0-1.21.3-2.17.89-2.88.6-.71 1.39-1.07 2.4-1.07.94 0 1.68.31 2.23.93s.82 1.43.82 2.44v.72h-5.16c.02.88.25 1.55.67 2 .42.46 1.01.68 1.78.68.81 0 1.6-.17 2.39-.51v1.01c-.4.17-.78.3-1.14.37-.36.09-.8.13-1.3.13zm-.31-6.82c-.6 0-1.08.2-1.44.59-.36.39-.57.93-.63 1.63h3.92c0-.72-.16-1.26-.48-1.64s-.78-.58-1.37-.58zm6.13 6.68h-1.13V74.68h1.13v10.64zm5.57.14c-1.11 0-1.98-.34-2.62-1.01-.64-.67-.96-1.61-.96-2.81 0-1.21.3-2.17.89-2.88.59-.71 1.39-1.07 2.4-1.07.94 0 1.68.31 2.23.93s.82 1.43.82 2.44v.72h-5.16c.02.88.25 1.55.67 2 .42.46 1.02.68 1.78.68.81 0 1.6-.17 2.39-.51v1.01c-.4.17-.78.3-1.14.37-.36.09-.79.13-1.3.13zm-.3-6.82c-.6 0-1.08.2-1.44.59-.36.39-.57.93-.63 1.63h3.92c0-.72-.16-1.26-.48-1.64s-.78-.58-1.37-.58zm10.12 6.68v-4.85c0-.61-.14-1.07-.42-1.37s-.71-.45-1.31-.45c-.78 0-1.36.21-1.72.64s-.55 1.12-.55 2.1v3.93h-1.13v-7.49h.92l.18 1.03h.05c.23-.37.56-.66.98-.86s.89-.3 1.4-.3c.9 0 1.58.22 2.04.65s.68 1.13.68 2.09v4.89h-1.12zm3.37-9.52c0-.26.06-.45.19-.57s.29-.18.48-.18c.18 0 .34.06.47.18s.2.31.2.57-.07.45-.2.57-.29.19-.47.19c-.19 0-.35-.06-.48-.19s-.19-.32-.19-.57zm1.23 9.52h-1.13v-7.49h1.13v7.49zm3.47-7.49v4.86c0 .61.14 1.07.42 1.37s.71.45 1.31.45c.78 0 1.36-.21 1.72-.64.36-.43.54-1.13.54-2.1v-3.94h1.13v7.49h-.94l-.16-1h-.06c-.23.37-.55.65-.97.85-.41.2-.88.29-1.41.29-.91 0-1.59-.22-2.05-.65-.45-.43-.68-1.13-.68-2.08v-4.9h1.15zm17.08 7.49v-4.87c0-.6-.13-1.04-.38-1.34s-.65-.45-1.19-.45c-.71 0-1.23.2-1.57.61s-.51 1.03-.51 1.87v4.18h-1.13v-4.87c0-.6-.13-1.04-.38-1.34s-.65-.45-1.2-.45c-.71 0-1.23.21-1.56.64-.33.43-.5 1.12-.5 2.1v3.93h-1.13v-7.49h.92l.18 1.03h.05c.21-.36.52-.65.91-.85.39-.21.83-.31 1.31-.31 1.17 0 1.94.42 2.3 1.27h.05c.22-.39.55-.7.97-.93s.91-.34 1.45-.34c.85 0 1.48.22 1.9.65.42.44.63 1.13.63 2.09v4.89h-1.12zm8.07 0-3.39-8.86h-.05c.06.7.1 1.54.1 2.5v6.36h-1.07v-9.99h1.75l3.17 8.24h.05l3.19-8.24h1.74v9.99h-1.16v-6.44c0-.74.03-1.54.1-2.41h-.05l-3.42 8.85h-.96zm12.65 0-.23-1.07h-.05c-.37.47-.75.79-1.12.95-.37.17-.83.25-1.39.25-.74 0-1.33-.19-1.75-.57-.42-.38-.63-.93-.63-1.63 0-1.51 1.21-2.31 3.63-2.38l1.27-.04v-.46c0-.59-.13-1.02-.38-1.3s-.66-.42-1.21-.42c-.62 0-1.33.19-2.12.57l-.35-.87a5.432 5.432 0 0 1 2.53-.64c.89 0 1.55.2 1.99.59.43.4.65 1.03.65 1.91v5.11h-.84zm-2.56-.8c.71 0 1.26-.19 1.67-.58.4-.39.6-.93.6-1.63v-.68l-1.13.05c-.9.03-1.55.17-1.95.42-.4.25-.6.63-.6 1.16 0 .41.12.72.37.94.24.21.59.32 1.04.32zm10.87.8v-4.85c0-.61-.14-1.07-.42-1.37s-.71-.45-1.31-.45c-.78 0-1.36.21-1.72.64s-.55 1.12-.55 2.1v3.93h-1.13v-7.49h.92l.18 1.03h.05c.23-.37.56-.66.98-.86s.89-.3 1.4-.3c.9 0 1.58.22 2.04.65s.68 1.13.68 2.09v4.89h-1.12zm8.07 0-.23-1.07h-.05c-.37.47-.75.79-1.12.95-.37.17-.83.25-1.39.25-.74 0-1.33-.19-1.75-.57-.42-.38-.63-.93-.63-1.63 0-1.51 1.21-2.31 3.63-2.38l1.27-.04v-.46c0-.59-.13-1.02-.38-1.3s-.66-.42-1.21-.42c-.62 0-1.33.19-2.12.57l-.35-.87a5.432 5.432 0 0 1 2.53-.64c.89 0 1.55.2 1.99.59.43.4.65 1.03.65 1.91v5.11h-.84zm-2.57-.8c.71 0 1.26-.19 1.67-.58.4-.39.6-.93.6-1.63v-.68l-1.13.05c-.9.03-1.55.17-1.95.42-.4.25-.6.63-.6 1.16 0 .41.12.72.37.94.25.21.6.32 1.04.32zm11.88-6.69v.72l-1.39.16c.13.16.24.37.34.63s.15.55.15.87c0 .73-.25 1.32-.75 1.76s-1.19.66-2.06.66c-.22 0-.43-.02-.63-.05-.48.26-.72.58-.72.96 0 .21.08.36.25.45s.46.15.87.15h1.33c.81 0 1.43.17 1.87.51.44.34.65.84.65 1.49 0 .83-.33 1.46-1 1.9s-1.64.65-2.91.65c-.98 0-1.74-.18-2.27-.55-.53-.36-.8-.88-.8-1.54 0-.46.15-.85.44-1.18s.7-.56 1.23-.68a1.23 1.23 0 0 1-.48-.4c-.13-.18-.2-.39-.2-.64 0-.27.07-.51.22-.72s.38-.4.69-.59c-.39-.16-.7-.43-.95-.81-.24-.38-.37-.82-.37-1.31 0-.82.25-1.45.74-1.9s1.19-.67 2.09-.67c.39 0 .75.05 1.06.14h2.6zm-5.98 8.75c0 .41.17.71.51.92s.83.31 1.47.31c.95 0 1.66-.14 2.12-.43.46-.28.69-.67.69-1.16 0-.41-.12-.69-.38-.84s-.72-.24-1.42-.24h-1.36c-.51 0-.92.12-1.2.37s-.43.61-.43 1.07zm.62-6.35c0 .52.15.92.44 1.19s.71.4 1.24.4c1.11 0 1.66-.54 1.66-1.61 0-1.13-.56-1.69-1.68-1.69-.53 0-.94.14-1.23.43s-.43.71-.43 1.28zm10.06 5.23c-1.11 0-1.98-.34-2.62-1.01-.64-.67-.96-1.61-.96-2.81 0-1.21.3-2.17.89-2.88.6-.71 1.39-1.07 2.4-1.07.94 0 1.68.31 2.23.93s.82 1.43.82 2.44v.72h-5.16c.02.88.25 1.55.67 2 .42.46 1.01.68 1.78.68.81 0 1.6-.17 2.39-.51v1.01c-.4.17-.78.3-1.14.37-.36.09-.79.13-1.3.13zm-.31-6.82c-.6 0-1.08.2-1.44.59-.36.39-.57.93-.63 1.63h3.92c0-.72-.16-1.26-.48-1.64s-.77-.58-1.37-.58zm8.42-.95c.33 0 .63.03.9.08l-.16 1.05c-.31-.07-.58-.1-.82-.1-.61 0-1.12.25-1.55.74-.43.49-.65 1.1-.65 1.84v4.02h-1.13v-7.49h.94l.13 1.39h.05c.28-.49.61-.86 1-1.13s.82-.4 1.29-.4zm-108.75 58.26c-.43 0-.77-.06-1.01-.18v-.99c.32.09.66.14 1.01.14.45 0 .79-.14 1.03-.41.23-.27.35-.67.35-1.18v-9.99h1.16v9.9c0 .87-.22 1.54-.66 2.01s-1.06.7-1.88.7zm9.62-2.63-3.39-8.86h-.05c.06.7.1 1.54.1 2.5v6.36h-1.07v-9.99h1.75l3.17 8.24h.05l3.19-8.24h1.74v9.99h-1.16v-6.44c0-.74.03-1.54.1-2.41h-.05l-3.42 8.85h-.96zm11.21.14c-1.11 0-1.98-.34-2.62-1.01-.64-.67-.96-1.61-.96-2.81 0-1.21.3-2.17.89-2.88.6-.71 1.39-1.07 2.4-1.07.94 0 1.68.31 2.23.93s.82 1.43.82 2.44v.72h-5.16c.02.88.25 1.55.67 2 .42.46 1.01.68 1.78.68.81 0 1.6-.17 2.39-.51v1.01c-.4.17-.78.3-1.14.37-.36.09-.79.13-1.3.13zm-.31-6.82c-.6 0-1.08.2-1.44.59-.36.39-.57.93-.63 1.63h3.92c0-.72-.16-1.26-.48-1.64s-.77-.58-1.37-.58zm7.42 5.88c.2 0 .39-.01.58-.04s.33-.06.44-.09v.87c-.12.06-.3.11-.54.15-.24.04-.45.06-.65.06-1.45 0-2.17-.76-2.17-2.29v-4.46h-1.07v-.55l1.07-.47.48-1.6h.66v1.74h2.17v.88h-2.17v4.41c0 .45.11.8.32 1.04s.51.35.88.35zm5.69.94c-1.11 0-1.98-.34-2.62-1.01-.64-.67-.96-1.61-.96-2.81 0-1.21.3-2.17.89-2.88.6-.71 1.39-1.07 2.4-1.07.94 0 1.68.31 2.23.93s.82 1.43.82 2.44v.72h-5.16c.02.88.25 1.55.67 2 .42.46 1.01.68 1.78.68.81 0 1.6-.17 2.39-.51v1.01c-.4.17-.78.3-1.14.37-.36.09-.79.13-1.3.13zm-.31-6.82c-.6 0-1.08.2-1.44.59-.36.39-.57.93-.63 1.63h3.92c0-.72-.16-1.26-.48-1.64s-.78-.58-1.37-.58zm8.42-.95c.33 0 .63.03.9.08l-.16 1.05c-.31-.07-.58-.1-.82-.1-.61 0-1.12.25-1.56.74-.43.49-.65 1.1-.65 1.84v4.02h-1.13v-7.49h.94l.13 1.39h.05c.28-.49.61-.86 1-1.13s.83-.4 1.3-.4zm6.89 7.63-3.39-8.86h-.05c.06.7.1 1.54.1 2.5v6.36h-1.07v-9.99h1.75l3.17 8.24h.05l3.19-8.24h1.74v9.99h-1.16v-6.44c0-.74.03-1.54.1-2.41h-.05l-3.42 8.85h-.96zm12.65 0-.23-1.07h-.05c-.37.47-.75.79-1.12.95-.37.17-.83.25-1.39.25-.74 0-1.33-.19-1.75-.57-.42-.38-.63-.93-.63-1.63 0-1.51 1.21-2.31 3.63-2.38l1.27-.04v-.46c0-.59-.13-1.02-.38-1.3s-.66-.42-1.21-.42c-.62 0-1.33.19-2.12.57l-.35-.87a5.432 5.432 0 0 1 2.53-.64c.89 0 1.55.2 1.99.59.43.4.65 1.03.65 1.91v5.11h-.84zm-2.56-.8c.71 0 1.26-.19 1.67-.58.4-.39.6-.93.6-1.63v-.68l-1.13.05c-.9.03-1.55.17-1.95.42-.4.25-.6.63-.6 1.16 0 .41.12.72.37.94.24.21.59.32 1.04.32zm10.87.8v-4.85c0-.61-.14-1.07-.42-1.37s-.71-.45-1.31-.45c-.78 0-1.36.21-1.72.64s-.55 1.12-.55 2.1v3.93h-1.13v-7.49h.92l.18 1.03h.05c.23-.37.56-.66.98-.86s.89-.3 1.4-.3c.9 0 1.58.22 2.04.65s.68 1.13.68 2.09v4.89h-1.12zm8.07 0-.23-1.07h-.05c-.37.47-.75.79-1.12.95-.37.17-.83.25-1.39.25-.74 0-1.33-.19-1.75-.57-.42-.38-.63-.93-.63-1.63 0-1.51 1.21-2.31 3.63-2.38l1.27-.04v-.46c0-.59-.13-1.02-.38-1.3s-.66-.42-1.21-.42c-.62 0-1.33.19-2.12.57l-.35-.87a5.432 5.432 0 0 1 2.53-.64c.89 0 1.55.2 1.99.59.43.4.65 1.03.65 1.91v5.11h-.84zm-2.56-.8c.71 0 1.26-.19 1.67-.58.4-.39.6-.93.6-1.63v-.68l-1.13.05c-.9.03-1.55.17-1.95.42-.4.25-.6.63-.6 1.16 0 .41.12.72.37.94.24.21.59.32 1.04.32zm11.87-6.69v.72l-1.39.16c.13.16.24.37.34.63s.15.55.15.87c0 .73-.25 1.32-.75 1.76s-1.19.66-2.06.66c-.22 0-.43-.02-.63-.05-.48.26-.72.58-.72.96 0 .21.08.36.25.45s.46.15.87.15h1.33c.81 0 1.43.17 1.87.51.44.34.65.84.65 1.49 0 .83-.33 1.46-1 1.9s-1.64.65-2.91.65c-.98 0-1.74-.18-2.27-.55-.53-.36-.8-.88-.8-1.54 0-.46.15-.85.44-1.18s.7-.56 1.23-.68a1.23 1.23 0 0 1-.48-.4c-.13-.18-.2-.39-.2-.64 0-.27.07-.51.22-.72s.38-.4.69-.59c-.39-.16-.7-.43-.95-.81-.24-.38-.37-.82-.37-1.31 0-.82.25-1.45.74-1.9s1.19-.67 2.09-.67c.39 0 .75.05 1.06.14h2.6zm-5.97 8.75c0 .41.17.71.51.92s.83.31 1.47.31c.95 0 1.66-.14 2.12-.43.46-.28.69-.67.69-1.16 0-.41-.12-.69-.38-.84s-.72-.24-1.42-.24h-1.36c-.51 0-.92.12-1.2.37s-.43.61-.43 1.07zm.61-6.35c0 .52.15.92.44 1.19s.71.4 1.24.4c1.11 0 1.66-.54 1.66-1.61 0-1.13-.56-1.69-1.68-1.69-.53 0-.94.14-1.23.43s-.43.71-.43 1.28zm10.06 5.23c-1.11 0-1.98-.34-2.62-1.01-.64-.67-.96-1.61-.96-2.81 0-1.21.3-2.17.89-2.88.6-.71 1.39-1.07 2.4-1.07.94 0 1.68.31 2.23.93s.82 1.43.82 2.44v.72h-5.16c.02.88.25 1.55.67 2 .42.46 1.01.68 1.78.68.81 0 1.6-.17 2.39-.51v1.01c-.4.17-.78.3-1.14.37-.36.09-.79.13-1.3.13zm-.3-6.82c-.6 0-1.08.2-1.44.59-.36.39-.57.93-.63 1.63h3.92c0-.72-.16-1.26-.48-1.64s-.78-.58-1.37-.58zm8.41-.95c.33 0 .63.03.9.08l-.16 1.05c-.31-.07-.58-.1-.82-.1-.61 0-1.12.25-1.55.74-.43.49-.65 1.1-.65 1.84v4.02h-1.13v-7.49h.94l.13 1.39h.04c.28-.49.61-.86 1-1.13s.83-.4 1.3-.4zm-92.09 50.54c0 1.65-.45 2.91-1.34 3.78-.89.87-2.18 1.31-3.87 1.31h-2.77v-9.99h3.06c1.55 0 2.76.43 3.62 1.29s1.3 2.06 1.3 3.61zm-1.23.04c0-1.3-.33-2.29-.98-2.95-.65-.66-1.63-.99-2.92-.99h-1.69v7.98h1.42c1.38 0 2.43-.34 3.12-1.02s1.05-1.69 1.05-3.02zm9.75 1.3c0 1.22-.31 2.17-.92 2.86s-1.46 1.03-2.55 1.03c-.67 0-1.26-.16-1.78-.47s-.92-.77-1.2-1.35-.42-1.28-.42-2.06c0-1.22.3-2.17.92-2.85s1.46-1.02 2.54-1.02c1.05 0 1.88.35 2.5 1.05.6.67.91 1.62.91 2.81zm-5.71 0c0 .96.19 1.69.57 2.19s.95.75 1.69.75 1.31-.25 1.69-.75c.38-.5.58-1.23.58-2.19 0-.95-.19-1.68-.58-2.17-.39-.49-.95-.74-1.71-.74-.74 0-1.3.24-1.68.73s-.56 1.21-.56 2.18zm10.69 3.89c-1.08 0-1.92-.33-2.52-1-.59-.67-.89-1.61-.89-2.83 0-1.25.3-2.22.91-2.91.6-.68 1.46-1.03 2.58-1.03.36 0 .72.04 1.08.12s.64.17.85.27l-.35.96c-.25-.1-.52-.18-.82-.25s-.56-.1-.79-.1c-1.52 0-2.28.97-2.28 2.91 0 .92.19 1.63.56 2.12.37.49.92.74 1.65.74.62 0 1.26-.13 1.92-.4v1c-.5.27-1.13.4-1.9.4zm4.8-3.98c.2-.28.5-.64.9-1.09l2.42-2.56h1.35l-3.04 3.19 3.25 4.3h-1.37l-2.65-3.54-.85.74v2.8h-1.12v-10.64h1.12v5.64c0 .25-.02.64-.05 1.16h.04zm9.39 3.98c-1.11 0-1.98-.34-2.62-1.01-.64-.67-.96-1.61-.96-2.81 0-1.21.3-2.17.89-2.88.6-.71 1.39-1.07 2.4-1.07.94 0 1.68.31 2.23.93s.82 1.43.82 2.44v.72h-5.16c.02.88.25 1.55.67 2 .42.46 1.01.68 1.78.68.81 0 1.6-.17 2.39-.51v1.01c-.4.17-.78.3-1.14.37-.36.09-.79.13-1.3.13zm-.31-6.82c-.6 0-1.08.2-1.44.59-.36.39-.57.93-.63 1.63h3.92c0-.72-.16-1.26-.48-1.64s-.78-.58-1.37-.58zm8.42-.95c.33 0 .63.03.9.08l-.16 1.05c-.31-.07-.58-.1-.82-.1-.61 0-1.12.25-1.56.74-.43.49-.65 1.1-.65 1.84v4.02h-1.13v-7.49h.94l.13 1.39h.05c.28-.49.61-.86 1-1.13s.83-.4 1.3-.4zm6.89 7.63-3.39-8.86h-.05c.06.7.1 1.54.1 2.5v6.36h-1.07v-9.99h1.75l3.17 8.24h.05l3.19-8.24h1.74v9.99h-1.16v-6.44c0-.74.03-1.54.1-2.41h-.05l-3.42 8.85h-.96zm12.65 0-.23-1.07h-.05c-.37.47-.75.79-1.12.95-.37.17-.83.25-1.39.25-.74 0-1.33-.19-1.75-.57-.42-.38-.63-.93-.63-1.63 0-1.51 1.21-2.31 3.63-2.38l1.27-.04v-.46c0-.59-.13-1.02-.38-1.3s-.66-.42-1.21-.42c-.62 0-1.33.19-2.12.57l-.35-.87a5.432 5.432 0 0 1 2.53-.64c.89 0 1.55.2 1.99.59.43.4.65 1.03.65 1.91v5.11h-.84zm-2.56-.8c.71 0 1.26-.19 1.67-.58.4-.39.6-.93.6-1.63v-.68l-1.13.05c-.9.03-1.55.17-1.95.42-.4.25-.6.63-.6 1.16 0 .41.12.72.37.94.24.21.59.32 1.04.32zm10.87.8v-4.85c0-.61-.14-1.07-.42-1.37s-.71-.45-1.31-.45c-.78 0-1.36.21-1.72.64s-.55 1.12-.55 2.1v3.93h-1.13v-7.49h.92l.18 1.03h.05c.23-.37.56-.66.98-.86s.89-.3 1.4-.3c.9 0 1.58.22 2.04.65s.68 1.13.68 2.09v4.89h-1.12zm8.07 0-.23-1.07h-.05c-.37.47-.75.79-1.12.95-.37.17-.83.25-1.39.25-.74 0-1.33-.19-1.75-.57-.42-.38-.63-.93-.63-1.63 0-1.51 1.21-2.31 3.63-2.38l1.27-.04v-.46c0-.59-.13-1.02-.38-1.3s-.66-.42-1.21-.42c-.62 0-1.33.19-2.12.57l-.35-.87a5.432 5.432 0 0 1 2.53-.64c.89 0 1.55.2 1.99.59.43.4.65 1.03.65 1.91v5.11h-.84zm-2.56-.8c.71 0 1.26-.19 1.67-.58.4-.39.6-.93.6-1.63v-.68l-1.13.05c-.9.03-1.55.17-1.95.42-.4.25-.6.63-.6 1.16 0 .41.12.72.37.94.24.21.59.32 1.04.32zm11.87-6.69v.72l-1.39.16c.13.16.24.37.34.63s.15.55.15.87c0 .73-.25 1.32-.75 1.76s-1.19.66-2.06.66c-.22 0-.43-.02-.63-.05-.48.26-.72.58-.72.96 0 .21.08.36.25.45s.46.15.87.15h1.33c.81 0 1.43.17 1.87.51.44.34.65.84.65 1.49 0 .83-.33 1.46-1 1.9s-1.64.65-2.91.65c-.98 0-1.74-.18-2.27-.55-.53-.36-.8-.88-.8-1.54 0-.46.15-.85.44-1.18s.7-.56 1.23-.68a1.23 1.23 0 0 1-.48-.4c-.13-.18-.2-.39-.2-.64 0-.27.07-.51.22-.72s.38-.4.69-.59c-.39-.16-.7-.43-.95-.81-.24-.38-.37-.82-.37-1.31 0-.82.25-1.45.74-1.9s1.19-.67 2.09-.67c.39 0 .75.05 1.06.14h2.6zm-5.97 8.75c0 .41.17.71.51.92s.83.31 1.47.31c.95 0 1.66-.14 2.12-.43.46-.28.69-.67.69-1.16 0-.41-.12-.69-.38-.84s-.72-.24-1.42-.24h-1.36c-.51 0-.92.12-1.2.37s-.43.61-.43 1.07zm.61-6.35c0 .52.15.92.44 1.19s.71.4 1.24.4c1.11 0 1.66-.54 1.66-1.61 0-1.13-.56-1.69-1.68-1.69-.53 0-.94.14-1.23.43s-.43.71-.43 1.28zm10.06 5.23c-1.11 0-1.98-.34-2.62-1.01-.64-.67-.96-1.61-.96-2.81 0-1.21.3-2.17.89-2.88.6-.71 1.39-1.07 2.4-1.07.94 0 1.68.31 2.23.93s.82 1.43.82 2.44v.72h-5.16c.02.88.25 1.55.67 2 .42.46 1.01.68 1.78.68.81 0 1.6-.17 2.39-.51v1.01c-.4.17-.78.3-1.14.37-.36.09-.79.13-1.3.13zm-.3-6.82c-.6 0-1.08.2-1.44.59-.36.39-.57.93-.63 1.63h3.92c0-.72-.16-1.26-.48-1.64s-.78-.58-1.37-.58zm8.41-.95c.33 0 .63.03.9.08l-.16 1.05c-.31-.07-.58-.1-.82-.1-.61 0-1.12.25-1.55.74-.43.49-.65 1.1-.65 1.84v4.02h-1.13v-7.49h.94l.13 1.39h.05c.28-.49.61-.86 1-1.13s.82-.4 1.29-.4zm-59.24 54.91c0-.31.07-.54.21-.69s.34-.24.6-.24c.26 0 .47.08.62.24s.22.39.22.69c0 .3-.07.52-.22.68s-.36.24-.62.24c-.23 0-.43-.07-.58-.22s-.23-.38-.23-.7zm7.37 0c0-.31.07-.54.21-.69s.34-.24.6-.24c.27 0 .47.08.62.24s.22.39.22.69c0 .3-.08.52-.23.68s-.36.24-.62.24c-.23 0-.42-.07-.58-.22s-.22-.38-.22-.7zm7.36 0c0-.31.07-.54.21-.69.14-.16.34-.24.6-.24.26 0 .47.08.62.24.15.16.22.39.22.69 0 .3-.08.52-.23.68s-.36.24-.62.24c-.23 0-.42-.07-.58-.22-.14-.14-.22-.38-.22-.7z" style="fill:#fff"/>
  </g>
</svg>
