<svg width="800" height="491" viewBox="0 0 800 491" fill="none" xmlns="http://www.w3.org/2000/svg">
<rect width="800" height="491" fill="white"/>
<path d="M62 204C62 201.239 64.2386 199 67 199H287C289.761 199 292 201.239 292 204V239H62V204Z" fill="#00378F"/>
<path d="M85.9785 214.006C87.2682 214.006 88.2093 214.259 88.8018 214.765C89.3988 215.266 89.6973 215.986 89.6973 216.925C89.6973 217.349 89.6266 217.752 89.4854 218.135C89.3486 218.513 89.1253 218.848 88.8154 219.14C88.5055 219.427 88.0977 219.655 87.5918 219.823C87.0905 219.987 86.4753 220.069 85.7461 220.069H84.5293V224H83.3672V214.006H85.9785ZM85.8691 214.997H84.5293V219.071H85.6162C86.2542 219.071 86.7852 219.003 87.209 218.866C87.6374 218.729 87.9587 218.508 88.1729 218.203C88.387 217.893 88.4941 217.483 88.4941 216.973C88.4941 216.307 88.2822 215.813 87.8584 215.489C87.4346 215.161 86.7715 214.997 85.8691 214.997ZM94.5809 216.385C95.4741 216.385 96.1372 216.585 96.5702 216.986C97.0031 217.387 97.2196 218.028 97.2196 218.907V224H96.3924L96.1737 222.893H96.119C95.9093 223.166 95.6906 223.396 95.4627 223.583C95.2349 223.765 94.9705 223.904 94.6698 224C94.3735 224.091 94.009 224.137 93.576 224.137C93.1203 224.137 92.7147 224.057 92.3592 223.897C92.0083 223.738 91.7303 223.496 91.5252 223.173C91.3247 222.849 91.2245 222.439 91.2245 221.942C91.2245 221.195 91.5207 220.621 92.1131 220.22C92.7056 219.819 93.6079 219.6 94.8202 219.563L96.1121 219.509V219.051C96.1121 218.404 95.9732 217.95 95.6952 217.69C95.4172 217.431 95.0252 217.301 94.5194 217.301C94.1274 217.301 93.7537 217.358 93.3983 217.472C93.0428 217.586 92.7056 217.72 92.3866 217.875L92.0379 217.014C92.3752 216.84 92.7625 216.692 93.2 216.569C93.6375 216.446 94.0978 216.385 94.5809 216.385ZM96.0985 220.309L94.9569 220.356C94.0226 220.393 93.3641 220.546 92.9813 220.814C92.5985 221.083 92.4071 221.464 92.4071 221.956C92.4071 222.384 92.537 222.701 92.7967 222.906C93.0565 223.111 93.4006 223.214 93.8289 223.214C94.4943 223.214 95.0389 223.029 95.4627 222.66C95.8866 222.291 96.0985 221.737 96.0985 220.999V220.309ZM103.122 216.371C103.272 216.371 103.429 216.38 103.593 216.398C103.757 216.412 103.903 216.433 104.031 216.46L103.887 217.513C103.764 217.481 103.628 217.456 103.477 217.438C103.327 217.419 103.186 217.41 103.053 217.41C102.753 217.41 102.468 217.472 102.199 217.595C101.935 217.713 101.702 217.886 101.502 218.114C101.301 218.338 101.144 218.609 101.03 218.928C100.916 219.242 100.859 219.593 100.859 219.98V224H99.7175V216.508H100.661L100.784 217.889H100.832C100.987 217.611 101.174 217.358 101.392 217.13C101.611 216.897 101.864 216.713 102.151 216.576C102.443 216.439 102.766 216.371 103.122 216.371ZM108.491 216.371C109.129 216.371 109.676 216.512 110.131 216.795C110.587 217.077 110.936 217.474 111.177 217.984C111.419 218.49 111.54 219.083 111.54 219.762V220.466H106.365C106.378 221.345 106.597 222.015 107.021 222.476C107.445 222.936 108.042 223.166 108.812 223.166C109.286 223.166 109.705 223.123 110.07 223.036C110.434 222.95 110.813 222.822 111.205 222.653V223.651C110.826 223.82 110.45 223.943 110.077 224.021C109.708 224.098 109.27 224.137 108.764 224.137C108.044 224.137 107.415 223.991 106.877 223.699C106.344 223.403 105.93 222.97 105.633 222.4C105.337 221.831 105.189 221.133 105.189 220.309C105.189 219.502 105.323 218.805 105.592 218.217C105.866 217.624 106.249 217.169 106.741 216.85C107.237 216.531 107.821 216.371 108.491 216.371ZM108.477 217.301C107.871 217.301 107.388 217.499 107.028 217.896C106.668 218.292 106.454 218.846 106.385 219.557H110.35C110.346 219.11 110.275 218.718 110.138 218.381C110.006 218.039 109.803 217.775 109.53 217.588C109.256 217.396 108.905 217.301 108.477 217.301ZM117.175 216.371C118.064 216.371 118.736 216.59 119.192 217.027C119.647 217.46 119.875 218.158 119.875 219.119V224H118.754V219.194C118.754 218.57 118.611 218.103 118.324 217.793C118.041 217.483 117.606 217.328 117.018 217.328C116.189 217.328 115.605 217.563 115.268 218.032C114.931 218.502 114.762 219.183 114.762 220.076V224H113.627V216.508H114.543L114.714 217.588H114.776C114.935 217.324 115.138 217.103 115.384 216.925C115.63 216.743 115.906 216.606 116.211 216.515C116.517 216.419 116.838 216.371 117.175 216.371ZM124.793 223.207C124.98 223.207 125.171 223.191 125.367 223.159C125.563 223.127 125.723 223.089 125.846 223.043V223.925C125.714 223.984 125.529 224.034 125.292 224.075C125.06 224.116 124.832 224.137 124.609 224.137C124.212 224.137 123.852 224.068 123.529 223.932C123.205 223.79 122.945 223.553 122.749 223.221C122.558 222.888 122.462 222.428 122.462 221.84V217.396H121.396V216.843L122.469 216.398L122.92 214.771H123.604V216.508H125.798V217.396H123.604V221.806C123.604 222.275 123.711 222.626 123.925 222.858C124.144 223.091 124.433 223.207 124.793 223.207ZM134.102 214.006C135.392 214.006 136.333 214.259 136.926 214.765C137.523 215.266 137.821 215.986 137.821 216.925C137.821 217.349 137.751 217.752 137.609 218.135C137.473 218.513 137.249 218.848 136.939 219.14C136.629 219.427 136.222 219.655 135.716 219.823C135.214 219.987 134.599 220.069 133.87 220.069H132.653V224H131.491V214.006H134.102ZM133.993 214.997H132.653V219.071H133.74C134.378 219.071 134.909 219.003 135.333 218.866C135.761 218.729 136.083 218.508 136.297 218.203C136.511 217.893 136.618 217.483 136.618 216.973C136.618 216.307 136.406 215.813 135.982 215.489C135.558 215.161 134.895 214.997 133.993 214.997ZM143.306 216.371C143.457 216.371 143.614 216.38 143.778 216.398C143.942 216.412 144.088 216.433 144.216 216.46L144.072 217.513C143.949 217.481 143.812 217.456 143.662 217.438C143.511 217.419 143.37 217.41 143.238 217.41C142.937 217.41 142.652 217.472 142.384 217.595C142.119 217.713 141.887 217.886 141.686 218.114C141.486 218.338 141.329 218.609 141.215 218.928C141.101 219.242 141.044 219.593 141.044 219.98V224H139.902V216.508H140.845L140.968 217.889H141.016C141.171 217.611 141.358 217.358 141.577 217.13C141.796 216.897 142.049 216.713 142.336 216.576C142.627 216.439 142.951 216.371 143.306 216.371ZM152.251 220.24C152.251 220.855 152.171 221.405 152.011 221.888C151.852 222.371 151.622 222.779 151.321 223.111C151.02 223.444 150.655 223.699 150.227 223.877C149.803 224.05 149.322 224.137 148.785 224.137C148.283 224.137 147.823 224.05 147.404 223.877C146.989 223.699 146.629 223.444 146.324 223.111C146.023 222.779 145.788 222.371 145.62 221.888C145.456 221.405 145.374 220.855 145.374 220.24C145.374 219.42 145.513 218.723 145.791 218.148C146.069 217.57 146.465 217.13 146.98 216.829C147.5 216.524 148.117 216.371 148.833 216.371C149.516 216.371 150.113 216.524 150.624 216.829C151.139 217.134 151.537 217.576 151.82 218.155C152.107 218.729 152.251 219.424 152.251 220.24ZM146.549 220.24C146.549 220.842 146.629 221.364 146.789 221.806C146.948 222.248 147.194 222.59 147.527 222.831C147.86 223.073 148.288 223.193 148.812 223.193C149.332 223.193 149.758 223.073 150.09 222.831C150.428 222.59 150.676 222.248 150.836 221.806C150.995 221.364 151.075 220.842 151.075 220.24C151.075 219.643 150.995 219.128 150.836 218.695C150.676 218.258 150.43 217.921 150.097 217.684C149.765 217.447 149.334 217.328 148.805 217.328C148.026 217.328 147.454 217.586 147.089 218.101C146.729 218.616 146.549 219.329 146.549 220.24ZM153.47 227.363C153.238 227.363 153.035 227.345 152.862 227.309C152.689 227.277 152.538 227.238 152.411 227.192V226.27C152.552 226.315 152.695 226.349 152.841 226.372C152.987 226.399 153.151 226.413 153.333 226.413C153.643 226.413 153.894 226.326 154.085 226.153C154.277 225.98 154.372 225.666 154.372 225.21V216.508H155.507V225.183C155.507 225.638 155.434 226.028 155.288 226.352C155.143 226.68 154.919 226.93 154.619 227.104C154.318 227.277 153.935 227.363 153.47 227.363ZM154.27 214.45C154.27 214.195 154.334 214.008 154.461 213.89C154.593 213.767 154.758 213.705 154.954 213.705C155.14 213.705 155.3 213.767 155.432 213.89C155.569 214.008 155.637 214.195 155.637 214.45C155.637 214.701 155.569 214.888 155.432 215.011C155.3 215.134 155.14 215.195 154.954 215.195C154.758 215.195 154.593 215.134 154.461 215.011C154.334 214.888 154.27 214.701 154.27 214.45ZM160.958 216.371C161.596 216.371 162.143 216.512 162.599 216.795C163.055 217.077 163.403 217.474 163.645 217.984C163.886 218.49 164.007 219.083 164.007 219.762V220.466H158.832C158.846 221.345 159.065 222.015 159.489 222.476C159.912 222.936 160.509 223.166 161.28 223.166C161.753 223.166 162.173 223.123 162.537 223.036C162.902 222.95 163.28 222.822 163.672 222.653V223.651C163.294 223.82 162.918 223.943 162.544 224.021C162.175 224.098 161.738 224.137 161.232 224.137C160.512 224.137 159.883 223.991 159.345 223.699C158.812 223.403 158.397 222.97 158.101 222.4C157.805 221.831 157.656 221.133 157.656 220.309C157.656 219.502 157.791 218.805 158.06 218.217C158.333 217.624 158.716 217.169 159.208 216.85C159.705 216.531 160.288 216.371 160.958 216.371ZM160.945 217.301C160.338 217.301 159.855 217.499 159.495 217.896C159.135 218.292 158.921 218.846 158.853 219.557H162.818C162.813 219.11 162.742 218.718 162.606 218.381C162.474 218.039 162.271 217.775 161.997 217.588C161.724 217.396 161.373 217.301 160.945 217.301ZM169.096 224.137C168.421 224.137 167.827 223.998 167.312 223.72C166.797 223.442 166.396 223.018 166.108 222.448C165.821 221.879 165.678 221.161 165.678 220.295C165.678 219.388 165.828 218.647 166.129 218.073C166.434 217.494 166.854 217.066 167.387 216.788C167.92 216.51 168.526 216.371 169.205 216.371C169.579 216.371 169.939 216.41 170.285 216.487C170.636 216.56 170.923 216.654 171.147 216.768L170.805 217.718C170.577 217.627 170.313 217.545 170.012 217.472C169.716 217.399 169.438 217.362 169.178 217.362C168.658 217.362 168.225 217.474 167.879 217.697C167.537 217.921 167.28 218.249 167.107 218.682C166.938 219.115 166.854 219.648 166.854 220.281C166.854 220.887 166.936 221.405 167.1 221.833C167.268 222.261 167.517 222.59 167.845 222.817C168.177 223.041 168.592 223.152 169.089 223.152C169.485 223.152 169.843 223.111 170.162 223.029C170.481 222.943 170.771 222.842 171.03 222.729V223.74C170.78 223.868 170.499 223.966 170.19 224.034C169.884 224.103 169.52 224.137 169.096 224.137ZM175.388 223.207C175.574 223.207 175.766 223.191 175.962 223.159C176.158 223.127 176.317 223.089 176.44 223.043V223.925C176.308 223.984 176.124 224.034 175.887 224.075C175.654 224.116 175.426 224.137 175.203 224.137C174.807 224.137 174.447 224.068 174.123 223.932C173.799 223.79 173.54 223.553 173.344 223.221C173.152 222.888 173.057 222.428 173.057 221.84V217.396H171.99V216.843L173.063 216.398L173.515 214.771H174.198V216.508H176.393V217.396H174.198V221.806C174.198 222.275 174.305 222.626 174.519 222.858C174.738 223.091 175.028 223.207 175.388 223.207Z" fill="white"/>
<path d="M62.5 239.5H291.5V384C291.5 386.485 289.485 388.5 287 388.5H67C64.5147 388.5 62.5 386.485 62.5 384V239.5Z" fill="white"/>
<path d="M72.5 254C72.5 251.515 74.5147 249.5 77 249.5H131.5V308.5H77C74.5147 308.5 72.5 306.485 72.5 304V254Z" fill="#00378F" stroke="#00378F"/>
<path d="M131.5 249.5H238C240.485 249.5 242.5 251.515 242.5 254V304C242.5 306.485 240.485 308.5 238 308.5H131.5V249.5Z" fill="white"/>
<path d="M159.437 284H158.268V275.031H155.123V274.006H162.567V275.031H159.437V284ZM166.952 276.371C167.59 276.371 168.137 276.512 168.593 276.795C169.048 277.077 169.397 277.474 169.639 277.984C169.88 278.49 170.001 279.083 170.001 279.762V280.466H164.826C164.84 281.345 165.058 282.015 165.482 282.476C165.906 282.936 166.503 283.166 167.273 283.166C167.747 283.166 168.167 283.123 168.531 283.036C168.896 282.95 169.274 282.822 169.666 282.653V283.651C169.288 283.82 168.912 283.943 168.538 284.021C168.169 284.098 167.731 284.137 167.225 284.137C166.505 284.137 165.876 283.991 165.339 283.699C164.806 283.403 164.391 282.97 164.095 282.4C163.798 281.831 163.65 281.133 163.65 280.309C163.65 279.502 163.785 278.805 164.054 278.217C164.327 277.624 164.71 277.169 165.202 276.85C165.699 276.531 166.282 276.371 166.952 276.371ZM166.938 277.301C166.332 277.301 165.849 277.499 165.489 277.896C165.129 278.292 164.915 278.846 164.847 279.557H168.811C168.807 279.11 168.736 278.718 168.599 278.381C168.467 278.039 168.264 277.775 167.991 277.588C167.718 277.396 167.367 277.301 166.938 277.301ZM176.935 281.949C176.935 282.428 176.814 282.831 176.573 283.159C176.336 283.483 175.994 283.727 175.548 283.891C175.105 284.055 174.577 284.137 173.962 284.137C173.438 284.137 172.984 284.096 172.601 284.014C172.218 283.932 171.883 283.815 171.596 283.665V282.619C171.902 282.77 172.266 282.906 172.69 283.029C173.114 283.152 173.547 283.214 173.989 283.214C174.636 283.214 175.105 283.109 175.397 282.899C175.689 282.69 175.835 282.405 175.835 282.045C175.835 281.84 175.775 281.66 175.657 281.505C175.543 281.345 175.349 281.193 175.076 281.047C174.802 280.896 174.424 280.732 173.941 280.555C173.463 280.372 173.048 280.192 172.697 280.015C172.351 279.832 172.082 279.611 171.89 279.352C171.703 279.092 171.61 278.755 171.61 278.34C171.61 277.706 171.865 277.221 172.376 276.884C172.891 276.542 173.565 276.371 174.399 276.371C174.85 276.371 175.272 276.417 175.664 276.508C176.06 276.594 176.429 276.713 176.771 276.863L176.388 277.772C176.078 277.64 175.748 277.529 175.397 277.438C175.046 277.346 174.688 277.301 174.324 277.301C173.8 277.301 173.396 277.387 173.114 277.561C172.836 277.734 172.697 277.971 172.697 278.271C172.697 278.504 172.761 278.695 172.888 278.846C173.021 278.996 173.23 279.137 173.517 279.27C173.804 279.402 174.183 279.557 174.652 279.734C175.121 279.908 175.527 280.088 175.869 280.274C176.211 280.457 176.473 280.68 176.655 280.944C176.842 281.204 176.935 281.539 176.935 281.949ZM181.34 283.207C181.527 283.207 181.719 283.191 181.915 283.159C182.111 283.127 182.27 283.089 182.393 283.043V283.925C182.261 283.984 182.076 284.034 181.839 284.075C181.607 284.116 181.379 284.137 181.156 284.137C180.759 284.137 180.399 284.068 180.076 283.932C179.752 283.79 179.492 283.553 179.296 283.221C179.105 282.888 179.009 282.428 179.009 281.84V277.396H177.943V276.843L179.016 276.398L179.467 274.771H180.151V276.508H182.345V277.396H180.151V281.806C180.151 282.275 180.258 282.626 180.472 282.858C180.691 283.091 180.98 283.207 181.34 283.207ZM190.868 284.137C190.194 284.137 189.599 283.998 189.084 283.72C188.569 283.442 188.168 283.018 187.881 282.448C187.594 281.879 187.45 281.161 187.45 280.295C187.45 279.388 187.601 278.647 187.902 278.073C188.207 277.494 188.626 277.066 189.159 276.788C189.693 276.51 190.299 276.371 190.978 276.371C191.351 276.371 191.711 276.41 192.058 276.487C192.409 276.56 192.696 276.654 192.919 276.768L192.577 277.718C192.349 277.627 192.085 277.545 191.784 277.472C191.488 277.399 191.21 277.362 190.95 277.362C190.431 277.362 189.998 277.474 189.652 277.697C189.31 277.921 189.052 278.249 188.879 278.682C188.71 279.115 188.626 279.648 188.626 280.281C188.626 280.887 188.708 281.405 188.872 281.833C189.041 282.261 189.289 282.59 189.617 282.817C189.95 283.041 190.365 283.152 190.862 283.152C191.258 283.152 191.616 283.111 191.935 283.029C192.254 282.943 192.543 282.842 192.803 282.729V283.74C192.552 283.868 192.272 283.966 191.962 284.034C191.657 284.103 191.292 284.137 190.868 284.137ZM201.2 280.24C201.2 280.855 201.12 281.405 200.961 281.888C200.801 282.371 200.571 282.779 200.271 283.111C199.97 283.444 199.605 283.699 199.177 283.877C198.753 284.05 198.272 284.137 197.734 284.137C197.233 284.137 196.773 284.05 196.354 283.877C195.939 283.699 195.579 283.444 195.273 283.111C194.973 282.779 194.738 282.371 194.569 281.888C194.405 281.405 194.323 280.855 194.323 280.24C194.323 279.42 194.462 278.723 194.74 278.148C195.018 277.57 195.415 277.13 195.93 276.829C196.449 276.524 197.067 276.371 197.782 276.371C198.466 276.371 199.063 276.524 199.573 276.829C200.088 277.134 200.487 277.576 200.77 278.155C201.057 278.729 201.2 279.424 201.2 280.24ZM195.499 280.24C195.499 280.842 195.579 281.364 195.738 281.806C195.898 282.248 196.144 282.59 196.477 282.831C196.809 283.073 197.238 283.193 197.762 283.193C198.281 283.193 198.707 283.073 199.04 282.831C199.377 282.59 199.626 282.248 199.785 281.806C199.945 281.364 200.024 280.842 200.024 280.24C200.024 279.643 199.945 279.128 199.785 278.695C199.626 278.258 199.38 277.921 199.047 277.684C198.714 277.447 198.284 277.328 197.755 277.328C196.976 277.328 196.404 277.586 196.039 278.101C195.679 278.616 195.499 279.329 195.499 280.24ZM205.988 284.137C205.04 284.137 204.288 283.813 203.732 283.166C203.181 282.519 202.905 281.557 202.905 280.281C202.905 278.992 203.188 278.019 203.753 277.362C204.318 276.701 205.07 276.371 206.009 276.371C206.405 276.371 206.752 276.424 207.048 276.528C207.344 276.633 207.599 276.774 207.813 276.952C208.028 277.125 208.208 277.324 208.353 277.547H208.435C208.417 277.406 208.399 277.212 208.381 276.966C208.363 276.72 208.353 276.519 208.353 276.364V273.363H209.488V284H208.572L208.401 282.934H208.353C208.212 283.157 208.032 283.36 207.813 283.542C207.599 283.724 207.342 283.87 207.041 283.979C206.745 284.084 206.394 284.137 205.988 284.137ZM206.166 283.193C206.968 283.193 207.535 282.965 207.868 282.51C208.201 282.054 208.367 281.377 208.367 280.479V280.274C208.367 279.322 208.208 278.59 207.889 278.08C207.574 277.57 207 277.314 206.166 277.314C205.469 277.314 204.947 277.583 204.6 278.121C204.254 278.654 204.081 279.383 204.081 280.309C204.081 281.229 204.252 281.94 204.594 282.441C204.94 282.943 205.464 283.193 206.166 283.193ZM214.939 276.371C215.577 276.371 216.124 276.512 216.58 276.795C217.036 277.077 217.384 277.474 217.626 277.984C217.867 278.49 217.988 279.083 217.988 279.762V280.466H212.813C212.827 281.345 213.046 282.015 213.469 282.476C213.893 282.936 214.49 283.166 215.26 283.166C215.734 283.166 216.154 283.123 216.518 283.036C216.883 282.95 217.261 282.822 217.653 282.653V283.651C217.275 283.82 216.899 283.943 216.525 284.021C216.156 284.098 215.718 284.137 215.213 284.137C214.493 284.137 213.864 283.991 213.326 283.699C212.793 283.403 212.378 282.97 212.082 282.4C211.786 281.831 211.637 281.133 211.637 280.309C211.637 279.502 211.772 278.805 212.041 278.217C212.314 277.624 212.697 277.169 213.189 276.85C213.686 276.531 214.269 276.371 214.939 276.371ZM214.926 277.301C214.319 277.301 213.836 277.499 213.476 277.896C213.116 278.292 212.902 278.846 212.834 279.557H216.799C216.794 279.11 216.723 278.718 216.587 278.381C216.454 278.039 216.252 277.775 215.978 277.588C215.705 277.396 215.354 277.301 214.926 277.301Z" fill="black"/>
<path d="M131.5 249.5H238C240.485 249.5 242.5 251.515 242.5 254V304C242.5 306.485 240.485 308.5 238 308.5H131.5V249.5Z" stroke="#00378F"/>
<path d="M110.756 287.482H93.2437C92.5581 287.482 92 286.924 92 286.238V275.074C92 274.971 92.0407 274.874 92.1127 274.802C92.1847 274.73 92.2825 274.689 92.3843 274.689H111.614C111.826 274.689 111.998 274.861 111.998 275.074V286.238C111.998 286.924 111.44 287.482 110.755 287.482H110.756ZM92.7694 275.458V286.238C92.7694 286.5 92.9823 286.712 93.2437 286.712H110.756C111.017 286.712 111.23 286.5 111.23 286.238V275.459H92.7686L92.7694 275.458Z" fill="white"/>
<path d="M111.615 275.459H92.3853C92.1732 275.459 92.001 275.287 92.001 275.074V272.244C92.001 271.558 92.559 271 93.2447 271H110.757C111.442 271 112 271.558 112 272.244V275.075C112 275.177 111.959 275.274 111.887 275.347C111.815 275.419 111.718 275.46 111.616 275.46L111.615 275.459ZM92.7696 274.69H111.231V272.244C111.231 271.982 111.018 271.769 110.757 271.769H93.2447C92.9832 271.769 92.7703 271.982 92.7703 272.244V274.69H92.7696Z" fill="white"/>
<path d="M97.7841 273.229C97.7841 273.56 98.0525 273.828 98.3828 273.828C98.7131 273.828 98.9816 273.559 98.9816 273.229C98.9816 272.899 98.7131 272.63 98.3828 272.63C98.0525 272.63 97.7841 272.899 97.7841 273.229Z" fill="white"/>
<path d="M95.9542 273.229C95.9542 273.56 96.2226 273.828 96.5529 273.828C96.8832 273.828 97.1517 273.559 97.1517 273.229C97.1517 272.899 96.8832 272.63 96.5529 272.63C96.2226 272.63 95.9542 272.899 95.9542 273.229Z" fill="white"/>
<path d="M94.125 273.229C94.125 273.56 94.3935 273.828 94.7238 273.828C95.054 273.828 95.3225 273.559 95.3225 273.229C95.3225 272.899 95.054 272.63 94.7238 272.63C94.3935 272.63 94.125 272.899 94.125 273.229Z" fill="white"/>
<path d="M100.941 285.109C100.905 285.109 100.869 285.104 100.833 285.093C100.629 285.034 100.512 284.821 100.572 284.616L102.69 277.339C102.749 277.135 102.963 277.017 103.167 277.077C103.371 277.136 103.487 277.349 103.428 277.553L101.31 284.831C101.261 284.999 101.107 285.108 100.941 285.108V285.109Z" fill="white"/>
<path d="M104.414 284.072C104.31 284.072 104.207 284.03 104.131 283.947C103.987 283.791 103.997 283.547 104.154 283.404L106.674 281.086L104.154 278.768C103.997 278.624 103.987 278.381 104.131 278.224C104.274 278.068 104.517 278.057 104.674 278.201L107.503 280.802C107.582 280.875 107.627 280.978 107.627 281.086C107.627 281.193 107.582 281.296 107.503 281.369L104.674 283.971C104.6 284.039 104.507 284.072 104.414 284.072V284.072Z" fill="white"/>
<path d="M99.5849 284.072C99.4918 284.072 99.3987 284.038 99.3251 283.97L96.4965 281.368C96.4174 281.295 96.3728 281.193 96.3728 281.085C96.3728 280.977 96.4174 280.874 96.4965 280.802L99.3251 278.201C99.4816 278.056 99.725 278.067 99.8683 278.223C100.012 278.38 100.002 278.623 99.8456 278.767L97.3253 281.085L99.8456 283.403C100.002 283.547 100.012 283.791 99.8683 283.946C99.7924 284.029 99.689 284.071 99.5849 284.071V284.072Z" fill="white"/>
<path d="M72.5 324C72.5 321.515 74.5147 319.5 77 319.5H131.5V378.5H77C74.5147 378.5 72.5 376.485 72.5 374V324Z" fill="#00378F" stroke="#00378F"/>
<path d="M131.5 319.5H203C205.485 319.5 207.5 321.515 207.5 324V374C207.5 376.485 205.485 378.5 203 378.5H131.5V319.5Z" fill="white"/>
<path d="M165.035 348.989C165.035 349.759 164.937 350.461 164.741 351.095C164.545 351.724 164.254 352.266 163.866 352.722C163.483 353.173 163.007 353.521 162.438 353.768C161.868 354.014 161.207 354.137 160.455 354.137C159.68 354.137 159.004 354.014 158.425 353.768C157.851 353.521 157.372 353.171 156.989 352.715C156.611 352.259 156.326 351.715 156.135 351.081C155.948 350.448 155.854 349.746 155.854 348.976C155.854 347.955 156.023 347.059 156.36 346.289C156.698 345.519 157.208 344.92 157.892 344.491C158.58 344.063 159.441 343.849 160.476 343.849C161.465 343.849 162.296 344.061 162.971 344.484C163.65 344.908 164.162 345.505 164.509 346.275C164.86 347.041 165.035 347.946 165.035 348.989ZM157.078 348.989C157.078 349.837 157.199 350.571 157.44 351.19C157.682 351.81 158.051 352.289 158.548 352.626C159.049 352.963 159.685 353.132 160.455 353.132C161.23 353.132 161.863 352.963 162.355 352.626C162.852 352.289 163.219 351.81 163.456 351.19C163.693 350.571 163.812 349.837 163.812 348.989C163.812 347.7 163.54 346.692 162.998 345.968C162.46 345.239 161.619 344.874 160.476 344.874C159.701 344.874 159.063 345.04 158.562 345.373C158.06 345.706 157.687 346.18 157.44 346.795C157.199 347.406 157.078 348.137 157.078 348.989ZM167.424 344.006H170.254C171.502 344.006 172.441 344.193 173.07 344.566C173.699 344.94 174.014 345.576 174.014 346.474C174.014 346.861 173.938 347.21 173.788 347.52C173.642 347.825 173.428 348.078 173.145 348.278C172.863 348.479 172.514 348.618 172.099 348.695V348.764C172.537 348.832 172.924 348.957 173.262 349.14C173.599 349.322 173.863 349.577 174.055 349.905C174.246 350.233 174.342 350.65 174.342 351.156C174.342 351.771 174.198 352.291 173.911 352.715C173.628 353.139 173.227 353.46 172.708 353.679C172.188 353.893 171.573 354 170.862 354H167.424V344.006ZM168.586 348.292H170.5C171.37 348.292 171.972 348.148 172.305 347.861C172.642 347.574 172.81 347.155 172.81 346.604C172.81 346.034 172.61 345.624 172.209 345.373C171.812 345.122 171.179 344.997 170.308 344.997H168.586V348.292ZM168.586 349.27V353.009H170.664C171.553 353.009 172.181 352.836 172.551 352.489C172.92 352.138 173.104 351.667 173.104 351.074C173.104 350.696 173.02 350.372 172.851 350.104C172.687 349.835 172.418 349.63 172.045 349.488C171.676 349.342 171.181 349.27 170.561 349.27H168.586ZM179.335 344.006C180.155 344.006 180.832 344.108 181.365 344.313C181.903 344.514 182.304 344.822 182.568 345.236C182.832 345.651 182.965 346.18 182.965 346.822C182.965 347.351 182.869 347.793 182.677 348.148C182.486 348.499 182.235 348.784 181.925 349.003C181.616 349.222 181.285 349.39 180.934 349.509L183.675 354H182.322L179.875 349.83H177.797V354H176.634V344.006H179.335ZM179.266 345.011H177.797V348.846H179.382C180.198 348.846 180.798 348.679 181.18 348.347C181.568 348.014 181.761 347.524 181.761 346.877C181.761 346.198 181.556 345.717 181.146 345.435C180.741 345.152 180.114 345.011 179.266 345.011Z" fill="black"/>
<path d="M131.5 319.5H203C205.485 319.5 207.5 321.515 207.5 324V374C207.5 376.485 205.485 378.5 203 378.5H131.5V319.5Z" stroke="#00378F"/>
<g clip-path="url(#clip0_161_688)">
<g filter="url(#filter0_d_161_688)">
<path d="M110.756 357.482H93.2437C92.5581 357.482 92 356.924 92 356.238V345.074C92 344.971 92.0407 344.874 92.1127 344.802C92.1847 344.73 92.2825 344.689 92.3843 344.689H111.614C111.826 344.689 111.998 344.861 111.998 345.074V356.238C111.998 356.924 111.44 357.482 110.755 357.482H110.756ZM92.7694 345.458V356.238C92.7694 356.5 92.9823 356.712 93.2437 356.712H110.756C111.017 356.712 111.23 356.5 111.23 356.238V345.459H92.7686L92.7694 345.458Z" fill="white"/>
<path d="M111.615 345.459H92.3853C92.1732 345.459 92.001 345.287 92.001 345.074V342.244C92.001 341.558 92.559 341 93.2447 341H110.757C111.442 341 112 341.558 112 342.244V345.075C112 345.177 111.959 345.274 111.887 345.347C111.815 345.419 111.718 345.46 111.616 345.46L111.615 345.459ZM92.7696 344.69H111.231V342.244C111.231 341.982 111.018 341.769 110.757 341.769H93.2447C92.9832 341.769 92.7703 341.982 92.7703 342.244V344.69H92.7696Z" fill="white"/>
<path d="M97.7841 343.229C97.7841 343.56 98.0525 343.828 98.3828 343.828C98.7131 343.828 98.9816 343.559 98.9816 343.229C98.9816 342.899 98.7131 342.63 98.3828 342.63C98.0525 342.63 97.7841 342.899 97.7841 343.229Z" fill="white"/>
<path d="M95.9542 343.229C95.9542 343.56 96.2226 343.828 96.5529 343.828C96.8832 343.828 97.1517 343.559 97.1517 343.229C97.1517 342.899 96.8832 342.63 96.5529 342.63C96.2226 342.63 95.9542 342.899 95.9542 343.229Z" fill="white"/>
<path d="M94.125 343.229C94.125 343.56 94.3935 343.828 94.7238 343.828C95.054 343.828 95.3225 343.559 95.3225 343.229C95.3225 342.899 95.054 342.63 94.7238 342.63C94.3935 342.63 94.125 342.899 94.125 343.229Z" fill="white"/>
<path d="M100.941 355.109C100.905 355.109 100.869 355.104 100.833 355.093C100.629 355.034 100.512 354.821 100.572 354.616L102.69 347.339C102.749 347.135 102.963 347.017 103.167 347.077C103.371 347.136 103.487 347.349 103.428 347.553L101.31 354.831C101.261 354.999 101.107 355.108 100.941 355.108V355.109Z" fill="white"/>
<path d="M104.414 354.072C104.31 354.072 104.207 354.03 104.131 353.947C103.987 353.791 103.997 353.547 104.154 353.404L106.674 351.086L104.154 348.768C103.997 348.624 103.987 348.381 104.131 348.224C104.274 348.068 104.517 348.057 104.674 348.201L107.503 350.802C107.582 350.875 107.627 350.978 107.627 351.086C107.627 351.193 107.582 351.296 107.503 351.369L104.674 353.971C104.6 354.039 104.507 354.072 104.414 354.072V354.072Z" fill="white"/>
<path d="M99.5849 354.072C99.4918 354.072 99.3987 354.038 99.3251 353.97L96.4965 351.368C96.4174 351.295 96.3728 351.193 96.3728 351.085C96.3728 350.977 96.4174 350.874 96.4965 350.802L99.3251 348.201C99.4816 348.056 99.725 348.067 99.8683 348.223C100.012 348.38 100.002 348.623 99.8456 348.767L97.3253 351.085L99.8456 353.403C100.002 353.547 100.012 353.791 99.8683 353.946C99.7924 354.029 99.689 354.071 99.5849 354.071V354.072Z" fill="white"/>
</g>
</g>
<path d="M62.5 239.5H291.5V384C291.5 386.485 289.485 388.5 287 388.5H67C64.5147 388.5 62.5 386.485 62.5 384V239.5Z" stroke="#00378F"/>
<path d="M481 204C481 201.239 483.239 199 486 199H706C708.761 199 711 201.239 711 204V239H481V204Z" fill="#6ECEB2"/>
<path d="M500.925 226.632C500.697 226.632 500.496 226.616 500.323 226.584C500.15 226.552 500.002 226.509 499.879 226.454V225.463C500.025 225.508 500.182 225.543 500.351 225.565C500.519 225.593 500.701 225.606 500.897 225.606C501.153 225.606 501.387 225.556 501.602 225.456C501.816 225.356 501.987 225.185 502.114 224.943C502.242 224.702 502.306 224.369 502.306 223.945V214.006H503.475V223.856C503.475 224.481 503.37 224.998 503.16 225.408C502.955 225.818 502.661 226.124 502.278 226.324C501.9 226.529 501.449 226.632 500.925 226.632ZM513.266 214.006L509.678 224H508.509L504.92 214.006H506.137L508.474 220.589C508.57 220.853 508.654 221.106 508.727 221.348C508.805 221.589 508.873 221.822 508.932 222.045C508.992 222.268 509.044 222.485 509.09 222.694C509.135 222.485 509.188 222.268 509.247 222.045C509.306 221.817 509.375 221.582 509.452 221.341C509.529 221.095 509.616 220.837 509.712 220.568L512.036 214.006H513.266ZM519.196 224L515.84 215.154H515.785C515.803 215.341 515.819 215.569 515.833 215.838C515.846 216.107 515.858 216.401 515.867 216.72C515.876 217.034 515.881 217.355 515.881 217.684V224H514.8V214.006H516.523L519.688 222.318H519.736L522.949 214.006H524.658V224H523.509V217.602C523.509 217.305 523.514 217.009 523.523 216.713C523.532 216.412 523.544 216.13 523.557 215.865C523.571 215.596 523.585 215.364 523.598 215.168H523.544L520.146 224H519.196Z" fill="white"/>
<path d="M481.5 239.5H710.5V314C710.5 316.485 708.485 318.5 706 318.5H486C483.515 318.5 481.5 316.485 481.5 314V239.5Z" fill="white"/>
<path d="M481.5 239.5H710.5V314C710.5 316.485 708.485 318.5 706 318.5H486C483.515 318.5 481.5 316.485 481.5 314V239.5Z" stroke="#6ECEB2"/>
<path d="M359 360L354 357.113L354 362.887L359 360ZM292 360.5L354.5 360.5L354.5 359.5L292 359.5L292 360.5Z" fill="black"/>
<path d="M317.64 326.888C317.088 326.888 316.591 326.983 316.149 327.175C315.712 327.362 315.338 327.635 315.028 327.995C314.723 328.351 314.488 328.781 314.324 329.287C314.16 329.793 314.078 330.363 314.078 330.996C314.078 331.835 314.208 332.564 314.468 333.184C314.732 333.799 315.124 334.275 315.644 334.612C316.168 334.95 316.822 335.118 317.605 335.118C318.052 335.118 318.471 335.082 318.863 335.009C319.26 334.931 319.645 334.836 320.019 334.722V335.733C319.654 335.87 319.271 335.97 318.87 336.034C318.469 336.103 317.993 336.137 317.441 336.137C316.425 336.137 315.575 335.927 314.892 335.508C314.213 335.084 313.702 334.487 313.36 333.717C313.023 332.947 312.854 332.037 312.854 330.989C312.854 330.233 312.959 329.542 313.169 328.918C313.383 328.289 313.693 327.747 314.099 327.291C314.509 326.835 315.01 326.484 315.603 326.238C316.2 325.988 316.883 325.862 317.653 325.862C318.159 325.862 318.647 325.912 319.116 326.013C319.586 326.113 320.009 326.257 320.388 326.443L319.923 327.428C319.604 327.282 319.253 327.157 318.87 327.052C318.492 326.942 318.082 326.888 317.64 326.888ZM328.635 332.24C328.635 332.855 328.555 333.405 328.395 333.888C328.236 334.371 328.006 334.779 327.705 335.111C327.404 335.444 327.04 335.699 326.611 335.877C326.187 336.05 325.707 336.137 325.169 336.137C324.667 336.137 324.207 336.05 323.788 335.877C323.373 335.699 323.013 335.444 322.708 335.111C322.407 334.779 322.172 334.371 322.004 333.888C321.84 333.405 321.758 332.855 321.758 332.24C321.758 331.42 321.897 330.723 322.175 330.148C322.453 329.57 322.849 329.13 323.364 328.829C323.884 328.524 324.501 328.371 325.217 328.371C325.9 328.371 326.497 328.524 327.008 328.829C327.523 329.134 327.921 329.576 328.204 330.155C328.491 330.729 328.635 331.424 328.635 332.24ZM322.933 332.24C322.933 332.842 323.013 333.364 323.173 333.806C323.332 334.248 323.578 334.59 323.911 334.831C324.244 335.073 324.672 335.193 325.196 335.193C325.716 335.193 326.142 335.073 326.474 334.831C326.812 334.59 327.06 334.248 327.22 333.806C327.379 333.364 327.459 332.842 327.459 332.24C327.459 331.643 327.379 331.128 327.22 330.695C327.06 330.258 326.814 329.921 326.481 329.684C326.149 329.447 325.718 329.328 325.189 329.328C324.41 329.328 323.838 329.586 323.473 330.101C323.113 330.616 322.933 331.329 322.933 332.24ZM338.891 328.371C339.716 328.371 340.338 328.588 340.757 329.021C341.177 329.449 341.386 330.139 341.386 331.092V336H340.265V331.146C340.265 330.54 340.133 330.087 339.869 329.786C339.609 329.481 339.222 329.328 338.707 329.328C337.982 329.328 337.456 329.538 337.128 329.957C336.799 330.376 336.635 330.994 336.635 331.81V336H335.507V331.146C335.507 330.741 335.448 330.404 335.33 330.135C335.216 329.866 335.043 329.665 334.81 329.533C334.582 329.396 334.293 329.328 333.942 329.328C333.445 329.328 333.047 329.431 332.746 329.636C332.445 329.841 332.226 330.146 332.09 330.552C331.957 330.953 331.891 331.447 331.891 332.035V336H330.757V328.508H331.673L331.843 329.567H331.905C332.055 329.308 332.244 329.089 332.472 328.911C332.7 328.733 332.955 328.599 333.238 328.508C333.521 328.417 333.821 328.371 334.14 328.371C334.71 328.371 335.186 328.478 335.569 328.692C335.956 328.902 336.237 329.223 336.41 329.656H336.471C336.717 329.223 337.055 328.902 337.483 328.692C337.911 328.478 338.381 328.371 338.891 328.371ZM347.398 328.371C348.332 328.371 349.077 328.692 349.633 329.335C350.189 329.978 350.467 330.944 350.467 332.233C350.467 333.086 350.34 333.801 350.084 334.38C349.829 334.959 349.469 335.396 349.004 335.692C348.544 335.989 348 336.137 347.371 336.137C346.974 336.137 346.626 336.084 346.325 335.979C346.024 335.875 345.766 335.733 345.552 335.556C345.338 335.378 345.16 335.184 345.019 334.975H344.937C344.951 335.152 344.967 335.367 344.985 335.617C345.008 335.868 345.019 336.087 345.019 336.273V339.35H343.877V328.508H344.814L344.964 329.615H345.019C345.165 329.387 345.343 329.18 345.552 328.993C345.762 328.802 346.017 328.651 346.318 328.542C346.623 328.428 346.983 328.371 347.398 328.371ZM347.2 329.328C346.68 329.328 346.261 329.428 345.942 329.629C345.627 329.829 345.397 330.13 345.251 330.531C345.106 330.928 345.028 331.427 345.019 332.028V332.247C345.019 332.881 345.087 333.416 345.224 333.854C345.365 334.291 345.596 334.624 345.915 334.852C346.238 335.079 346.671 335.193 347.213 335.193C347.678 335.193 348.066 335.068 348.376 334.817C348.685 334.567 348.916 334.218 349.066 333.771C349.221 333.32 349.298 332.803 349.298 332.22C349.298 331.336 349.125 330.634 348.779 330.114C348.437 329.59 347.911 329.328 347.2 329.328ZM353.744 328.508V336H352.61V328.508H353.744ZM353.191 325.705C353.378 325.705 353.537 325.767 353.669 325.89C353.806 326.008 353.874 326.195 353.874 326.45C353.874 326.701 353.806 326.888 353.669 327.011C353.537 327.134 353.378 327.195 353.191 327.195C352.995 327.195 352.831 327.134 352.699 327.011C352.571 326.888 352.507 326.701 352.507 326.45C352.507 326.195 352.571 326.008 352.699 325.89C352.831 325.767 352.995 325.705 353.191 325.705ZM357.452 336H356.311V325.363H357.452V336ZM362.897 328.371C363.535 328.371 364.081 328.512 364.537 328.795C364.993 329.077 365.342 329.474 365.583 329.984C365.825 330.49 365.945 331.083 365.945 331.762V332.466H360.771C360.784 333.345 361.003 334.015 361.427 334.476C361.851 334.936 362.448 335.166 363.218 335.166C363.692 335.166 364.111 335.123 364.476 335.036C364.84 334.95 365.218 334.822 365.61 334.653V335.651C365.232 335.82 364.856 335.943 364.482 336.021C364.113 336.098 363.676 336.137 363.17 336.137C362.45 336.137 361.821 335.991 361.283 335.699C360.75 335.403 360.335 334.97 360.039 334.4C359.743 333.831 359.595 333.133 359.595 332.309C359.595 331.502 359.729 330.805 359.998 330.217C360.272 329.624 360.654 329.169 361.147 328.85C361.643 328.531 362.227 328.371 362.897 328.371ZM362.883 329.301C362.277 329.301 361.794 329.499 361.434 329.896C361.074 330.292 360.859 330.846 360.791 331.557H364.756C364.751 331.11 364.681 330.718 364.544 330.381C364.412 330.039 364.209 329.775 363.936 329.588C363.662 329.396 363.311 329.301 362.883 329.301Z" fill="black"/>
<path d="M359 290L354 287.113V292.887L359 290ZM292 290.5H354.5V289.5H292V290.5Z" fill="black"/>
<path d="M540 110L535 107.113L535 112.887L540 110ZM470 110.5L535.5 110.5L535.5 109.5L470 109.5L470 110.5Z" fill="black"/>
<rect x="359.5" y="280.5" width="72" height="19" rx="4.5" fill="white"/>
<path d="M391.035 289.989C391.035 290.759 390.937 291.461 390.741 292.095C390.545 292.724 390.254 293.266 389.866 293.722C389.483 294.173 389.007 294.521 388.438 294.768C387.868 295.014 387.207 295.137 386.455 295.137C385.68 295.137 385.004 295.014 384.425 294.768C383.851 294.521 383.372 294.171 382.989 293.715C382.611 293.259 382.326 292.715 382.135 292.081C381.948 291.448 381.854 290.746 381.854 289.976C381.854 288.955 382.023 288.059 382.36 287.289C382.698 286.519 383.208 285.92 383.892 285.491C384.58 285.063 385.441 284.849 386.476 284.849C387.465 284.849 388.296 285.061 388.971 285.484C389.65 285.908 390.162 286.505 390.509 287.275C390.86 288.041 391.035 288.946 391.035 289.989ZM383.078 289.989C383.078 290.837 383.199 291.571 383.44 292.19C383.682 292.81 384.051 293.289 384.548 293.626C385.049 293.963 385.685 294.132 386.455 294.132C387.23 294.132 387.863 293.963 388.355 293.626C388.852 293.289 389.219 292.81 389.456 292.19C389.693 291.571 389.812 290.837 389.812 289.989C389.812 288.7 389.54 287.692 388.998 286.968C388.46 286.239 387.619 285.874 386.476 285.874C385.701 285.874 385.063 286.04 384.562 286.373C384.06 286.706 383.687 287.18 383.44 287.795C383.199 288.406 383.078 289.137 383.078 289.989ZM393.424 285.006H396.254C397.502 285.006 398.441 285.193 399.07 285.566C399.699 285.94 400.014 286.576 400.014 287.474C400.014 287.861 399.938 288.21 399.788 288.52C399.642 288.825 399.428 289.078 399.145 289.278C398.863 289.479 398.514 289.618 398.099 289.695V289.764C398.537 289.832 398.924 289.957 399.262 290.14C399.599 290.322 399.863 290.577 400.055 290.905C400.246 291.233 400.342 291.65 400.342 292.156C400.342 292.771 400.198 293.291 399.911 293.715C399.628 294.139 399.227 294.46 398.708 294.679C398.188 294.893 397.573 295 396.862 295H393.424V285.006ZM394.586 289.292H396.5C397.37 289.292 397.972 289.148 398.305 288.861C398.642 288.574 398.81 288.155 398.81 287.604C398.81 287.034 398.61 286.624 398.209 286.373C397.812 286.122 397.179 285.997 396.308 285.997H394.586V289.292ZM394.586 290.27V294.009H396.664C397.553 294.009 398.181 293.836 398.551 293.489C398.92 293.138 399.104 292.667 399.104 292.074C399.104 291.696 399.02 291.372 398.851 291.104C398.687 290.835 398.418 290.63 398.045 290.488C397.676 290.342 397.181 290.27 396.561 290.27H394.586ZM405.335 285.006C406.155 285.006 406.832 285.108 407.365 285.313C407.903 285.514 408.304 285.822 408.568 286.236C408.832 286.651 408.965 287.18 408.965 287.822C408.965 288.351 408.869 288.793 408.677 289.148C408.486 289.499 408.235 289.784 407.925 290.003C407.616 290.222 407.285 290.39 406.934 290.509L409.675 295H408.322L405.875 290.83H403.797V295H402.634V285.006H405.335ZM405.266 286.011H403.797V289.846H405.382C406.198 289.846 406.798 289.679 407.18 289.347C407.568 289.014 407.761 288.524 407.761 287.877C407.761 287.198 407.556 286.717 407.146 286.435C406.741 286.152 406.114 286.011 405.266 286.011Z" fill="#DA6F5A"/>
<rect x="359.5" y="280.5" width="72" height="19" rx="4.5" stroke="#DA6F5A"/>
<rect x="540.5" y="101.5" width="96" height="19" rx="4.5" fill="white"/>
<path d="M563.367 106.006H566.197C567.446 106.006 568.385 106.193 569.014 106.566C569.643 106.94 569.957 107.576 569.957 108.474C569.957 108.861 569.882 109.21 569.731 109.52C569.586 109.825 569.371 110.078 569.089 110.278C568.806 110.479 568.458 110.618 568.043 110.695V110.764C568.48 110.832 568.868 110.957 569.205 111.14C569.542 111.322 569.807 111.577 569.998 111.905C570.189 112.233 570.285 112.65 570.285 113.156C570.285 113.771 570.142 114.291 569.854 114.715C569.572 115.139 569.171 115.46 568.651 115.679C568.132 115.893 567.517 116 566.806 116H563.367V106.006ZM564.529 110.292H566.443C567.314 110.292 567.915 110.148 568.248 109.861C568.585 109.574 568.754 109.155 568.754 108.604C568.754 108.034 568.553 107.624 568.152 107.373C567.756 107.122 567.122 106.997 566.252 106.997H564.529V110.292ZM564.529 111.27V115.009H566.607C567.496 115.009 568.125 114.836 568.494 114.489C568.863 114.138 569.048 113.667 569.048 113.074C569.048 112.696 568.964 112.372 568.795 112.104C568.631 111.835 568.362 111.63 567.988 111.488C567.619 111.342 567.125 111.27 566.505 111.27H564.529ZM578.867 112.24C578.867 112.855 578.787 113.405 578.628 113.888C578.468 114.371 578.238 114.779 577.937 115.111C577.637 115.444 577.272 115.699 576.844 115.877C576.42 116.05 575.939 116.137 575.401 116.137C574.9 116.137 574.44 116.05 574.02 115.877C573.606 115.699 573.246 115.444 572.94 115.111C572.639 114.779 572.405 114.371 572.236 113.888C572.072 113.405 571.99 112.855 571.99 112.24C571.99 111.42 572.129 110.723 572.407 110.148C572.685 109.57 573.082 109.13 573.597 108.829C574.116 108.524 574.734 108.371 575.449 108.371C576.133 108.371 576.73 108.524 577.24 108.829C577.755 109.134 578.154 109.576 578.436 110.155C578.723 110.729 578.867 111.424 578.867 112.24ZM573.166 112.24C573.166 112.842 573.246 113.364 573.405 113.806C573.565 114.248 573.811 114.59 574.143 114.831C574.476 115.073 574.904 115.193 575.429 115.193C575.948 115.193 576.374 115.073 576.707 114.831C577.044 114.59 577.292 114.248 577.452 113.806C577.611 113.364 577.691 112.842 577.691 112.24C577.691 111.643 577.611 111.128 577.452 110.695C577.292 110.258 577.046 109.921 576.714 109.684C576.381 109.447 575.95 109.328 575.422 109.328C574.642 109.328 574.07 109.586 573.706 110.101C573.346 110.616 573.166 111.329 573.166 112.24ZM587.449 112.24C587.449 112.855 587.369 113.405 587.21 113.888C587.05 114.371 586.82 114.779 586.519 115.111C586.218 115.444 585.854 115.699 585.425 115.877C585.002 116.05 584.521 116.137 583.983 116.137C583.482 116.137 583.021 116.05 582.602 115.877C582.188 115.699 581.827 115.444 581.522 115.111C581.221 114.779 580.987 114.371 580.818 113.888C580.654 113.405 580.572 112.855 580.572 112.24C580.572 111.42 580.711 110.723 580.989 110.148C581.267 109.57 581.663 109.13 582.178 108.829C582.698 108.524 583.315 108.371 584.031 108.371C584.715 108.371 585.312 108.524 585.822 108.829C586.337 109.134 586.736 109.576 587.018 110.155C587.305 110.729 587.449 111.424 587.449 112.24ZM581.748 112.24C581.748 112.842 581.827 113.364 581.987 113.806C582.146 114.248 582.393 114.59 582.725 114.831C583.058 115.073 583.486 115.193 584.01 115.193C584.53 115.193 584.956 115.073 585.289 114.831C585.626 114.59 585.874 114.248 586.034 113.806C586.193 113.364 586.273 112.842 586.273 112.24C586.273 111.643 586.193 111.128 586.034 110.695C585.874 110.258 585.628 109.921 585.296 109.684C584.963 109.447 584.532 109.328 584.004 109.328C583.224 109.328 582.652 109.586 582.288 110.101C581.928 110.616 581.748 111.329 581.748 112.24ZM591.991 115.207C592.178 115.207 592.369 115.191 592.565 115.159C592.761 115.127 592.92 115.089 593.043 115.043V115.925C592.911 115.984 592.727 116.034 592.49 116.075C592.257 116.116 592.029 116.137 591.806 116.137C591.41 116.137 591.05 116.068 590.726 115.932C590.403 115.79 590.143 115.553 589.947 115.221C589.755 114.888 589.66 114.428 589.66 113.84V109.396H588.593V108.843L589.667 108.398L590.118 106.771H590.801V108.508H592.996V109.396H590.801V113.806C590.801 114.275 590.908 114.626 591.123 114.858C591.341 115.091 591.631 115.207 591.991 115.207ZM594.55 115.289C594.55 114.97 594.628 114.744 594.783 114.612C594.938 114.476 595.127 114.407 595.35 114.407C595.582 114.407 595.778 114.476 595.938 114.612C596.097 114.744 596.177 114.97 596.177 115.289C596.177 115.604 596.097 115.834 595.938 115.979C595.778 116.121 595.582 116.191 595.35 116.191C595.127 116.191 594.938 116.121 594.783 115.979C594.628 115.834 594.55 115.604 594.55 115.289ZM597.656 119.363C597.424 119.363 597.221 119.345 597.048 119.309C596.875 119.277 596.724 119.238 596.597 119.192V118.27C596.738 118.315 596.882 118.349 597.028 118.372C597.173 118.399 597.337 118.413 597.52 118.413C597.83 118.413 598.08 118.326 598.272 118.153C598.463 117.98 598.559 117.666 598.559 117.21V108.508H599.694V117.183C599.694 117.638 599.621 118.028 599.475 118.352C599.329 118.68 599.106 118.93 598.805 119.104C598.504 119.277 598.121 119.363 597.656 119.363ZM598.456 106.45C598.456 106.195 598.52 106.008 598.648 105.89C598.78 105.767 598.944 105.705 599.14 105.705C599.327 105.705 599.486 105.767 599.618 105.89C599.755 106.008 599.823 106.195 599.823 106.45C599.823 106.701 599.755 106.888 599.618 107.011C599.486 107.134 599.327 107.195 599.14 107.195C598.944 107.195 598.78 107.134 598.648 107.011C598.52 106.888 598.456 106.701 598.456 106.45ZM605.063 108.385C605.956 108.385 606.619 108.585 607.052 108.986C607.485 109.387 607.701 110.028 607.701 110.907V116H606.874L606.655 114.893H606.601C606.391 115.166 606.172 115.396 605.944 115.583C605.717 115.765 605.452 115.904 605.151 116C604.855 116.091 604.491 116.137 604.058 116.137C603.602 116.137 603.196 116.057 602.841 115.897C602.49 115.738 602.212 115.496 602.007 115.173C601.806 114.849 601.706 114.439 601.706 113.942C601.706 113.195 602.002 112.621 602.595 112.22C603.187 111.819 604.09 111.6 605.302 111.563L606.594 111.509V111.051C606.594 110.404 606.455 109.95 606.177 109.69C605.899 109.431 605.507 109.301 605.001 109.301C604.609 109.301 604.235 109.358 603.88 109.472C603.524 109.586 603.187 109.72 602.868 109.875L602.52 109.014C602.857 108.84 603.244 108.692 603.682 108.569C604.119 108.446 604.579 108.385 605.063 108.385ZM606.58 112.309L605.439 112.356C604.504 112.393 603.846 112.546 603.463 112.814C603.08 113.083 602.889 113.464 602.889 113.956C602.889 114.384 603.019 114.701 603.278 114.906C603.538 115.111 603.882 115.214 604.311 115.214C604.976 115.214 605.521 115.029 605.944 114.66C606.368 114.291 606.58 113.737 606.58 112.999V112.309ZM613.603 108.371C613.754 108.371 613.911 108.38 614.075 108.398C614.239 108.412 614.385 108.433 614.513 108.46L614.369 109.513C614.246 109.481 614.109 109.456 613.959 109.438C613.808 109.419 613.667 109.41 613.535 109.41C613.234 109.41 612.949 109.472 612.681 109.595C612.416 109.713 612.184 109.886 611.983 110.114C611.783 110.338 611.626 110.609 611.512 110.928C611.398 111.242 611.341 111.593 611.341 111.98V116H610.199V108.508H611.142L611.266 109.889H611.313C611.468 109.611 611.655 109.358 611.874 109.13C612.093 108.897 612.346 108.713 612.633 108.576C612.924 108.439 613.248 108.371 613.603 108.371Z" fill="#DA6F5A"/>
<rect x="540.5" y="101.5" width="96" height="19" rx="4.5" stroke="#DA6F5A"/>
<rect x="359.5" y="350.5" width="128" height="19" rx="4.5" fill="white"/>
<path d="M391.035 359.989C391.035 360.759 390.937 361.461 390.741 362.095C390.545 362.724 390.254 363.266 389.866 363.722C389.483 364.173 389.007 364.521 388.438 364.768C387.868 365.014 387.207 365.137 386.455 365.137C385.68 365.137 385.004 365.014 384.425 364.768C383.851 364.521 383.372 364.171 382.989 363.715C382.611 363.259 382.326 362.715 382.135 362.081C381.948 361.448 381.854 360.746 381.854 359.976C381.854 358.955 382.023 358.059 382.36 357.289C382.698 356.519 383.208 355.92 383.892 355.491C384.58 355.063 385.441 354.849 386.476 354.849C387.465 354.849 388.296 355.061 388.971 355.484C389.65 355.908 390.162 356.505 390.509 357.275C390.86 358.041 391.035 358.946 391.035 359.989ZM383.078 359.989C383.078 360.837 383.199 361.571 383.44 362.19C383.682 362.81 384.051 363.289 384.548 363.626C385.049 363.963 385.685 364.132 386.455 364.132C387.23 364.132 387.863 363.963 388.355 363.626C388.852 363.289 389.219 362.81 389.456 362.19C389.693 361.571 389.812 360.837 389.812 359.989C389.812 358.7 389.54 357.692 388.998 356.968C388.46 356.239 387.619 355.874 386.476 355.874C385.701 355.874 385.063 356.04 384.562 356.373C384.06 356.706 383.687 357.18 383.44 357.795C383.199 358.406 383.078 359.137 383.078 359.989ZM399.063 362.341C399.063 362.933 398.915 363.439 398.619 363.858C398.327 364.273 397.917 364.59 397.389 364.809C396.86 365.027 396.238 365.137 395.522 365.137C395.144 365.137 394.786 365.118 394.449 365.082C394.112 365.046 393.802 364.993 393.519 364.925C393.237 364.856 392.988 364.772 392.774 364.672V363.558C393.116 363.699 393.533 363.831 394.025 363.954C394.517 364.073 395.032 364.132 395.57 364.132C396.071 364.132 396.495 364.066 396.842 363.934C397.188 363.797 397.45 363.603 397.628 363.353C397.81 363.097 397.901 362.792 397.901 362.437C397.901 362.095 397.826 361.81 397.676 361.582C397.525 361.35 397.275 361.14 396.924 360.953C396.577 360.762 396.103 360.559 395.502 360.345C395.078 360.194 394.704 360.03 394.381 359.853C394.057 359.67 393.786 359.465 393.567 359.237C393.348 359.009 393.182 358.745 393.068 358.444C392.959 358.144 392.904 357.799 392.904 357.412C392.904 356.879 393.039 356.423 393.307 356.045C393.581 355.662 393.957 355.37 394.435 355.17C394.918 354.965 395.472 354.862 396.097 354.862C396.63 354.862 397.122 354.912 397.573 355.013C398.029 355.113 398.446 355.247 398.824 355.416L398.462 356.414C398.102 356.264 397.719 356.138 397.313 356.038C396.912 355.938 396.498 355.888 396.069 355.888C395.641 355.888 395.278 355.951 394.982 356.079C394.691 356.202 394.467 356.378 394.312 356.605C394.157 356.833 394.08 357.104 394.08 357.419C394.08 357.77 394.153 358.062 394.299 358.294C394.449 358.526 394.686 358.734 395.01 358.916C395.338 359.094 395.771 359.281 396.308 359.477C396.896 359.691 397.395 359.919 397.806 360.16C398.216 360.397 398.528 360.689 398.742 361.035C398.956 361.377 399.063 361.812 399.063 362.341ZM405.54 359.764H409.033V364.61C408.509 364.788 407.969 364.92 407.413 365.007C406.861 365.093 406.244 365.137 405.56 365.137C404.521 365.137 403.644 364.929 402.928 364.515C402.217 364.1 401.677 363.51 401.308 362.744C400.939 361.974 400.755 361.06 400.755 360.003C400.755 358.968 400.957 358.066 401.363 357.296C401.773 356.526 402.363 355.929 403.133 355.505C403.908 355.076 404.838 354.862 405.923 354.862C406.479 354.862 407.005 354.915 407.502 355.02C408.003 355.12 408.468 355.263 408.896 355.45L408.452 356.462C408.083 356.302 407.675 356.166 407.228 356.052C406.786 355.938 406.328 355.881 405.854 355.881C405.038 355.881 404.339 356.049 403.756 356.387C403.177 356.724 402.732 357.2 402.423 357.815C402.117 358.431 401.965 359.16 401.965 360.003C401.965 360.837 402.099 361.564 402.368 362.184C402.637 362.799 403.056 363.277 403.626 363.619C404.195 363.961 404.929 364.132 405.827 364.132C406.278 364.132 406.665 364.107 406.989 364.057C407.313 364.002 407.606 363.938 407.871 363.865V360.803H405.54V359.764ZM411.613 365V355.006H412.775V365H411.613ZM419.48 355.006H422.31C423.558 355.006 424.497 355.193 425.126 355.566C425.755 355.94 426.07 356.576 426.07 357.474C426.07 357.861 425.994 358.21 425.844 358.52C425.698 358.825 425.484 359.078 425.201 359.278C424.919 359.479 424.57 359.618 424.155 359.695V359.764C424.593 359.832 424.98 359.957 425.318 360.14C425.655 360.322 425.919 360.577 426.111 360.905C426.302 361.233 426.398 361.65 426.398 362.156C426.398 362.771 426.254 363.291 425.967 363.715C425.684 364.139 425.283 364.46 424.764 364.679C424.244 364.893 423.629 365 422.918 365H419.48V355.006ZM420.642 359.292H422.556C423.426 359.292 424.028 359.148 424.361 358.861C424.698 358.574 424.866 358.155 424.866 357.604C424.866 357.034 424.666 356.624 424.265 356.373C423.868 356.122 423.235 355.997 422.364 355.997H420.642V359.292ZM420.642 360.27V364.009H422.72C423.609 364.009 424.237 363.836 424.607 363.489C424.976 363.138 425.16 362.667 425.16 362.074C425.16 361.696 425.076 361.372 424.907 361.104C424.743 360.835 424.474 360.63 424.101 360.488C423.732 360.342 423.237 360.27 422.617 360.27H420.642ZM434.706 357.508V365H433.776L433.612 363.947H433.551C433.396 364.207 433.195 364.426 432.949 364.604C432.703 364.781 432.425 364.913 432.115 365C431.81 365.091 431.484 365.137 431.138 365.137C430.545 365.137 430.049 365.041 429.647 364.85C429.246 364.658 428.943 364.362 428.738 363.961C428.538 363.56 428.438 363.045 428.438 362.416V357.508H429.586V362.334C429.586 362.958 429.727 363.425 430.01 363.735C430.292 364.041 430.723 364.193 431.302 364.193C431.858 364.193 432.3 364.089 432.628 363.879C432.961 363.669 433.2 363.362 433.346 362.956C433.492 362.546 433.564 362.045 433.564 361.452V357.508H434.706ZM440.813 357.371C441.702 357.371 442.374 357.59 442.83 358.027C443.286 358.46 443.514 359.158 443.514 360.119V365H442.392V360.194C442.392 359.57 442.249 359.103 441.962 358.793C441.679 358.483 441.244 358.328 440.656 358.328C439.827 358.328 439.243 358.563 438.906 359.032C438.569 359.502 438.4 360.183 438.4 361.076V365H437.266V357.508H438.182L438.352 358.588H438.414C438.573 358.324 438.776 358.103 439.022 357.925C439.268 357.743 439.544 357.606 439.849 357.515C440.155 357.419 440.476 357.371 440.813 357.371ZM448.677 365.137C447.73 365.137 446.978 364.813 446.422 364.166C445.87 363.519 445.594 362.557 445.594 361.281C445.594 359.992 445.877 359.019 446.442 358.362C447.007 357.701 447.759 357.371 448.698 357.371C449.094 357.371 449.441 357.424 449.737 357.528C450.033 357.633 450.288 357.774 450.503 357.952C450.717 358.125 450.897 358.324 451.043 358.547H451.125C451.106 358.406 451.088 358.212 451.07 357.966C451.052 357.72 451.043 357.519 451.043 357.364V354.363H452.177V365H451.261L451.091 363.934H451.043C450.901 364.157 450.721 364.36 450.503 364.542C450.288 364.724 450.031 364.87 449.73 364.979C449.434 365.084 449.083 365.137 448.677 365.137ZM448.855 364.193C449.657 364.193 450.225 363.965 450.557 363.51C450.89 363.054 451.056 362.377 451.056 361.479V361.274C451.056 360.322 450.897 359.59 450.578 359.08C450.263 358.57 449.689 358.314 448.855 358.314C448.158 358.314 447.636 358.583 447.29 359.121C446.943 359.654 446.77 360.383 446.77 361.309C446.77 362.229 446.941 362.94 447.283 363.441C447.629 363.943 448.153 364.193 448.855 364.193ZM455.885 365H454.744V354.363H455.885V365ZM461.329 357.371C461.968 357.371 462.514 357.512 462.97 357.795C463.426 358.077 463.774 358.474 464.016 358.984C464.258 359.49 464.378 360.083 464.378 360.762V361.466H459.204C459.217 362.345 459.436 363.015 459.86 363.476C460.284 363.936 460.881 364.166 461.651 364.166C462.125 364.166 462.544 364.123 462.909 364.036C463.273 363.95 463.651 363.822 464.043 363.653V364.651C463.665 364.82 463.289 364.943 462.915 365.021C462.546 365.098 462.109 365.137 461.603 365.137C460.883 365.137 460.254 364.991 459.716 364.699C459.183 364.403 458.768 363.97 458.472 363.4C458.176 362.831 458.028 362.133 458.028 361.309C458.028 360.502 458.162 359.805 458.431 359.217C458.704 358.624 459.087 358.169 459.579 357.85C460.076 357.531 460.66 357.371 461.329 357.371ZM461.316 358.301C460.71 358.301 460.227 358.499 459.867 358.896C459.507 359.292 459.292 359.846 459.224 360.557H463.189C463.184 360.11 463.114 359.718 462.977 359.381C462.845 359.039 462.642 358.775 462.369 358.588C462.095 358.396 461.744 358.301 461.316 358.301Z" fill="#DA6F5A"/>
<rect x="359.5" y="350.5" width="128" height="19" rx="4.5" stroke="#DA6F5A"/>
<path d="M450 141L447.113 146H452.887L450 141ZM450.5 350V145.5H449.5V350H450.5Z" fill="black"/>
<path d="M590 199L592.887 194H587.113L590 199ZM589.5 121V194.5H590.5V121H589.5Z" fill="black"/>
<path d="M409.5 140.998L406.613 145.998H412.387L409.5 140.998ZM410 280.002L410 145.498H409L409 280.002H410Z" fill="black"/>
<rect x="389.5" y="76.5" width="80" height="64" rx="4.5" fill="white"/>
<path d="M422.136 113.5L420.905 110.328H416.899L415.676 113.5H414.5L418.41 103.465H419.456L423.339 113.5H422.136ZM420.557 109.296L419.388 106.145C419.36 106.062 419.315 105.928 419.251 105.741C419.192 105.554 419.13 105.361 419.066 105.16C419.003 104.96 418.95 104.798 418.909 104.675C418.864 104.862 418.813 105.049 418.759 105.235C418.709 105.418 418.659 105.589 418.608 105.748C418.558 105.903 418.515 106.035 418.479 106.145L417.289 109.296H420.557ZM428.12 105.871C428.27 105.871 428.428 105.88 428.592 105.898C428.756 105.912 428.902 105.933 429.029 105.96L428.886 107.013C428.763 106.981 428.626 106.956 428.475 106.938C428.325 106.919 428.184 106.91 428.052 106.91C427.751 106.91 427.466 106.972 427.197 107.095C426.933 107.213 426.7 107.386 426.5 107.614C426.299 107.838 426.142 108.109 426.028 108.428C425.914 108.742 425.857 109.093 425.857 109.48V113.5H424.716V106.008H425.659L425.782 107.389H425.83C425.985 107.111 426.172 106.858 426.39 106.63C426.609 106.397 426.862 106.213 427.149 106.076C427.441 105.939 427.764 105.871 428.12 105.871ZM432.696 116.863C431.712 116.863 430.953 116.679 430.42 116.31C429.886 115.945 429.62 115.432 429.62 114.771C429.62 114.302 429.768 113.901 430.064 113.568C430.365 113.236 430.78 113.015 431.308 112.905C431.112 112.814 430.944 112.677 430.802 112.495C430.666 112.313 430.597 112.103 430.597 111.866C430.597 111.593 430.673 111.354 430.823 111.148C430.978 110.939 431.213 110.738 431.527 110.547C431.135 110.387 430.816 110.118 430.57 109.74C430.328 109.357 430.208 108.913 430.208 108.407C430.208 107.869 430.319 107.411 430.543 107.033C430.766 106.65 431.09 106.359 431.513 106.158C431.937 105.958 432.45 105.857 433.051 105.857C433.184 105.857 433.316 105.864 433.448 105.878C433.585 105.887 433.715 105.903 433.838 105.926C433.961 105.944 434.068 105.967 434.159 105.994H436.729V106.726L435.348 106.896C435.485 107.074 435.599 107.288 435.69 107.539C435.781 107.79 435.827 108.068 435.827 108.373C435.827 109.12 435.574 109.715 435.068 110.157C434.562 110.595 433.867 110.813 432.983 110.813C432.773 110.813 432.559 110.795 432.341 110.759C432.117 110.882 431.946 111.019 431.828 111.169C431.714 111.319 431.657 111.493 431.657 111.688C431.657 111.834 431.7 111.951 431.787 112.037C431.878 112.124 432.008 112.188 432.176 112.229C432.345 112.265 432.548 112.283 432.785 112.283H434.104C434.92 112.283 435.544 112.454 435.977 112.796C436.415 113.138 436.633 113.637 436.633 114.293C436.633 115.122 436.296 115.758 435.622 116.2C434.947 116.642 433.972 116.863 432.696 116.863ZM432.73 115.975C433.35 115.975 433.863 115.911 434.268 115.783C434.678 115.66 434.984 115.48 435.184 115.243C435.389 115.011 435.492 114.733 435.492 114.409C435.492 114.108 435.424 113.881 435.287 113.726C435.15 113.575 434.95 113.475 434.685 113.425C434.421 113.37 434.097 113.343 433.715 113.343H432.416C432.078 113.343 431.785 113.395 431.534 113.5C431.283 113.605 431.09 113.76 430.953 113.965C430.821 114.17 430.755 114.425 430.755 114.73C430.755 115.136 430.925 115.444 431.267 115.653C431.609 115.868 432.097 115.975 432.73 115.975ZM433.024 109.986C433.566 109.986 433.974 109.85 434.248 109.576C434.521 109.303 434.658 108.904 434.658 108.38C434.658 107.819 434.519 107.4 434.241 107.122C433.963 106.84 433.553 106.698 433.01 106.698C432.491 106.698 432.09 106.844 431.807 107.136C431.529 107.423 431.39 107.844 431.39 108.4C431.39 108.911 431.532 109.303 431.814 109.576C432.097 109.85 432.5 109.986 433.024 109.986ZM443.212 111.449C443.212 111.928 443.092 112.331 442.85 112.659C442.613 112.983 442.271 113.227 441.825 113.391C441.383 113.555 440.854 113.637 440.239 113.637C439.715 113.637 439.261 113.596 438.878 113.514C438.496 113.432 438.161 113.315 437.874 113.165V112.119C438.179 112.27 438.543 112.406 438.967 112.529C439.391 112.652 439.824 112.714 440.266 112.714C440.913 112.714 441.383 112.609 441.674 112.399C441.966 112.19 442.112 111.905 442.112 111.545C442.112 111.34 442.053 111.16 441.934 111.005C441.82 110.845 441.626 110.693 441.353 110.547C441.08 110.396 440.701 110.232 440.218 110.055C439.74 109.872 439.325 109.692 438.974 109.515C438.628 109.332 438.359 109.111 438.167 108.852C437.981 108.592 437.887 108.255 437.887 107.84C437.887 107.206 438.142 106.721 438.653 106.384C439.168 106.042 439.842 105.871 440.676 105.871C441.127 105.871 441.549 105.917 441.941 106.008C442.337 106.094 442.707 106.213 443.048 106.363L442.666 107.272C442.356 107.14 442.025 107.029 441.674 106.938C441.323 106.846 440.966 106.801 440.601 106.801C440.077 106.801 439.674 106.887 439.391 107.061C439.113 107.234 438.974 107.471 438.974 107.771C438.974 108.004 439.038 108.195 439.166 108.346C439.298 108.496 439.507 108.637 439.794 108.77C440.082 108.902 440.46 109.057 440.929 109.234C441.399 109.408 441.804 109.588 442.146 109.774C442.488 109.957 442.75 110.18 442.932 110.444C443.119 110.704 443.212 111.039 443.212 111.449Z" fill="black"/>
<rect x="389.5" y="76.5" width="80" height="64" rx="4.5" stroke="#82A4D9"/>
<path d="M17.44 13.6C18.72 13.6 19.8267 13.8733 20.76 14.42C21.6933 14.9667 22.4133 15.7467 22.92 16.76C23.4267 17.7733 23.68 18.9867 23.68 20.4C23.68 21.8133 23.4267 23.0267 22.92 24.04C22.4133 25.0533 21.6933 25.8333 20.76 26.38C19.8267 26.9267 18.72 27.2 17.44 27.2C16.1733 27.2 15.0733 26.9267 14.14 26.38C13.2067 25.8333 12.4867 25.0533 11.98 24.04C11.4733 23.0267 11.22 21.8133 11.22 20.4C11.22 18.9867 11.4733 17.7733 11.98 16.76C12.4867 15.7467 13.2067 14.9667 14.14 14.42C15.0733 13.8733 16.1733 13.6 17.44 13.6ZM17.44 15.46C16.6133 15.46 15.9 15.6533 15.3 16.04C14.7133 16.4267 14.26 16.9867 13.94 17.72C13.62 18.4533 13.46 19.3467 13.46 20.4C13.46 21.44 13.62 22.3333 13.94 23.08C14.26 23.8133 14.7133 24.3733 15.3 24.76C15.9 25.1467 16.6133 25.34 17.44 25.34C18.28 25.34 18.9933 25.1467 19.58 24.76C20.18 24.3733 20.64 23.8133 20.96 23.08C21.28 22.3333 21.44 21.44 21.44 20.4C21.44 19.3467 21.28 18.4533 20.96 17.72C20.64 16.9867 20.18 16.4267 19.58 16.04C18.9933 15.6533 18.28 15.46 17.44 15.46ZM30.2823 27.2C29.629 27.2 29.0223 27.08 28.4623 26.84C27.9157 26.6 27.4757 26.2133 27.1423 25.68C26.809 25.1467 26.6423 24.4533 26.6423 23.6V17H28.7823V23.06C28.7823 23.9667 28.9757 24.5933 29.3623 24.94C29.749 25.2733 30.289 25.44 30.9823 25.44C31.3157 25.44 31.6357 25.3867 31.9423 25.28C32.2623 25.16 32.549 24.98 32.8023 24.74C33.0557 24.4867 33.249 24.1667 33.3823 23.78C33.529 23.3933 33.6023 22.94 33.6023 22.42V17H35.7423V27H33.8623L33.7623 25.38C33.4157 26.0067 32.949 26.4667 32.3623 26.76C31.7757 27.0533 31.0823 27.2 30.2823 27.2ZM42.1656 14.06V24C42.1656 24.4933 42.2923 24.8533 42.5456 25.08C42.8123 25.3067 43.1656 25.42 43.6056 25.42C43.9656 25.42 44.279 25.3667 44.5456 25.26C44.8123 25.14 45.059 24.98 45.2856 24.78L45.7656 26.34C45.459 26.6067 45.079 26.82 44.6256 26.98C44.1856 27.1267 43.6923 27.2 43.1456 27.2C42.5723 27.2 42.0456 27.1067 41.5656 26.92C41.0856 26.7333 40.7123 26.4333 40.4456 26.02C40.179 25.5933 40.039 25.04 40.0256 24.36V14.66L42.1656 14.06ZM45.6056 17V18.68H38.1056V17H45.6056ZM51.6822 27.2C50.6822 27.2 49.7689 27.0067 48.9422 26.62C48.1155 26.2333 47.4622 25.6867 46.9822 24.98L48.4622 23.7C48.7555 24.2467 49.1755 24.6867 49.7222 25.02C50.2822 25.34 50.9489 25.5 51.7222 25.5C52.3355 25.5 52.8222 25.3933 53.1822 25.18C53.5422 24.9667 53.7222 24.6667 53.7222 24.28C53.7222 24.0267 53.6355 23.8067 53.4622 23.62C53.3022 23.42 52.9889 23.2667 52.5222 23.16L50.4222 22.72C49.3555 22.5067 48.5955 22.1667 48.1422 21.7C47.6889 21.22 47.4622 20.6133 47.4622 19.88C47.4622 19.3333 47.6222 18.8267 47.9422 18.36C48.2622 17.8933 48.7289 17.52 49.3422 17.24C49.9689 16.9467 50.7155 16.8 51.5822 16.8C52.5822 16.8 53.4355 16.98 54.1422 17.34C54.8489 17.6867 55.3889 18.1867 55.7622 18.84L54.2822 20.08C54.0289 19.5467 53.6555 19.1533 53.1622 18.9C52.6689 18.6333 52.1555 18.5 51.6222 18.5C51.1955 18.5 50.8289 18.5533 50.5222 18.66C50.2155 18.7667 49.9822 18.9133 49.8222 19.1C49.6622 19.2867 49.5822 19.5067 49.5822 19.76C49.5822 20.0267 49.6822 20.26 49.8822 20.46C50.0822 20.66 50.4422 20.8133 50.9622 20.92L53.2422 21.4C54.2022 21.5867 54.8755 21.9067 55.2622 22.36C55.6622 22.8 55.8622 23.34 55.8622 23.98C55.8622 24.62 55.6955 25.1867 55.3622 25.68C55.0289 26.16 54.5489 26.5333 53.9222 26.8C53.2955 27.0667 52.5489 27.2 51.6822 27.2ZM59.7081 15.32C59.2415 15.32 58.8815 15.2067 58.6281 14.98C58.3881 14.74 58.2681 14.4067 58.2681 13.98C58.2681 13.5533 58.3881 13.2267 58.6281 13C58.8815 12.7733 59.2415 12.66 59.7081 12.66C60.1615 12.66 60.5081 12.7733 60.7481 13C61.0015 13.2267 61.1281 13.5533 61.1281 13.98C61.1281 14.4067 61.0015 14.74 60.7481 14.98C60.5081 15.2067 60.1615 15.32 59.7081 15.32ZM60.7681 17V27H58.6281V17H60.7681ZM68.1164 27.2C67.2897 27.2 66.5364 26.9933 65.8564 26.58C65.1897 26.1667 64.6631 25.5733 64.2764 24.8C63.8897 24.0267 63.6964 23.1 63.6964 22.02C63.6964 20.9 63.9031 19.9533 64.3164 19.18C64.7297 18.4067 65.2831 17.82 65.9764 17.42C66.6697 17.0067 67.4297 16.8 68.2564 16.8C69.1097 16.8 69.8297 17.0333 70.4164 17.5C71.0031 17.9667 71.3964 18.5733 71.5964 19.32L71.3564 19.54V12.5H73.4964V27H71.5964L71.4364 24.28L71.7164 24.3C71.6231 24.9 71.4031 25.42 71.0564 25.86C70.7097 26.2867 70.2764 26.62 69.7564 26.86C69.2497 27.0867 68.7031 27.2 68.1164 27.2ZM68.5764 25.48C69.1497 25.48 69.6431 25.3333 70.0564 25.04C70.4697 24.7467 70.7897 24.3333 71.0164 23.8C71.2431 23.2667 71.3564 22.6267 71.3564 21.88C71.3564 21.1867 71.2431 20.5933 71.0164 20.1C70.7897 19.5933 70.4697 19.2067 70.0564 18.94C69.6564 18.6733 69.1897 18.54 68.6564 18.54C67.7631 18.54 67.0697 18.8467 66.5764 19.46C66.0831 20.0733 65.8364 20.92 65.8364 22C65.8364 23.08 66.0764 23.9333 66.5564 24.56C67.0364 25.1733 67.7097 25.48 68.5764 25.48ZM81.3755 27.2C80.3755 27.2 79.4955 26.9933 78.7355 26.58C77.9755 26.1667 77.3821 25.5733 76.9555 24.8C76.5421 24.0133 76.3355 23.08 76.3355 22C76.3355 20.92 76.5421 19.9933 76.9555 19.22C77.3821 18.4333 77.9688 17.8333 78.7155 17.42C79.4621 17.0067 80.3088 16.8 81.2555 16.8C82.2288 16.8 83.0555 17 83.7355 17.4C84.4155 17.8 84.9355 18.3467 85.2955 19.04C85.6555 19.7333 85.8355 20.52 85.8355 21.4C85.8355 21.64 85.8288 21.8667 85.8155 22.08C85.8021 22.2933 85.7821 22.48 85.7555 22.64H77.7155V21H84.8155L83.7555 21.32C83.7555 20.4133 83.5288 19.72 83.0755 19.24C82.6221 18.7467 82.0021 18.5 81.2155 18.5C80.6421 18.5 80.1421 18.6333 79.7155 18.9C79.2888 19.1667 78.9621 19.5667 78.7355 20.1C78.5088 20.62 78.3955 21.26 78.3955 22.02C78.3955 22.7667 78.5155 23.4 78.7555 23.92C78.9955 24.44 79.3355 24.8333 79.7755 25.1C80.2155 25.3667 80.7355 25.5 81.3355 25.5C82.0021 25.5 82.5421 25.3733 82.9555 25.12C83.3688 24.8667 83.6955 24.5133 83.9355 24.06L85.6355 24.86C85.3955 25.34 85.0688 25.76 84.6555 26.12C84.2555 26.4667 83.7755 26.7333 83.2155 26.92C82.6555 27.1067 82.0421 27.2 81.3755 27.2ZM101.142 20.58C101.142 19.9133 100.955 19.4 100.582 19.04C100.222 18.6667 99.7219 18.48 99.0819 18.48C98.4819 18.48 97.9685 18.62 97.5419 18.9C97.1152 19.18 96.8019 19.6333 96.6019 20.26L94.8019 19.5C95.0552 18.6867 95.5485 18.0333 96.2819 17.54C97.0285 17.0467 97.9885 16.8 99.1619 16.8C99.9619 16.8 100.669 16.9333 101.282 17.2C101.895 17.4533 102.375 17.84 102.722 18.36C103.082 18.88 103.262 19.5467 103.262 20.36V24.82C103.262 25.3133 103.509 25.56 104.002 25.56C104.242 25.56 104.475 25.5267 104.702 25.46L104.582 26.94C104.275 27.0867 103.889 27.16 103.422 27.16C102.995 27.16 102.609 27.0867 102.262 26.94C101.929 26.78 101.662 26.5467 101.462 26.24C101.275 25.92 101.182 25.5267 101.182 25.06V24.92L101.622 24.9C101.502 25.42 101.255 25.8533 100.882 26.2C100.509 26.5333 100.075 26.7867 99.5819 26.96C99.0885 27.12 98.5885 27.2 98.0819 27.2C97.4552 27.2 96.8885 27.1 96.3819 26.9C95.8885 26.7 95.4952 26.4 95.2019 26C94.9219 25.5867 94.7819 25.08 94.7819 24.48C94.7819 23.7333 95.0219 23.12 95.5019 22.64C95.9952 22.16 96.6885 21.8333 97.5819 21.66L101.462 20.9L101.442 22.4L98.6219 22.98C98.0619 23.0867 97.6419 23.24 97.3619 23.44C97.0819 23.64 96.9419 23.9333 96.9419 24.32C96.9419 24.6933 97.0819 24.9933 97.3619 25.22C97.6552 25.4333 98.0419 25.54 98.5219 25.54C98.8552 25.54 99.1752 25.5 99.4819 25.42C99.8019 25.34 100.089 25.2133 100.342 25.04C100.595 24.8533 100.789 24.62 100.922 24.34C101.069 24.0467 101.142 23.7 101.142 23.3V20.58ZM106.928 27V17H108.828L108.968 19.6L108.688 19.32C108.875 18.7467 109.141 18.2733 109.488 17.9C109.848 17.5133 110.268 17.2333 110.748 17.06C111.241 16.8867 111.761 16.8 112.308 16.8C113.015 16.8 113.648 16.94 114.208 17.22C114.781 17.4867 115.235 17.8933 115.568 18.44C115.901 18.9867 116.068 19.68 116.068 20.52V27H113.928V21.18C113.928 20.1933 113.721 19.5133 113.308 19.14C112.908 18.7533 112.401 18.56 111.788 18.56C111.348 18.56 110.921 18.6667 110.508 18.88C110.095 19.08 109.748 19.4067 109.468 19.86C109.201 20.3133 109.068 20.92 109.068 21.68V27H106.928ZM128.575 13.8V27H126.435V13.8H128.575ZM137.31 13.8C139.376 13.8 140.983 14.3733 142.13 15.52C143.29 16.6533 143.87 18.28 143.87 20.4C143.87 22.52 143.29 24.1533 142.13 25.3C140.983 26.4333 139.376 27 137.31 27H132.65V13.8H137.31ZM137.31 25.18C138.71 25.18 139.776 24.7667 140.51 23.94C141.256 23.1 141.63 21.92 141.63 20.4C141.63 18.88 141.256 17.7067 140.51 16.88C139.776 16.04 138.71 15.62 137.31 15.62H134.79V25.18H137.31ZM147.204 27V13.8H156.764V15.64H149.344V19.44H155.144V21.24H149.344V25.16H157.044V27H147.204Z" fill="black"/>
<defs>
<filter id="filter0_d_161_688" x="88" y="341" width="28.0002" height="24.4818" filterUnits="userSpaceOnUse" color-interpolation-filters="sRGB">
<feFlood flood-opacity="0" result="BackgroundImageFix"/>
<feColorMatrix in="SourceAlpha" type="matrix" values="0 0 0 0 0 0 0 0 0 0 0 0 0 0 0 0 0 0 127 0" result="hardAlpha"/>
<feOffset dy="4"/>
<feGaussianBlur stdDeviation="2"/>
<feComposite in2="hardAlpha" operator="out"/>
<feColorMatrix type="matrix" values="0 0 0 0 0 0 0 0 0 0 0 0 0 0 0 0 0 0 0.25 0"/>
<feBlend mode="normal" in2="BackgroundImageFix" result="effect1_dropShadow_161_688"/>
<feBlend mode="normal" in="SourceGraphic" in2="effect1_dropShadow_161_688" result="shape"/>
</filter>
<clipPath id="clip0_161_688">
<rect width="20" height="20" fill="white" transform="translate(92 339)"/>
</clipPath>
</defs>
</svg>
