<svg width="782" height="532" viewBox="0 0 782 532" fill="none" xmlns="http://www.w3.org/2000/svg">
<rect width="782" height="532" fill="white"/>
<path d="M69 135C69 132.239 71.2386 130 74 130H294C296.761 130 299 132.239 299 135V170H69V135Z" fill="#00378F"/>
<path d="M95.9453 155H90.374V145.006H95.9453V146.038H91.5361V149.258H95.6787V150.283H91.5361V153.961H95.9453V155ZM101.15 155.137C100.066 155.137 99.2248 154.804 98.6278 154.139C98.0353 153.469 97.7391 152.523 97.7391 151.302C97.7391 150.049 98.0399 149.08 98.6414 148.396C99.2476 147.713 100.109 147.371 101.225 147.371C101.585 147.371 101.945 147.41 102.306 147.487C102.666 147.565 102.948 147.656 103.153 147.761L102.805 148.725C102.554 148.624 102.28 148.542 101.984 148.479C101.688 148.41 101.426 148.376 101.198 148.376C99.676 148.376 98.9149 149.347 98.9149 151.288C98.9149 152.209 99.0995 152.915 99.4686 153.407C99.8423 153.899 100.394 154.146 101.123 154.146C101.747 154.146 102.388 154.011 103.044 153.742V154.747C102.542 155.007 101.911 155.137 101.15 155.137ZM106.123 155H104.988V144.363H106.123V155ZM109.824 155H108.689V147.508H109.824V155ZM108.593 145.478C108.593 145.218 108.657 145.029 108.785 144.91C108.912 144.787 109.072 144.726 109.263 144.726C109.445 144.726 109.603 144.787 109.735 144.91C109.867 145.033 109.933 145.222 109.933 145.478C109.933 145.733 109.867 145.924 109.735 146.052C109.603 146.175 109.445 146.236 109.263 146.236C109.072 146.236 108.912 146.175 108.785 146.052C108.657 145.924 108.593 145.733 108.593 145.478ZM115.876 155.137C115.389 155.137 114.942 155.048 114.536 154.87C114.135 154.688 113.798 154.41 113.525 154.036H113.443C113.497 154.474 113.525 154.888 113.525 155.28V158.363H112.39V147.508H113.313L113.47 148.533H113.525C113.816 148.123 114.156 147.827 114.543 147.645C114.931 147.462 115.375 147.371 115.876 147.371C116.87 147.371 117.635 147.711 118.173 148.39C118.716 149.069 118.987 150.021 118.987 151.247C118.987 152.478 118.711 153.435 118.16 154.118C117.613 154.797 116.852 155.137 115.876 155.137ZM115.712 148.335C114.947 148.335 114.393 148.547 114.051 148.971C113.709 149.395 113.534 150.069 113.525 150.994V151.247C113.525 152.3 113.7 153.054 114.051 153.51C114.402 153.961 114.965 154.187 115.74 154.187C116.387 154.187 116.893 153.924 117.257 153.4C117.626 152.876 117.811 152.154 117.811 151.233C117.811 150.299 117.626 149.584 117.257 149.087C116.893 148.586 116.378 148.335 115.712 148.335ZM125.969 152.956C125.969 153.653 125.709 154.191 125.19 154.569C124.67 154.948 123.941 155.137 123.002 155.137C122.009 155.137 121.234 154.979 120.678 154.665V153.612C121.038 153.795 121.423 153.938 121.833 154.043C122.248 154.148 122.647 154.2 123.029 154.2C123.622 154.2 124.078 154.107 124.397 153.92C124.716 153.729 124.875 153.439 124.875 153.052C124.875 152.76 124.748 152.512 124.492 152.307C124.242 152.097 123.75 151.851 123.016 151.568C122.319 151.309 121.822 151.083 121.526 150.892C121.234 150.696 121.015 150.475 120.869 150.229C120.728 149.982 120.657 149.688 120.657 149.347C120.657 148.736 120.906 148.255 121.403 147.904C121.899 147.549 122.581 147.371 123.446 147.371C124.253 147.371 125.042 147.535 125.812 147.863L125.408 148.786C124.656 148.476 123.975 148.321 123.364 148.321C122.827 148.321 122.421 148.406 122.148 148.574C121.874 148.743 121.737 148.975 121.737 149.271C121.737 149.472 121.788 149.643 121.888 149.784C121.993 149.925 122.159 150.06 122.387 150.188C122.615 150.315 123.052 150.5 123.699 150.741C124.588 151.065 125.187 151.391 125.497 151.719C125.812 152.047 125.969 152.459 125.969 152.956ZM131.147 155.137C130.039 155.137 129.164 154.799 128.522 154.125C127.884 153.451 127.564 152.514 127.564 151.315C127.564 150.108 127.861 149.148 128.453 148.438C129.05 147.727 129.85 147.371 130.853 147.371C131.791 147.371 132.534 147.681 133.081 148.301C133.628 148.916 133.901 149.729 133.901 150.741V151.459H128.74C128.763 152.339 128.984 153.006 129.403 153.462C129.827 153.918 130.422 154.146 131.188 154.146C131.994 154.146 132.792 153.977 133.58 153.64V154.651C133.179 154.825 132.799 154.948 132.439 155.021C132.083 155.098 131.652 155.137 131.147 155.137ZM130.839 148.321C130.237 148.321 129.757 148.517 129.397 148.909C129.041 149.301 128.831 149.843 128.768 150.536H132.685C132.685 149.821 132.525 149.274 132.206 148.896C131.887 148.513 131.431 148.321 130.839 148.321Z" fill="white"/>
<path d="M69.5 170.5H298.5V245C298.5 247.485 296.485 249.5 294 249.5H74C71.5147 249.5 69.5 247.485 69.5 245V170.5Z" fill="white"/>
<path d="M79.5 185C79.5 182.515 81.5147 180.5 84 180.5H138.5V239.5H84C81.5147 239.5 79.5 237.485 79.5 235V185Z" fill="#00378F" stroke="#00378F"/>
<path d="M138.5 180.5H245C247.485 180.5 249.5 182.515 249.5 185V235C249.5 237.485 247.485 239.5 245 239.5H138.5V180.5Z" fill="white"/>
<path d="M166.45 215H165.288V206.038H162.123V205.006H169.615V206.038H166.45V215ZM174.28 215.137C173.173 215.137 172.298 214.799 171.655 214.125C171.017 213.451 170.698 212.514 170.698 211.315C170.698 210.108 170.994 209.148 171.587 208.438C172.184 207.727 172.984 207.371 173.986 207.371C174.925 207.371 175.668 207.681 176.215 208.301C176.762 208.916 177.035 209.729 177.035 210.741V211.459H171.874C171.897 212.339 172.118 213.006 172.537 213.462C172.961 213.918 173.556 214.146 174.321 214.146C175.128 214.146 175.925 213.977 176.714 213.64V214.651C176.313 214.825 175.932 214.948 175.572 215.021C175.217 215.098 174.786 215.137 174.28 215.137ZM173.972 208.321C173.371 208.321 172.89 208.517 172.53 208.909C172.175 209.301 171.965 209.843 171.901 210.536H175.818C175.818 209.821 175.659 209.274 175.34 208.896C175.021 208.513 174.565 208.321 173.972 208.321ZM183.969 212.956C183.969 213.653 183.71 214.191 183.19 214.569C182.671 214.948 181.941 215.137 181.003 215.137C180.009 215.137 179.234 214.979 178.678 214.665V213.612C179.038 213.795 179.424 213.938 179.834 214.043C180.248 214.148 180.647 214.2 181.03 214.2C181.622 214.2 182.078 214.107 182.397 213.92C182.716 213.729 182.876 213.439 182.876 213.052C182.876 212.76 182.748 212.512 182.493 212.307C182.242 212.097 181.75 211.851 181.016 211.568C180.319 211.309 179.822 211.083 179.526 210.892C179.234 210.696 179.016 210.475 178.87 210.229C178.729 209.982 178.658 209.688 178.658 209.347C178.658 208.736 178.906 208.255 179.403 207.904C179.9 207.549 180.581 207.371 181.447 207.371C182.254 207.371 183.042 207.535 183.812 207.863L183.409 208.786C182.657 208.476 181.976 208.321 181.365 208.321C180.827 208.321 180.422 208.406 180.148 208.574C179.875 208.743 179.738 208.975 179.738 209.271C179.738 209.472 179.788 209.643 179.888 209.784C179.993 209.925 180.16 210.06 180.387 210.188C180.615 210.315 181.053 210.5 181.7 210.741C182.589 211.065 183.188 211.391 183.498 211.719C183.812 212.047 183.969 212.459 183.969 212.956ZM188.402 214.2C188.602 214.2 188.796 214.187 188.983 214.159C189.17 214.127 189.318 214.095 189.427 214.063V214.932C189.304 214.991 189.122 215.039 188.88 215.075C188.643 215.116 188.429 215.137 188.238 215.137C186.789 215.137 186.064 214.373 186.064 212.847V208.39H184.991V207.843L186.064 207.371L186.542 205.771H187.199V207.508H189.373V208.39H187.199V212.799C187.199 213.25 187.306 213.596 187.52 213.838C187.734 214.079 188.028 214.2 188.402 214.2ZM197.882 215.137C196.797 215.137 195.957 214.804 195.36 214.139C194.767 213.469 194.471 212.523 194.471 211.302C194.471 210.049 194.772 209.08 195.373 208.396C195.979 207.713 196.841 207.371 197.957 207.371C198.317 207.371 198.677 207.41 199.037 207.487C199.397 207.565 199.68 207.656 199.885 207.761L199.536 208.725C199.286 208.624 199.012 208.542 198.716 208.479C198.42 208.41 198.158 208.376 197.93 208.376C196.408 208.376 195.647 209.347 195.647 211.288C195.647 212.209 195.831 212.915 196.2 213.407C196.574 213.899 197.126 214.146 197.855 214.146C198.479 214.146 199.119 214.011 199.776 213.742V214.747C199.274 215.007 198.643 215.137 197.882 215.137ZM208.187 211.247C208.187 212.468 207.879 213.423 207.264 214.111C206.648 214.795 205.799 215.137 204.714 215.137C204.044 215.137 203.449 214.979 202.93 214.665C202.41 214.351 202.009 213.899 201.727 213.312C201.444 212.724 201.303 212.035 201.303 211.247C201.303 210.026 201.608 209.076 202.219 208.396C202.829 207.713 203.677 207.371 204.762 207.371C205.81 207.371 206.642 207.72 207.257 208.417C207.877 209.114 208.187 210.058 208.187 211.247ZM202.479 211.247C202.479 212.204 202.67 212.933 203.053 213.435C203.436 213.936 203.998 214.187 204.741 214.187C205.484 214.187 206.047 213.938 206.43 213.441C206.817 212.94 207.011 212.209 207.011 211.247C207.011 210.295 206.817 209.572 206.43 209.08C206.047 208.583 205.48 208.335 204.728 208.335C203.985 208.335 203.424 208.579 203.046 209.066C202.668 209.554 202.479 210.281 202.479 211.247ZM215.442 213.995H215.381C214.857 214.756 214.073 215.137 213.029 215.137C212.049 215.137 211.286 214.802 210.739 214.132C210.197 213.462 209.926 212.509 209.926 211.274C209.926 210.039 210.199 209.08 210.746 208.396C211.293 207.713 212.054 207.371 213.029 207.371C214.045 207.371 214.825 207.74 215.367 208.479H215.456L215.408 207.938L215.381 207.412V204.363H216.516V215H215.593L215.442 213.995ZM213.173 214.187C213.947 214.187 214.508 213.977 214.854 213.558C215.205 213.134 215.381 212.452 215.381 211.514V211.274C215.381 210.213 215.203 209.456 214.848 209.005C214.497 208.549 213.934 208.321 213.159 208.321C212.494 208.321 211.983 208.581 211.628 209.101C211.277 209.616 211.101 210.345 211.101 211.288C211.101 212.245 211.277 212.967 211.628 213.455C211.979 213.943 212.494 214.187 213.173 214.187ZM222.254 215.137C221.146 215.137 220.271 214.799 219.629 214.125C218.991 213.451 218.672 212.514 218.672 211.315C218.672 210.108 218.968 209.148 219.56 208.438C220.157 207.727 220.957 207.371 221.96 207.371C222.898 207.371 223.641 207.681 224.188 208.301C224.735 208.916 225.009 209.729 225.009 210.741V211.459H219.847C219.87 212.339 220.091 213.006 220.51 213.462C220.934 213.918 221.529 214.146 222.295 214.146C223.101 214.146 223.899 213.977 224.687 213.64V214.651C224.286 214.825 223.906 214.948 223.546 215.021C223.19 215.098 222.759 215.137 222.254 215.137ZM221.946 208.321C221.344 208.321 220.864 208.517 220.504 208.909C220.148 209.301 219.939 209.843 219.875 210.536H223.792C223.792 209.821 223.632 209.274 223.313 208.896C222.994 208.513 222.538 208.321 221.946 208.321Z" fill="black"/>
<path d="M138.5 180.5H245C247.485 180.5 249.5 182.515 249.5 185V235C249.5 237.485 247.485 239.5 245 239.5H138.5V180.5Z" stroke="#00378F"/>
<path d="M117.756 218.482H100.244C99.5581 218.482 99 217.924 99 217.238V206.074C99 205.971 99.0407 205.874 99.1127 205.802C99.1847 205.73 99.2825 205.689 99.3843 205.689H118.614C118.826 205.689 118.998 205.861 118.998 206.074V217.238C118.998 217.924 118.44 218.482 117.755 218.482H117.756ZM99.7694 206.458V217.238C99.7694 217.5 99.9823 217.712 100.244 217.712H117.756C118.017 217.712 118.23 217.5 118.23 217.238V206.459H99.7686L99.7694 206.458Z" fill="white"/>
<path d="M118.615 206.459H99.3853C99.1732 206.459 99.001 206.287 99.001 206.074V203.244C99.001 202.558 99.5591 202 100.245 202H117.757C118.442 202 119 202.558 119 203.244V206.075C119 206.177 118.96 206.274 118.888 206.347C118.816 206.419 118.718 206.46 118.616 206.46L118.615 206.459ZM99.7696 205.69H118.231V203.244C118.231 202.982 118.018 202.769 117.757 202.769H100.245C99.9833 202.769 99.7704 202.982 99.7704 203.244V205.69H99.7696Z" fill="white"/>
<path d="M104.784 204.229C104.784 204.56 105.053 204.828 105.383 204.828C105.713 204.828 105.982 204.559 105.982 204.229C105.982 203.899 105.713 203.63 105.383 203.63C105.053 203.63 104.784 203.899 104.784 204.229Z" fill="white"/>
<path d="M102.954 204.229C102.954 204.56 103.223 204.828 103.553 204.828C103.883 204.828 104.152 204.559 104.152 204.229C104.152 203.899 103.883 203.63 103.553 203.63C103.223 203.63 102.954 203.899 102.954 204.229Z" fill="white"/>
<path d="M101.125 204.229C101.125 204.56 101.393 204.828 101.724 204.828C102.054 204.828 102.323 204.559 102.323 204.229C102.323 203.899 102.054 203.63 101.724 203.63C101.393 203.63 101.125 203.899 101.125 204.229Z" fill="white"/>
<path d="M107.941 216.109C107.905 216.109 107.869 216.104 107.833 216.093C107.629 216.034 107.512 215.821 107.572 215.616L109.69 208.339C109.749 208.135 109.963 208.017 110.167 208.077C110.371 208.136 110.487 208.349 110.428 208.553L108.31 215.831C108.261 215.999 108.107 216.108 107.941 216.108V216.109Z" fill="white"/>
<path d="M111.414 215.072C111.31 215.072 111.207 215.03 111.131 214.947C110.987 214.791 110.997 214.547 111.153 214.404L113.674 212.086L111.153 209.768C110.997 209.624 110.987 209.381 111.131 209.224C111.274 209.068 111.517 209.057 111.674 209.201L114.503 211.802C114.582 211.875 114.627 211.978 114.627 212.086C114.627 212.193 114.582 212.296 114.503 212.369L111.674 214.971C111.6 215.039 111.507 215.072 111.414 215.072V215.072Z" fill="white"/>
<path d="M106.585 215.072C106.492 215.072 106.399 215.038 106.325 214.97L103.496 212.368C103.417 212.295 103.373 212.193 103.373 212.085C103.373 211.977 103.417 211.874 103.496 211.802L106.325 209.201C106.482 209.056 106.725 209.067 106.868 209.223C107.012 209.38 107.002 209.623 106.846 209.767L104.325 212.085L106.846 214.403C107.002 214.547 107.012 214.791 106.868 214.946C106.792 215.029 106.689 215.071 106.585 215.071V215.072Z" fill="white"/>
<path d="M69.5 170.5H298.5V245C298.5 247.485 296.485 249.5 294 249.5H74C71.5147 249.5 69.5 247.485 69.5 245V170.5Z" stroke="#00378F"/>
<path d="M480 135C480 132.239 482.239 130 485 130H705C707.761 130 710 132.239 710 135V170H480V135Z" fill="#6ECEB2"/>
<path d="M499.918 157.632C499.49 157.632 499.152 157.57 498.906 157.447V156.456C499.23 156.547 499.567 156.593 499.918 156.593C500.369 156.593 500.711 156.456 500.943 156.183C501.18 155.909 501.299 155.515 501.299 155V145.006H502.461V154.904C502.461 155.77 502.242 156.44 501.805 156.914C501.367 157.393 500.738 157.632 499.918 157.632ZM510.988 145.006H512.239L508.637 155H507.488L503.906 145.006H505.137L507.433 151.473C507.698 152.215 507.907 152.938 508.062 153.64C508.226 152.901 508.441 152.165 508.705 151.432L510.988 145.006ZM518.203 155L514.812 146.141H514.757C514.821 146.842 514.853 147.676 514.853 148.643V155H513.78V145.006H515.53L518.695 153.25H518.75L521.942 145.006H523.678V155H522.516V148.561C522.516 147.822 522.548 147.02 522.612 146.154H522.557L519.139 155H518.203Z" fill="white"/>
<path d="M480.5 170.5H709.5V245C709.5 247.485 707.485 249.5 705 249.5H485C482.515 249.5 480.5 247.485 480.5 245V170.5Z" fill="white"/>
<path d="M480.5 170.5H709.5V245C709.5 247.485 707.485 249.5 705 249.5H485C482.515 249.5 480.5 247.485 480.5 245V170.5Z" stroke="#6ECEB2"/>
<path d="M480 190L475 187.113V192.887L480 190ZM299 190.5L475.5 190.5V189.5L299 189.5V190.5Z" fill="black"/>
<path d="M425 450H600" stroke="black"/>
<path d="M600 251L597.113 256H602.887L600 251ZM600.5 450V255.5H599.5V450H600.5Z" fill="black"/>
<path d="M378.536 175.844V180H377.374V170.006H380.115C381.341 170.006 382.246 170.241 382.829 170.71C383.417 171.179 383.711 171.886 383.711 172.829C383.711 174.151 383.041 175.044 381.701 175.509L384.415 180H383.041L380.621 175.844H378.536ZM378.536 174.846H380.129C380.949 174.846 381.551 174.684 381.934 174.36C382.316 174.032 382.508 173.542 382.508 172.891C382.508 172.23 382.312 171.754 381.92 171.462C381.533 171.17 380.908 171.024 380.047 171.024H378.536V174.846ZM387.084 172.508V177.368C387.084 177.979 387.223 178.435 387.501 178.735C387.779 179.036 388.214 179.187 388.806 179.187C389.59 179.187 390.162 178.972 390.522 178.544C390.887 178.116 391.069 177.416 391.069 176.445V172.508H392.204V180H391.267L391.103 178.995H391.042C390.809 179.364 390.486 179.647 390.071 179.843C389.661 180.039 389.192 180.137 388.663 180.137C387.751 180.137 387.068 179.92 386.612 179.487C386.161 179.054 385.935 178.362 385.935 177.409V172.508H387.084ZM399.904 180V175.153C399.904 174.543 399.765 174.087 399.487 173.786C399.209 173.485 398.774 173.335 398.181 173.335C397.397 173.335 396.823 173.547 396.459 173.971C396.094 174.395 395.912 175.094 395.912 176.069V180H394.777V172.508H395.7L395.884 173.533H395.939C396.172 173.164 396.497 172.879 396.917 172.679C397.336 172.474 397.803 172.371 398.318 172.371C399.22 172.371 399.899 172.59 400.355 173.027C400.811 173.46 401.039 174.155 401.039 175.112V180H399.904Z" fill="black"/>
<path d="M40.0967 80H38.9482L36.9316 73.3076C36.8359 73.0114 36.7288 72.6377 36.6104 72.1865C36.4919 71.7354 36.4303 71.4642 36.4258 71.373C36.3255 71.9746 36.166 72.6331 35.9473 73.3486L33.9922 80H32.8438L30.1846 70.0059H31.415L32.9941 76.1787C33.2129 77.0446 33.3724 77.8285 33.4727 78.5303C33.5957 77.6963 33.778 76.8805 34.0195 76.083L35.8105 70.0059H37.041L38.9209 76.1377C39.1396 76.8441 39.3242 77.6416 39.4746 78.5303C39.5612 77.8831 39.7253 77.0947 39.9668 76.165L41.5391 70.0059H42.7695L40.0967 80ZM50.7909 76.2471C50.7909 77.4684 50.4832 78.4232 49.868 79.1113C49.2528 79.7949 48.4028 80.1367 47.3182 80.1367C46.6483 80.1367 46.0536 79.9795 45.534 79.665C45.0145 79.3506 44.6135 78.8994 44.3309 78.3115C44.0483 77.7236 43.9071 77.0355 43.9071 76.2471C43.9071 75.0257 44.2124 74.0755 44.8231 73.3965C45.4338 72.7129 46.2814 72.3711 47.3661 72.3711C48.4142 72.3711 49.2459 72.7197 49.8612 73.417C50.481 74.1143 50.7909 75.0576 50.7909 76.2471ZM45.0829 76.2471C45.0829 77.2041 45.2743 77.9333 45.6571 78.4346C46.0399 78.9359 46.6027 79.1865 47.3455 79.1865C48.0884 79.1865 48.6512 78.9382 49.034 78.4414C49.4214 77.9401 49.6151 77.2087 49.6151 76.2471C49.6151 75.2946 49.4214 74.5723 49.034 74.0801C48.6512 73.5833 48.0838 73.335 47.3319 73.335C46.589 73.335 46.0285 73.5788 45.6502 74.0664C45.272 74.554 45.0829 75.2809 45.0829 76.2471ZM56.3649 72.3711C56.6976 72.3711 56.9961 72.3984 57.2604 72.4531L57.1032 73.5059C56.7933 73.4375 56.5199 73.4033 56.2829 73.4033C55.6768 73.4033 55.1572 73.6494 54.7243 74.1416C54.2959 74.6338 54.0817 75.2467 54.0817 75.9805V80H52.947V72.5078H53.8835L54.0134 73.8955H54.068C54.346 73.4079 54.681 73.0319 55.0729 72.7676C55.4649 72.5033 55.8955 72.3711 56.3649 72.3711ZM59.9429 76.165C60.1389 75.887 60.4374 75.5225 60.8384 75.0713L63.2583 72.5078H64.605L61.5698 75.7002L64.8169 80H63.4429L60.7974 76.459L59.9429 77.1973V80H58.8218V69.3633H59.9429V75.0029C59.9429 75.2536 59.9247 75.641 59.8882 76.165H59.9429ZM71.1703 77.9561C71.1703 78.6533 70.9105 79.1911 70.391 79.5693C69.8714 79.9476 69.1423 80.1367 68.2035 80.1367C67.21 80.1367 66.4352 79.9795 65.8793 79.665V78.6123C66.2393 78.7946 66.6244 78.9382 67.0345 79.043C67.4492 79.1478 67.848 79.2002 68.2308 79.2002C68.8233 79.2002 69.279 79.1068 69.598 78.9199C69.917 78.7285 70.0765 78.4391 70.0765 78.0518C70.0765 77.7601 69.9489 77.5117 69.6937 77.3066C69.4431 77.097 68.9509 76.8509 68.2171 76.5684C67.5199 76.3086 67.0231 76.083 66.7269 75.8916C66.4352 75.6956 66.2165 75.4746 66.0707 75.2285C65.9294 74.9824 65.8587 74.6885 65.8587 74.3467C65.8587 73.736 66.1071 73.2552 66.6039 72.9043C67.1006 72.5488 67.7819 72.3711 68.6478 72.3711C69.4545 72.3711 70.2429 72.5352 71.013 72.8633L70.6097 73.7861C69.8578 73.4762 69.1765 73.3213 68.5658 73.3213C68.028 73.3213 67.6224 73.4056 67.349 73.5742C67.0755 73.7428 66.9388 73.9753 66.9388 74.2715C66.9388 74.472 66.989 74.6429 67.0892 74.7842C67.194 74.9255 67.3604 75.0599 67.5882 75.1875C67.8161 75.3151 68.2536 75.4997 68.9007 75.7412C69.7894 76.0648 70.3887 76.3906 70.6986 76.7188C71.013 77.0469 71.1703 77.4593 71.1703 77.9561ZM75.6027 79.2002C75.8033 79.2002 75.9969 79.1865 76.1838 79.1592C76.3706 79.1273 76.5187 79.0954 76.6281 79.0635V79.9316C76.5051 79.9909 76.3228 80.0387 76.0812 80.0752C75.8443 80.1162 75.6301 80.1367 75.4387 80.1367C73.9895 80.1367 73.2648 79.3734 73.2648 77.8467V73.3896H72.1916V72.8428L73.2648 72.3711L73.7434 70.7715H74.3996V72.5078H76.5734V73.3896H74.3996V77.7988C74.3996 78.25 74.5067 78.5964 74.7209 78.8379C74.9351 79.0794 75.229 79.2002 75.6027 79.2002ZM82.8995 80L82.6739 78.9336H82.6192C82.2455 79.403 81.8718 79.722 81.4981 79.8906C81.1289 80.0547 80.6664 80.1367 80.1104 80.1367C79.3676 80.1367 78.7842 79.9453 78.3604 79.5625C77.9411 79.1797 77.7315 78.6351 77.7315 77.9287C77.7315 76.4157 78.9414 75.6227 81.3614 75.5498L82.6329 75.5088V75.0439C82.6329 74.4561 82.5052 74.0231 82.25 73.7451C81.9994 73.4626 81.5961 73.3213 81.0401 73.3213C80.4157 73.3213 79.7093 73.5127 78.9209 73.8955L78.5723 73.0273C78.9414 72.8268 79.3448 72.6696 79.7823 72.5557C80.2243 72.4417 80.6664 72.3848 81.1084 72.3848C82.0017 72.3848 82.6625 72.583 83.0909 72.9795C83.5238 73.376 83.7403 74.0117 83.7403 74.8867V80H82.8995ZM80.336 79.2002C81.0424 79.2002 81.5961 79.0065 81.9971 78.6191C82.4027 78.2318 82.6055 77.6895 82.6055 76.9922V76.3154L81.4707 76.3633C80.5684 76.3952 79.9167 76.5365 79.5157 76.7871C79.1192 77.0332 78.9209 77.4183 78.9209 77.9424C78.9209 78.3525 79.044 78.6647 79.2901 78.8789C79.5407 79.0931 79.8894 79.2002 80.336 79.2002ZM88.6649 79.2002C88.8654 79.2002 89.0591 79.1865 89.246 79.1592C89.4328 79.1273 89.5809 79.0954 89.6903 79.0635V79.9316C89.5673 79.9909 89.385 80.0387 89.1434 80.0752C88.9065 80.1162 88.6923 80.1367 88.5009 80.1367C87.0516 80.1367 86.327 79.3734 86.327 77.8467V73.3896H85.2538V72.8428L86.327 72.3711L86.8055 70.7715H87.4618V72.5078H89.6356V73.3896H87.4618V77.7988C87.4618 78.25 87.5689 78.5964 87.7831 78.8379C87.9973 79.0794 88.2912 79.2002 88.6649 79.2002ZM92.489 80H91.3542V72.5078H92.489V80ZM91.2585 70.4775C91.2585 70.2178 91.3223 70.0286 91.4499 69.9102C91.5775 69.7871 91.737 69.7256 91.9284 69.7256C92.1107 69.7256 92.268 69.7871 92.4001 69.9102C92.5323 70.0332 92.5984 70.2223 92.5984 70.4775C92.5984 70.7327 92.5323 70.9242 92.4001 71.0518C92.268 71.1748 92.1107 71.2363 91.9284 71.2363C91.737 71.2363 91.5775 71.1748 91.4499 71.0518C91.3223 70.9242 91.2585 70.7327 91.2585 70.4775ZM101.522 76.2471C101.522 77.4684 101.214 78.4232 100.599 79.1113C99.9839 79.7949 99.134 80.1367 98.0494 80.1367C97.3795 80.1367 96.7847 79.9795 96.2652 79.665C95.7457 79.3506 95.3446 78.8994 95.0621 78.3115C94.7795 77.7236 94.6382 77.0355 94.6382 76.2471C94.6382 75.0257 94.9436 74.0755 95.5543 73.3965C96.1649 72.7129 97.0126 72.3711 98.0972 72.3711C99.1454 72.3711 99.9771 72.7197 100.592 73.417C101.212 74.1143 101.522 75.0576 101.522 76.2471ZM95.814 76.2471C95.814 77.2041 96.0054 77.9333 96.3882 78.4346C96.7711 78.9359 97.3339 79.1865 98.0767 79.1865C98.8196 79.1865 99.3824 78.9382 99.7652 78.4414C100.153 77.9401 100.346 77.2087 100.346 76.2471C100.346 75.2946 100.153 74.5723 99.7652 74.0801C99.3824 73.5833 98.815 73.335 98.063 73.335C97.3202 73.335 96.7597 73.5788 96.3814 74.0664C96.0031 74.554 95.814 75.2809 95.814 76.2471ZM108.805 80V75.1533C108.805 74.5426 108.666 74.0869 108.388 73.7861C108.11 73.4854 107.675 73.335 107.082 73.335C106.299 73.335 105.724 73.5469 105.36 73.9707C104.995 74.3945 104.813 75.0941 104.813 76.0693V80H103.678V72.5078H104.601L104.786 73.5332H104.84C105.073 73.1641 105.399 72.8792 105.818 72.6787C106.237 72.4736 106.704 72.3711 107.219 72.3711C108.121 72.3711 108.801 72.5898 109.256 73.0273C109.712 73.4603 109.94 74.1553 109.94 75.1123V80H108.805Z" fill="black"/>
<path d="M361.831 331H360.682L358.666 324.308C358.57 324.011 358.463 323.638 358.344 323.187C358.226 322.735 358.164 322.464 358.16 322.373C358.06 322.975 357.9 323.633 357.681 324.349L355.726 331H354.578L351.919 321.006H353.149L354.728 327.179C354.947 328.045 355.106 328.828 355.207 329.53C355.33 328.696 355.512 327.881 355.754 327.083L357.545 321.006H358.775L360.655 327.138C360.874 327.844 361.058 328.642 361.209 329.53C361.295 328.883 361.459 328.095 361.701 327.165L363.273 321.006H364.504L361.831 331ZM372.525 327.247C372.525 328.468 372.217 329.423 371.602 330.111C370.987 330.795 370.137 331.137 369.052 331.137C368.382 331.137 367.788 330.979 367.268 330.665C366.749 330.351 366.348 329.899 366.065 329.312C365.782 328.724 365.641 328.035 365.641 327.247C365.641 326.026 365.947 325.076 366.557 324.396C367.168 323.713 368.016 323.371 369.1 323.371C370.148 323.371 370.98 323.72 371.595 324.417C372.215 325.114 372.525 326.058 372.525 327.247ZM366.817 327.247C366.817 328.204 367.008 328.933 367.391 329.435C367.774 329.936 368.337 330.187 369.08 330.187C369.822 330.187 370.385 329.938 370.768 329.441C371.155 328.94 371.349 328.209 371.349 327.247C371.349 326.295 371.155 325.572 370.768 325.08C370.385 324.583 369.818 324.335 369.066 324.335C368.323 324.335 367.763 324.579 367.384 325.066C367.006 325.554 366.817 326.281 366.817 327.247ZM378.099 323.371C378.432 323.371 378.73 323.398 378.995 323.453L378.837 324.506C378.527 324.438 378.254 324.403 378.017 324.403C377.411 324.403 376.891 324.649 376.458 325.142C376.03 325.634 375.816 326.247 375.816 326.98V331H374.681V323.508H375.618L375.747 324.896H375.802C376.08 324.408 376.415 324.032 376.807 323.768C377.199 323.503 377.63 323.371 378.099 323.371ZM381.677 327.165C381.873 326.887 382.171 326.522 382.572 326.071L384.992 323.508H386.339L383.304 326.7L386.551 331H385.177L382.531 327.459L381.677 328.197V331H380.556V320.363H381.677V326.003C381.677 326.254 381.659 326.641 381.622 327.165H381.677ZM392.904 328.956C392.904 329.653 392.645 330.191 392.125 330.569C391.606 330.948 390.876 331.137 389.938 331.137C388.944 331.137 388.169 330.979 387.613 330.665V329.612C387.973 329.795 388.358 329.938 388.769 330.043C389.183 330.148 389.582 330.2 389.965 330.2C390.557 330.2 391.013 330.107 391.332 329.92C391.651 329.729 391.811 329.439 391.811 329.052C391.811 328.76 391.683 328.512 391.428 328.307C391.177 328.097 390.685 327.851 389.951 327.568C389.254 327.309 388.757 327.083 388.461 326.892C388.169 326.696 387.951 326.475 387.805 326.229C387.663 325.982 387.593 325.688 387.593 325.347C387.593 324.736 387.841 324.255 388.338 323.904C388.835 323.549 389.516 323.371 390.382 323.371C391.189 323.371 391.977 323.535 392.747 323.863L392.344 324.786C391.592 324.476 390.911 324.321 390.3 324.321C389.762 324.321 389.357 324.406 389.083 324.574C388.81 324.743 388.673 324.975 388.673 325.271C388.673 325.472 388.723 325.643 388.823 325.784C388.928 325.925 389.094 326.06 389.322 326.188C389.55 326.315 389.988 326.5 390.635 326.741C391.524 327.065 392.123 327.391 392.433 327.719C392.747 328.047 392.904 328.459 392.904 328.956ZM398.403 331.137C397.916 331.137 397.469 331.048 397.063 330.87C396.662 330.688 396.325 330.41 396.052 330.036H395.97C396.024 330.474 396.052 330.888 396.052 331.28V334.363H394.917V323.508H395.84L395.997 324.533H396.052C396.343 324.123 396.683 323.827 397.07 323.645C397.458 323.462 397.902 323.371 398.403 323.371C399.397 323.371 400.162 323.711 400.7 324.39C401.242 325.069 401.514 326.021 401.514 327.247C401.514 328.478 401.238 329.435 400.686 330.118C400.14 330.797 399.379 331.137 398.403 331.137ZM398.239 324.335C397.474 324.335 396.92 324.547 396.578 324.971C396.236 325.395 396.061 326.069 396.052 326.994V327.247C396.052 328.3 396.227 329.054 396.578 329.51C396.929 329.961 397.492 330.187 398.267 330.187C398.914 330.187 399.42 329.924 399.784 329.4C400.153 328.876 400.338 328.154 400.338 327.233C400.338 326.299 400.153 325.584 399.784 325.087C399.42 324.586 398.905 324.335 398.239 324.335ZM408.27 331L408.045 329.934H407.99C407.616 330.403 407.243 330.722 406.869 330.891C406.5 331.055 406.037 331.137 405.481 331.137C404.738 331.137 404.155 330.945 403.731 330.562C403.312 330.18 403.102 329.635 403.102 328.929C403.102 327.416 404.312 326.623 406.732 326.55L408.004 326.509V326.044C408.004 325.456 407.876 325.023 407.621 324.745C407.37 324.463 406.967 324.321 406.411 324.321C405.787 324.321 405.08 324.513 404.292 324.896L403.943 324.027C404.312 323.827 404.716 323.67 405.153 323.556C405.595 323.442 406.037 323.385 406.479 323.385C407.372 323.385 408.033 323.583 408.462 323.979C408.895 324.376 409.111 325.012 409.111 325.887V331H408.27ZM405.707 330.2C406.413 330.2 406.967 330.007 407.368 329.619C407.774 329.232 407.976 328.689 407.976 327.992V327.315L406.842 327.363C405.939 327.395 405.288 327.536 404.886 327.787C404.49 328.033 404.292 328.418 404.292 328.942C404.292 329.353 404.415 329.665 404.661 329.879C404.912 330.093 405.26 330.2 405.707 330.2ZM414.61 331.137C413.525 331.137 412.684 330.804 412.087 330.139C411.495 329.469 411.199 328.523 411.199 327.302C411.199 326.049 411.5 325.08 412.101 324.396C412.707 323.713 413.569 323.371 414.685 323.371C415.045 323.371 415.405 323.41 415.765 323.487C416.125 323.565 416.408 323.656 416.613 323.761L416.264 324.725C416.014 324.624 415.74 324.542 415.444 324.479C415.148 324.41 414.886 324.376 414.658 324.376C413.136 324.376 412.375 325.347 412.375 327.288C412.375 328.209 412.559 328.915 412.928 329.407C413.302 329.899 413.853 330.146 414.583 330.146C415.207 330.146 415.847 330.011 416.504 329.742V330.747C416.002 331.007 415.371 331.137 414.61 331.137ZM421.613 331.137C420.505 331.137 419.63 330.799 418.988 330.125C418.35 329.451 418.031 328.514 418.031 327.315C418.031 326.108 418.327 325.148 418.919 324.438C419.516 323.727 420.316 323.371 421.319 323.371C422.258 323.371 423 323.681 423.547 324.301C424.094 324.916 424.368 325.729 424.368 326.741V327.459H419.206C419.229 328.339 419.45 329.006 419.87 329.462C420.293 329.918 420.888 330.146 421.654 330.146C422.46 330.146 423.258 329.977 424.046 329.64V330.651C423.645 330.825 423.265 330.948 422.905 331.021C422.549 331.098 422.119 331.137 421.613 331.137ZM421.305 324.321C420.704 324.321 420.223 324.517 419.863 324.909C419.507 325.301 419.298 325.843 419.234 326.536H423.151C423.151 325.821 422.991 325.274 422.672 324.896C422.353 324.513 421.898 324.321 421.305 324.321ZM365.096 345.989C365.096 347.589 364.691 348.847 363.88 349.763C363.073 350.679 361.95 351.137 360.509 351.137C359.037 351.137 357.9 350.688 357.098 349.79C356.301 348.888 355.902 347.616 355.902 345.976C355.902 344.349 356.303 343.089 357.105 342.195C357.907 341.298 359.047 340.849 360.523 340.849C361.959 340.849 363.08 341.304 363.886 342.216C364.693 343.127 365.096 344.385 365.096 345.989ZM357.132 345.989C357.132 347.343 357.42 348.37 357.994 349.072C358.573 349.77 359.411 350.118 360.509 350.118C361.617 350.118 362.453 349.77 363.018 349.072C363.583 348.375 363.866 347.347 363.866 345.989C363.866 344.645 363.583 343.626 363.018 342.934C362.458 342.236 361.626 341.888 360.523 341.888C359.416 341.888 358.573 342.239 357.994 342.94C357.42 343.638 357.132 344.654 357.132 345.989ZM367.492 341.006H370.315C371.641 341.006 372.6 341.204 373.193 341.601C373.785 341.997 374.082 342.624 374.082 343.48C374.082 344.073 373.915 344.563 373.583 344.95C373.254 345.333 372.774 345.581 372.14 345.695V345.764C373.658 346.023 374.416 346.821 374.416 348.156C374.416 349.049 374.113 349.747 373.507 350.248C372.906 350.749 372.063 351 370.978 351H367.492V341.006ZM368.654 345.285H370.568C371.388 345.285 371.978 345.158 372.338 344.902C372.698 344.643 372.878 344.207 372.878 343.597C372.878 343.036 372.678 342.633 372.277 342.387C371.876 342.136 371.238 342.011 370.363 342.011H368.654V345.285ZM368.654 346.27V350.009H370.739C371.545 350.009 372.152 349.854 372.557 349.544C372.967 349.229 373.172 348.74 373.172 348.074C373.172 347.454 372.963 346.999 372.543 346.707C372.129 346.415 371.495 346.27 370.643 346.27H368.654ZM377.892 346.844V351H376.73V341.006H379.471C380.697 341.006 381.602 341.241 382.185 341.71C382.773 342.179 383.067 342.886 383.067 343.829C383.067 345.151 382.397 346.044 381.057 346.509L383.771 351H382.397L379.977 346.844H377.892ZM377.892 345.846H379.485C380.305 345.846 380.907 345.684 381.289 345.36C381.672 345.032 381.864 344.542 381.864 343.891C381.864 343.23 381.668 342.754 381.276 342.462C380.888 342.17 380.264 342.024 379.403 342.024H377.892V345.846ZM389.341 341.006H392.164C393.49 341.006 394.45 341.204 395.042 341.601C395.634 341.997 395.931 342.624 395.931 343.48C395.931 344.073 395.764 344.563 395.432 344.95C395.104 345.333 394.623 345.581 393.989 345.695V345.764C395.507 346.023 396.266 346.821 396.266 348.156C396.266 349.049 395.963 349.747 395.356 350.248C394.755 350.749 393.912 351 392.827 351H389.341V341.006ZM390.503 345.285H392.417C393.237 345.285 393.827 345.158 394.188 344.902C394.548 344.643 394.728 344.207 394.728 343.597C394.728 343.036 394.527 342.633 394.126 342.387C393.725 342.136 393.087 342.011 392.212 342.011H390.503V345.285ZM390.503 346.27V350.009H392.588C393.395 350.009 394.001 349.854 394.406 349.544C394.816 349.229 395.021 348.74 395.021 348.074C395.021 347.454 394.812 346.999 394.393 346.707C393.978 346.415 393.344 346.27 392.492 346.27H390.503ZM399.474 343.508V348.368C399.474 348.979 399.613 349.435 399.891 349.735C400.169 350.036 400.605 350.187 401.197 350.187C401.981 350.187 402.553 349.972 402.913 349.544C403.278 349.116 403.46 348.416 403.46 347.445V343.508H404.595V351H403.658L403.494 349.995H403.432C403.2 350.364 402.876 350.647 402.462 350.843C402.052 351.039 401.582 351.137 401.054 351.137C400.142 351.137 399.459 350.92 399.003 350.487C398.552 350.054 398.326 349.362 398.326 348.409V343.508H399.474ZM408.302 351H407.168V343.508H408.302V351ZM407.072 341.478C407.072 341.218 407.136 341.029 407.263 340.91C407.391 340.787 407.55 340.726 407.742 340.726C407.924 340.726 408.081 340.787 408.214 340.91C408.346 341.033 408.412 341.222 408.412 341.478C408.412 341.733 408.346 341.924 408.214 342.052C408.081 342.175 407.924 342.236 407.742 342.236C407.55 342.236 407.391 342.175 407.263 342.052C407.136 341.924 407.072 341.733 407.072 341.478ZM412.003 351H410.869V340.363H412.003V351ZM419.669 349.995H419.608C419.084 350.756 418.3 351.137 417.256 351.137C416.276 351.137 415.513 350.802 414.966 350.132C414.424 349.462 414.153 348.509 414.153 347.274C414.153 346.039 414.426 345.08 414.973 344.396C415.52 343.713 416.281 343.371 417.256 343.371C418.272 343.371 419.052 343.74 419.594 344.479H419.683L419.635 343.938L419.608 343.412V340.363H420.743V351H419.82L419.669 349.995ZM417.4 350.187C418.175 350.187 418.735 349.977 419.081 349.558C419.432 349.134 419.608 348.452 419.608 347.514V347.274C419.608 346.213 419.43 345.456 419.075 345.005C418.724 344.549 418.161 344.321 417.386 344.321C416.721 344.321 416.21 344.581 415.855 345.101C415.504 345.616 415.328 346.345 415.328 347.288C415.328 348.245 415.504 348.967 415.855 349.455C416.206 349.943 416.721 350.187 417.4 350.187Z" fill="black"/>
<path d="M389.47 189.995V310.002" stroke="black"/>
<path d="M389.494 439.003L392.38 434.003H386.607L389.494 439.003ZM388.994 359.997V434.503H389.994V359.997H388.994Z" fill="black"/>
<rect x="352.5" y="439.5" width="72" height="19" rx="4.5" fill="white"/>
<path d="M384.049 448.989C384.049 450.589 383.643 451.847 382.832 452.763C382.025 453.679 380.902 454.137 379.462 454.137C377.99 454.137 376.853 453.688 376.051 452.79C375.253 451.888 374.854 450.616 374.854 448.976C374.854 447.349 375.256 446.089 376.058 445.195C376.86 444.298 377.999 443.849 379.476 443.849C380.911 443.849 382.032 444.304 382.839 445.216C383.646 446.127 384.049 447.385 384.049 448.989ZM376.085 448.989C376.085 450.343 376.372 451.37 376.946 452.072C377.525 452.77 378.364 453.118 379.462 453.118C380.569 453.118 381.406 452.77 381.971 452.072C382.536 451.375 382.818 450.347 382.818 448.989C382.818 447.645 382.536 446.626 381.971 445.934C381.41 445.236 380.578 444.888 379.476 444.888C378.368 444.888 377.525 445.239 376.946 445.94C376.372 446.638 376.085 447.654 376.085 448.989ZM386.444 444.006H389.267C390.594 444.006 391.553 444.204 392.145 444.601C392.738 444.997 393.034 445.624 393.034 446.48C393.034 447.073 392.868 447.563 392.535 447.95C392.207 448.333 391.726 448.581 391.093 448.695V448.764C392.61 449.023 393.369 449.821 393.369 451.156C393.369 452.049 393.066 452.747 392.46 453.248C391.858 453.749 391.015 454 389.931 454H386.444V444.006ZM387.606 448.285H389.52C390.341 448.285 390.931 448.158 391.291 447.902C391.651 447.643 391.831 447.207 391.831 446.597C391.831 446.036 391.63 445.633 391.229 445.387C390.828 445.136 390.19 445.011 389.315 445.011H387.606V448.285ZM387.606 449.27V453.009H389.691C390.498 453.009 391.104 452.854 391.51 452.544C391.92 452.229 392.125 451.74 392.125 451.074C392.125 450.454 391.915 449.999 391.496 449.707C391.081 449.415 390.448 449.27 389.596 449.27H387.606ZM396.844 449.844V454H395.682V444.006H398.424C399.649 444.006 400.554 444.241 401.137 444.71C401.725 445.179 402.019 445.886 402.019 446.829C402.019 448.151 401.349 449.044 400.009 449.509L402.723 454H401.349L398.929 449.844H396.844ZM396.844 448.846H398.437C399.257 448.846 399.859 448.684 400.242 448.36C400.625 448.032 400.816 447.542 400.816 446.891C400.816 446.23 400.62 445.754 400.228 445.462C399.841 445.17 399.216 445.024 398.355 445.024H396.844V448.846Z" fill="#DA6F5A"/>
<rect x="352.5" y="439.5" width="72" height="19" rx="4.5" stroke="#DA6F5A"/>
<rect x="31" y="91" width="719" height="408" stroke="#82A4D9" stroke-width="2" stroke-dasharray="4 4"/>
<path d="M20.7639 13.8H18.6239V27H20.7639V13.8ZM29.8405 16.8C28.4005 16.8 27.1405 17.36 26.4605 18.68L26.3605 17H24.4605V27H26.6005V21.7C26.6005 19.4 28.0005 18.56 29.3205 18.56C30.5405 18.56 31.4605 19.22 31.4605 21.2V27H33.6005V20.52C33.6005 18.02 31.9605 16.8 29.8405 16.8ZM40.6233 27.2C43.3833 27.2 44.9833 25.94 44.9833 24.18C44.9833 22.52 43.9633 21.66 41.1033 21.14C39.2233 20.8 38.6433 20.42 38.6433 19.7C38.6433 19.08 39.4833 18.48 40.7233 18.48C42.0233 18.48 42.8833 18.98 43.3833 20.18L44.9033 19.06C44.1833 17.52 42.9233 16.8 40.7033 16.8C38.0233 16.8 36.5033 18.28 36.5033 19.9C36.5033 21.58 37.5433 22.44 40.5233 23C42.2633 23.34 42.8433 23.7 42.8433 24.32C42.8433 25 42.1233 25.52 40.7033 25.52C39.3033 25.52 38.1233 25.06 37.6033 23.86L36.1633 25.1C37.0033 26.56 38.6833 27.2 40.6233 27.2ZM48.8292 15.32C49.7492 15.32 50.2492 14.82 50.2492 13.98C50.2492 13.14 49.7492 12.66 48.8292 12.66C47.9092 12.66 47.3892 13.14 47.3892 13.98C47.3892 14.82 47.9092 15.32 48.8292 15.32ZM49.8892 17H47.7492V27H49.8892V17ZM60.5175 12.5V18.62C59.9175 17.52 58.7775 16.8 57.2975 16.8C54.5775 16.8 52.8575 18.74 52.8575 22.02C52.8575 25.28 54.5575 27.2 57.2775 27.2C58.8575 27.2 60.0775 26.38 60.6575 25.2L60.7775 27H62.6575V12.5H60.5175ZM57.7575 25.48C56.0375 25.48 54.9975 24.18 54.9975 22C54.9975 19.82 56.0375 18.54 57.7575 18.54C59.4375 18.54 60.5175 19.8 60.5175 21.88V22.12C60.5175 24.22 59.4375 25.48 57.7575 25.48ZM75.0756 21.7C75.0756 18.8 73.4356 16.8 70.4356 16.8C67.3156 16.8 65.5556 18.74 65.5556 22C65.5556 25.26 67.4156 27.2 70.5756 27.2C72.7756 27.2 74.1556 26.36 74.8756 24.88L73.0956 24.14C72.7756 25.02 71.8956 25.5 70.5756 25.5C68.9556 25.5 67.9156 24.56 67.6756 22.8H74.9956C75.0356 22.54 75.0756 22.08 75.0756 21.7ZM70.4356 18.5C71.9356 18.5 72.8756 19.48 73.0756 21.16H67.6956C67.9156 19.44 68.8556 18.5 70.4356 18.5ZM93.2206 25.6C92.6806 25.6 92.4806 25.36 92.4806 24.86V20.34C92.4806 17.94 90.7606 16.8 88.2606 16.8C86.0806 16.8 84.5406 17.82 84.0606 19.4L85.7206 20.28C86.1406 19.02 87.0606 18.48 88.3006 18.48C89.6006 18.48 90.3406 19.26 90.3406 20.46V20.98L87.8006 21.44C85.1806 21.9 83.9006 23.04 83.9006 24.58C83.9006 26.32 85.2806 27.2 87.1606 27.2C88.6406 27.2 89.9206 26.66 90.5406 25.7C90.7606 26.8 91.5006 27.2 92.5806 27.2C93.0806 27.2 93.5006 27.1 93.8206 26.96L93.9606 25.52C93.7406 25.58 93.4806 25.6 93.2206 25.6ZM87.6206 25.58C86.6806 25.58 86.1206 25.18 86.1206 24.44C86.1206 23.64 86.8006 23.18 88.1606 22.92L90.3406 22.48V23.68C90.3406 24.88 88.9606 25.58 87.6206 25.58ZM101.527 16.8C100.087 16.8 98.8269 17.36 98.1469 18.68L98.0469 17H96.1469V27H98.2869V21.7C98.2869 19.4 99.6869 18.56 101.007 18.56C102.227 18.56 103.147 19.22 103.147 21.2V27H105.287V20.52C105.287 18.02 103.647 16.8 101.527 16.8ZM117.794 13.8H115.654V27H117.794V13.8ZM126.528 13.8H121.868V27H126.528C130.668 27 133.088 24.64 133.088 20.4C133.088 16.16 130.668 13.8 126.528 13.8ZM126.528 25.18H124.008V15.62H126.528C129.308 15.62 130.848 17.36 130.848 20.4C130.848 23.44 129.308 25.18 126.528 25.18ZM138.563 25.16V21.24H144.363V19.44H138.563V15.64H145.983V13.8H136.423V27H146.263V25.16H138.563Z" fill="black"/>
</svg>
