<svg xml:space="preserve" style="enable-background:new 0 0 730 416" viewBox="0 0 730 416" xmlns="http://www.w3.org/2000/svg">
  <style>
    .ecosystem-overview_svg__st0{fill:#fff}.ecosystem-overview_svg__st1,.ecosystem-overview_svg__st4,.ecosystem-overview_svg__st5{fill:none;stroke:#000;stroke-miterlimit:10}.ecosystem-overview_svg__st4{stroke-dasharray:1.0022,4.0088}.ecosystem-overview_svg__st5{stroke-dasharray:.9976,3.9903}.ecosystem-overview_svg__st6{fill:#161616}.ecosystem-overview_svg__st10{fill:#9ebae3}.ecosystem-overview_svg__st51{stroke:#161616}.ecosystem-overview_svg__st51,.ecosystem-overview_svg__st52,.ecosystem-overview_svg__st53{fill:none;stroke-miterlimit:10}.ecosystem-overview_svg__st52{stroke:#000;stroke-dasharray:1.0024,4.0094}.ecosystem-overview_svg__st53{stroke:#000;stroke-dasharray:1.0057,4.0229}
  </style>
  <g id="ecosystem-overview_svg__images_1_">
    <path d="M273 1h456v414H273z" class="ecosystem-overview_svg__st0"/>
    <path d="M273 1.5V1h.5" class="ecosystem-overview_svg__st1"/>
    <path d="M277.5 1h449" class="ecosystem-overview_svg__st4"/>
    <path d="M728.5 1h.5v.5" class="ecosystem-overview_svg__st1"/>
    <path d="M729 5.5v407" class="ecosystem-overview_svg__st5"/>
    <path d="M729 414.5v.5h-.5" class="ecosystem-overview_svg__st1"/>
    <path d="M724.5 415h-449" class="ecosystem-overview_svg__st4"/>
    <path d="M273.5 415h-.5v-.5" class="ecosystem-overview_svg__st1"/>
    <path d="M273 410.5V3.5" class="ecosystem-overview_svg__st5"/>
    <path d="M136 115.5h120v1H136zm128 .5-8-4v8zm-120 47.5h120v1H144zm-8 .5 8 4v-8zm0 103.5h120v1H136zm128 .5-8-4v8zm-120 47.5h120v1H144zm-8 .5 8 4v-8z" class="ecosystem-overview_svg__st6"/>
    <path d="M.5 111.5h127v64H.5z" class="ecosystem-overview_svg__st0"/>
    <path d="M127 112v63H1v-63h126m1-1H0v65h128v-65z"/>
    <path d="M.5 88.5h127v23H.5z" style="fill:#f8f68f"/>
    <path d="M127 89v22H1V89h126m1-1H0v24h128V88z"/>
    <path d="M.5 263.5h127v64H.5z" class="ecosystem-overview_svg__st0"/>
    <path d="M127 264v63H1v-63h126m1-1H0v65h128v-65z"/>
    <path d="M.5 240.5h127v23H.5z" style="fill:#efa284"/>
    <path d="M127 241v22H1v-22h126m1-1H0v24h128v-24z"/>
    <path d="M288 48h426v352H288z" style="fill:#f4f4f4"/>
    <path d="M714 48.5V48h-.5" class="ecosystem-overview_svg__st1"/>
    <path d="M709.5 48h-419" class="ecosystem-overview_svg__st52"/>
    <path d="M288.5 48h-.5v.5" class="ecosystem-overview_svg__st1"/>
    <path d="M288 52.5v345" class="ecosystem-overview_svg__st53"/>
    <path d="M288 399.5v.5h.5" class="ecosystem-overview_svg__st1"/>
    <path d="M292.5 400h419" class="ecosystem-overview_svg__st52"/>
    <path d="M713.5 400h.5v-.5" class="ecosystem-overview_svg__st1"/>
    <path d="M714 395.5v-345" class="ecosystem-overview_svg__st53"/>
    <path d="M63.5 293H61v1h6v-1h-2.5v-7h-5.6c-.2-1.1-1.2-2-2.4-2-1.4 0-2.5 1.1-2.5 2.5s1.1 2.5 2.5 2.5c1.2 0 2.2-.9 2.4-2h4.6v6zm-7-5c-.8 0-1.5-.7-1.5-1.5s.7-1.5 1.5-1.5 1.5.7 1.5 1.5-.7 1.5-1.5 1.5zm15 15c-1.2 0-2.2.9-2.4 2h-4.6v-6H67v-1h-6v1h2.5v7h5.6c.2 1.1 1.2 2 2.4 2 1.4 0 2.5-1.1 2.5-2.5s-1.1-2.5-2.5-2.5zm0 4c-.8 0-1.5-.7-1.5-1.5s.7-1.5 1.5-1.5 1.5.7 1.5 1.5-.7 1.5-1.5 1.5z" class="ecosystem-overview_svg__st6"/>
    <path d="M3.5 208.5h269" style="fill:none;stroke:#000;stroke-miterlimit:10;stroke-dasharray:1,4"/>
    <path d="M50 134v21h28v-21H50zm27 20H51v-16h26v16zm0-17H51v-2h26v2zm-11.2 4.1-1-.3-2.9 10 1 .3 2.9-10zm3.6 9.3 4.4-4.4-4.4-4.4-.7.7 3.6 3.6-3.6 3.6.7.9zm-10-.8-3.6-3.6 3.6-3.6-.7-.7-4.4 4.4 4.4 4.4.7-.9z" class="ecosystem-overview_svg__st6"/>
    <path d="M321.5 235.6v-41.3l36-20.7 35 20.7v41.3l-35 20.8z" class="ecosystem-overview_svg__st10"/>
    <path d="m357.5 174.2 34.5 20.4v40.7l-34.5 20.6-35.5-20.6v-40.7l35.5-20.4m0-1.2L321 194v41.8l36.5 21.2 35.5-21.2V194l-35.5-21z" class="ecosystem-overview_svg__st6"/>
    <path d="m321.5 194.5 36 20.5 35-20.5m-35 20.6V256" class="ecosystem-overview_svg__st51"/>
    <path d="M417.5 235.6v-41.3l36-20.7 35 20.7v41.3l-35 20.8z" class="ecosystem-overview_svg__st10"/>
    <path d="m453.5 174.2 34.5 20.4v40.7l-34.5 20.6-35.5-20.6v-40.7l35.5-20.4m0-1.2L417 194v41.8l36.5 21.2 35.5-21.2V194l-35.5-21z" class="ecosystem-overview_svg__st6"/>
    <path d="m417.5 194.5 36 20.5 35-20.5m-35 20.6V256" class="ecosystem-overview_svg__st51"/>
    <path d="M513.5 235.6v-41.3l36-20.7 35 20.7v41.3l-35 20.8z" class="ecosystem-overview_svg__st10"/>
    <path d="m549.5 174.2 34.5 20.4v40.7l-34.5 20.6-35.5-20.6v-40.7l35.5-20.4m0-1.2L513 194v41.8l36.5 21.2 35.5-21.2V194l-35.5-21z" class="ecosystem-overview_svg__st6"/>
    <path d="m513.5 194.5 36 20.5 35-20.5m-35 20.6V256" class="ecosystem-overview_svg__st51"/>
    <path d="M609.5 235.6v-41.3l36-20.7 35 20.7v41.3l-35 20.8z" class="ecosystem-overview_svg__st10"/>
    <path d="m645.5 174.2 34.5 20.4v40.7l-34.5 20.6-35.5-20.6v-40.7l35.5-20.4m0-1.2L609 194v41.8l36.5 21.2 35.5-21.2V194l-35.5-21z" class="ecosystem-overview_svg__st6"/>
    <path d="m609.5 194.5 36 20.5 35-20.5m-35 20.6V256" class="ecosystem-overview_svg__st51"/>
  </g>
  <g id="ecosystem-overview_svg__text">
    <path d="M158 102.3c0 .8-.3 1.3-.8 1.8s-1.3.6-2.2.6c-1 0-1.8-.1-2.3-.4v-1c.4.1.7.3 1.1.4s.8.1 1.2.1c.7 0 1.2-.1 1.5-.4s.5-.6.5-1.1c0-.3-.1-.5-.2-.7s-.3-.4-.6-.5-.7-.3-1.3-.5c-.8-.3-1.4-.6-1.7-1s-.5-.9-.5-1.5c0-.7.2-1.2.7-1.6s1.2-.6 2-.6c.9 0 1.6.2 2.3.5l-.3.9c-.7-.3-1.4-.4-2.1-.4-.5 0-.9.1-1.2.3s-.4.5-.4.9c0 .3.1.5.2.7s.3.4.6.5.7.3 1.2.5c.9.3 1.5.7 1.9 1s.4.9.4 1.5zm2.5-4.2v4.2c0 .5.1.9.4 1.2s.6.4 1.1.4c.7 0 1.2-.2 1.5-.6s.5-1 .5-1.8v-3.4h1v6.4h-.8l-.1-.9h-.1c-.2.3-.5.6-.8.7s-.8.3-1.2.3c-.8 0-1.4-.2-1.8-.6s-.6-1-.6-1.8V98h.9zm9.5-.1c.8 0 1.5.3 2 .9s.7 1.4.7 2.4-.2 1.9-.7 2.5-1.1.9-2 .9c-.4 0-.8-.1-1.1-.2s-.6-.4-.9-.7h-.1l-.2.8h-.7v-9.1h1V99c.4-.6 1.1-1 2-1zm-.2.8c-.7 0-1.1.2-1.4.6s-.4 1-.4 1.9.2 1.5.5 1.9.8.6 1.4.6c.6 0 1-.2 1.3-.7s.4-1.1.4-1.9c0-.8-.1-1.5-.4-1.9s-.8-.5-1.4-.5zm12.7 5.8v-4.2c0-.5-.1-.9-.3-1.2s-.6-.4-1-.4c-.6 0-1.1.2-1.3.5s-.4.9-.4 1.6v3.6h-1v-4.2c0-.5-.1-.9-.3-1.2s-.6-.4-1-.4c-.6 0-1.1.2-1.3.5s-.4 1-.4 1.8v3.4h-1V98h.8l.2.9c.2-.3.4-.6.8-.7s.7-.3 1.1-.3c1 0 1.7.4 2 1.1.2-.3.5-.6.8-.8s.8-.3 1.2-.3c.7 0 1.3.2 1.6.6s.5 1 .5 1.8v4.2h-1zm2.9-8.2c0-.2.1-.4.2-.5s.2-.2.4-.2.3.1.4.2.2.3.2.5-.1.4-.2.5-.3.1-.4.1c-.2 0-.3-.1-.4-.2s-.2-.2-.2-.4zm1.1 8.2h-1v-6.4h1v6.4zm4.1-.7h.5c.2 0 .3-.1.4-.1v.7c-.1.1-.3.1-.5.1h-.6c-1.2 0-1.9-.7-1.9-2v-3.8h-.9v-.5l.9-.4.4-1.4h.6V98h1.9v.8h-1.9v3.8c0 .4.1.7.3.9s.5.4.8.4zm7.4 0h.5c.2 0 .3-.1.4-.1v.7c-.1.1-.3.1-.5.1h-.6c-1.2 0-1.9-.7-1.9-2v-3.8h-.9v-.5l1-.3.4-1.4h.6v1.5h1.9v.8H197v3.8c0 .4.1.7.3.9s.3.3.7.3zm4.8.8c-.9 0-1.7-.3-2.2-.9s-.8-1.4-.8-2.4.3-1.9.8-2.5 1.2-.9 2.1-.9c.8 0 1.4.3 1.9.8s.7 1.2.7 2.1v.6h-4.4c0 .8.2 1.3.6 1.7s.9.6 1.5.6c.7 0 1.4-.1 2.1-.4v.9c-.3.1-.7.3-1 .3s-.8.1-1.3.1zm-.2-5.9c-.5 0-.9.2-1.2.5s-.5.8-.5 1.4h3.4c0-.6-.1-1.1-.4-1.4s-.8-.5-1.3-.5zm8.4 4c0 .6-.2 1.1-.7 1.4s-1.1.5-1.9.5c-.9 0-1.5-.1-2-.4v-.9c.3.2.6.3 1 .4s.7.1 1 .1c.5 0 .9-.1 1.2-.2s.4-.4.4-.7c0-.2-.1-.5-.3-.6s-.6-.4-1.3-.6c-.6-.2-1-.4-1.3-.6s-.4-.4-.6-.6-.2-.5-.2-.8c0-.5.2-.9.6-1.2s1-.5 1.8-.5c.7 0 1.4.1 2 .4l-.3.8c-.6-.3-1.2-.4-1.8-.4-.5 0-.8.1-1 .2s-.4.3-.4.6c0 .2 0 .3.1.4s.2.2.4.3.6.3 1.1.5c.8.3 1.3.6 1.5.8s.7.7.7 1.1zm3.7 1.1h.5c.2 0 .3-.1.4-.1v.7c-.1.1-.3.1-.5.1h-.6c-1.2 0-1.9-.7-1.9-2v-3.8h-.9v-.5l.9-.4.4-1.4h.6V98h1.9v.8h-1.9v3.8c0 .4.1.7.3.9s.4.4.8.4zm6.3-1.1c0 .6-.2 1.1-.7 1.4s-1.1.5-1.9.5c-.9 0-1.5-.1-2-.4v-.9c.3.2.6.3 1 .4s.7.1 1 .1c.5 0 .9-.1 1.2-.2s.4-.4.4-.7c0-.2-.1-.5-.3-.6s-.6-.4-1.3-.6c-.6-.2-1-.4-1.3-.6s-.4-.4-.6-.6-.2-.5-.2-.8c0-.5.2-.9.6-1.2s1-.5 1.8-.5c.7 0 1.4.1 2 .4l-.3.8c-.6-.3-1.2-.4-1.8-.4-.5 0-.8.1-1 .2s-.4.3-.4.6c0 .2 0 .3.1.4s.2.2.4.3.6.3 1.1.5c.8.3 1.3.6 1.5.8s.7.7.7 1.1zm-60.4 45.5c0 1.1-.2 2-.7 2.7s-1.1 1.2-1.9 1.5l2 2.1h-1.4l-1.7-1.9h-.3c-1.3 0-2.2-.4-2.9-1.2s-1-1.9-1-3.3.3-2.5 1-3.2 1.7-1.2 2.9-1.2 2.2.4 2.9 1.2 1.1 1.9 1.1 3.3zm-6.8 0c0 1.2.2 2 .7 2.6s1.2.9 2.2.9c.9 0 1.7-.3 2.2-.9s.7-1.5.7-2.6c0-1.2-.2-2-.7-2.6s-1.2-.9-2.1-.9c-.9 0-1.7.3-2.2.9s-.8 1.4-.8 2.6zm9.5-2.2v4.2c0 .5.1.9.4 1.2s.6.4 1.1.4c.7 0 1.2-.2 1.5-.6s.5-1 .5-1.8v-3.4h1v6.4h-.8l-.1-.9h-.1c-.2.3-.5.6-.8.7s-.8.3-1.2.3c-.8 0-1.4-.2-1.8-.6s-.6-1-.6-1.8V146h.9zm9.2 6.6c-.9 0-1.7-.3-2.2-.9s-.8-1.4-.8-2.4.3-1.9.8-2.5 1.2-.9 2.1-.9c.8 0 1.4.3 1.9.8s.7 1.2.7 2.1v.6h-4.4c0 .8.2 1.3.6 1.7s.9.6 1.5.6c.7 0 1.4-.1 2.1-.4v.9c-.3.1-.7.3-1 .3s-.9.1-1.3.1zm-.3-5.9c-.5 0-.9.2-1.2.5s-.5.8-.5 1.4h3.4c0-.6-.1-1.1-.4-1.4s-.8-.5-1.3-.5zm7.2-.8c.3 0 .5 0 .8.1l-.2.9c-.3-.1-.5-.1-.7-.1-.5 0-1 .2-1.3.6s-.6.9-.6 1.6v3.4h-1v-6.4h.8l.1 1.2c.2-.4.5-.7.9-1s.8-.3 1.2-.3zm1 .1h1l1.4 3.7c.3.8.5 1.4.6 1.8.1-.2.2-.5.3-1s.7-2 1.6-4.5h1l-2.8 7.3c-.3.7-.6 1.2-1 1.5s-.8.5-1.3.5c-.3 0-.6 0-.9-.1v-.8c.2 0 .5.1.7.1.7 0 1.1-.4 1.4-1.1l.4-.9-2.4-6.5zm13.1-.1c.3 0 .5 0 .8.1l-.1.9c-.3-.1-.5-.1-.7-.1-.5 0-1 .2-1.3.6s-.6.9-.6 1.6v3.4h-1v-6.4h.8l.1 1.2c.2-.4.5-.7.9-1s.7-.3 1.1-.3zm4.6 6.7c-.9 0-1.7-.3-2.2-.9s-.8-1.4-.8-2.4.3-1.9.8-2.5 1.2-.9 2.1-.9c.8 0 1.4.3 1.9.8s.7 1.2.7 2.1v.6h-4.4c0 .8.2 1.3.6 1.7s.9.6 1.5.6c.7 0 1.4-.1 2.1-.4v.9c-.3.1-.7.3-1 .3s-.8.1-1.3.1zm-.2-5.9c-.5 0-.9.2-1.2.5s-.5.8-.5 1.4h3.4c0-.6-.1-1.1-.4-1.4s-.8-.5-1.3-.5zm8.4 4c0 .6-.2 1.1-.7 1.4s-1.1.5-1.9.5c-.9 0-1.5-.1-2-.4v-.9c.3.2.6.3 1 .4s.7.1 1 .1c.5 0 .9-.1 1.2-.2s.4-.4.4-.7c0-.2-.1-.5-.3-.6s-.6-.4-1.3-.6c-.6-.2-1-.4-1.3-.6s-.4-.4-.6-.6-.2-.5-.2-.8c0-.5.2-.9.6-1.2s1-.5 1.8-.5c.7 0 1.4.1 2 .4l-.3.8c-.6-.3-1.2-.4-1.8-.4-.5 0-.8.1-1 .2s-.4.3-.4.6c0 .2 0 .3.1.4s.2.2.4.3.6.3 1.1.5c.8.3 1.3.6 1.5.8s.7.7.7 1.1zm2.5-4.7v4.2c0 .5.1.9.4 1.2s.6.4 1.1.4c.7 0 1.2-.2 1.5-.6s.5-1 .5-1.8v-3.4h1v6.4h-.8l-.1-.9h-.1c-.2.3-.5.6-.8.7s-.8.3-1.2.3c-.8 0-1.4-.2-1.8-.6s-.6-1-.6-1.8V146h.9zm7.4 6.5h-1v-9.1h1v9.1zm4.2-.7h.5c.2 0 .3-.1.4-.1v.7c-.1.1-.3.1-.5.1h-.6c-1.2 0-1.9-.7-1.9-2v-3.8h-.9v-.5l.9-.4.4-1.4h.6v1.5h1.9v.8h-1.9v3.8c0 .4.1.7.3.9s.4.4.8.4zm6.3-1.1c0 .6-.2 1.1-.7 1.4s-1.1.5-1.9.5c-.9 0-1.5-.1-2-.4v-.9c.3.2.6.3 1 .4s.7.1 1 .1c.5 0 .9-.1 1.2-.2s.4-.4.4-.7c0-.2-.1-.5-.3-.6s-.6-.4-1.3-.6c-.6-.2-1-.4-1.3-.6s-.4-.4-.6-.6-.2-.5-.2-.8c0-.5.2-.9.6-1.2s1-.5 1.8-.5c.7 0 1.4.1 2 .4l-.3.8c-.6-.3-1.2-.4-1.8-.4-.5 0-.8.1-1 .2s-.4.3-.4.6c0 .2 0 .3.1.4s.2.2.4.3.6.3 1.1.5c.8.3 1.3.6 1.5.8s.7.7.7 1.1zM158 254.3c0 .8-.3 1.3-.8 1.8s-1.3.6-2.2.6c-1 0-1.8-.1-2.3-.4v-1c.4.1.7.3 1.1.4s.8.1 1.2.1c.7 0 1.2-.1 1.5-.4s.5-.6.5-1.1c0-.3-.1-.5-.2-.7s-.3-.4-.6-.5-.7-.3-1.3-.5c-.8-.3-1.4-.6-1.7-1s-.5-.9-.5-1.5c0-.7.2-1.2.7-1.6s1.2-.6 2-.6c.9 0 1.6.2 2.3.5l-.3.9c-.7-.3-1.4-.4-2.1-.4-.5 0-.9.1-1.2.3s-.4.5-.4.9c0 .3.1.5.2.7s.3.4.6.5.7.3 1.2.5c.9.3 1.5.7 1.9 1s.4.9.4 1.5zm2.5-4.2v4.2c0 .5.1.9.4 1.2s.6.4 1.1.4c.7 0 1.2-.2 1.5-.6s.5-1 .5-1.8v-3.4h1v6.4h-.8l-.1-.9h-.1c-.2.3-.5.6-.8.7s-.8.3-1.2.3c-.8 0-1.4-.2-1.8-.6s-.6-1-.6-1.8V250h.9zm9.5-.1c.8 0 1.5.3 2 .9s.7 1.4.7 2.4-.2 1.9-.7 2.5-1.1.9-2 .9c-.4 0-.8-.1-1.1-.2s-.6-.4-.9-.7h-.1l-.2.8h-.7v-9.1h1v3.5c.4-.6 1.1-1 2-1zm-.2.8c-.7 0-1.1.2-1.4.6s-.4 1-.4 1.9.2 1.5.5 1.9.8.6 1.4.6c.6 0 1-.2 1.3-.7s.4-1.1.4-1.9c0-.8-.1-1.5-.4-1.9s-.8-.5-1.4-.5zm12.7 5.8v-4.2c0-.5-.1-.9-.3-1.2s-.6-.4-1-.4c-.6 0-1.1.2-1.3.5s-.4.9-.4 1.6v3.6h-1v-4.2c0-.5-.1-.9-.3-1.2s-.6-.4-1-.4c-.6 0-1.1.2-1.3.5s-.4 1-.4 1.8v3.4h-1V250h.8l.2.9c.2-.3.4-.6.8-.7s.7-.3 1.1-.3c1 0 1.7.4 2 1.1.2-.3.5-.6.8-.8s.8-.3 1.2-.3c.7 0 1.3.2 1.6.6s.5 1 .5 1.8v4.2h-1zm2.9-8.2c0-.2.1-.4.2-.5s.2-.2.4-.2.3.1.4.2.2.3.2.5-.1.4-.2.5-.2.2-.4.2-.3-.1-.4-.2-.2-.3-.2-.5zm1.1 8.2h-1v-6.4h1v6.4zm4.1-.7h.5c.2 0 .3-.1.4-.1v.7c-.1.1-.3.1-.5.1h-.6c-1.2 0-1.9-.7-1.9-2v-3.8h-.9v-.5l.9-.4.4-1.4h.6v1.5h1.9v.8h-1.9v3.8c0 .4.1.7.3.9s.5.4.8.4zm7.4 0h.5c.2 0 .3-.1.4-.1v.7c-.1.1-.3.1-.5.1h-.6c-1.2 0-1.9-.7-1.9-2v-3.8h-.9v-.5l.9-.4.4-1.4h.6v1.5h1.9v.8h-1.9v3.8c0 .4.1.7.3.9s.4.4.8.4zm4.8.8c-.9 0-1.7-.3-2.2-.9s-.8-1.4-.8-2.4.3-1.9.8-2.5 1.2-.9 2.1-.9c.8 0 1.4.3 1.9.8s.7 1.2.7 2.1v.6h-4.4c0 .8.2 1.3.6 1.7s.9.6 1.5.6c.7 0 1.4-.1 2.1-.4v.9c-.3.1-.7.3-1 .3s-.8.1-1.3.1zm-.2-5.9c-.5 0-.9.2-1.2.5s-.5.8-.5 1.4h3.4c0-.6-.1-1.1-.4-1.4s-.8-.5-1.3-.5zm8.4 4c0 .6-.2 1.1-.7 1.4s-1.1.5-1.9.5c-.9 0-1.5-.1-2-.4v-.9c.3.2.6.3 1 .4s.7.1 1 .1c.5 0 .9-.1 1.2-.2s.4-.4.4-.7c0-.2-.1-.5-.3-.6s-.6-.4-1.3-.6c-.6-.2-1-.4-1.3-.6s-.4-.4-.6-.6-.2-.5-.2-.8c0-.5.2-.9.6-1.2s1-.5 1.8-.5c.7 0 1.4.1 2 .4l-.3.8c-.6-.3-1.2-.4-1.8-.4-.5 0-.8.1-1 .2s-.4.3-.4.6c0 .2 0 .3.1.4s.2.2.4.3.6.3 1.1.5c.8.3 1.3.6 1.5.8s.7.7.7 1.1zm3.7 1.1h.5c.2 0 .3-.1.4-.1v.7c-.1.1-.3.1-.5.1h-.6c-1.2 0-1.9-.7-1.9-2v-3.8h-.9v-.5l.9-.4.4-1.4h.6v1.5h1.9v.8h-1.9v3.8c0 .4.1.7.3.9s.4.4.8.4zm6.3-1.1c0 .6-.2 1.1-.7 1.4s-1.1.5-1.9.5c-.9 0-1.5-.1-2-.4v-.9c.3.2.6.3 1 .4s.7.1 1 .1c.5 0 .9-.1 1.2-.2s.4-.4.4-.7c0-.2-.1-.5-.3-.6s-.6-.4-1.3-.6c-.6-.2-1-.4-1.3-.6s-.4-.4-.6-.6-.2-.5-.2-.8c0-.5.2-.9.6-1.2s1-.5 1.8-.5c.7 0 1.4.1 2 .4l-.3.8c-.6-.3-1.2-.4-1.8-.4-.5 0-.8.1-1 .2s-.4.3-.4.6c0 .2 0 .3.1.4s.2.2.4.3.6.3 1.1.5c.8.3 1.3.6 1.5.8s.7.7.7 1.1zm-60.4 45.5c0 1.1-.2 2-.7 2.7s-1.1 1.2-1.9 1.5l2 2.1h-1.4l-1.7-1.9h-.3c-1.3 0-2.2-.4-2.9-1.2s-1-1.9-1-3.3.3-2.5 1-3.2 1.7-1.2 2.9-1.2 2.2.4 2.9 1.2 1.1 1.9 1.1 3.3zm-6.8 0c0 1.2.2 2 .7 2.6s1.2.9 2.2.9c.9 0 1.7-.3 2.2-.9s.7-1.5.7-2.6c0-1.2-.2-2-.7-2.6s-1.2-.9-2.1-.9c-.9 0-1.7.3-2.2.9s-.8 1.4-.8 2.6zm9.5-2.2v4.2c0 .5.1.9.4 1.2s.6.4 1.1.4c.7 0 1.2-.2 1.5-.6s.5-1 .5-1.8v-3.4h1v6.4h-.8l-.1-.9h-.1c-.2.3-.5.6-.8.7s-.8.3-1.2.3c-.8 0-1.4-.2-1.8-.6s-.6-1-.6-1.8V298h.9zm9.2 6.6c-.9 0-1.7-.3-2.2-.9s-.8-1.4-.8-2.4.3-1.9.8-2.5 1.2-.9 2.1-.9c.8 0 1.4.3 1.9.8s.7 1.2.7 2.1v.6h-4.4c0 .8.2 1.3.6 1.7s.9.6 1.5.6c.7 0 1.4-.1 2.1-.4v.9c-.3.1-.7.3-1 .3s-.9.1-1.3.1zm-.3-5.9c-.5 0-.9.2-1.2.5s-.5.8-.5 1.4h3.4c0-.6-.1-1.1-.4-1.4s-.8-.5-1.3-.5zm7.2-.8c.3 0 .5 0 .8.1l-.2.9c-.3-.1-.5-.1-.7-.1-.5 0-1 .2-1.3.6s-.6.9-.6 1.6v3.4h-1v-6.4h.8l.1 1.2c.2-.4.5-.7.9-1s.8-.3 1.2-.3zm1 .1h1l1.4 3.7c.3.8.5 1.4.6 1.8.1-.2.2-.5.3-1s.7-2 1.6-4.5h1l-2.8 7.3c-.3.7-.6 1.2-1 1.5s-.8.5-1.3.5c-.3 0-.6 0-.9-.1v-.8c.2 0 .5.1.7.1.7 0 1.1-.4 1.4-1.1l.4-.9-2.4-6.5zm13.1-.1c.3 0 .5 0 .8.1l-.1.9c-.3-.1-.5-.1-.7-.1-.5 0-1 .2-1.3.6s-.6.9-.6 1.6v3.4h-1v-6.4h.8l.1 1.2c.2-.4.5-.7.9-1s.7-.3 1.1-.3zm4.6 6.7c-.9 0-1.7-.3-2.2-.9s-.8-1.4-.8-2.4.3-1.9.8-2.5 1.2-.9 2.1-.9c.8 0 1.4.3 1.9.8s.7 1.2.7 2.1v.6h-4.4c0 .8.2 1.3.6 1.7s.9.6 1.5.6c.7 0 1.4-.1 2.1-.4v.9c-.3.1-.7.3-1 .3s-.8.1-1.3.1zm-.2-5.9c-.5 0-.9.2-1.2.5s-.5.8-.5 1.4h3.4c0-.6-.1-1.1-.4-1.4s-.8-.5-1.3-.5zm8.4 4c0 .6-.2 1.1-.7 1.4s-1.1.5-1.9.5c-.9 0-1.5-.1-2-.4v-.9c.3.2.6.3 1 .4s.7.1 1 .1c.5 0 .9-.1 1.2-.2s.4-.4.4-.7c0-.2-.1-.5-.3-.6s-.6-.4-1.3-.6c-.6-.2-1-.4-1.3-.6s-.4-.4-.6-.6-.2-.5-.2-.8c0-.5.2-.9.6-1.2s1-.5 1.8-.5c.7 0 1.4.1 2 .4l-.3.8c-.6-.3-1.2-.4-1.8-.4-.5 0-.8.1-1 .2s-.4.3-.4.6c0 .2 0 .3.1.4s.2.2.4.3.6.3 1.1.5c.8.3 1.3.6 1.5.8s.7.7.7 1.1zm2.5-4.7v4.2c0 .5.1.9.4 1.2s.6.4 1.1.4c.7 0 1.2-.2 1.5-.6s.5-1 .5-1.8v-3.4h1v6.4h-.8l-.1-.9h-.1c-.2.3-.5.6-.8.7s-.8.3-1.2.3c-.8 0-1.4-.2-1.8-.6s-.6-1-.6-1.8V298h.9zm7.4 6.5h-1v-9.1h1v9.1zm4.2-.7h.5c.2 0 .3-.1.4-.1v.7c-.1.1-.3.1-.5.1h-.6c-1.2 0-1.9-.7-1.9-2v-3.8h-.9v-.5l.9-.4.4-1.4h.6v1.5h1.9v.8h-1.9v3.8c0 .4.1.7.3.9s.4.4.8.4zm6.3-1.1c0 .6-.2 1.1-.7 1.4s-1.1.5-1.9.5c-.9 0-1.5-.1-2-.4v-.9c.3.2.6.3 1 .4s.7.1 1 .1c.5 0 .9-.1 1.2-.2s.4-.4.4-.7c0-.2-.1-.5-.3-.6s-.6-.4-1.3-.6c-.6-.2-1-.4-1.3-.6s-.4-.4-.6-.6-.2-.5-.2-.8c0-.5.2-.9.6-1.2s1-.5 1.8-.5c.7 0 1.4.1 2 .4l-.3.8c-.6-.3-1.2-.4-1.8-.4-.5 0-.8.1-1 .2s-.4.3-.4.6c0 .2 0 .3.1.4s.2.2.4.3.6.3 1.1.5c.8.3 1.3.6 1.5.8s.7.7.7 1.1z" class="ecosystem-overview_svg__st6"/>
    <path d="M9.2 104.6V96h1v8.6h-1zm10.2-4.4c0 1.4-.4 2.5-1.2 3.2s-1.9 1.1-3.3 1.1h-2.4V96h2.6c1.3 0 2.4.4 3.1 1.1s1.2 1.8 1.2 3.1zm-1.1 0c0-1.1-.3-2-.8-2.5s-1.4-.8-2.5-.8h-1.4v6.8h1.2c1.2 0 2.1-.3 2.7-.9s.8-1.4.8-2.6zm7.7 4.4h-4.8V96H26v.9h-3.8v2.8h3.6v.9h-3.6v3.2H26v.8zM14.6 250.5c0 .9-.3 1.5-.9 2s-1.4.7-2.5.7h-1v3.4h-1V248h2.2c2.1 0 3.2.8 3.2 2.5zm-4.4 1.8h.9c.9 0 1.5-.1 1.9-.4s.6-.7.6-1.4c0-.6-.2-1-.6-1.3s-.9-.4-1.7-.4h-1.1v3.5zm6-3.9c0-.2.1-.4.2-.5s.2-.2.4-.2.3.1.4.2.2.3.2.5-.1.4-.2.5-.2.2-.4.2-.3-.1-.4-.2-.2-.3-.2-.5zm1 8.2h-1v-6.4h1v6.4zm5.1.1c-.4 0-.8-.1-1.1-.2s-.6-.4-.9-.7h-.1c0 .4.1.7.1 1.1v2.6h-1v-9.3h.8l.1.9c.2-.4.5-.6.9-.8s.7-.2 1.1-.2c.9 0 1.5.3 2 .9s.7 1.4.7 2.4c0 1.1-.2 1.9-.7 2.5s-1.1.8-1.9.8zm-.2-5.9c-.7 0-1.1.2-1.4.5s-.4.9-.5 1.7v.2c0 .9.2 1.5.5 1.9s.8.6 1.4.6c.6 0 1-.2 1.3-.7s.5-1.1.5-1.9c0-.8-.2-1.4-.5-1.8s-.7-.5-1.3-.5zm7.3 5.9c-.9 0-1.7-.3-2.2-.9s-.8-1.4-.8-2.4.3-1.9.8-2.5 1.2-.9 2.1-.9c.8 0 1.4.3 1.9.8s.7 1.2.7 2.1v.6h-4.4c0 .8.2 1.3.6 1.7s.9.6 1.5.6c.7 0 1.4-.1 2.1-.4v.9c-.3.1-.7.3-1 .3s-.9.1-1.3.1zm-.3-5.9c-.5 0-.9.2-1.2.5s-.5.8-.5 1.4h3.4c0-.6-.1-1.1-.4-1.4s-.8-.5-1.3-.5zm5.2 5.8h-1v-9.1h1v9.1zm2-8.2c0-.2.1-.4.2-.5s.2-.2.4-.2.3.1.4.2.2.3.2.5-.1.4-.2.5-.2.2-.4.2-.3-.1-.4-.2-.2-.3-.2-.5zm1.1 8.2h-1v-6.4h1v6.4zm6.4 0v-4.2c0-.5-.1-.9-.4-1.2s-.6-.4-1.1-.4c-.7 0-1.2.2-1.5.5s-.5 1-.5 1.8v3.4h-1v-6.4h.8l.2.9c.2-.3.5-.6.8-.7s.8-.3 1.2-.3c.8 0 1.4.2 1.7.6s.6 1 .6 1.8v4.2h-.8zm5.7.1c-.9 0-1.7-.3-2.2-.9s-.8-1.4-.8-2.4.3-1.9.8-2.5 1.2-.9 2.1-.9c.8 0 1.4.3 1.9.8s.7 1.2.7 2.1v.6h-4.4c0 .8.2 1.3.6 1.7s.9.6 1.5.6c.7 0 1.4-.1 2.1-.4v.9c-.3.1-.7.3-1 .3s-.8.1-1.3.1zm-.2-5.9c-.5 0-.9.2-1.2.5s-.5.8-.5 1.4H51c0-.6-.1-1.1-.4-1.4s-.8-.5-1.3-.5z"/>
    <path d="M309.9 75.8c-1 0-1.9-.2-2.6-.7-.7-.4-1.3-1.1-1.7-1.9s-.6-1.8-.6-2.9c0-1.1.2-2.1.6-2.9.4-.8 1-1.4 1.8-1.9.8-.4 1.7-.7 2.7-.7 1.1 0 2 .2 2.7.6.7.4 1.2 1 1.6 1.9l-1.6.8c-.2-.6-.5-1-1-1.3-.5-.3-1-.4-1.7-.4s-1.2.2-1.7.5-.9.8-1.2 1.4-.4 1.3-.4 2.1.1 1.6.4 2.2c.2.6.6 1 1.1 1.4s1.1.5 1.8.5c.4 0 .8-.1 1.1-.2.3-.1.6-.3.9-.4.3-.2.5-.4.6-.8.1-.3.2-.7.2-1.1v-.3h-3.1v-1.4h4.6v5.4h-1.3l-.1-2.1.3.2c-.3.7-.7 1.2-1.3 1.6s-1.2.4-2.1.4zm11.6-5.3c0-.5-.1-.9-.4-1.2-.3-.3-.7-.4-1.2-.4s-.9.1-1.2.3c-.3.2-.6.6-.8 1.1l-1.4-.6c.2-.7.6-1.2 1.2-1.6s1.4-.6 2.3-.6c.6 0 1.2.1 1.7.3.5.2.9.5 1.2.9.3.4.4.9.4 1.6v3.6c0 .4.2.6.6.6.2 0 .4 0 .6-.1l-.1 1.2c-.2.1-.6.2-.9.2-.3 0-.6-.1-.9-.2-.3-.1-.5-.3-.6-.6-.2-.3-.2-.6-.2-.9V74h.4c-.1.4-.3.8-.6 1s-.6.5-1 .6-.8.2-1.2.2c-.5 0-1-.1-1.4-.2-.4-.2-.7-.4-.9-.7-.2-.3-.3-.7-.3-1.2 0-.6.2-1.1.6-1.5.4-.4.9-.6 1.7-.8l3.1-.6V72l-2.3.5c-.4.1-.8.2-1 .4-.2.2-.3.4-.3.7 0 .3.1.5.3.7.2.2.5.3.9.3.3 0 .5 0 .8-.1s.5-.2.7-.3c.2-.1.4-.3.5-.6.1-.2.2-.5.2-.8v-2.3zm6.2-6.5v9.4c0 .4.1.7.2.8s.4.2.7.2h.5c.1 0 .3-.1.5-.2l-.2 1.3c-.2.1-.4.2-.6.2-.2 0-.5.1-.7.1-.7 0-1.2-.2-1.6-.6-.3-.4-.5-.9-.5-1.7V64h1.7zm8 6.5c0-.5-.1-.9-.4-1.2-.3-.3-.7-.4-1.2-.4s-.9.1-1.2.3c-.3.2-.6.6-.8 1.1l-1.4-.6c.2-.7.6-1.2 1.2-1.6s1.4-.6 2.3-.6c.6 0 1.2.1 1.7.3.5.2.9.5 1.2.9.3.4.4.9.4 1.6v3.6c0 .4.2.6.6.6.2 0 .4 0 .6-.1l-.1 1.2c-.2.1-.6.2-.9.2-.3 0-.6-.1-.9-.2-.3-.1-.5-.3-.6-.6-.2-.3-.2-.6-.2-.9V74h.4c-.1.4-.3.8-.6 1s-.6.5-1 .6-.8.2-1.2.2c-.5 0-1-.1-1.4-.2-.4-.2-.7-.4-.9-.7-.2-.3-.3-.7-.3-1.2 0-.6.2-1.1.6-1.5.4-.4.9-.6 1.7-.8l3.1-.6V72l-2.3.5c-.4.1-.8.2-1 .4-.2.2-.3.4-.3.7 0 .3.1.5.3.7.2.2.5.3.9.3.3 0 .5 0 .8-.1s.5-.2.7-.3c.2-.1.4-.3.5-.6.1-.2.2-.5.2-.8v-2.3zm7.5 5.3c-.8 0-1.5-.2-2.2-.5-.7-.3-1.2-.7-1.6-1.3l1.2-1c.2.4.6.8 1 1 .4.3 1 .4 1.6.4.5 0 .9-.1 1.2-.3.3-.2.4-.4.4-.7 0-.2-.1-.4-.2-.5s-.4-.3-.8-.4l-1.7-.4c-.9-.2-1.5-.4-1.8-.8-.4-.4-.5-.9-.5-1.4 0-.4.1-.8.4-1.2.3-.4.6-.7 1.1-.9s1.1-.3 1.8-.3c.8 0 1.5.1 2 .4s1 .7 1.3 1.2l-1.2 1c-.2-.4-.5-.7-.9-1s-.8-.3-1.2-.3c-.3 0-.6 0-.9.1-.2.1-.4.2-.6.4s-.2.3-.2.5.1.4.2.6.4.3.9.4l1.8.4c.8.1 1.3.4 1.6.8.3.4.5.8.5 1.3s-.1 1-.4 1.4c-.3.4-.7.7-1.2.9-.3.1-.9.2-1.6.2zm10.1-5.3c0-.5-.1-.9-.4-1.2-.3-.3-.7-.4-1.2-.4s-.9.1-1.2.3c-.3.2-.6.6-.8 1.1l-1.4-.6c.2-.7.6-1.2 1.2-1.6s1.4-.6 2.3-.6c.6 0 1.2.1 1.7.3.5.2.9.5 1.2.9.3.4.4.9.4 1.6v3.6c0 .4.2.6.6.6.2 0 .4 0 .6-.1l-.1 1.2c-.2.1-.6.2-.9.2-.3 0-.6-.1-.9-.2-.3-.1-.5-.3-.6-.6-.2-.3-.2-.6-.2-.9V74h.4c-.1.4-.3.8-.6 1s-.6.5-1 .6-.8.2-1.2.2c-.5 0-1-.1-1.4-.2-.4-.2-.7-.4-.9-.7-.2-.3-.3-.7-.3-1.2 0-.6.2-1.1.6-1.5.4-.4.9-.6 1.7-.8l3.1-.6V72l-2.3.5c-.4.1-.8.2-1 .4-.2.2-.3.4-.3.7 0 .3.1.5.3.7.2.2.5.3.9.3.3 0 .5 0 .8-.1s.5-.2.7-.3c.2-.1.4-.3.5-.6.1-.2.2-.5.2-.8v-2.3zm12.9 5.3c-.8 0-1.5-.2-2.1-.5-.6-.3-1.1-.8-1.4-1.4s-.5-1.4-.5-2.2.2-1.6.5-2.2.8-1.1 1.4-1.4c.6-.3 1.3-.5 2-.5.8 0 1.4.2 2 .5.5.3 1 .8 1.2 1.3.3.6.4 1.2.4 1.9v.9h-6.4v-1.3h5.7l-.8.3c0-.7-.2-1.3-.5-1.7-.4-.4-.9-.6-1.5-.6-.5 0-.9.1-1.2.3-.3.2-.6.5-.8 1-.2.4-.3.9-.3 1.5s.1 1.1.3 1.5.5.7.8.9c.4.2.8.3 1.2.3.5 0 1-.1 1.3-.3.3-.2.6-.5.8-.8l1.4.6c-.2.4-.5.7-.8 1-.3.3-.7.5-1.2.6-.5.2-1 .3-1.5.3zm9.2-8.4c.6 0 1.2.1 1.6.3s.8.5 1.1.8c.3.3.5.7.7 1.2l-1.6.6c-.1-.5-.4-.9-.7-1.1-.3-.3-.7-.4-1.2-.4s-.9.1-1.2.3c-.3.2-.6.5-.8 1s-.3.9-.3 1.5.1 1.1.3 1.5.4.7.8.9c.3.2.7.3 1.2.3.4 0 .7-.1.9-.2s.5-.3.7-.5c.2-.2.3-.5.4-.8l1.6.5c-.1.5-.4.9-.7 1.3s-.7.6-1.2.8c-.5.2-1 .3-1.6.3-.8 0-1.5-.2-2.1-.5-.6-.3-1.1-.8-1.4-1.4s-.5-1.4-.5-2.2.2-1.6.5-2.2.8-1.1 1.4-1.4c.6-.4 1.3-.6 2.1-.6zm9 0c.8 0 1.5.2 2.1.5.6.3 1.1.8 1.4 1.4s.5 1.4.5 2.2-.2 1.6-.5 2.2-.8 1.1-1.4 1.4c-.6.3-1.3.5-2.1.5s-1.5-.2-2.1-.5c-.6-.3-1.1-.8-1.4-1.4a5.09 5.09 0 0 1 0-4.4c.3-.6.8-1.1 1.4-1.4.6-.3 1.3-.5 2.1-.5zm0 1.4c-.5 0-.9.1-1.2.3s-.6.5-.8 1-.3.9-.3 1.5.1 1.1.3 1.5c.2.4.4.7.8 1 .3.2.7.3 1.2.3s.9-.1 1.2-.3c.3-.2.6-.5.8-1 .2-.4.3-.9.3-1.5s-.1-1.1-.3-1.5c-.2-.4-.4-.7-.8-1-.3-.2-.8-.3-1.2-.3zm9.1 7c-.8 0-1.5-.2-2.2-.5-.7-.3-1.2-.7-1.6-1.3l1.2-1c.2.4.6.8 1 1 .4.3 1 .4 1.6.4.5 0 .9-.1 1.2-.3.3-.2.4-.4.4-.7 0-.2-.1-.4-.2-.5s-.4-.3-.8-.4l-1.7-.4c-.9-.2-1.5-.4-1.8-.8-.4-.4-.5-.9-.5-1.4 0-.4.1-.8.4-1.2.3-.4.6-.7 1.1-.9s1.1-.3 1.8-.3c.8 0 1.5.1 2 .4s1 .7 1.3 1.2l-1.2 1c-.2-.4-.5-.7-.9-1s-.8-.3-1.2-.3c-.3 0-.6 0-.9.1-.2.1-.4.2-.6.4s-.2.3-.2.5.1.4.2.6.4.3.9.4l1.8.4c.8.1 1.3.4 1.6.8.3.4.5.8.5 1.3s-.1 1-.4 1.4c-.3.4-.7.7-1.2.9-.3.1-.9.2-1.6.2zm12.1-8.2-3.5 8.9c-.2.6-.5 1.1-.8 1.5-.3.4-.6.6-.9.8-.4.2-.8.2-1.2.2-.4 0-.7-.1-1.1-.2-.3-.1-.6-.2-.9-.4l.4-1.3c.2.2.4.3.6.4.2.1.5.1.7.1.3 0 .5-.1.8-.2.2-.2.4-.5.6-.9l.4-.9-.8-2-2.5-6.1h1.9l1.8 5 .5 1.5.5-1.6 1.7-4.9h1.8zm4.3 8.2c-.8 0-1.5-.2-2.2-.5-.7-.3-1.2-.7-1.6-1.3l1.2-1c.2.4.6.8 1 1 .4.3 1 .4 1.6.4.5 0 .9-.1 1.2-.3.3-.2.4-.4.4-.7 0-.2-.1-.4-.2-.5s-.4-.3-.8-.4l-1.7-.4c-.9-.2-1.5-.4-1.8-.8-.4-.4-.5-.9-.5-1.4 0-.4.1-.8.4-1.2.3-.4.6-.7 1.1-.9s1.1-.3 1.8-.3c.8 0 1.5.1 2 .4s1 .7 1.3 1.2l-1.2 1c-.2-.4-.5-.7-.9-1s-.8-.3-1.2-.3c-.3 0-.6 0-.9.1-.2.1-.4.2-.6.4s-.2.3-.2.5.1.4.2.6.4.3.9.4l1.8.4c.8.1 1.3.4 1.6.8.3.4.5.8.5 1.3s-.1 1-.4 1.4c-.3.4-.7.7-1.2.9-.3.1-.9.2-1.6.2zm10.5-8.2v1.3h-6v-1.3h6zm-2.8-2.4v8c0 .4.1.7.3.9.2.2.5.3.8.3.3 0 .5 0 .8-.1.2-.1.4-.2.6-.4l.4 1.2c-.2.2-.5.4-.9.5s-.8.2-1.2.2c-.5 0-.9-.1-1.3-.2s-.7-.4-.9-.7c-.2-.3-.3-.8-.3-1.3v-7.8l1.7-.6zm8 10.6c-.8 0-1.5-.2-2.1-.5-.6-.3-1.1-.8-1.4-1.4s-.5-1.4-.5-2.2.2-1.6.5-2.2.8-1.1 1.4-1.4c.6-.3 1.3-.5 2-.5.8 0 1.4.2 2 .5.5.3 1 .8 1.2 1.3.3.6.4 1.2.4 1.9v.9h-6.4v-1.3h5.7l-.8.3c0-.7-.2-1.3-.5-1.7-.4-.4-.9-.6-1.5-.6-.5 0-.9.1-1.2.3-.3.2-.6.5-.8 1-.2.4-.3.9-.3 1.5s.1 1.1.3 1.5.5.7.8.9c.4.2.8.3 1.2.3.5 0 1-.1 1.3-.3.3-.2.6-.5.8-.8l1.4.6c-.2.4-.5.7-.8 1-.3.3-.7.5-1.2.6-.5.2-.9.3-1.5.3zm5.7-.2v-8h1.5l.1 1.3c.3-.5.6-.9 1.1-1.1.5-.2 1-.4 1.5-.4.6 0 1.1.1 1.6.4.5.3.9.7 1.1 1.2.2-.4.4-.6.7-.9.3-.2.6-.4 1-.5.4-.1.7-.2 1.1-.2.5 0 1 .1 1.4.3s.8.5 1.1 1 .4 1 .4 1.7v5.2h-1.7v-4.9c0-.7-.2-1.1-.5-1.4-.3-.3-.7-.4-1.2-.4-.4 0-.7.1-1 .3-.3.2-.6.5-.8.8-.2.4-.3.8-.3 1.3v4.4h-1.7v-4.9c0-.7-.2-1.1-.5-1.4-.3-.3-.7-.4-1.2-.4-.3 0-.6.1-1 .3-.3.2-.6.4-.8.8-.2.4-.3.8-.3 1.4v4.3h-1.6z" class="ecosystem-overview_svg__st6"/>
    <path d="M291.3 17v10.6h-1.7V17h1.7zm6.9 0-4.7 5.1h-.2l-2.7 2.9-.2-1.9 5.7-6.2h2.1zm-4.3 3.8 4.4 6.8h-2l-3.8-5.8 1.4-1zm8.6 7c-.5 0-1-.1-1.4-.3-.4-.2-.8-.5-1.1-.9-.3-.4-.4-1-.4-1.7v-5.3h1.7v4.8c0 .7.2 1.2.5 1.5.3.3.7.4 1.3.4.3 0 .5 0 .8-.1.3-.1.5-.2.7-.4.2-.2.4-.5.5-.8.1-.3.2-.7.2-1.1v-4.3h1.7v8h-1.5l-.1-1.3c-.3.5-.7.9-1.1 1.1s-1.1.4-1.8.4zm11.3 0c-.5 0-.9-.1-1.3-.3-.4-.2-.7-.4-1-.8-.3-.3-.5-.7-.6-1.1l.2-.3-.1 2.2h-1.5V16h1.7v5.6l-.2-.3c.2-.6.5-1 1-1.4.5-.4 1.1-.5 1.8-.5.6 0 1.2.2 1.8.5.5.3 1 .8 1.3 1.4.3.6.5 1.4.5 2.3 0 .9-.2 1.6-.5 2.2-.3.6-.7 1.1-1.3 1.4-.5.4-1.1.6-1.8.6zm-.3-1.4c.7 0 1.2-.2 1.6-.7s.6-1.2.6-2-.2-1.5-.6-2c-.4-.5-.9-.7-1.6-.7-.4 0-.8.1-1.2.3-.3.2-.6.6-.8 1-.2.4-.3.9-.3 1.5s.1 1.1.3 1.5c.2.4.4.7.8 1 .3 0 .7.1 1.2.1zm9.6 1.4c-.8 0-1.5-.2-2.1-.5-.6-.3-1.1-.8-1.4-1.4s-.5-1.4-.5-2.2.2-1.6.5-2.2.8-1.1 1.4-1.4c.6-.3 1.3-.5 2-.5.8 0 1.4.2 2 .5.5.3 1 .8 1.2 1.3.3.6.4 1.2.4 1.9v.9h-6.4v-1.3h5.7l-.8.3c0-.7-.2-1.3-.5-1.7-.4-.4-.9-.6-1.5-.6-.5 0-.9.1-1.2.3-.3.2-.6.5-.8 1-.2.4-.3.9-.3 1.5s.1 1.1.3 1.5.5.7.8.9c.4.2.8.3 1.2.3.5 0 1-.1 1.3-.3.3-.2.6-.5.8-.8l1.4.6c-.2.4-.5.7-.8 1-.3.3-.7.5-1.2.6-.5.2-1 .3-1.5.3zm5.7-.2v-8h1.5l.2 1.4c.2-.5.5-.9 1-1.2.4-.3.9-.4 1.6-.4h.5c.2 0 .3.1.4.1l-.2 1.5c-.1 0-.2-.1-.4-.1h-.6c-.3 0-.7.1-1 .3-.3.2-.6.4-.8.8s-.3.8-.3 1.3v4.2h-1.9zm6.7 0v-8h1.5l.1 2.1-.2-.2c.1-.5.4-.8.6-1.1.3-.3.6-.5 1-.7.4-.1.8-.2 1.2-.2.6 0 1.1.1 1.5.3.5.2.8.5 1.1 1 .3.4.4 1 .4 1.7v5.2H341V23c0-.8-.2-1.3-.5-1.6-.3-.3-.7-.5-1.2-.5-.4 0-.7.1-1 .2-.3.2-.6.4-.8.8s-.3.8-.3 1.5v4.3h-1.7zm13.4.2c-.8 0-1.5-.2-2.1-.5-.6-.3-1.1-.8-1.4-1.4s-.5-1.4-.5-2.2.2-1.6.5-2.2.8-1.1 1.4-1.4c.6-.3 1.3-.5 2-.5.8 0 1.4.2 2 .5.5.3 1 .8 1.2 1.3.3.6.4 1.2.4 1.9v.9H346v-1.3h5.7l-.8.3c0-.7-.2-1.3-.5-1.7-.4-.4-.9-.6-1.5-.6-.5 0-.9.1-1.2.3-.3.2-.6.5-.8 1-.2.4-.3.9-.3 1.5s.1 1.1.3 1.5.5.7.8.9c.4.2.8.3 1.2.3.5 0 1-.1 1.3-.3.3-.2.6-.5.8-.8l1.4.6c-.2.4-.5.7-.8 1-.3.3-.7.5-1.2.6-.5.2-1 .3-1.5.3zm10.6-8.2v1.3h-6v-1.3h6zm-2.7-2.4v8c0 .4.1.7.3.9.2.2.5.3.8.3.3 0 .5 0 .8-.1.2-.1.4-.2.6-.4l.4 1.2c-.2.2-.5.4-.9.5s-.8.2-1.2.2c-.5 0-.9-.1-1.3-.2s-.7-.4-.9-.7c-.2-.3-.3-.8-.3-1.3v-7.8l1.7-.6zm7.9 10.6c-.8 0-1.5-.2-2.1-.5-.6-.3-1.1-.8-1.4-1.4s-.5-1.4-.5-2.2.2-1.6.5-2.2.8-1.1 1.4-1.4c.6-.3 1.3-.5 2-.5.8 0 1.4.2 2 .5.5.3 1 .8 1.2 1.3.3.6.4 1.2.4 1.9v.9h-6.4v-1.3h5.7l-.8.3c0-.7-.2-1.3-.5-1.7-.4-.4-.9-.6-1.5-.6-.5 0-.9.1-1.2.3-.3.2-.6.5-.8 1-.2.4-.3.9-.3 1.5s.1 1.1.3 1.5.5.7.8.9c.4.2.8.3 1.2.3.5 0 1-.1 1.3-.3.3-.2.6-.5.8-.8l1.4.6c-.2.4-.5.7-.8 1-.3.3-.7.5-1.2.6-.5.2-.9.3-1.5.3zm8.8 0c-.8 0-1.5-.2-2.2-.5-.7-.3-1.2-.7-1.6-1.3l1.2-1c.2.4.6.8 1 1 .4.3 1 .4 1.6.4.5 0 .9-.1 1.2-.3.3-.2.4-.4.4-.7 0-.2-.1-.4-.2-.5s-.4-.3-.8-.4l-1.7-.4c-.9-.2-1.5-.4-1.8-.8-.4-.4-.5-.9-.5-1.4 0-.4.1-.8.4-1.2.3-.4.6-.7 1.1-.9s1.1-.3 1.8-.3c.8 0 1.5.1 2 .4s1 .7 1.3 1.2l-1.2 1c-.2-.4-.5-.7-.9-1s-.8-.3-1.2-.3c-.3 0-.6 0-.9.1-.2.1-.4.2-.6.4s-.2.3-.2.5.1.4.2.6.4.3.9.4l1.8.4c.8.1 1.3.4 1.6.8.3.4.5.8.5 1.3s-.1 1-.4 1.4c-.3.4-.7.7-1.2.9-.3.1-.9.2-1.6.2zM384.3 16l-4.8 12.7h-1.6l4.8-12.7h1.6zm10.5 1-3.9 10.6h-2L385 17h1.8l2.5 7 .6 2.1.6-2.1 2.5-7h1.8zm12.8 0v10.6H406v-6.1l.1-2.9-3.2 9h-1.4l-3.2-9 .1 2.9v6.1h-1.6V17h2.5l2.1 6.1.7 2.5.8-2.5L405 17h2.6zm8.1 10.6V16h1.7v4.9c.3-.5.6-.9 1.1-1.1.5-.2 1-.3 1.5-.3.6 0 1.1.1 1.5.3.5.2.8.5 1.1 1 .3.4.4 1 .4 1.7v5.2h-1.7V23c0-.8-.2-1.3-.5-1.6-.3-.3-.7-.5-1.2-.5-.3 0-.7.1-1 .2s-.6.4-.8.8c-.2.4-.3.9-.3 1.5v4.2h-1.8zm13.3-8.2c.8 0 1.5.2 2.1.5.6.3 1.1.8 1.4 1.4s.5 1.4.5 2.2-.2 1.6-.5 2.2-.8 1.1-1.4 1.4c-.6.3-1.3.5-2.1.5s-1.5-.2-2.1-.5c-.6-.3-1.1-.8-1.4-1.4a5.09 5.09 0 0 1 0-4.4c.3-.6.8-1.1 1.4-1.4.7-.3 1.4-.5 2.1-.5zm0 1.4c-.5 0-.9.1-1.2.3s-.6.5-.8 1-.3.9-.3 1.5.1 1.1.3 1.5c.2.4.4.7.8 1 .3.2.7.3 1.2.3s.9-.1 1.2-.3c.3-.2.6-.5.8-1 .2-.4.3-.9.3-1.5s-.1-1.1-.3-1.5c-.2-.4-.4-.7-.8-1-.3-.2-.7-.3-1.2-.3zm9.2 7c-.8 0-1.5-.2-2.2-.5-.7-.3-1.2-.7-1.6-1.3l1.2-1c.2.4.6.8 1 1 .4.3 1 .4 1.6.4.5 0 .9-.1 1.2-.3.3-.2.4-.4.4-.7 0-.2-.1-.4-.2-.5s-.4-.3-.8-.4l-1.7-.4c-.9-.2-1.5-.4-1.8-.8-.4-.4-.5-.9-.5-1.4 0-.4.1-.8.4-1.2.3-.4.6-.7 1.1-.9s1.1-.3 1.8-.3c.8 0 1.5.1 2 .4s1 .7 1.3 1.2l-1.2 1c-.2-.4-.5-.7-.9-1s-.8-.3-1.2-.3c-.3 0-.6 0-.9.1-.2.1-.4.2-.6.4s-.2.3-.2.5.1.4.2.6.4.3.9.4l1.8.4c.8.1 1.3.4 1.6.8.3.4.5.8.5 1.3s-.1 1-.4 1.4c-.3.4-.7.7-1.2.9-.3.1-.9.2-1.6.2zm10.5-8.2v1.3h-6v-1.3h6zm-2.7-2.4v8c0 .4.1.7.3.9.2.2.5.3.8.3.3 0 .5 0 .8-.1.2-.1.4-.2.6-.4l.4 1.2c-.2.2-.5.4-.9.5s-.8.2-1.2.2c-.5 0-.9-.1-1.3-.2s-.7-.4-.9-.7c-.2-.3-.3-.8-.3-1.3v-7.8l1.7-.6zm13.1 10.6c-.8 0-1.5-.2-2.1-.5-.6-.3-1.1-.8-1.4-1.4s-.5-1.4-.5-2.2.2-1.6.5-2.2.8-1.1 1.4-1.4c.6-.3 1.3-.5 2-.5.8 0 1.4.2 2 .5.5.3 1 .8 1.2 1.3.3.6.4 1.2.4 1.9v.9h-6.4v-1.3h5.7l-.8.3c0-.7-.2-1.3-.5-1.7-.4-.4-.9-.6-1.5-.6-.5 0-.9.1-1.2.3-.3.2-.6.5-.8 1-.2.4-.3.9-.3 1.5s.1 1.1.3 1.5.5.7.8.9c.4.2.8.3 1.2.3.5 0 1-.1 1.3-.3.3-.2.6-.5.8-.8l1.4.6c-.2.4-.5.7-.8 1-.3.3-.7.5-1.2.6-.4.2-.9.3-1.5.3zm5.8-.2v-8h1.5l.1 2.1-.2-.2c.1-.5.4-.8.6-1.1.3-.3.6-.5 1-.7.4-.1.8-.2 1.2-.2.6 0 1.1.1 1.5.3.5.2.8.5 1.1 1 .3.4.4 1 .4 1.7v5.2h-1.7V23c0-.8-.2-1.3-.5-1.6-.3-.3-.7-.5-1.2-.5-.4 0-.7.1-1 .2-.3.2-.6.4-.8.8s-.3.8-.3 1.5v4.3h-1.7zm14.9-8h1.8l-3.2 8h-1.9l-3.2-8h1.9l2.3 6.5 2.3-6.5zm4.1-1.3c-.4 0-.7-.1-.9-.3-.2-.2-.3-.5-.3-.8s.1-.6.3-.8c.2-.2.5-.3.9-.3s.6.1.8.3c.2.2.3.4.3.8s-.1.6-.3.8c-.1.2-.4.3-.8.3zm.9 1.3v8h-1.7v-8h1.7zm2.7 8v-8h1.5l.2 1.4c.2-.5.5-.9 1-1.2.4-.3.9-.4 1.6-.4h.5c.2 0 .3.1.4.1l-.2 1.5c-.1 0-.2-.1-.4-.1h-.6c-.3 0-.7.1-1 .3-.3.2-.6.4-.8.8s-.3.8-.3 1.3v4.2h-1.9zm9.8-8.2c.8 0 1.5.2 2.1.5.6.3 1.1.8 1.4 1.4s.5 1.4.5 2.2-.2 1.6-.5 2.2-.8 1.1-1.4 1.4c-.6.3-1.3.5-2.1.5s-1.5-.2-2.1-.5c-.6-.3-1.1-.8-1.4-1.4a5.09 5.09 0 0 1 0-4.4c.3-.6.8-1.1 1.4-1.4.7-.3 1.4-.5 2.1-.5zm0 1.4c-.5 0-.9.1-1.2.3s-.6.5-.8 1-.3.9-.3 1.5.1 1.1.3 1.5c.2.4.4.7.8 1 .3.2.7.3 1.2.3s.9-.1 1.2-.3c.3-.2.6-.5.8-1 .2-.4.3-.9.3-1.5s-.1-1.1-.3-1.5c-.2-.4-.4-.7-.8-1-.3-.2-.7-.3-1.2-.3zm6.2 6.8v-8h1.5l.1 2.1-.2-.2c.1-.5.4-.8.6-1.1.3-.3.6-.5 1-.7.4-.1.8-.2 1.2-.2.6 0 1.1.1 1.5.3.5.2.8.5 1.1 1 .3.4.4 1 .4 1.7v5.2H509V23c0-.8-.2-1.3-.5-1.6-.3-.3-.7-.5-1.2-.5-.4 0-.7.1-1 .2-.3.2-.6.4-.8.8s-.3.8-.3 1.5v4.3h-1.7zm9.9 0v-8h1.5l.1 1.3c.3-.5.6-.9 1.1-1.1.5-.2 1-.4 1.5-.4.6 0 1.1.1 1.6.4.5.3.9.7 1.1 1.2.2-.4.4-.6.7-.9.3-.2.6-.4 1-.5.4-.1.7-.2 1.1-.2.5 0 1 .1 1.4.3s.8.5 1.1 1 .4 1 .4 1.7v5.2h-1.7v-4.9c0-.7-.2-1.1-.5-1.4-.3-.3-.7-.4-1.2-.4-.4 0-.7.1-1 .3-.3.2-.6.5-.8.8-.2.4-.3.8-.3 1.3v4.4h-1.7v-4.9c0-.7-.2-1.1-.5-1.4-.3-.3-.7-.4-1.2-.4-.3 0-.6.1-1 .3-.3.2-.6.4-.8.8-.2.4-.3.8-.3 1.4v4.3h-1.6zm18.7.2c-.8 0-1.5-.2-2.1-.5-.6-.3-1.1-.8-1.4-1.4s-.5-1.4-.5-2.2.2-1.6.5-2.2.8-1.1 1.4-1.4c.6-.3 1.3-.5 2-.5.8 0 1.4.2 2 .5.5.3 1 .8 1.2 1.3.3.6.4 1.2.4 1.9v.9h-6.4v-1.3h5.7l-.8.3c0-.7-.2-1.3-.5-1.7-.4-.4-.9-.6-1.5-.6-.5 0-.9.1-1.2.3-.3.2-.6.5-.8 1-.2.4-.3.9-.3 1.5s.1 1.1.3 1.5.5.7.8.9c.4.2.8.3 1.2.3.5 0 1-.1 1.3-.3.3-.2.6-.5.8-.8l1.4.6c-.2.4-.5.7-.8 1-.3.3-.7.5-1.2.6-.5.2-1 .3-1.5.3zm5.7-.2v-8h1.5l.1 2.1-.2-.2c.1-.5.4-.8.6-1.1.3-.3.6-.5 1-.7.4-.1.8-.2 1.2-.2.6 0 1.1.1 1.5.3.5.2.8.5 1.1 1 .3.4.4 1 .4 1.7v5.2h-1.7V23c0-.8-.2-1.3-.5-1.6-.3-.3-.7-.5-1.2-.5-.4 0-.7.1-1 .2-.3.2-.6.4-.8.8s-.3.8-.3 1.5v4.3h-1.7zm14.9-8v1.3h-6v-1.3h6zm-2.8-2.4v8c0 .4.1.7.3.9.2.2.5.3.8.3.3 0 .5 0 .8-.1.2-.1.4-.2.6-.4l.4 1.2c-.2.2-.5.4-.9.5s-.8.2-1.2.2c-.5 0-.9-.1-1.3-.2s-.7-.4-.9-.7c-.2-.3-.3-.8-.3-1.3v-7.8l1.7-.6z"/>
  </g>
</svg>
