<?xml version="1.0" encoding="utf-8"?>
<!-- Generator: Adobe Illustrator 24.3.0, SVG Export Plug-In . SVG Version: 6.00 Build 0)  -->
<svg version="1.1" xmlns="http://www.w3.org/2000/svg" xmlns:xlink="http://www.w3.org/1999/xlink" x="0px" y="0px"
	 viewBox="0 0 730 560" style="enable-background:new 0 0 730 560;" xml:space="preserve">
<style type="text/css">
	.st0{fill:#161616;}
	.st1{fill:#03429D;}
	.st2{fill:#393939;}
	.st3{fill:#8D8D8D;}
	.st4{fill:#9EBAE3;}
	.st5{fill:#DFECFF;}
	.st6{clip-path:url(#SVGID_2_);fill:#03429D;}
	.st7{clip-path:url(#SVGID_4_);fill:#0F55BA;}
	.st8{clip-path:url(#SVGID_6_);fill:#9EBAE3;}
	.st9{clip-path:url(#SVGID_8_);fill:#002A66;}
	.st10{clip-path:url(#SVGID_10_);fill:#FFDB12;}
	.st11{clip-path:url(#SVGID_12_);fill:#FFE36C;}
	.st12{clip-path:url(#SVGID_14_);}
	.st13{clip-path:url(#SVGID_16_);fill:#FFFFFF;}
	.st14{clip-path:url(#SVGID_18_);fill:#161616;}
	.st15{clip-path:url(#SVGID_20_);fill:#262626;}
	.st16{clip-path:url(#SVGID_22_);fill:#393939;}
	.st17{clip-path:url(#SVGID_24_);fill:#525252;}
	.st18{clip-path:url(#SVGID_26_);fill:#6F6F6F;}
	.st19{clip-path:url(#SVGID_28_);fill:#DFECFF;}
	.st20{clip-path:url(#SVGID_30_);fill:#F8F788;}
	.st21{clip-path:url(#SVGID_32_);fill:#8D8D8D;}
	.st22{clip-path:url(#SVGID_34_);fill:#A8A8A8;}
	.st23{clip-path:url(#SVGID_36_);fill:#C6C6C6;}
	.st24{clip-path:url(#SVGID_38_);fill:#E0E0E0;}
	.st25{clip-path:url(#SVGID_40_);fill:#F4F4F4;}
	.st26{clip-path:url(#SVGID_42_);fill:#D62525;}
	.st27{fill:#002A66;}
	.st28{fill:#0F55BA;}
	.st29{fill:#262626;}
	.st30{fill:#525252;}
	.st31{fill:#6F6F6F;}
	.st32{fill:#A8A8A8;}
	.st33{fill:#C6C6C6;}
	.st34{fill:#E0E0E0;}
	.st35{fill:#F4F4F4;}
	.st36{fill:#FFFFFF;}
	.st37{fill:#FFDB12;}
	.st38{fill:#FFE36C;}
	.st39{fill:#F8F788;}
	.st40{fill:#FF832B;}
	.st41{fill:#EFA284;}
	.st42{fill:none;stroke:#161616;stroke-miterlimit:10;}
	.st43{fill:none;stroke:#000000;stroke-linecap:round;stroke-linejoin:round;stroke-miterlimit:10;}
	.st44{fill:none;stroke:#000000;stroke-linecap:round;stroke-miterlimit:10;}
	.st45{fill:#C0D0E6;}
	.st46{fill:#FBE8E0;}
	.st47{fill:#81A0CE;}
	.st48{fill:#F7D0C1;}
	.st49{fill:#4271B5;}
	.st50{fill:#F3B9A3;}
	.st51{fill:none;stroke:#C6C6C6;stroke-miterlimit:10;stroke-dasharray:8;}
</style>
<g id="Layer_1">
	<g>
		<path class="st3" d="M0,8c0-4.4,3.6-8,8-8h473c4.4,0,8,3.6,8,8v544c0,4.4-3.6,8-8,8H8c-4.4,0-8-3.6-8-8V8z"/>
	</g>
	<rect x="16" y="48" class="st35" width="457" height="496"/>
	<g>
		<path class="st0" d="M35.28,65.04V75.6h-1.71V65.04H35.28z M42.22,65.04l-4.7,5.09l-0.19,0.02l-2.74,2.94l-0.16-1.87l5.7-6.18
			H42.22z M37.87,68.82l4.45,6.78H40.3l-3.79-5.82L37.87,68.82z"/>
		<path class="st0" d="M46.51,75.76c-0.52,0-1-0.1-1.45-0.29c-0.44-0.19-0.8-0.5-1.06-0.93c-0.27-0.43-0.4-0.98-0.4-1.66V67.6h1.71
			v4.85c0,0.73,0.16,1.22,0.46,1.5c0.31,0.27,0.74,0.41,1.3,0.41c0.27,0,0.53-0.05,0.78-0.14c0.25-0.09,0.48-0.23,0.68-0.43
			c0.2-0.2,0.36-0.45,0.47-0.76c0.11-0.31,0.17-0.67,0.17-1.09V67.6h1.71v8h-1.5l-0.08-1.3c-0.28,0.5-0.65,0.87-1.12,1.1
			S47.15,75.76,46.51,75.76z"/>
		<path class="st0" d="M57.84,75.76c-0.47,0-0.9-0.09-1.29-0.27c-0.39-0.18-0.72-0.43-0.98-0.76c-0.27-0.33-0.46-0.69-0.59-1.1
			l0.21-0.27l-0.13,2.24h-1.5V64h1.71v5.62l-0.19-0.27c0.2-0.55,0.55-1.01,1.04-1.37c0.49-0.36,1.08-0.54,1.78-0.54
			c0.64,0,1.23,0.17,1.77,0.5c0.54,0.33,0.96,0.81,1.27,1.42c0.31,0.62,0.46,1.37,0.46,2.26c0,0.86-0.16,1.61-0.47,2.22
			c-0.32,0.62-0.74,1.09-1.28,1.42C59.1,75.59,58.5,75.76,57.84,75.76z M57.47,74.38c0.69,0,1.23-0.25,1.62-0.74
			s0.58-1.18,0.58-2.04s-0.19-1.54-0.58-2.03c-0.38-0.49-0.92-0.74-1.62-0.74c-0.45,0-0.84,0.11-1.17,0.34
			c-0.33,0.23-0.59,0.55-0.78,0.97c-0.19,0.42-0.28,0.91-0.28,1.49c0,0.57,0.09,1.05,0.27,1.46c0.18,0.41,0.44,0.73,0.78,0.95
			C56.65,74.27,57.03,74.38,57.47,74.38z"/>
		<path class="st0" d="M67.1,75.76c-0.8,0-1.5-0.17-2.11-0.5c-0.61-0.33-1.08-0.81-1.42-1.43s-0.5-1.37-0.5-2.23s0.17-1.61,0.5-2.23
			s0.8-1.1,1.4-1.43c0.6-0.33,1.27-0.5,2.03-0.5c0.78,0,1.44,0.16,1.98,0.48c0.54,0.32,0.96,0.76,1.25,1.31
			c0.29,0.55,0.43,1.18,0.43,1.89c0,0.19-0.01,0.37-0.02,0.54c-0.01,0.17-0.03,0.32-0.05,0.45h-6.43V70.8h5.68l-0.85,0.26
			c0-0.73-0.18-1.28-0.54-1.67c-0.36-0.39-0.86-0.58-1.49-0.58c-0.46,0-0.86,0.11-1.2,0.32c-0.34,0.21-0.6,0.53-0.78,0.95
			c-0.18,0.42-0.27,0.94-0.27,1.54c0,0.6,0.1,1.1,0.29,1.52s0.46,0.73,0.82,0.94c0.35,0.21,0.77,0.32,1.25,0.32
			c0.53,0,0.96-0.1,1.3-0.3c0.33-0.2,0.59-0.49,0.78-0.85l1.36,0.64c-0.19,0.38-0.45,0.72-0.78,1c-0.33,0.28-0.71,0.5-1.16,0.65
			C68.13,75.69,67.64,75.76,67.1,75.76z"/>
		<path class="st0" d="M72.83,75.6v-8h1.46l0.16,1.44c0.21-0.52,0.53-0.92,0.95-1.19c0.42-0.27,0.94-0.41,1.56-0.41
			c0.16,0,0.32,0.01,0.48,0.04c0.16,0.03,0.29,0.07,0.4,0.12l-0.24,1.5c-0.12-0.04-0.25-0.08-0.39-0.1
			c-0.14-0.03-0.34-0.04-0.58-0.04c-0.33,0-0.66,0.09-0.98,0.26c-0.32,0.18-0.58,0.44-0.79,0.79s-0.31,0.8-0.31,1.34v4.24H72.83z"/>
		<path class="st0" d="M79.46,75.6v-8h1.52l0.11,2.08l-0.22-0.22c0.15-0.46,0.37-0.84,0.65-1.14c0.28-0.3,0.62-0.53,1.01-0.66
			c0.39-0.14,0.8-0.21,1.24-0.21c0.57,0,1.07,0.11,1.53,0.33c0.45,0.22,0.81,0.55,1.08,0.98c0.27,0.44,0.4,0.99,0.4,1.66v5.18h-1.71
			v-4.66c0-0.79-0.16-1.34-0.49-1.64c-0.33-0.3-0.73-0.46-1.22-0.46c-0.35,0-0.69,0.08-1.02,0.25c-0.33,0.17-0.61,0.43-0.82,0.79
			s-0.33,0.85-0.33,1.46v4.26H79.46z"/>
		<path class="st0" d="M92.88,75.76c-0.8,0-1.5-0.17-2.11-0.5c-0.61-0.33-1.08-0.81-1.42-1.43s-0.5-1.37-0.5-2.23
			s0.17-1.61,0.5-2.23s0.8-1.1,1.4-1.43c0.6-0.33,1.27-0.5,2.03-0.5c0.78,0,1.44,0.16,1.98,0.48c0.54,0.32,0.96,0.76,1.25,1.31
			c0.29,0.55,0.43,1.18,0.43,1.89c0,0.19-0.01,0.37-0.02,0.54c-0.01,0.17-0.03,0.32-0.05,0.45h-6.43V70.8h5.68l-0.85,0.26
			c0-0.73-0.18-1.28-0.54-1.67c-0.36-0.39-0.86-0.58-1.49-0.58c-0.46,0-0.86,0.11-1.2,0.32c-0.34,0.21-0.6,0.53-0.78,0.95
			c-0.18,0.42-0.27,0.94-0.27,1.54c0,0.6,0.1,1.1,0.29,1.52s0.46,0.73,0.82,0.94c0.35,0.21,0.77,0.32,1.25,0.32
			c0.53,0,0.96-0.1,1.3-0.3c0.33-0.2,0.59-0.49,0.78-0.85l1.36,0.64c-0.19,0.38-0.45,0.72-0.78,1c-0.33,0.28-0.71,0.5-1.16,0.65
			C93.9,75.69,93.41,75.76,92.88,75.76z"/>
		<path class="st0" d="M103.5,67.6v1.34h-6V67.6H103.5z M100.75,65.25v7.95c0,0.39,0.1,0.68,0.31,0.86
			c0.21,0.18,0.49,0.27,0.84,0.27c0.29,0,0.54-0.04,0.75-0.14c0.21-0.09,0.41-0.22,0.59-0.38l0.38,1.25
			c-0.25,0.21-0.55,0.38-0.9,0.5s-0.75,0.18-1.19,0.18c-0.46,0-0.88-0.07-1.26-0.22c-0.38-0.15-0.68-0.39-0.9-0.73
			c-0.21-0.34-0.33-0.78-0.34-1.32v-7.76L100.75,65.25z"/>
		<path class="st0" d="M108.72,75.76c-0.8,0-1.5-0.17-2.11-0.5c-0.61-0.33-1.08-0.81-1.42-1.43s-0.5-1.37-0.5-2.23
			s0.17-1.61,0.5-2.23s0.8-1.1,1.4-1.43c0.6-0.33,1.27-0.5,2.03-0.5c0.78,0,1.44,0.16,1.98,0.48c0.54,0.32,0.96,0.76,1.25,1.31
			c0.29,0.55,0.43,1.18,0.43,1.89c0,0.19-0.01,0.37-0.02,0.54c-0.01,0.17-0.03,0.32-0.05,0.45h-6.43V70.8h5.68l-0.85,0.26
			c0-0.73-0.18-1.28-0.54-1.67c-0.36-0.39-0.86-0.58-1.49-0.58c-0.46,0-0.86,0.11-1.2,0.32c-0.34,0.21-0.6,0.53-0.78,0.95
			c-0.18,0.42-0.27,0.94-0.27,1.54c0,0.6,0.1,1.1,0.29,1.52s0.46,0.73,0.82,0.94c0.35,0.21,0.77,0.32,1.25,0.32
			c0.53,0,0.96-0.1,1.3-0.3c0.33-0.2,0.59-0.49,0.78-0.85l1.36,0.64c-0.19,0.38-0.45,0.72-0.78,1c-0.33,0.28-0.71,0.5-1.16,0.65
			C109.74,75.69,109.25,75.76,108.72,75.76z"/>
		<path class="st0" d="M117.49,75.76c-0.8,0-1.53-0.15-2.19-0.46c-0.66-0.31-1.18-0.75-1.57-1.31l1.18-1.02
			c0.23,0.44,0.57,0.79,1.02,1.05c0.44,0.26,0.97,0.39,1.59,0.39c0.49,0,0.88-0.08,1.17-0.26c0.29-0.17,0.43-0.41,0.43-0.72
			c0-0.2-0.07-0.38-0.2-0.54s-0.39-0.27-0.76-0.36l-1.68-0.35c-0.85-0.17-1.46-0.45-1.82-0.82c-0.36-0.38-0.54-0.86-0.54-1.45
			c0-0.44,0.13-0.84,0.38-1.22c0.26-0.37,0.63-0.67,1.13-0.9s1.09-0.34,1.78-0.34c0.8,0,1.48,0.14,2.05,0.42s1,0.69,1.3,1.21
			l-1.18,0.99c-0.2-0.43-0.5-0.74-0.9-0.95s-0.81-0.31-1.23-0.31c-0.34,0-0.63,0.04-0.88,0.13c-0.25,0.09-0.43,0.2-0.56,0.35
			s-0.19,0.33-0.19,0.53c0,0.21,0.08,0.4,0.24,0.56s0.45,0.28,0.86,0.37l1.82,0.38c0.77,0.15,1.31,0.4,1.62,0.76
			c0.31,0.36,0.47,0.79,0.47,1.3s-0.13,0.96-0.4,1.35c-0.27,0.39-0.65,0.69-1.15,0.9C118.78,75.65,118.18,75.76,117.49,75.76z"/>
		<path class="st0" d="M128.27,64l-4.77,12.72h-1.6L126.67,64H128.27z"/>
		<path class="st0" d="M138.85,65.04l-3.92,10.56h-2l-3.92-10.56h1.82l2.46,7.02l0.64,2.1l0.64-2.08l2.46-7.04H138.85z"/>
		<path class="st0" d="M151.57,65.04V75.6h-1.58v-6.11l0.13-2.91h-0.02l-3.22,9.02h-1.42l-3.22-9.02h-0.02l0.13,2.91v6.11h-1.58
			V65.04h2.54l2.13,6.11l0.74,2.51h0.03l0.75-2.51l2.11-6.11H151.57z"/>
		<path class="st0" d="M159.66,75.6V64h1.71v4.88c0.27-0.5,0.63-0.87,1.08-1.1c0.45-0.23,0.96-0.34,1.51-0.34
			c0.57,0,1.07,0.11,1.53,0.33c0.45,0.22,0.81,0.55,1.08,0.98c0.27,0.44,0.4,0.99,0.4,1.66v5.18h-1.71v-4.64
			c0-0.79-0.16-1.34-0.49-1.65c-0.33-0.31-0.73-0.46-1.22-0.46c-0.34,0-0.68,0.08-1.02,0.25s-0.61,0.43-0.83,0.8
			c-0.22,0.37-0.33,0.86-0.33,1.48v4.22H159.66z"/>
		<path class="st0" d="M173.04,67.44c0.78,0,1.47,0.17,2.06,0.5c0.6,0.33,1.06,0.81,1.4,1.43s0.5,1.37,0.5,2.23s-0.17,1.61-0.5,2.23
			s-0.8,1.1-1.4,1.43c-0.6,0.33-1.29,0.5-2.06,0.5s-1.47-0.17-2.06-0.5c-0.6-0.33-1.07-0.81-1.41-1.43
			c-0.34-0.62-0.51-1.37-0.51-2.23s0.17-1.61,0.51-2.23c0.34-0.62,0.81-1.1,1.41-1.43C171.57,67.6,172.26,67.44,173.04,67.44z
			 M173.04,68.78c-0.48,0-0.89,0.11-1.22,0.33s-0.59,0.54-0.78,0.95s-0.27,0.93-0.27,1.54c0,0.6,0.09,1.11,0.27,1.53
			c0.18,0.42,0.44,0.74,0.78,0.96c0.34,0.22,0.74,0.33,1.22,0.33c0.48,0,0.89-0.11,1.22-0.33c0.33-0.22,0.59-0.54,0.77-0.96
			c0.18-0.42,0.27-0.93,0.27-1.53c0-0.61-0.09-1.12-0.27-1.54c-0.18-0.42-0.44-0.73-0.77-0.95
			C173.92,68.89,173.52,68.78,173.04,68.78z"/>
		<path class="st0" d="M182.21,75.76c-0.8,0-1.53-0.15-2.19-0.46c-0.66-0.31-1.18-0.75-1.57-1.31l1.18-1.02
			c0.23,0.44,0.57,0.79,1.02,1.05c0.44,0.26,0.97,0.39,1.59,0.39c0.49,0,0.88-0.08,1.17-0.26c0.29-0.17,0.43-0.41,0.43-0.72
			c0-0.2-0.07-0.38-0.2-0.54s-0.39-0.27-0.76-0.36l-1.68-0.35c-0.85-0.17-1.46-0.45-1.82-0.82c-0.36-0.38-0.54-0.86-0.54-1.45
			c0-0.44,0.13-0.84,0.38-1.22c0.26-0.37,0.63-0.67,1.13-0.9s1.09-0.34,1.78-0.34c0.8,0,1.48,0.14,2.05,0.42s1,0.69,1.3,1.21
			l-1.18,0.99c-0.2-0.43-0.5-0.74-0.9-0.95s-0.81-0.31-1.23-0.31c-0.34,0-0.63,0.04-0.88,0.13c-0.25,0.09-0.43,0.2-0.56,0.35
			s-0.19,0.33-0.19,0.53c0,0.21,0.08,0.4,0.24,0.56s0.45,0.28,0.86,0.37l1.82,0.38c0.77,0.15,1.31,0.4,1.62,0.76
			c0.31,0.36,0.47,0.79,0.47,1.3s-0.13,0.96-0.4,1.35c-0.27,0.39-0.65,0.69-1.15,0.9C183.5,75.65,182.9,75.76,182.21,75.76z"/>
		<path class="st0" d="M192.72,67.6v1.34h-6V67.6H192.72z M189.97,65.25v7.95c0,0.39,0.1,0.68,0.31,0.86
			c0.21,0.18,0.49,0.27,0.84,0.27c0.29,0,0.54-0.04,0.75-0.14c0.21-0.09,0.41-0.22,0.59-0.38l0.38,1.25
			c-0.25,0.21-0.55,0.38-0.9,0.5s-0.75,0.18-1.19,0.18c-0.46,0-0.88-0.07-1.26-0.22c-0.38-0.15-0.68-0.39-0.9-0.73
			c-0.21-0.34-0.33-0.78-0.34-1.32v-7.76L189.97,65.25z"/>
		<path class="st0" d="M203.13,75.76c-0.8,0-1.5-0.17-2.11-0.5c-0.61-0.33-1.08-0.81-1.42-1.43s-0.5-1.37-0.5-2.23
			s0.17-1.61,0.5-2.23s0.8-1.1,1.4-1.43c0.6-0.33,1.27-0.5,2.03-0.5c0.78,0,1.44,0.16,1.98,0.48c0.54,0.32,0.96,0.76,1.25,1.31
			c0.29,0.55,0.43,1.18,0.43,1.89c0,0.19-0.01,0.37-0.02,0.54c-0.01,0.17-0.03,0.32-0.05,0.45h-6.43V70.8h5.68l-0.85,0.26
			c0-0.73-0.18-1.28-0.54-1.67c-0.36-0.39-0.86-0.58-1.49-0.58c-0.46,0-0.86,0.11-1.2,0.32c-0.34,0.21-0.6,0.53-0.78,0.95
			c-0.18,0.42-0.27,0.94-0.27,1.54c0,0.6,0.1,1.1,0.29,1.52s0.46,0.73,0.82,0.94c0.35,0.21,0.77,0.32,1.25,0.32
			c0.53,0,0.96-0.1,1.3-0.3c0.33-0.2,0.59-0.49,0.78-0.85l1.36,0.64c-0.19,0.38-0.45,0.72-0.78,1c-0.33,0.28-0.71,0.5-1.16,0.65
			C204.16,75.69,203.67,75.76,203.13,75.76z"/>
		<path class="st0" d="M208.86,75.6v-8h1.52l0.11,2.08l-0.22-0.22c0.15-0.46,0.37-0.84,0.65-1.14c0.28-0.3,0.62-0.53,1.01-0.66
			c0.39-0.14,0.8-0.21,1.24-0.21c0.57,0,1.07,0.11,1.53,0.33c0.45,0.22,0.81,0.55,1.08,0.98c0.27,0.44,0.4,0.99,0.4,1.66v5.18h-1.71
			v-4.66c0-0.79-0.16-1.34-0.49-1.64c-0.33-0.3-0.73-0.46-1.22-0.46c-0.35,0-0.69,0.08-1.02,0.25c-0.33,0.17-0.61,0.43-0.82,0.79
			s-0.33,0.85-0.33,1.46v4.26H208.86z"/>
		<path class="st0" d="M223.82,67.6h1.79l-3.18,8h-1.87l-3.2-8h1.87l2.27,6.51L223.82,67.6z"/>
		<path class="st0" d="M227.93,66.26c-0.37,0-0.66-0.09-0.86-0.28c-0.2-0.19-0.3-0.45-0.3-0.79s0.1-0.6,0.3-0.78
			c0.2-0.18,0.48-0.27,0.86-0.27c0.36,0,0.64,0.09,0.84,0.27c0.2,0.18,0.3,0.44,0.3,0.78s-0.1,0.61-0.3,0.79
			C228.58,66.16,228.3,66.26,227.93,66.26z M228.78,67.6v8h-1.71v-8H228.78z"/>
		<path class="st0" d="M231.45,75.6v-8h1.46l0.16,1.44c0.21-0.52,0.53-0.92,0.95-1.19c0.42-0.27,0.94-0.41,1.56-0.41
			c0.16,0,0.32,0.01,0.48,0.04c0.16,0.03,0.29,0.07,0.4,0.12l-0.24,1.5c-0.12-0.04-0.25-0.08-0.39-0.1
			c-0.14-0.03-0.34-0.04-0.58-0.04c-0.33,0-0.66,0.09-0.98,0.26c-0.32,0.18-0.58,0.44-0.79,0.79s-0.31,0.8-0.31,1.34v4.24H231.45z"
			/>
		<path class="st0" d="M241.34,67.44c0.78,0,1.47,0.17,2.06,0.5c0.6,0.33,1.06,0.81,1.4,1.43s0.5,1.37,0.5,2.23s-0.17,1.61-0.5,2.23
			s-0.8,1.1-1.4,1.43c-0.6,0.33-1.29,0.5-2.06,0.5s-1.47-0.17-2.06-0.5c-0.6-0.33-1.07-0.81-1.41-1.43
			c-0.34-0.62-0.51-1.37-0.51-2.23s0.17-1.61,0.51-2.23c0.34-0.62,0.81-1.1,1.41-1.43C239.87,67.6,240.56,67.44,241.34,67.44z
			 M241.34,68.78c-0.48,0-0.89,0.11-1.22,0.33s-0.59,0.54-0.78,0.95s-0.27,0.93-0.27,1.54c0,0.6,0.09,1.11,0.27,1.53
			c0.18,0.42,0.44,0.74,0.78,0.96c0.34,0.22,0.74,0.33,1.22,0.33c0.48,0,0.89-0.11,1.22-0.33c0.33-0.22,0.59-0.54,0.77-0.96
			c0.18-0.42,0.27-0.93,0.27-1.53c0-0.61-0.09-1.12-0.27-1.54c-0.18-0.42-0.44-0.73-0.77-0.95
			C242.23,68.89,241.82,68.78,241.34,68.78z"/>
		<path class="st0" d="M247.47,75.6v-8h1.52l0.11,2.08l-0.22-0.22c0.15-0.46,0.37-0.84,0.65-1.14c0.28-0.3,0.62-0.53,1.01-0.66
			c0.39-0.14,0.8-0.21,1.24-0.21c0.57,0,1.07,0.11,1.53,0.33c0.45,0.22,0.81,0.55,1.08,0.98c0.27,0.44,0.4,0.99,0.4,1.66v5.18h-1.71
			v-4.66c0-0.79-0.16-1.34-0.49-1.64c-0.33-0.3-0.73-0.46-1.22-0.46c-0.35,0-0.69,0.08-1.02,0.25c-0.33,0.17-0.61,0.43-0.82,0.79
			s-0.33,0.85-0.33,1.46v4.26H247.47z"/>
		<path class="st0" d="M257.37,75.6v-8h1.52l0.08,1.34c0.28-0.51,0.65-0.89,1.11-1.14c0.46-0.25,0.96-0.37,1.48-0.37
			c0.58,0,1.11,0.13,1.59,0.39c0.49,0.26,0.85,0.65,1.1,1.18c0.17-0.35,0.41-0.65,0.7-0.88c0.3-0.23,0.63-0.41,0.99-0.52
			c0.36-0.11,0.72-0.17,1.07-0.17c0.51,0,0.99,0.11,1.44,0.32s0.81,0.54,1.09,0.98s0.42,1,0.42,1.68v5.18h-1.71v-4.91
			c0-0.65-0.15-1.12-0.46-1.41c-0.31-0.29-0.7-0.43-1.18-0.43c-0.37,0-0.72,0.09-1.03,0.27c-0.32,0.18-0.57,0.45-0.76,0.81
			c-0.19,0.36-0.29,0.8-0.29,1.32v4.35h-1.71v-4.91c0-0.65-0.15-1.12-0.46-1.41c-0.31-0.29-0.7-0.43-1.18-0.43
			c-0.32,0-0.64,0.09-0.96,0.26c-0.32,0.17-0.59,0.44-0.8,0.8c-0.21,0.36-0.32,0.84-0.32,1.44v4.26H257.37z"/>
		<path class="st0" d="M276.08,75.76c-0.8,0-1.5-0.17-2.11-0.5c-0.61-0.33-1.08-0.81-1.42-1.43s-0.5-1.37-0.5-2.23
			s0.17-1.61,0.5-2.23s0.8-1.1,1.4-1.43c0.6-0.33,1.27-0.5,2.03-0.5c0.78,0,1.44,0.16,1.98,0.48c0.54,0.32,0.96,0.76,1.25,1.31
			c0.29,0.55,0.43,1.18,0.43,1.89c0,0.19-0.01,0.37-0.02,0.54c-0.01,0.17-0.03,0.32-0.05,0.45h-6.43V70.8h5.68l-0.85,0.26
			c0-0.73-0.18-1.28-0.54-1.67c-0.36-0.39-0.86-0.58-1.49-0.58c-0.46,0-0.86,0.11-1.2,0.32c-0.34,0.21-0.6,0.53-0.78,0.95
			c-0.18,0.42-0.27,0.94-0.27,1.54c0,0.6,0.1,1.1,0.29,1.52s0.46,0.73,0.82,0.94c0.35,0.21,0.77,0.32,1.25,0.32
			c0.53,0,0.96-0.1,1.3-0.3c0.33-0.2,0.59-0.49,0.78-0.85l1.36,0.64c-0.19,0.38-0.45,0.72-0.78,1c-0.33,0.28-0.71,0.5-1.16,0.65
			C277.1,75.69,276.61,75.76,276.08,75.76z"/>
		<path class="st0" d="M281.8,75.6v-8h1.52l0.11,2.08l-0.22-0.22c0.15-0.46,0.37-0.84,0.65-1.14c0.28-0.3,0.62-0.53,1.01-0.66
			c0.39-0.14,0.8-0.21,1.24-0.21c0.57,0,1.07,0.11,1.53,0.33c0.45,0.22,0.81,0.55,1.08,0.98c0.27,0.44,0.4,0.99,0.4,1.66v5.18h-1.71
			v-4.66c0-0.79-0.16-1.34-0.49-1.64c-0.33-0.3-0.73-0.46-1.22-0.46c-0.35,0-0.69,0.08-1.02,0.25c-0.33,0.17-0.61,0.43-0.82,0.79
			s-0.33,0.85-0.33,1.46v4.26H281.8z"/>
		<path class="st0" d="M296.7,67.6v1.34h-6V67.6H296.7z M293.95,65.25v7.95c0,0.39,0.1,0.68,0.31,0.86
			c0.21,0.18,0.49,0.27,0.84,0.27c0.29,0,0.54-0.04,0.75-0.14c0.21-0.09,0.41-0.22,0.59-0.38l0.38,1.25
			c-0.25,0.21-0.55,0.38-0.9,0.5s-0.75,0.18-1.19,0.18c-0.46,0-0.88-0.07-1.26-0.22c-0.38-0.15-0.68-0.39-0.9-0.73
			c-0.21-0.34-0.33-0.78-0.34-1.32v-7.76L293.95,65.25z"/>
	</g>
	<path class="st45" d="M408,424H248v-20c0-2.21,1.79-4,4-4H404c2.21,0,4,1.79,4,4V424z"/>
	<path class="st46" d="M404,512H252c-2.21,0-4-1.79-4-4v-83.94c0-0.03,0.03-0.06,0.06-0.06h159.88c0.03,0,0.06,0.03,0.06,0.06V508
		C408,510.21,406.21,512,404,512z"/>
	<path class="st47" d="M392,392H232v-20c0-2.21,1.79-4,4-4H388c2.21,0,4,1.79,4,4V392z"/>
	<path class="st48" d="M388,480H236c-2.21,0-4-1.79-4-4v-83.94c0-0.03,0.03-0.06,0.06-0.06h159.88c0.03,0,0.06,0.03,0.06,0.06V476
		C392,478.21,390.21,480,388,480z"/>
	<path class="st49" d="M376,360H216v-20c0-2.21,1.79-4,4-4H372c2.21,0,4,1.79,4,4V360z"/>
	<path class="st50" d="M372,448H220c-2.21,0-4-1.79-4-4v-83.94c0-0.03,0.03-0.06,0.06-0.06h159.88c0.03,0,0.06,0.03,0.06,0.06V444
		C376,446.21,374.21,448,372,448z"/>
	<path class="st1" d="M360,328H200v-20c0-2.21,1.79-4,4-4H356c2.21,0,4,1.79,4,4V328z"/>
	<path class="st41" d="M356,416H204c-2.21,0-4-1.79-4-4v-83.94c0-0.03,0.03-0.06,0.06-0.06h159.88c0.03,0,0.06,0.03,0.06,0.06V412
		C360,414.21,358.21,416,356,416z"/>
	<g>
		<path class="st1" d="M612,232h-84.01c-3.31,0-5.99-2.68-5.99-5.99V150c0-3.31,2.68-6,6-6h84c3.32,0,6,2.69,6,6v76
			C618,229.31,615.31,232,612,232z"/>
	</g>
	<g>
		<path class="st36" d="M19.28,17.04V27.6h-1.71V17.04H19.28z M26.22,17.04l-4.7,5.09l-0.19,0.02l-2.74,2.94l-0.16-1.87l5.7-6.18
			H26.22z M21.87,20.82l4.45,6.78H24.3l-3.79-5.82L21.87,20.82z"/>
		<path class="st36" d="M30.51,27.76c-0.52,0-1-0.1-1.45-0.29c-0.44-0.19-0.8-0.5-1.06-0.93c-0.27-0.43-0.4-0.98-0.4-1.66V19.6h1.71
			v4.85c0,0.73,0.16,1.22,0.46,1.5c0.31,0.27,0.74,0.41,1.3,0.41c0.27,0,0.53-0.05,0.78-0.14c0.25-0.09,0.48-0.23,0.68-0.43
			c0.2-0.2,0.36-0.45,0.47-0.76c0.11-0.31,0.17-0.67,0.17-1.09V19.6h1.71v8h-1.5l-0.08-1.3c-0.28,0.5-0.65,0.87-1.12,1.1
			S31.15,27.76,30.51,27.76z"/>
		<path class="st36" d="M41.84,27.76c-0.47,0-0.9-0.09-1.29-0.27c-0.39-0.18-0.72-0.43-0.98-0.76c-0.27-0.33-0.46-0.69-0.59-1.1
			l0.21-0.27l-0.13,2.24h-1.5V16h1.71v5.62l-0.19-0.27c0.2-0.55,0.55-1.01,1.04-1.37c0.49-0.36,1.08-0.54,1.78-0.54
			c0.64,0,1.23,0.17,1.77,0.5c0.54,0.33,0.96,0.81,1.27,1.42c0.31,0.62,0.46,1.37,0.46,2.26c0,0.86-0.16,1.61-0.47,2.22
			c-0.32,0.62-0.74,1.09-1.28,1.42C43.1,27.59,42.5,27.76,41.84,27.76z M41.47,26.38c0.69,0,1.23-0.25,1.62-0.74
			s0.58-1.18,0.58-2.04s-0.19-1.54-0.58-2.03c-0.38-0.49-0.92-0.74-1.62-0.74c-0.45,0-0.84,0.11-1.17,0.34
			c-0.33,0.23-0.59,0.55-0.78,0.97c-0.19,0.42-0.28,0.91-0.28,1.49c0,0.57,0.09,1.05,0.27,1.46c0.18,0.41,0.44,0.73,0.78,0.95
			C40.65,26.27,41.03,26.38,41.47,26.38z"/>
		<path class="st36" d="M51.1,27.76c-0.8,0-1.5-0.17-2.11-0.5c-0.61-0.33-1.08-0.81-1.42-1.43s-0.5-1.37-0.5-2.23
			s0.17-1.61,0.5-2.23s0.8-1.1,1.4-1.43c0.6-0.33,1.27-0.5,2.03-0.5c0.78,0,1.44,0.16,1.98,0.48c0.54,0.32,0.96,0.76,1.25,1.31
			c0.29,0.55,0.43,1.18,0.43,1.89c0,0.19-0.01,0.37-0.02,0.54c-0.01,0.17-0.03,0.32-0.05,0.45h-6.43V22.8h5.68l-0.85,0.26
			c0-0.73-0.18-1.28-0.54-1.67c-0.36-0.39-0.86-0.58-1.49-0.58c-0.46,0-0.86,0.11-1.2,0.32c-0.34,0.21-0.6,0.53-0.78,0.95
			c-0.18,0.42-0.27,0.94-0.27,1.54c0,0.6,0.1,1.1,0.29,1.52s0.46,0.73,0.82,0.94c0.35,0.21,0.77,0.32,1.25,0.32
			c0.53,0,0.96-0.1,1.3-0.3c0.33-0.2,0.59-0.49,0.78-0.85l1.36,0.64c-0.19,0.38-0.45,0.72-0.78,1c-0.33,0.28-0.71,0.5-1.16,0.65
			C52.13,27.69,51.64,27.76,51.1,27.76z"/>
		<path class="st36" d="M56.83,27.6v-8h1.46l0.16,1.44c0.21-0.52,0.53-0.92,0.95-1.19c0.42-0.27,0.94-0.41,1.56-0.41
			c0.16,0,0.32,0.01,0.48,0.04c0.16,0.03,0.29,0.07,0.4,0.12l-0.24,1.5c-0.12-0.04-0.25-0.08-0.39-0.1
			c-0.14-0.03-0.34-0.04-0.58-0.04c-0.33,0-0.66,0.09-0.98,0.26c-0.32,0.18-0.58,0.44-0.79,0.79s-0.31,0.8-0.31,1.34v4.24H56.83z"/>
		<path class="st36" d="M63.46,27.6v-8h1.52l0.11,2.08l-0.22-0.22c0.15-0.46,0.37-0.84,0.65-1.14c0.28-0.3,0.62-0.53,1.01-0.66
			c0.39-0.14,0.8-0.21,1.24-0.21c0.57,0,1.07,0.11,1.53,0.33c0.45,0.22,0.81,0.55,1.08,0.98c0.27,0.44,0.4,0.99,0.4,1.66v5.18h-1.71
			v-4.66c0-0.79-0.16-1.34-0.49-1.64c-0.33-0.3-0.73-0.46-1.22-0.46c-0.35,0-0.69,0.08-1.02,0.25c-0.33,0.17-0.61,0.43-0.82,0.79
			s-0.33,0.85-0.33,1.46v4.26H63.46z"/>
		<path class="st36" d="M76.88,27.76c-0.8,0-1.5-0.17-2.11-0.5c-0.61-0.33-1.08-0.81-1.42-1.43s-0.5-1.37-0.5-2.23
			s0.17-1.61,0.5-2.23s0.8-1.1,1.4-1.43c0.6-0.33,1.27-0.5,2.03-0.5c0.78,0,1.44,0.16,1.98,0.48c0.54,0.32,0.96,0.76,1.25,1.31
			c0.29,0.55,0.43,1.18,0.43,1.89c0,0.19-0.01,0.37-0.02,0.54c-0.01,0.17-0.03,0.32-0.05,0.45h-6.43V22.8h5.68l-0.85,0.26
			c0-0.73-0.18-1.28-0.54-1.67c-0.36-0.39-0.86-0.58-1.49-0.58c-0.46,0-0.86,0.11-1.2,0.32c-0.34,0.21-0.6,0.53-0.78,0.95
			c-0.18,0.42-0.27,0.94-0.27,1.54c0,0.6,0.1,1.1,0.29,1.52s0.46,0.73,0.82,0.94c0.35,0.21,0.77,0.32,1.25,0.32
			c0.53,0,0.96-0.1,1.3-0.3c0.33-0.2,0.59-0.49,0.78-0.85l1.36,0.64c-0.19,0.38-0.45,0.72-0.78,1c-0.33,0.28-0.71,0.5-1.16,0.65
			C77.9,27.69,77.41,27.76,76.88,27.76z"/>
		<path class="st36" d="M87.5,19.6v1.34h-6V19.6H87.5z M84.75,17.25v7.95c0,0.39,0.1,0.68,0.31,0.86c0.21,0.18,0.49,0.27,0.84,0.27
			c0.29,0,0.54-0.04,0.75-0.14c0.21-0.09,0.41-0.22,0.59-0.38l0.38,1.25c-0.25,0.21-0.55,0.38-0.9,0.5s-0.75,0.18-1.19,0.18
			c-0.46,0-0.88-0.07-1.26-0.22c-0.38-0.15-0.68-0.39-0.9-0.73c-0.21-0.34-0.33-0.78-0.34-1.32v-7.76L84.75,17.25z"/>
		<path class="st36" d="M92.72,27.76c-0.8,0-1.5-0.17-2.11-0.5c-0.61-0.33-1.08-0.81-1.42-1.43s-0.5-1.37-0.5-2.23
			s0.17-1.61,0.5-2.23s0.8-1.1,1.4-1.43c0.6-0.33,1.27-0.5,2.03-0.5c0.78,0,1.44,0.16,1.98,0.48c0.54,0.32,0.96,0.76,1.25,1.31
			c0.29,0.55,0.43,1.18,0.43,1.89c0,0.19-0.01,0.37-0.02,0.54c-0.01,0.17-0.03,0.32-0.05,0.45h-6.43V22.8h5.68l-0.85,0.26
			c0-0.73-0.18-1.28-0.54-1.67c-0.36-0.39-0.86-0.58-1.49-0.58c-0.46,0-0.86,0.11-1.2,0.32c-0.34,0.21-0.6,0.53-0.78,0.95
			c-0.18,0.42-0.27,0.94-0.27,1.54c0,0.6,0.1,1.1,0.29,1.52s0.46,0.73,0.82,0.94c0.35,0.21,0.77,0.32,1.25,0.32
			c0.53,0,0.96-0.1,1.3-0.3c0.33-0.2,0.59-0.49,0.78-0.85l1.36,0.64c-0.19,0.38-0.45,0.72-0.78,1c-0.33,0.28-0.71,0.5-1.16,0.65
			C93.74,27.69,93.25,27.76,92.72,27.76z"/>
		<path class="st36" d="M101.49,27.76c-0.8,0-1.53-0.15-2.19-0.46c-0.66-0.31-1.18-0.75-1.57-1.31l1.18-1.02
			c0.23,0.44,0.57,0.79,1.02,1.05c0.44,0.26,0.97,0.39,1.59,0.39c0.49,0,0.88-0.08,1.17-0.26c0.29-0.17,0.43-0.41,0.43-0.72
			c0-0.2-0.07-0.38-0.2-0.54s-0.39-0.27-0.76-0.36l-1.68-0.35c-0.85-0.17-1.46-0.45-1.82-0.82c-0.36-0.38-0.54-0.86-0.54-1.45
			c0-0.44,0.13-0.84,0.38-1.22c0.26-0.37,0.63-0.67,1.13-0.9s1.09-0.34,1.78-0.34c0.8,0,1.48,0.14,2.05,0.42s1,0.69,1.3,1.21
			l-1.18,0.99c-0.2-0.43-0.5-0.74-0.9-0.95s-0.81-0.31-1.23-0.31c-0.34,0-0.63,0.04-0.88,0.13c-0.25,0.09-0.43,0.2-0.56,0.35
			s-0.19,0.33-0.19,0.53c0,0.21,0.08,0.4,0.24,0.56s0.45,0.28,0.86,0.37l1.82,0.38c0.77,0.15,1.31,0.4,1.62,0.76
			c0.31,0.36,0.47,0.79,0.47,1.3s-0.13,0.96-0.4,1.35c-0.27,0.39-0.65,0.69-1.15,0.9C102.78,27.65,102.18,27.76,101.49,27.76z"/>
		<path class="st36" d="M112.27,16l-4.77,12.72h-1.6L110.67,16H112.27z"/>
		<path class="st36" d="M122.85,17.04l-3.92,10.56h-2l-3.92-10.56h1.82l2.46,7.02l0.64,2.1l0.64-2.08l2.46-7.04H122.85z"/>
		<path class="st36" d="M135.57,17.04V27.6h-1.58v-6.11l0.13-2.91h-0.02l-3.22,9.02h-1.42l-3.22-9.02h-0.02l0.13,2.91v6.11h-1.58
			V17.04h2.54l2.13,6.11l0.74,2.51h0.03l0.75-2.51l2.11-6.11H135.57z"/>
		<path class="st36" d="M143.66,27.6V16h1.71v4.88c0.27-0.5,0.63-0.87,1.08-1.1c0.45-0.23,0.96-0.34,1.51-0.34
			c0.57,0,1.07,0.11,1.53,0.33c0.45,0.22,0.81,0.55,1.08,0.98c0.27,0.44,0.4,0.99,0.4,1.66v5.18h-1.71v-4.64
			c0-0.79-0.16-1.34-0.49-1.65c-0.33-0.31-0.73-0.46-1.22-0.46c-0.34,0-0.68,0.08-1.02,0.25s-0.61,0.43-0.83,0.8
			c-0.22,0.37-0.33,0.86-0.33,1.48v4.22H143.66z"/>
		<path class="st36" d="M157.04,19.44c0.78,0,1.47,0.17,2.06,0.5c0.6,0.33,1.06,0.81,1.4,1.43s0.5,1.37,0.5,2.23
			s-0.17,1.61-0.5,2.23s-0.8,1.1-1.4,1.43c-0.6,0.33-1.29,0.5-2.06,0.5s-1.47-0.17-2.06-0.5c-0.6-0.33-1.07-0.81-1.41-1.43
			c-0.34-0.62-0.51-1.37-0.51-2.23s0.17-1.61,0.51-2.23c0.34-0.62,0.81-1.1,1.41-1.43C155.57,19.6,156.26,19.44,157.04,19.44z
			 M157.04,20.78c-0.48,0-0.89,0.11-1.22,0.33s-0.59,0.54-0.78,0.95s-0.27,0.93-0.27,1.54c0,0.6,0.09,1.11,0.27,1.53
			c0.18,0.42,0.44,0.74,0.78,0.96c0.34,0.22,0.74,0.33,1.22,0.33c0.48,0,0.89-0.11,1.22-0.33c0.33-0.22,0.59-0.54,0.77-0.96
			c0.18-0.42,0.27-0.93,0.27-1.53c0-0.61-0.09-1.12-0.27-1.54c-0.18-0.42-0.44-0.73-0.77-0.95
			C157.92,20.89,157.52,20.78,157.04,20.78z"/>
		<path class="st36" d="M166.21,27.76c-0.8,0-1.53-0.15-2.19-0.46c-0.66-0.31-1.18-0.75-1.57-1.31l1.18-1.02
			c0.23,0.44,0.57,0.79,1.02,1.05c0.44,0.26,0.97,0.39,1.59,0.39c0.49,0,0.88-0.08,1.17-0.26c0.29-0.17,0.43-0.41,0.43-0.72
			c0-0.2-0.07-0.38-0.2-0.54s-0.39-0.27-0.76-0.36l-1.68-0.35c-0.85-0.17-1.46-0.45-1.82-0.82c-0.36-0.38-0.54-0.86-0.54-1.45
			c0-0.44,0.13-0.84,0.38-1.22c0.26-0.37,0.63-0.67,1.13-0.9s1.09-0.34,1.78-0.34c0.8,0,1.48,0.14,2.05,0.42s1,0.69,1.3,1.21
			l-1.18,0.99c-0.2-0.43-0.5-0.74-0.9-0.95s-0.81-0.31-1.23-0.31c-0.34,0-0.63,0.04-0.88,0.13c-0.25,0.09-0.43,0.2-0.56,0.35
			s-0.19,0.33-0.19,0.53c0,0.21,0.08,0.4,0.24,0.56s0.45,0.28,0.86,0.37l1.82,0.38c0.77,0.15,1.31,0.4,1.62,0.76
			c0.31,0.36,0.47,0.79,0.47,1.3s-0.13,0.96-0.4,1.35c-0.27,0.39-0.65,0.69-1.15,0.9C167.5,27.65,166.9,27.76,166.21,27.76z"/>
		<path class="st36" d="M176.72,19.6v1.34h-6V19.6H176.72z M173.97,17.25v7.95c0,0.39,0.1,0.68,0.31,0.86
			c0.21,0.18,0.49,0.27,0.84,0.27c0.29,0,0.54-0.04,0.75-0.14c0.21-0.09,0.41-0.22,0.59-0.38l0.38,1.25
			c-0.25,0.21-0.55,0.38-0.9,0.5s-0.75,0.18-1.19,0.18c-0.46,0-0.88-0.07-1.26-0.22c-0.38-0.15-0.68-0.39-0.9-0.73
			c-0.21-0.34-0.33-0.78-0.34-1.32v-7.76L173.97,17.25z"/>
		<path class="st36" d="M187.13,27.76c-0.8,0-1.5-0.17-2.11-0.5c-0.61-0.33-1.08-0.81-1.42-1.43s-0.5-1.37-0.5-2.23
			s0.17-1.61,0.5-2.23s0.8-1.1,1.4-1.43c0.6-0.33,1.27-0.5,2.03-0.5c0.78,0,1.44,0.16,1.98,0.48c0.54,0.32,0.96,0.76,1.25,1.31
			c0.29,0.55,0.43,1.18,0.43,1.89c0,0.19-0.01,0.37-0.02,0.54c-0.01,0.17-0.03,0.32-0.05,0.45h-6.43V22.8h5.68l-0.85,0.26
			c0-0.73-0.18-1.28-0.54-1.67c-0.36-0.39-0.86-0.58-1.49-0.58c-0.46,0-0.86,0.11-1.2,0.32c-0.34,0.21-0.6,0.53-0.78,0.95
			c-0.18,0.42-0.27,0.94-0.27,1.54c0,0.6,0.1,1.1,0.29,1.52s0.46,0.73,0.82,0.94c0.35,0.21,0.77,0.32,1.25,0.32
			c0.53,0,0.96-0.1,1.3-0.3c0.33-0.2,0.59-0.49,0.78-0.85l1.36,0.64c-0.19,0.38-0.45,0.72-0.78,1c-0.33,0.28-0.71,0.5-1.16,0.65
			C188.16,27.69,187.67,27.76,187.13,27.76z"/>
		<path class="st36" d="M192.86,27.6v-8h1.52l0.11,2.08l-0.22-0.22c0.15-0.46,0.37-0.84,0.65-1.14c0.28-0.3,0.62-0.53,1.01-0.66
			c0.39-0.14,0.8-0.21,1.24-0.21c0.57,0,1.07,0.11,1.53,0.33c0.45,0.22,0.81,0.55,1.08,0.98c0.27,0.44,0.4,0.99,0.4,1.66v5.18h-1.71
			v-4.66c0-0.79-0.16-1.34-0.49-1.64c-0.33-0.3-0.73-0.46-1.22-0.46c-0.35,0-0.69,0.08-1.02,0.25c-0.33,0.17-0.61,0.43-0.82,0.79
			s-0.33,0.85-0.33,1.46v4.26H192.86z"/>
		<path class="st36" d="M207.82,19.6h1.79l-3.18,8h-1.87l-3.2-8h1.87l2.27,6.51L207.82,19.6z"/>
		<path class="st36" d="M211.93,18.26c-0.37,0-0.66-0.09-0.86-0.28c-0.2-0.19-0.3-0.45-0.3-0.79s0.1-0.6,0.3-0.78
			c0.2-0.18,0.48-0.27,0.86-0.27c0.36,0,0.64,0.09,0.84,0.27c0.2,0.18,0.3,0.44,0.3,0.78s-0.1,0.61-0.3,0.79
			C212.58,18.16,212.3,18.26,211.93,18.26z M212.78,19.6v8h-1.71v-8H212.78z"/>
		<path class="st36" d="M215.45,27.6v-8h1.46l0.16,1.44c0.21-0.52,0.53-0.92,0.95-1.19c0.42-0.27,0.94-0.41,1.56-0.41
			c0.16,0,0.32,0.01,0.48,0.04c0.16,0.03,0.29,0.07,0.4,0.12l-0.24,1.5c-0.12-0.04-0.25-0.08-0.39-0.1
			c-0.14-0.03-0.34-0.04-0.58-0.04c-0.33,0-0.66,0.09-0.98,0.26c-0.32,0.18-0.58,0.44-0.79,0.79s-0.31,0.8-0.31,1.34v4.24H215.45z"
			/>
		<path class="st36" d="M225.34,19.44c0.78,0,1.47,0.17,2.06,0.5c0.6,0.33,1.06,0.81,1.4,1.43s0.5,1.37,0.5,2.23
			s-0.17,1.61-0.5,2.23s-0.8,1.1-1.4,1.43c-0.6,0.33-1.29,0.5-2.06,0.5s-1.47-0.17-2.06-0.5c-0.6-0.33-1.07-0.81-1.41-1.43
			c-0.34-0.62-0.51-1.37-0.51-2.23s0.17-1.61,0.51-2.23c0.34-0.62,0.81-1.1,1.41-1.43C223.87,19.6,224.56,19.44,225.34,19.44z
			 M225.34,20.78c-0.48,0-0.89,0.11-1.22,0.33s-0.59,0.54-0.78,0.95s-0.27,0.93-0.27,1.54c0,0.6,0.09,1.11,0.27,1.53
			c0.18,0.42,0.44,0.74,0.78,0.96c0.34,0.22,0.74,0.33,1.22,0.33c0.48,0,0.89-0.11,1.22-0.33c0.33-0.22,0.59-0.54,0.77-0.96
			c0.18-0.42,0.27-0.93,0.27-1.53c0-0.61-0.09-1.12-0.27-1.54c-0.18-0.42-0.44-0.73-0.77-0.95
			C226.23,20.89,225.82,20.78,225.34,20.78z"/>
		<path class="st36" d="M231.47,27.6v-8h1.52l0.11,2.08l-0.22-0.22c0.15-0.46,0.37-0.84,0.65-1.14c0.28-0.3,0.62-0.53,1.01-0.66
			c0.39-0.14,0.8-0.21,1.24-0.21c0.57,0,1.07,0.11,1.53,0.33c0.45,0.22,0.81,0.55,1.08,0.98c0.27,0.44,0.4,0.99,0.4,1.66v5.18h-1.71
			v-4.66c0-0.79-0.16-1.34-0.49-1.64c-0.33-0.3-0.73-0.46-1.22-0.46c-0.35,0-0.69,0.08-1.02,0.25c-0.33,0.17-0.61,0.43-0.82,0.79
			s-0.33,0.85-0.33,1.46v4.26H231.47z"/>
		<path class="st36" d="M241.37,27.6v-8h1.52l0.08,1.34c0.28-0.51,0.65-0.89,1.11-1.14c0.46-0.25,0.96-0.37,1.48-0.37
			c0.58,0,1.11,0.13,1.59,0.39c0.49,0.26,0.85,0.65,1.1,1.18c0.17-0.35,0.41-0.65,0.7-0.88c0.3-0.23,0.63-0.41,0.99-0.52
			c0.36-0.11,0.72-0.17,1.07-0.17c0.51,0,0.99,0.11,1.44,0.32s0.81,0.54,1.09,0.98s0.42,1,0.42,1.68v5.18h-1.71v-4.91
			c0-0.65-0.15-1.12-0.46-1.41c-0.31-0.29-0.7-0.43-1.18-0.43c-0.37,0-0.72,0.09-1.03,0.27c-0.32,0.18-0.57,0.45-0.76,0.81
			c-0.19,0.36-0.29,0.8-0.29,1.32v4.35h-1.71v-4.91c0-0.65-0.15-1.12-0.46-1.41c-0.31-0.29-0.7-0.43-1.18-0.43
			c-0.32,0-0.64,0.09-0.96,0.26c-0.32,0.17-0.59,0.44-0.8,0.8c-0.21,0.36-0.32,0.84-0.32,1.44v4.26H241.37z"/>
		<path class="st36" d="M260.08,27.76c-0.8,0-1.5-0.17-2.11-0.5c-0.61-0.33-1.08-0.81-1.42-1.43s-0.5-1.37-0.5-2.23
			s0.17-1.61,0.5-2.23s0.8-1.1,1.4-1.43c0.6-0.33,1.27-0.5,2.03-0.5c0.78,0,1.44,0.16,1.98,0.48c0.54,0.32,0.96,0.76,1.25,1.31
			c0.29,0.55,0.43,1.18,0.43,1.89c0,0.19-0.01,0.37-0.02,0.54c-0.01,0.17-0.03,0.32-0.05,0.45h-6.43V22.8h5.68l-0.85,0.26
			c0-0.73-0.18-1.28-0.54-1.67c-0.36-0.39-0.86-0.58-1.49-0.58c-0.46,0-0.86,0.11-1.2,0.32c-0.34,0.21-0.6,0.53-0.78,0.95
			c-0.18,0.42-0.27,0.94-0.27,1.54c0,0.6,0.1,1.1,0.29,1.52s0.46,0.73,0.82,0.94c0.35,0.21,0.77,0.32,1.25,0.32
			c0.53,0,0.96-0.1,1.3-0.3c0.33-0.2,0.59-0.49,0.78-0.85l1.36,0.64c-0.19,0.38-0.45,0.72-0.78,1c-0.33,0.28-0.71,0.5-1.16,0.65
			C261.1,27.69,260.61,27.76,260.08,27.76z"/>
		<path class="st36" d="M265.8,27.6v-8h1.52l0.11,2.08l-0.22-0.22c0.15-0.46,0.37-0.84,0.65-1.14c0.28-0.3,0.62-0.53,1.01-0.66
			c0.39-0.14,0.8-0.21,1.24-0.21c0.57,0,1.07,0.11,1.53,0.33c0.45,0.22,0.81,0.55,1.08,0.98c0.27,0.44,0.4,0.99,0.4,1.66v5.18h-1.71
			v-4.66c0-0.79-0.16-1.34-0.49-1.64c-0.33-0.3-0.73-0.46-1.22-0.46c-0.35,0-0.69,0.08-1.02,0.25c-0.33,0.17-0.61,0.43-0.82,0.79
			s-0.33,0.85-0.33,1.46v4.26H265.8z"/>
		<path class="st36" d="M280.7,19.6v1.34h-6V19.6H280.7z M277.95,17.25v7.95c0,0.39,0.1,0.68,0.31,0.86
			c0.21,0.18,0.49,0.27,0.84,0.27c0.29,0,0.54-0.04,0.75-0.14c0.21-0.09,0.41-0.22,0.59-0.38l0.38,1.25
			c-0.25,0.21-0.55,0.38-0.9,0.5s-0.75,0.18-1.19,0.18c-0.46,0-0.88-0.07-1.26-0.22c-0.38-0.15-0.68-0.39-0.9-0.73
			c-0.21-0.34-0.33-0.78-0.34-1.32v-7.76L277.95,17.25z"/>
	</g>
	<path class="st38" d="M156,496H36c-2.21,0-4-1.79-4-4v-60h128v60C160,494.21,158.21,496,156,496z"/>
	<path class="st1" d="M160,432H32v-20c0-2.21,1.79-4,4-4h120c2.21,0,4,1.79,4,4V432z"/>
	<g>
		<path class="st36" d="M42.53,421.14v3.42h-1.4v-8.57h2.42c1.11,0,1.92,0.21,2.46,0.62s0.8,1.04,0.8,1.88
			c0,1.07-0.55,1.83-1.66,2.28l2.42,3.79h-1.59l-2.05-3.42H42.53z M42.53,419.98h0.97c0.65,0,1.12-0.12,1.42-0.36
			s0.44-0.6,0.44-1.08c0-0.48-0.16-0.83-0.47-1.04s-0.79-0.32-1.43-0.32h-0.93V419.98z"/>
		<path class="st36" d="M51.48,424.68c-1.01,0-1.8-0.29-2.36-0.88s-0.85-1.4-0.85-2.43c0-1.06,0.26-1.89,0.79-2.5
			s1.25-0.91,2.17-0.91c0.86,0,1.53,0.26,2.03,0.78s0.74,1.23,0.74,2.14v0.74h-4.32c0.02,0.63,0.19,1.11,0.51,1.45
			s0.77,0.51,1.35,0.51c0.38,0,0.74-0.04,1.07-0.11s0.68-0.19,1.06-0.36v1.12c-0.34,0.16-0.68,0.27-1.02,0.34
			S51.93,424.68,51.48,424.68z M51.23,419.01c-0.44,0-0.79,0.14-1.05,0.42s-0.42,0.68-0.47,1.21h2.94
			c-0.01-0.54-0.14-0.94-0.39-1.22S51.67,419.01,51.23,419.01z"/>
		<path class="st36" d="M59.92,422.71c0,0.63-0.23,1.12-0.69,1.46s-1.12,0.51-1.98,0.51c-0.86,0-1.56-0.13-2.08-0.39v-1.19
			c0.76,0.35,1.47,0.53,2.13,0.53c0.85,0,1.27-0.26,1.27-0.77c0-0.16-0.05-0.3-0.14-0.41s-0.25-0.22-0.46-0.34s-0.51-0.25-0.9-0.4
			c-0.75-0.29-1.25-0.58-1.51-0.87s-0.4-0.66-0.4-1.12c0-0.55,0.22-0.99,0.67-1.29s1.06-0.46,1.83-0.46c0.76,0,1.48,0.15,2.16,0.46
			l-0.45,1.04c-0.7-0.29-1.29-0.43-1.76-0.43c-0.73,0-1.09,0.21-1.09,0.62c0,0.2,0.09,0.38,0.28,0.52s0.6,0.33,1.24,0.58
			c0.54,0.21,0.92,0.4,1.17,0.57s0.42,0.37,0.54,0.59S59.92,422.4,59.92,422.71z"/>
		<path class="st36" d="M67.16,421.31c0,1.06-0.27,1.88-0.81,2.48s-1.3,0.89-2.27,0.89c-0.61,0-1.14-0.14-1.61-0.41
			s-0.82-0.67-1.07-1.18s-0.38-1.11-0.38-1.78c0-1.05,0.27-1.87,0.81-2.46s1.3-0.88,2.28-0.88c0.94,0,1.68,0.3,2.23,0.9
			S67.16,420.29,67.16,421.31z M62.44,421.31c0,1.5,0.55,2.24,1.66,2.24c1.09,0,1.64-0.75,1.64-2.24c0-1.48-0.55-2.22-1.65-2.22
			c-0.58,0-1,0.19-1.26,0.57S62.44,420.59,62.44,421.31z"/>
		<path class="st36" d="M73.31,424.56l-0.19-0.85h-0.07c-0.19,0.3-0.46,0.54-0.82,0.71s-0.76,0.26-1.21,0.26
			c-0.79,0-1.37-0.2-1.76-0.59s-0.58-0.98-0.58-1.78v-4.24h1.39v4c0,0.5,0.1,0.87,0.3,1.12s0.52,0.37,0.96,0.37
			c0.58,0,1-0.17,1.27-0.52s0.41-0.92,0.41-1.74v-3.23h1.38v6.48H73.31z"/>
		<path class="st36" d="M79.64,417.96c0.28,0,0.51,0.02,0.69,0.06l-0.13,1.28c-0.2-0.05-0.4-0.07-0.61-0.07
			c-0.55,0-1,0.18-1.34,0.54s-0.51,0.83-0.51,1.4v3.39h-1.38v-6.48h1.08l0.18,1.14h0.07c0.21-0.39,0.5-0.69,0.84-0.92
			S79.25,417.96,79.64,417.96z"/>
		<path class="st36" d="M84.14,424.68c-0.98,0-1.73-0.29-2.24-0.86s-0.76-1.39-0.76-2.46c0-1.09,0.27-1.93,0.8-2.51
			s1.3-0.88,2.31-0.88c0.68,0,1.3,0.13,1.85,0.38l-0.42,1.11c-0.58-0.23-1.06-0.34-1.44-0.34c-1.12,0-1.68,0.74-1.68,2.23
			c0,0.73,0.14,1.27,0.42,1.64s0.69,0.55,1.23,0.55c0.61,0,1.19-0.15,1.74-0.46v1.2c-0.25,0.14-0.51,0.25-0.79,0.31
			S84.54,424.68,84.14,424.68z"/>
		<path class="st36" d="M90.3,424.68c-1.01,0-1.8-0.29-2.36-0.88s-0.85-1.4-0.85-2.43c0-1.06,0.26-1.89,0.79-2.5
			s1.25-0.91,2.17-0.91c0.86,0,1.53,0.26,2.03,0.78s0.74,1.23,0.74,2.14v0.74H88.5c0.02,0.63,0.19,1.11,0.51,1.45
			s0.77,0.51,1.35,0.51c0.38,0,0.74-0.04,1.07-0.11s0.68-0.19,1.06-0.36v1.12c-0.34,0.16-0.68,0.27-1.02,0.34
			S90.74,424.68,90.3,424.68z M90.05,419.01c-0.44,0-0.79,0.14-1.05,0.42s-0.42,0.68-0.47,1.21h2.94c-0.01-0.54-0.14-0.94-0.39-1.22
			S90.49,419.01,90.05,419.01z"/>
		<path class="st36" d="M102.96,424.56h-1.38v-4c0-0.5-0.09-0.87-0.28-1.11s-0.48-0.37-0.88-0.37c-0.53,0-0.92,0.17-1.17,0.52
			s-0.37,0.92-0.37,1.73v3.23H97.5v-6.48h1.08l0.19,0.85h0.07c0.18-0.31,0.44-0.55,0.78-0.71s0.72-0.25,1.13-0.25
			c1,0,1.66,0.34,1.98,1.02h0.09c0.19-0.32,0.46-0.57,0.81-0.75s0.75-0.27,1.2-0.27c0.77,0,1.34,0.2,1.69,0.59s0.53,0.99,0.53,1.79
			v4.22h-1.38v-4c0-0.5-0.09-0.87-0.28-1.11s-0.48-0.37-0.88-0.37c-0.54,0-0.93,0.17-1.17,0.5s-0.37,0.85-0.37,1.54V424.56z"/>
		<path class="st36" d="M113.03,424.56l-0.28-0.9h-0.05c-0.31,0.39-0.63,0.66-0.94,0.8s-0.72,0.21-1.22,0.21
			c-0.64,0-1.13-0.17-1.49-0.52s-0.54-0.83-0.54-1.46c0-0.67,0.25-1.17,0.74-1.51s1.25-0.53,2.27-0.56l1.12-0.04v-0.35
			c0-0.41-0.1-0.72-0.29-0.93s-0.49-0.31-0.9-0.31c-0.33,0-0.65,0.05-0.96,0.15s-0.6,0.21-0.88,0.35l-0.45-0.98
			c0.35-0.18,0.74-0.32,1.15-0.42s0.81-0.14,1.18-0.14c0.82,0,1.45,0.18,1.87,0.54s0.63,0.92,0.63,1.69v4.37H113.03z M110.98,423.62
			c0.5,0,0.9-0.14,1.2-0.42s0.45-0.67,0.45-1.17v-0.56l-0.83,0.04c-0.65,0.02-1.12,0.13-1.42,0.32s-0.44,0.49-0.44,0.89
			c0,0.29,0.09,0.51,0.26,0.67S110.64,423.62,110.98,423.62z"/>
		<path class="st36" d="M121.64,424.56h-1.38v-3.98c0-0.5-0.1-0.87-0.3-1.12s-0.52-0.37-0.96-0.37c-0.58,0-1.01,0.17-1.28,0.52
			s-0.4,0.92-0.4,1.73v3.23h-1.38v-6.48h1.08l0.19,0.85h0.07c0.2-0.31,0.47-0.55,0.83-0.71s0.76-0.25,1.2-0.25
			c1.55,0,2.33,0.79,2.33,2.37V424.56z"/>
		<path class="st36" d="M127.61,424.56l-0.28-0.9h-0.05c-0.31,0.39-0.63,0.66-0.94,0.8s-0.72,0.21-1.22,0.21
			c-0.64,0-1.13-0.17-1.49-0.52s-0.54-0.83-0.54-1.46c0-0.67,0.25-1.17,0.74-1.51s1.25-0.53,2.27-0.56l1.12-0.04v-0.35
			c0-0.41-0.1-0.72-0.29-0.93s-0.49-0.31-0.9-0.31c-0.33,0-0.65,0.05-0.96,0.15s-0.6,0.21-0.88,0.35l-0.45-0.98
			c0.35-0.18,0.74-0.32,1.15-0.42s0.81-0.14,1.18-0.14c0.82,0,1.45,0.18,1.87,0.54s0.63,0.92,0.63,1.69v4.37H127.61z M125.56,423.62
			c0.5,0,0.9-0.14,1.2-0.42s0.45-0.67,0.45-1.17v-0.56l-0.83,0.04c-0.65,0.02-1.12,0.13-1.42,0.32s-0.44,0.49-0.44,0.89
			c0,0.29,0.09,0.51,0.26,0.67S125.21,423.62,125.56,423.62z"/>
		<path class="st36" d="M135.99,418.08v0.76l-1.11,0.21c0.1,0.14,0.19,0.3,0.25,0.5s0.1,0.41,0.1,0.63c0,0.67-0.23,1.19-0.69,1.58
			s-1.1,0.57-1.9,0.57c-0.21,0-0.39-0.02-0.56-0.05c-0.3,0.18-0.45,0.4-0.45,0.64c0,0.15,0.07,0.26,0.21,0.33s0.39,0.11,0.76,0.11
			h1.13c0.71,0,1.26,0.15,1.63,0.46s0.56,0.74,0.56,1.32c0,0.73-0.3,1.3-0.91,1.7s-1.48,0.6-2.62,0.6c-0.88,0-1.56-0.16-2.02-0.47
			s-0.7-0.76-0.7-1.34c0-0.4,0.13-0.73,0.38-1.01s0.6-0.46,1.06-0.56c-0.18-0.08-0.33-0.21-0.45-0.38s-0.18-0.36-0.18-0.55
			c0-0.24,0.07-0.45,0.21-0.62s0.34-0.33,0.61-0.5c-0.34-0.14-0.61-0.38-0.82-0.71s-0.31-0.71-0.31-1.14c0-0.7,0.22-1.25,0.67-1.63
			s1.08-0.58,1.9-0.58c0.18,0,0.38,0.01,0.58,0.04s0.35,0.05,0.45,0.08H135.99z M130.9,425.57c0,0.3,0.13,0.53,0.4,0.69
			s0.64,0.24,1.13,0.24c0.75,0,1.31-0.11,1.68-0.32s0.55-0.5,0.55-0.86c0-0.28-0.1-0.48-0.3-0.6s-0.58-0.18-1.12-0.18h-1.04
			c-0.39,0-0.71,0.09-0.94,0.28S130.9,425.25,130.9,425.57z M131.49,420.18c0,0.41,0.1,0.72,0.31,0.94s0.51,0.33,0.9,0.33
			c0.8,0,1.2-0.43,1.2-1.28c0-0.42-0.1-0.75-0.3-0.98s-0.5-0.34-0.9-0.34c-0.4,0-0.7,0.11-0.91,0.34S131.49,419.74,131.49,420.18z"
			/>
		<path class="st36" d="M140.02,424.68c-1.01,0-1.8-0.29-2.36-0.88s-0.85-1.4-0.85-2.43c0-1.06,0.26-1.89,0.79-2.5
			s1.25-0.91,2.17-0.91c0.86,0,1.53,0.26,2.03,0.78s0.74,1.23,0.74,2.14v0.74h-4.32c0.02,0.63,0.19,1.11,0.51,1.45
			s0.77,0.51,1.35,0.51c0.38,0,0.74-0.04,1.07-0.11s0.68-0.19,1.06-0.36v1.12c-0.34,0.16-0.68,0.27-1.02,0.34
			S140.46,424.68,140.02,424.68z M139.77,419.01c-0.44,0-0.79,0.14-1.05,0.42s-0.42,0.68-0.47,1.21h2.94
			c-0.01-0.54-0.14-0.94-0.39-1.22S140.21,419.01,139.77,419.01z"/>
		<path class="st36" d="M147.39,417.96c0.28,0,0.51,0.02,0.69,0.06l-0.13,1.28c-0.2-0.05-0.4-0.07-0.61-0.07
			c-0.55,0-1,0.18-1.34,0.54s-0.51,0.83-0.51,1.4v3.39h-1.38v-6.48h1.08l0.18,1.14h0.07c0.21-0.39,0.5-0.69,0.84-0.92
			S146.99,417.96,147.39,417.96z"/>
	</g>
	<g>
		<path class="st36" d="M212.09,320.56h-1.4v-7.37h-2.52v-1.2h6.44v1.2h-2.52V320.56z"/>
		<path class="st36" d="M218.61,320.68c-1.01,0-1.8-0.29-2.36-0.88s-0.85-1.4-0.85-2.43c0-1.06,0.26-1.89,0.79-2.5
			s1.25-0.91,2.17-0.91c0.86,0,1.53,0.26,2.03,0.78s0.74,1.23,0.74,2.14v0.74h-4.32c0.02,0.63,0.19,1.11,0.51,1.45
			s0.77,0.51,1.35,0.51c0.38,0,0.74-0.04,1.07-0.11s0.68-0.19,1.06-0.36v1.12c-0.34,0.16-0.68,0.27-1.02,0.34
			S219.05,320.68,218.61,320.68z M218.35,315.01c-0.44,0-0.79,0.14-1.05,0.42s-0.42,0.68-0.47,1.21h2.94
			c-0.01-0.54-0.14-0.94-0.39-1.22S218.79,315.01,218.35,315.01z"/>
		<path class="st36" d="M227.04,318.71c0,0.63-0.23,1.12-0.69,1.46s-1.12,0.51-1.98,0.51c-0.86,0-1.56-0.13-2.08-0.39v-1.19
			c0.76,0.35,1.47,0.53,2.13,0.53c0.85,0,1.27-0.26,1.27-0.77c0-0.16-0.05-0.3-0.14-0.41s-0.25-0.22-0.46-0.34s-0.51-0.25-0.9-0.4
			c-0.75-0.29-1.25-0.58-1.51-0.87s-0.4-0.66-0.4-1.12c0-0.55,0.22-0.99,0.67-1.29s1.06-0.46,1.83-0.46c0.76,0,1.48,0.15,2.16,0.46
			l-0.45,1.04c-0.7-0.29-1.29-0.43-1.76-0.43c-0.73,0-1.09,0.21-1.09,0.62c0,0.2,0.09,0.38,0.28,0.52s0.6,0.33,1.24,0.58
			c0.54,0.21,0.92,0.4,1.17,0.57s0.42,0.37,0.54,0.59S227.04,318.4,227.04,318.71z"/>
		<path class="st36" d="M230.95,319.56c0.34,0,0.67-0.05,1.01-0.16v1.04c-0.15,0.07-0.35,0.12-0.59,0.17s-0.49,0.07-0.75,0.07
			c-1.3,0-1.96-0.69-1.96-2.06v-3.49h-0.88v-0.61l0.95-0.5l0.47-1.37h0.85v1.44h1.85v1.04h-1.85v3.47c0,0.33,0.08,0.58,0.25,0.74
			S230.68,319.56,230.95,319.56z"/>
		<path class="st36" d="M239.2,320.68c-1.01,0-1.8-0.29-2.36-0.88s-0.85-1.4-0.85-2.43c0-1.06,0.26-1.89,0.79-2.5
			s1.25-0.91,2.17-0.91c0.86,0,1.53,0.26,2.03,0.78s0.74,1.23,0.74,2.14v0.74h-4.32c0.02,0.63,0.19,1.11,0.51,1.45
			s0.77,0.51,1.35,0.51c0.38,0,0.74-0.04,1.07-0.11s0.68-0.19,1.06-0.36v1.12c-0.34,0.16-0.68,0.27-1.02,0.34
			S239.64,320.68,239.2,320.68z M238.94,315.01c-0.44,0-0.79,0.14-1.05,0.42s-0.42,0.68-0.47,1.21h2.94
			c-0.01-0.54-0.14-0.94-0.39-1.22S239.38,315.01,238.94,315.01z"/>
		<path class="st36" d="M248.98,320.56h-1.38v-3.98c0-0.5-0.1-0.87-0.3-1.12s-0.52-0.37-0.96-0.37c-0.58,0-1.01,0.17-1.28,0.52
			s-0.4,0.92-0.4,1.73v3.23h-1.38v-6.48h1.08l0.19,0.85h0.07c0.2-0.31,0.47-0.55,0.83-0.71s0.76-0.25,1.2-0.25
			c1.55,0,2.33,0.79,2.33,2.37V320.56z"/>
		<path class="st36" d="M256.37,314.08v0.76l-1.11,0.21c0.1,0.14,0.19,0.3,0.25,0.5s0.1,0.41,0.1,0.63c0,0.67-0.23,1.19-0.69,1.58
			s-1.1,0.57-1.9,0.57c-0.21,0-0.39-0.02-0.56-0.05c-0.3,0.18-0.45,0.4-0.45,0.64c0,0.15,0.07,0.26,0.21,0.33s0.39,0.11,0.76,0.11
			h1.13c0.71,0,1.26,0.15,1.63,0.46s0.56,0.74,0.56,1.32c0,0.73-0.3,1.3-0.91,1.7s-1.48,0.6-2.62,0.6c-0.88,0-1.56-0.16-2.02-0.47
			s-0.7-0.76-0.7-1.34c0-0.4,0.13-0.73,0.38-1s0.6-0.46,1.06-0.57c-0.18-0.08-0.33-0.2-0.45-0.38s-0.18-0.36-0.18-0.55
			c0-0.24,0.07-0.45,0.21-0.62s0.34-0.33,0.61-0.5c-0.34-0.14-0.61-0.38-0.82-0.71s-0.31-0.71-0.31-1.15c0-0.7,0.22-1.25,0.67-1.63
			s1.08-0.58,1.9-0.58c0.18,0,0.38,0.01,0.58,0.04s0.35,0.05,0.45,0.08H256.37z M251.28,321.57c0,0.3,0.13,0.53,0.4,0.69
			s0.64,0.24,1.13,0.24c0.75,0,1.31-0.11,1.68-0.32s0.55-0.5,0.55-0.86c0-0.28-0.1-0.48-0.3-0.6s-0.58-0.18-1.12-0.18h-1.04
			c-0.39,0-0.71,0.09-0.94,0.28S251.28,321.25,251.28,321.57z M251.87,316.18c0,0.41,0.1,0.72,0.31,0.94s0.51,0.33,0.9,0.33
			c0.8,0,1.2-0.43,1.2-1.28c0-0.42-0.1-0.75-0.3-0.98s-0.5-0.34-0.9-0.34c-0.4,0-0.7,0.11-0.91,0.34S251.87,315.74,251.87,316.18z"
			/>
		<path class="st36" d="M257.49,312.36c0-0.25,0.07-0.44,0.2-0.57s0.33-0.2,0.58-0.2c0.24,0,0.43,0.07,0.57,0.2s0.2,0.32,0.2,0.57
			c0,0.23-0.07,0.42-0.2,0.55s-0.32,0.2-0.57,0.2c-0.25,0-0.44-0.07-0.58-0.2S257.49,312.6,257.49,312.36z M258.95,320.56h-1.38
			v-6.48h1.38V320.56z"/>
		<path class="st36" d="M266.62,320.56h-1.38v-3.98c0-0.5-0.1-0.87-0.3-1.12s-0.52-0.37-0.96-0.37c-0.58,0-1.01,0.17-1.28,0.52
			s-0.4,0.92-0.4,1.73v3.23h-1.38v-6.48h1.08l0.19,0.85h0.07c0.2-0.31,0.47-0.55,0.83-0.71s0.76-0.25,1.2-0.25
			c1.55,0,2.33,0.79,2.33,2.37V320.56z"/>
		<path class="st36" d="M271.36,320.68c-1.01,0-1.8-0.29-2.36-0.88s-0.85-1.4-0.85-2.43c0-1.06,0.26-1.89,0.79-2.5
			s1.25-0.91,2.17-0.91c0.86,0,1.53,0.26,2.03,0.78s0.74,1.23,0.74,2.14v0.74h-4.32c0.02,0.63,0.19,1.11,0.51,1.45
			s0.77,0.51,1.35,0.51c0.38,0,0.74-0.04,1.07-0.11s0.68-0.19,1.06-0.36v1.12c-0.34,0.16-0.68,0.27-1.02,0.34
			S271.8,320.68,271.36,320.68z M271.11,315.01c-0.44,0-0.79,0.14-1.05,0.42s-0.42,0.68-0.47,1.21h2.94
			c-0.01-0.54-0.14-0.94-0.39-1.22S271.55,315.01,271.11,315.01z"/>
		<path class="st36" d="M279.8,318.71c0,0.63-0.23,1.12-0.69,1.46s-1.12,0.51-1.98,0.51c-0.86,0-1.56-0.13-2.08-0.39v-1.19
			c0.76,0.35,1.47,0.53,2.13,0.53c0.85,0,1.27-0.26,1.27-0.77c0-0.16-0.05-0.3-0.14-0.41s-0.25-0.22-0.46-0.34s-0.51-0.25-0.9-0.4
			c-0.75-0.29-1.25-0.58-1.51-0.87s-0.4-0.66-0.4-1.12c0-0.55,0.22-0.99,0.67-1.29s1.06-0.46,1.83-0.46c0.76,0,1.48,0.15,2.16,0.46
			l-0.45,1.04c-0.7-0.29-1.29-0.43-1.76-0.43c-0.73,0-1.09,0.21-1.09,0.62c0,0.2,0.09,0.38,0.28,0.52s0.6,0.33,1.24,0.58
			c0.54,0.21,0.92,0.4,1.17,0.57s0.42,0.37,0.54,0.59S279.8,318.4,279.8,318.71z"/>
	</g>
	<path class="st38" d="M156,392H36c-2.21,0-4-1.79-4-4v-59.85c0-0.08,0.06-0.15,0.15-0.15h127.71c0.08,0,0.15,0.06,0.15,0.15V388
		C160,390.21,158.21,392,156,392z"/>
	<path class="st1" d="M160,328H32v-20c0-2.21,1.79-4,4-4h120c2.21,0,4,1.79,4,4V328z"/>
	<g>
		<path class="st36" d="M46.45,320.56l-0.86-2.38h-3.28l-0.84,2.38H40l3.21-8.6h1.52l3.21,8.6H46.45z M45.22,316.97l-0.8-2.33
			c-0.06-0.16-0.14-0.4-0.24-0.74s-0.17-0.58-0.21-0.74c-0.11,0.48-0.26,1.01-0.46,1.58l-0.77,2.23H45.22z"/>
		<path class="st36" d="M54.74,314.58c0,0.89-0.29,1.58-0.88,2.06s-1.42,0.71-2.5,0.71h-0.89v3.21h-1.4v-8.57h2.47
			c1.07,0,1.87,0.22,2.41,0.66S54.74,313.73,54.74,314.58z M50.46,316.18h0.74c0.72,0,1.25-0.12,1.58-0.38s0.5-0.64,0.5-1.17
			c0-0.49-0.15-0.86-0.45-1.1s-0.77-0.36-1.41-0.36h-0.97V316.18z"/>
		<path class="st36" d="M56.45,320.56v-8.57h1.4v8.57H56.45z"/>
		<path class="st36" d="M67.43,318.71c0,0.63-0.23,1.12-0.69,1.46s-1.12,0.51-1.98,0.51c-0.86,0-1.56-0.13-2.08-0.39v-1.19
			c0.76,0.35,1.47,0.53,2.13,0.53c0.85,0,1.27-0.26,1.27-0.77c0-0.16-0.05-0.3-0.14-0.41s-0.25-0.22-0.46-0.34s-0.51-0.25-0.9-0.4
			c-0.75-0.29-1.25-0.58-1.51-0.87s-0.4-0.66-0.4-1.12c0-0.55,0.22-0.99,0.67-1.29s1.06-0.46,1.83-0.46c0.76,0,1.48,0.15,2.16,0.46
			l-0.45,1.04c-0.7-0.29-1.29-0.43-1.76-0.43c-0.73,0-1.09,0.21-1.09,0.62c0,0.2,0.09,0.38,0.28,0.52s0.6,0.33,1.24,0.58
			c0.54,0.21,0.92,0.4,1.17,0.57s0.42,0.37,0.54,0.59S67.43,318.4,67.43,318.71z"/>
		<path class="st36" d="M71.75,320.68c-1.01,0-1.8-0.29-2.36-0.88s-0.85-1.4-0.85-2.43c0-1.06,0.26-1.89,0.79-2.5
			s1.25-0.91,2.17-0.91c0.86,0,1.53,0.26,2.03,0.78s0.74,1.23,0.74,2.14v0.74h-4.32c0.02,0.63,0.19,1.11,0.51,1.45
			s0.77,0.51,1.35,0.51c0.38,0,0.74-0.04,1.07-0.11s0.68-0.19,1.06-0.36v1.12c-0.34,0.16-0.68,0.27-1.02,0.34
			S72.19,320.68,71.75,320.68z M71.5,315.01c-0.44,0-0.79,0.14-1.05,0.42s-0.42,0.68-0.47,1.21h2.94c-0.01-0.54-0.14-0.94-0.39-1.22
			S71.94,315.01,71.5,315.01z"/>
		<path class="st36" d="M79.12,313.96c0.28,0,0.51,0.02,0.69,0.06l-0.13,1.28c-0.2-0.05-0.4-0.07-0.61-0.07
			c-0.55,0-1,0.18-1.34,0.54s-0.51,0.83-0.51,1.4v3.39h-1.38v-6.48h1.08l0.18,1.14h0.07c0.21-0.39,0.5-0.69,0.84-0.92
			S78.72,313.96,79.12,313.96z"/>
		<path class="st36" d="M82.49,320.56l-2.46-6.48h1.45l1.32,3.77c0.23,0.63,0.36,1.14,0.41,1.54h0.05c0.04-0.28,0.17-0.79,0.41-1.54
			l1.32-3.77h1.46l-2.47,6.48H82.49z"/>
		<path class="st36" d="M90.26,320.68c-1.01,0-1.8-0.29-2.36-0.88s-0.85-1.4-0.85-2.43c0-1.06,0.26-1.89,0.79-2.5
			s1.25-0.91,2.17-0.91c0.86,0,1.53,0.26,2.03,0.78s0.74,1.23,0.74,2.14v0.74h-4.32c0.02,0.63,0.19,1.11,0.51,1.45
			s0.77,0.51,1.35,0.51c0.38,0,0.74-0.04,1.07-0.11s0.68-0.19,1.06-0.36v1.12c-0.34,0.16-0.68,0.27-1.02,0.34
			S90.7,320.68,90.26,320.68z M90.01,315.01c-0.44,0-0.79,0.14-1.05,0.42s-0.42,0.68-0.47,1.21h2.94c-0.01-0.54-0.14-0.94-0.39-1.22
			S90.45,315.01,90.01,315.01z"/>
		<path class="st36" d="M97.63,313.96c0.28,0,0.51,0.02,0.69,0.06l-0.13,1.28c-0.2-0.05-0.4-0.07-0.61-0.07
			c-0.55,0-1,0.18-1.34,0.54s-0.51,0.83-0.51,1.4v3.39h-1.38v-6.48h1.08l0.18,1.14h0.07c0.21-0.39,0.5-0.69,0.84-0.92
			S97.23,313.96,97.63,313.96z"/>
	</g>
	<path class="st38" d="M156,288H36c-2.21,0-4-1.79-4-4v-59.88c0-0.07,0.06-0.12,0.12-0.12h127.75c0.07,0,0.12,0.06,0.12,0.12V284
		C160,286.21,158.21,288,156,288z"/>
	<path class="st1" d="M160,224H32v-20c0-2.21,1.79-4,4-4h120c2.21,0,4,1.79,4,4V224z"/>
	<g>
		<path class="st36" d="M42.53,213.14v3.42h-1.4v-8.57h2.42c1.11,0,1.92,0.21,2.46,0.62s0.8,1.04,0.8,1.88
			c0,1.07-0.55,1.83-1.66,2.28l2.42,3.79h-1.59l-2.05-3.42H42.53z M42.53,211.98h0.97c0.65,0,1.12-0.12,1.42-0.36
			s0.44-0.6,0.44-1.08c0-0.48-0.16-0.83-0.47-1.04s-0.79-0.32-1.43-0.32h-0.93V211.98z"/>
		<path class="st36" d="M54.12,216.56l-0.86-2.38h-3.28l-0.84,2.38h-1.48l3.21-8.6h1.52l3.21,8.6H54.12z M52.89,212.97l-0.8-2.33
			c-0.06-0.16-0.14-0.4-0.24-0.74s-0.17-0.58-0.21-0.74c-0.11,0.48-0.26,1.01-0.46,1.58l-0.77,2.23H52.89z"/>
		<path class="st36" d="M61.67,214.23c0,0.76-0.28,1.36-0.83,1.79s-1.31,0.65-2.28,0.65s-1.76-0.15-2.38-0.45v-1.32
			c0.39,0.18,0.81,0.33,1.25,0.43s0.85,0.16,1.23,0.16c0.55,0,0.96-0.11,1.23-0.32s0.4-0.49,0.4-0.85c0-0.32-0.12-0.59-0.36-0.81
			s-0.74-0.49-1.5-0.79c-0.78-0.32-1.33-0.68-1.65-1.08s-0.48-0.89-0.48-1.46c0-0.71,0.25-1.28,0.76-1.69s1.19-0.62,2.04-0.62
			c0.82,0,1.64,0.18,2.45,0.54l-0.45,1.14c-0.76-0.32-1.44-0.48-2.04-0.48c-0.45,0-0.8,0.1-1.03,0.3s-0.35,0.46-0.35,0.78
			c0,0.22,0.05,0.41,0.14,0.57s0.25,0.31,0.46,0.45s0.6,0.33,1.16,0.56c0.63,0.26,1.09,0.51,1.38,0.73s0.51,0.48,0.64,0.77
			S61.67,213.85,61.67,214.23z"/>
	</g>
	<path class="st38" d="M332,288H204c-2.21,0-4-1.79-4-4v-60h136v60C336,286.21,334.21,288,332,288z"/>
	<path class="st0" d="M278.5,264v-7v-1h-1h-9v-8h3.5v-6h-8v6h3.5v8h-9h-1v1v7H254v6h8v-6h-3.5v-7h9v7H264v6h8v-6h-3.5v-7h9v7H274v6
		h8v-6H278.5z M265,247v-4h6v4h-2.5h-1H265z M261,265v4h-6v-4h2.5h1H261z M271,265v4h-6v-4h2.5h1H271z M281,269h-6v-4h6V269z"/>
	<path class="st1" d="M336,224H200v-20c0-2.21,1.79-4,4-4H332c2.21,0,4,1.79,4,4V224z"/>
	<g>
		<path class="st36" d="M213.98,216.56h-4.85v-8.57h4.85v1.18h-3.45v2.33h3.23v1.17h-3.23v2.69h3.45V216.56z"/>
		<path class="st36" d="M221.38,216.56H220v-3.98c0-0.5-0.1-0.87-0.3-1.12s-0.52-0.37-0.96-0.37c-0.58,0-1.01,0.17-1.28,0.52
			s-0.4,0.92-0.4,1.73v3.23h-1.38v-6.48h1.08l0.19,0.85h0.07c0.2-0.31,0.47-0.55,0.83-0.71s0.76-0.25,1.2-0.25
			c1.55,0,2.33,0.79,2.33,2.37V216.56z"/>
		<path class="st36" d="M228.77,210.08v0.76l-1.11,0.21c0.1,0.14,0.19,0.3,0.25,0.5s0.1,0.41,0.1,0.63c0,0.67-0.23,1.19-0.69,1.58
			s-1.1,0.57-1.9,0.57c-0.21,0-0.39-0.02-0.56-0.05c-0.3,0.18-0.45,0.4-0.45,0.64c0,0.15,0.07,0.26,0.21,0.33s0.39,0.11,0.76,0.11
			h1.13c0.71,0,1.26,0.15,1.63,0.46s0.56,0.74,0.56,1.32c0,0.73-0.3,1.3-0.91,1.7s-1.48,0.6-2.62,0.6c-0.88,0-1.56-0.16-2.02-0.47
			s-0.7-0.76-0.7-1.34c0-0.4,0.13-0.73,0.38-1s0.6-0.46,1.06-0.57c-0.18-0.08-0.33-0.2-0.45-0.38s-0.18-0.36-0.18-0.55
			c0-0.24,0.07-0.45,0.21-0.62s0.34-0.33,0.61-0.5c-0.34-0.14-0.61-0.38-0.82-0.71s-0.31-0.71-0.31-1.15c0-0.7,0.22-1.25,0.67-1.63
			s1.08-0.58,1.9-0.58c0.18,0,0.38,0.01,0.58,0.04s0.35,0.05,0.45,0.08H228.77z M223.68,217.57c0,0.3,0.13,0.53,0.4,0.69
			s0.64,0.24,1.13,0.24c0.75,0,1.31-0.11,1.68-0.32s0.55-0.5,0.55-0.86c0-0.28-0.1-0.48-0.3-0.6s-0.58-0.18-1.12-0.18h-1.04
			c-0.39,0-0.71,0.09-0.94,0.28S223.68,217.25,223.68,217.57z M224.27,212.18c0,0.41,0.1,0.72,0.31,0.94s0.51,0.33,0.9,0.33
			c0.8,0,1.2-0.43,1.2-1.28c0-0.42-0.1-0.75-0.3-0.98s-0.5-0.34-0.9-0.34c-0.4,0-0.7,0.11-0.91,0.34S224.27,211.74,224.27,212.18z"
			/>
		<path class="st36" d="M229.89,208.36c0-0.25,0.07-0.44,0.2-0.57s0.33-0.2,0.58-0.2c0.24,0,0.43,0.07,0.57,0.2s0.2,0.32,0.2,0.57
			c0,0.23-0.07,0.42-0.2,0.55s-0.32,0.2-0.57,0.2c-0.25,0-0.44-0.07-0.58-0.2S229.89,208.6,229.89,208.36z M231.35,216.56h-1.38
			v-6.48h1.38V216.56z"/>
		<path class="st36" d="M239.02,216.56h-1.38v-3.98c0-0.5-0.1-0.87-0.3-1.12s-0.52-0.37-0.96-0.37c-0.58,0-1.01,0.17-1.28,0.52
			s-0.4,0.92-0.4,1.73v3.23h-1.38v-6.48h1.08l0.19,0.85h0.07c0.2-0.31,0.47-0.55,0.83-0.71s0.76-0.25,1.2-0.25
			c1.55,0,2.33,0.79,2.33,2.37V216.56z"/>
		<path class="st36" d="M243.77,216.68c-1.01,0-1.8-0.29-2.36-0.88s-0.85-1.4-0.85-2.43c0-1.06,0.26-1.89,0.79-2.5
			s1.25-0.91,2.17-0.91c0.86,0,1.53,0.26,2.03,0.78s0.74,1.23,0.74,2.14v0.74h-4.32c0.02,0.63,0.19,1.11,0.51,1.45
			s0.77,0.51,1.35,0.51c0.38,0,0.74-0.04,1.07-0.11s0.68-0.19,1.06-0.36v1.12c-0.34,0.16-0.68,0.27-1.02,0.34
			S244.21,216.68,243.77,216.68z M243.51,211.01c-0.44,0-0.79,0.14-1.05,0.42s-0.42,0.68-0.47,1.21h2.94
			c-0.01-0.54-0.14-0.94-0.39-1.22S243.95,211.01,243.51,211.01z"/>
		<path class="st36" d="M253.58,216.68c-0.98,0-1.73-0.29-2.24-0.86s-0.76-1.39-0.76-2.46c0-1.09,0.27-1.93,0.8-2.51
			s1.3-0.88,2.31-0.88c0.68,0,1.3,0.13,1.85,0.38l-0.42,1.11c-0.58-0.23-1.06-0.34-1.44-0.34c-1.12,0-1.68,0.74-1.68,2.23
			c0,0.73,0.14,1.27,0.42,1.64s0.69,0.55,1.23,0.55c0.61,0,1.19-0.15,1.74-0.46v1.2c-0.25,0.14-0.51,0.25-0.79,0.31
			S253.98,216.68,253.58,216.68z"/>
		<path class="st36" d="M262.66,213.31c0,1.06-0.27,1.88-0.81,2.48s-1.3,0.89-2.27,0.89c-0.61,0-1.14-0.14-1.61-0.41
			s-0.82-0.67-1.07-1.18s-0.38-1.11-0.38-1.78c0-1.05,0.27-1.87,0.81-2.46s1.3-0.88,2.28-0.88c0.94,0,1.68,0.3,2.23,0.91
			S262.66,212.28,262.66,213.31z M257.94,213.31c0,1.5,0.55,2.24,1.66,2.24c1.09,0,1.64-0.75,1.64-2.24c0-1.48-0.55-2.22-1.65-2.22
			c-0.58,0-1,0.19-1.26,0.57S257.94,212.59,257.94,213.31z"/>
		<path class="st36" d="M269.94,216.56h-1.38v-3.98c0-0.5-0.1-0.87-0.3-1.12s-0.52-0.37-0.96-0.37c-0.58,0-1.01,0.17-1.28,0.52
			s-0.4,0.92-0.4,1.73v3.23h-1.38v-6.48h1.08l0.19,0.85h0.07c0.2-0.31,0.47-0.55,0.83-0.71s0.76-0.25,1.2-0.25
			c1.55,0,2.33,0.79,2.33,2.37V216.56z"/>
		<path class="st36" d="M274.27,215.56c0.34,0,0.67-0.05,1.01-0.16v1.04c-0.15,0.07-0.35,0.12-0.59,0.17s-0.49,0.07-0.75,0.07
			c-1.3,0-1.96-0.69-1.96-2.06v-3.49h-0.88v-0.61l0.95-0.5l0.47-1.37h0.85v1.44h1.85v1.04h-1.85v3.47c0,0.33,0.08,0.58,0.25,0.74
			S274,215.56,274.27,215.56z"/>
		<path class="st36" d="M279.86,209.96c0.28,0,0.51,0.02,0.69,0.06l-0.13,1.28c-0.2-0.05-0.4-0.07-0.61-0.07
			c-0.55,0-1,0.18-1.34,0.54s-0.51,0.83-0.51,1.4v3.39h-1.38v-6.48h1.08l0.18,1.14h0.07c0.21-0.39,0.5-0.69,0.84-0.92
			S279.46,209.96,279.86,209.96z"/>
		<path class="st36" d="M287.49,213.31c0,1.06-0.27,1.88-0.81,2.48s-1.3,0.89-2.27,0.89c-0.61,0-1.14-0.14-1.61-0.41
			s-0.82-0.67-1.07-1.18s-0.38-1.11-0.38-1.78c0-1.05,0.27-1.87,0.81-2.46s1.3-0.88,2.28-0.88c0.94,0,1.68,0.3,2.23,0.91
			S287.49,212.28,287.49,213.31z M282.78,213.31c0,1.5,0.55,2.24,1.66,2.24c1.09,0,1.64-0.75,1.64-2.24c0-1.48-0.55-2.22-1.65-2.22
			c-0.58,0-1,0.19-1.26,0.57S282.78,212.59,282.78,213.31z"/>
		<path class="st36" d="M290.45,216.56h-1.38v-9.12h1.38V216.56z"/>
		<path class="st36" d="M293.8,216.56h-1.38v-9.12h1.38V216.56z"/>
		<path class="st36" d="M298.6,216.68c-1.01,0-1.8-0.29-2.36-0.88s-0.85-1.4-0.85-2.43c0-1.06,0.26-1.89,0.79-2.5
			s1.25-0.91,2.17-0.91c0.86,0,1.53,0.26,2.03,0.78s0.74,1.23,0.74,2.14v0.74h-4.32c0.02,0.63,0.19,1.11,0.51,1.45
			s0.77,0.51,1.35,0.51c0.38,0,0.74-0.04,1.07-0.11s0.68-0.19,1.06-0.36v1.12c-0.34,0.16-0.68,0.27-1.02,0.34
			S299.04,216.68,298.6,216.68z M298.35,211.01c-0.44,0-0.79,0.14-1.05,0.42s-0.42,0.68-0.47,1.21h2.94
			c-0.01-0.54-0.14-0.94-0.39-1.22S298.78,211.01,298.35,211.01z"/>
		<path class="st36" d="M305.97,209.96c0.28,0,0.51,0.02,0.69,0.06l-0.13,1.28c-0.2-0.05-0.4-0.07-0.61-0.07
			c-0.55,0-1,0.18-1.34,0.54s-0.51,0.83-0.51,1.4v3.39h-1.38v-6.48h1.08l0.18,1.14h0.07c0.21-0.39,0.5-0.69,0.84-0.92
			S305.57,209.96,305.97,209.96z"/>
	</g>
	<path class="st38" d="M156,184H36c-2.21,0-4-1.79-4-4v-60h128v60C160,182.21,158.21,184,156,184z"/>
	<path class="st0" d="M82,141v5h2v17h24v-17h2v-5H82z M107,162H85v-16h22V162z M109,145H83v-3h26V145z M100,149h-8v4h8V149z M99,152
		h-6v-2h6V152z"/>
	<path class="st1" d="M160,120H32v-20c0-2.21,1.79-4,4-4h120c2.21,0,4,1.79,4,4V120z"/>
	<g>
		<path class="st36" d="M44.78,105.07c-0.8,0-1.44,0.29-1.9,0.86s-0.69,1.36-0.69,2.36c0,1.05,0.22,1.85,0.67,2.38
			s1.08,0.81,1.92,0.81c0.36,0,0.71-0.04,1.05-0.11s0.69-0.17,1.06-0.28v1.2c-0.67,0.25-1.43,0.38-2.29,0.38
			c-1.25,0-2.22-0.38-2.89-1.14s-1.01-1.85-1.01-3.26c0-0.89,0.16-1.67,0.49-2.34s0.8-1.18,1.42-1.54s1.34-0.53,2.17-0.53
			c0.88,0,1.68,0.18,2.43,0.55l-0.5,1.17c-0.29-0.14-0.59-0.26-0.92-0.36S45.13,105.07,44.78,105.07z"/>
		<path class="st36" d="M54.41,106.58c0,0.89-0.29,1.58-0.88,2.06s-1.42,0.71-2.5,0.71h-0.89v3.21h-1.4v-8.57h2.47
			c1.07,0,1.87,0.22,2.41,0.66S54.41,105.73,54.41,106.58z M50.14,108.18h0.74c0.72,0,1.25-0.12,1.58-0.38s0.5-0.64,0.5-1.17
			c0-0.49-0.15-0.86-0.45-1.1s-0.77-0.36-1.41-0.36h-0.97V108.18z"/>
		<path class="st36" d="M61.06,110.23c0,0.76-0.28,1.36-0.83,1.79s-1.31,0.65-2.28,0.65s-1.76-0.15-2.38-0.45v-1.32
			c0.39,0.18,0.81,0.33,1.25,0.43s0.85,0.16,1.23,0.16c0.55,0,0.96-0.11,1.23-0.32s0.4-0.49,0.4-0.85c0-0.32-0.12-0.59-0.36-0.81
			s-0.74-0.49-1.5-0.79c-0.78-0.32-1.33-0.68-1.65-1.08s-0.48-0.89-0.48-1.46c0-0.71,0.25-1.28,0.76-1.69s1.19-0.62,2.04-0.62
			c0.82,0,1.64,0.18,2.45,0.54l-0.45,1.14c-0.76-0.32-1.44-0.48-2.04-0.48c-0.45,0-0.8,0.1-1.03,0.3s-0.35,0.46-0.35,0.78
			c0,0.22,0.05,0.41,0.14,0.57s0.25,0.31,0.46,0.45s0.6,0.33,1.16,0.56c0.63,0.26,1.09,0.51,1.38,0.73s0.51,0.48,0.64,0.77
			S61.06,109.85,61.06,110.23z"/>
		<path class="st36" d="M66.17,103.99l-3.19,8.57h-1.3l3.19-8.57H66.17z"/>
		<path class="st36" d="M74.37,108.19c0,1.41-0.39,2.5-1.18,3.24s-1.92,1.12-3.39,1.12h-2.4v-8.57h2.65c1.36,0,2.42,0.37,3.18,1.1
			S74.37,106.86,74.37,108.19z M72.89,108.24c0-2.05-0.96-3.08-2.88-3.08H68.8v6.22h1C71.86,111.38,72.89,110.34,72.89,108.24z"/>
		<path class="st36" d="M81.14,110.23c0,0.76-0.28,1.36-0.83,1.79s-1.31,0.65-2.28,0.65s-1.76-0.15-2.38-0.45v-1.32
			c0.39,0.18,0.81,0.33,1.25,0.43s0.85,0.16,1.23,0.16c0.55,0,0.96-0.11,1.23-0.32s0.4-0.49,0.4-0.85c0-0.32-0.12-0.59-0.36-0.81
			s-0.74-0.49-1.5-0.79c-0.78-0.32-1.33-0.68-1.65-1.08s-0.48-0.89-0.48-1.46c0-0.71,0.25-1.28,0.76-1.69s1.19-0.62,2.04-0.62
			c0.82,0,1.64,0.18,2.45,0.54l-0.45,1.14c-0.76-0.32-1.44-0.48-2.04-0.48c-0.45,0-0.8,0.1-1.03,0.3s-0.35,0.46-0.35,0.78
			c0,0.22,0.05,0.41,0.14,0.57s0.25,0.31,0.46,0.45s0.6,0.33,1.16,0.56c0.63,0.26,1.09,0.51,1.38,0.73s0.51,0.48,0.64,0.77
			S81.14,109.85,81.14,110.23z"/>
		<path class="st36" d="M87.74,110.23c0,0.76-0.28,1.36-0.83,1.79s-1.31,0.65-2.28,0.65s-1.76-0.15-2.38-0.45v-1.32
			c0.39,0.18,0.81,0.33,1.25,0.43s0.85,0.16,1.23,0.16c0.55,0,0.96-0.11,1.23-0.32s0.4-0.49,0.4-0.85c0-0.32-0.12-0.59-0.36-0.81
			s-0.74-0.49-1.5-0.79c-0.78-0.32-1.33-0.68-1.65-1.08s-0.48-0.89-0.48-1.46c0-0.71,0.25-1.28,0.76-1.69s1.19-0.62,2.04-0.62
			c0.82,0,1.64,0.18,2.45,0.54l-0.45,1.14c-0.76-0.32-1.44-0.48-2.04-0.48c-0.45,0-0.8,0.1-1.03,0.3s-0.35,0.46-0.35,0.78
			c0,0.22,0.05,0.41,0.14,0.57s0.25,0.31,0.46,0.45s0.6,0.33,1.16,0.56c0.63,0.26,1.09,0.51,1.38,0.73s0.51,0.48,0.64,0.77
			S87.74,109.85,87.74,110.23z"/>
	</g>
	<g>
		<path class="st36" d="M557.58,182.19c0,1.41-0.39,2.5-1.18,3.24s-1.92,1.12-3.39,1.12h-2.4v-8.57h2.65c1.36,0,2.42,0.37,3.18,1.1
			S557.58,180.86,557.58,182.19z M556.11,182.24c0-2.05-0.96-3.08-2.88-3.08h-1.21v6.22h1
			C555.08,185.38,556.11,184.34,556.11,182.24z"/>
		<path class="st36" d="M565.03,183.31c0,1.06-0.27,1.88-0.81,2.48s-1.3,0.89-2.27,0.89c-0.61,0-1.14-0.14-1.61-0.41
			s-0.82-0.67-1.07-1.18s-0.38-1.11-0.38-1.78c0-1.05,0.27-1.87,0.81-2.46s1.3-0.88,2.28-0.88c0.94,0,1.68,0.3,2.23,0.91
			S565.03,182.28,565.03,183.31z M560.31,183.31c0,1.5,0.55,2.24,1.66,2.24c1.09,0,1.64-0.75,1.64-2.24c0-1.48-0.55-2.22-1.65-2.22
			c-0.58,0-1,0.19-1.26,0.57S560.31,182.59,560.31,183.31z"/>
		<path class="st36" d="M569.22,186.68c-0.98,0-1.73-0.29-2.24-0.86s-0.76-1.39-0.76-2.46c0-1.09,0.27-1.93,0.8-2.51
			s1.3-0.88,2.31-0.88c0.68,0,1.3,0.13,1.85,0.38l-0.42,1.11c-0.58-0.23-1.06-0.34-1.44-0.34c-1.12,0-1.68,0.74-1.68,2.23
			c0,0.73,0.14,1.27,0.42,1.64s0.69,0.55,1.23,0.55c0.61,0,1.19-0.15,1.74-0.46v1.2c-0.25,0.14-0.51,0.25-0.79,0.31
			S569.62,186.68,569.22,186.68z"/>
		<path class="st36" d="M573.88,183.14l0.78-0.97l1.96-2.09h1.59l-2.61,2.78l2.77,3.7h-1.62l-2.08-2.84l-0.76,0.62v2.22h-1.37v-9.12
			h1.37v4.45l-0.07,1.25H573.88z"/>
		<path class="st36" d="M582.24,186.68c-1.01,0-1.8-0.29-2.36-0.88s-0.85-1.4-0.85-2.43c0-1.06,0.26-1.89,0.79-2.5
			s1.25-0.91,2.17-0.91c0.86,0,1.53,0.26,2.03,0.78s0.74,1.23,0.74,2.14v0.74h-4.32c0.02,0.63,0.19,1.11,0.51,1.45
			s0.77,0.51,1.35,0.51c0.38,0,0.74-0.04,1.07-0.11s0.68-0.19,1.06-0.36v1.12c-0.34,0.16-0.68,0.27-1.02,0.34
			S582.68,186.68,582.24,186.68z M581.99,181.01c-0.44,0-0.79,0.14-1.05,0.42s-0.42,0.68-0.47,1.21h2.94
			c-0.01-0.54-0.14-0.94-0.39-1.22S582.43,181.01,581.99,181.01z"/>
		<path class="st36" d="M589.61,179.96c0.28,0,0.51,0.02,0.69,0.06l-0.13,1.28c-0.2-0.05-0.4-0.07-0.61-0.07
			c-0.55,0-1,0.18-1.34,0.54s-0.51,0.83-0.51,1.4v3.39h-1.38v-6.48h1.08l0.18,1.14h0.07c0.21-0.39,0.5-0.69,0.84-0.92
			S589.21,179.96,589.61,179.96z"/>
		<path class="st36" d="M554.27,198.68c-1.01,0-1.8-0.29-2.36-0.88s-0.85-1.4-0.85-2.43c0-1.06,0.26-1.89,0.79-2.5
			s1.25-0.91,2.17-0.91c0.86,0,1.53,0.26,2.03,0.78s0.74,1.23,0.74,2.14v0.74h-4.32c0.02,0.63,0.19,1.11,0.51,1.45
			s0.77,0.51,1.35,0.51c0.38,0,0.74-0.04,1.07-0.11s0.68-0.19,1.06-0.36v1.12c-0.34,0.16-0.68,0.27-1.02,0.34
			S554.71,198.68,554.27,198.68z M554.02,193.01c-0.44,0-0.79,0.14-1.05,0.42s-0.42,0.68-0.47,1.21h2.94
			c-0.01-0.54-0.14-0.94-0.39-1.22S554.46,193.01,554.02,193.01z"/>
		<path class="st36" d="M564.06,198.56h-1.38v-3.98c0-0.5-0.1-0.87-0.3-1.12s-0.52-0.37-0.96-0.37c-0.58,0-1.01,0.17-1.28,0.52
			s-0.4,0.92-0.4,1.73v3.23h-1.38v-6.48h1.08l0.19,0.85h0.07c0.2-0.31,0.47-0.55,0.83-0.71s0.76-0.25,1.2-0.25
			c1.55,0,2.33,0.79,2.33,2.37V198.56z"/>
		<path class="st36" d="M571.45,192.08v0.76l-1.11,0.21c0.1,0.14,0.19,0.3,0.25,0.5s0.1,0.41,0.1,0.63c0,0.67-0.23,1.19-0.69,1.58
			s-1.1,0.57-1.9,0.57c-0.21,0-0.39-0.02-0.56-0.05c-0.3,0.18-0.45,0.4-0.45,0.64c0,0.15,0.07,0.26,0.21,0.33s0.39,0.11,0.76,0.11
			h1.13c0.71,0,1.26,0.15,1.63,0.46s0.56,0.74,0.56,1.32c0,0.73-0.3,1.3-0.91,1.7s-1.48,0.6-2.62,0.6c-0.88,0-1.56-0.16-2.02-0.47
			s-0.7-0.76-0.7-1.34c0-0.4,0.13-0.73,0.38-1s0.6-0.46,1.06-0.57c-0.18-0.08-0.33-0.2-0.45-0.38s-0.18-0.36-0.18-0.55
			c0-0.24,0.07-0.45,0.21-0.62s0.34-0.33,0.61-0.5c-0.34-0.14-0.61-0.38-0.82-0.71s-0.31-0.71-0.31-1.15c0-0.7,0.22-1.25,0.67-1.63
			s1.08-0.58,1.9-0.58c0.18,0,0.38,0.01,0.58,0.04s0.35,0.05,0.45,0.08H571.45z M566.36,199.57c0,0.3,0.13,0.53,0.4,0.69
			s0.64,0.24,1.13,0.24c0.75,0,1.31-0.11,1.68-0.32s0.55-0.5,0.55-0.86c0-0.28-0.1-0.48-0.3-0.6s-0.58-0.18-1.12-0.18h-1.04
			c-0.39,0-0.71,0.09-0.94,0.28S566.36,199.25,566.36,199.57z M566.95,194.18c0,0.41,0.1,0.72,0.31,0.94s0.51,0.33,0.9,0.33
			c0.8,0,1.2-0.43,1.2-1.28c0-0.42-0.1-0.75-0.3-0.98s-0.5-0.34-0.9-0.34c-0.4,0-0.7,0.11-0.91,0.34S566.95,193.74,566.95,194.18z"
			/>
		<path class="st36" d="M572.57,190.36c0-0.25,0.07-0.44,0.2-0.57s0.33-0.2,0.58-0.2c0.24,0,0.43,0.07,0.57,0.2s0.2,0.32,0.2,0.57
			c0,0.23-0.07,0.42-0.2,0.55s-0.32,0.2-0.57,0.2c-0.25,0-0.44-0.07-0.58-0.2S572.57,190.6,572.57,190.36z M574.03,198.56h-1.38
			v-6.48h1.38V198.56z"/>
		<path class="st36" d="M581.7,198.56h-1.38v-3.98c0-0.5-0.1-0.87-0.3-1.12s-0.52-0.37-0.96-0.37c-0.58,0-1.01,0.17-1.28,0.52
			s-0.4,0.92-0.4,1.73v3.23h-1.38v-6.48h1.08l0.19,0.85h0.07c0.2-0.31,0.47-0.55,0.83-0.71s0.76-0.25,1.2-0.25
			c1.55,0,2.33,0.79,2.33,2.37V198.56z"/>
		<path class="st36" d="M586.44,198.68c-1.01,0-1.8-0.29-2.36-0.88s-0.85-1.4-0.85-2.43c0-1.06,0.26-1.89,0.79-2.5
			s1.25-0.91,2.17-0.91c0.86,0,1.53,0.26,2.03,0.78s0.74,1.23,0.74,2.14v0.74h-4.32c0.02,0.63,0.19,1.11,0.51,1.45
			s0.77,0.51,1.35,0.51c0.38,0,0.74-0.04,1.07-0.11s0.68-0.19,1.06-0.36v1.12c-0.34,0.16-0.68,0.27-1.02,0.34
			S586.88,198.68,586.44,198.68z M586.19,193.01c-0.44,0-0.79,0.14-1.05,0.42s-0.42,0.68-0.47,1.21h2.94
			c-0.01-0.54-0.14-0.94-0.39-1.22S586.63,193.01,586.19,193.01z"/>
	</g>
	<g>
		<path class="st1" d="M724,232h-84.01c-3.31,0-5.99-2.68-5.99-5.99V150c0-3.31,2.68-6,6-6h84c3.32,0,6,2.69,6,6v76
			C730,229.31,727.31,232,724,232z"/>
	</g>
	<g>
		<path class="st36" d="M661.16,184.23c0,0.76-0.28,1.36-0.83,1.79s-1.31,0.65-2.28,0.65s-1.76-0.15-2.38-0.45v-1.32
			c0.39,0.18,0.81,0.33,1.25,0.43s0.85,0.16,1.23,0.16c0.55,0,0.96-0.11,1.23-0.32s0.4-0.49,0.4-0.85c0-0.32-0.12-0.59-0.36-0.81
			s-0.74-0.49-1.5-0.79c-0.78-0.32-1.33-0.68-1.65-1.08s-0.48-0.89-0.48-1.46c0-0.71,0.25-1.28,0.76-1.69s1.19-0.62,2.04-0.62
			c0.82,0,1.64,0.18,2.45,0.54l-0.45,1.14c-0.76-0.32-1.44-0.48-2.04-0.48c-0.45,0-0.8,0.1-1.03,0.3s-0.35,0.46-0.35,0.78
			c0,0.22,0.05,0.41,0.14,0.57s0.25,0.31,0.46,0.45s0.6,0.33,1.16,0.56c0.63,0.26,1.09,0.51,1.38,0.73s0.51,0.48,0.64,0.77
			S661.16,183.85,661.16,184.23z"/>
		<path class="st36" d="M665.5,186.68c-1.01,0-1.8-0.29-2.36-0.88s-0.85-1.4-0.85-2.43c0-1.06,0.26-1.89,0.79-2.5
			s1.25-0.91,2.17-0.91c0.86,0,1.53,0.26,2.03,0.78s0.74,1.23,0.74,2.14v0.74h-4.32c0.02,0.63,0.19,1.11,0.51,1.45
			s0.77,0.51,1.35,0.51c0.38,0,0.74-0.04,1.07-0.11s0.68-0.19,1.06-0.36v1.12c-0.34,0.16-0.68,0.27-1.02,0.34
			S665.94,186.68,665.5,186.68z M665.25,181.01c-0.44,0-0.79,0.14-1.05,0.42s-0.42,0.68-0.47,1.21h2.94
			c-0.01-0.54-0.14-0.94-0.39-1.22S665.69,181.01,665.25,181.01z"/>
		<path class="st36" d="M670.96,186.56h-1.38v-9.12h1.38V186.56z"/>
		<path class="st36" d="M675.76,186.68c-1.01,0-1.8-0.29-2.36-0.88s-0.85-1.4-0.85-2.43c0-1.06,0.26-1.89,0.79-2.5
			s1.25-0.91,2.17-0.91c0.86,0,1.53,0.26,2.03,0.78s0.74,1.23,0.74,2.14v0.74h-4.32c0.02,0.63,0.19,1.11,0.51,1.45
			s0.77,0.51,1.35,0.51c0.38,0,0.74-0.04,1.07-0.11s0.68-0.19,1.06-0.36v1.12c-0.34,0.16-0.68,0.27-1.02,0.34
			S676.2,186.68,675.76,186.68z M675.51,181.01c-0.44,0-0.79,0.14-1.05,0.42s-0.42,0.68-0.47,1.21h2.94
			c-0.01-0.54-0.14-0.94-0.39-1.22S675.95,181.01,675.51,181.01z"/>
		<path class="st36" d="M685.54,186.56h-1.38v-3.98c0-0.5-0.1-0.87-0.3-1.12s-0.52-0.37-0.96-0.37c-0.58,0-1.01,0.17-1.28,0.52
			s-0.4,0.92-0.4,1.73v3.23h-1.38v-6.48h1.08l0.19,0.85h0.07c0.2-0.31,0.47-0.55,0.83-0.71s0.76-0.25,1.2-0.25
			c1.55,0,2.33,0.79,2.33,2.37V186.56z"/>
		<path class="st36" d="M687.38,178.36c0-0.25,0.07-0.44,0.2-0.57s0.33-0.2,0.58-0.2c0.24,0,0.43,0.07,0.57,0.2s0.2,0.32,0.2,0.57
			c0,0.23-0.07,0.42-0.2,0.55s-0.32,0.2-0.57,0.2c-0.25,0-0.44-0.07-0.58-0.2S687.38,178.6,687.38,178.36z M688.84,186.56h-1.38
			v-6.48h1.38V186.56z"/>
		<path class="st36" d="M695.38,186.56l-0.19-0.85h-0.07c-0.19,0.3-0.46,0.54-0.82,0.71s-0.76,0.26-1.21,0.26
			c-0.79,0-1.37-0.2-1.76-0.59s-0.58-0.98-0.58-1.78v-4.24h1.39v4c0,0.5,0.1,0.87,0.3,1.12s0.52,0.37,0.96,0.37
			c0.58,0,1-0.17,1.27-0.52s0.41-0.92,0.41-1.74v-3.23h1.38v6.48H695.38z"/>
		<path class="st36" d="M703.88,186.56h-1.38v-4c0-0.5-0.09-0.87-0.28-1.11s-0.48-0.37-0.88-0.37c-0.53,0-0.92,0.17-1.17,0.52
			s-0.37,0.92-0.37,1.73v3.23h-1.38v-6.48h1.08l0.19,0.85h0.07c0.18-0.31,0.44-0.55,0.78-0.71s0.72-0.25,1.13-0.25
			c1,0,1.66,0.34,1.98,1.02h0.09c0.19-0.32,0.46-0.57,0.81-0.75s0.75-0.27,1.2-0.27c0.77,0,1.34,0.2,1.69,0.59s0.53,0.99,0.53,1.79
			v4.22h-1.38v-4c0-0.5-0.09-0.87-0.28-1.11s-0.48-0.37-0.88-0.37c-0.54,0-0.93,0.17-1.17,0.5s-0.37,0.85-0.37,1.54V186.56z"/>
		<path class="st36" d="M667.92,198.68c-0.81,0-1.44-0.29-1.89-0.88s-0.68-1.41-0.68-2.47c0-1.06,0.23-1.89,0.69-2.48
			s1.09-0.89,1.91-0.89c0.85,0,1.5,0.31,1.95,0.94h0.07c-0.07-0.46-0.1-0.83-0.1-1.1v-2.36h1.38v9.12h-1.08l-0.24-0.85h-0.06
			C669.42,198.35,668.77,198.68,667.92,198.68z M668.29,197.56c0.57,0,0.98-0.16,1.24-0.48s0.39-0.83,0.4-1.55v-0.19
			c0-0.82-0.13-1.4-0.4-1.74s-0.68-0.52-1.25-0.52c-0.48,0-0.86,0.2-1.12,0.59s-0.39,0.95-0.39,1.68c0,0.72,0.13,1.27,0.38,1.64
			S667.78,197.56,668.29,197.56z"/>
		<path class="st36" d="M676.5,191.96c0.28,0,0.51,0.02,0.69,0.06l-0.13,1.28c-0.2-0.05-0.4-0.07-0.61-0.07
			c-0.55,0-1,0.18-1.34,0.54s-0.51,0.83-0.51,1.4v3.39h-1.38v-6.48h1.08l0.18,1.14h0.07c0.21-0.39,0.5-0.69,0.84-0.92
			S676.1,191.96,676.5,191.96z"/>
		<path class="st36" d="M678.3,190.36c0-0.25,0.07-0.44,0.2-0.57s0.33-0.2,0.58-0.2c0.24,0,0.43,0.07,0.57,0.2s0.2,0.32,0.2,0.57
			c0,0.23-0.07,0.42-0.2,0.55s-0.32,0.2-0.57,0.2c-0.25,0-0.44-0.07-0.58-0.2S678.3,190.6,678.3,190.36z M679.76,198.56h-1.38v-6.48
			h1.38V198.56z"/>
		<path class="st36" d="M683.2,198.56l-2.46-6.48h1.45l1.32,3.77c0.23,0.63,0.36,1.14,0.41,1.54h0.05c0.04-0.28,0.17-0.79,0.41-1.54
			l1.32-3.77h1.46l-2.47,6.48H683.2z"/>
		<path class="st36" d="M690.98,198.68c-1.01,0-1.8-0.29-2.36-0.88s-0.85-1.4-0.85-2.43c0-1.06,0.26-1.89,0.79-2.5
			s1.25-0.91,2.17-0.91c0.86,0,1.53,0.26,2.03,0.78s0.74,1.23,0.74,2.14v0.74h-4.32c0.02,0.63,0.19,1.11,0.51,1.45
			s0.77,0.51,1.35,0.51c0.38,0,0.74-0.04,1.07-0.11s0.68-0.19,1.06-0.36v1.12c-0.34,0.16-0.68,0.27-1.02,0.34
			S691.42,198.68,690.98,198.68z M690.73,193.01c-0.44,0-0.79,0.14-1.05,0.42s-0.42,0.68-0.47,1.21h2.94
			c-0.01-0.54-0.14-0.94-0.39-1.22S691.17,193.01,690.73,193.01z"/>
		<path class="st36" d="M698.35,191.96c0.28,0,0.51,0.02,0.69,0.06l-0.13,1.28c-0.2-0.05-0.4-0.07-0.61-0.07
			c-0.55,0-1,0.18-1.34,0.54s-0.51,0.83-0.51,1.4v3.39h-1.38v-6.48h1.08l0.18,1.14h0.07c0.21-0.39,0.5-0.69,0.84-0.92
			S697.95,191.96,698.35,191.96z"/>
	</g>
	<g>
		<path class="st1" d="M612,336h-84.01c-3.31,0-5.99-2.68-5.99-5.99V254c0-3.31,2.68-6,6-6h84c3.32,0,6,2.69,6,6v76
			C618,333.31,615.31,336,612,336z"/>
	</g>
	<g>
		<path class="st36" d="M547.85,292.27c0,1.39-0.35,2.48-1.05,3.25s-1.68,1.16-2.96,1.16c-1.29,0-2.29-0.38-2.98-1.15
			s-1.04-1.86-1.04-3.27s0.35-2.5,1.05-3.26s1.69-1.14,2.99-1.14c1.27,0,2.26,0.38,2.95,1.15S547.85,290.87,547.85,292.27z
			 M541.31,292.27c0,1.05,0.21,1.85,0.64,2.4s1.06,0.82,1.89,0.82c0.83,0,1.46-0.27,1.88-0.81s0.64-1.34,0.64-2.41
			c0-1.05-0.21-1.85-0.63-2.39s-1.05-0.81-1.88-0.81c-0.84,0-1.47,0.27-1.9,0.81S541.31,291.21,541.31,292.27z"/>
		<path class="st36" d="M552.83,296.68c-0.82,0-1.46-0.29-1.91-0.88h-0.08c0.05,0.55,0.08,0.88,0.08,1v2.65h-1.38v-9.36h1.11
			c0.03,0.12,0.1,0.41,0.19,0.87h0.07c0.43-0.66,1.07-0.98,1.93-0.98c0.81,0,1.44,0.29,1.89,0.88s0.68,1.41,0.68,2.47
			s-0.23,1.88-0.69,2.48S553.64,296.68,552.83,296.68z M552.5,291.09c-0.55,0-0.95,0.16-1.2,0.48s-0.38,0.83-0.38,1.54v0.21
			c0,0.79,0.12,1.36,0.38,1.71s0.66,0.53,1.22,0.53c0.48,0,0.84-0.2,1.1-0.59s0.39-0.95,0.39-1.67c0-0.73-0.13-1.28-0.38-1.65
			S552.99,291.09,552.5,291.09z"/>
		<path class="st36" d="M559.85,296.68c-1.01,0-1.8-0.29-2.36-0.88s-0.85-1.4-0.85-2.43c0-1.06,0.26-1.89,0.79-2.5
			s1.25-0.91,2.17-0.91c0.86,0,1.53,0.26,2.03,0.78s0.74,1.23,0.74,2.14v0.74h-4.32c0.02,0.63,0.19,1.11,0.51,1.45
			s0.77,0.51,1.35,0.51c0.38,0,0.74-0.04,1.07-0.11s0.68-0.19,1.06-0.36v1.12c-0.34,0.16-0.68,0.27-1.02,0.34
			S560.29,296.68,559.85,296.68z M559.6,291.01c-0.44,0-0.79,0.14-1.05,0.42s-0.42,0.68-0.47,1.21h2.94
			c-0.01-0.54-0.14-0.94-0.39-1.22S560.03,291.01,559.6,291.01z"/>
		<path class="st36" d="M569.63,296.56h-1.38v-3.98c0-0.5-0.1-0.87-0.3-1.12s-0.52-0.37-0.96-0.37c-0.58,0-1.01,0.17-1.28,0.52
			s-0.4,0.92-0.4,1.73v3.23h-1.38v-6.48h1.08l0.19,0.85h0.07c0.2-0.31,0.47-0.55,0.83-0.71s0.76-0.25,1.2-0.25
			c1.55,0,2.33,0.79,2.33,2.37V296.56z"/>
		<path class="st36" d="M575.9,294.71c0,0.63-0.23,1.12-0.69,1.46s-1.12,0.51-1.98,0.51c-0.86,0-1.56-0.13-2.08-0.39v-1.19
			c0.76,0.35,1.47,0.53,2.13,0.53c0.85,0,1.27-0.26,1.27-0.77c0-0.16-0.05-0.3-0.14-0.41s-0.25-0.22-0.46-0.34s-0.51-0.25-0.9-0.4
			c-0.75-0.29-1.25-0.58-1.51-0.87s-0.4-0.66-0.4-1.12c0-0.55,0.22-0.99,0.67-1.29s1.06-0.46,1.83-0.46c0.76,0,1.48,0.15,2.16,0.46
			l-0.45,1.04c-0.7-0.29-1.29-0.43-1.76-0.43c-0.73,0-1.09,0.21-1.09,0.62c0,0.2,0.09,0.38,0.28,0.52s0.6,0.33,1.24,0.58
			c0.54,0.21,0.92,0.4,1.17,0.57s0.42,0.37,0.54,0.59S575.9,294.4,575.9,294.71z"/>
		<path class="st36" d="M579.81,295.56c0.34,0,0.67-0.05,1.01-0.16v1.04c-0.15,0.07-0.35,0.12-0.59,0.17s-0.49,0.07-0.75,0.07
			c-1.3,0-1.96-0.69-1.96-2.06v-3.49h-0.88v-0.61l0.95-0.5l0.47-1.37h0.85v1.44h1.85v1.04h-1.85v3.47c0,0.33,0.08,0.58,0.25,0.74
			S579.54,295.56,579.81,295.56z"/>
		<path class="st36" d="M586.16,296.56l-0.28-0.9h-0.05c-0.31,0.39-0.63,0.66-0.94,0.81s-0.72,0.21-1.22,0.21
			c-0.64,0-1.13-0.17-1.49-0.52s-0.54-0.83-0.54-1.46c0-0.67,0.25-1.17,0.74-1.51s1.25-0.53,2.27-0.56l1.12-0.04v-0.35
			c0-0.41-0.1-0.72-0.29-0.93s-0.49-0.31-0.9-0.31c-0.33,0-0.65,0.05-0.96,0.15s-0.6,0.21-0.88,0.35l-0.45-0.98
			c0.35-0.18,0.74-0.32,1.15-0.42s0.81-0.14,1.18-0.14c0.82,0,1.45,0.18,1.87,0.54s0.63,0.92,0.63,1.69v4.37H586.16z M584.11,295.62
			c0.5,0,0.9-0.14,1.2-0.42s0.45-0.67,0.45-1.17v-0.56l-0.83,0.04c-0.65,0.02-1.12,0.13-1.42,0.33s-0.44,0.49-0.44,0.89
			c0,0.29,0.09,0.51,0.26,0.67S583.77,295.62,584.11,295.62z"/>
		<path class="st36" d="M591.68,296.68c-0.98,0-1.73-0.29-2.24-0.86s-0.76-1.39-0.76-2.46c0-1.09,0.27-1.93,0.8-2.51
			s1.3-0.88,2.31-0.88c0.68,0,1.3,0.13,1.85,0.38l-0.42,1.11c-0.58-0.23-1.06-0.34-1.44-0.34c-1.12,0-1.68,0.74-1.68,2.23
			c0,0.73,0.14,1.27,0.42,1.64s0.69,0.55,1.23,0.55c0.61,0,1.19-0.15,1.74-0.46v1.2c-0.25,0.14-0.51,0.25-0.79,0.31
			S592.08,296.68,591.68,296.68z"/>
		<path class="st36" d="M596.34,293.14l0.78-0.97l1.96-2.09h1.59l-2.61,2.78l2.77,3.7h-1.62l-2.08-2.84l-0.76,0.62v2.22h-1.37v-9.12
			h1.37v4.45l-0.07,1.25H596.34z"/>
	</g>
	<g>
		<path class="st1" d="M724,336h-84.01c-3.31,0-5.99-2.68-5.99-5.99V254c0-3.31,2.68-6,6-6h84c3.32,0,6,2.69,6,6v76
			C730,333.31,727.31,336,724,336z"/>
	</g>
	<g>
		<path class="st36" d="M657.25,296.56h-4.92v-0.85l3.28-4.58h-3.08v-1.05h4.62v0.96l-3.21,4.46h3.3V296.56z"/>
		<path class="st36" d="M662.25,287.99l-3.19,8.57h-1.3l3.19-8.57H662.25z"/>
		<path class="st36" d="M671.09,292.27c0,1.39-0.35,2.48-1.05,3.25s-1.68,1.16-2.96,1.16c-1.29,0-2.29-0.38-2.98-1.15
			s-1.04-1.86-1.04-3.27s0.35-2.5,1.05-3.26s1.69-1.14,2.99-1.14c1.27,0,2.26,0.38,2.95,1.15S671.09,290.87,671.09,292.27z
			 M664.55,292.27c0,1.05,0.21,1.85,0.64,2.4s1.06,0.82,1.89,0.82c0.83,0,1.46-0.27,1.88-0.81s0.64-1.34,0.64-2.41
			c0-1.05-0.21-1.85-0.63-2.39s-1.05-0.81-1.88-0.81c-0.84,0-1.47,0.27-1.9,0.81S664.55,291.21,664.55,292.27z"/>
		<path class="st36" d="M677.87,294.23c0,0.76-0.28,1.36-0.83,1.79s-1.31,0.65-2.28,0.65s-1.76-0.15-2.38-0.45v-1.32
			c0.39,0.18,0.81,0.33,1.25,0.43s0.85,0.16,1.23,0.16c0.55,0,0.96-0.11,1.23-0.32s0.4-0.49,0.4-0.85c0-0.32-0.12-0.59-0.36-0.81
			s-0.74-0.49-1.5-0.79c-0.78-0.32-1.33-0.68-1.65-1.08s-0.48-0.89-0.48-1.46c0-0.71,0.25-1.28,0.76-1.69s1.19-0.62,2.04-0.62
			c0.82,0,1.64,0.18,2.45,0.54l-0.45,1.14c-0.76-0.32-1.44-0.48-2.04-0.48c-0.45,0-0.8,0.1-1.03,0.3s-0.35,0.46-0.35,0.78
			c0,0.22,0.05,0.41,0.14,0.57s0.25,0.31,0.46,0.45s0.6,0.33,1.16,0.56c0.63,0.26,1.09,0.51,1.38,0.73s0.51,0.48,0.64,0.77
			S677.87,293.85,677.87,294.23z"/>
		<path class="st36" d="M681.93,293.93v-1.17h3.01v1.17H681.93z"/>
		<path class="st36" d="M696.59,292.19c0,1.41-0.39,2.5-1.18,3.24s-1.92,1.12-3.39,1.12h-2.4v-8.57h2.65c1.36,0,2.42,0.37,3.18,1.1
			S696.59,290.86,696.59,292.19z M695.11,292.24c0-2.05-0.96-3.08-2.88-3.08h-1.21v6.22h1
			C694.08,295.38,695.11,294.34,695.11,292.24z"/>
		<path class="st36" d="M698.43,287.99h2.54c1.18,0,2.03,0.17,2.56,0.52s0.79,0.89,0.79,1.63c0,0.5-0.13,0.92-0.39,1.25
			s-0.63,0.54-1.11,0.63v0.06c0.6,0.11,1.04,0.34,1.33,0.67s0.42,0.79,0.42,1.36c0,0.77-0.27,1.37-0.81,1.81s-1.28,0.65-2.24,0.65
			h-3.09V287.99z M699.83,291.53h1.35c0.59,0,1.01-0.09,1.28-0.28s0.4-0.5,0.4-0.95c0-0.4-0.15-0.69-0.44-0.87s-0.75-0.27-1.39-0.27
			h-1.21V291.53z M699.83,292.67v2.71h1.49c0.59,0,1.03-0.11,1.33-0.34s0.45-0.58,0.45-1.06c0-0.45-0.15-0.78-0.46-0.99
			s-0.77-0.32-1.39-0.32H699.83z"/>
		<path class="st36" d="M711.55,296.56h-5.81v-1.04l2.21-2.22c0.65-0.67,1.08-1.14,1.3-1.42s0.37-0.54,0.47-0.79
			s0.15-0.51,0.15-0.79c0-0.39-0.12-0.69-0.35-0.91s-0.55-0.33-0.96-0.33c-0.33,0-0.65,0.06-0.95,0.18s-0.66,0.34-1.06,0.66
			l-0.74-0.91c0.48-0.4,0.94-0.69,1.39-0.86s0.93-0.25,1.44-0.25c0.8,0,1.44,0.21,1.92,0.62s0.72,0.98,0.72,1.68
			c0,0.39-0.07,0.75-0.21,1.1s-0.35,0.71-0.64,1.08s-0.76,0.87-1.43,1.5l-1.49,1.44v0.06h4.07V296.56z"/>
	</g>
	<g>
		<path class="st1" d="M612,440h-84.01c-3.31,0-5.99-2.68-5.99-5.99V358c0-3.31,2.68-6,6-6h84c3.32,0,6,2.69,6,6v76
			C618,437.31,615.31,440,612,440z"/>
	</g>
	<g>
		<path class="st36" d="M544.3,400.56h-4.92v-0.85l3.28-4.58h-3.08v-1.05h4.62v0.96l-3.21,4.46h3.3V400.56z"/>
		<path class="st36" d="M549.3,391.99l-3.19,8.57h-1.3l3.19-8.57H549.3z"/>
		<path class="st36" d="M558.14,396.27c0,1.39-0.35,2.48-1.05,3.25s-1.68,1.16-2.96,1.16c-1.29,0-2.29-0.38-2.98-1.15
			s-1.04-1.86-1.04-3.27s0.35-2.5,1.05-3.26s1.69-1.14,2.99-1.14c1.27,0,2.26,0.38,2.95,1.15S558.14,394.87,558.14,396.27z
			 M551.6,396.27c0,1.05,0.21,1.85,0.64,2.4s1.06,0.82,1.89,0.82c0.83,0,1.46-0.27,1.88-0.81s0.64-1.34,0.64-2.41
			c0-1.05-0.21-1.85-0.63-2.39s-1.05-0.81-1.88-0.81c-0.84,0-1.47,0.27-1.9,0.81S551.6,395.21,551.6,396.27z"/>
		<path class="st36" d="M564.92,398.23c0,0.76-0.28,1.36-0.83,1.79s-1.31,0.65-2.28,0.65s-1.76-0.15-2.38-0.45v-1.32
			c0.39,0.18,0.81,0.33,1.25,0.43s0.85,0.16,1.23,0.16c0.55,0,0.96-0.11,1.23-0.32s0.4-0.49,0.4-0.85c0-0.32-0.12-0.59-0.36-0.81
			s-0.74-0.49-1.5-0.79c-0.78-0.32-1.33-0.68-1.65-1.08s-0.48-0.89-0.48-1.46c0-0.71,0.25-1.28,0.76-1.69s1.19-0.62,2.04-0.62
			c0.82,0,1.64,0.18,2.45,0.54l-0.45,1.14c-0.76-0.32-1.44-0.48-2.04-0.48c-0.45,0-0.8,0.1-1.03,0.29s-0.35,0.46-0.35,0.78
			c0,0.22,0.05,0.41,0.14,0.57s0.25,0.31,0.46,0.45s0.6,0.33,1.16,0.56c0.63,0.26,1.09,0.51,1.38,0.73s0.51,0.48,0.64,0.77
			S564.92,397.85,564.92,398.23z"/>
		<path class="st36" d="M568.99,397.93v-1.17H572v1.17H568.99z"/>
		<path class="st36" d="M580.32,393.07c-0.8,0-1.44,0.29-1.9,0.86s-0.69,1.36-0.69,2.36c0,1.05,0.22,1.85,0.67,2.38
			s1.08,0.81,1.92,0.81c0.36,0,0.71-0.04,1.05-0.11s0.69-0.16,1.06-0.28v1.2c-0.67,0.25-1.43,0.38-2.29,0.38
			c-1.25,0-2.22-0.38-2.89-1.14s-1.01-1.85-1.01-3.26c0-0.89,0.16-1.67,0.49-2.34s0.8-1.18,1.42-1.54s1.34-0.53,2.17-0.53
			c0.88,0,1.68,0.18,2.43,0.55l-0.5,1.17c-0.29-0.14-0.59-0.26-0.92-0.36S580.67,393.07,580.32,393.07z"/>
		<path class="st36" d="M584.28,400.56v-8.57h1.4v8.57H584.28z"/>
		<path class="st36" d="M591.59,393.07c-0.8,0-1.44,0.29-1.9,0.86s-0.69,1.36-0.69,2.36c0,1.05,0.22,1.85,0.67,2.38
			s1.08,0.81,1.92,0.81c0.36,0,0.71-0.04,1.05-0.11s0.69-0.16,1.06-0.28v1.2c-0.67,0.25-1.43,0.38-2.29,0.38
			c-1.25,0-2.22-0.38-2.89-1.14s-1.01-1.85-1.01-3.26c0-0.89,0.16-1.67,0.49-2.34s0.8-1.18,1.42-1.54s1.34-0.53,2.17-0.53
			c0.88,0,1.68,0.18,2.43,0.55l-0.5,1.17c-0.29-0.14-0.59-0.26-0.92-0.36S591.94,393.07,591.59,393.07z"/>
		<path class="st36" d="M600.49,398.23c0,0.76-0.28,1.36-0.83,1.79s-1.31,0.65-2.28,0.65s-1.76-0.15-2.38-0.45v-1.32
			c0.39,0.18,0.81,0.33,1.25,0.43s0.85,0.16,1.23,0.16c0.55,0,0.96-0.11,1.23-0.32s0.4-0.49,0.4-0.85c0-0.32-0.12-0.59-0.36-0.81
			s-0.74-0.49-1.5-0.79c-0.78-0.32-1.33-0.68-1.65-1.08s-0.48-0.89-0.48-1.46c0-0.71,0.25-1.28,0.76-1.69s1.19-0.62,2.04-0.62
			c0.82,0,1.64,0.18,2.45,0.54l-0.45,1.14c-0.76-0.32-1.44-0.48-2.04-0.48c-0.45,0-0.8,0.1-1.03,0.29s-0.35,0.46-0.35,0.78
			c0,0.22,0.05,0.41,0.14,0.57s0.25,0.31,0.46,0.45s0.6,0.33,1.16,0.56c0.63,0.26,1.09,0.51,1.38,0.73s0.51,0.48,0.64,0.77
			S600.49,397.85,600.49,398.23z"/>
	</g>
	<g>
		<path class="st1" d="M724,440h-84.01c-3.31,0-5.99-2.68-5.99-5.99V358c0-3.31,2.68-6,6-6h84c3.32,0,6,2.69,6,6v76
			C730,437.31,727.31,440,724,440z"/>
	</g>
	<g>
		<path class="st36" d="M658.78,400.56h-4.92v-0.85l3.28-4.58h-3.08v-1.05h4.62v0.96l-3.21,4.46h3.3V400.56z"/>
		<path class="st36" d="M663.78,391.99l-3.19,8.57h-1.3l3.19-8.57H663.78z"/>
		<path class="st36" d="M672.62,396.27c0,1.39-0.35,2.48-1.05,3.25s-1.68,1.16-2.96,1.16c-1.29,0-2.29-0.38-2.98-1.15
			s-1.04-1.86-1.04-3.27s0.35-2.5,1.05-3.26s1.69-1.14,2.99-1.14c1.27,0,2.26,0.38,2.95,1.15S672.62,394.87,672.62,396.27z
			 M666.08,396.27c0,1.05,0.21,1.85,0.64,2.4s1.06,0.82,1.89,0.82c0.83,0,1.46-0.27,1.88-0.81s0.64-1.34,0.64-2.41
			c0-1.05-0.21-1.85-0.63-2.39s-1.05-0.81-1.88-0.81c-0.84,0-1.47,0.27-1.9,0.81S666.08,395.21,666.08,396.27z"/>
		<path class="st36" d="M679.4,398.23c0,0.76-0.28,1.36-0.83,1.79s-1.31,0.65-2.28,0.65s-1.76-0.15-2.38-0.45v-1.32
			c0.39,0.18,0.81,0.33,1.25,0.43s0.85,0.16,1.23,0.16c0.55,0,0.96-0.11,1.23-0.32s0.4-0.49,0.4-0.85c0-0.32-0.12-0.59-0.36-0.81
			s-0.74-0.49-1.5-0.79c-0.78-0.32-1.33-0.68-1.65-1.08s-0.48-0.89-0.48-1.46c0-0.71,0.25-1.28,0.76-1.69s1.19-0.62,2.04-0.62
			c0.82,0,1.64,0.18,2.45,0.54l-0.45,1.14c-0.76-0.32-1.44-0.48-2.04-0.48c-0.45,0-0.8,0.1-1.03,0.29s-0.35,0.46-0.35,0.78
			c0,0.22,0.05,0.41,0.14,0.57s0.25,0.31,0.46,0.45s0.6,0.33,1.16,0.56c0.63,0.26,1.09,0.51,1.38,0.73s0.51,0.48,0.64,0.77
			S679.4,397.85,679.4,398.23z"/>
		<path class="st36" d="M683.46,397.93v-1.17h3.01v1.17H683.46z"/>
		<path class="st36" d="M694.85,400.56l-2.48-7.15h-0.05c0.07,1.06,0.1,2.06,0.1,2.99v4.17h-1.27v-8.57h1.97l2.38,6.81h0.04
			l2.45-6.81h1.98v8.57h-1.35v-4.24c0-0.43,0.01-0.98,0.03-1.66s0.04-1.1,0.06-1.24h-0.05l-2.57,7.14H694.85z"/>
		<path class="st36" d="M709.83,396.27c0,1.04-0.2,1.91-0.59,2.62s-0.97,1.21-1.73,1.5l2.05,2.21h-1.89l-1.62-1.92h-0.23
			c-1.29,0-2.29-0.38-2.98-1.15s-1.04-1.86-1.04-3.27s0.35-2.5,1.05-3.26s1.69-1.14,2.99-1.14c1.27,0,2.26,0.38,2.95,1.15
			S709.83,394.87,709.83,396.27z M703.29,396.27c0,1.05,0.21,1.85,0.64,2.4s1.06,0.82,1.89,0.82c0.83,0,1.46-0.27,1.88-0.81
			s0.64-1.34,0.64-2.41c0-1.05-0.21-1.85-0.63-2.39s-1.05-0.81-1.88-0.81c-0.84,0-1.47,0.27-1.9,0.81S703.29,395.21,703.29,396.27z"
			/>
	</g>
	<rect x="505" y="127" class="st0" width="33" height="1"/>
	<rect x="346" y="315.5" class="st0" width="160" height="1"/>
	<rect x="505" y="456" class="st0" width="33" height="1"/>
	<rect x="505" y="127.75" class="st0" width="1" height="329"/>
	<g>
		<path class="st0" d="M377.18,285.56v-8.57h1v8.57H377.18z"/>
		<path class="st0" d="M384.77,285.56v-4.15c0-0.52-0.12-0.91-0.36-1.17s-0.61-0.39-1.12-0.39c-0.67,0-1.16,0.18-1.48,0.54
			s-0.47,0.96-0.47,1.8v3.37h-0.97v-6.42h0.79l0.16,0.88h0.05c0.2-0.32,0.48-0.56,0.84-0.74s0.76-0.26,1.2-0.26
			c0.77,0,1.36,0.19,1.75,0.56s0.59,0.97,0.59,1.79v4.19H384.77z"/>
		<path class="st0" d="M389.82,284.87c0.17,0,0.34-0.01,0.5-0.04s0.29-0.05,0.38-0.08v0.74c-0.11,0.05-0.26,0.09-0.47,0.13
			s-0.39,0.05-0.55,0.05c-1.24,0-1.86-0.65-1.86-1.96v-3.82h-0.92v-0.47l0.92-0.4l0.41-1.37h0.56v1.49h1.86v0.76h-1.86v3.78
			c0,0.39,0.09,0.68,0.28,0.89S389.5,284.87,389.82,284.87z"/>
		<path class="st0" d="M394.69,285.68c-0.95,0-1.7-0.29-2.25-0.87s-0.82-1.38-0.82-2.41c0-1.04,0.25-1.86,0.76-2.47
			s1.19-0.91,2.05-0.91c0.8,0,1.44,0.26,1.91,0.79s0.7,1.23,0.7,2.09v0.62h-4.42c0.02,0.75,0.21,1.33,0.57,1.72s0.87,0.59,1.53,0.59
			c0.69,0,1.38-0.14,2.05-0.43v0.87c-0.34,0.15-0.67,0.25-0.98,0.32S395.12,285.68,394.69,285.68z M394.43,279.84
			c-0.52,0-0.93,0.17-1.23,0.5s-0.49,0.8-0.54,1.39h3.36c0-0.61-0.14-1.08-0.41-1.41S394.94,279.84,394.43,279.84z"/>
		<path class="st0" d="M401.64,279.02c0.29,0,0.54,0.02,0.77,0.07l-0.13,0.9c-0.27-0.06-0.5-0.09-0.7-0.09
			c-0.52,0-0.96,0.21-1.33,0.63s-0.55,0.95-0.55,1.58v3.45h-0.97v-6.42h0.8l0.11,1.19h0.05c0.24-0.42,0.53-0.74,0.86-0.97
			S401.24,279.02,401.64,279.02z"/>
		<path class="st0" d="M407.56,285.56l-0.19-0.91h-0.05c-0.32,0.4-0.64,0.67-0.96,0.82s-0.72,0.21-1.19,0.21
			c-0.64,0-1.14-0.16-1.5-0.49s-0.54-0.79-0.54-1.4c0-1.3,1.04-1.98,3.11-2.04l1.09-0.04v-0.4c0-0.5-0.11-0.88-0.33-1.12
			s-0.56-0.36-1.04-0.36c-0.54,0-1.14,0.16-1.82,0.49l-0.3-0.74c0.32-0.17,0.66-0.31,1.04-0.4s0.75-0.15,1.13-0.15
			c0.77,0,1.33,0.17,1.7,0.51s0.55,0.88,0.55,1.63v4.38H407.56z M405.36,284.87c0.61,0,1.08-0.17,1.43-0.5s0.52-0.8,0.52-1.39v-0.58
			l-0.97,0.04c-0.77,0.03-1.33,0.15-1.67,0.36s-0.51,0.54-0.51,0.99c0,0.35,0.11,0.62,0.32,0.8S404.98,284.87,405.36,284.87z"/>
		<path class="st0" d="M412.85,285.68c-0.93,0-1.65-0.29-2.16-0.86s-0.76-1.38-0.76-2.43c0-1.07,0.26-1.9,0.78-2.49
			s1.25-0.88,2.21-0.88c0.31,0,0.62,0.03,0.93,0.1s0.55,0.14,0.73,0.23l-0.3,0.83c-0.21-0.09-0.45-0.16-0.7-0.21
			s-0.48-0.08-0.67-0.08c-1.3,0-1.96,0.83-1.96,2.5c0,0.79,0.16,1.39,0.48,1.82s0.79,0.63,1.42,0.63c0.54,0,1.08-0.12,1.65-0.35
			v0.86C414.04,285.57,413.5,285.68,412.85,285.68z"/>
		<path class="st0" d="M418.07,284.87c0.17,0,0.34-0.01,0.5-0.04s0.29-0.05,0.38-0.08v0.74c-0.11,0.05-0.26,0.09-0.47,0.13
			s-0.39,0.05-0.55,0.05c-1.24,0-1.86-0.65-1.86-1.96v-3.82h-0.92v-0.47l0.92-0.4l0.41-1.37h0.56v1.49h1.86v0.76h-1.86v3.78
			c0,0.39,0.09,0.68,0.28,0.89S417.75,284.87,418.07,284.87z"/>
		<path class="st0" d="M428.59,285.56l-1.18-3.77c-0.07-0.23-0.21-0.75-0.42-1.57h-0.05c-0.16,0.68-0.29,1.21-0.41,1.58l-1.21,3.76
			h-1.12l-1.75-6.42h1.02c0.41,1.61,0.73,2.84,0.95,3.69s0.34,1.41,0.37,1.71h0.05c0.04-0.22,0.11-0.51,0.21-0.86
			s0.18-0.63,0.25-0.84l1.18-3.69h1.05l1.15,3.69c0.22,0.67,0.37,1.24,0.45,1.69h0.05c0.02-0.14,0.06-0.36,0.13-0.65
			s0.48-1.87,1.22-4.73h1.01l-1.78,6.42H428.59z"/>
		<path class="st0" d="M432.6,277.4c0-0.22,0.05-0.39,0.16-0.49s0.25-0.16,0.41-0.16c0.16,0,0.29,0.05,0.4,0.16s0.17,0.27,0.17,0.49
			s-0.06,0.38-0.17,0.49s-0.25,0.16-0.4,0.16c-0.16,0-0.3-0.05-0.41-0.16S432.6,277.62,432.6,277.4z M433.66,285.56h-0.97v-6.42
			h0.97V285.56z"/>
		<path class="st0" d="M437.79,284.87c0.17,0,0.34-0.01,0.5-0.04s0.29-0.05,0.38-0.08v0.74c-0.11,0.05-0.26,0.09-0.47,0.13
			s-0.39,0.05-0.55,0.05c-1.24,0-1.86-0.65-1.86-1.96v-3.82h-0.92v-0.47l0.92-0.4l0.41-1.37h0.56v1.49h1.86v0.76h-1.86v3.78
			c0,0.39,0.09,0.68,0.28,0.89S437.47,284.87,437.79,284.87z"/>
		<path class="st0" d="M444.35,285.56v-4.15c0-0.52-0.12-0.91-0.36-1.17s-0.61-0.39-1.12-0.39c-0.68,0-1.17,0.18-1.48,0.55
			s-0.47,0.97-0.47,1.8v3.36h-0.97v-9.12h0.97v2.76c0,0.33-0.02,0.61-0.05,0.83h0.06c0.19-0.31,0.46-0.55,0.82-0.73
			s0.76-0.27,1.21-0.27c0.79,0,1.37,0.19,1.77,0.56s0.59,0.97,0.59,1.78v4.19H444.35z"/>
		<path class="st0" d="M379.96,295.02c0.29,0,0.54,0.02,0.77,0.07l-0.13,0.9c-0.27-0.06-0.5-0.09-0.7-0.09
			c-0.52,0-0.96,0.21-1.33,0.63s-0.55,0.95-0.55,1.58v3.45h-0.97v-6.42h0.8l0.11,1.19h0.05c0.24-0.42,0.53-0.74,0.86-0.97
			S379.56,295.02,379.96,295.02z"/>
		<path class="st0" d="M384.64,301.68c-0.95,0-1.7-0.29-2.25-0.87s-0.82-1.38-0.82-2.41c0-1.04,0.25-1.86,0.76-2.47
			s1.19-0.91,2.05-0.91c0.8,0,1.44,0.26,1.91,0.79s0.7,1.23,0.7,2.09v0.62h-4.42c0.02,0.75,0.21,1.33,0.57,1.72s0.87,0.59,1.53,0.59
			c0.69,0,1.38-0.14,2.05-0.43v0.87c-0.34,0.15-0.67,0.25-0.98,0.32S385.08,301.68,384.64,301.68z M384.38,295.84
			c-0.52,0-0.93,0.17-1.23,0.5s-0.49,0.8-0.54,1.39h3.36c0-0.61-0.14-1.08-0.41-1.41S384.89,295.84,384.38,295.84z"/>
		<path class="st0" d="M392.8,299.81c0,0.6-0.22,1.06-0.67,1.38s-1.07,0.49-1.88,0.49c-0.85,0-1.52-0.13-1.99-0.4v-0.9
			c0.31,0.16,0.64,0.28,0.99,0.37s0.69,0.13,1.02,0.13c0.51,0,0.9-0.08,1.17-0.24s0.41-0.41,0.41-0.74c0-0.25-0.11-0.46-0.33-0.64
			s-0.64-0.39-1.27-0.63c-0.6-0.22-1.02-0.42-1.27-0.58s-0.44-0.35-0.56-0.57s-0.18-0.46-0.18-0.76c0-0.52,0.21-0.94,0.64-1.24
			s1.01-0.45,1.75-0.45c0.69,0,1.37,0.14,2.03,0.42l-0.35,0.79c-0.64-0.27-1.23-0.4-1.75-0.4c-0.46,0-0.81,0.07-1.04,0.22
			s-0.35,0.34-0.35,0.6c0,0.17,0.04,0.32,0.13,0.44s0.23,0.24,0.42,0.35s0.57,0.27,1.12,0.47c0.76,0.28,1.28,0.56,1.54,0.84
			S392.8,299.38,392.8,299.81z"/>
		<path class="st0" d="M399.93,298.34c0,1.05-0.26,1.86-0.79,2.45s-1.26,0.88-2.19,0.88c-0.57,0-1.08-0.13-1.53-0.4
			s-0.79-0.66-1.03-1.16s-0.36-1.09-0.36-1.77c0-1.05,0.26-1.86,0.79-2.45s1.25-0.88,2.18-0.88c0.9,0,1.61,0.3,2.14,0.9
			S399.93,297.32,399.93,298.34z M395.04,298.34c0,0.82,0.16,1.45,0.49,1.88s0.81,0.64,1.45,0.64s1.12-0.21,1.45-0.64
			s0.5-1.05,0.5-1.88c0-0.82-0.17-1.44-0.5-1.86s-0.82-0.64-1.46-0.64c-0.64,0-1.12,0.21-1.44,0.63S395.04,297.52,395.04,298.34z"/>
		<path class="st0" d="M402.55,295.14v4.17c0,0.52,0.12,0.91,0.36,1.17s0.61,0.39,1.12,0.39c0.67,0,1.16-0.18,1.47-0.55
			s0.47-0.97,0.47-1.8v-3.38h0.97v6.42h-0.8l-0.14-0.86h-0.05c-0.2,0.32-0.48,0.56-0.83,0.73s-0.76,0.25-1.21,0.25
			c-0.78,0-1.37-0.19-1.75-0.56s-0.58-0.96-0.58-1.78v-4.2H402.55z"/>
		<path class="st0" d="M411.93,295.02c0.29,0,0.54,0.02,0.77,0.07l-0.13,0.9c-0.27-0.06-0.5-0.09-0.7-0.09
			c-0.52,0-0.96,0.21-1.33,0.63s-0.55,0.95-0.55,1.58v3.45H409v-6.42h0.8l0.11,1.19h0.05c0.24-0.42,0.53-0.74,0.86-0.97
			S411.53,295.02,411.93,295.02z"/>
		<path class="st0" d="M416.46,301.68c-0.93,0-1.65-0.29-2.16-0.86s-0.76-1.38-0.76-2.43c0-1.07,0.26-1.9,0.78-2.49
			s1.25-0.88,2.21-0.88c0.31,0,0.62,0.03,0.93,0.1s0.55,0.14,0.73,0.23l-0.3,0.83c-0.21-0.09-0.45-0.16-0.7-0.21
			s-0.48-0.08-0.67-0.08c-1.3,0-1.96,0.83-1.96,2.5c0,0.79,0.16,1.39,0.48,1.82s0.79,0.63,1.42,0.63c0.54,0,1.08-0.12,1.65-0.35
			v0.86C417.66,301.57,417.12,301.68,416.46,301.68z"/>
		<path class="st0" d="M422.32,301.68c-0.95,0-1.7-0.29-2.25-0.87s-0.82-1.38-0.82-2.41c0-1.04,0.25-1.86,0.76-2.47
			s1.19-0.91,2.05-0.91c0.8,0,1.44,0.26,1.91,0.79s0.7,1.23,0.7,2.09v0.62h-4.42c0.02,0.75,0.21,1.33,0.57,1.72s0.87,0.59,1.53,0.59
			c0.69,0,1.38-0.14,2.05-0.43v0.87c-0.34,0.15-0.67,0.25-0.98,0.32S422.76,301.68,422.32,301.68z M422.06,295.84
			c-0.52,0-0.93,0.17-1.23,0.5s-0.49,0.8-0.54,1.39h3.36c0-0.61-0.14-1.08-0.41-1.41S422.57,295.84,422.06,295.84z"/>
		<path class="st0" d="M430.49,299.81c0,0.6-0.22,1.06-0.67,1.38s-1.07,0.49-1.88,0.49c-0.85,0-1.52-0.13-1.99-0.4v-0.9
			c0.31,0.16,0.64,0.28,0.99,0.37s0.69,0.13,1.02,0.13c0.51,0,0.9-0.08,1.17-0.24s0.41-0.41,0.41-0.74c0-0.25-0.11-0.46-0.33-0.64
			s-0.64-0.39-1.27-0.63c-0.6-0.22-1.02-0.42-1.27-0.58s-0.44-0.35-0.56-0.57s-0.18-0.46-0.18-0.76c0-0.52,0.21-0.94,0.64-1.24
			s1.01-0.45,1.75-0.45c0.69,0,1.37,0.14,2.03,0.42l-0.35,0.79c-0.64-0.27-1.23-0.4-1.75-0.4c-0.46,0-0.81,0.07-1.04,0.22
			s-0.35,0.34-0.35,0.6c0,0.17,0.04,0.32,0.13,0.44s0.23,0.24,0.42,0.35s0.57,0.27,1.12,0.47c0.76,0.28,1.28,0.56,1.54,0.84
			S430.49,299.38,430.49,299.81z"/>
		<path class="st0" d="M437.9,301.68c-0.95,0-1.7-0.29-2.25-0.87s-0.82-1.38-0.82-2.41c0-1.04,0.25-1.86,0.76-2.47
			s1.19-0.91,2.05-0.91c0.8,0,1.44,0.26,1.91,0.79s0.7,1.23,0.7,2.09v0.62h-4.42c0.02,0.75,0.21,1.33,0.57,1.72s0.87,0.59,1.53,0.59
			c0.69,0,1.38-0.14,2.05-0.43v0.87c-0.34,0.15-0.67,0.25-0.98,0.32S438.33,301.68,437.9,301.68z M437.63,295.84
			c-0.52,0-0.93,0.17-1.23,0.5s-0.49,0.8-0.54,1.39h3.36c0-0.61-0.14-1.08-0.41-1.41S438.14,295.84,437.63,295.84z"/>
		<path class="st0" d="M441.78,300.94c0-0.26,0.06-0.46,0.18-0.59s0.29-0.2,0.51-0.2c0.23,0,0.4,0.07,0.53,0.2s0.19,0.33,0.19,0.59
			c0,0.25-0.06,0.45-0.19,0.59s-0.3,0.21-0.53,0.21c-0.2,0-0.36-0.06-0.5-0.18S441.78,301.22,441.78,300.94z"/>
		<path class="st0" d="M450.37,295.14v0.62l-1.19,0.14c0.11,0.14,0.21,0.32,0.29,0.54s0.13,0.47,0.13,0.75
			c0,0.63-0.21,1.13-0.64,1.51s-1.02,0.56-1.77,0.56c-0.19,0-0.37-0.02-0.54-0.05c-0.41,0.22-0.62,0.49-0.62,0.83
			c0,0.18,0.07,0.31,0.22,0.39s0.39,0.13,0.74,0.13h1.14c0.7,0,1.23,0.15,1.6,0.44s0.56,0.72,0.56,1.28c0,0.71-0.29,1.25-0.86,1.63
			s-1.4,0.56-2.5,0.56c-0.84,0-1.49-0.16-1.94-0.47s-0.68-0.75-0.68-1.32c0-0.39,0.12-0.73,0.38-1.01s0.6-0.48,1.05-0.58
			c-0.16-0.07-0.3-0.19-0.41-0.35s-0.17-0.34-0.17-0.54c0-0.23,0.06-0.44,0.19-0.62s0.32-0.35,0.59-0.51
			c-0.33-0.14-0.6-0.37-0.81-0.7s-0.31-0.7-0.31-1.12c0-0.7,0.21-1.25,0.63-1.63s1.02-0.57,1.79-0.57c0.34,0,0.64,0.04,0.91,0.12
			H450.37z M445.25,302.64c0,0.35,0.15,0.61,0.44,0.79s0.71,0.27,1.26,0.27c0.82,0,1.42-0.12,1.81-0.37s0.59-0.58,0.59-0.99
			c0-0.35-0.11-0.59-0.32-0.72s-0.62-0.2-1.21-0.2h-1.17c-0.44,0-0.79,0.11-1.03,0.32S445.25,302.24,445.25,302.64z M445.77,297.19
			c0,0.45,0.13,0.79,0.38,1.02s0.61,0.35,1.06,0.35c0.95,0,1.42-0.46,1.42-1.38c0-0.96-0.48-1.45-1.44-1.45
			c-0.46,0-0.81,0.12-1.05,0.37S445.77,296.71,445.77,297.19z"/>
		<path class="st0" d="M451.54,300.94c0-0.26,0.06-0.46,0.18-0.59s0.29-0.2,0.51-0.2c0.23,0,0.4,0.07,0.53,0.2s0.19,0.33,0.19,0.59
			c0,0.25-0.06,0.45-0.19,0.59s-0.3,0.21-0.53,0.21c-0.2,0-0.36-0.06-0.5-0.18S451.54,301.22,451.54,300.94z"/>
	</g>
	<path class="st0" d="M106.22,257.86l3.78-8.85h-6v-3.01h-9L90,242h-8v21.05h16.81c0.13,0.9,0.51,1.73,1.04,2.41l-3.82,3.83
		l0.71,0.71l3.81-3.82c0.88,0.75,2.01,1.2,3.25,1.2c2.8,0,5.07-2.27,5.07-5.08C108.87,260.38,107.79,258.73,106.22,257.86z M83,243
		h6.65l4.73,3.79l0.27,0.22H95h8v2H87.89L83,260.45V243z M98.76,262.05H83.4l5.14-12.03H103h0.34H104h4.48l-3.19,7.45
		c-0.48-0.15-0.97-0.25-1.49-0.25C101.09,257.22,98.9,259.36,98.76,262.05z M103.8,266.38c-2.24,0-4.07-1.83-4.07-4.08
		s1.82-4.08,4.07-4.08c2.24,0,4.07,1.83,4.07,4.08S106.05,266.38,103.8,266.38z"/>
	<g>
		<g>
			<path class="st0" d="M93.14,469.87c-0.7,0-1.42,0.15-2.1,0.48c-2.49,1.18-3.56,4.2-2.4,6.73c0.84,1.84,2.64,2.93,4.51,2.93
				c0.7,0,1.42-0.15,2.1-0.48c2.49-1.18,3.56-4.2,2.4-6.73C96.8,470.95,95.01,469.87,93.14,469.87z M96.88,476.32
				c-0.36,1.02-1.09,1.83-2.06,2.29c-0.53,0.25-1.1,0.38-1.68,0.38c-1.54,0-2.96-0.92-3.61-2.34c-0.45-0.98-0.5-2.08-0.13-3.1
				c0.36-1.02,1.09-1.83,2.06-2.29c0.53-0.25,1.1-0.38,1.68-0.38c1.54,0,2.96,0.92,3.61,2.34C97.2,474.2,97.24,475.3,96.88,476.32z"
				/>
		</g>
		<g>
			<path class="st0" d="M93.14,472.91c-0.28,0-0.57,0.06-0.84,0.19c-1,0.47-1.43,1.68-0.96,2.69c0.34,0.74,1.05,1.17,1.8,1.17
				c0.28,0,0.57-0.06,0.84-0.19c1-0.47,1.43-1.68,0.96-2.69C94.61,473.34,93.89,472.91,93.14,472.91z M93.56,475.85
				c-0.13,0.06-0.27,0.1-0.42,0.1c-0.39,0-0.74-0.23-0.9-0.59c-0.23-0.51-0.02-1.11,0.48-1.35c0.13-0.06,0.27-0.1,0.42-0.1
				c0.39,0,0.74,0.23,0.9,0.59C94.28,475.01,94.06,475.62,93.56,475.85z"/>
		</g>
		<g>
			<path class="st0" d="M104.8,454.86L93.99,460l4.2,9.18l10.81-5.14L104.8,454.86z M95.31,460.49l9.01-4.28l3.36,7.35l-9.01,4.28
				L95.31,460.49z"/>
		</g>
		<g>
			<polygon class="st0" points="99.03,471.02 99.45,471.94 104.85,469.37 104.43,468.45 			"/>
		</g>
		<g>
			<polygon class="st0" points="94.23,467.71 95.13,467.28 88.83,453.51 88.83,453.51 88.41,452.59 88.41,452.59 86.3,448 
				85.4,448.43 87.5,453.02 83,455.16 83.42,456.08 87.92,453.94 			"/>
		</g>
	</g>
	<g>
		<path class="st0" d="M95,355.85l2.12,2.12l0.71-0.71l-2.12-2.12l1.41-1.41l-3.54-3.54c-0.98-0.98-2.26-1.46-3.54-1.46
			c-1.13,0-2.24,0.4-3.16,1.16c-1.34-1.19-3.03-1.86-4.84-1.89H82v1h0.04c1.54,0.03,2.99,0.6,4.15,1.6
			c-1.59,1.96-1.49,4.84,0.33,6.67l3.54,3.54l1.41-1.41l2.12,2.12l0.71-0.71l-2.12-2.12L95,355.85z M90.05,359.39l-2.83-2.83
			c-1.56-1.56-1.56-4.1,0-5.66c0.76-0.76,1.76-1.17,2.83-1.17c1.07,0,2.07,0.42,2.83,1.17l2.83,2.83L90.05,359.39z"/>
		<path class="st0" d="M109.88,371c-1.51-0.05-2.94-0.61-4.07-1.6c1.59-1.96,1.5-4.84-0.33-6.67l-3.54-3.54l-7.07,7.07l3.54,3.54
			c0.98,0.98,2.26,1.46,3.54,1.46c1.13,0,2.24-0.4,3.16-1.16c1.31,1.16,2.98,1.84,4.76,1.89H110v-1H109.88z M104.78,369.1
			c-0.76,0.76-1.76,1.17-2.83,1.17s-2.07-0.42-2.83-1.17l-2.83-2.83l5.66-5.66l2.83,2.83C106.34,365,106.34,367.54,104.78,369.1z"/>
	</g>
	<g>
		<path class="st0" d="M260.86,373.77l6.01-6c0.2-0.2,0.2-0.51,0-0.71c-0.2-0.2-0.51-0.2-0.71,0l-5.25,5.24
			c-0.01-0.18-0.01-0.36-0.01-0.55c0-10.75,8.77-19.5,19.54-19.5c8.62,0,16.33,5.76,18.75,14c0.08,0.26,0.35,0.42,0.62,0.34
			c0.26-0.08,0.42-0.36,0.34-0.62c-2.55-8.67-10.65-14.72-19.71-14.72c-11.33,0-20.54,9.2-20.54,20.5c0,0.12,0.01,0.25,0.01,0.37
			l-5.07-5.06c-0.2-0.19-0.51-0.2-0.71,0c-0.19,0.2-0.19,0.51,0,0.71l6.01,6c0.1,0.1,0.23,0.15,0.35,0.15
			S260.77,373.87,260.86,373.77z"/>
		<path class="st0" d="M306.85,375.06l-6.01-6c-0.2-0.19-0.51-0.19-0.71,0l-6.01,6c-0.2,0.2-0.2,0.51,0,0.71
			c0.2,0.2,0.51,0.2,0.71,0l5.11-5.1c0.02,0.36,0.05,0.72,0.05,1.08c0,10.75-8.77,19.5-19.54,19.5c-9.13,0-16.96-6.19-19.03-15.05
			c-0.06-0.27-0.33-0.44-0.6-0.37c-0.27,0.06-0.44,0.33-0.37,0.6c2.18,9.32,10.4,15.82,20,15.82c11.33,0,20.54-9.2,20.54-20.5
			c0-0.39-0.03-0.79-0.05-1.18l5.21,5.2c0.1,0.1,0.23,0.15,0.35,0.15s0.26-0.05,0.35-0.15
			C307.05,375.57,307.05,375.26,306.85,375.06z"/>
	</g>
</g>
<g id="Layer_2">
</g>
<g id="Layer_3">
</g>
</svg>
