<?xml version="1.0" encoding="utf-8"?>
<!-- Generator: Adobe Illustrator 24.3.0, SVG Export Plug-In . SVG Version: 6.00 Build 0)  -->
<svg version="1.1" xmlns="http://www.w3.org/2000/svg" xmlns:xlink="http://www.w3.org/1999/xlink" x="0px" y="0px"
	 viewBox="0 0 730 416" style="enable-background:new 0 0 730 416;" xml:space="preserve">
<style type="text/css">
	.st0{fill:#161616;}
	.st1{fill:#03429D;}
	.st2{fill:#393939;}
	.st3{fill:#8D8D8D;}
	.st4{fill:#9EBAE3;}
	.st5{fill:#DFECFF;}
	.st6{clip-path:url(#SVGID_2_);fill:#03429D;}
	.st7{clip-path:url(#SVGID_4_);fill:#0F55BA;}
	.st8{clip-path:url(#SVGID_6_);fill:#9EBAE3;}
	.st9{clip-path:url(#SVGID_8_);fill:#002A66;}
	.st10{clip-path:url(#SVGID_10_);fill:#FFDB12;}
	.st11{clip-path:url(#SVGID_12_);fill:#FFE36C;}
	.st12{clip-path:url(#SVGID_14_);}
	.st13{clip-path:url(#SVGID_16_);fill:#FFFFFF;}
	.st14{clip-path:url(#SVGID_18_);fill:#161616;}
	.st15{clip-path:url(#SVGID_20_);fill:#262626;}
	.st16{clip-path:url(#SVGID_22_);fill:#393939;}
	.st17{clip-path:url(#SVGID_24_);fill:#525252;}
	.st18{clip-path:url(#SVGID_26_);fill:#6F6F6F;}
	.st19{clip-path:url(#SVGID_28_);fill:#DFECFF;}
	.st20{clip-path:url(#SVGID_30_);fill:#F8F788;}
	.st21{clip-path:url(#SVGID_32_);fill:#8D8D8D;}
	.st22{clip-path:url(#SVGID_34_);fill:#A8A8A8;}
	.st23{clip-path:url(#SVGID_36_);fill:#C6C6C6;}
	.st24{clip-path:url(#SVGID_38_);fill:#E0E0E0;}
	.st25{clip-path:url(#SVGID_40_);fill:#F4F4F4;}
	.st26{clip-path:url(#SVGID_42_);fill:#D62525;}
	.st27{fill:#002A66;}
	.st28{fill:#0F55BA;}
	.st29{fill:#262626;}
	.st30{fill:#525252;}
	.st31{fill:#6F6F6F;}
	.st32{fill:#A8A8A8;}
	.st33{fill:#C6C6C6;}
	.st34{fill:#E0E0E0;}
	.st35{fill:#F4F4F4;}
	.st36{fill:#FFFFFF;}
	.st37{fill:#FFDB12;}
	.st38{fill:#FFE36C;}
	.st39{fill:#F8F788;}
	.st40{fill:#FF832B;}
	.st41{fill:#EFA284;}
	.st42{fill:none;stroke:#161616;stroke-miterlimit:10;}
	.st43{fill:none;stroke:#000000;stroke-linecap:round;stroke-linejoin:round;stroke-miterlimit:10;}
	.st44{fill:none;stroke:#000000;stroke-linecap:round;stroke-miterlimit:10;}
	.st45{fill:#C0D0E6;}
	.st46{fill:#FBE8E0;}
	.st47{fill:#81A0CE;}
	.st48{fill:#F7D0C1;}
	.st49{fill:#4271B5;}
	.st50{fill:#F3B9A3;}
	.st51{fill:none;stroke:#C6C6C6;stroke-miterlimit:10;stroke-dasharray:8;}
</style>
<g id="Layer_1">
	<g>
		<path class="st0" d="M158.01,102.28c0,0.75-0.27,1.34-0.82,1.76s-1.29,0.63-2.23,0.63c-1.02,0-1.8-0.13-2.34-0.39v-0.96
			c0.35,0.15,0.73,0.27,1.15,0.35s0.82,0.13,1.23,0.13c0.66,0,1.16-0.13,1.5-0.38s0.5-0.6,0.5-1.05c0-0.3-0.06-0.54-0.18-0.73
			s-0.32-0.36-0.6-0.52s-0.7-0.34-1.27-0.54c-0.8-0.29-1.37-0.62-1.71-1.01s-0.51-0.9-0.51-1.53c0-0.66,0.25-1.19,0.74-1.58
			s1.15-0.59,1.97-0.59c0.85,0,1.63,0.16,2.35,0.47l-0.31,0.87c-0.71-0.3-1.39-0.45-2.06-0.45c-0.53,0-0.94,0.11-1.24,0.34
			s-0.45,0.54-0.45,0.94c0,0.3,0.05,0.54,0.16,0.73s0.29,0.36,0.55,0.52s0.66,0.33,1.19,0.52c0.9,0.32,1.52,0.66,1.85,1.03
			S158.01,101.69,158.01,102.28z"/>
		<path class="st0" d="M160.53,98.14v4.17c0,0.52,0.12,0.91,0.36,1.17s0.61,0.39,1.12,0.39c0.67,0,1.16-0.18,1.47-0.55
			s0.47-0.97,0.47-1.8v-3.38h0.97v6.42h-0.8l-0.14-0.86h-0.05c-0.2,0.32-0.48,0.56-0.83,0.73s-0.76,0.25-1.21,0.25
			c-0.78,0-1.37-0.19-1.75-0.56s-0.58-0.96-0.58-1.78v-4.2H160.53z"/>
		<path class="st0" d="M169.97,98.03c0.84,0,1.5,0.29,1.97,0.86s0.7,1.39,0.7,2.45s-0.24,1.87-0.71,2.46s-1.12,0.88-1.96,0.88
			c-0.42,0-0.8-0.08-1.15-0.23s-0.64-0.39-0.87-0.71h-0.07l-0.21,0.83h-0.7v-9.12h0.97v2.21c0,0.5-0.02,0.94-0.05,1.34h0.05
			C168.41,98.35,169.08,98.03,169.97,98.03z M169.83,98.85c-0.66,0-1.14,0.19-1.44,0.57s-0.44,1.02-0.44,1.92s0.15,1.55,0.45,1.94
			s0.78,0.58,1.45,0.58c0.6,0,1.04-0.22,1.34-0.65s0.44-1.06,0.44-1.88c0-0.84-0.15-1.46-0.44-1.87S170.44,98.85,169.83,98.85z"/>
		<path class="st0" d="M182.52,104.56v-4.18c0-0.51-0.11-0.9-0.33-1.15s-0.56-0.38-1.02-0.38c-0.61,0-1.05,0.17-1.34,0.52
			s-0.43,0.88-0.43,1.61v3.59h-0.97v-4.18c0-0.51-0.11-0.9-0.33-1.15s-0.56-0.38-1.03-0.38c-0.61,0-1.06,0.18-1.34,0.55
			s-0.42,0.96-0.42,1.8v3.37h-0.97v-6.42h0.79l0.16,0.88h0.05c0.18-0.31,0.44-0.56,0.78-0.73s0.71-0.26,1.12-0.26
			c1,0,1.66,0.36,1.97,1.09h0.05c0.19-0.34,0.47-0.6,0.83-0.8s0.78-0.29,1.24-0.29c0.73,0,1.27,0.19,1.63,0.56s0.54,0.97,0.54,1.79
			v4.19H182.52z"/>
		<path class="st0" d="M185.42,96.4c0-0.22,0.05-0.39,0.16-0.49s0.25-0.16,0.41-0.16c0.16,0,0.29,0.05,0.4,0.16s0.17,0.27,0.17,0.49
			s-0.06,0.38-0.17,0.49s-0.25,0.16-0.4,0.16c-0.16,0-0.3-0.05-0.41-0.16S185.42,96.62,185.42,96.4z M186.47,104.56h-0.97v-6.42
			h0.97V104.56z"/>
		<path class="st0" d="M190.61,103.87c0.17,0,0.34-0.01,0.5-0.04s0.29-0.05,0.38-0.08v0.74c-0.11,0.05-0.26,0.09-0.47,0.13
			s-0.39,0.05-0.55,0.05c-1.24,0-1.86-0.65-1.86-1.96v-3.82h-0.92v-0.47l0.92-0.4l0.41-1.37h0.56v1.49h1.86v0.76h-1.86v3.78
			c0,0.39,0.09,0.68,0.28,0.89S190.29,103.87,190.61,103.87z"/>
		<path class="st0" d="M197.96,103.87c0.17,0,0.34-0.01,0.5-0.04s0.29-0.05,0.38-0.08v0.74c-0.11,0.05-0.26,0.09-0.47,0.13
			s-0.39,0.05-0.55,0.05c-1.24,0-1.86-0.65-1.86-1.96v-3.82h-0.92v-0.47l0.92-0.4l0.41-1.37h0.56v1.49h1.86v0.76h-1.86v3.78
			c0,0.39,0.09,0.68,0.28,0.89S197.64,103.87,197.96,103.87z"/>
		<path class="st0" d="M202.84,104.68c-0.95,0-1.7-0.29-2.25-0.87s-0.82-1.38-0.82-2.41c0-1.04,0.25-1.86,0.76-2.47
			s1.19-0.91,2.05-0.91c0.8,0,1.44,0.26,1.91,0.79s0.7,1.23,0.7,2.09v0.62h-4.42c0.02,0.75,0.21,1.33,0.57,1.72s0.87,0.59,1.53,0.59
			c0.69,0,1.38-0.14,2.05-0.43v0.87c-0.34,0.15-0.67,0.25-0.98,0.32S203.27,104.68,202.84,104.68z M202.57,98.84
			c-0.52,0-0.93,0.17-1.23,0.5s-0.49,0.8-0.54,1.39h3.36c0-0.61-0.14-1.08-0.41-1.41S203.08,98.84,202.57,98.84z"/>
		<path class="st0" d="M211,102.81c0,0.6-0.22,1.06-0.67,1.38s-1.07,0.49-1.88,0.49c-0.85,0-1.52-0.13-1.99-0.4v-0.9
			c0.31,0.16,0.64,0.28,0.99,0.37s0.69,0.13,1.02,0.13c0.51,0,0.9-0.08,1.17-0.24s0.41-0.41,0.41-0.74c0-0.25-0.11-0.46-0.33-0.64
			s-0.64-0.39-1.27-0.63c-0.6-0.22-1.02-0.42-1.27-0.58s-0.44-0.35-0.56-0.57s-0.18-0.46-0.18-0.76c0-0.52,0.21-0.94,0.64-1.24
			s1.01-0.45,1.75-0.45c0.69,0,1.37,0.14,2.03,0.42l-0.35,0.79c-0.64-0.27-1.23-0.4-1.75-0.4c-0.46,0-0.81,0.07-1.04,0.22
			s-0.35,0.34-0.35,0.6c0,0.17,0.04,0.32,0.13,0.44s0.23,0.24,0.42,0.35s0.57,0.27,1.12,0.47c0.76,0.28,1.28,0.56,1.54,0.84
			S211,102.38,211,102.81z"/>
		<path class="st0" d="M214.65,103.87c0.17,0,0.34-0.01,0.5-0.04s0.29-0.05,0.38-0.08v0.74c-0.11,0.05-0.26,0.09-0.47,0.13
			s-0.39,0.05-0.55,0.05c-1.24,0-1.86-0.65-1.86-1.96v-3.82h-0.92v-0.47l0.92-0.4l0.41-1.37h0.56v1.49h1.86v0.76h-1.86v3.78
			c0,0.39,0.09,0.68,0.28,0.89S214.33,103.87,214.65,103.87z"/>
		<path class="st0" d="M220.96,102.81c0,0.6-0.22,1.06-0.67,1.38s-1.07,0.49-1.88,0.49c-0.85,0-1.52-0.13-1.99-0.4v-0.9
			c0.31,0.16,0.64,0.28,0.99,0.37s0.69,0.13,1.02,0.13c0.51,0,0.9-0.08,1.17-0.24s0.41-0.41,0.41-0.74c0-0.25-0.11-0.46-0.33-0.64
			s-0.64-0.39-1.27-0.63c-0.6-0.22-1.02-0.42-1.27-0.58s-0.44-0.35-0.56-0.57s-0.18-0.46-0.18-0.76c0-0.52,0.21-0.94,0.64-1.24
			s1.01-0.45,1.75-0.45c0.69,0,1.37,0.14,2.03,0.42l-0.35,0.79c-0.64-0.27-1.23-0.4-1.75-0.4c-0.46,0-0.81,0.07-1.04,0.22
			s-0.35,0.34-0.35,0.6c0,0.17,0.04,0.32,0.13,0.44s0.23,0.24,0.42,0.35s0.57,0.27,1.12,0.47c0.76,0.28,1.28,0.56,1.54,0.84
			S220.96,102.38,220.96,102.81z"/>
	</g>
	<rect x="136" y="115.5" class="st0" width="120" height="1"/>
	<polygon class="st0" points="264,116 256,112 256,120 	"/>
	<g>
		<path class="st0" d="M160.61,148.27c0,1.1-0.22,2.01-0.66,2.74s-1.06,1.22-1.87,1.48l2.04,2.12h-1.45l-1.67-1.93l-0.32,0.01
			c-1.26,0-2.24-0.39-2.92-1.16s-1.03-1.86-1.03-3.27c0-1.39,0.34-2.48,1.03-3.24s1.66-1.15,2.93-1.15c1.23,0,2.19,0.39,2.88,1.17
			S160.61,146.89,160.61,148.27z M153.79,148.27c0,1.16,0.25,2.04,0.74,2.64s1.21,0.9,2.15,0.9c0.95,0,1.67-0.3,2.15-0.9
			s0.73-1.48,0.73-2.64c0-1.15-0.24-2.03-0.72-2.62s-1.2-0.89-2.14-0.89c-0.95,0-1.67,0.3-2.17,0.9S153.79,147.12,153.79,148.27z"/>
		<path class="st0" d="M163.29,146.14v4.17c0,0.52,0.12,0.91,0.36,1.17s0.61,0.39,1.12,0.39c0.67,0,1.16-0.18,1.47-0.55
			s0.47-0.97,0.47-1.8v-3.38h0.97v6.42h-0.8l-0.14-0.86h-0.05c-0.2,0.32-0.48,0.56-0.83,0.73s-0.76,0.25-1.21,0.25
			c-0.78,0-1.37-0.19-1.75-0.56s-0.58-0.96-0.58-1.78v-4.2H163.29z"/>
		<path class="st0" d="M172.46,152.68c-0.95,0-1.7-0.29-2.25-0.87s-0.82-1.38-0.82-2.41c0-1.04,0.25-1.86,0.76-2.47
			s1.19-0.91,2.05-0.91c0.8,0,1.44,0.26,1.91,0.79s0.7,1.23,0.7,2.09v0.62h-4.42c0.02,0.75,0.21,1.33,0.57,1.72s0.87,0.59,1.53,0.59
			c0.69,0,1.38-0.14,2.05-0.43v0.87c-0.34,0.15-0.67,0.25-0.98,0.32S172.89,152.68,172.46,152.68z M172.19,146.84
			c-0.52,0-0.93,0.17-1.23,0.5s-0.49,0.8-0.54,1.39h3.36c0-0.61-0.14-1.08-0.41-1.41S172.7,146.84,172.19,146.84z"/>
		<path class="st0" d="M179.4,146.02c0.29,0,0.54,0.02,0.77,0.07l-0.13,0.9c-0.27-0.06-0.5-0.09-0.7-0.09
			c-0.52,0-0.96,0.21-1.33,0.63s-0.55,0.95-0.55,1.58v3.45h-0.97v-6.42h0.8l0.11,1.19h0.05c0.24-0.42,0.53-0.74,0.86-0.97
			S179,146.02,179.4,146.02z"/>
		<path class="st0" d="M180.35,146.14h1.04l1.41,3.66c0.31,0.84,0.5,1.44,0.57,1.81h0.05c0.05-0.2,0.16-0.54,0.32-1.02
			s0.69-1.97,1.59-4.45h1.04l-2.76,7.31c-0.27,0.72-0.59,1.24-0.96,1.54s-0.81,0.45-1.34,0.45c-0.3,0-0.59-0.03-0.88-0.1v-0.78
			c0.21,0.05,0.46,0.07,0.72,0.07c0.67,0,1.14-0.38,1.43-1.12l0.36-0.91L180.35,146.14z"/>
		<path class="st0" d="M193.47,146.02c0.29,0,0.54,0.02,0.77,0.07l-0.13,0.9c-0.27-0.06-0.5-0.09-0.7-0.09
			c-0.52,0-0.96,0.21-1.33,0.63s-0.55,0.95-0.55,1.58v3.45h-0.97v-6.42h0.8l0.11,1.19h0.05c0.24-0.42,0.53-0.74,0.86-0.97
			S193.06,146.02,193.47,146.02z"/>
		<path class="st0" d="M198.15,152.68c-0.95,0-1.7-0.29-2.25-0.87s-0.82-1.38-0.82-2.41c0-1.04,0.25-1.86,0.76-2.47
			s1.19-0.91,2.05-0.91c0.8,0,1.44,0.26,1.91,0.79s0.7,1.23,0.7,2.09v0.62h-4.42c0.02,0.75,0.21,1.33,0.57,1.72s0.87,0.59,1.53,0.59
			c0.69,0,1.38-0.14,2.05-0.43v0.87c-0.34,0.15-0.67,0.25-0.98,0.32S198.58,152.68,198.15,152.68z M197.88,146.84
			c-0.52,0-0.93,0.17-1.23,0.5s-0.49,0.8-0.54,1.39h3.36c0-0.61-0.14-1.08-0.41-1.41S198.39,146.84,197.88,146.84z"/>
		<path class="st0" d="M206.31,150.81c0,0.6-0.22,1.06-0.67,1.38s-1.07,0.49-1.88,0.49c-0.85,0-1.52-0.13-1.99-0.4v-0.9
			c0.31,0.16,0.64,0.28,0.99,0.37s0.69,0.13,1.02,0.13c0.51,0,0.9-0.08,1.17-0.24s0.41-0.41,0.41-0.74c0-0.25-0.11-0.46-0.33-0.64
			s-0.64-0.39-1.27-0.63c-0.6-0.22-1.02-0.42-1.27-0.58s-0.44-0.35-0.56-0.57s-0.18-0.46-0.18-0.76c0-0.52,0.21-0.94,0.64-1.24
			s1.01-0.45,1.75-0.45c0.69,0,1.37,0.14,2.03,0.42l-0.35,0.79c-0.64-0.27-1.23-0.4-1.75-0.4c-0.46,0-0.81,0.07-1.04,0.22
			s-0.35,0.34-0.35,0.6c0,0.17,0.04,0.32,0.13,0.44s0.23,0.24,0.42,0.35s0.57,0.27,1.12,0.47c0.76,0.28,1.28,0.56,1.54,0.84
			S206.31,150.38,206.31,150.81z"/>
		<path class="st0" d="M208.81,146.14v4.17c0,0.52,0.12,0.91,0.36,1.17s0.61,0.39,1.12,0.39c0.67,0,1.16-0.18,1.47-0.55
			s0.47-0.97,0.47-1.8v-3.38h0.97v6.42h-0.8l-0.14-0.86h-0.05c-0.2,0.32-0.48,0.56-0.83,0.73s-0.76,0.25-1.21,0.25
			c-0.78,0-1.37-0.19-1.75-0.56s-0.58-0.96-0.58-1.78v-4.2H208.81z"/>
		<path class="st0" d="M216.23,152.56h-0.97v-9.12h0.97V152.56z"/>
		<path class="st0" d="M220.37,151.87c0.17,0,0.34-0.01,0.5-0.04s0.29-0.05,0.38-0.08v0.74c-0.11,0.05-0.26,0.09-0.47,0.13
			s-0.39,0.05-0.55,0.05c-1.24,0-1.86-0.65-1.86-1.96v-3.82h-0.92v-0.47l0.92-0.4l0.41-1.37h0.56v1.49h1.86v0.76h-1.86v3.78
			c0,0.39,0.09,0.68,0.28,0.89S220.05,151.87,220.37,151.87z"/>
		<path class="st0" d="M226.67,150.81c0,0.6-0.22,1.06-0.67,1.38s-1.07,0.49-1.88,0.49c-0.85,0-1.52-0.13-1.99-0.4v-0.9
			c0.31,0.16,0.64,0.28,0.99,0.37s0.69,0.13,1.02,0.13c0.51,0,0.9-0.08,1.17-0.24s0.41-0.41,0.41-0.74c0-0.25-0.11-0.46-0.33-0.64
			s-0.64-0.39-1.27-0.63c-0.6-0.22-1.02-0.42-1.27-0.58s-0.44-0.35-0.56-0.57s-0.18-0.46-0.18-0.76c0-0.52,0.21-0.94,0.64-1.24
			s1.01-0.45,1.75-0.45c0.69,0,1.37,0.14,2.03,0.42l-0.35,0.79c-0.64-0.27-1.23-0.4-1.75-0.4c-0.46,0-0.81,0.07-1.04,0.22
			s-0.35,0.34-0.35,0.6c0,0.17,0.04,0.32,0.13,0.44s0.23,0.24,0.42,0.35s0.57,0.27,1.12,0.47c0.76,0.28,1.28,0.56,1.54,0.84
			S226.67,150.38,226.67,150.81z"/>
	</g>
	<rect x="144" y="163.5" class="st0" width="120" height="1"/>
	<polygon class="st0" points="136,164 144,168 144,160 	"/>
	<g>
		<path class="st0" d="M158.01,254.28c0,0.75-0.27,1.34-0.82,1.76s-1.29,0.63-2.23,0.63c-1.02,0-1.8-0.13-2.34-0.39v-0.96
			c0.35,0.15,0.73,0.27,1.15,0.35s0.82,0.13,1.23,0.13c0.66,0,1.16-0.13,1.5-0.38s0.5-0.6,0.5-1.05c0-0.3-0.06-0.54-0.18-0.73
			s-0.32-0.36-0.6-0.52s-0.7-0.34-1.27-0.54c-0.8-0.29-1.37-0.62-1.71-1.01s-0.51-0.9-0.51-1.53c0-0.66,0.25-1.19,0.74-1.58
			s1.15-0.59,1.97-0.59c0.85,0,1.63,0.16,2.35,0.47l-0.31,0.87c-0.71-0.3-1.39-0.45-2.06-0.45c-0.53,0-0.94,0.11-1.24,0.34
			s-0.45,0.54-0.45,0.94c0,0.3,0.05,0.54,0.16,0.73s0.29,0.36,0.55,0.52s0.66,0.33,1.19,0.52c0.9,0.32,1.52,0.66,1.85,1.03
			S158.01,253.69,158.01,254.28z"/>
		<path class="st0" d="M160.53,250.14v4.17c0,0.52,0.12,0.91,0.36,1.17s0.61,0.39,1.12,0.39c0.67,0,1.16-0.18,1.47-0.55
			s0.47-0.97,0.47-1.8v-3.38h0.97v6.42h-0.8l-0.14-0.86h-0.05c-0.2,0.32-0.48,0.56-0.83,0.73s-0.76,0.25-1.21,0.25
			c-0.78,0-1.37-0.19-1.75-0.56s-0.58-0.96-0.58-1.78v-4.2H160.53z"/>
		<path class="st0" d="M169.97,250.03c0.84,0,1.5,0.29,1.97,0.86s0.7,1.39,0.7,2.45s-0.24,1.87-0.71,2.46s-1.12,0.88-1.96,0.88
			c-0.42,0-0.8-0.08-1.15-0.23s-0.64-0.39-0.87-0.71h-0.07l-0.21,0.83h-0.7v-9.12h0.97v2.21c0,0.5-0.02,0.94-0.05,1.34h0.05
			C168.41,250.35,169.08,250.03,169.97,250.03z M169.83,250.85c-0.66,0-1.14,0.19-1.44,0.57s-0.44,1.02-0.44,1.92
			s0.15,1.55,0.45,1.94s0.78,0.58,1.45,0.58c0.6,0,1.04-0.22,1.34-0.65s0.44-1.06,0.44-1.88c0-0.84-0.15-1.46-0.44-1.87
			S170.44,250.85,169.83,250.85z"/>
		<path class="st0" d="M182.52,256.56v-4.18c0-0.51-0.11-0.9-0.33-1.15s-0.56-0.38-1.02-0.38c-0.61,0-1.05,0.17-1.34,0.52
			s-0.43,0.88-0.43,1.61v3.59h-0.97v-4.18c0-0.51-0.11-0.9-0.33-1.15s-0.56-0.38-1.03-0.38c-0.61,0-1.06,0.18-1.34,0.55
			s-0.42,0.96-0.42,1.8v3.37h-0.97v-6.42h0.79l0.16,0.88h0.05c0.18-0.31,0.44-0.56,0.78-0.73s0.71-0.26,1.12-0.26
			c1,0,1.66,0.36,1.97,1.09h0.05c0.19-0.34,0.47-0.6,0.83-0.8s0.78-0.29,1.24-0.29c0.73,0,1.27,0.19,1.63,0.56s0.54,0.97,0.54,1.79
			v4.19H182.52z"/>
		<path class="st0" d="M185.42,248.4c0-0.22,0.05-0.39,0.16-0.49s0.25-0.16,0.41-0.16c0.16,0,0.29,0.05,0.4,0.16
			s0.17,0.27,0.17,0.49s-0.06,0.38-0.17,0.49s-0.25,0.16-0.4,0.16c-0.16,0-0.3-0.05-0.41-0.16S185.42,248.62,185.42,248.4z
			 M186.47,256.56h-0.97v-6.42h0.97V256.56z"/>
		<path class="st0" d="M190.61,255.87c0.17,0,0.34-0.01,0.5-0.04s0.29-0.05,0.38-0.08v0.74c-0.11,0.05-0.26,0.09-0.47,0.13
			s-0.39,0.05-0.55,0.05c-1.24,0-1.86-0.65-1.86-1.96v-3.82h-0.92v-0.47l0.92-0.4l0.41-1.37h0.56v1.49h1.86v0.76h-1.86v3.78
			c0,0.39,0.09,0.68,0.28,0.89S190.29,255.87,190.61,255.87z"/>
		<path class="st0" d="M197.96,255.87c0.17,0,0.34-0.01,0.5-0.04s0.29-0.05,0.38-0.08v0.74c-0.11,0.05-0.26,0.09-0.47,0.13
			s-0.39,0.05-0.55,0.05c-1.24,0-1.86-0.65-1.86-1.96v-3.82h-0.92v-0.47l0.92-0.4l0.41-1.37h0.56v1.49h1.86v0.76h-1.86v3.78
			c0,0.39,0.09,0.68,0.28,0.89S197.64,255.87,197.96,255.87z"/>
		<path class="st0" d="M202.84,256.68c-0.95,0-1.7-0.29-2.25-0.87s-0.82-1.38-0.82-2.41c0-1.04,0.25-1.86,0.76-2.47
			s1.19-0.91,2.05-0.91c0.8,0,1.44,0.26,1.91,0.79s0.7,1.23,0.7,2.09v0.62h-4.42c0.02,0.75,0.21,1.33,0.57,1.72s0.87,0.59,1.53,0.59
			c0.69,0,1.38-0.14,2.05-0.43v0.87c-0.34,0.15-0.67,0.25-0.98,0.32S203.27,256.68,202.84,256.68z M202.57,250.84
			c-0.52,0-0.93,0.17-1.23,0.5s-0.49,0.8-0.54,1.39h3.36c0-0.61-0.14-1.08-0.41-1.41S203.08,250.84,202.57,250.84z"/>
		<path class="st0" d="M211,254.81c0,0.6-0.22,1.06-0.67,1.38s-1.07,0.49-1.88,0.49c-0.85,0-1.52-0.13-1.99-0.4v-0.9
			c0.31,0.16,0.64,0.28,0.99,0.37s0.69,0.13,1.02,0.13c0.51,0,0.9-0.08,1.17-0.24s0.41-0.41,0.41-0.74c0-0.25-0.11-0.46-0.33-0.64
			s-0.64-0.39-1.27-0.63c-0.6-0.22-1.02-0.42-1.27-0.58s-0.44-0.35-0.56-0.57s-0.18-0.46-0.18-0.76c0-0.52,0.21-0.94,0.64-1.24
			s1.01-0.45,1.75-0.45c0.69,0,1.37,0.14,2.03,0.42l-0.35,0.79c-0.64-0.27-1.23-0.4-1.75-0.4c-0.46,0-0.81,0.07-1.04,0.22
			s-0.35,0.34-0.35,0.6c0,0.17,0.04,0.32,0.13,0.44s0.23,0.24,0.42,0.35s0.57,0.27,1.12,0.47c0.76,0.28,1.28,0.56,1.54,0.84
			S211,254.38,211,254.81z"/>
		<path class="st0" d="M214.65,255.87c0.17,0,0.34-0.01,0.5-0.04s0.29-0.05,0.38-0.08v0.74c-0.11,0.05-0.26,0.09-0.47,0.13
			s-0.39,0.05-0.55,0.05c-1.24,0-1.86-0.65-1.86-1.96v-3.82h-0.92v-0.47l0.92-0.4l0.41-1.37h0.56v1.49h1.86v0.76h-1.86v3.78
			c0,0.39,0.09,0.68,0.28,0.89S214.33,255.87,214.65,255.87z"/>
		<path class="st0" d="M220.96,254.81c0,0.6-0.22,1.06-0.67,1.38s-1.07,0.49-1.88,0.49c-0.85,0-1.52-0.13-1.99-0.4v-0.9
			c0.31,0.16,0.64,0.28,0.99,0.37s0.69,0.13,1.02,0.13c0.51,0,0.9-0.08,1.17-0.24s0.41-0.41,0.41-0.74c0-0.25-0.11-0.46-0.33-0.64
			s-0.64-0.39-1.27-0.63c-0.6-0.22-1.02-0.42-1.27-0.58s-0.44-0.35-0.56-0.57s-0.18-0.46-0.18-0.76c0-0.52,0.21-0.94,0.64-1.24
			s1.01-0.45,1.75-0.45c0.69,0,1.37,0.14,2.03,0.42l-0.35,0.79c-0.64-0.27-1.23-0.4-1.75-0.4c-0.46,0-0.81,0.07-1.04,0.22
			s-0.35,0.34-0.35,0.6c0,0.17,0.04,0.32,0.13,0.44s0.23,0.24,0.42,0.35s0.57,0.27,1.12,0.47c0.76,0.28,1.28,0.56,1.54,0.84
			S220.96,254.38,220.96,254.81z"/>
	</g>
	<rect x="136" y="267.5" class="st0" width="120" height="1"/>
	<polygon class="st0" points="264,268 256,264 256,272 	"/>
	<g>
		<path class="st0" d="M160.61,300.27c0,1.1-0.22,2.01-0.66,2.74s-1.06,1.22-1.87,1.48l2.04,2.12h-1.45l-1.67-1.93l-0.32,0.01
			c-1.26,0-2.24-0.39-2.92-1.16s-1.03-1.86-1.03-3.27c0-1.39,0.34-2.48,1.03-3.24s1.66-1.15,2.93-1.15c1.23,0,2.19,0.39,2.88,1.17
			S160.61,298.89,160.61,300.27z M153.79,300.27c0,1.16,0.25,2.04,0.74,2.64s1.21,0.9,2.15,0.9c0.95,0,1.67-0.3,2.15-0.9
			s0.73-1.48,0.73-2.64c0-1.15-0.24-2.03-0.72-2.62s-1.2-0.89-2.14-0.89c-0.95,0-1.67,0.3-2.17,0.9S153.79,299.12,153.79,300.27z"/>
		<path class="st0" d="M163.29,298.14v4.17c0,0.52,0.12,0.91,0.36,1.17s0.61,0.39,1.12,0.39c0.67,0,1.16-0.18,1.47-0.55
			s0.47-0.97,0.47-1.8v-3.38h0.97v6.42h-0.8l-0.14-0.86h-0.05c-0.2,0.32-0.48,0.56-0.83,0.73s-0.76,0.25-1.21,0.25
			c-0.78,0-1.37-0.19-1.75-0.56s-0.58-0.96-0.58-1.78v-4.2H163.29z"/>
		<path class="st0" d="M172.46,304.68c-0.95,0-1.7-0.29-2.25-0.87s-0.82-1.38-0.82-2.41c0-1.04,0.25-1.86,0.76-2.47
			s1.19-0.91,2.05-0.91c0.8,0,1.44,0.26,1.91,0.79s0.7,1.23,0.7,2.09v0.62h-4.42c0.02,0.75,0.21,1.33,0.57,1.72s0.87,0.59,1.53,0.59
			c0.69,0,1.38-0.14,2.05-0.43v0.87c-0.34,0.15-0.67,0.25-0.98,0.32S172.89,304.68,172.46,304.68z M172.19,298.84
			c-0.52,0-0.93,0.17-1.23,0.5s-0.49,0.8-0.54,1.39h3.36c0-0.61-0.14-1.08-0.41-1.41S172.7,298.84,172.19,298.84z"/>
		<path class="st0" d="M179.4,298.02c0.29,0,0.54,0.02,0.77,0.07l-0.13,0.9c-0.27-0.06-0.5-0.09-0.7-0.09
			c-0.52,0-0.96,0.21-1.33,0.63s-0.55,0.95-0.55,1.58v3.45h-0.97v-6.42h0.8l0.11,1.19h0.05c0.24-0.42,0.53-0.74,0.86-0.97
			S179,298.02,179.4,298.02z"/>
		<path class="st0" d="M180.35,298.14h1.04l1.41,3.66c0.31,0.84,0.5,1.44,0.57,1.81h0.05c0.05-0.2,0.16-0.54,0.32-1.02
			s0.69-1.97,1.59-4.45h1.04l-2.76,7.31c-0.27,0.72-0.59,1.24-0.96,1.54s-0.81,0.45-1.34,0.45c-0.3,0-0.59-0.03-0.88-0.1v-0.78
			c0.21,0.05,0.46,0.07,0.72,0.07c0.67,0,1.14-0.38,1.43-1.12l0.36-0.91L180.35,298.14z"/>
		<path class="st0" d="M193.47,298.02c0.29,0,0.54,0.02,0.77,0.07l-0.13,0.9c-0.27-0.06-0.5-0.09-0.7-0.09
			c-0.52,0-0.96,0.21-1.33,0.63s-0.55,0.95-0.55,1.58v3.45h-0.97v-6.42h0.8l0.11,1.19h0.05c0.24-0.42,0.53-0.74,0.86-0.97
			S193.06,298.02,193.47,298.02z"/>
		<path class="st0" d="M198.15,304.68c-0.95,0-1.7-0.29-2.25-0.87s-0.82-1.38-0.82-2.41c0-1.04,0.25-1.86,0.76-2.47
			s1.19-0.91,2.05-0.91c0.8,0,1.44,0.26,1.91,0.79s0.7,1.23,0.7,2.09v0.62h-4.42c0.02,0.75,0.21,1.33,0.57,1.72s0.87,0.59,1.53,0.59
			c0.69,0,1.38-0.14,2.05-0.43v0.87c-0.34,0.15-0.67,0.25-0.98,0.32S198.58,304.68,198.15,304.68z M197.88,298.84
			c-0.52,0-0.93,0.17-1.23,0.5s-0.49,0.8-0.54,1.39h3.36c0-0.61-0.14-1.08-0.41-1.41S198.39,298.84,197.88,298.84z"/>
		<path class="st0" d="M206.31,302.81c0,0.6-0.22,1.06-0.67,1.38s-1.07,0.49-1.88,0.49c-0.85,0-1.52-0.13-1.99-0.4v-0.9
			c0.31,0.16,0.64,0.28,0.99,0.37s0.69,0.13,1.02,0.13c0.51,0,0.9-0.08,1.17-0.24s0.41-0.41,0.41-0.74c0-0.25-0.11-0.46-0.33-0.64
			s-0.64-0.39-1.27-0.63c-0.6-0.22-1.02-0.42-1.27-0.58s-0.44-0.35-0.56-0.57s-0.18-0.46-0.18-0.76c0-0.52,0.21-0.94,0.64-1.24
			s1.01-0.45,1.75-0.45c0.69,0,1.37,0.14,2.03,0.42l-0.35,0.79c-0.64-0.27-1.23-0.4-1.75-0.4c-0.46,0-0.81,0.07-1.04,0.22
			s-0.35,0.34-0.35,0.6c0,0.17,0.04,0.32,0.13,0.44s0.23,0.24,0.42,0.35s0.57,0.27,1.12,0.47c0.76,0.28,1.28,0.56,1.54,0.84
			S206.31,302.38,206.31,302.81z"/>
		<path class="st0" d="M208.81,298.14v4.17c0,0.52,0.12,0.91,0.36,1.17s0.61,0.39,1.12,0.39c0.67,0,1.16-0.18,1.47-0.55
			s0.47-0.97,0.47-1.8v-3.38h0.97v6.42h-0.8l-0.14-0.86h-0.05c-0.2,0.32-0.48,0.56-0.83,0.73s-0.76,0.25-1.21,0.25
			c-0.78,0-1.37-0.19-1.75-0.56s-0.58-0.96-0.58-1.78v-4.2H208.81z"/>
		<path class="st0" d="M216.23,304.56h-0.97v-9.12h0.97V304.56z"/>
		<path class="st0" d="M220.37,303.87c0.17,0,0.34-0.01,0.5-0.04s0.29-0.05,0.38-0.08v0.74c-0.11,0.05-0.26,0.09-0.47,0.13
			s-0.39,0.05-0.55,0.05c-1.24,0-1.86-0.65-1.86-1.96v-3.82h-0.92v-0.47l0.92-0.4l0.41-1.37h0.56v1.49h1.86v0.76h-1.86v3.78
			c0,0.39,0.09,0.68,0.28,0.89S220.05,303.87,220.37,303.87z"/>
		<path class="st0" d="M226.67,302.81c0,0.6-0.22,1.06-0.67,1.38s-1.07,0.49-1.88,0.49c-0.85,0-1.52-0.13-1.99-0.4v-0.9
			c0.31,0.16,0.64,0.28,0.99,0.37s0.69,0.13,1.02,0.13c0.51,0,0.9-0.08,1.17-0.24s0.41-0.41,0.41-0.74c0-0.25-0.11-0.46-0.33-0.64
			s-0.64-0.39-1.27-0.63c-0.6-0.22-1.02-0.42-1.27-0.58s-0.44-0.35-0.56-0.57s-0.18-0.46-0.18-0.76c0-0.52,0.21-0.94,0.64-1.24
			s1.01-0.45,1.75-0.45c0.69,0,1.37,0.14,2.03,0.42l-0.35,0.79c-0.64-0.27-1.23-0.4-1.75-0.4c-0.46,0-0.81,0.07-1.04,0.22
			s-0.35,0.34-0.35,0.6c0,0.17,0.04,0.32,0.13,0.44s0.23,0.24,0.42,0.35s0.57,0.27,1.12,0.47c0.76,0.28,1.28,0.56,1.54,0.84
			S226.67,302.38,226.67,302.81z"/>
	</g>
	<rect x="144" y="315.5" class="st0" width="120" height="1"/>
	<polygon class="st0" points="136,316 144,320 144,312 	"/>
	<g>
		<path class="st3" d="M272,8c0-4.4,3.6-8,8-8h442c4.4,0,8,3.6,8,8v400c0,4.4-3.6,8-8,8H280c-4.4,0-8-3.6-8-8V8z"/>
	</g>
	<path class="st38" d="M124,176H4c-2.21,0-4-1.79-4-4v-60h128v60C128,174.21,126.21,176,124,176z"/>
	<path class="st1" d="M128,112H0V92c0-2.21,1.79-4,4-4h120c2.21,0,4,1.79,4,4V112z"/>
	<g>
		<path class="st36" d="M9.13,104.56v-8.57h1.4v8.57H9.13z"/>
		<path class="st36" d="M19.76,100.19c0,1.41-0.39,2.5-1.18,3.24s-1.92,1.12-3.39,1.12h-2.4v-8.57h2.65c1.36,0,2.42,0.37,3.18,1.1
			S19.76,98.86,19.76,100.19z M18.28,100.24c0-2.05-0.96-3.08-2.88-3.08h-1.21v6.22h1C17.25,103.38,18.28,102.34,18.28,100.24z"/>
		<path class="st36" d="M26.45,104.56H21.6v-8.57h4.85v1.18H23v2.33h3.23v1.17H23v2.69h3.45V104.56z"/>
	</g>
	<path class="st41" d="M124,328H4c-2.21,0-4-1.79-4-4v-60h128v60C128,326.21,126.21,328,124,328z"/>
	<path class="st1" d="M128,264H0v-20c0-2.21,1.79-4,4-4h120c2.21,0,4,1.79,4,4V264z"/>
	<g>
		<path class="st36" d="M14.8,250.58c0,0.89-0.29,1.58-0.88,2.06s-1.42,0.71-2.5,0.71h-0.89v3.21h-1.4v-8.57h2.47
			c1.07,0,1.87,0.22,2.41,0.66S14.8,249.73,14.8,250.58z M10.53,252.18h0.74c0.72,0,1.25-0.12,1.58-0.38s0.5-0.64,0.5-1.17
			c0-0.49-0.15-0.86-0.45-1.1s-0.77-0.36-1.41-0.36h-0.97V252.18z"/>
		<path class="st36" d="M16.29,248.36c0-0.25,0.07-0.44,0.2-0.57s0.33-0.2,0.58-0.2c0.24,0,0.43,0.07,0.57,0.2s0.2,0.32,0.2,0.57
			c0,0.23-0.07,0.42-0.2,0.55s-0.32,0.2-0.57,0.2c-0.25,0-0.44-0.07-0.58-0.2S16.29,248.6,16.29,248.36z M17.74,256.56h-1.38v-6.48
			h1.38V256.56z"/>
		<path class="st36" d="M23,256.68c-0.82,0-1.46-0.29-1.91-0.88h-0.08c0.05,0.55,0.08,0.88,0.08,1v2.65h-1.38v-9.36h1.11
			c0.03,0.12,0.1,0.41,0.19,0.87h0.07c0.43-0.66,1.07-0.98,1.93-0.98c0.81,0,1.44,0.29,1.89,0.88s0.68,1.41,0.68,2.47
			s-0.23,1.88-0.69,2.48S23.81,256.68,23,256.68z M22.67,251.09c-0.55,0-0.95,0.16-1.2,0.48s-0.38,0.83-0.38,1.54v0.21
			c0,0.79,0.12,1.36,0.38,1.71s0.66,0.53,1.22,0.53c0.48,0,0.84-0.2,1.1-0.59s0.39-0.95,0.39-1.67c0-0.73-0.13-1.28-0.38-1.65
			S23.16,251.09,22.67,251.09z"/>
		<path class="st36" d="M30.02,256.68c-1.01,0-1.8-0.29-2.36-0.88s-0.85-1.4-0.85-2.43c0-1.06,0.26-1.89,0.79-2.5
			s1.25-0.91,2.17-0.91c0.86,0,1.53,0.26,2.03,0.78s0.74,1.23,0.74,2.14v0.74h-4.32c0.02,0.63,0.19,1.11,0.51,1.45
			s0.77,0.51,1.35,0.51c0.38,0,0.74-0.04,1.07-0.11s0.68-0.19,1.06-0.36v1.12c-0.34,0.16-0.68,0.27-1.02,0.34
			S30.46,256.68,30.02,256.68z M29.77,251.01c-0.44,0-0.79,0.14-1.05,0.42s-0.42,0.68-0.47,1.21h2.94
			c-0.01-0.54-0.14-0.94-0.39-1.22S30.21,251.01,29.77,251.01z"/>
		<path class="st36" d="M35.48,256.56H34.1v-9.12h1.38V256.56z"/>
		<path class="st36" d="M37.37,248.36c0-0.25,0.07-0.44,0.2-0.57s0.33-0.2,0.58-0.2c0.24,0,0.43,0.07,0.57,0.2s0.2,0.32,0.2,0.57
			c0,0.23-0.07,0.42-0.2,0.55s-0.32,0.2-0.57,0.2c-0.25,0-0.44-0.07-0.58-0.2S37.37,248.6,37.37,248.36z M38.83,256.56h-1.38v-6.48
			h1.38V256.56z"/>
		<path class="st36" d="M46.5,256.56h-1.38v-3.98c0-0.5-0.1-0.87-0.3-1.12s-0.52-0.37-0.96-0.37c-0.58,0-1.01,0.17-1.28,0.52
			s-0.4,0.92-0.4,1.73v3.23h-1.38v-6.48h1.08l0.19,0.85h0.07c0.2-0.31,0.47-0.55,0.83-0.71s0.76-0.25,1.2-0.25
			c1.55,0,2.33,0.79,2.33,2.37V256.56z"/>
		<path class="st36" d="M51.24,256.68c-1.01,0-1.8-0.29-2.36-0.88s-0.85-1.4-0.85-2.43c0-1.06,0.26-1.89,0.79-2.5
			s1.25-0.91,2.17-0.91c0.86,0,1.53,0.26,2.03,0.78s0.74,1.23,0.74,2.14v0.74h-4.32c0.02,0.63,0.19,1.11,0.51,1.45
			s0.77,0.51,1.35,0.51c0.38,0,0.74-0.04,1.07-0.11s0.68-0.19,1.06-0.36v1.12c-0.34,0.16-0.68,0.27-1.02,0.34
			S51.68,256.68,51.24,256.68z M50.99,251.01c-0.44,0-0.79,0.14-1.05,0.42s-0.42,0.68-0.47,1.21h2.94
			c-0.01-0.54-0.14-0.94-0.39-1.22S51.43,251.01,50.99,251.01z"/>
	</g>
	<rect x="288" y="48" class="st35" width="426" height="352"/>
	<g>
		<path class="st0" d="M307.28,65.04V75.6h-1.71V65.04H307.28z M314.22,65.04l-4.7,5.09l-0.19,0.02l-2.74,2.94l-0.16-1.87l5.7-6.18
			H314.22z M309.87,68.82l4.45,6.78h-2.02l-3.79-5.82L309.87,68.82z"/>
		<path class="st0" d="M318.51,75.76c-0.52,0-1-0.1-1.45-0.29c-0.44-0.19-0.8-0.5-1.06-0.93c-0.27-0.43-0.4-0.98-0.4-1.66V67.6h1.71
			v4.85c0,0.73,0.16,1.22,0.46,1.5c0.31,0.27,0.74,0.41,1.3,0.41c0.27,0,0.53-0.05,0.78-0.14c0.25-0.09,0.48-0.23,0.68-0.43
			c0.2-0.2,0.36-0.45,0.47-0.76c0.11-0.31,0.17-0.67,0.17-1.09V67.6h1.71v8h-1.5l-0.08-1.3c-0.28,0.5-0.65,0.87-1.12,1.1
			S319.15,75.76,318.51,75.76z"/>
		<path class="st0" d="M329.84,75.76c-0.47,0-0.9-0.09-1.29-0.27c-0.39-0.18-0.72-0.43-0.98-0.76c-0.27-0.33-0.46-0.69-0.59-1.1
			l0.21-0.27l-0.13,2.24h-1.5V64h1.71v5.62l-0.19-0.27c0.2-0.55,0.55-1.01,1.04-1.37c0.49-0.36,1.08-0.54,1.78-0.54
			c0.64,0,1.23,0.17,1.77,0.5c0.54,0.33,0.96,0.81,1.27,1.42c0.31,0.62,0.46,1.37,0.46,2.26c0,0.86-0.16,1.61-0.47,2.22
			c-0.32,0.62-0.74,1.09-1.28,1.42C331.1,75.59,330.5,75.76,329.84,75.76z M329.47,74.38c0.69,0,1.23-0.25,1.62-0.74
			s0.58-1.18,0.58-2.04s-0.19-1.54-0.58-2.03c-0.38-0.49-0.92-0.74-1.62-0.74c-0.45,0-0.84,0.11-1.17,0.34
			c-0.33,0.23-0.59,0.55-0.78,0.97c-0.19,0.42-0.28,0.91-0.28,1.49c0,0.57,0.09,1.05,0.27,1.46c0.18,0.41,0.44,0.73,0.78,0.95
			C328.65,74.27,329.03,74.38,329.47,74.38z"/>
		<path class="st0" d="M339.1,75.76c-0.8,0-1.5-0.17-2.11-0.5c-0.61-0.33-1.08-0.81-1.42-1.43s-0.5-1.37-0.5-2.23
			s0.17-1.61,0.5-2.23s0.8-1.1,1.4-1.43c0.6-0.33,1.27-0.5,2.03-0.5c0.78,0,1.44,0.16,1.98,0.48c0.54,0.32,0.96,0.76,1.25,1.31
			c0.29,0.55,0.43,1.18,0.43,1.89c0,0.19-0.01,0.37-0.02,0.54c-0.01,0.17-0.03,0.32-0.05,0.45h-6.43V70.8h5.68l-0.85,0.26
			c0-0.73-0.18-1.28-0.54-1.67c-0.36-0.39-0.86-0.58-1.49-0.58c-0.46,0-0.86,0.11-1.2,0.32c-0.34,0.21-0.6,0.53-0.78,0.95
			c-0.18,0.42-0.27,0.94-0.27,1.54c0,0.6,0.1,1.1,0.29,1.52s0.46,0.73,0.82,0.94c0.35,0.21,0.77,0.32,1.25,0.32
			c0.53,0,0.96-0.1,1.3-0.3c0.33-0.2,0.59-0.49,0.78-0.85l1.36,0.64c-0.19,0.38-0.45,0.72-0.78,1c-0.33,0.28-0.71,0.5-1.16,0.65
			C340.13,75.69,339.64,75.76,339.1,75.76z"/>
		<path class="st0" d="M344.83,75.6v-8h1.46l0.16,1.44c0.21-0.52,0.53-0.92,0.95-1.19c0.42-0.27,0.94-0.41,1.56-0.41
			c0.16,0,0.32,0.01,0.48,0.04c0.16,0.03,0.29,0.07,0.4,0.12l-0.24,1.5c-0.12-0.04-0.25-0.08-0.39-0.1
			c-0.14-0.03-0.34-0.04-0.58-0.04c-0.33,0-0.66,0.09-0.98,0.26c-0.32,0.18-0.58,0.44-0.79,0.79s-0.31,0.8-0.31,1.34v4.24H344.83z"
			/>
		<path class="st0" d="M351.46,75.6v-8h1.52l0.11,2.08l-0.22-0.22c0.15-0.46,0.37-0.84,0.65-1.14c0.28-0.3,0.62-0.53,1.01-0.66
			c0.39-0.14,0.8-0.21,1.24-0.21c0.57,0,1.07,0.11,1.53,0.33c0.45,0.22,0.81,0.55,1.08,0.98c0.27,0.44,0.4,0.99,0.4,1.66v5.18h-1.71
			v-4.66c0-0.79-0.16-1.34-0.49-1.64c-0.33-0.3-0.73-0.46-1.22-0.46c-0.35,0-0.69,0.08-1.02,0.25c-0.33,0.17-0.61,0.43-0.82,0.79
			s-0.33,0.85-0.33,1.46v4.26H351.46z"/>
		<path class="st0" d="M364.88,75.76c-0.8,0-1.5-0.17-2.11-0.5c-0.61-0.33-1.08-0.81-1.42-1.43s-0.5-1.37-0.5-2.23
			s0.17-1.61,0.5-2.23s0.8-1.1,1.4-1.43c0.6-0.33,1.27-0.5,2.03-0.5c0.78,0,1.44,0.16,1.98,0.48c0.54,0.32,0.96,0.76,1.25,1.31
			c0.29,0.55,0.43,1.18,0.43,1.89c0,0.19-0.01,0.37-0.02,0.54c-0.01,0.17-0.03,0.32-0.05,0.45h-6.43V70.8h5.68l-0.85,0.26
			c0-0.73-0.18-1.28-0.54-1.67c-0.36-0.39-0.86-0.58-1.49-0.58c-0.46,0-0.86,0.11-1.2,0.32c-0.34,0.21-0.6,0.53-0.78,0.95
			c-0.18,0.42-0.27,0.94-0.27,1.54c0,0.6,0.1,1.1,0.29,1.52s0.46,0.73,0.82,0.94c0.35,0.21,0.77,0.32,1.25,0.32
			c0.53,0,0.96-0.1,1.3-0.3c0.33-0.2,0.59-0.49,0.78-0.85l1.36,0.64c-0.19,0.38-0.45,0.72-0.78,1c-0.33,0.28-0.71,0.5-1.16,0.65
			C365.9,75.69,365.41,75.76,364.88,75.76z"/>
		<path class="st0" d="M375.5,67.6v1.34h-6V67.6H375.5z M372.75,65.25v7.95c0,0.39,0.1,0.68,0.31,0.86
			c0.21,0.18,0.49,0.27,0.84,0.27c0.29,0,0.54-0.04,0.75-0.14c0.21-0.09,0.41-0.22,0.59-0.38l0.38,1.25
			c-0.25,0.21-0.55,0.38-0.9,0.5s-0.75,0.18-1.19,0.18c-0.46,0-0.88-0.07-1.26-0.22c-0.38-0.15-0.68-0.39-0.9-0.73
			c-0.21-0.34-0.33-0.78-0.34-1.32v-7.76L372.75,65.25z"/>
		<path class="st0" d="M380.72,75.76c-0.8,0-1.5-0.17-2.11-0.5c-0.61-0.33-1.08-0.81-1.42-1.43s-0.5-1.37-0.5-2.23
			s0.17-1.61,0.5-2.23s0.8-1.1,1.4-1.43c0.6-0.33,1.27-0.5,2.03-0.5c0.78,0,1.44,0.16,1.98,0.48c0.54,0.32,0.96,0.76,1.25,1.31
			c0.29,0.55,0.43,1.18,0.43,1.89c0,0.19-0.01,0.37-0.02,0.54c-0.01,0.17-0.03,0.32-0.05,0.45h-6.43V70.8h5.68l-0.85,0.26
			c0-0.73-0.18-1.28-0.54-1.67c-0.36-0.39-0.86-0.58-1.49-0.58c-0.46,0-0.86,0.11-1.2,0.32c-0.34,0.21-0.6,0.53-0.78,0.95
			c-0.18,0.42-0.27,0.94-0.27,1.54c0,0.6,0.1,1.1,0.29,1.52s0.46,0.73,0.82,0.94c0.35,0.21,0.77,0.32,1.25,0.32
			c0.53,0,0.96-0.1,1.3-0.3c0.33-0.2,0.59-0.49,0.78-0.85l1.36,0.64c-0.19,0.38-0.45,0.72-0.78,1c-0.33,0.28-0.71,0.5-1.16,0.65
			C381.74,75.69,381.25,75.76,380.72,75.76z"/>
		<path class="st0" d="M389.49,75.76c-0.8,0-1.53-0.15-2.19-0.46c-0.66-0.31-1.18-0.75-1.57-1.31l1.18-1.02
			c0.23,0.44,0.57,0.79,1.02,1.05c0.44,0.26,0.97,0.39,1.59,0.39c0.49,0,0.88-0.08,1.17-0.26c0.29-0.17,0.43-0.41,0.43-0.72
			c0-0.2-0.07-0.38-0.2-0.54s-0.39-0.27-0.76-0.36l-1.68-0.35c-0.85-0.17-1.46-0.45-1.82-0.82c-0.36-0.38-0.54-0.86-0.54-1.45
			c0-0.44,0.13-0.84,0.38-1.22c0.26-0.37,0.63-0.67,1.13-0.9s1.09-0.34,1.78-0.34c0.8,0,1.48,0.14,2.05,0.42s1,0.69,1.3,1.21
			l-1.18,0.99c-0.2-0.43-0.5-0.74-0.9-0.95s-0.81-0.31-1.23-0.31c-0.34,0-0.63,0.04-0.88,0.13c-0.25,0.09-0.43,0.2-0.56,0.35
			s-0.19,0.33-0.19,0.53c0,0.21,0.08,0.4,0.24,0.56s0.45,0.28,0.86,0.37l1.82,0.38c0.77,0.15,1.31,0.4,1.62,0.76
			c0.31,0.36,0.47,0.79,0.47,1.3s-0.13,0.96-0.4,1.35c-0.27,0.39-0.65,0.69-1.15,0.9C390.78,75.65,390.18,75.76,389.49,75.76z"/>
		<path class="st0" d="M400.27,64l-4.77,12.72h-1.6L398.67,64H400.27z"/>
		<path class="st0" d="M410.85,65.04l-3.92,10.56h-2l-3.92-10.56h1.82l2.46,7.02l0.64,2.1l0.64-2.08l2.46-7.04H410.85z"/>
		<path class="st0" d="M423.57,65.04V75.6h-1.58v-6.11l0.13-2.91h-0.02l-3.22,9.02h-1.42l-3.22-9.02h-0.02l0.13,2.91v6.11h-1.58
			V65.04h2.54l2.13,6.11l0.74,2.51h0.03l0.75-2.51l2.11-6.11H423.57z"/>
		<path class="st0" d="M431.66,75.6V64h1.71v4.88c0.27-0.5,0.63-0.87,1.08-1.1c0.45-0.23,0.96-0.34,1.51-0.34
			c0.57,0,1.07,0.11,1.53,0.33c0.45,0.22,0.81,0.55,1.08,0.98c0.27,0.44,0.4,0.99,0.4,1.66v5.18h-1.71v-4.64
			c0-0.79-0.16-1.34-0.49-1.65c-0.33-0.31-0.73-0.46-1.22-0.46c-0.34,0-0.68,0.08-1.02,0.25s-0.61,0.43-0.83,0.8
			c-0.22,0.37-0.33,0.86-0.33,1.48v4.22H431.66z"/>
		<path class="st0" d="M445.04,67.44c0.78,0,1.47,0.17,2.06,0.5c0.6,0.33,1.06,0.81,1.4,1.43s0.5,1.37,0.5,2.23s-0.17,1.61-0.5,2.23
			s-0.8,1.1-1.4,1.43c-0.6,0.33-1.29,0.5-2.06,0.5s-1.47-0.17-2.06-0.5c-0.6-0.33-1.07-0.81-1.41-1.43
			c-0.34-0.62-0.51-1.37-0.51-2.23s0.17-1.61,0.51-2.23c0.34-0.62,0.81-1.1,1.41-1.43C443.57,67.6,444.26,67.44,445.04,67.44z
			 M445.04,68.78c-0.48,0-0.89,0.11-1.22,0.33s-0.59,0.54-0.78,0.95s-0.27,0.93-0.27,1.54c0,0.6,0.09,1.11,0.27,1.53
			c0.18,0.42,0.44,0.74,0.78,0.96c0.34,0.22,0.74,0.33,1.22,0.33c0.48,0,0.89-0.11,1.22-0.33c0.33-0.22,0.59-0.54,0.77-0.96
			c0.18-0.42,0.27-0.93,0.27-1.53c0-0.61-0.09-1.12-0.27-1.54c-0.18-0.42-0.44-0.73-0.77-0.95
			C445.92,68.89,445.52,68.78,445.04,68.78z"/>
		<path class="st0" d="M454.21,75.76c-0.8,0-1.53-0.15-2.19-0.46c-0.66-0.31-1.18-0.75-1.57-1.31l1.18-1.02
			c0.23,0.44,0.57,0.79,1.02,1.05c0.44,0.26,0.97,0.39,1.59,0.39c0.49,0,0.88-0.08,1.17-0.26c0.29-0.17,0.43-0.41,0.43-0.72
			c0-0.2-0.07-0.38-0.2-0.54s-0.39-0.27-0.76-0.36l-1.68-0.35c-0.85-0.17-1.46-0.45-1.82-0.82c-0.36-0.38-0.54-0.86-0.54-1.45
			c0-0.44,0.13-0.84,0.38-1.22c0.26-0.37,0.63-0.67,1.13-0.9s1.09-0.34,1.78-0.34c0.8,0,1.48,0.14,2.05,0.42s1,0.69,1.3,1.21
			l-1.18,0.99c-0.2-0.43-0.5-0.74-0.9-0.95s-0.81-0.31-1.23-0.31c-0.34,0-0.63,0.04-0.88,0.13c-0.25,0.09-0.43,0.2-0.56,0.35
			s-0.19,0.33-0.19,0.53c0,0.21,0.08,0.4,0.24,0.56s0.45,0.28,0.86,0.37l1.82,0.38c0.77,0.15,1.31,0.4,1.62,0.76
			c0.31,0.36,0.47,0.79,0.47,1.3s-0.13,0.96-0.4,1.35c-0.27,0.39-0.65,0.69-1.15,0.9C455.5,75.65,454.9,75.76,454.21,75.76z"/>
		<path class="st0" d="M464.72,67.6v1.34h-6V67.6H464.72z M461.97,65.25v7.95c0,0.39,0.1,0.68,0.31,0.86
			c0.21,0.18,0.49,0.27,0.84,0.27c0.29,0,0.54-0.04,0.75-0.14c0.21-0.09,0.41-0.22,0.59-0.38l0.38,1.25
			c-0.25,0.21-0.55,0.38-0.9,0.5s-0.75,0.18-1.19,0.18c-0.46,0-0.88-0.07-1.26-0.22c-0.38-0.15-0.68-0.39-0.9-0.73
			c-0.21-0.34-0.33-0.78-0.34-1.32v-7.76L461.97,65.25z"/>
		<path class="st0" d="M475.13,75.76c-0.8,0-1.5-0.17-2.11-0.5c-0.61-0.33-1.08-0.81-1.42-1.43s-0.5-1.37-0.5-2.23
			s0.17-1.61,0.5-2.23s0.8-1.1,1.4-1.43c0.6-0.33,1.27-0.5,2.03-0.5c0.78,0,1.44,0.16,1.98,0.48c0.54,0.32,0.96,0.76,1.25,1.31
			c0.29,0.55,0.43,1.18,0.43,1.89c0,0.19-0.01,0.37-0.02,0.54c-0.01,0.17-0.03,0.32-0.05,0.45h-6.43V70.8h5.68l-0.85,0.26
			c0-0.73-0.18-1.28-0.54-1.67c-0.36-0.39-0.86-0.58-1.49-0.58c-0.46,0-0.86,0.11-1.2,0.32c-0.34,0.21-0.6,0.53-0.78,0.95
			c-0.18,0.42-0.27,0.94-0.27,1.54c0,0.6,0.1,1.1,0.29,1.52s0.46,0.73,0.82,0.94c0.35,0.21,0.77,0.32,1.25,0.32
			c0.53,0,0.96-0.1,1.3-0.3c0.33-0.2,0.59-0.49,0.78-0.85l1.36,0.64c-0.19,0.38-0.45,0.72-0.78,1c-0.33,0.28-0.71,0.5-1.16,0.65
			C476.16,75.69,475.67,75.76,475.13,75.76z"/>
		<path class="st0" d="M480.86,75.6v-8h1.52l0.11,2.08l-0.22-0.22c0.15-0.46,0.37-0.84,0.65-1.14c0.28-0.3,0.62-0.53,1.01-0.66
			c0.39-0.14,0.8-0.21,1.24-0.21c0.57,0,1.07,0.11,1.53,0.33c0.45,0.22,0.81,0.55,1.08,0.98c0.27,0.44,0.4,0.99,0.4,1.66v5.18h-1.71
			v-4.66c0-0.79-0.16-1.34-0.49-1.64c-0.33-0.3-0.73-0.46-1.22-0.46c-0.35,0-0.69,0.08-1.02,0.25c-0.33,0.17-0.61,0.43-0.82,0.79
			s-0.33,0.85-0.33,1.46v4.26H480.86z"/>
		<path class="st0" d="M495.82,67.6h1.79l-3.18,8h-1.87l-3.2-8h1.87l2.27,6.51L495.82,67.6z"/>
		<path class="st0" d="M499.93,66.26c-0.37,0-0.66-0.09-0.86-0.28c-0.2-0.19-0.3-0.45-0.3-0.79s0.1-0.6,0.3-0.78
			c0.2-0.18,0.48-0.27,0.86-0.27c0.36,0,0.64,0.09,0.84,0.27c0.2,0.18,0.3,0.44,0.3,0.78s-0.1,0.61-0.3,0.79
			C500.58,66.16,500.3,66.26,499.93,66.26z M500.78,67.6v8h-1.71v-8H500.78z"/>
		<path class="st0" d="M503.45,75.6v-8h1.46l0.16,1.44c0.21-0.52,0.53-0.92,0.95-1.19c0.42-0.27,0.94-0.41,1.56-0.41
			c0.16,0,0.32,0.01,0.48,0.04c0.16,0.03,0.29,0.07,0.4,0.12l-0.24,1.5c-0.12-0.04-0.25-0.08-0.39-0.1
			c-0.14-0.03-0.34-0.04-0.58-0.04c-0.33,0-0.66,0.09-0.98,0.26c-0.32,0.18-0.58,0.44-0.79,0.79s-0.31,0.8-0.31,1.34v4.24H503.45z"
			/>
		<path class="st0" d="M513.34,67.44c0.78,0,1.47,0.17,2.06,0.5c0.6,0.33,1.06,0.81,1.4,1.43s0.5,1.37,0.5,2.23s-0.17,1.61-0.5,2.23
			s-0.8,1.1-1.4,1.43c-0.6,0.33-1.29,0.5-2.06,0.5s-1.47-0.17-2.06-0.5c-0.6-0.33-1.07-0.81-1.41-1.43
			c-0.34-0.62-0.51-1.37-0.51-2.23s0.17-1.61,0.51-2.23c0.34-0.62,0.81-1.1,1.41-1.43C511.87,67.6,512.56,67.44,513.34,67.44z
			 M513.34,68.78c-0.48,0-0.89,0.11-1.22,0.33s-0.59,0.54-0.78,0.95s-0.27,0.93-0.27,1.54c0,0.6,0.09,1.11,0.27,1.53
			c0.18,0.42,0.44,0.74,0.78,0.96c0.34,0.22,0.74,0.33,1.22,0.33c0.48,0,0.89-0.11,1.22-0.33c0.33-0.22,0.59-0.54,0.77-0.96
			c0.18-0.42,0.27-0.93,0.27-1.53c0-0.61-0.09-1.12-0.27-1.54c-0.18-0.42-0.44-0.73-0.77-0.95
			C514.23,68.89,513.82,68.78,513.34,68.78z"/>
		<path class="st0" d="M519.47,75.6v-8h1.52l0.11,2.08l-0.22-0.22c0.15-0.46,0.37-0.84,0.65-1.14c0.28-0.3,0.62-0.53,1.01-0.66
			c0.39-0.14,0.8-0.21,1.24-0.21c0.57,0,1.07,0.11,1.53,0.33c0.45,0.22,0.81,0.55,1.08,0.98c0.27,0.44,0.4,0.99,0.4,1.66v5.18h-1.71
			v-4.66c0-0.79-0.16-1.34-0.49-1.64c-0.33-0.3-0.73-0.46-1.22-0.46c-0.35,0-0.69,0.08-1.02,0.25c-0.33,0.17-0.61,0.43-0.82,0.79
			s-0.33,0.85-0.33,1.46v4.26H519.47z"/>
		<path class="st0" d="M529.37,75.6v-8h1.52l0.08,1.34c0.28-0.51,0.65-0.89,1.11-1.14c0.46-0.25,0.96-0.37,1.48-0.37
			c0.58,0,1.11,0.13,1.59,0.39c0.49,0.26,0.85,0.65,1.1,1.18c0.17-0.35,0.41-0.65,0.7-0.88c0.3-0.23,0.63-0.41,0.99-0.52
			c0.36-0.11,0.72-0.17,1.07-0.17c0.51,0,0.99,0.11,1.44,0.32s0.81,0.54,1.09,0.98s0.42,1,0.42,1.68v5.18h-1.71v-4.91
			c0-0.65-0.15-1.12-0.46-1.41c-0.31-0.29-0.7-0.43-1.18-0.43c-0.37,0-0.72,0.09-1.03,0.27c-0.32,0.18-0.57,0.45-0.76,0.81
			c-0.19,0.36-0.29,0.8-0.29,1.32v4.35h-1.71v-4.91c0-0.65-0.15-1.12-0.46-1.41c-0.31-0.29-0.7-0.43-1.18-0.43
			c-0.32,0-0.64,0.09-0.96,0.26c-0.32,0.17-0.59,0.44-0.8,0.8c-0.21,0.36-0.32,0.84-0.32,1.44v4.26H529.37z"/>
		<path class="st0" d="M548.08,75.76c-0.8,0-1.5-0.17-2.11-0.5c-0.61-0.33-1.08-0.81-1.42-1.43s-0.5-1.37-0.5-2.23
			s0.17-1.61,0.5-2.23s0.8-1.1,1.4-1.43c0.6-0.33,1.27-0.5,2.03-0.5c0.78,0,1.44,0.16,1.98,0.48c0.54,0.32,0.96,0.76,1.25,1.31
			c0.29,0.55,0.43,1.18,0.43,1.89c0,0.19-0.01,0.37-0.02,0.54c-0.01,0.17-0.03,0.32-0.05,0.45h-6.43V70.8h5.68l-0.85,0.26
			c0-0.73-0.18-1.28-0.54-1.67c-0.36-0.39-0.86-0.58-1.49-0.58c-0.46,0-0.86,0.11-1.2,0.32c-0.34,0.21-0.6,0.53-0.78,0.95
			c-0.18,0.42-0.27,0.94-0.27,1.54c0,0.6,0.1,1.1,0.29,1.52s0.46,0.73,0.82,0.94c0.35,0.21,0.77,0.32,1.25,0.32
			c0.53,0,0.96-0.1,1.3-0.3c0.33-0.2,0.59-0.49,0.78-0.85l1.36,0.64c-0.19,0.38-0.45,0.72-0.78,1c-0.33,0.28-0.71,0.5-1.16,0.65
			C549.1,75.69,548.61,75.76,548.08,75.76z"/>
		<path class="st0" d="M553.8,75.6v-8h1.52l0.11,2.08l-0.22-0.22c0.15-0.46,0.37-0.84,0.65-1.14c0.28-0.3,0.62-0.53,1.01-0.66
			c0.39-0.14,0.8-0.21,1.24-0.21c0.57,0,1.07,0.11,1.53,0.33c0.45,0.22,0.81,0.55,1.08,0.98c0.27,0.44,0.4,0.99,0.4,1.66v5.18h-1.71
			v-4.66c0-0.79-0.16-1.34-0.49-1.64c-0.33-0.3-0.73-0.46-1.22-0.46c-0.35,0-0.69,0.08-1.02,0.25c-0.33,0.17-0.61,0.43-0.82,0.79
			s-0.33,0.85-0.33,1.46v4.26H553.8z"/>
		<path class="st0" d="M568.7,67.6v1.34h-6V67.6H568.7z M565.95,65.25v7.95c0,0.39,0.1,0.68,0.31,0.86
			c0.21,0.18,0.49,0.27,0.84,0.27c0.29,0,0.54-0.04,0.75-0.14c0.21-0.09,0.41-0.22,0.59-0.38l0.38,1.25
			c-0.25,0.21-0.55,0.38-0.9,0.5s-0.75,0.18-1.19,0.18c-0.46,0-0.88-0.07-1.26-0.22c-0.38-0.15-0.68-0.39-0.9-0.73
			c-0.21-0.34-0.33-0.78-0.34-1.32v-7.76L565.95,65.25z"/>
	</g>
	<g>
		<path class="st36" d="M291.28,17.04V27.6h-1.71V17.04H291.28z M298.22,17.04l-4.7,5.09l-0.19,0.02l-2.74,2.94l-0.16-1.87l5.7-6.18
			H298.22z M293.87,20.82l4.45,6.78h-2.02l-3.79-5.82L293.87,20.82z"/>
		<path class="st36" d="M302.51,27.76c-0.52,0-1-0.1-1.45-0.29c-0.44-0.19-0.8-0.5-1.06-0.93c-0.27-0.43-0.4-0.98-0.4-1.66V19.6
			h1.71v4.85c0,0.73,0.16,1.22,0.46,1.5c0.31,0.27,0.74,0.41,1.3,0.41c0.27,0,0.53-0.05,0.78-0.14c0.25-0.09,0.48-0.23,0.68-0.43
			c0.2-0.2,0.36-0.45,0.47-0.76c0.11-0.31,0.17-0.67,0.17-1.09V19.6h1.71v8h-1.5l-0.08-1.3c-0.28,0.5-0.65,0.87-1.12,1.1
			S303.15,27.76,302.51,27.76z"/>
		<path class="st36" d="M313.84,27.76c-0.47,0-0.9-0.09-1.29-0.27c-0.39-0.18-0.72-0.43-0.98-0.76c-0.27-0.33-0.46-0.69-0.59-1.1
			l0.21-0.27l-0.13,2.24h-1.5V16h1.71v5.62l-0.19-0.27c0.2-0.55,0.55-1.01,1.04-1.37c0.49-0.36,1.08-0.54,1.78-0.54
			c0.64,0,1.23,0.17,1.77,0.5c0.54,0.33,0.96,0.81,1.27,1.42c0.31,0.62,0.46,1.37,0.46,2.26c0,0.86-0.16,1.61-0.47,2.22
			c-0.32,0.62-0.74,1.09-1.28,1.42C315.1,27.59,314.5,27.76,313.84,27.76z M313.47,26.38c0.69,0,1.23-0.25,1.62-0.74
			s0.58-1.18,0.58-2.04s-0.19-1.54-0.58-2.03c-0.38-0.49-0.92-0.74-1.62-0.74c-0.45,0-0.84,0.11-1.17,0.34
			c-0.33,0.23-0.59,0.55-0.78,0.97c-0.19,0.42-0.28,0.91-0.28,1.49c0,0.57,0.09,1.05,0.27,1.46c0.18,0.41,0.44,0.73,0.78,0.95
			C312.65,26.27,313.03,26.38,313.47,26.38z"/>
		<path class="st36" d="M323.1,27.76c-0.8,0-1.5-0.17-2.11-0.5c-0.61-0.33-1.08-0.81-1.42-1.43s-0.5-1.37-0.5-2.23
			s0.17-1.61,0.5-2.23s0.8-1.1,1.4-1.43c0.6-0.33,1.27-0.5,2.03-0.5c0.78,0,1.44,0.16,1.98,0.48c0.54,0.32,0.96,0.76,1.25,1.31
			c0.29,0.55,0.43,1.18,0.43,1.89c0,0.19-0.01,0.37-0.02,0.54c-0.01,0.17-0.03,0.32-0.05,0.45h-6.43V22.8h5.68l-0.85,0.26
			c0-0.73-0.18-1.28-0.54-1.67c-0.36-0.39-0.86-0.58-1.49-0.58c-0.46,0-0.86,0.11-1.2,0.32c-0.34,0.21-0.6,0.53-0.78,0.95
			c-0.18,0.42-0.27,0.94-0.27,1.54c0,0.6,0.1,1.1,0.29,1.52s0.46,0.73,0.82,0.94c0.35,0.21,0.77,0.32,1.25,0.32
			c0.53,0,0.96-0.1,1.3-0.3c0.33-0.2,0.59-0.49,0.78-0.85l1.36,0.64c-0.19,0.38-0.45,0.72-0.78,1c-0.33,0.28-0.71,0.5-1.16,0.65
			C324.13,27.69,323.64,27.76,323.1,27.76z"/>
		<path class="st36" d="M328.83,27.6v-8h1.46l0.16,1.44c0.21-0.52,0.53-0.92,0.95-1.19c0.42-0.27,0.94-0.41,1.56-0.41
			c0.16,0,0.32,0.01,0.48,0.04c0.16,0.03,0.29,0.07,0.4,0.12l-0.24,1.5c-0.12-0.04-0.25-0.08-0.39-0.1
			c-0.14-0.03-0.34-0.04-0.58-0.04c-0.33,0-0.66,0.09-0.98,0.26c-0.32,0.18-0.58,0.44-0.79,0.79s-0.31,0.8-0.31,1.34v4.24H328.83z"
			/>
		<path class="st36" d="M335.46,27.6v-8h1.52l0.11,2.08l-0.22-0.22c0.15-0.46,0.37-0.84,0.65-1.14c0.28-0.3,0.62-0.53,1.01-0.66
			c0.39-0.14,0.8-0.21,1.24-0.21c0.57,0,1.07,0.11,1.53,0.33c0.45,0.22,0.81,0.55,1.08,0.98c0.27,0.44,0.4,0.99,0.4,1.66v5.18h-1.71
			v-4.66c0-0.79-0.16-1.34-0.49-1.64c-0.33-0.3-0.73-0.46-1.22-0.46c-0.35,0-0.69,0.08-1.02,0.25c-0.33,0.17-0.61,0.43-0.82,0.79
			s-0.33,0.85-0.33,1.46v4.26H335.46z"/>
		<path class="st36" d="M348.88,27.76c-0.8,0-1.5-0.17-2.11-0.5c-0.61-0.33-1.08-0.81-1.42-1.43s-0.5-1.37-0.5-2.23
			s0.17-1.61,0.5-2.23s0.8-1.1,1.4-1.43c0.6-0.33,1.27-0.5,2.03-0.5c0.78,0,1.44,0.16,1.98,0.48c0.54,0.32,0.96,0.76,1.25,1.31
			c0.29,0.55,0.43,1.18,0.43,1.89c0,0.19-0.01,0.37-0.02,0.54c-0.01,0.17-0.03,0.32-0.05,0.45h-6.43V22.8h5.68l-0.85,0.26
			c0-0.73-0.18-1.28-0.54-1.67c-0.36-0.39-0.86-0.58-1.49-0.58c-0.46,0-0.86,0.11-1.2,0.32c-0.34,0.21-0.6,0.53-0.78,0.95
			c-0.18,0.42-0.27,0.94-0.27,1.54c0,0.6,0.1,1.1,0.29,1.52s0.46,0.73,0.82,0.94c0.35,0.21,0.77,0.32,1.25,0.32
			c0.53,0,0.96-0.1,1.3-0.3c0.33-0.2,0.59-0.49,0.78-0.85l1.36,0.64c-0.19,0.38-0.45,0.72-0.78,1c-0.33,0.28-0.71,0.5-1.16,0.65
			C349.9,27.69,349.41,27.76,348.88,27.76z"/>
		<path class="st36" d="M359.5,19.6v1.34h-6V19.6H359.5z M356.75,17.25v7.95c0,0.39,0.1,0.68,0.31,0.86
			c0.21,0.18,0.49,0.27,0.84,0.27c0.29,0,0.54-0.04,0.75-0.14c0.21-0.09,0.41-0.22,0.59-0.38l0.38,1.25
			c-0.25,0.21-0.55,0.38-0.9,0.5s-0.75,0.18-1.19,0.18c-0.46,0-0.88-0.07-1.26-0.22c-0.38-0.15-0.68-0.39-0.9-0.73
			c-0.21-0.34-0.33-0.78-0.34-1.32v-7.76L356.75,17.25z"/>
		<path class="st36" d="M364.72,27.76c-0.8,0-1.5-0.17-2.11-0.5c-0.61-0.33-1.08-0.81-1.42-1.43s-0.5-1.37-0.5-2.23
			s0.17-1.61,0.5-2.23s0.8-1.1,1.4-1.43c0.6-0.33,1.27-0.5,2.03-0.5c0.78,0,1.44,0.16,1.98,0.48c0.54,0.32,0.96,0.76,1.25,1.31
			c0.29,0.55,0.43,1.18,0.43,1.89c0,0.19-0.01,0.37-0.02,0.54c-0.01,0.17-0.03,0.32-0.05,0.45h-6.43V22.8h5.68l-0.85,0.26
			c0-0.73-0.18-1.28-0.54-1.67c-0.36-0.39-0.86-0.58-1.49-0.58c-0.46,0-0.86,0.11-1.2,0.32c-0.34,0.21-0.6,0.53-0.78,0.95
			c-0.18,0.42-0.27,0.94-0.27,1.54c0,0.6,0.1,1.1,0.29,1.52s0.46,0.73,0.82,0.94c0.35,0.21,0.77,0.32,1.25,0.32
			c0.53,0,0.96-0.1,1.3-0.3c0.33-0.2,0.59-0.49,0.78-0.85l1.36,0.64c-0.19,0.38-0.45,0.72-0.78,1c-0.33,0.28-0.71,0.5-1.16,0.65
			C365.74,27.69,365.25,27.76,364.72,27.76z"/>
		<path class="st36" d="M373.49,27.76c-0.8,0-1.53-0.15-2.19-0.46c-0.66-0.31-1.18-0.75-1.57-1.31l1.18-1.02
			c0.23,0.44,0.57,0.79,1.02,1.05c0.44,0.26,0.97,0.39,1.59,0.39c0.49,0,0.88-0.08,1.17-0.26c0.29-0.17,0.43-0.41,0.43-0.72
			c0-0.2-0.07-0.38-0.2-0.54s-0.39-0.27-0.76-0.36l-1.68-0.35c-0.85-0.17-1.46-0.45-1.82-0.82c-0.36-0.38-0.54-0.86-0.54-1.45
			c0-0.44,0.13-0.84,0.38-1.22c0.26-0.37,0.63-0.67,1.13-0.9s1.09-0.34,1.78-0.34c0.8,0,1.48,0.14,2.05,0.42s1,0.69,1.3,1.21
			l-1.18,0.99c-0.2-0.43-0.5-0.74-0.9-0.95s-0.81-0.31-1.23-0.31c-0.34,0-0.63,0.04-0.88,0.13c-0.25,0.09-0.43,0.2-0.56,0.35
			s-0.19,0.33-0.19,0.53c0,0.21,0.08,0.4,0.24,0.56s0.45,0.28,0.86,0.37l1.82,0.38c0.77,0.15,1.31,0.4,1.62,0.76
			c0.31,0.36,0.47,0.79,0.47,1.3s-0.13,0.96-0.4,1.35c-0.27,0.39-0.65,0.69-1.15,0.9C374.78,27.65,374.18,27.76,373.49,27.76z"/>
		<path class="st36" d="M384.27,16l-4.77,12.72h-1.6L382.67,16H384.27z"/>
		<path class="st36" d="M394.85,17.04l-3.92,10.56h-2l-3.92-10.56h1.82l2.46,7.02l0.64,2.1l0.64-2.08l2.46-7.04H394.85z"/>
		<path class="st36" d="M407.57,17.04V27.6h-1.58v-6.11l0.13-2.91h-0.02l-3.22,9.02h-1.42l-3.22-9.02h-0.02l0.13,2.91v6.11h-1.58
			V17.04h2.54l2.13,6.11l0.74,2.51h0.03l0.75-2.51l2.11-6.11H407.57z"/>
		<path class="st36" d="M415.66,27.6V16h1.71v4.88c0.27-0.5,0.63-0.87,1.08-1.1c0.45-0.23,0.96-0.34,1.51-0.34
			c0.57,0,1.07,0.11,1.53,0.33c0.45,0.22,0.81,0.55,1.08,0.98c0.27,0.44,0.4,0.99,0.4,1.66v5.18h-1.71v-4.64
			c0-0.79-0.16-1.34-0.49-1.65c-0.33-0.31-0.73-0.46-1.22-0.46c-0.34,0-0.68,0.08-1.02,0.25s-0.61,0.43-0.83,0.8
			c-0.22,0.37-0.33,0.86-0.33,1.48v4.22H415.66z"/>
		<path class="st36" d="M429.04,19.44c0.78,0,1.47,0.17,2.06,0.5c0.6,0.33,1.06,0.81,1.4,1.43s0.5,1.37,0.5,2.23
			s-0.17,1.61-0.5,2.23s-0.8,1.1-1.4,1.43c-0.6,0.33-1.29,0.5-2.06,0.5s-1.47-0.17-2.06-0.5c-0.6-0.33-1.07-0.81-1.41-1.43
			c-0.34-0.62-0.51-1.37-0.51-2.23s0.17-1.61,0.51-2.23c0.34-0.62,0.81-1.1,1.41-1.43C427.57,19.6,428.26,19.44,429.04,19.44z
			 M429.04,20.78c-0.48,0-0.89,0.11-1.22,0.33s-0.59,0.54-0.78,0.95s-0.27,0.93-0.27,1.54c0,0.6,0.09,1.11,0.27,1.53
			c0.18,0.42,0.44,0.74,0.78,0.96c0.34,0.22,0.74,0.33,1.22,0.33c0.48,0,0.89-0.11,1.22-0.33c0.33-0.22,0.59-0.54,0.77-0.96
			c0.18-0.42,0.27-0.93,0.27-1.53c0-0.61-0.09-1.12-0.27-1.54c-0.18-0.42-0.44-0.73-0.77-0.95
			C429.92,20.89,429.52,20.78,429.04,20.78z"/>
		<path class="st36" d="M438.21,27.76c-0.8,0-1.53-0.15-2.19-0.46c-0.66-0.31-1.18-0.75-1.57-1.31l1.18-1.02
			c0.23,0.44,0.57,0.79,1.02,1.05c0.44,0.26,0.97,0.39,1.59,0.39c0.49,0,0.88-0.08,1.17-0.26c0.29-0.17,0.43-0.41,0.43-0.72
			c0-0.2-0.07-0.38-0.2-0.54s-0.39-0.27-0.76-0.36l-1.68-0.35c-0.85-0.17-1.46-0.45-1.82-0.82c-0.36-0.38-0.54-0.86-0.54-1.45
			c0-0.44,0.13-0.84,0.38-1.22c0.26-0.37,0.63-0.67,1.13-0.9s1.09-0.34,1.78-0.34c0.8,0,1.48,0.14,2.05,0.42s1,0.69,1.3,1.21
			l-1.18,0.99c-0.2-0.43-0.5-0.74-0.9-0.95s-0.81-0.31-1.23-0.31c-0.34,0-0.63,0.04-0.88,0.13c-0.25,0.09-0.43,0.2-0.56,0.35
			s-0.19,0.33-0.19,0.53c0,0.21,0.08,0.4,0.24,0.56s0.45,0.28,0.86,0.37l1.82,0.38c0.77,0.15,1.31,0.4,1.62,0.76
			c0.31,0.36,0.47,0.79,0.47,1.3s-0.13,0.96-0.4,1.35c-0.27,0.39-0.65,0.69-1.15,0.9C439.5,27.65,438.9,27.76,438.21,27.76z"/>
		<path class="st36" d="M448.72,19.6v1.34h-6V19.6H448.72z M445.97,17.25v7.95c0,0.39,0.1,0.68,0.31,0.86
			c0.21,0.18,0.49,0.27,0.84,0.27c0.29,0,0.54-0.04,0.75-0.14c0.21-0.09,0.41-0.22,0.59-0.38l0.38,1.25
			c-0.25,0.21-0.55,0.38-0.9,0.5s-0.75,0.18-1.19,0.18c-0.46,0-0.88-0.07-1.26-0.22c-0.38-0.15-0.68-0.39-0.9-0.73
			c-0.21-0.34-0.33-0.78-0.34-1.32v-7.76L445.97,17.25z"/>
		<path class="st36" d="M459.13,27.76c-0.8,0-1.5-0.17-2.11-0.5c-0.61-0.33-1.08-0.81-1.42-1.43s-0.5-1.37-0.5-2.23
			s0.17-1.61,0.5-2.23s0.8-1.1,1.4-1.43c0.6-0.33,1.27-0.5,2.03-0.5c0.78,0,1.44,0.16,1.98,0.48c0.54,0.32,0.96,0.76,1.25,1.31
			c0.29,0.55,0.43,1.18,0.43,1.89c0,0.19-0.01,0.37-0.02,0.54c-0.01,0.17-0.03,0.32-0.05,0.45h-6.43V22.8h5.68l-0.85,0.26
			c0-0.73-0.18-1.28-0.54-1.67c-0.36-0.39-0.86-0.58-1.49-0.58c-0.46,0-0.86,0.11-1.2,0.32c-0.34,0.21-0.6,0.53-0.78,0.95
			c-0.18,0.42-0.27,0.94-0.27,1.54c0,0.6,0.1,1.1,0.29,1.52s0.46,0.73,0.82,0.94c0.35,0.21,0.77,0.32,1.25,0.32
			c0.53,0,0.96-0.1,1.3-0.3c0.33-0.2,0.59-0.49,0.78-0.85l1.36,0.64c-0.19,0.38-0.45,0.72-0.78,1c-0.33,0.28-0.71,0.5-1.16,0.65
			C460.16,27.69,459.67,27.76,459.13,27.76z"/>
		<path class="st36" d="M464.86,27.6v-8h1.52l0.11,2.08l-0.22-0.22c0.15-0.46,0.37-0.84,0.65-1.14c0.28-0.3,0.62-0.53,1.01-0.66
			c0.39-0.14,0.8-0.21,1.24-0.21c0.57,0,1.07,0.11,1.53,0.33c0.45,0.22,0.81,0.55,1.08,0.98c0.27,0.44,0.4,0.99,0.4,1.66v5.18h-1.71
			v-4.66c0-0.79-0.16-1.34-0.49-1.64c-0.33-0.3-0.73-0.46-1.22-0.46c-0.35,0-0.69,0.08-1.02,0.25c-0.33,0.17-0.61,0.43-0.82,0.79
			s-0.33,0.85-0.33,1.46v4.26H464.86z"/>
		<path class="st36" d="M479.82,19.6h1.79l-3.18,8h-1.87l-3.2-8h1.87l2.27,6.51L479.82,19.6z"/>
		<path class="st36" d="M483.93,18.26c-0.37,0-0.66-0.09-0.86-0.28c-0.2-0.19-0.3-0.45-0.3-0.79s0.1-0.6,0.3-0.78
			c0.2-0.18,0.48-0.27,0.86-0.27c0.36,0,0.64,0.09,0.84,0.27c0.2,0.18,0.3,0.44,0.3,0.78s-0.1,0.61-0.3,0.79
			C484.58,18.16,484.3,18.26,483.93,18.26z M484.78,19.6v8h-1.71v-8H484.78z"/>
		<path class="st36" d="M487.45,27.6v-8h1.46l0.16,1.44c0.21-0.52,0.53-0.92,0.95-1.19c0.42-0.27,0.94-0.41,1.56-0.41
			c0.16,0,0.32,0.01,0.48,0.04c0.16,0.03,0.29,0.07,0.4,0.12l-0.24,1.5c-0.12-0.04-0.25-0.08-0.39-0.1
			c-0.14-0.03-0.34-0.04-0.58-0.04c-0.33,0-0.66,0.09-0.98,0.26c-0.32,0.18-0.58,0.44-0.79,0.79s-0.31,0.8-0.31,1.34v4.24H487.45z"
			/>
		<path class="st36" d="M497.34,19.44c0.78,0,1.47,0.17,2.06,0.5c0.6,0.33,1.06,0.81,1.4,1.43s0.5,1.37,0.5,2.23
			s-0.17,1.61-0.5,2.23s-0.8,1.1-1.4,1.43c-0.6,0.33-1.29,0.5-2.06,0.5s-1.47-0.17-2.06-0.5c-0.6-0.33-1.07-0.81-1.41-1.43
			c-0.34-0.62-0.51-1.37-0.51-2.23s0.17-1.61,0.51-2.23c0.34-0.62,0.81-1.1,1.41-1.43C495.87,19.6,496.56,19.44,497.34,19.44z
			 M497.34,20.78c-0.48,0-0.89,0.11-1.22,0.33s-0.59,0.54-0.78,0.95s-0.27,0.93-0.27,1.54c0,0.6,0.09,1.11,0.27,1.53
			c0.18,0.42,0.44,0.74,0.78,0.96c0.34,0.22,0.74,0.33,1.22,0.33c0.48,0,0.89-0.11,1.22-0.33c0.33-0.22,0.59-0.54,0.77-0.96
			c0.18-0.42,0.27-0.93,0.27-1.53c0-0.61-0.09-1.12-0.27-1.54c-0.18-0.42-0.44-0.73-0.77-0.95
			C498.23,20.89,497.82,20.78,497.34,20.78z"/>
		<path class="st36" d="M503.47,27.6v-8h1.52l0.11,2.08l-0.22-0.22c0.15-0.46,0.37-0.84,0.65-1.14c0.28-0.3,0.62-0.53,1.01-0.66
			c0.39-0.14,0.8-0.21,1.24-0.21c0.57,0,1.07,0.11,1.53,0.33c0.45,0.22,0.81,0.55,1.08,0.98c0.27,0.44,0.4,0.99,0.4,1.66v5.18h-1.71
			v-4.66c0-0.79-0.16-1.34-0.49-1.64c-0.33-0.3-0.73-0.46-1.22-0.46c-0.35,0-0.69,0.08-1.02,0.25c-0.33,0.17-0.61,0.43-0.82,0.79
			s-0.33,0.85-0.33,1.46v4.26H503.47z"/>
		<path class="st36" d="M513.37,27.6v-8h1.52l0.08,1.34c0.28-0.51,0.65-0.89,1.11-1.14c0.46-0.25,0.96-0.37,1.48-0.37
			c0.58,0,1.11,0.13,1.59,0.39c0.49,0.26,0.85,0.65,1.1,1.18c0.17-0.35,0.41-0.65,0.7-0.88c0.3-0.23,0.63-0.41,0.99-0.52
			c0.36-0.11,0.72-0.17,1.07-0.17c0.51,0,0.99,0.11,1.44,0.32s0.81,0.54,1.09,0.98s0.42,1,0.42,1.68v5.18h-1.71v-4.91
			c0-0.65-0.15-1.12-0.46-1.41c-0.31-0.29-0.7-0.43-1.18-0.43c-0.37,0-0.72,0.09-1.03,0.27c-0.32,0.18-0.57,0.45-0.76,0.81
			c-0.19,0.36-0.29,0.8-0.29,1.32v4.35h-1.71v-4.91c0-0.65-0.15-1.12-0.46-1.41c-0.31-0.29-0.7-0.43-1.18-0.43
			c-0.32,0-0.64,0.09-0.96,0.26c-0.32,0.17-0.59,0.44-0.8,0.8c-0.21,0.36-0.32,0.84-0.32,1.44v4.26H513.37z"/>
		<path class="st36" d="M532.08,27.76c-0.8,0-1.5-0.17-2.11-0.5c-0.61-0.33-1.08-0.81-1.42-1.43s-0.5-1.37-0.5-2.23
			s0.17-1.61,0.5-2.23s0.8-1.1,1.4-1.43c0.6-0.33,1.27-0.5,2.03-0.5c0.78,0,1.44,0.16,1.98,0.48c0.54,0.32,0.96,0.76,1.25,1.31
			c0.29,0.55,0.43,1.18,0.43,1.89c0,0.19-0.01,0.37-0.02,0.54c-0.01,0.17-0.03,0.32-0.05,0.45h-6.43V22.8h5.68l-0.85,0.26
			c0-0.73-0.18-1.28-0.54-1.67c-0.36-0.39-0.86-0.58-1.49-0.58c-0.46,0-0.86,0.11-1.2,0.32c-0.34,0.21-0.6,0.53-0.78,0.95
			c-0.18,0.42-0.27,0.94-0.27,1.54c0,0.6,0.1,1.1,0.29,1.52s0.46,0.73,0.82,0.94c0.35,0.21,0.77,0.32,1.25,0.32
			c0.53,0,0.96-0.1,1.3-0.3c0.33-0.2,0.59-0.49,0.78-0.85l1.36,0.64c-0.19,0.38-0.45,0.72-0.78,1c-0.33,0.28-0.71,0.5-1.16,0.65
			C533.1,27.69,532.61,27.76,532.08,27.76z"/>
		<path class="st36" d="M537.8,27.6v-8h1.52l0.11,2.08l-0.22-0.22c0.15-0.46,0.37-0.84,0.65-1.14c0.28-0.3,0.62-0.53,1.01-0.66
			c0.39-0.14,0.8-0.21,1.24-0.21c0.57,0,1.07,0.11,1.53,0.33c0.45,0.22,0.81,0.55,1.08,0.98c0.27,0.44,0.4,0.99,0.4,1.66v5.18h-1.71
			v-4.66c0-0.79-0.16-1.34-0.49-1.64c-0.33-0.3-0.73-0.46-1.22-0.46c-0.35,0-0.69,0.08-1.02,0.25c-0.33,0.17-0.61,0.43-0.82,0.79
			s-0.33,0.85-0.33,1.46v4.26H537.8z"/>
		<path class="st36" d="M552.7,19.6v1.34h-6V19.6H552.7z M549.95,17.25v7.95c0,0.39,0.1,0.68,0.31,0.86
			c0.21,0.18,0.49,0.27,0.84,0.27c0.29,0,0.54-0.04,0.75-0.14c0.21-0.09,0.41-0.22,0.59-0.38l0.38,1.25
			c-0.25,0.21-0.55,0.38-0.9,0.5s-0.75,0.18-1.19,0.18c-0.46,0-0.88-0.07-1.26-0.22c-0.38-0.15-0.68-0.39-0.9-0.73
			c-0.21-0.34-0.33-0.78-0.34-1.32v-7.76L549.95,17.25z"/>
	</g>
	<rect x="61" y="293" class="st0" width="6" height="1"/>
	<rect x="58.5" y="286" class="st0" width="6" height="1"/>
	<rect x="63.5" y="287" class="st0" width="1" height="6"/>
	<g>
		<path class="st0" d="M56.5,285c0.83,0,1.5,0.67,1.5,1.5s-0.67,1.5-1.5,1.5s-1.5-0.67-1.5-1.5S55.67,285,56.5,285 M56.5,284
			c-1.38,0-2.5,1.12-2.5,2.5s1.12,2.5,2.5,2.5s2.5-1.12,2.5-2.5S57.88,284,56.5,284L56.5,284z"/>
	</g>
	<g>
		<rect x="61" y="298" transform="matrix(-1 -1.224647e-16 1.224647e-16 -1 128 597)" class="st0" width="6" height="1"/>
		<rect x="63.5" y="305" transform="matrix(-1 -1.224647e-16 1.224647e-16 -1 133 611)" class="st0" width="6" height="1"/>
		<rect x="63.5" y="299" transform="matrix(-1 -1.224647e-16 1.224647e-16 -1 128 604)" class="st0" width="1" height="6"/>
		<g>
			<path class="st0" d="M71.5,304c0.83,0,1.5,0.67,1.5,1.5s-0.67,1.5-1.5,1.5s-1.5-0.67-1.5-1.5S70.67,304,71.5,304 M71.5,303
				c-1.38,0-2.5,1.12-2.5,2.5s1.12,2.5,2.5,2.5s2.5-1.12,2.5-2.5S72.88,303,71.5,303L71.5,303z"/>
		</g>
	</g>
	<rect x="50" y="133" class="st0" width="28" height="3"/>
	<rect x="50" y="134" class="st0" width="1" height="20"/>
	
		<rect x="63.42" y="139.78" transform="matrix(0.9613 0.2756 -0.2756 0.9613 42.4435 -12.0015)" class="st0" width="1" height="10.44"/>
	<rect x="77" y="134" class="st0" width="1" height="20"/>
	<rect x="50" y="154" class="st0" width="28" height="1"/>
	<polyline class="st42" points="59,149 55,145 59,141 	"/>
	<polyline class="st42" points="69,141 73,145 69,149 	"/>
	<line class="st51" x1="0.5" y1="208" x2="271.5" y2="208"/>
</g>
<g id="Layer_2">
</g>
<g id="Layer_3">
	<g>
		<polygon class="st4" points="321.5,235.56 321.5,194.31 357.52,173.58 392.5,194.31 392.5,235.56 357.52,256.42 		"/>
		<path class="st0" d="M357.51,174.16L392,194.59v40.68l-34.49,20.56L322,235.27V194.6L357.51,174.16 M357.52,173L321,194.02v41.82
			L357.52,257L393,235.84v-41.82L357.52,173L357.52,173z"/>
	</g>
	<polyline class="st42" points="321.5,194.5 357.52,215 392.5,194.5 	"/>
	<line class="st42" x1="357.52" y1="215.05" x2="357.52" y2="256"/>
	<g>
		<polygon class="st4" points="417.5,235.56 417.5,194.31 453.52,173.58 488.5,194.31 488.5,235.56 453.52,256.42 		"/>
		<path class="st0" d="M453.51,174.16L488,194.59v40.68l-34.49,20.56L418,235.27V194.6L453.51,174.16 M453.52,173L417,194.02v41.82
			L453.52,257L489,235.84v-41.82L453.52,173L453.52,173z"/>
	</g>
	<polyline class="st42" points="417.5,194.5 453.52,215 488.5,194.5 	"/>
	<line class="st42" x1="453.52" y1="215.05" x2="453.52" y2="256"/>
	<g>
		<polygon class="st4" points="513.5,235.56 513.5,194.31 549.52,173.58 584.5,194.31 584.5,235.56 549.52,256.42 		"/>
		<path class="st0" d="M549.51,174.16L584,194.59v40.68l-34.49,20.56L514,235.27V194.6L549.51,174.16 M549.52,173L513,194.02v41.82
			L549.52,257L585,235.84v-41.82L549.52,173L549.52,173z"/>
	</g>
	<polyline class="st42" points="513.5,194.5 549.52,215 584.5,194.5 	"/>
	<line class="st42" x1="549.52" y1="215.05" x2="549.52" y2="256"/>
	<g>
		<polygon class="st4" points="609.5,235.56 609.5,194.31 645.52,173.58 680.5,194.31 680.5,235.56 645.52,256.42 		"/>
		<path class="st0" d="M645.51,174.16L680,194.59v40.68l-34.49,20.56L610,235.27V194.6L645.51,174.16 M645.52,173L609,194.02v41.82
			L645.52,257L681,235.84v-41.82L645.52,173L645.52,173z"/>
	</g>
	<polyline class="st42" points="609.5,194.5 645.52,215 680.5,194.5 	"/>
	<line class="st42" x1="645.52" y1="215.05" x2="645.52" y2="256"/>
</g>
</svg>
