<svg width="655" height="265" viewBox="0 0 655 265" fill="none" xmlns="http://www.w3.org/2000/svg">
<rect width="655" height="265" fill="white"/>
<rect x="131.5" y="57.5" width="402" height="167" fill="white"/>
<rect x="131.5" y="57.5" width="402" height="167" stroke="black"/>
<path d="M131 62C131 59.2386 133.239 57 136 57H529C531.761 57 534 59.2386 534 62V97H131V62Z" fill="#00378F"/>
<path d="M157.932 82H152.367V72.0059H157.932V73.0312H153.529V76.2646H157.679V77.2764H153.529V80.9746H157.932V82ZM163.137 82.1367C162.462 82.1367 161.867 81.9977 161.352 81.7197C160.837 81.4417 160.436 81.0179 160.149 80.4482C159.862 79.8786 159.719 79.1608 159.719 78.2949C159.719 77.388 159.869 76.6475 160.17 76.0732C160.475 75.4945 160.894 75.0661 161.428 74.7881C161.961 74.5101 162.567 74.3711 163.246 74.3711C163.62 74.3711 163.98 74.4098 164.326 74.4873C164.677 74.5602 164.964 74.6536 165.187 74.7676L164.846 75.7178C164.618 75.6266 164.353 75.5446 164.053 75.4717C163.756 75.3988 163.478 75.3623 163.219 75.3623C162.699 75.3623 162.266 75.474 161.92 75.6973C161.578 75.9206 161.32 76.2487 161.147 76.6816C160.979 77.1146 160.894 77.6478 160.894 78.2812C160.894 78.8874 160.976 79.4046 161.14 79.833C161.309 80.2614 161.557 80.5895 161.886 80.8174C162.218 81.0407 162.633 81.1523 163.13 81.1523C163.526 81.1523 163.884 81.1113 164.203 81.0293C164.522 80.9427 164.811 80.8424 165.071 80.7285V81.7402C164.82 81.8678 164.54 81.9658 164.23 82.0342C163.925 82.1025 163.56 82.1367 163.137 82.1367ZM173.468 78.2402C173.468 78.8555 173.389 79.4046 173.229 79.8877C173.07 80.3708 172.84 80.7786 172.539 81.1113C172.238 81.444 171.873 81.6992 171.445 81.877C171.021 82.0501 170.54 82.1367 170.003 82.1367C169.501 82.1367 169.041 82.0501 168.622 81.877C168.207 81.6992 167.847 81.444 167.542 81.1113C167.241 80.7786 167.006 80.3708 166.838 79.8877C166.674 79.4046 166.591 78.8555 166.591 78.2402C166.591 77.4199 166.73 76.7227 167.008 76.1484C167.286 75.5697 167.683 75.1299 168.198 74.8291C168.717 74.5238 169.335 74.3711 170.05 74.3711C170.734 74.3711 171.331 74.5238 171.841 74.8291C172.356 75.1344 172.755 75.5765 173.038 76.1553C173.325 76.7295 173.468 77.4245 173.468 78.2402ZM167.767 78.2402C167.767 78.8418 167.847 79.3636 168.007 79.8057C168.166 80.2477 168.412 80.5895 168.745 80.8311C169.077 81.0726 169.506 81.1934 170.03 81.1934C170.549 81.1934 170.976 81.0726 171.308 80.8311C171.646 80.5895 171.894 80.2477 172.053 79.8057C172.213 79.3636 172.293 78.8418 172.293 78.2402C172.293 77.6432 172.213 77.1283 172.053 76.6953C171.894 76.2578 171.648 75.9206 171.315 75.6836C170.982 75.4466 170.552 75.3281 170.023 75.3281C169.244 75.3281 168.672 75.5856 168.307 76.1006C167.947 76.6156 167.767 77.3288 167.767 78.2402ZM180.437 79.9492C180.437 80.4277 180.316 80.8311 180.075 81.1592C179.838 81.4827 179.496 81.7266 179.049 81.8906C178.607 82.0547 178.079 82.1367 177.463 82.1367C176.939 82.1367 176.486 82.0957 176.103 82.0137C175.72 81.9316 175.385 81.8154 175.098 81.665V80.6191C175.404 80.7695 175.768 80.9062 176.192 81.0293C176.616 81.1523 177.049 81.2139 177.491 81.2139C178.138 81.2139 178.607 81.109 178.899 80.8994C179.191 80.6898 179.336 80.4049 179.336 80.0449C179.336 79.8398 179.277 79.6598 179.159 79.5049C179.045 79.3454 178.851 79.1927 178.578 79.0469C178.304 78.8965 177.926 78.7324 177.443 78.5547C176.964 78.3724 176.55 78.1924 176.199 78.0146C175.852 77.8324 175.584 77.6113 175.392 77.3516C175.205 77.0918 175.112 76.7546 175.112 76.3398C175.112 75.7064 175.367 75.221 175.877 74.8838C176.392 74.542 177.067 74.3711 177.901 74.3711C178.352 74.3711 178.774 74.4167 179.166 74.5078C179.562 74.5944 179.931 74.7129 180.273 74.8633L179.89 75.7725C179.58 75.6403 179.25 75.5286 178.899 75.4375C178.548 75.3464 178.19 75.3008 177.826 75.3008C177.302 75.3008 176.898 75.3874 176.616 75.5605C176.338 75.7337 176.199 75.9707 176.199 76.2715C176.199 76.5039 176.263 76.6953 176.39 76.8457C176.522 76.9961 176.732 77.1374 177.019 77.2695C177.306 77.4017 177.684 77.5566 178.154 77.7344C178.623 77.9076 179.029 78.0876 179.371 78.2744C179.712 78.4567 179.974 78.68 180.157 78.9443C180.344 79.2041 180.437 79.5391 180.437 79.9492ZM181.24 74.5078H182.456L184.111 78.8555C184.206 79.1107 184.295 79.3568 184.377 79.5938C184.459 79.8262 184.532 80.0495 184.596 80.2637C184.66 80.4779 184.71 80.6852 184.746 80.8857H184.794C184.858 80.6579 184.949 80.3594 185.068 79.9902C185.186 79.6165 185.314 79.236 185.451 78.8486L187.016 74.5078H188.24L184.979 83.1006C184.806 83.5609 184.603 83.9619 184.37 84.3037C184.143 84.6455 183.865 84.9076 183.536 85.0898C183.208 85.2767 182.812 85.3701 182.347 85.3701C182.133 85.3701 181.944 85.3564 181.78 85.3291C181.616 85.3063 181.474 85.279 181.356 85.2471V84.3379C181.456 84.3607 181.577 84.3812 181.718 84.3994C181.864 84.4176 182.014 84.4268 182.169 84.4268C182.452 84.4268 182.696 84.3721 182.901 84.2627C183.11 84.1579 183.29 84.0029 183.441 83.7979C183.591 83.5928 183.721 83.349 183.83 83.0664L184.241 82.0137L181.24 74.5078ZM194.443 79.9492C194.443 80.4277 194.322 80.8311 194.08 81.1592C193.843 81.4827 193.501 81.7266 193.055 81.8906C192.613 82.0547 192.084 82.1367 191.469 82.1367C190.945 82.1367 190.491 82.0957 190.109 82.0137C189.726 81.9316 189.391 81.8154 189.104 81.665V80.6191C189.409 80.7695 189.774 80.9062 190.197 81.0293C190.621 81.1523 191.054 81.2139 191.496 81.2139C192.143 81.2139 192.613 81.109 192.904 80.8994C193.196 80.6898 193.342 80.4049 193.342 80.0449C193.342 79.8398 193.283 79.6598 193.164 79.5049C193.05 79.3454 192.857 79.1927 192.583 79.0469C192.31 78.8965 191.932 78.7324 191.448 78.5547C190.97 78.3724 190.555 78.1924 190.204 78.0146C189.858 77.8324 189.589 77.6113 189.398 77.3516C189.211 77.0918 189.117 76.7546 189.117 76.3398C189.117 75.7064 189.373 75.221 189.883 74.8838C190.398 74.542 191.072 74.3711 191.906 74.3711C192.358 74.3711 192.779 74.4167 193.171 74.5078C193.568 74.5944 193.937 74.7129 194.279 74.8633L193.896 75.7725C193.586 75.6403 193.255 75.5286 192.904 75.4375C192.554 75.3464 192.196 75.3008 191.831 75.3008C191.307 75.3008 190.904 75.3874 190.621 75.5605C190.343 75.7337 190.204 75.9707 190.204 76.2715C190.204 76.5039 190.268 76.6953 190.396 76.8457C190.528 76.9961 190.737 77.1374 191.025 77.2695C191.312 77.4017 191.69 77.5566 192.159 77.7344C192.629 77.9076 193.034 78.0876 193.376 78.2744C193.718 78.4567 193.98 78.68 194.162 78.9443C194.349 79.2041 194.443 79.5391 194.443 79.9492ZM198.848 81.207C199.035 81.207 199.226 81.1911 199.422 81.1592C199.618 81.1273 199.777 81.0885 199.9 81.043V81.9248C199.768 81.984 199.584 82.0342 199.347 82.0752C199.114 82.1162 198.886 82.1367 198.663 82.1367C198.267 82.1367 197.907 82.0684 197.583 81.9316C197.259 81.7904 197 81.5534 196.804 81.2207C196.612 80.888 196.517 80.4277 196.517 79.8398V75.3965H195.45V74.8428L196.523 74.3984L196.975 72.7715H197.658V74.5078H199.853V75.3965H197.658V79.8057C197.658 80.2751 197.765 80.626 197.98 80.8584C198.198 81.0908 198.488 81.207 198.848 81.207ZM204.463 74.3711C205.101 74.3711 205.648 74.5124 206.103 74.7949C206.559 75.0775 206.908 75.474 207.149 75.9844C207.391 76.4902 207.512 77.0827 207.512 77.7617V78.4658H202.337C202.35 79.3454 202.569 80.0153 202.993 80.4756C203.417 80.9359 204.014 81.166 204.784 81.166C205.258 81.166 205.677 81.1227 206.042 81.0361C206.406 80.9495 206.785 80.8219 207.177 80.6533V81.6514C206.798 81.82 206.422 81.943 206.049 82.0205C205.68 82.098 205.242 82.1367 204.736 82.1367C204.016 82.1367 203.387 81.9909 202.849 81.6992C202.316 81.403 201.902 80.9701 201.605 80.4004C201.309 79.8307 201.161 79.1335 201.161 78.3086C201.161 77.502 201.295 76.8047 201.564 76.2168C201.838 75.6243 202.221 75.1686 202.713 74.8496C203.21 74.5306 203.793 74.3711 204.463 74.3711ZM204.449 75.3008C203.843 75.3008 203.36 75.499 203 75.8955C202.64 76.292 202.426 76.8457 202.357 77.5566H206.322C206.318 77.11 206.247 76.7181 206.11 76.3809C205.978 76.0391 205.775 75.7747 205.502 75.5879C205.228 75.3965 204.877 75.3008 204.449 75.3008ZM217.734 74.3711C218.559 74.3711 219.181 74.5876 219.6 75.0205C220.02 75.4489 220.229 76.1393 220.229 77.0918V82H219.108V77.1465C219.108 76.5404 218.976 76.0869 218.712 75.7861C218.452 75.4808 218.065 75.3281 217.55 75.3281C216.825 75.3281 216.299 75.5378 215.97 75.957C215.642 76.3763 215.478 76.9938 215.478 77.8096V82H214.35V77.1465C214.35 76.7409 214.291 76.4036 214.173 76.1348C214.059 75.8659 213.885 75.6654 213.653 75.5332C213.425 75.3965 213.136 75.3281 212.785 75.3281C212.288 75.3281 211.889 75.4307 211.589 75.6357C211.288 75.8408 211.069 76.1462 210.932 76.5518C210.8 76.9528 210.734 77.4473 210.734 78.0352V82H209.599V74.5078H210.515L210.686 75.5674H210.748C210.898 75.3076 211.087 75.0889 211.315 74.9111C211.543 74.7334 211.798 74.599 212.081 74.5078C212.363 74.4167 212.664 74.3711 212.983 74.3711C213.553 74.3711 214.029 74.4782 214.412 74.6924C214.799 74.902 215.079 75.2233 215.253 75.6562H215.314C215.56 75.2233 215.898 74.902 216.326 74.6924C216.754 74.4782 217.224 74.3711 217.734 74.3711ZM229.518 82.1367C228.843 82.1367 228.249 81.9977 227.734 81.7197C227.219 81.4417 226.818 81.0179 226.531 80.4482C226.244 79.8786 226.1 79.1608 226.1 78.2949C226.1 77.388 226.25 76.6475 226.551 76.0732C226.857 75.4945 227.276 75.0661 227.809 74.7881C228.342 74.5101 228.948 74.3711 229.627 74.3711C230.001 74.3711 230.361 74.4098 230.707 74.4873C231.058 74.5602 231.345 74.6536 231.569 74.7676L231.227 75.7178C230.999 75.6266 230.735 75.5446 230.434 75.4717C230.138 75.3988 229.86 75.3623 229.6 75.3623C229.08 75.3623 228.648 75.474 228.301 75.6973C227.959 75.9206 227.702 76.2487 227.529 76.6816C227.36 77.1146 227.276 77.6478 227.276 78.2812C227.276 78.8874 227.358 79.4046 227.522 79.833C227.69 80.2614 227.939 80.5895 228.267 80.8174C228.6 81.0407 229.014 81.1523 229.511 81.1523C229.908 81.1523 230.265 81.1113 230.584 81.0293C230.903 80.9427 231.193 80.8424 231.453 80.7285V81.7402C231.202 81.8678 230.922 81.9658 230.612 82.0342C230.306 82.1025 229.942 82.1367 229.518 82.1367ZM234.531 82H233.39V71.3633H234.531V82ZM243.277 74.5078V82H242.348L242.184 80.9473H242.122C241.967 81.207 241.767 81.4258 241.521 81.6035C241.274 81.7812 240.996 81.9134 240.687 82C240.381 82.0911 240.055 82.1367 239.709 82.1367C239.117 82.1367 238.62 82.041 238.219 81.8496C237.818 81.6582 237.515 81.362 237.31 80.9609C237.109 80.5599 237.009 80.0449 237.009 79.416V74.5078H238.157V79.334C238.157 79.9583 238.299 80.4255 238.581 80.7354C238.864 81.0407 239.294 81.1934 239.873 81.1934C240.429 81.1934 240.871 81.0885 241.199 80.8789C241.532 80.6693 241.771 80.3617 241.917 79.9561C242.063 79.5459 242.136 79.0446 242.136 78.4521V74.5078H243.277ZM250.684 79.9492C250.684 80.4277 250.563 80.8311 250.321 81.1592C250.084 81.4827 249.742 81.7266 249.296 81.8906C248.854 82.0547 248.325 82.1367 247.71 82.1367C247.186 82.1367 246.732 82.0957 246.35 82.0137C245.967 81.9316 245.632 81.8154 245.345 81.665V80.6191C245.65 80.7695 246.015 80.9062 246.438 81.0293C246.862 81.1523 247.295 81.2139 247.737 81.2139C248.384 81.2139 248.854 81.109 249.145 80.8994C249.437 80.6898 249.583 80.4049 249.583 80.0449C249.583 79.8398 249.524 79.6598 249.405 79.5049C249.291 79.3454 249.098 79.1927 248.824 79.0469C248.551 78.8965 248.172 78.7324 247.689 78.5547C247.211 78.3724 246.796 78.1924 246.445 78.0146C246.099 77.8324 245.83 77.6113 245.639 77.3516C245.452 77.0918 245.358 76.7546 245.358 76.3398C245.358 75.7064 245.614 75.221 246.124 74.8838C246.639 74.542 247.313 74.3711 248.147 74.3711C248.599 74.3711 249.02 74.4167 249.412 74.5078C249.809 74.5944 250.178 74.7129 250.519 74.8633L250.137 75.7725C249.827 75.6403 249.496 75.5286 249.145 75.4375C248.795 75.3464 248.437 75.3008 248.072 75.3008C247.548 75.3008 247.145 75.3874 246.862 75.5605C246.584 75.7337 246.445 75.9707 246.445 76.2715C246.445 76.5039 246.509 76.6953 246.637 76.8457C246.769 76.9961 246.978 77.1374 247.266 77.2695C247.553 77.4017 247.931 77.5566 248.4 77.7344C248.87 77.9076 249.275 78.0876 249.617 78.2744C249.959 78.4567 250.221 78.68 250.403 78.9443C250.59 79.2041 250.684 79.5391 250.684 79.9492ZM255.089 81.207C255.275 81.207 255.467 81.1911 255.663 81.1592C255.859 81.1273 256.018 81.0885 256.141 81.043V81.9248C256.009 81.984 255.825 82.0342 255.588 82.0752C255.355 82.1162 255.127 82.1367 254.904 82.1367C254.508 82.1367 254.148 82.0684 253.824 81.9316C253.5 81.7904 253.241 81.5534 253.045 81.2207C252.853 80.888 252.758 80.4277 252.758 79.8398V75.3965H251.691V74.8428L252.764 74.3984L253.216 72.7715H253.899V74.5078H256.094V75.3965H253.899V79.8057C253.899 80.2751 254.006 80.626 254.22 80.8584C254.439 81.0908 254.729 81.207 255.089 81.207ZM260.704 74.3711C261.342 74.3711 261.889 74.5124 262.344 74.7949C262.8 75.0775 263.149 75.474 263.39 75.9844C263.632 76.4902 263.753 77.0827 263.753 77.7617V78.4658H258.578C258.591 79.3454 258.81 80.0153 259.234 80.4756C259.658 80.9359 260.255 81.166 261.025 81.166C261.499 81.166 261.918 81.1227 262.283 81.0361C262.647 80.9495 263.026 80.8219 263.418 80.6533V81.6514C263.039 81.82 262.663 81.943 262.29 82.0205C261.921 82.098 261.483 82.1367 260.977 82.1367C260.257 82.1367 259.628 81.9909 259.09 81.6992C258.557 81.403 258.143 80.9701 257.846 80.4004C257.55 79.8307 257.402 79.1335 257.402 78.3086C257.402 77.502 257.536 76.8047 257.805 76.2168C258.079 75.6243 258.462 75.1686 258.954 74.8496C259.45 74.5306 260.034 74.3711 260.704 74.3711ZM260.69 75.3008C260.084 75.3008 259.601 75.499 259.241 75.8955C258.881 76.292 258.667 76.8457 258.598 77.5566H262.563C262.559 77.11 262.488 76.7181 262.351 76.3809C262.219 76.0391 262.016 75.7747 261.743 75.5879C261.469 75.3965 261.118 75.3008 260.69 75.3008ZM269.245 74.3711C269.395 74.3711 269.552 74.3802 269.716 74.3984C269.88 74.4121 270.026 74.4326 270.154 74.46L270.01 75.5127C269.887 75.4808 269.75 75.4557 269.6 75.4375C269.45 75.4193 269.308 75.4102 269.176 75.4102C268.875 75.4102 268.591 75.4717 268.322 75.5947C268.057 75.7132 267.825 75.8864 267.624 76.1143C267.424 76.3376 267.267 76.6087 267.153 76.9277C267.039 77.2422 266.982 77.5931 266.982 77.9805V82H265.84V74.5078H266.784L266.907 75.8887H266.955C267.109 75.6107 267.296 75.3577 267.515 75.1299C267.734 74.8975 267.987 74.7129 268.274 74.5762C268.566 74.4395 268.889 74.3711 269.245 74.3711Z" fill="white"/>
<rect x="278.5" y="111.5" width="99" height="85" rx="4.5" fill="white"/>
<rect x="278.5" y="111.5" width="99" height="85" rx="4.5" stroke="#82A4D9"/>
<path d="M305.136 129L303.905 125.828H299.899L298.676 129H297.5L301.41 118.965H302.456L306.339 129H305.136ZM303.557 124.796L302.388 121.645C302.36 121.562 302.315 121.428 302.251 121.241C302.192 121.054 302.13 120.861 302.066 120.66C302.003 120.46 301.95 120.298 301.909 120.175C301.864 120.362 301.813 120.549 301.759 120.735C301.709 120.918 301.659 121.089 301.608 121.248C301.558 121.403 301.515 121.535 301.479 121.645L300.289 124.796H303.557ZM313.902 121.508V129H312.972L312.808 127.947H312.747C312.592 128.207 312.391 128.426 312.145 128.604C311.899 128.781 311.621 128.913 311.311 129C311.006 129.091 310.68 129.137 310.334 129.137C309.741 129.137 309.245 129.041 308.844 128.85C308.443 128.658 308.139 128.362 307.934 127.961C307.734 127.56 307.634 127.045 307.634 126.416V121.508H308.782V126.334C308.782 126.958 308.923 127.425 309.206 127.735C309.488 128.041 309.919 128.193 310.498 128.193C311.054 128.193 311.496 128.089 311.824 127.879C312.157 127.669 312.396 127.362 312.542 126.956C312.688 126.546 312.761 126.045 312.761 125.452V121.508H313.902ZM318.882 128.207C319.068 128.207 319.26 128.191 319.456 128.159C319.652 128.127 319.811 128.089 319.934 128.043V128.925C319.802 128.984 319.618 129.034 319.381 129.075C319.148 129.116 318.92 129.137 318.697 129.137C318.3 129.137 317.94 129.068 317.617 128.932C317.293 128.79 317.034 128.553 316.838 128.221C316.646 127.888 316.55 127.428 316.55 126.84V122.396H315.484V121.843L316.557 121.398L317.008 119.771H317.692V121.508H319.886V122.396H317.692V126.806C317.692 127.275 317.799 127.626 318.013 127.858C318.232 128.091 318.521 128.207 318.882 128.207ZM322.747 118.363V121.542C322.747 121.724 322.742 121.909 322.733 122.096C322.724 122.278 322.708 122.447 322.685 122.602H322.76C322.915 122.337 323.111 122.116 323.348 121.938C323.59 121.756 323.863 121.619 324.168 121.528C324.474 121.433 324.797 121.385 325.139 121.385C325.741 121.385 326.242 121.48 326.643 121.672C327.049 121.863 327.352 122.16 327.552 122.561C327.757 122.962 327.86 123.481 327.86 124.119V129H326.739V124.194C326.739 123.57 326.595 123.103 326.308 122.793C326.026 122.483 325.59 122.328 325.002 122.328C324.446 122.328 324.002 122.435 323.669 122.649C323.341 122.859 323.104 123.169 322.959 123.579C322.817 123.989 322.747 124.491 322.747 125.083V129H321.612V118.363H322.747ZM301.567 139.006C302.388 139.006 303.064 139.108 303.598 139.313C304.135 139.514 304.536 139.822 304.801 140.236C305.065 140.651 305.197 141.18 305.197 141.822C305.197 142.351 305.102 142.793 304.91 143.148C304.719 143.499 304.468 143.784 304.158 144.003C303.848 144.222 303.518 144.39 303.167 144.509L305.908 149H304.555L302.107 144.83H300.029V149H298.867V139.006H301.567ZM301.499 140.011H300.029V143.846H301.615C302.431 143.846 303.03 143.679 303.413 143.347C303.8 143.014 303.994 142.524 303.994 141.877C303.994 141.198 303.789 140.717 303.379 140.435C302.973 140.152 302.347 140.011 301.499 140.011ZM313.232 149H307.668V139.006H313.232V140.031H308.83V143.265H312.979V144.276H308.83V147.975H313.232V149ZM321.247 146.341C321.247 146.933 321.099 147.439 320.802 147.858C320.511 148.273 320.101 148.59 319.572 148.809C319.043 149.027 318.421 149.137 317.706 149.137C317.327 149.137 316.97 149.118 316.632 149.082C316.295 149.046 315.985 148.993 315.703 148.925C315.42 148.856 315.172 148.772 314.958 148.672V147.558C315.299 147.699 315.716 147.831 316.209 147.954C316.701 148.073 317.216 148.132 317.754 148.132C318.255 148.132 318.679 148.066 319.025 147.934C319.371 147.797 319.633 147.603 319.811 147.353C319.994 147.097 320.085 146.792 320.085 146.437C320.085 146.095 320.009 145.81 319.859 145.582C319.709 145.35 319.458 145.14 319.107 144.953C318.761 144.762 318.287 144.559 317.685 144.345C317.261 144.194 316.888 144.03 316.564 143.853C316.241 143.67 315.969 143.465 315.751 143.237C315.532 143.009 315.366 142.745 315.252 142.444C315.142 142.144 315.088 141.799 315.088 141.412C315.088 140.879 315.222 140.423 315.491 140.045C315.764 139.662 316.14 139.37 316.619 139.17C317.102 138.965 317.656 138.862 318.28 138.862C318.813 138.862 319.305 138.912 319.757 139.013C320.212 139.113 320.629 139.247 321.007 139.416L320.645 140.414C320.285 140.264 319.902 140.138 319.497 140.038C319.096 139.938 318.681 139.888 318.253 139.888C317.824 139.888 317.462 139.951 317.166 140.079C316.874 140.202 316.651 140.378 316.496 140.605C316.341 140.833 316.263 141.104 316.263 141.419C316.263 141.77 316.336 142.062 316.482 142.294C316.632 142.526 316.869 142.734 317.193 142.916C317.521 143.094 317.954 143.281 318.492 143.477C319.08 143.691 319.579 143.919 319.989 144.16C320.399 144.397 320.711 144.689 320.925 145.035C321.14 145.377 321.247 145.812 321.247 146.341ZM326.52 149H325.351V140.031H322.207V139.006H329.651V140.031H326.52V149ZM301.581 161.371C302.219 161.371 302.766 161.512 303.222 161.795C303.677 162.077 304.026 162.474 304.268 162.984C304.509 163.49 304.63 164.083 304.63 164.762V165.466H299.455C299.469 166.345 299.688 167.015 300.111 167.476C300.535 167.936 301.132 168.166 301.902 168.166C302.376 168.166 302.796 168.123 303.16 168.036C303.525 167.95 303.903 167.822 304.295 167.653V168.651C303.917 168.82 303.541 168.943 303.167 169.021C302.798 169.098 302.36 169.137 301.854 169.137C301.134 169.137 300.506 168.991 299.968 168.699C299.435 168.403 299.02 167.97 298.724 167.4C298.427 166.831 298.279 166.133 298.279 165.309C298.279 164.502 298.414 163.805 298.683 163.217C298.956 162.624 299.339 162.169 299.831 161.85C300.328 161.531 300.911 161.371 301.581 161.371ZM301.567 162.301C300.961 162.301 300.478 162.499 300.118 162.896C299.758 163.292 299.544 163.846 299.476 164.557H303.44C303.436 164.11 303.365 163.718 303.229 163.381C303.096 163.039 302.894 162.775 302.62 162.588C302.347 162.396 301.996 162.301 301.567 162.301ZM310.265 161.371C311.154 161.371 311.826 161.59 312.282 162.027C312.738 162.46 312.966 163.158 312.966 164.119V169H311.845V164.194C311.845 163.57 311.701 163.103 311.414 162.793C311.131 162.483 310.696 162.328 310.108 162.328C309.279 162.328 308.695 162.563 308.358 163.032C308.021 163.502 307.852 164.183 307.852 165.076V169H306.718V161.508H307.634L307.805 162.588H307.866C308.026 162.324 308.228 162.103 308.474 161.925C308.721 161.743 308.996 161.606 309.302 161.515C309.607 161.419 309.928 161.371 310.265 161.371ZM318.13 169.137C317.182 169.137 316.43 168.813 315.874 168.166C315.322 167.519 315.047 166.557 315.047 165.281C315.047 163.992 315.329 163.019 315.894 162.362C316.459 161.701 317.211 161.371 318.15 161.371C318.547 161.371 318.893 161.424 319.189 161.528C319.485 161.633 319.741 161.774 319.955 161.952C320.169 162.125 320.349 162.324 320.495 162.547H320.577C320.559 162.406 320.54 162.212 320.522 161.966C320.504 161.72 320.495 161.519 320.495 161.364V158.363H321.63V169H320.714L320.543 167.934H320.495C320.354 168.157 320.174 168.36 319.955 168.542C319.741 168.724 319.483 168.87 319.182 168.979C318.886 169.084 318.535 169.137 318.13 169.137ZM318.307 168.193C319.109 168.193 319.677 167.965 320.009 167.51C320.342 167.054 320.508 166.377 320.508 165.479V165.274C320.508 164.322 320.349 163.59 320.03 163.08C319.716 162.57 319.141 162.314 318.307 162.314C317.61 162.314 317.088 162.583 316.742 163.121C316.396 163.654 316.222 164.383 316.222 165.309C316.222 166.229 316.393 166.94 316.735 167.441C317.081 167.943 317.605 168.193 318.307 168.193ZM327.716 161.371C328.651 161.371 329.396 161.692 329.952 162.335C330.508 162.978 330.786 163.944 330.786 165.233C330.786 166.086 330.658 166.801 330.403 167.38C330.148 167.959 329.788 168.396 329.323 168.692C328.862 168.989 328.318 169.137 327.689 169.137C327.292 169.137 326.944 169.084 326.643 168.979C326.342 168.875 326.085 168.733 325.871 168.556C325.656 168.378 325.479 168.184 325.337 167.975H325.255C325.269 168.152 325.285 168.367 325.303 168.617C325.326 168.868 325.337 169.087 325.337 169.273V172.35H324.196V161.508H325.132L325.283 162.615H325.337C325.483 162.387 325.661 162.18 325.871 161.993C326.08 161.802 326.335 161.651 326.636 161.542C326.942 161.428 327.302 161.371 327.716 161.371ZM327.518 162.328C326.999 162.328 326.579 162.428 326.26 162.629C325.946 162.829 325.716 163.13 325.57 163.531C325.424 163.928 325.347 164.427 325.337 165.028V165.247C325.337 165.881 325.406 166.416 325.542 166.854C325.684 167.291 325.914 167.624 326.233 167.852C326.556 168.079 326.989 168.193 327.532 168.193C327.997 168.193 328.384 168.068 328.694 167.817C329.004 167.567 329.234 167.218 329.384 166.771C329.539 166.32 329.617 165.803 329.617 165.22C329.617 164.336 329.444 163.634 329.097 163.114C328.755 162.59 328.229 162.328 327.518 162.328ZM339.388 165.24C339.388 165.855 339.308 166.405 339.149 166.888C338.989 167.371 338.759 167.779 338.458 168.111C338.158 168.444 337.793 168.699 337.365 168.877C336.941 169.05 336.46 169.137 335.922 169.137C335.421 169.137 334.961 169.05 334.541 168.877C334.127 168.699 333.767 168.444 333.461 168.111C333.161 167.779 332.926 167.371 332.757 166.888C332.593 166.405 332.511 165.855 332.511 165.24C332.511 164.42 332.65 163.723 332.928 163.148C333.206 162.57 333.603 162.13 334.118 161.829C334.637 161.524 335.255 161.371 335.97 161.371C336.654 161.371 337.251 161.524 337.761 161.829C338.276 162.134 338.675 162.576 338.957 163.155C339.244 163.729 339.388 164.424 339.388 165.24ZM333.687 165.24C333.687 165.842 333.767 166.364 333.926 166.806C334.086 167.248 334.332 167.59 334.664 167.831C334.997 168.073 335.425 168.193 335.95 168.193C336.469 168.193 336.895 168.073 337.228 167.831C337.565 167.59 337.814 167.248 337.973 166.806C338.133 166.364 338.212 165.842 338.212 165.24C338.212 164.643 338.133 164.128 337.973 163.695C337.814 163.258 337.567 162.921 337.235 162.684C336.902 162.447 336.471 162.328 335.943 162.328C335.163 162.328 334.591 162.586 334.227 163.101C333.867 163.616 333.687 164.329 333.687 165.24ZM342.645 161.508V169H341.51V161.508H342.645ZM342.091 158.705C342.278 158.705 342.437 158.767 342.57 158.89C342.706 159.008 342.775 159.195 342.775 159.45C342.775 159.701 342.706 159.888 342.57 160.011C342.437 160.134 342.278 160.195 342.091 160.195C341.895 160.195 341.731 160.134 341.599 160.011C341.471 159.888 341.407 159.701 341.407 159.45C341.407 159.195 341.471 159.008 341.599 158.89C341.731 158.767 341.895 158.705 342.091 158.705ZM348.759 161.371C349.647 161.371 350.32 161.59 350.775 162.027C351.231 162.46 351.459 163.158 351.459 164.119V169H350.338V164.194C350.338 163.57 350.194 163.103 349.907 162.793C349.625 162.483 349.189 162.328 348.602 162.328C347.772 162.328 347.189 162.563 346.852 163.032C346.514 163.502 346.346 164.183 346.346 165.076V169H345.211V161.508H346.127L346.298 162.588H346.359C346.519 162.324 346.722 162.103 346.968 161.925C347.214 161.743 347.49 161.606 347.795 161.515C348.1 161.419 348.422 161.371 348.759 161.371ZM356.377 168.207C356.564 168.207 356.755 168.191 356.951 168.159C357.147 168.127 357.307 168.089 357.43 168.043V168.925C357.297 168.984 357.113 169.034 356.876 169.075C356.643 169.116 356.416 169.137 356.192 169.137C355.796 169.137 355.436 169.068 355.112 168.932C354.789 168.79 354.529 168.553 354.333 168.221C354.141 167.888 354.046 167.428 354.046 166.84V162.396H352.979V161.843L354.053 161.398L354.504 159.771H355.187V161.508H357.382V162.396H355.187V166.806C355.187 167.275 355.294 167.626 355.509 167.858C355.727 168.091 356.017 168.207 356.377 168.207Z" fill="black"/>
<rect x="16.5" y="112.5" width="99" height="39" rx="4.5" fill="white"/>
<rect x="16.5" y="112.5" width="99" height="39" rx="4.5" stroke="#82A4D9"/>
<path d="M29.9277 127.006V133.473C29.9277 134.179 29.7842 134.808 29.4971 135.359C29.2145 135.911 28.7861 136.346 28.2119 136.665C27.6377 136.979 26.9176 137.137 26.0518 137.137C24.8167 137.137 23.8757 136.802 23.2285 136.132C22.5859 135.462 22.2646 134.566 22.2646 133.445V127.006H23.4336V133.479C23.4336 134.327 23.6569 134.981 24.1035 135.441C24.5547 135.902 25.2269 136.132 26.1201 136.132C26.7308 136.132 27.2298 136.022 27.6172 135.804C28.0091 135.58 28.2985 135.271 28.4854 134.874C28.6768 134.473 28.7725 134.01 28.7725 133.486V127.006H29.9277ZM37.4159 134.949C37.4159 135.428 37.2951 135.831 37.0536 136.159C36.8166 136.483 36.4748 136.727 36.0282 136.891C35.5861 137.055 35.0575 137.137 34.4422 137.137C33.9181 137.137 33.4647 137.096 33.0819 137.014C32.6991 136.932 32.3641 136.815 32.077 136.665V135.619C32.3823 135.77 32.7469 135.906 33.1707 136.029C33.5946 136.152 34.0275 136.214 34.4696 136.214C35.1167 136.214 35.5861 136.109 35.8778 135.899C36.1694 135.69 36.3153 135.405 36.3153 135.045C36.3153 134.84 36.256 134.66 36.1375 134.505C36.0236 134.345 35.8299 134.193 35.5565 134.047C35.283 133.896 34.9048 133.732 34.4217 133.555C33.9432 133.372 33.5285 133.192 33.1776 133.015C32.8312 132.832 32.5623 132.611 32.3709 132.352C32.1841 132.092 32.0907 131.755 32.0907 131.34C32.0907 130.706 32.3459 130.221 32.8563 129.884C33.3713 129.542 34.0457 129.371 34.8797 129.371C35.3309 129.371 35.7524 129.417 36.1444 129.508C36.5409 129.594 36.91 129.713 37.2518 129.863L36.869 130.772C36.5591 130.64 36.2287 130.529 35.8778 130.438C35.5269 130.346 35.1691 130.301 34.8045 130.301C34.2804 130.301 33.8771 130.387 33.5946 130.561C33.3166 130.734 33.1776 130.971 33.1776 131.271C33.1776 131.504 33.2414 131.695 33.369 131.846C33.5011 131.996 33.7108 132.137 33.9979 132.27C34.285 132.402 34.6633 132.557 35.1327 132.734C35.6021 132.908 36.0077 133.088 36.3495 133.274C36.6912 133.457 36.9533 133.68 37.1356 133.944C37.3224 134.204 37.4159 134.539 37.4159 134.949ZM42.2858 129.371C42.9238 129.371 43.4707 129.512 43.9264 129.795C44.3822 130.077 44.7308 130.474 44.9723 130.984C45.2139 131.49 45.3346 132.083 45.3346 132.762V133.466H40.1598C40.1735 134.345 40.3923 135.015 40.8161 135.476C41.2399 135.936 41.8369 136.166 42.6071 136.166C43.0811 136.166 43.5003 136.123 43.8649 136.036C44.2295 135.95 44.6078 135.822 44.9997 135.653V136.651C44.6214 136.82 44.2455 136.943 43.8718 137.021C43.5026 137.098 43.0651 137.137 42.5593 137.137C41.8392 137.137 41.2103 136.991 40.6725 136.699C40.1393 136.403 39.7246 135.97 39.4284 135.4C39.1322 134.831 38.9841 134.133 38.9841 133.309C38.9841 132.502 39.1185 131.805 39.3874 131.217C39.6608 130.624 40.0436 130.169 40.5358 129.85C41.0326 129.531 41.6159 129.371 42.2858 129.371ZM42.2721 130.301C41.666 130.301 41.183 130.499 40.8229 130.896C40.4629 131.292 40.2487 131.846 40.1804 132.557H44.1452C44.1406 132.11 44.07 131.718 43.9333 131.381C43.8011 131.039 43.5983 130.775 43.3249 130.588C43.0514 130.396 42.7005 130.301 42.2721 130.301ZM50.8267 129.371C50.9771 129.371 51.1343 129.38 51.2984 129.398C51.4624 129.412 51.6083 129.433 51.7359 129.46L51.5923 130.513C51.4693 130.481 51.3325 130.456 51.1821 130.438C51.0318 130.419 50.8905 130.41 50.7583 130.41C50.4575 130.41 50.1727 130.472 49.9038 130.595C49.6395 130.713 49.4071 130.886 49.2066 131.114C49.006 131.338 48.8488 131.609 48.7349 131.928C48.621 132.242 48.564 132.593 48.564 132.98V137H47.4224V129.508H48.3657L48.4888 130.889H48.5366C48.6916 130.611 48.8784 130.358 49.0972 130.13C49.3159 129.897 49.5689 129.713 49.856 129.576C50.1476 129.439 50.4712 129.371 50.8267 129.371ZM58.2424 126.363V129.022C58.2424 129.328 58.2333 129.624 58.215 129.911C58.2014 130.198 58.19 130.422 58.1809 130.581H58.2424C58.4475 130.244 58.7437 129.959 59.1311 129.727C59.5184 129.494 60.0129 129.378 60.6145 129.378C61.5533 129.378 62.3007 129.704 62.8566 130.355C63.4172 131.003 63.6975 131.966 63.6975 133.247C63.6975 134.09 63.5699 134.801 63.3146 135.38C63.0594 135.959 62.6994 136.396 62.2346 136.692C61.7697 136.989 61.2206 137.137 60.5871 137.137C59.9947 137.137 59.507 137.027 59.1242 136.809C58.746 136.585 58.4543 136.314 58.2492 135.995H58.1604L57.9279 137H57.1076V126.363H58.2424ZM60.4299 130.328C59.8876 130.328 59.4569 130.435 59.1379 130.649C58.8189 130.859 58.5887 131.178 58.4475 131.606C58.3107 132.03 58.2424 132.568 58.2424 133.22V133.281C58.2424 134.225 58.3996 134.947 58.7141 135.448C59.0285 135.945 59.6005 136.193 60.4299 136.193C61.1271 136.193 61.649 135.938 61.9953 135.428C62.3462 134.917 62.5217 134.188 62.5217 133.24C62.5217 132.274 62.3485 131.547 62.0021 131.06C61.6604 130.572 61.1363 130.328 60.4299 130.328ZM69.2442 129.371C69.3946 129.371 69.5518 129.38 69.7159 129.398C69.8799 129.412 70.0258 129.433 70.1534 129.46L70.0098 130.513C69.8868 130.481 69.75 130.456 69.5996 130.438C69.4493 130.419 69.308 130.41 69.1758 130.41C68.875 130.41 68.5902 130.472 68.3213 130.595C68.057 130.713 67.8246 130.886 67.6241 131.114C67.4235 131.338 67.2663 131.609 67.1524 131.928C67.0384 132.242 66.9815 132.593 66.9815 132.98V137H65.8399V129.508H66.7832L66.9063 130.889H66.9541C67.1091 130.611 67.2959 130.358 67.5147 130.13C67.7334 129.897 67.9864 129.713 68.2735 129.576C68.5651 129.439 68.8887 129.371 69.2442 129.371ZM78.1884 133.24C78.1884 133.855 78.1086 134.405 77.9491 134.888C77.7896 135.371 77.5595 135.779 77.2587 136.111C76.9579 136.444 76.5933 136.699 76.1649 136.877C75.7411 137.05 75.2603 137.137 74.7225 137.137C74.2212 137.137 73.7609 137.05 73.3417 136.877C72.927 136.699 72.5669 136.444 72.2616 136.111C71.9608 135.779 71.7261 135.371 71.5575 134.888C71.3934 134.405 71.3114 133.855 71.3114 133.24C71.3114 132.42 71.4504 131.723 71.7284 131.148C72.0064 130.57 72.4029 130.13 72.9179 129.829C73.4374 129.524 74.0549 129.371 74.7704 129.371C75.454 129.371 76.051 129.524 76.5614 129.829C77.0764 130.134 77.4751 130.576 77.7577 131.155C78.0448 131.729 78.1884 132.424 78.1884 133.24ZM72.4872 133.24C72.4872 133.842 72.5669 134.364 72.7264 134.806C72.8859 135.248 73.132 135.59 73.4647 135.831C73.7974 136.073 74.2258 136.193 74.7499 136.193C75.2694 136.193 75.6955 136.073 76.0282 135.831C76.3654 135.59 76.6138 135.248 76.7733 134.806C76.9328 134.364 77.0126 133.842 77.0126 133.24C77.0126 132.643 76.9328 132.128 76.7733 131.695C76.6138 131.258 76.3677 130.921 76.035 130.684C75.7024 130.447 75.2717 130.328 74.743 130.328C73.9637 130.328 73.3918 130.586 73.0272 131.101C72.6672 131.616 72.4872 132.329 72.4872 133.24ZM86.4079 136.986L85.0749 132.625C85.0157 132.438 84.9587 132.256 84.904 132.078C84.8539 131.896 84.806 131.723 84.7605 131.559C84.7195 131.39 84.6807 131.235 84.6443 131.094C84.6124 130.948 84.585 130.823 84.5622 130.718H84.5144C84.4961 130.823 84.4711 130.948 84.4392 131.094C84.4073 131.235 84.3685 131.39 84.323 131.559C84.282 131.727 84.2364 131.905 84.1862 132.092C84.1361 132.274 84.0792 132.459 84.0154 132.646L82.6208 136.986H81.3425L79.278 129.494H80.4538L81.5339 133.63C81.6068 133.903 81.6752 134.174 81.739 134.443C81.8073 134.708 81.8643 134.958 81.9099 135.195C81.96 135.428 81.9965 135.631 82.0193 135.804H82.0739C82.1013 135.69 82.1309 135.553 82.1628 135.394C82.1993 135.234 82.238 135.065 82.279 134.888C82.3246 134.705 82.3724 134.525 82.4226 134.348C82.4727 134.165 82.5228 133.994 82.573 133.835L83.9538 129.494H85.1775L86.5105 133.828C86.5788 134.047 86.6449 134.275 86.7087 134.512C86.7771 134.749 86.8386 134.979 86.8933 135.202C86.948 135.421 86.9867 135.617 87.0095 135.79H87.0642C87.0824 135.635 87.1166 135.444 87.1667 135.216C87.2168 134.988 87.2738 134.737 87.3376 134.464C87.406 134.19 87.4766 133.912 87.5495 133.63L88.6433 129.494H89.7986L87.7273 136.986H86.4079ZM96.1724 134.949C96.1724 135.428 96.0517 135.831 95.8101 136.159C95.5731 136.483 95.2313 136.727 94.7847 136.891C94.3427 137.055 93.814 137.137 93.1988 137.137C92.6747 137.137 92.2213 137.096 91.8384 137.014C91.4556 136.932 91.1207 136.815 90.8336 136.665V135.619C91.1389 135.77 91.5035 135.906 91.9273 136.029C92.3511 136.152 92.7841 136.214 93.2261 136.214C93.8733 136.214 94.3427 136.109 94.6343 135.899C94.926 135.69 95.0718 135.405 95.0718 135.045C95.0718 134.84 95.0126 134.66 94.8941 134.505C94.7802 134.345 94.5865 134.193 94.313 134.047C94.0396 133.896 93.6614 133.732 93.1783 133.555C92.6998 133.372 92.2851 133.192 91.9341 133.015C91.5878 132.832 91.3189 132.611 91.1275 132.352C90.9407 132.092 90.8472 131.755 90.8472 131.34C90.8472 130.706 91.1024 130.221 91.6129 129.884C92.1278 129.542 92.8023 129.371 93.6363 129.371C94.0875 129.371 94.509 129.417 94.9009 129.508C95.2974 129.594 95.6666 129.713 96.0084 129.863L95.6255 130.772C95.3157 130.64 94.9852 130.529 94.6343 130.438C94.2834 130.346 93.9257 130.301 93.5611 130.301C93.037 130.301 92.6337 130.387 92.3511 130.561C92.0731 130.734 91.9341 130.971 91.9341 131.271C91.9341 131.504 91.9979 131.695 92.1255 131.846C92.2577 131.996 92.4673 132.137 92.7545 132.27C93.0416 132.402 93.4198 132.557 93.8892 132.734C94.3586 132.908 94.7642 133.088 95.106 133.274C95.4478 133.457 95.7099 133.68 95.8922 133.944C96.079 134.204 96.1724 134.539 96.1724 134.949ZM101.042 129.371C101.68 129.371 102.227 129.512 102.683 129.795C103.139 130.077 103.487 130.474 103.729 130.984C103.97 131.49 104.091 132.083 104.091 132.762V133.466H98.9164C98.9301 134.345 99.1488 135.015 99.5727 135.476C99.9965 135.936 100.593 136.166 101.364 136.166C101.838 136.166 102.257 136.123 102.621 136.036C102.986 135.95 103.364 135.822 103.756 135.653V136.651C103.378 136.82 103.002 136.943 102.628 137.021C102.259 137.098 101.822 137.137 101.316 137.137C100.596 137.137 99.9669 136.991 99.4291 136.699C98.8959 136.403 98.4812 135.97 98.185 135.4C97.8887 134.831 97.7406 134.133 97.7406 133.309C97.7406 132.502 97.8751 131.805 98.1439 131.217C98.4174 130.624 98.8002 130.169 99.2924 129.85C99.7891 129.531 100.372 129.371 101.042 129.371ZM101.029 130.301C100.423 130.301 99.9395 130.499 99.5795 130.896C99.2195 131.292 99.0053 131.846 98.9369 132.557H102.902C102.897 132.11 102.827 131.718 102.69 131.381C102.558 131.039 102.355 130.775 102.081 130.588C101.808 130.396 101.457 130.301 101.029 130.301ZM109.583 129.371C109.734 129.371 109.891 129.38 110.055 129.398C110.219 129.412 110.365 129.433 110.492 129.46L110.349 130.513C110.226 130.481 110.089 130.456 109.939 130.438C109.788 130.419 109.647 130.41 109.515 130.41C109.214 130.41 108.929 130.472 108.66 130.595C108.396 130.713 108.164 130.886 107.963 131.114C107.763 131.338 107.605 131.609 107.491 131.928C107.378 132.242 107.321 132.593 107.321 132.98V137H106.179V129.508H107.122L107.245 130.889H107.293C107.448 130.611 107.635 130.358 107.854 130.13C108.073 129.897 108.325 129.713 108.613 129.576C108.904 129.439 109.228 129.371 109.583 129.371Z" fill="black"/>
<rect x="546.5" y="112.5" width="92" height="62" rx="4.5" fill="white"/>
<rect x="546.5" y="112.5" width="92" height="62" rx="4.5" stroke="#82A4D9"/>
<path d="M556.367 128.5V118.506H557.529V128.5H556.367ZM562.932 128.637C561.985 128.637 561.233 128.313 560.677 127.666C560.125 127.019 559.849 126.057 559.849 124.781C559.849 123.492 560.132 122.519 560.697 121.862C561.262 121.201 562.014 120.871 562.953 120.871C563.349 120.871 563.696 120.924 563.992 121.028C564.288 121.133 564.543 121.274 564.758 121.452C564.972 121.625 565.152 121.824 565.298 122.047H565.38C565.361 121.906 565.343 121.712 565.325 121.466C565.307 121.22 565.298 121.019 565.298 120.864V117.863H566.432V128.5H565.516L565.346 127.434H565.298C565.156 127.657 564.976 127.86 564.758 128.042C564.543 128.224 564.286 128.37 563.985 128.479C563.689 128.584 563.338 128.637 562.932 128.637ZM563.11 127.693C563.912 127.693 564.48 127.465 564.812 127.01C565.145 126.554 565.311 125.877 565.311 124.979V124.774C565.311 123.822 565.152 123.09 564.833 122.58C564.518 122.07 563.944 121.814 563.11 121.814C562.413 121.814 561.891 122.083 561.545 122.621C561.198 123.154 561.025 123.883 561.025 124.809C561.025 125.729 561.196 126.44 561.538 126.941C561.884 127.443 562.408 127.693 563.11 127.693ZM571.883 120.871C572.521 120.871 573.068 121.012 573.524 121.295C573.98 121.577 574.328 121.974 574.57 122.484C574.812 122.99 574.932 123.583 574.932 124.262V124.966H569.757C569.771 125.845 569.99 126.515 570.414 126.976C570.838 127.436 571.435 127.666 572.205 127.666C572.679 127.666 573.098 127.623 573.463 127.536C573.827 127.45 574.205 127.322 574.597 127.153V128.151C574.219 128.32 573.843 128.443 573.469 128.521C573.1 128.598 572.663 128.637 572.157 128.637C571.437 128.637 570.808 128.491 570.27 128.199C569.737 127.903 569.322 127.47 569.026 126.9C568.73 126.331 568.582 125.633 568.582 124.809C568.582 124.002 568.716 123.305 568.985 122.717C569.258 122.124 569.641 121.669 570.133 121.35C570.63 121.031 571.214 120.871 571.883 120.871ZM571.87 121.801C571.264 121.801 570.781 121.999 570.421 122.396C570.061 122.792 569.846 123.346 569.778 124.057H573.743C573.738 123.61 573.668 123.218 573.531 122.881C573.399 122.539 573.196 122.275 572.923 122.088C572.649 121.896 572.298 121.801 571.87 121.801ZM580.568 120.871C581.457 120.871 582.129 121.09 582.584 121.527C583.04 121.96 583.268 122.658 583.268 123.619V128.5H582.147V123.694C582.147 123.07 582.003 122.603 581.716 122.293C581.434 121.983 580.999 121.828 580.411 121.828C579.581 121.828 578.998 122.063 578.661 122.532C578.323 123.002 578.155 123.683 578.155 124.576V128.5H577.02V121.008H577.936L578.107 122.088H578.168C578.328 121.824 578.531 121.603 578.777 121.425C579.023 121.243 579.299 121.106 579.604 121.015C579.909 120.919 580.231 120.871 580.568 120.871ZM588.186 127.707C588.373 127.707 588.564 127.691 588.76 127.659C588.956 127.627 589.116 127.589 589.239 127.543V128.425C589.106 128.484 588.922 128.534 588.685 128.575C588.452 128.616 588.225 128.637 588.001 128.637C587.605 128.637 587.245 128.568 586.921 128.432C586.598 128.29 586.338 128.053 586.142 127.721C585.951 127.388 585.855 126.928 585.855 126.34V121.896H584.788V121.343L585.862 120.898L586.313 119.271H586.996V121.008H589.191V121.896H586.996V126.306C586.996 126.775 587.104 127.126 587.318 127.358C587.536 127.591 587.826 127.707 588.186 127.707ZM592.051 121.008V128.5H590.916V121.008H592.051ZM591.497 118.205C591.684 118.205 591.844 118.267 591.976 118.39C592.112 118.508 592.181 118.695 592.181 118.95C592.181 119.201 592.112 119.388 591.976 119.511C591.844 119.634 591.684 119.695 591.497 119.695C591.301 119.695 591.137 119.634 591.005 119.511C590.877 119.388 590.814 119.201 590.814 118.95C590.814 118.695 590.877 118.508 591.005 118.39C591.137 118.267 591.301 118.205 591.497 118.205ZM597.037 127.707C597.224 127.707 597.415 127.691 597.611 127.659C597.807 127.627 597.967 127.589 598.09 127.543V128.425C597.958 128.484 597.773 128.534 597.536 128.575C597.304 128.616 597.076 128.637 596.853 128.637C596.456 128.637 596.096 128.568 595.772 128.432C595.449 128.29 595.189 128.053 594.993 127.721C594.802 127.388 594.706 126.928 594.706 126.34V121.896H593.64V121.343L594.713 120.898L595.164 119.271H595.848V121.008H598.042V121.896H595.848V126.306C595.848 126.775 595.955 127.126 596.169 127.358C596.388 127.591 596.677 127.707 597.037 127.707ZM598.585 121.008H599.802L601.456 125.355C601.552 125.611 601.641 125.857 601.723 126.094C601.805 126.326 601.877 126.549 601.941 126.764C602.005 126.978 602.055 127.185 602.092 127.386H602.14C602.203 127.158 602.294 126.859 602.413 126.49C602.531 126.117 602.659 125.736 602.796 125.349L604.361 121.008H605.585L602.324 129.601C602.151 130.061 601.948 130.462 601.716 130.804C601.488 131.146 601.21 131.408 600.882 131.59C600.554 131.777 600.157 131.87 599.692 131.87C599.478 131.87 599.289 131.856 599.125 131.829C598.961 131.806 598.82 131.779 598.701 131.747V130.838C598.801 130.861 598.922 130.881 599.063 130.899C599.209 130.918 599.36 130.927 599.515 130.927C599.797 130.927 600.041 130.872 600.246 130.763C600.456 130.658 600.636 130.503 600.786 130.298C600.936 130.093 601.066 129.849 601.176 129.566L601.586 128.514L598.585 121.008ZM563.514 140.871C564.448 140.871 565.193 141.192 565.749 141.835C566.305 142.478 566.583 143.444 566.583 144.733C566.583 145.586 566.455 146.301 566.2 146.88C565.945 147.459 565.585 147.896 565.12 148.192C564.66 148.489 564.115 148.637 563.486 148.637C563.09 148.637 562.741 148.584 562.44 148.479C562.139 148.375 561.882 148.233 561.668 148.056C561.454 147.878 561.276 147.684 561.135 147.475H561.053C561.066 147.652 561.082 147.867 561.1 148.117C561.123 148.368 561.135 148.587 561.135 148.773V151.85H559.993V141.008H560.93L561.08 142.115H561.135C561.28 141.887 561.458 141.68 561.668 141.493C561.877 141.302 562.133 141.151 562.433 141.042C562.739 140.928 563.099 140.871 563.514 140.871ZM563.315 141.828C562.796 141.828 562.376 141.928 562.057 142.129C561.743 142.329 561.513 142.63 561.367 143.031C561.221 143.428 561.144 143.927 561.135 144.528V144.747C561.135 145.381 561.203 145.916 561.34 146.354C561.481 146.791 561.711 147.124 562.03 147.352C562.354 147.579 562.787 147.693 563.329 147.693C563.794 147.693 564.181 147.568 564.491 147.317C564.801 147.067 565.031 146.718 565.181 146.271C565.336 145.82 565.414 145.303 565.414 144.72C565.414 143.836 565.241 143.134 564.894 142.614C564.553 142.09 564.026 141.828 563.315 141.828ZM572.13 140.871C572.28 140.871 572.437 140.88 572.601 140.898C572.765 140.912 572.911 140.933 573.039 140.96L572.895 142.013C572.772 141.981 572.635 141.956 572.485 141.938C572.335 141.919 572.193 141.91 572.061 141.91C571.76 141.91 571.476 141.972 571.207 142.095C570.942 142.213 570.71 142.386 570.509 142.614C570.309 142.838 570.152 143.109 570.038 143.428C569.924 143.742 569.867 144.093 569.867 144.48V148.5H568.725V141.008H569.669L569.792 142.389H569.84C569.994 142.111 570.181 141.858 570.4 141.63C570.619 141.397 570.872 141.213 571.159 141.076C571.451 140.939 571.774 140.871 572.13 140.871ZM581.074 144.74C581.074 145.355 580.994 145.905 580.834 146.388C580.675 146.871 580.445 147.279 580.144 147.611C579.843 147.944 579.479 148.199 579.05 148.377C578.626 148.55 578.146 148.637 577.608 148.637C577.107 148.637 576.646 148.55 576.227 148.377C575.812 148.199 575.452 147.944 575.147 147.611C574.846 147.279 574.612 146.871 574.443 146.388C574.279 145.905 574.197 145.355 574.197 144.74C574.197 143.92 574.336 143.223 574.614 142.648C574.892 142.07 575.288 141.63 575.803 141.329C576.323 141.024 576.94 140.871 577.656 140.871C578.339 140.871 578.936 141.024 579.447 141.329C579.962 141.634 580.361 142.076 580.643 142.655C580.93 143.229 581.074 143.924 581.074 144.74ZM575.373 144.74C575.373 145.342 575.452 145.864 575.612 146.306C575.771 146.748 576.017 147.09 576.35 147.331C576.683 147.573 577.111 147.693 577.635 147.693C578.155 147.693 578.581 147.573 578.914 147.331C579.251 147.09 579.499 146.748 579.659 146.306C579.818 145.864 579.898 145.342 579.898 144.74C579.898 144.143 579.818 143.628 579.659 143.195C579.499 142.758 579.253 142.421 578.92 142.184C578.588 141.947 578.157 141.828 577.628 141.828C576.849 141.828 576.277 142.086 575.913 142.601C575.553 143.116 575.373 143.829 575.373 144.74ZM584.843 148.5L581.999 141.008H583.216L584.864 145.54C584.978 145.85 585.094 146.192 585.212 146.565C585.331 146.939 585.413 147.24 585.458 147.468H585.506C585.561 147.24 585.652 146.939 585.78 146.565C585.907 146.187 586.023 145.845 586.128 145.54L587.776 141.008H588.993L586.142 148.5H584.843ZM591.49 141.008V148.5H590.356V141.008H591.49ZM590.937 138.205C591.124 138.205 591.283 138.267 591.415 138.39C591.552 138.508 591.62 138.695 591.62 138.95C591.62 139.201 591.552 139.388 591.415 139.511C591.283 139.634 591.124 139.695 590.937 139.695C590.741 139.695 590.577 139.634 590.445 139.511C590.317 139.388 590.253 139.201 590.253 138.95C590.253 138.695 590.317 138.508 590.445 138.39C590.577 138.267 590.741 138.205 590.937 138.205ZM596.723 148.637C595.775 148.637 595.023 148.313 594.467 147.666C593.915 147.019 593.64 146.057 593.64 144.781C593.64 143.492 593.922 142.519 594.487 141.862C595.052 141.201 595.804 140.871 596.743 140.871C597.14 140.871 597.486 140.924 597.782 141.028C598.078 141.133 598.334 141.274 598.548 141.452C598.762 141.625 598.942 141.824 599.088 142.047H599.17C599.152 141.906 599.134 141.712 599.115 141.466C599.097 141.22 599.088 141.019 599.088 140.864V137.863H600.223V148.5H599.307L599.136 147.434H599.088C598.947 147.657 598.767 147.86 598.548 148.042C598.334 148.224 598.076 148.37 597.775 148.479C597.479 148.584 597.128 148.637 596.723 148.637ZM596.9 147.693C597.703 147.693 598.27 147.465 598.603 147.01C598.935 146.554 599.102 145.877 599.102 144.979V144.774C599.102 143.822 598.942 143.09 598.623 142.58C598.309 142.07 597.734 141.814 596.9 141.814C596.203 141.814 595.681 142.083 595.335 142.621C594.989 143.154 594.815 143.883 594.815 144.809C594.815 145.729 594.986 146.44 595.328 146.941C595.675 147.443 596.199 147.693 596.9 147.693ZM605.674 140.871C606.312 140.871 606.859 141.012 607.314 141.295C607.77 141.577 608.119 141.974 608.36 142.484C608.602 142.99 608.723 143.583 608.723 144.262V144.966H603.548C603.561 145.845 603.78 146.515 604.204 146.976C604.628 147.436 605.225 147.666 605.995 147.666C606.469 147.666 606.888 147.623 607.253 147.536C607.617 147.45 607.996 147.322 608.388 147.153V148.151C608.009 148.32 607.633 148.443 607.26 148.521C606.891 148.598 606.453 148.637 605.947 148.637C605.227 148.637 604.598 148.491 604.06 148.199C603.527 147.903 603.113 147.47 602.816 146.9C602.52 146.331 602.372 145.633 602.372 144.809C602.372 144.002 602.506 143.305 602.775 142.717C603.049 142.124 603.432 141.669 603.924 141.35C604.42 141.031 605.004 140.871 605.674 140.871ZM605.66 141.801C605.054 141.801 604.571 141.999 604.211 142.396C603.851 142.792 603.637 143.346 603.568 144.057H607.533C607.529 143.61 607.458 143.218 607.321 142.881C607.189 142.539 606.986 142.275 606.713 142.088C606.439 141.896 606.088 141.801 605.66 141.801ZM614.215 140.871C614.365 140.871 614.522 140.88 614.686 140.898C614.85 140.912 614.996 140.933 615.124 140.96L614.98 142.013C614.857 141.981 614.72 141.956 614.57 141.938C614.42 141.919 614.278 141.91 614.146 141.91C613.845 141.91 613.561 141.972 613.292 142.095C613.027 142.213 612.795 142.386 612.594 142.614C612.394 142.838 612.237 143.109 612.123 143.428C612.009 143.742 611.952 144.093 611.952 144.48V148.5H610.81V141.008H611.754L611.877 142.389H611.925C612.079 142.111 612.266 141.858 612.485 141.63C612.704 141.397 612.957 141.213 613.244 141.076C613.536 140.939 613.859 140.871 614.215 140.871ZM559.081 160.871C559.719 160.871 560.266 161.012 560.722 161.295C561.177 161.577 561.526 161.974 561.768 162.484C562.009 162.99 562.13 163.583 562.13 164.262V164.966H556.955C556.969 165.845 557.188 166.515 557.611 166.976C558.035 167.436 558.632 167.666 559.402 167.666C559.876 167.666 560.296 167.623 560.66 167.536C561.025 167.45 561.403 167.322 561.795 167.153V168.151C561.417 168.32 561.041 168.443 560.667 168.521C560.298 168.598 559.86 168.637 559.354 168.637C558.634 168.637 558.006 168.491 557.468 168.199C556.935 167.903 556.52 167.47 556.224 166.9C555.927 166.331 555.779 165.633 555.779 164.809C555.779 164.002 555.914 163.305 556.183 162.717C556.456 162.124 556.839 161.669 557.331 161.35C557.828 161.031 558.411 160.871 559.081 160.871ZM559.067 161.801C558.461 161.801 557.978 161.999 557.618 162.396C557.258 162.792 557.044 163.346 556.976 164.057H560.94C560.936 163.61 560.865 163.218 560.729 162.881C560.596 162.539 560.394 162.275 560.12 162.088C559.847 161.896 559.496 161.801 559.067 161.801ZM564.047 167.789C564.047 167.47 564.124 167.244 564.279 167.112C564.434 166.976 564.623 166.907 564.847 166.907C565.079 166.907 565.275 166.976 565.434 167.112C565.594 167.244 565.674 167.47 565.674 167.789C565.674 168.104 565.594 168.334 565.434 168.479C565.275 168.621 565.079 168.691 564.847 168.691C564.623 168.691 564.434 168.621 564.279 168.479C564.124 168.334 564.047 168.104 564.047 167.789ZM570.147 171.863C569.163 171.863 568.404 171.679 567.871 171.31C567.338 170.945 567.071 170.432 567.071 169.771C567.071 169.302 567.219 168.901 567.515 168.568C567.816 168.236 568.231 168.015 568.759 167.905C568.563 167.814 568.395 167.677 568.254 167.495C568.117 167.313 568.049 167.103 568.049 166.866C568.049 166.593 568.124 166.354 568.274 166.148C568.429 165.939 568.664 165.738 568.978 165.547C568.586 165.387 568.267 165.118 568.021 164.74C567.78 164.357 567.659 163.913 567.659 163.407C567.659 162.869 567.771 162.411 567.994 162.033C568.217 161.65 568.541 161.359 568.965 161.158C569.388 160.958 569.901 160.857 570.503 160.857C570.635 160.857 570.767 160.864 570.899 160.878C571.036 160.887 571.166 160.903 571.289 160.926C571.412 160.944 571.519 160.967 571.61 160.994H574.18V161.726L572.799 161.896C572.936 162.074 573.05 162.288 573.141 162.539C573.232 162.79 573.278 163.068 573.278 163.373C573.278 164.12 573.025 164.715 572.519 165.157C572.013 165.595 571.318 165.813 570.434 165.813C570.225 165.813 570.01 165.795 569.792 165.759C569.568 165.882 569.397 166.019 569.279 166.169C569.165 166.319 569.108 166.493 569.108 166.688C569.108 166.834 569.151 166.951 569.238 167.037C569.329 167.124 569.459 167.188 569.628 167.229C569.796 167.265 569.999 167.283 570.236 167.283H571.555C572.371 167.283 572.995 167.454 573.428 167.796C573.866 168.138 574.085 168.637 574.085 169.293C574.085 170.122 573.747 170.758 573.073 171.2C572.398 171.642 571.423 171.863 570.147 171.863ZM570.181 170.975C570.801 170.975 571.314 170.911 571.719 170.783C572.13 170.66 572.435 170.48 572.635 170.243C572.841 170.011 572.943 169.733 572.943 169.409C572.943 169.108 572.875 168.881 572.738 168.726C572.601 168.575 572.401 168.475 572.136 168.425C571.872 168.37 571.549 168.343 571.166 168.343H569.867C569.53 168.343 569.236 168.395 568.985 168.5C568.734 168.605 568.541 168.76 568.404 168.965C568.272 169.17 568.206 169.425 568.206 169.73C568.206 170.136 568.377 170.444 568.718 170.653C569.06 170.868 569.548 170.975 570.181 170.975ZM570.475 164.986C571.018 164.986 571.425 164.85 571.699 164.576C571.972 164.303 572.109 163.904 572.109 163.38C572.109 162.819 571.97 162.4 571.692 162.122C571.414 161.84 571.004 161.698 570.462 161.698C569.942 161.698 569.541 161.844 569.258 162.136C568.98 162.423 568.841 162.844 568.841 163.4C568.841 163.911 568.983 164.303 569.265 164.576C569.548 164.85 569.951 164.986 570.475 164.986ZM575.646 167.789C575.646 167.47 575.723 167.244 575.878 167.112C576.033 166.976 576.223 166.907 576.446 166.907C576.678 166.907 576.874 166.976 577.034 167.112C577.193 167.244 577.273 167.47 577.273 167.789C577.273 168.104 577.193 168.334 577.034 168.479C576.874 168.621 576.678 168.691 576.446 168.691C576.223 168.691 576.033 168.621 575.878 168.479C575.723 168.334 575.646 168.104 575.646 167.789ZM587.895 163.264H591.388V168.11C590.864 168.288 590.324 168.42 589.768 168.507C589.216 168.593 588.599 168.637 587.915 168.637C586.876 168.637 585.999 168.429 585.283 168.015C584.572 167.6 584.032 167.01 583.663 166.244C583.294 165.474 583.11 164.56 583.11 163.503C583.11 162.468 583.312 161.566 583.718 160.796C584.128 160.026 584.718 159.429 585.488 159.005C586.263 158.576 587.193 158.362 588.278 158.362C588.834 158.362 589.36 158.415 589.857 158.52C590.358 158.62 590.823 158.763 591.251 158.95L590.807 159.962C590.438 159.802 590.03 159.666 589.583 159.552C589.141 159.438 588.683 159.381 588.209 159.381C587.393 159.381 586.694 159.549 586.111 159.887C585.532 160.224 585.087 160.7 584.778 161.315C584.472 161.931 584.32 162.66 584.32 163.503C584.32 164.337 584.454 165.064 584.723 165.684C584.992 166.299 585.411 166.777 585.981 167.119C586.55 167.461 587.284 167.632 588.182 167.632C588.633 167.632 589.02 167.607 589.344 167.557C589.668 167.502 589.961 167.438 590.226 167.365V164.303H587.895V163.264ZM594.932 161.008V168.5H593.797V161.008H594.932ZM594.378 158.205C594.565 158.205 594.724 158.267 594.856 158.39C594.993 158.508 595.062 158.695 595.062 158.95C595.062 159.201 594.993 159.388 594.856 159.511C594.724 159.634 594.565 159.695 594.378 159.695C594.182 159.695 594.018 159.634 593.886 159.511C593.758 159.388 593.694 159.201 593.694 158.95C593.694 158.695 593.758 158.508 593.886 158.39C594.018 158.267 594.182 158.205 594.378 158.205ZM599.918 167.707C600.105 167.707 600.296 167.691 600.492 167.659C600.688 167.627 600.848 167.589 600.971 167.543V168.425C600.838 168.484 600.654 168.534 600.417 168.575C600.184 168.616 599.957 168.637 599.733 168.637C599.337 168.637 598.977 168.568 598.653 168.432C598.33 168.29 598.07 168.053 597.874 167.721C597.682 167.388 597.587 166.928 597.587 166.34V161.896H596.52V161.343L597.594 160.898L598.045 159.271H598.728V161.008H600.923V161.896H598.728V166.306C598.728 166.775 598.835 167.126 599.05 167.358C599.268 167.591 599.558 167.707 599.918 167.707ZM610.393 168.5H609.231V163.79H603.981V168.5H602.819V158.506H603.981V162.765H609.231V158.506H610.393V168.5ZM619.317 161.008V168.5H618.387L618.223 167.447H618.162C618.007 167.707 617.806 167.926 617.56 168.104C617.314 168.281 617.036 168.413 616.726 168.5C616.421 168.591 616.095 168.637 615.749 168.637C615.156 168.637 614.659 168.541 614.258 168.35C613.857 168.158 613.554 167.862 613.349 167.461C613.149 167.06 613.048 166.545 613.048 165.916V161.008H614.197V165.834C614.197 166.458 614.338 166.925 614.621 167.235C614.903 167.541 615.334 167.693 615.913 167.693C616.469 167.693 616.911 167.589 617.239 167.379C617.572 167.169 617.811 166.862 617.957 166.456C618.102 166.046 618.175 165.545 618.175 164.952V161.008H619.317ZM623.011 157.863V160.522C623.011 160.828 623.002 161.124 622.984 161.411C622.97 161.698 622.959 161.922 622.95 162.081H623.011C623.216 161.744 623.512 161.459 623.9 161.227C624.287 160.994 624.782 160.878 625.383 160.878C626.322 160.878 627.069 161.204 627.625 161.855C628.186 162.503 628.466 163.466 628.466 164.747C628.466 165.59 628.339 166.301 628.083 166.88C627.828 167.459 627.468 167.896 627.003 168.192C626.538 168.489 625.989 168.637 625.356 168.637C624.763 168.637 624.276 168.527 623.893 168.309C623.515 168.085 623.223 167.814 623.018 167.495H622.929L622.697 168.5H621.876V157.863H623.011ZM625.199 161.828C624.656 161.828 624.226 161.935 623.907 162.149C623.588 162.359 623.357 162.678 623.216 163.106C623.079 163.53 623.011 164.068 623.011 164.72V164.781C623.011 165.725 623.168 166.447 623.483 166.948C623.797 167.445 624.369 167.693 625.199 167.693C625.896 167.693 626.418 167.438 626.764 166.928C627.115 166.417 627.29 165.688 627.29 164.74C627.29 163.774 627.117 163.047 626.771 162.56C626.429 162.072 625.905 161.828 625.199 161.828Z" fill="black"/>
<rect x="16.5038" y="170.254" width="99" height="40.0367" rx="4.5" transform="rotate(-0.434043 16.5038 170.254)" fill="white"/>
<rect x="16.5038" y="170.254" width="99" height="40.0367" rx="4.5" transform="rotate(-0.434043 16.5038 170.254)" stroke="#82A4D9"/>
<path d="M31.0897 189.926L34.5827 189.899L34.6194 194.746C34.0967 194.928 33.5577 195.064 33.0024 195.155C32.4516 195.245 31.8344 195.293 31.1509 195.299C30.1118 195.306 29.233 195.106 28.5144 194.696C27.8003 194.287 27.2558 193.701 26.8809 192.938C26.5059 192.171 26.3145 191.259 26.3064 190.201C26.2986 189.167 26.4946 188.263 26.8943 187.49C27.2986 186.717 27.8843 186.115 28.6512 185.685C29.4227 185.251 30.3507 185.03 31.4353 185.022C31.9913 185.018 32.518 185.066 33.0156 185.167C33.5176 185.263 33.9835 185.403 34.4133 185.587L33.9767 186.602C33.6063 186.445 33.1974 186.312 32.75 186.201C32.3071 186.091 31.8486 186.037 31.3747 186.041C30.5589 186.047 29.8607 186.221 29.2799 186.563C28.7037 186.904 28.263 187.384 27.9578 188.001C27.6571 188.619 27.51 189.349 27.5164 190.192C27.5227 191.026 27.6626 191.752 27.9362 192.37C28.2097 192.983 28.6326 193.458 29.2048 193.796C29.7771 194.133 30.5121 194.299 31.4098 194.292C31.861 194.288 32.2482 194.26 32.5713 194.208C32.8945 194.151 33.1879 194.085 33.4517 194.01L33.4285 190.947L31.0975 190.965L31.0897 189.926ZM39.7763 187.481C40.6695 187.474 41.3341 187.67 41.7701 188.068C42.206 188.465 42.4273 189.104 42.434 189.983L42.4726 195.076L41.6455 195.082L41.4183 193.977L41.3636 193.977C41.1561 194.252 40.9391 194.484 40.7126 194.672C40.4862 194.856 40.2229 194.997 39.9229 195.095C39.6273 195.189 39.2631 195.237 38.8302 195.24C38.3745 195.244 37.9683 195.167 37.6116 195.01C37.2595 194.854 36.9797 194.614 36.7721 194.292C36.5692 193.97 36.4658 193.561 36.4621 193.064C36.4564 192.317 36.7483 191.74 37.3376 191.335C37.927 190.929 38.8277 190.704 40.0396 190.658L41.3312 190.593L41.3277 190.135C41.3228 189.488 41.1804 189.036 40.9004 188.778C40.6205 188.521 40.2276 188.394 39.7217 188.398C39.3298 188.4 38.9565 188.46 38.602 188.577C38.2474 188.694 37.9111 188.831 37.5933 188.988L37.2382 188.129C37.5741 187.953 37.9603 187.802 38.3969 187.676C38.8334 187.55 39.2932 187.485 39.7763 187.481ZM41.3236 191.393L40.1824 191.45C39.2484 191.493 38.5911 191.651 38.2103 191.923C37.8295 192.195 37.641 192.576 37.6447 193.069C37.648 193.497 37.7803 193.813 38.0416 194.016C38.3029 194.219 38.6477 194.319 39.0761 194.316C39.7414 194.311 40.2846 194.122 40.7057 193.75C41.1267 193.377 41.3344 192.822 41.3288 192.084L41.3236 191.393ZM46.112 195.049L44.9704 195.057L44.8898 184.421L46.0314 184.412L46.112 195.049ZM51.4163 187.393C52.3095 187.386 52.9741 187.582 53.41 187.979C53.846 188.377 54.0673 189.016 54.074 189.895L54.1126 194.988L53.2854 194.994L53.0583 193.888L53.0036 193.889C52.7961 194.164 52.5791 194.396 52.3526 194.584C52.1261 194.768 51.8629 194.909 51.5628 195.007C51.2673 195.101 50.9031 195.149 50.4701 195.152C50.0144 195.156 49.6082 195.079 49.2516 194.922C48.8995 194.765 48.6196 194.526 48.4121 194.204C48.2092 193.882 48.1058 193.473 48.102 192.976C48.0964 192.228 48.3882 191.652 48.9776 191.246C49.567 190.841 50.4677 190.615 51.6796 190.57L52.9712 190.505L52.9677 190.047C52.9628 189.4 52.8204 188.948 52.5404 188.69C52.2604 188.432 51.8675 188.306 51.3617 188.309C50.9698 188.312 50.5965 188.372 50.2419 188.489C49.8873 188.605 49.5511 188.742 49.2333 188.9L48.8781 188.041C49.2141 187.865 49.6003 187.714 50.0369 187.588C50.4734 187.462 50.9332 187.397 51.4163 187.393ZM52.9635 191.305L51.8223 191.362C50.8884 191.405 50.231 191.563 49.8503 191.835C49.4695 192.106 49.281 192.488 49.2847 192.98C49.288 193.409 49.4202 193.725 49.6816 193.928C49.9429 194.131 50.2877 194.231 50.7161 194.227C51.3814 194.222 51.9246 194.034 52.3456 193.661C52.7666 193.289 52.9744 192.734 52.9688 191.996L52.9635 191.305ZM61.4414 192.882C61.445 193.36 61.3273 193.764 61.0883 194.094C60.8537 194.42 60.5138 194.666 60.0684 194.833C59.6276 195.001 59.0996 195.087 58.4844 195.092C57.9603 195.095 57.5066 195.058 57.1232 194.979C56.7397 194.9 56.4039 194.786 56.1157 194.638L56.1077 193.592C56.4142 193.74 56.7798 193.874 57.2046 193.994C57.6293 194.114 58.0627 194.172 58.5048 194.168C59.1519 194.164 59.6205 194.055 59.9105 193.843C60.2006 193.632 60.3443 193.346 60.3416 192.986C60.34 192.781 60.2794 192.601 60.1597 192.447C60.0446 192.288 59.8498 192.137 59.5752 191.993C59.3007 191.845 58.9212 191.684 58.4368 191.51C57.9569 191.331 57.5408 191.154 57.1886 190.979C56.8408 190.799 56.5703 190.581 56.3769 190.322C56.1881 190.064 56.0921 189.727 56.089 189.313C56.0842 188.679 56.3357 188.192 56.8436 187.851C57.3559 187.505 58.0291 187.329 58.8631 187.323C59.3142 187.319 59.7361 187.362 60.1287 187.45C60.5258 187.534 60.8959 187.649 61.2388 187.797L60.8629 188.709C60.552 188.579 60.2208 188.47 59.8692 188.382C59.5176 188.293 59.1595 188.25 58.7949 188.253C58.2708 188.257 57.8682 188.347 57.587 188.522C57.3103 188.697 57.1731 188.935 57.1754 189.236C57.1771 189.468 57.2424 189.659 57.3711 189.809C57.5044 189.958 57.7151 190.098 58.0032 190.228C58.2913 190.358 58.6707 190.51 59.1415 190.684C59.6122 190.854 60.0191 191.031 60.3623 191.215C60.7055 191.395 60.9692 191.616 61.1535 191.879C61.3423 192.137 61.4383 192.471 61.4414 192.882ZM66.187 187.281C67.0802 187.274 67.7448 187.47 68.1808 187.867C68.6168 188.265 68.8381 188.904 68.8447 189.783L68.8833 194.876L68.0562 194.882L67.8291 193.777L67.7744 193.777C67.5668 194.052 67.3498 194.284 67.1234 194.472C66.8969 194.656 66.6336 194.797 66.3336 194.895C66.0381 194.989 65.6738 195.037 65.2409 195.04C64.7852 195.044 64.379 194.967 64.0223 194.81C63.6702 194.653 63.3904 194.414 63.1829 194.092C62.9799 193.77 62.8765 193.361 62.8728 192.864C62.8671 192.117 63.159 191.54 63.7484 191.135C64.3378 190.729 65.2384 190.503 66.4504 190.458L67.7419 190.393L67.7384 189.935C67.7335 189.288 67.5911 188.836 67.3111 188.578C67.0312 188.321 66.6383 188.194 66.1324 188.197C65.7405 188.2 65.3673 188.26 65.0127 188.377C64.6581 188.493 64.3219 188.63 64.004 188.788L63.6489 187.929C63.9848 187.753 64.3711 187.602 64.8076 187.476C65.2442 187.35 65.704 187.285 66.187 187.281ZM67.7343 191.193L66.5931 191.25C65.6591 191.293 65.0018 191.451 64.621 191.723C64.2403 191.994 64.0517 192.376 64.0555 192.869C64.0587 193.297 64.191 193.613 64.4523 193.816C64.7136 194.019 65.0585 194.119 65.4868 194.116C66.1522 194.111 66.6954 193.922 67.1164 193.55C67.5374 193.177 67.7451 192.622 67.7395 191.884L67.7343 191.193ZM74.3831 194.971C73.7086 194.976 73.1128 194.842 72.5958 194.568C72.0787 194.294 71.6745 193.873 71.383 193.305C71.0916 192.738 70.9426 192.021 70.9361 191.155C70.9292 190.248 71.074 189.507 71.3704 188.93C71.6714 188.349 72.0874 187.918 72.6185 187.636C73.1495 187.354 73.7546 187.21 74.4336 187.205C74.8073 187.202 75.1676 187.238 75.5145 187.313C75.866 187.383 76.1538 187.474 76.378 187.587L76.0434 188.539C75.8148 188.45 75.5499 188.37 75.2486 188.299C74.9518 188.229 74.6735 188.194 74.4138 188.196C73.8943 188.2 73.4622 188.315 73.1175 188.541C72.7774 188.767 72.5224 189.097 72.3525 189.531C72.1872 189.965 72.1069 190.499 72.1117 191.133C72.1163 191.739 72.2023 192.255 72.3696 192.683C72.5414 193.11 72.7923 193.436 73.1221 193.661C73.4565 193.882 73.872 193.991 74.3688 193.987C74.7652 193.984 75.1227 193.94 75.441 193.856C75.7594 193.767 76.048 193.664 76.3069 193.548L76.3146 194.56C76.0649 194.689 75.7854 194.79 75.476 194.86C75.1712 194.931 74.8069 194.968 74.3831 194.971ZM80.6677 193.994C80.8545 193.992 81.0458 193.975 81.2415 193.942C81.4372 193.908 81.5964 193.868 81.7191 193.822L81.7258 194.704C81.5941 194.764 81.4099 194.815 81.1733 194.858C80.9412 194.901 80.7134 194.923 80.4901 194.925C80.0937 194.928 79.7331 194.862 79.4085 194.728C79.0839 194.589 78.8224 194.354 78.6239 194.023C78.43 193.692 78.3308 193.232 78.3263 192.644L78.2927 188.201L77.2263 188.209L77.2221 187.655L78.2919 187.203L78.7308 185.573L79.4143 185.567L79.4275 187.304L81.6218 187.287L81.6285 188.176L79.4342 188.192L79.4676 192.601C79.4712 193.071 79.5809 193.421 79.7969 193.652C80.0174 193.882 80.3077 193.996 80.6677 193.994ZM84.5455 194.757L83.4039 194.766L83.3233 184.13L84.4649 184.121L84.5455 194.757ZM95.2756 185.564C94.7242 185.568 94.2282 185.667 93.7876 185.862C93.3515 186.052 92.9799 186.328 92.6728 186.691C92.3701 187.048 92.1387 187.481 91.9785 187.988C91.8183 188.495 91.7405 189.065 91.7453 189.699C91.7517 190.537 91.8871 191.265 92.1515 191.883C92.4205 192.496 92.816 192.97 93.3381 193.303C93.8647 193.636 94.52 193.8 95.3038 193.794C95.7504 193.791 96.1694 193.751 96.5608 193.675C96.9566 193.595 97.341 193.496 97.7138 193.379L97.7215 194.391C97.3579 194.53 96.9759 194.634 96.5754 194.7C96.1748 194.772 95.6989 194.81 95.1475 194.814C94.1312 194.821 93.2797 194.618 92.593 194.204C91.9107 193.786 91.3958 193.192 91.0482 192.425C90.7051 191.657 90.5296 190.749 90.5217 189.701C90.516 188.945 90.6155 188.254 90.8204 187.628C91.0299 186.997 91.3356 186.452 91.7378 185.994C92.1445 185.535 92.6431 185.18 93.2337 184.93C93.8288 184.674 94.5114 184.544 95.2815 184.538C95.7874 184.534 96.2754 184.581 96.7455 184.677C97.2157 184.774 97.6406 184.914 98.0202 185.098L97.5629 186.086C97.2428 185.943 96.8909 185.82 96.5073 185.718C96.1282 185.612 95.7177 185.56 95.2756 185.564ZM100.05 194.64L99.9747 184.646L101.137 184.637L101.205 193.592L105.641 193.558L105.649 194.598L100.05 194.64ZM107.525 194.583L107.449 184.589L108.611 184.581L108.687 194.574L107.525 194.583Z" fill="black"/>
<rect x="412.5" y="112.5" width="99" height="36" rx="4.5" fill="white"/>
<rect x="412.5" y="112.5" width="99" height="36" rx="4.5" stroke="#82A4D9"/>
<path d="M435.304 130.407C435.304 131.533 435.099 132.474 434.688 133.23C434.278 133.982 433.684 134.55 432.904 134.933C432.13 135.311 431.188 135.5 430.081 135.5H427.367V125.506H430.382C431.398 125.506 432.273 125.693 433.007 126.066C433.741 126.436 434.306 126.985 434.702 127.714C435.103 128.438 435.304 129.336 435.304 130.407ZM434.08 130.448C434.08 129.55 433.93 128.81 433.629 128.227C433.333 127.643 432.895 127.21 432.316 126.928C431.742 126.641 431.038 126.497 430.204 126.497H428.529V134.502H429.944C431.321 134.502 432.353 134.162 433.041 133.483C433.734 132.804 434.08 131.793 434.08 130.448ZM440.399 127.871C441.037 127.871 441.584 128.012 442.04 128.295C442.496 128.577 442.844 128.974 443.086 129.484C443.327 129.99 443.448 130.583 443.448 131.262V131.966H438.273C438.287 132.845 438.506 133.515 438.93 133.976C439.353 134.436 439.95 134.666 440.721 134.666C441.195 134.666 441.614 134.623 441.978 134.536C442.343 134.45 442.721 134.322 443.113 134.153V135.151C442.735 135.32 442.359 135.443 441.985 135.521C441.616 135.598 441.179 135.637 440.673 135.637C439.953 135.637 439.324 135.491 438.786 135.199C438.253 134.903 437.838 134.47 437.542 133.9C437.246 133.331 437.097 132.633 437.097 131.809C437.097 131.002 437.232 130.305 437.501 129.717C437.774 129.124 438.157 128.669 438.649 128.35C439.146 128.031 439.729 127.871 440.399 127.871ZM440.386 128.801C439.779 128.801 439.296 128.999 438.936 129.396C438.576 129.792 438.362 130.346 438.294 131.057H442.259C442.254 130.61 442.183 130.218 442.047 129.881C441.915 129.539 441.712 129.275 441.438 129.088C441.165 128.896 440.814 128.801 440.386 128.801ZM447.32 131.665L444.729 128.008H446.028L448.004 130.893L449.972 128.008H451.257L448.667 131.665L451.401 135.5H450.102L448.004 132.444L445.891 135.5H444.606L447.32 131.665ZM461.667 133.449C461.667 133.928 461.547 134.331 461.305 134.659C461.068 134.983 460.726 135.227 460.28 135.391C459.838 135.555 459.309 135.637 458.694 135.637C458.17 135.637 457.716 135.596 457.333 135.514C456.951 135.432 456.616 135.315 456.328 135.165V134.119C456.634 134.27 456.998 134.406 457.422 134.529C457.846 134.652 458.279 134.714 458.721 134.714C459.368 134.714 459.838 134.609 460.129 134.399C460.421 134.19 460.567 133.905 460.567 133.545C460.567 133.34 460.508 133.16 460.389 133.005C460.275 132.845 460.081 132.693 459.808 132.547C459.535 132.396 459.156 132.232 458.673 132.055C458.195 131.872 457.78 131.692 457.429 131.515C457.083 131.332 456.814 131.111 456.622 130.852C456.436 130.592 456.342 130.255 456.342 129.84C456.342 129.206 456.597 128.721 457.108 128.384C457.623 128.042 458.297 127.871 459.131 127.871C459.582 127.871 460.004 127.917 460.396 128.008C460.792 128.094 461.161 128.213 461.503 128.363L461.12 129.272C460.811 129.14 460.48 129.029 460.129 128.938C459.778 128.846 459.421 128.801 459.056 128.801C458.532 128.801 458.129 128.887 457.846 129.061C457.568 129.234 457.429 129.471 457.429 129.771C457.429 130.004 457.493 130.195 457.62 130.346C457.753 130.496 457.962 130.637 458.249 130.77C458.536 130.902 458.915 131.057 459.384 131.234C459.854 131.408 460.259 131.588 460.601 131.774C460.943 131.957 461.205 132.18 461.387 132.444C461.574 132.704 461.667 133.039 461.667 133.449ZM466.537 127.871C467.175 127.871 467.722 128.012 468.178 128.295C468.634 128.577 468.982 128.974 469.224 129.484C469.465 129.99 469.586 130.583 469.586 131.262V131.966H464.411C464.425 132.845 464.644 133.515 465.068 133.976C465.491 134.436 466.088 134.666 466.859 134.666C467.333 134.666 467.752 134.623 468.116 134.536C468.481 134.45 468.859 134.322 469.251 134.153V135.151C468.873 135.32 468.497 135.443 468.123 135.521C467.754 135.598 467.317 135.637 466.811 135.637C466.091 135.637 465.462 135.491 464.924 135.199C464.391 134.903 463.976 134.47 463.68 133.9C463.384 133.331 463.236 132.633 463.236 131.809C463.236 131.002 463.37 130.305 463.639 129.717C463.912 129.124 464.295 128.669 464.787 128.35C465.284 128.031 465.867 127.871 466.537 127.871ZM466.524 128.801C465.918 128.801 465.434 128.999 465.074 129.396C464.714 129.792 464.5 130.346 464.432 131.057H468.397C468.392 130.61 468.321 130.218 468.185 129.881C468.053 129.539 467.85 129.275 467.576 129.088C467.303 128.896 466.952 128.801 466.524 128.801ZM475.078 127.871C475.229 127.871 475.386 127.88 475.55 127.898C475.714 127.912 475.86 127.933 475.987 127.96L475.844 129.013C475.721 128.981 475.584 128.956 475.434 128.938C475.283 128.919 475.142 128.91 475.01 128.91C474.709 128.91 474.424 128.972 474.155 129.095C473.891 129.213 473.659 129.386 473.458 129.614C473.258 129.838 473.1 130.109 472.986 130.428C472.872 130.742 472.815 131.093 472.815 131.48V135.5H471.674V128.008H472.617L472.74 129.389H472.788C472.943 129.111 473.13 128.858 473.349 128.63C473.567 128.397 473.82 128.213 474.107 128.076C474.399 127.939 474.723 127.871 475.078 127.871ZM479.21 135.5L476.366 128.008H477.583L479.23 132.54C479.344 132.85 479.46 133.192 479.579 133.565C479.697 133.939 479.78 134.24 479.825 134.468H479.873C479.928 134.24 480.019 133.939 480.146 133.565C480.274 133.187 480.39 132.845 480.495 132.54L482.142 128.008H483.359L480.509 135.5H479.21ZM487.607 127.871C488.245 127.871 488.792 128.012 489.248 128.295C489.704 128.577 490.052 128.974 490.294 129.484C490.535 129.99 490.656 130.583 490.656 131.262V131.966H485.481C485.495 132.845 485.714 133.515 486.137 133.976C486.561 134.436 487.158 134.666 487.928 134.666C488.402 134.666 488.822 134.623 489.186 134.536C489.551 134.45 489.929 134.322 490.321 134.153V135.151C489.943 135.32 489.567 135.443 489.193 135.521C488.824 135.598 488.386 135.637 487.881 135.637C487.161 135.637 486.532 135.491 485.994 135.199C485.461 134.903 485.046 134.47 484.75 133.9C484.454 133.331 484.305 132.633 484.305 131.809C484.305 131.002 484.44 130.305 484.709 129.717C484.982 129.124 485.365 128.669 485.857 128.35C486.354 128.031 486.937 127.871 487.607 127.871ZM487.593 128.801C486.987 128.801 486.504 128.999 486.144 129.396C485.784 129.792 485.57 130.346 485.502 131.057H489.467C489.462 130.61 489.391 130.218 489.255 129.881C489.122 129.539 488.92 129.275 488.646 129.088C488.373 128.896 488.022 128.801 487.593 128.801ZM496.148 127.871C496.298 127.871 496.456 127.88 496.62 127.898C496.784 127.912 496.93 127.933 497.057 127.96L496.914 129.013C496.791 128.981 496.654 128.956 496.503 128.938C496.353 128.919 496.212 128.91 496.08 128.91C495.779 128.91 495.494 128.972 495.225 129.095C494.961 129.213 494.728 129.386 494.528 129.614C494.327 129.838 494.17 130.109 494.056 130.428C493.942 130.742 493.885 131.093 493.885 131.48V135.5H492.744V128.008H493.687L493.81 129.389H493.858C494.013 129.111 494.2 128.858 494.419 128.63C494.637 128.397 494.89 128.213 495.177 128.076C495.469 127.939 495.793 127.871 496.148 127.871Z" fill="black"/>
<rect x="151.5" y="112.5" width="99" height="36" rx="4.5" fill="white"/>
<rect x="151.5" y="112.5" width="99" height="36" rx="4.5" stroke="#82A4D9"/>
<path d="M182.14 120.264H185.633V125.11C185.109 125.288 184.569 125.42 184.013 125.507C183.461 125.593 182.844 125.637 182.16 125.637C181.121 125.637 180.244 125.429 179.528 125.015C178.817 124.6 178.277 124.01 177.908 123.244C177.539 122.474 177.354 121.56 177.354 120.503C177.354 119.468 177.557 118.566 177.963 117.796C178.373 117.026 178.963 116.429 179.733 116.005C180.508 115.576 181.438 115.362 182.522 115.362C183.078 115.362 183.605 115.415 184.102 115.52C184.603 115.62 185.068 115.763 185.496 115.95L185.052 116.962C184.683 116.802 184.275 116.666 183.828 116.552C183.386 116.438 182.928 116.381 182.454 116.381C181.638 116.381 180.939 116.549 180.355 116.887C179.777 117.224 179.332 117.7 179.022 118.315C178.717 118.931 178.564 119.66 178.564 120.503C178.564 121.337 178.699 122.064 178.968 122.684C179.237 123.299 179.656 123.777 180.226 124.119C180.795 124.461 181.529 124.632 182.427 124.632C182.878 124.632 183.265 124.607 183.589 124.557C183.912 124.502 184.206 124.438 184.471 124.365V121.303H182.14V120.264ZM190.845 117.885C191.738 117.885 192.401 118.085 192.834 118.486C193.267 118.887 193.483 119.528 193.483 120.407V125.5H192.656L192.437 124.393H192.383C192.173 124.666 191.954 124.896 191.726 125.083C191.499 125.265 191.234 125.404 190.933 125.5C190.637 125.591 190.273 125.637 189.84 125.637C189.384 125.637 188.978 125.557 188.623 125.397C188.272 125.238 187.994 124.996 187.789 124.673C187.588 124.349 187.488 123.939 187.488 123.442C187.488 122.695 187.784 122.121 188.377 121.72C188.969 121.319 189.872 121.1 191.084 121.063L192.376 121.009V120.551C192.376 119.904 192.237 119.45 191.959 119.19C191.681 118.931 191.289 118.801 190.783 118.801C190.391 118.801 190.017 118.858 189.662 118.972C189.306 119.086 188.969 119.22 188.65 119.375L188.302 118.514C188.639 118.34 189.026 118.192 189.464 118.069C189.901 117.946 190.361 117.885 190.845 117.885ZM192.362 121.809L191.221 121.856C190.286 121.893 189.628 122.046 189.245 122.314C188.862 122.583 188.671 122.964 188.671 123.456C188.671 123.884 188.801 124.201 189.06 124.406C189.32 124.611 189.664 124.714 190.093 124.714C190.758 124.714 191.303 124.529 191.726 124.16C192.15 123.791 192.362 123.237 192.362 122.499V121.809ZM197.123 125.5H195.981V114.863H197.123V125.5ZM202.485 117.885C203.378 117.885 204.041 118.085 204.474 118.486C204.907 118.887 205.124 119.528 205.124 120.407V125.5H204.296L204.078 124.393H204.023C203.813 124.666 203.595 124.896 203.367 125.083C203.139 125.265 202.875 125.404 202.574 125.5C202.278 125.591 201.913 125.637 201.48 125.637C201.024 125.637 200.619 125.557 200.263 125.397C199.912 125.238 199.634 124.996 199.429 124.673C199.229 124.349 199.128 123.939 199.128 123.442C199.128 122.695 199.425 122.121 200.017 121.72C200.61 121.319 201.512 121.1 202.724 121.063L204.016 121.009V120.551C204.016 119.904 203.877 119.45 203.599 119.19C203.321 118.931 202.929 118.801 202.423 118.801C202.031 118.801 201.658 118.858 201.302 118.972C200.947 119.086 200.61 119.22 200.291 119.375L199.942 118.514C200.279 118.34 200.667 118.192 201.104 118.069C201.542 117.946 202.002 117.885 202.485 117.885ZM204.002 121.809L202.861 121.856C201.927 121.893 201.268 122.046 200.885 122.314C200.502 122.583 200.311 122.964 200.311 123.456C200.311 123.884 200.441 124.201 200.701 124.406C200.96 124.611 201.305 124.714 201.733 124.714C202.398 124.714 202.943 124.529 203.367 124.16C203.791 123.791 204.002 123.237 204.002 122.499V121.809ZM212.468 123.449C212.468 123.928 212.347 124.331 212.106 124.659C211.869 124.983 211.527 125.227 211.08 125.391C210.638 125.555 210.11 125.637 209.494 125.637C208.97 125.637 208.517 125.596 208.134 125.514C207.751 125.432 207.416 125.315 207.129 125.165V124.119C207.435 124.27 207.799 124.406 208.223 124.529C208.647 124.652 209.08 124.714 209.522 124.714C210.169 124.714 210.638 124.609 210.93 124.399C211.222 124.19 211.368 123.905 211.368 123.545C211.368 123.34 211.308 123.16 211.19 123.005C211.076 122.845 210.882 122.693 210.609 122.547C210.335 122.396 209.957 122.232 209.474 122.055C208.995 121.872 208.581 121.692 208.23 121.515C207.883 121.332 207.615 121.111 207.423 120.852C207.236 120.592 207.143 120.255 207.143 119.84C207.143 119.206 207.398 118.721 207.909 118.384C208.424 118.042 209.098 117.871 209.932 117.871C210.383 117.871 210.805 117.917 211.197 118.008C211.593 118.094 211.962 118.213 212.304 118.363L211.921 119.272C211.611 119.14 211.281 119.029 210.93 118.938C210.579 118.846 210.221 118.801 209.857 118.801C209.333 118.801 208.929 118.887 208.647 119.061C208.369 119.234 208.23 119.471 208.23 119.771C208.23 120.004 208.294 120.195 208.421 120.346C208.553 120.496 208.763 120.637 209.05 120.77C209.337 120.902 209.716 121.057 210.185 121.234C210.654 121.408 211.06 121.588 211.402 121.774C211.744 121.957 212.006 122.18 212.188 122.444C212.375 122.704 212.468 123.039 212.468 123.449ZM217.256 117.885C218.149 117.885 218.812 118.085 219.245 118.486C219.678 118.887 219.895 119.528 219.895 120.407V125.5H219.068L218.849 124.393H218.794C218.585 124.666 218.366 124.896 218.138 125.083C217.91 125.265 217.646 125.404 217.345 125.5C217.049 125.591 216.684 125.637 216.251 125.637C215.795 125.637 215.39 125.557 215.034 125.397C214.683 125.238 214.405 124.996 214.2 124.673C214 124.349 213.9 123.939 213.9 123.442C213.9 122.695 214.196 122.121 214.788 121.72C215.381 121.319 216.283 121.1 217.495 121.063L218.787 121.009V120.551C218.787 119.904 218.648 119.45 218.37 119.19C218.092 118.931 217.7 118.801 217.195 118.801C216.803 118.801 216.429 118.858 216.073 118.972C215.718 119.086 215.381 119.22 215.062 119.375L214.713 118.514C215.05 118.34 215.438 118.192 215.875 118.069C216.313 117.946 216.773 117.885 217.256 117.885ZM218.774 121.809L217.632 121.856C216.698 121.893 216.039 122.046 215.656 122.314C215.274 122.583 215.082 122.964 215.082 123.456C215.082 123.884 215.212 124.201 215.472 124.406C215.732 124.611 216.076 124.714 216.504 124.714C217.169 124.714 217.714 124.529 218.138 124.16C218.562 123.791 218.774 123.237 218.774 122.499V121.809ZM189.222 135.506L186.549 145.5H185.38L183.397 138.773C183.338 138.582 183.281 138.391 183.227 138.199C183.176 138.003 183.129 137.819 183.083 137.646C183.037 137.468 182.999 137.313 182.967 137.181C182.939 137.044 182.919 136.941 182.905 136.873C182.896 136.941 182.878 137.042 182.851 137.174C182.828 137.306 182.796 137.459 182.755 137.632C182.718 137.805 182.673 137.99 182.618 138.186C182.568 138.382 182.513 138.58 182.454 138.78L180.526 145.5H179.357L176.705 135.506H177.915L179.521 141.774C179.576 141.984 179.626 142.191 179.672 142.396C179.722 142.597 179.765 142.793 179.802 142.984C179.843 143.176 179.879 143.363 179.911 143.545C179.943 143.727 179.973 143.905 180 144.078C180.023 143.9 180.052 143.716 180.089 143.524C180.125 143.328 180.164 143.13 180.205 142.93C180.251 142.729 180.299 142.526 180.349 142.321C180.403 142.116 180.46 141.911 180.52 141.706L182.317 135.506H183.514L185.387 141.754C185.451 141.968 185.51 142.18 185.564 142.39C185.619 142.599 185.667 142.804 185.708 143.005C185.754 143.201 185.792 143.39 185.824 143.572C185.861 143.75 185.893 143.919 185.92 144.078C185.952 143.855 185.991 143.62 186.036 143.374C186.082 143.128 186.134 142.87 186.193 142.602C186.257 142.333 186.326 142.055 186.398 141.768L188.005 135.506H189.222ZM193.675 137.871C194.313 137.871 194.86 138.012 195.315 138.295C195.771 138.577 196.12 138.974 196.361 139.484C196.603 139.99 196.723 140.583 196.723 141.262V141.966H191.549C191.562 142.845 191.781 143.515 192.205 143.976C192.629 144.436 193.226 144.666 193.996 144.666C194.47 144.666 194.889 144.623 195.254 144.536C195.618 144.45 195.997 144.322 196.389 144.153V145.151C196.01 145.32 195.634 145.443 195.261 145.521C194.891 145.598 194.454 145.637 193.948 145.637C193.228 145.637 192.599 145.491 192.061 145.199C191.528 144.903 191.113 144.47 190.817 143.9C190.521 143.331 190.373 142.633 190.373 141.809C190.373 141.002 190.507 140.305 190.776 139.717C191.05 139.124 191.432 138.669 191.925 138.35C192.421 138.031 193.005 137.871 193.675 137.871ZM193.661 138.801C193.055 138.801 192.572 138.999 192.212 139.396C191.852 139.792 191.638 140.346 191.569 141.057H195.534C195.529 140.61 195.459 140.218 195.322 139.881C195.19 139.539 194.987 139.275 194.714 139.088C194.44 138.896 194.089 138.801 193.661 138.801ZM199.946 134.863V137.522C199.946 137.828 199.937 138.124 199.919 138.411C199.905 138.698 199.894 138.922 199.884 139.081H199.946C200.151 138.744 200.447 138.459 200.835 138.227C201.222 137.994 201.716 137.878 202.318 137.878C203.257 137.878 204.004 138.204 204.56 138.855C205.121 139.503 205.401 140.466 205.401 141.747C205.401 142.59 205.273 143.301 205.018 143.88C204.763 144.459 204.403 144.896 203.938 145.192C203.473 145.489 202.924 145.637 202.291 145.637C201.698 145.637 201.211 145.527 200.828 145.309C200.45 145.085 200.158 144.814 199.953 144.495H199.864L199.632 145.5H198.811V134.863H199.946ZM202.133 138.828C201.591 138.828 201.16 138.935 200.841 139.149C200.522 139.359 200.292 139.678 200.151 140.106C200.014 140.53 199.946 141.068 199.946 141.72V141.781C199.946 142.725 200.103 143.447 200.418 143.948C200.732 144.445 201.304 144.693 202.133 144.693C202.831 144.693 203.353 144.438 203.699 143.928C204.05 143.417 204.225 142.688 204.225 141.74C204.225 140.774 204.052 140.047 203.706 139.56C203.364 139.072 202.84 138.828 202.133 138.828ZM219.072 135.506V141.973C219.072 142.679 218.928 143.308 218.641 143.859C218.358 144.411 217.93 144.846 217.356 145.165C216.782 145.479 216.062 145.637 215.196 145.637C213.961 145.637 213.02 145.302 212.372 144.632C211.73 143.962 211.409 143.066 211.409 141.945V135.506H212.577V141.979C212.577 142.827 212.801 143.481 213.247 143.941C213.699 144.402 214.371 144.632 215.264 144.632C215.875 144.632 216.374 144.522 216.761 144.304C217.153 144.08 217.442 143.771 217.629 143.374C217.821 142.973 217.916 142.51 217.916 141.986V135.506H219.072ZM221.884 145.5V135.506H223.046V145.5H221.884Z" fill="black"/>
<path d="M117 180L122 182.887V177.113L117 180ZM278 180L273 177.113V182.887L278 180ZM121.5 180.5H273.5V179.5H121.5V180.5Z" fill="black"/>
<path d="M378 126L383 128.887V123.113L378 126ZM412 126L407 123.113V128.887L412 126ZM382.5 126.5H407.5V125.5H382.5V126.5Z" fill="black"/>
<path d="M512 126L517 128.887V123.113L512 126ZM546 126L541 123.113V128.887L546 126ZM516.5 126.5H541.5V125.5H516.5V126.5Z" fill="black"/>
<path d="M378 180L383.577 178.506L379.494 174.423L378 180ZM412 146L406.423 147.494L410.506 151.577L412 146ZM381.536 177.172L409.172 149.536L408.464 148.828L380.828 176.464L381.536 177.172Z" fill="black"/>
<path d="M117 126L122 128.887V123.113L117 126ZM150 126L145 123.113V128.887L150 126ZM121.5 126.5H145.5V125.5H121.5V126.5Z" fill="black"/>
<path d="M250 126L255 128.887L255 123.113L250 126ZM280 126L275 123.113L275 128.887L280 126ZM254.5 126.5L265 126.5L265 125.5L254.5 125.5L254.5 126.5ZM265 126.5L275.5 126.5L275.5 125.5L265 125.5L265 126.5Z" fill="black"/>
</svg>
