<?xml version="1.0" encoding="utf-8"?>
<!-- Generator: Adobe Illustrator 24.3.0, SVG Export Plug-In . SVG Version: 6.00 Build 0)  -->
<svg version="1.1" xmlns="http://www.w3.org/2000/svg" xmlns:xlink="http://www.w3.org/1999/xlink" x="0px" y="0px"
	 viewBox="0 0 730 416" style="enable-background:new 0 0 730 416;" xml:space="preserve">
<style type="text/css">
	.st0{fill:#FFFFFF;}
	.st1{fill:none;stroke:#000000;stroke-miterlimit:10;}
	.st2{fill:none;stroke:#000000;stroke-miterlimit:10;stroke-dasharray:0.9959,3.9836;}
	.st3{fill:none;stroke:#000000;stroke-miterlimit:10;stroke-dasharray:0.9964,3.9857;}
	.st4{fill:none;stroke:#000000;stroke-miterlimit:10;stroke-dasharray:1.0022,4.0088;}
	.st5{fill:none;stroke:#000000;stroke-miterlimit:10;stroke-dasharray:0.9976,3.9903;}
	.st6{fill:#161616;}
	.st7{fill:#003594;}
	.st8{fill:#393939;}
	.st9{fill:#8D8D8D;}
	.st10{fill:#9EBAE3;}
	.st11{fill:#DFECFF;}
	.st12{clip-path:url(#SVGID_2_);fill:#003594;}
	.st13{clip-path:url(#SVGID_4_);fill:#0F55BA;}
	.st14{clip-path:url(#SVGID_6_);fill:#9EBAE3;}
	.st15{clip-path:url(#SVGID_8_);fill:#002A66;}
	.st16{clip-path:url(#SVGID_10_);fill:#FFDB12;}
	.st17{clip-path:url(#SVGID_12_);fill:#FFE36C;}
	.st18{clip-path:url(#SVGID_14_);}
	.st19{clip-path:url(#SVGID_16_);fill:#FFFFFF;}
	.st20{clip-path:url(#SVGID_18_);fill:#161616;}
	.st21{clip-path:url(#SVGID_20_);fill:#262626;}
	.st22{clip-path:url(#SVGID_22_);fill:#393939;}
	.st23{clip-path:url(#SVGID_24_);fill:#525252;}
	.st24{clip-path:url(#SVGID_26_);fill:#6F6F6F;}
	.st25{clip-path:url(#SVGID_28_);fill:#DFECFF;}
	.st26{clip-path:url(#SVGID_30_);fill:#F8F788;}
	.st27{clip-path:url(#SVGID_32_);fill:#8D8D8D;}
	.st28{clip-path:url(#SVGID_34_);fill:#A8A8A8;}
	.st29{clip-path:url(#SVGID_36_);fill:#C6C6C6;}
	.st30{clip-path:url(#SVGID_38_);fill:#E0E0E0;}
	.st31{clip-path:url(#SVGID_40_);fill:#F4F4F4;}
	.st32{clip-path:url(#SVGID_42_);fill:#D62525;}
	.st33{fill:#002A66;}
	.st34{fill:#0F55BA;}
	.st35{fill:#262626;}
	.st36{fill:#525252;}
	.st37{fill:#6F6F6F;}
	.st38{fill:#A8A8A8;}
	.st39{fill:#C6C6C6;}
	.st40{fill:#E0E0E0;}
	.st41{fill:#F4F4F4;}
	.st42{fill:#FFDB12;}
	.st43{fill:#FFE36C;}
	.st44{fill:#F8F788;}
	.st45{fill:#FF832B;}
	.st46{fill:#EFA284;}
	.st47{fill:none;stroke:#000000;stroke-linecap:round;stroke-linejoin:round;stroke-miterlimit:10;}
	.st48{fill:none;stroke:#000000;stroke-linecap:round;stroke-miterlimit:10;}
	.st49{fill:none;stroke:#000000;stroke-miterlimit:10;stroke-dasharray:0.9956,3.9826;}
	.st50{fill:none;stroke:#000000;stroke-miterlimit:10;stroke-dasharray:1.002,4.0081;}
	.st51{fill:none;stroke:#161616;stroke-miterlimit:10;}
	.st52{fill:none;stroke:#000000;stroke-miterlimit:10;stroke-dasharray:1.0024,4.0094;}
	.st53{fill:none;stroke:#000000;stroke-miterlimit:10;stroke-dasharray:1.0057,4.0229;}
	.st54{fill:none;stroke:#000000;stroke-miterlimit:10;stroke-dasharray:1,4;}
</style>
<g id="images_1_">
	<g>
		<rect x="273" y="1" class="st0" width="456" height="414"/>
		<g>
			<polyline class="st1" points="273,1.5 273,1 273.5,1 			"/>
			<line class="st4" x1="277.5" y1="1" x2="726.5" y2="1"/>
			<polyline class="st1" points="728.5,1 729,1 729,1.5 			"/>
			<line class="st5" x1="729" y1="5.5" x2="729" y2="412.5"/>
			<polyline class="st1" points="729,414.5 729,415 728.5,415 			"/>
			<line class="st4" x1="724.5" y1="415" x2="275.5" y2="415"/>
			<polyline class="st1" points="273.5,415 273,415 273,414.5 			"/>
			<line class="st5" x1="273" y1="410.5" x2="273" y2="3.5"/>
		</g>
	</g>
	<rect x="136" y="115.5" class="st6" width="120" height="1"/>
	<polygon class="st6" points="264,116 256,112 256,120 	"/>
	<rect x="144" y="163.5" class="st6" width="120" height="1"/>
	<polygon class="st6" points="136,164 144,168 144,160 	"/>
	<rect x="136" y="267.5" class="st6" width="120" height="1"/>
	<polygon class="st6" points="264,268 256,264 256,272 	"/>
	<rect x="144" y="315.5" class="st6" width="120" height="1"/>
	<polygon class="st6" points="136,316 144,320 144,312 	"/>
	<g>
		<rect x="0.5" y="111.5" class="st0" width="127" height="64"/>
		<path d="M127,112v63H1v-63H127 M128,111H0v65h128V111L128,111z"/>
	</g>
	<g>
		<rect x="0.5" y="88.5" class="st44" width="127" height="23"/>
		<path d="M127,89v22H1V89H127 M128,88H0v24h128V88L128,88z"/>
	</g>
	<g>
		<rect x="0.5" y="263.5" class="st0" width="127" height="64"/>
		<path d="M127,264v63H1v-63H127 M128,263H0v65h128V263L128,263z"/>
	</g>
	<g>
		<rect x="0.5" y="240.5" class="st46" width="127" height="23"/>
		<path d="M127,241v22H1v-22H127 M128,240H0v24h128V240L128,240z"/>
	</g>
	<g>
		<rect x="288" y="48" class="st41" width="426" height="352"/>
		<g>
			<polyline class="st1" points="714,48.5 714,48 713.5,48 			"/>
			<line class="st52" x1="709.5" y1="48" x2="290.5" y2="48"/>
			<polyline class="st1" points="288.5,48 288,48 288,48.5 			"/>
			<line class="st53" x1="288" y1="52.5" x2="288" y2="397.5"/>
			<polyline class="st1" points="288,399.5 288,400 288.5,400 			"/>
			<line class="st52" x1="292.5" y1="400" x2="711.5" y2="400"/>
			<polyline class="st1" points="713.5,400 714,400 714,399.5 			"/>
			<line class="st53" x1="714" y1="395.5" x2="714" y2="50.5"/>
		</g>
	</g>
	<g>
		<path class="st6" d="M63.5,293H61v1h6v-1h-2.5v-6v-1h-5.6c-0.2-1.1-1.2-2-2.4-2c-1.4,0-2.5,1.1-2.5,2.5c0,1.4,1.1,2.5,2.5,2.5
			c1.2,0,2.2-0.9,2.4-2h4.6V293z M56.5,288c-0.8,0-1.5-0.7-1.5-1.5s0.7-1.5,1.5-1.5s1.5,0.7,1.5,1.5S57.3,288,56.5,288z"/>
		<path class="st6" d="M71.5,303c-1.2,0-2.2,0.9-2.4,2h-4.6v-6H67v-1h-6v1h2.5v6v1h5.6c0.2,1.1,1.2,2,2.4,2c1.4,0,2.5-1.1,2.5-2.5
			C74,304.1,72.9,303,71.5,303z M71.5,307c-0.8,0-1.5-0.7-1.5-1.5s0.7-1.5,1.5-1.5s1.5,0.7,1.5,1.5S72.3,307,71.5,307z"/>
	</g>
	<line class="st54" x1="3.5" y1="208.5" x2="272.5" y2="208.5"/>
	<path class="st6" d="M50,134v21h28v-21H50z M77,154H51v-16h26V154z M77,137H51v-2h26V137z M65.8,141.1l-1-0.3l-2.9,10l1,0.3
		L65.8,141.1z M69.4,150.4l4.4-4.4l-4.4-4.4l-0.7,0.7l3.6,3.6l-3.6,3.6L69.4,150.4z M59.4,149.6l-3.6-3.6l3.6-3.6l-0.7-0.7l-4.4,4.4
		l4.4,4.4L59.4,149.6z"/>
	<g>
		<polygon class="st10" points="321.5,235.6 321.5,194.3 357.5,173.6 392.5,194.3 392.5,235.6 357.5,256.4 		"/>
		<path class="st6" d="M357.5,174.2l34.5,20.4v40.7l-34.5,20.6L322,235.3v-40.7L357.5,174.2 M357.5,173L321,194v41.8l36.5,21.2
			l35.5-21.2V194L357.5,173L357.5,173z"/>
	</g>
	<polyline class="st51" points="321.5,194.5 357.5,215 392.5,194.5 	"/>
	<line class="st51" x1="357.5" y1="215.1" x2="357.5" y2="256"/>
	<g>
		<polygon class="st10" points="417.5,235.6 417.5,194.3 453.5,173.6 488.5,194.3 488.5,235.6 453.5,256.4 		"/>
		<path class="st6" d="M453.5,174.2l34.5,20.4v40.7l-34.5,20.6L418,235.3v-40.7L453.5,174.2 M453.5,173L417,194v41.8l36.5,21.2
			l35.5-21.2V194L453.5,173L453.5,173z"/>
	</g>
	<polyline class="st51" points="417.5,194.5 453.5,215 488.5,194.5 	"/>
	<line class="st51" x1="453.5" y1="215.1" x2="453.5" y2="256"/>
	<g>
		<polygon class="st10" points="513.5,235.6 513.5,194.3 549.5,173.6 584.5,194.3 584.5,235.6 549.5,256.4 		"/>
		<path class="st6" d="M549.5,174.2l34.5,20.4v40.7l-34.5,20.6L514,235.3v-40.7L549.5,174.2 M549.5,173L513,194v41.8l36.5,21.2
			l35.5-21.2V194L549.5,173L549.5,173z"/>
	</g>
	<polyline class="st51" points="513.5,194.5 549.5,215 584.5,194.5 	"/>
	<line class="st51" x1="549.5" y1="215.1" x2="549.5" y2="256"/>
	<g>
		<polygon class="st10" points="609.5,235.6 609.5,194.3 645.5,173.6 680.5,194.3 680.5,235.6 645.5,256.4 		"/>
		<path class="st6" d="M645.5,174.2l34.5,20.4v40.7l-34.5,20.6L610,235.3v-40.7L645.5,174.2 M645.5,173L609,194v41.8l36.5,21.2
			l35.5-21.2V194L645.5,173L645.5,173z"/>
	</g>
	<polyline class="st51" points="609.5,194.5 645.5,215 680.5,194.5 	"/>
	<line class="st51" x1="645.5" y1="215.1" x2="645.5" y2="256"/>
</g>
<g id="text">
	<g>
		<path class="st6" d="M158,102.3c0,0.8-0.3,1.3-0.8,1.8s-1.3,0.6-2.2,0.6c-1,0-1.8-0.1-2.3-0.4v-1c0.4,0.1,0.7,0.3,1.1,0.4
			s0.8,0.1,1.2,0.1c0.7,0,1.2-0.1,1.5-0.4s0.5-0.6,0.5-1.1c0-0.3-0.1-0.5-0.2-0.7s-0.3-0.4-0.6-0.5s-0.7-0.3-1.3-0.5
			c-0.8-0.3-1.4-0.6-1.7-1s-0.5-0.9-0.5-1.5c0-0.7,0.2-1.2,0.7-1.6s1.2-0.6,2-0.6c0.9,0,1.6,0.2,2.3,0.5l-0.3,0.9
			c-0.7-0.3-1.4-0.4-2.1-0.4c-0.5,0-0.9,0.1-1.2,0.3s-0.4,0.5-0.4,0.9c0,0.3,0.1,0.5,0.2,0.7s0.3,0.4,0.6,0.5s0.7,0.3,1.2,0.5
			c0.9,0.3,1.5,0.7,1.9,1S158,101.7,158,102.3z"/>
		<path class="st6" d="M160.5,98.1v4.2c0,0.5,0.1,0.9,0.4,1.2s0.6,0.4,1.1,0.4c0.7,0,1.2-0.2,1.5-0.6s0.5-1,0.5-1.8v-3.4h1v6.4h-0.8
			l-0.1-0.9h-0.1c-0.2,0.3-0.5,0.6-0.8,0.7s-0.8,0.3-1.2,0.3c-0.8,0-1.4-0.2-1.8-0.6s-0.6-1-0.6-1.8v-4.2H160.5z"/>
		<path class="st6" d="M170,98c0.8,0,1.5,0.3,2,0.9s0.7,1.4,0.7,2.4s-0.2,1.9-0.7,2.5s-1.1,0.9-2,0.9c-0.4,0-0.8-0.1-1.1-0.2
			s-0.6-0.4-0.9-0.7h-0.1l-0.2,0.8H167v-9.1h1v2.2c0,0.5,0,0.9,0,1.3h0C168.4,98.4,169.1,98,170,98z M169.8,98.8
			c-0.7,0-1.1,0.2-1.4,0.6s-0.4,1-0.4,1.9s0.2,1.5,0.5,1.9s0.8,0.6,1.4,0.6c0.6,0,1-0.2,1.3-0.7s0.4-1.1,0.4-1.9
			c0-0.8-0.1-1.5-0.4-1.9S170.4,98.8,169.8,98.8z"/>
		<path class="st6" d="M182.5,104.6v-4.2c0-0.5-0.1-0.9-0.3-1.2s-0.6-0.4-1-0.4c-0.6,0-1.1,0.2-1.3,0.5s-0.4,0.9-0.4,1.6v3.6h-1
			v-4.2c0-0.5-0.1-0.9-0.3-1.2s-0.6-0.4-1-0.4c-0.6,0-1.1,0.2-1.3,0.5s-0.4,1-0.4,1.8v3.4h-1v-6.4h0.8l0.2,0.9h0
			c0.2-0.3,0.4-0.6,0.8-0.7s0.7-0.3,1.1-0.3c1,0,1.7,0.4,2,1.1h0c0.2-0.3,0.5-0.6,0.8-0.8s0.8-0.3,1.2-0.3c0.7,0,1.3,0.2,1.6,0.6
			s0.5,1,0.5,1.8v4.2H182.5z"/>
		<path class="st6" d="M185.4,96.4c0-0.2,0.1-0.4,0.2-0.5s0.2-0.2,0.4-0.2c0.2,0,0.3,0.1,0.4,0.2s0.2,0.3,0.2,0.5s-0.1,0.4-0.2,0.5
			S186.1,97,186,97c-0.2,0-0.3-0.1-0.4-0.2S185.4,96.6,185.4,96.4z M186.5,104.6h-1v-6.4h1V104.6z"/>
		<path class="st6" d="M190.6,103.9c0.2,0,0.3,0,0.5,0s0.3-0.1,0.4-0.1v0.7c-0.1,0.1-0.3,0.1-0.5,0.1s-0.4,0-0.6,0
			c-1.2,0-1.9-0.7-1.9-2v-3.8h-0.9v-0.5l0.9-0.4l0.4-1.4h0.6v1.5h1.9v0.8h-1.9v3.8c0,0.4,0.1,0.7,0.3,0.9S190.3,103.9,190.6,103.9z"
			/>
		<path class="st6" d="M198,103.9c0.2,0,0.3,0,0.5,0s0.3-0.1,0.4-0.1v0.7c-0.1,0.1-0.3,0.1-0.5,0.1s-0.4,0-0.6,0
			c-1.2,0-1.9-0.7-1.9-2v-3.8H195v-0.5L196,98l0.4-1.4h0.6v1.5h1.9v0.8h-1.9v3.8c0,0.4,0.1,0.7,0.3,0.9S197.6,103.9,198,103.9z"/>
		<path class="st6" d="M202.8,104.7c-0.9,0-1.7-0.3-2.2-0.9s-0.8-1.4-0.8-2.4c0-1,0.3-1.9,0.8-2.5s1.2-0.9,2.1-0.9
			c0.8,0,1.4,0.3,1.9,0.8s0.7,1.2,0.7,2.1v0.6h-4.4c0,0.8,0.2,1.3,0.6,1.7s0.9,0.6,1.5,0.6c0.7,0,1.4-0.1,2.1-0.4v0.9
			c-0.3,0.1-0.7,0.3-1,0.3S203.3,104.7,202.8,104.7z M202.6,98.8c-0.5,0-0.9,0.2-1.2,0.5s-0.5,0.8-0.5,1.4h3.4
			c0-0.6-0.1-1.1-0.4-1.4S203.1,98.8,202.6,98.8z"/>
		<path class="st6" d="M211,102.8c0,0.6-0.2,1.1-0.7,1.4s-1.1,0.5-1.9,0.5c-0.9,0-1.5-0.1-2-0.4v-0.9c0.3,0.2,0.6,0.3,1,0.4
			s0.7,0.1,1,0.1c0.5,0,0.9-0.1,1.2-0.2s0.4-0.4,0.4-0.7c0-0.2-0.1-0.5-0.3-0.6s-0.6-0.4-1.3-0.6c-0.6-0.2-1-0.4-1.3-0.6
			s-0.4-0.4-0.6-0.6s-0.2-0.5-0.2-0.8c0-0.5,0.2-0.9,0.6-1.2s1-0.5,1.8-0.5c0.7,0,1.4,0.1,2,0.4l-0.3,0.8c-0.6-0.3-1.2-0.4-1.8-0.4
			c-0.5,0-0.8,0.1-1,0.2s-0.4,0.3-0.4,0.6c0,0.2,0,0.3,0.1,0.4s0.2,0.2,0.4,0.3s0.6,0.3,1.1,0.5c0.8,0.3,1.3,0.6,1.5,0.8
			S211,102.4,211,102.8z"/>
		<path class="st6" d="M214.7,103.9c0.2,0,0.3,0,0.5,0s0.3-0.1,0.4-0.1v0.7c-0.1,0.1-0.3,0.1-0.5,0.1s-0.4,0-0.6,0
			c-1.2,0-1.9-0.7-1.9-2v-3.8h-0.9v-0.5l0.9-0.4l0.4-1.4h0.6v1.5h1.9v0.8h-1.9v3.8c0,0.4,0.1,0.7,0.3,0.9S214.3,103.9,214.7,103.9z"
			/>
		<path class="st6" d="M221,102.8c0,0.6-0.2,1.1-0.7,1.4s-1.1,0.5-1.9,0.5c-0.9,0-1.5-0.1-2-0.4v-0.9c0.3,0.2,0.6,0.3,1,0.4
			s0.7,0.1,1,0.1c0.5,0,0.9-0.1,1.2-0.2s0.4-0.4,0.4-0.7c0-0.2-0.1-0.5-0.3-0.6s-0.6-0.4-1.3-0.6c-0.6-0.2-1-0.4-1.3-0.6
			s-0.4-0.4-0.6-0.6s-0.2-0.5-0.2-0.8c0-0.5,0.2-0.9,0.6-1.2s1-0.5,1.8-0.5c0.7,0,1.4,0.1,2,0.4l-0.3,0.8c-0.6-0.3-1.2-0.4-1.8-0.4
			c-0.5,0-0.8,0.1-1,0.2s-0.4,0.3-0.4,0.6c0,0.2,0,0.3,0.1,0.4s0.2,0.2,0.4,0.3s0.6,0.3,1.1,0.5c0.8,0.3,1.3,0.6,1.5,0.8
			S221,102.4,221,102.8z"/>
	</g>
	<g>
		<path class="st6" d="M160.6,148.3c0,1.1-0.2,2-0.7,2.7s-1.1,1.2-1.9,1.5l2,2.1h-1.4l-1.7-1.9l-0.3,0c-1.3,0-2.2-0.4-2.9-1.2
			s-1-1.9-1-3.3c0-1.4,0.3-2.5,1-3.2s1.7-1.2,2.9-1.2c1.2,0,2.2,0.4,2.9,1.2S160.6,146.9,160.6,148.3z M153.8,148.3
			c0,1.2,0.2,2,0.7,2.6s1.2,0.9,2.2,0.9c0.9,0,1.7-0.3,2.2-0.9s0.7-1.5,0.7-2.6c0-1.2-0.2-2-0.7-2.6s-1.2-0.9-2.1-0.9
			c-0.9,0-1.7,0.3-2.2,0.9S153.8,147.1,153.8,148.3z"/>
		<path class="st6" d="M163.3,146.1v4.2c0,0.5,0.1,0.9,0.4,1.2s0.6,0.4,1.1,0.4c0.7,0,1.2-0.2,1.5-0.6s0.5-1,0.5-1.8v-3.4h1v6.4
			h-0.8l-0.1-0.9h-0.1c-0.2,0.3-0.5,0.6-0.8,0.7s-0.8,0.3-1.2,0.3c-0.8,0-1.4-0.2-1.8-0.6s-0.6-1-0.6-1.8v-4.2H163.3z"/>
		<path class="st6" d="M172.5,152.7c-0.9,0-1.7-0.3-2.2-0.9s-0.8-1.4-0.8-2.4c0-1,0.3-1.9,0.8-2.5s1.2-0.9,2.1-0.9
			c0.8,0,1.4,0.3,1.9,0.8s0.7,1.2,0.7,2.1v0.6h-4.4c0,0.8,0.2,1.3,0.6,1.7s0.9,0.6,1.5,0.6c0.7,0,1.4-0.1,2.1-0.4v0.9
			c-0.3,0.1-0.7,0.3-1,0.3S172.9,152.7,172.5,152.7z M172.2,146.8c-0.5,0-0.9,0.2-1.2,0.5s-0.5,0.8-0.5,1.4h3.4
			c0-0.6-0.1-1.1-0.4-1.4S172.7,146.8,172.2,146.8z"/>
		<path class="st6" d="M179.4,146c0.3,0,0.5,0,0.8,0.1L180,147c-0.3-0.1-0.5-0.1-0.7-0.1c-0.5,0-1,0.2-1.3,0.6s-0.6,0.9-0.6,1.6v3.4
			h-1v-6.4h0.8l0.1,1.2h0c0.2-0.4,0.5-0.7,0.9-1S179,146,179.4,146z"/>
		<path class="st6" d="M180.4,146.1h1l1.4,3.7c0.3,0.8,0.5,1.4,0.6,1.8h0c0.1-0.2,0.2-0.5,0.3-1s0.7-2,1.6-4.5h1l-2.8,7.3
			c-0.3,0.7-0.6,1.2-1,1.5s-0.8,0.5-1.3,0.5c-0.3,0-0.6,0-0.9-0.1v-0.8c0.2,0,0.5,0.1,0.7,0.1c0.7,0,1.1-0.4,1.4-1.1l0.4-0.9
			L180.4,146.1z"/>
		<path class="st6" d="M193.5,146c0.3,0,0.5,0,0.8,0.1l-0.1,0.9c-0.3-0.1-0.5-0.1-0.7-0.1c-0.5,0-1,0.2-1.3,0.6s-0.6,0.9-0.6,1.6
			v3.4h-1v-6.4h0.8l0.1,1.2h0c0.2-0.4,0.5-0.7,0.9-1S193.1,146,193.5,146z"/>
		<path class="st6" d="M198.1,152.7c-0.9,0-1.7-0.3-2.2-0.9s-0.8-1.4-0.8-2.4c0-1,0.3-1.9,0.8-2.5s1.2-0.9,2.1-0.9
			c0.8,0,1.4,0.3,1.9,0.8s0.7,1.2,0.7,2.1v0.6h-4.4c0,0.8,0.2,1.3,0.6,1.7s0.9,0.6,1.5,0.6c0.7,0,1.4-0.1,2.1-0.4v0.9
			c-0.3,0.1-0.7,0.3-1,0.3S198.6,152.7,198.1,152.7z M197.9,146.8c-0.5,0-0.9,0.2-1.2,0.5s-0.5,0.8-0.5,1.4h3.4
			c0-0.6-0.1-1.1-0.4-1.4S198.4,146.8,197.9,146.8z"/>
		<path class="st6" d="M206.3,150.8c0,0.6-0.2,1.1-0.7,1.4s-1.1,0.5-1.9,0.5c-0.9,0-1.5-0.1-2-0.4v-0.9c0.3,0.2,0.6,0.3,1,0.4
			s0.7,0.1,1,0.1c0.5,0,0.9-0.1,1.2-0.2s0.4-0.4,0.4-0.7c0-0.2-0.1-0.5-0.3-0.6s-0.6-0.4-1.3-0.6c-0.6-0.2-1-0.4-1.3-0.6
			s-0.4-0.4-0.6-0.6s-0.2-0.5-0.2-0.8c0-0.5,0.2-0.9,0.6-1.2s1-0.5,1.8-0.5c0.7,0,1.4,0.1,2,0.4l-0.3,0.8c-0.6-0.3-1.2-0.4-1.8-0.4
			c-0.5,0-0.8,0.1-1,0.2s-0.4,0.3-0.4,0.6c0,0.2,0,0.3,0.1,0.4s0.2,0.2,0.4,0.3s0.6,0.3,1.1,0.5c0.8,0.3,1.3,0.6,1.5,0.8
			S206.3,150.4,206.3,150.8z"/>
		<path class="st6" d="M208.8,146.1v4.2c0,0.5,0.1,0.9,0.4,1.2s0.6,0.4,1.1,0.4c0.7,0,1.2-0.2,1.5-0.6s0.5-1,0.5-1.8v-3.4h1v6.4
			h-0.8l-0.1-0.9h-0.1c-0.2,0.3-0.5,0.6-0.8,0.7s-0.8,0.3-1.2,0.3c-0.8,0-1.4-0.2-1.8-0.6s-0.6-1-0.6-1.8v-4.2H208.8z"/>
		<path class="st6" d="M216.2,152.6h-1v-9.1h1V152.6z"/>
		<path class="st6" d="M220.4,151.9c0.2,0,0.3,0,0.5,0s0.3-0.1,0.4-0.1v0.7c-0.1,0.1-0.3,0.1-0.5,0.1s-0.4,0-0.6,0
			c-1.2,0-1.9-0.7-1.9-2v-3.8h-0.9v-0.5l0.9-0.4l0.4-1.4h0.6v1.5h1.9v0.8h-1.9v3.8c0,0.4,0.1,0.7,0.3,0.9S220,151.9,220.4,151.9z"/>
		<path class="st6" d="M226.7,150.8c0,0.6-0.2,1.1-0.7,1.4s-1.1,0.5-1.9,0.5c-0.9,0-1.5-0.1-2-0.4v-0.9c0.3,0.2,0.6,0.3,1,0.4
			s0.7,0.1,1,0.1c0.5,0,0.9-0.1,1.2-0.2s0.4-0.4,0.4-0.7c0-0.2-0.1-0.5-0.3-0.6s-0.6-0.4-1.3-0.6c-0.6-0.2-1-0.4-1.3-0.6
			s-0.4-0.4-0.6-0.6s-0.2-0.5-0.2-0.8c0-0.5,0.2-0.9,0.6-1.2s1-0.5,1.8-0.5c0.7,0,1.4,0.1,2,0.4l-0.3,0.8c-0.6-0.3-1.2-0.4-1.8-0.4
			c-0.5,0-0.8,0.1-1,0.2s-0.4,0.3-0.4,0.6c0,0.2,0,0.3,0.1,0.4s0.2,0.2,0.4,0.3s0.6,0.3,1.1,0.5c0.8,0.3,1.3,0.6,1.5,0.8
			S226.7,150.4,226.7,150.8z"/>
	</g>
	<g>
		<path class="st6" d="M158,254.3c0,0.8-0.3,1.3-0.8,1.8s-1.3,0.6-2.2,0.6c-1,0-1.8-0.1-2.3-0.4v-1c0.4,0.1,0.7,0.3,1.1,0.4
			s0.8,0.1,1.2,0.1c0.7,0,1.2-0.1,1.5-0.4s0.5-0.6,0.5-1.1c0-0.3-0.1-0.5-0.2-0.7s-0.3-0.4-0.6-0.5s-0.7-0.3-1.3-0.5
			c-0.8-0.3-1.4-0.6-1.7-1s-0.5-0.9-0.5-1.5c0-0.7,0.2-1.2,0.7-1.6s1.2-0.6,2-0.6c0.9,0,1.6,0.2,2.3,0.5l-0.3,0.9
			c-0.7-0.3-1.4-0.4-2.1-0.4c-0.5,0-0.9,0.1-1.2,0.3s-0.4,0.5-0.4,0.9c0,0.3,0.1,0.5,0.2,0.7s0.3,0.4,0.6,0.5s0.7,0.3,1.2,0.5
			c0.9,0.3,1.5,0.7,1.9,1S158,253.7,158,254.3z"/>
		<path class="st6" d="M160.5,250.1v4.2c0,0.5,0.1,0.9,0.4,1.2s0.6,0.4,1.1,0.4c0.7,0,1.2-0.2,1.5-0.6s0.5-1,0.5-1.8v-3.4h1v6.4
			h-0.8l-0.1-0.9h-0.1c-0.2,0.3-0.5,0.6-0.8,0.7s-0.8,0.3-1.2,0.3c-0.8,0-1.4-0.2-1.8-0.6s-0.6-1-0.6-1.8v-4.2H160.5z"/>
		<path class="st6" d="M170,250c0.8,0,1.5,0.3,2,0.9s0.7,1.4,0.7,2.4s-0.2,1.9-0.7,2.5s-1.1,0.9-2,0.9c-0.4,0-0.8-0.1-1.1-0.2
			s-0.6-0.4-0.9-0.7h-0.1l-0.2,0.8H167v-9.1h1v2.2c0,0.5,0,0.9,0,1.3h0C168.4,250.4,169.1,250,170,250z M169.8,250.8
			c-0.7,0-1.1,0.2-1.4,0.6s-0.4,1-0.4,1.9s0.2,1.5,0.5,1.9s0.8,0.6,1.4,0.6c0.6,0,1-0.2,1.3-0.7s0.4-1.1,0.4-1.9
			c0-0.8-0.1-1.5-0.4-1.9S170.4,250.8,169.8,250.8z"/>
		<path class="st6" d="M182.5,256.6v-4.2c0-0.5-0.1-0.9-0.3-1.2s-0.6-0.4-1-0.4c-0.6,0-1.1,0.2-1.3,0.5s-0.4,0.9-0.4,1.6v3.6h-1
			v-4.2c0-0.5-0.1-0.9-0.3-1.2s-0.6-0.4-1-0.4c-0.6,0-1.1,0.2-1.3,0.5s-0.4,1-0.4,1.8v3.4h-1v-6.4h0.8l0.2,0.9h0
			c0.2-0.3,0.4-0.6,0.8-0.7s0.7-0.3,1.1-0.3c1,0,1.7,0.4,2,1.1h0c0.2-0.3,0.5-0.6,0.8-0.8s0.8-0.3,1.2-0.3c0.7,0,1.3,0.2,1.6,0.6
			s0.5,1,0.5,1.8v4.2H182.5z"/>
		<path class="st6" d="M185.4,248.4c0-0.2,0.1-0.4,0.2-0.5s0.2-0.2,0.4-0.2c0.2,0,0.3,0.1,0.4,0.2s0.2,0.3,0.2,0.5s-0.1,0.4-0.2,0.5
			s-0.2,0.2-0.4,0.2c-0.2,0-0.3-0.1-0.4-0.2S185.4,248.6,185.4,248.4z M186.5,256.6h-1v-6.4h1V256.6z"/>
		<path class="st6" d="M190.6,255.9c0.2,0,0.3,0,0.5,0s0.3-0.1,0.4-0.1v0.7c-0.1,0.1-0.3,0.1-0.5,0.1s-0.4,0-0.6,0
			c-1.2,0-1.9-0.7-1.9-2v-3.8h-0.9v-0.5l0.9-0.4l0.4-1.4h0.6v1.5h1.9v0.8h-1.9v3.8c0,0.4,0.1,0.7,0.3,0.9S190.3,255.9,190.6,255.9z"
			/>
		<path class="st6" d="M198,255.9c0.2,0,0.3,0,0.5,0s0.3-0.1,0.4-0.1v0.7c-0.1,0.1-0.3,0.1-0.5,0.1s-0.4,0-0.6,0
			c-1.2,0-1.9-0.7-1.9-2v-3.8H195v-0.5l0.9-0.4l0.4-1.4h0.6v1.5h1.9v0.8h-1.9v3.8c0,0.4,0.1,0.7,0.3,0.9S197.6,255.9,198,255.9z"/>
		<path class="st6" d="M202.8,256.7c-0.9,0-1.7-0.3-2.2-0.9s-0.8-1.4-0.8-2.4c0-1,0.3-1.9,0.8-2.5s1.2-0.9,2.1-0.9
			c0.8,0,1.4,0.3,1.9,0.8s0.7,1.2,0.7,2.1v0.6h-4.4c0,0.8,0.2,1.3,0.6,1.7s0.9,0.6,1.5,0.6c0.7,0,1.4-0.1,2.1-0.4v0.9
			c-0.3,0.1-0.7,0.3-1,0.3S203.3,256.7,202.8,256.7z M202.6,250.8c-0.5,0-0.9,0.2-1.2,0.5s-0.5,0.8-0.5,1.4h3.4
			c0-0.6-0.1-1.1-0.4-1.4S203.1,250.8,202.6,250.8z"/>
		<path class="st6" d="M211,254.8c0,0.6-0.2,1.1-0.7,1.4s-1.1,0.5-1.9,0.5c-0.9,0-1.5-0.1-2-0.4v-0.9c0.3,0.2,0.6,0.3,1,0.4
			s0.7,0.1,1,0.1c0.5,0,0.9-0.1,1.2-0.2s0.4-0.4,0.4-0.7c0-0.2-0.1-0.5-0.3-0.6s-0.6-0.4-1.3-0.6c-0.6-0.2-1-0.4-1.3-0.6
			s-0.4-0.4-0.6-0.6s-0.2-0.5-0.2-0.8c0-0.5,0.2-0.9,0.6-1.2s1-0.5,1.8-0.5c0.7,0,1.4,0.1,2,0.4l-0.3,0.8c-0.6-0.3-1.2-0.4-1.8-0.4
			c-0.5,0-0.8,0.1-1,0.2s-0.4,0.3-0.4,0.6c0,0.2,0,0.3,0.1,0.4s0.2,0.2,0.4,0.3s0.6,0.3,1.1,0.5c0.8,0.3,1.3,0.6,1.5,0.8
			S211,254.4,211,254.8z"/>
		<path class="st6" d="M214.7,255.9c0.2,0,0.3,0,0.5,0s0.3-0.1,0.4-0.1v0.7c-0.1,0.1-0.3,0.1-0.5,0.1s-0.4,0-0.6,0
			c-1.2,0-1.9-0.7-1.9-2v-3.8h-0.9v-0.5l0.9-0.4l0.4-1.4h0.6v1.5h1.9v0.8h-1.9v3.8c0,0.4,0.1,0.7,0.3,0.9S214.3,255.9,214.7,255.9z"
			/>
		<path class="st6" d="M221,254.8c0,0.6-0.2,1.1-0.7,1.4s-1.1,0.5-1.9,0.5c-0.9,0-1.5-0.1-2-0.4v-0.9c0.3,0.2,0.6,0.3,1,0.4
			s0.7,0.1,1,0.1c0.5,0,0.9-0.1,1.2-0.2s0.4-0.4,0.4-0.7c0-0.2-0.1-0.5-0.3-0.6s-0.6-0.4-1.3-0.6c-0.6-0.2-1-0.4-1.3-0.6
			s-0.4-0.4-0.6-0.6s-0.2-0.5-0.2-0.8c0-0.5,0.2-0.9,0.6-1.2s1-0.5,1.8-0.5c0.7,0,1.4,0.1,2,0.4l-0.3,0.8c-0.6-0.3-1.2-0.4-1.8-0.4
			c-0.5,0-0.8,0.1-1,0.2s-0.4,0.3-0.4,0.6c0,0.2,0,0.3,0.1,0.4s0.2,0.2,0.4,0.3s0.6,0.3,1.1,0.5c0.8,0.3,1.3,0.6,1.5,0.8
			S221,254.4,221,254.8z"/>
	</g>
	<g>
		<path class="st6" d="M160.6,300.3c0,1.1-0.2,2-0.7,2.7s-1.1,1.2-1.9,1.5l2,2.1h-1.4l-1.7-1.9l-0.3,0c-1.3,0-2.2-0.4-2.9-1.2
			s-1-1.9-1-3.3c0-1.4,0.3-2.5,1-3.2s1.7-1.2,2.9-1.2c1.2,0,2.2,0.4,2.9,1.2S160.6,298.9,160.6,300.3z M153.8,300.3
			c0,1.2,0.2,2,0.7,2.6s1.2,0.9,2.2,0.9c0.9,0,1.7-0.3,2.2-0.9s0.7-1.5,0.7-2.6c0-1.2-0.2-2-0.7-2.6s-1.2-0.9-2.1-0.9
			c-0.9,0-1.7,0.3-2.2,0.9S153.8,299.1,153.8,300.3z"/>
		<path class="st6" d="M163.3,298.1v4.2c0,0.5,0.1,0.9,0.4,1.2s0.6,0.4,1.1,0.4c0.7,0,1.2-0.2,1.5-0.6s0.5-1,0.5-1.8v-3.4h1v6.4
			h-0.8l-0.1-0.9h-0.1c-0.2,0.3-0.5,0.6-0.8,0.7s-0.8,0.3-1.2,0.3c-0.8,0-1.4-0.2-1.8-0.6s-0.6-1-0.6-1.8v-4.2H163.3z"/>
		<path class="st6" d="M172.5,304.7c-0.9,0-1.7-0.3-2.2-0.9s-0.8-1.4-0.8-2.4c0-1,0.3-1.9,0.8-2.5s1.2-0.9,2.1-0.9
			c0.8,0,1.4,0.3,1.9,0.8s0.7,1.2,0.7,2.1v0.6h-4.4c0,0.8,0.2,1.3,0.6,1.7s0.9,0.6,1.5,0.6c0.7,0,1.4-0.1,2.1-0.4v0.9
			c-0.3,0.1-0.7,0.3-1,0.3S172.9,304.7,172.5,304.7z M172.2,298.8c-0.5,0-0.9,0.2-1.2,0.5s-0.5,0.8-0.5,1.4h3.4
			c0-0.6-0.1-1.1-0.4-1.4S172.7,298.8,172.2,298.8z"/>
		<path class="st6" d="M179.4,298c0.3,0,0.5,0,0.8,0.1L180,299c-0.3-0.1-0.5-0.1-0.7-0.1c-0.5,0-1,0.2-1.3,0.6s-0.6,0.9-0.6,1.6v3.4
			h-1v-6.4h0.8l0.1,1.2h0c0.2-0.4,0.5-0.7,0.9-1S179,298,179.4,298z"/>
		<path class="st6" d="M180.4,298.1h1l1.4,3.7c0.3,0.8,0.5,1.4,0.6,1.8h0c0.1-0.2,0.2-0.5,0.3-1s0.7-2,1.6-4.5h1l-2.8,7.3
			c-0.3,0.7-0.6,1.2-1,1.5s-0.8,0.5-1.3,0.5c-0.3,0-0.6,0-0.9-0.1v-0.8c0.2,0,0.5,0.1,0.7,0.1c0.7,0,1.1-0.4,1.4-1.1l0.4-0.9
			L180.4,298.1z"/>
		<path class="st6" d="M193.5,298c0.3,0,0.5,0,0.8,0.1l-0.1,0.9c-0.3-0.1-0.5-0.1-0.7-0.1c-0.5,0-1,0.2-1.3,0.6s-0.6,0.9-0.6,1.6
			v3.4h-1v-6.4h0.8l0.1,1.2h0c0.2-0.4,0.5-0.7,0.9-1S193.1,298,193.5,298z"/>
		<path class="st6" d="M198.1,304.7c-0.9,0-1.7-0.3-2.2-0.9s-0.8-1.4-0.8-2.4c0-1,0.3-1.9,0.8-2.5s1.2-0.9,2.1-0.9
			c0.8,0,1.4,0.3,1.9,0.8s0.7,1.2,0.7,2.1v0.6h-4.4c0,0.8,0.2,1.3,0.6,1.7s0.9,0.6,1.5,0.6c0.7,0,1.4-0.1,2.1-0.4v0.9
			c-0.3,0.1-0.7,0.3-1,0.3S198.6,304.7,198.1,304.7z M197.9,298.8c-0.5,0-0.9,0.2-1.2,0.5s-0.5,0.8-0.5,1.4h3.4
			c0-0.6-0.1-1.1-0.4-1.4S198.4,298.8,197.9,298.8z"/>
		<path class="st6" d="M206.3,302.8c0,0.6-0.2,1.1-0.7,1.4s-1.1,0.5-1.9,0.5c-0.9,0-1.5-0.1-2-0.4v-0.9c0.3,0.2,0.6,0.3,1,0.4
			s0.7,0.1,1,0.1c0.5,0,0.9-0.1,1.2-0.2s0.4-0.4,0.4-0.7c0-0.2-0.1-0.5-0.3-0.6s-0.6-0.4-1.3-0.6c-0.6-0.2-1-0.4-1.3-0.6
			s-0.4-0.4-0.6-0.6s-0.2-0.5-0.2-0.8c0-0.5,0.2-0.9,0.6-1.2s1-0.5,1.8-0.5c0.7,0,1.4,0.1,2,0.4l-0.3,0.8c-0.6-0.3-1.2-0.4-1.8-0.4
			c-0.5,0-0.8,0.1-1,0.2s-0.4,0.3-0.4,0.6c0,0.2,0,0.3,0.1,0.4s0.2,0.2,0.4,0.3s0.6,0.3,1.1,0.5c0.8,0.3,1.3,0.6,1.5,0.8
			S206.3,302.4,206.3,302.8z"/>
		<path class="st6" d="M208.8,298.1v4.2c0,0.5,0.1,0.9,0.4,1.2s0.6,0.4,1.1,0.4c0.7,0,1.2-0.2,1.5-0.6s0.5-1,0.5-1.8v-3.4h1v6.4
			h-0.8l-0.1-0.9h-0.1c-0.2,0.3-0.5,0.6-0.8,0.7s-0.8,0.3-1.2,0.3c-0.8,0-1.4-0.2-1.8-0.6s-0.6-1-0.6-1.8v-4.2H208.8z"/>
		<path class="st6" d="M216.2,304.6h-1v-9.1h1V304.6z"/>
		<path class="st6" d="M220.4,303.9c0.2,0,0.3,0,0.5,0s0.3-0.1,0.4-0.1v0.7c-0.1,0.1-0.3,0.1-0.5,0.1s-0.4,0-0.6,0
			c-1.2,0-1.9-0.7-1.9-2v-3.8h-0.9v-0.5l0.9-0.4l0.4-1.4h0.6v1.5h1.9v0.8h-1.9v3.8c0,0.4,0.1,0.7,0.3,0.9S220,303.9,220.4,303.9z"/>
		<path class="st6" d="M226.7,302.8c0,0.6-0.2,1.1-0.7,1.4s-1.1,0.5-1.9,0.5c-0.9,0-1.5-0.1-2-0.4v-0.9c0.3,0.2,0.6,0.3,1,0.4
			s0.7,0.1,1,0.1c0.5,0,0.9-0.1,1.2-0.2s0.4-0.4,0.4-0.7c0-0.2-0.1-0.5-0.3-0.6s-0.6-0.4-1.3-0.6c-0.6-0.2-1-0.4-1.3-0.6
			s-0.4-0.4-0.6-0.6s-0.2-0.5-0.2-0.8c0-0.5,0.2-0.9,0.6-1.2s1-0.5,1.8-0.5c0.7,0,1.4,0.1,2,0.4l-0.3,0.8c-0.6-0.3-1.2-0.4-1.8-0.4
			c-0.5,0-0.8,0.1-1,0.2s-0.4,0.3-0.4,0.6c0,0.2,0,0.3,0.1,0.4s0.2,0.2,0.4,0.3s0.6,0.3,1.1,0.5c0.8,0.3,1.3,0.6,1.5,0.8
			S226.7,302.4,226.7,302.8z"/>
	</g>
	<g>
		<g>
			<path d="M9.2,104.6V96h1v8.6H9.2z"/>
			<path d="M19.4,100.2c0,1.4-0.4,2.5-1.2,3.2s-1.9,1.1-3.3,1.1h-2.4V96h2.6c1.3,0,2.4,0.4,3.1,1.1S19.4,98.9,19.4,100.2z
				 M18.3,100.2c0-1.1-0.3-2-0.8-2.5s-1.4-0.8-2.5-0.8h-1.4v6.8h1.2c1.2,0,2.1-0.3,2.7-0.9S18.3,101.4,18.3,100.2z"/>
			<path d="M26,104.6h-4.8V96H26v0.9h-3.8v2.8h3.6v0.9h-3.6v3.2H26V104.6z"/>
		</g>
	</g>
	<g>
		<g>
			<path d="M14.6,250.5c0,0.9-0.3,1.5-0.9,2s-1.4,0.7-2.5,0.7h-1v3.4h-1V248h2.2C13.5,248,14.6,248.8,14.6,250.5z M10.2,252.3h0.9
				c0.9,0,1.5-0.1,1.9-0.4s0.6-0.7,0.6-1.4c0-0.6-0.2-1-0.6-1.3s-0.9-0.4-1.7-0.4h-1.1V252.3z"/>
			<path d="M16.2,248.4c0-0.2,0.1-0.4,0.2-0.5s0.2-0.2,0.4-0.2c0.2,0,0.3,0.1,0.4,0.2s0.2,0.3,0.2,0.5s-0.1,0.4-0.2,0.5
				s-0.2,0.2-0.4,0.2c-0.2,0-0.3-0.1-0.4-0.2S16.2,248.6,16.2,248.4z M17.2,256.6h-1v-6.4h1V256.6z"/>
			<path d="M22.3,256.7c-0.4,0-0.8-0.1-1.1-0.2s-0.6-0.4-0.9-0.7h-0.1c0,0.4,0.1,0.7,0.1,1.1v2.6h-1v-9.3h0.8l0.1,0.9h0
				c0.2-0.4,0.5-0.6,0.9-0.8s0.7-0.2,1.1-0.2c0.9,0,1.5,0.3,2,0.9s0.7,1.4,0.7,2.4c0,1.1-0.2,1.9-0.7,2.5S23.1,256.7,22.3,256.7z
				 M22.1,250.8c-0.7,0-1.1,0.2-1.4,0.5s-0.4,0.9-0.5,1.7v0.2c0,0.9,0.2,1.5,0.5,1.9s0.8,0.6,1.4,0.6c0.6,0,1-0.2,1.3-0.7
				s0.5-1.1,0.5-1.9c0-0.8-0.2-1.4-0.5-1.8S22.7,250.8,22.1,250.8z"/>
			<path d="M29.4,256.7c-0.9,0-1.7-0.3-2.2-0.9s-0.8-1.4-0.8-2.4c0-1,0.3-1.9,0.8-2.5s1.2-0.9,2.1-0.9c0.8,0,1.4,0.3,1.9,0.8
				s0.7,1.2,0.7,2.1v0.6h-4.4c0,0.8,0.2,1.3,0.6,1.7s0.9,0.6,1.5,0.6c0.7,0,1.4-0.1,2.1-0.4v0.9c-0.3,0.1-0.7,0.3-1,0.3
				S29.8,256.7,29.4,256.7z M29.1,250.8c-0.5,0-0.9,0.2-1.2,0.5s-0.5,0.8-0.5,1.4h3.4c0-0.6-0.1-1.1-0.4-1.4S29.6,250.8,29.1,250.8z
				"/>
			<path d="M34.3,256.6h-1v-9.1h1V256.6z"/>
			<path d="M36.3,248.4c0-0.2,0.1-0.4,0.2-0.5s0.2-0.2,0.4-0.2c0.2,0,0.3,0.1,0.4,0.2s0.2,0.3,0.2,0.5s-0.1,0.4-0.2,0.5
				s-0.2,0.2-0.4,0.2c-0.2,0-0.3-0.1-0.4-0.2S36.3,248.6,36.3,248.4z M37.4,256.6h-1v-6.4h1V256.6z"/>
			<path d="M43.8,256.6v-4.2c0-0.5-0.1-0.9-0.4-1.2s-0.6-0.4-1.1-0.4c-0.7,0-1.2,0.2-1.5,0.5s-0.5,1-0.5,1.8v3.4h-1v-6.4h0.8
				l0.2,0.9h0c0.2-0.3,0.5-0.6,0.8-0.7s0.8-0.3,1.2-0.3c0.8,0,1.4,0.2,1.7,0.6s0.6,1,0.6,1.8v4.2H43.8z"/>
			<path d="M49.5,256.7c-0.9,0-1.7-0.3-2.2-0.9s-0.8-1.4-0.8-2.4c0-1,0.3-1.9,0.8-2.5s1.2-0.9,2.1-0.9c0.8,0,1.4,0.3,1.9,0.8
				s0.7,1.2,0.7,2.1v0.6h-4.4c0,0.8,0.2,1.3,0.6,1.7s0.9,0.6,1.5,0.6c0.7,0,1.4-0.1,2.1-0.4v0.9c-0.3,0.1-0.7,0.3-1,0.3
				S50,256.7,49.5,256.7z M49.3,250.8c-0.5,0-0.9,0.2-1.2,0.5s-0.5,0.8-0.5,1.4h3.4c0-0.6-0.1-1.1-0.4-1.4S49.8,250.8,49.3,250.8z"
				/>
		</g>
	</g>
	<g>
		<path class="st6" d="M309.9,75.8c-1,0-1.9-0.2-2.6-0.7c-0.7-0.4-1.3-1.1-1.7-1.9s-0.6-1.8-0.6-2.9c0-1.1,0.2-2.1,0.6-2.9
			c0.4-0.8,1-1.4,1.8-1.9c0.8-0.4,1.7-0.7,2.7-0.7c1.1,0,2,0.2,2.7,0.6c0.7,0.4,1.2,1,1.6,1.9l-1.6,0.8c-0.2-0.6-0.5-1-1-1.3
			c-0.5-0.3-1-0.4-1.7-0.4s-1.2,0.2-1.7,0.5c-0.5,0.3-0.9,0.8-1.2,1.4s-0.4,1.3-0.4,2.1c0,0.8,0.1,1.6,0.4,2.2
			c0.2,0.6,0.6,1,1.1,1.4s1.1,0.5,1.8,0.5c0.4,0,0.8-0.1,1.1-0.2c0.3-0.1,0.6-0.3,0.9-0.4c0.3-0.2,0.5-0.4,0.6-0.8
			c0.1-0.3,0.2-0.7,0.2-1.1v-0.3h-3.1v-1.4h4.6v5.4h-1.3l-0.1-2.1l0.3,0.2c-0.3,0.7-0.7,1.2-1.3,1.6S310.8,75.8,309.9,75.8z"/>
		<path class="st6" d="M321.5,70.5c0-0.5-0.1-0.9-0.4-1.2c-0.3-0.3-0.7-0.4-1.2-0.4c-0.5,0-0.9,0.1-1.2,0.3
			c-0.3,0.2-0.6,0.6-0.8,1.1l-1.4-0.6c0.2-0.7,0.6-1.2,1.2-1.6s1.4-0.6,2.3-0.6c0.6,0,1.2,0.1,1.7,0.3c0.5,0.2,0.9,0.5,1.2,0.9
			c0.3,0.4,0.4,0.9,0.4,1.6v3.6c0,0.4,0.2,0.6,0.6,0.6c0.2,0,0.4,0,0.6-0.1l-0.1,1.2c-0.2,0.1-0.6,0.2-0.9,0.2
			c-0.3,0-0.6-0.1-0.9-0.2c-0.3-0.1-0.5-0.3-0.6-0.6c-0.2-0.3-0.2-0.6-0.2-0.9v-0.1l0.4,0c-0.1,0.4-0.3,0.8-0.6,1s-0.6,0.5-1,0.6
			s-0.8,0.2-1.2,0.2c-0.5,0-1-0.1-1.4-0.2c-0.4-0.2-0.7-0.4-0.9-0.7c-0.2-0.3-0.3-0.7-0.3-1.2c0-0.6,0.2-1.1,0.6-1.5
			c0.4-0.4,0.9-0.6,1.7-0.8l3.1-0.6l0,1.2l-2.3,0.5c-0.4,0.1-0.8,0.2-1,0.4c-0.2,0.2-0.3,0.4-0.3,0.7c0,0.3,0.1,0.5,0.3,0.7
			c0.2,0.2,0.5,0.3,0.9,0.3c0.3,0,0.5,0,0.8-0.1s0.5-0.2,0.7-0.3c0.2-0.1,0.4-0.3,0.5-0.6c0.1-0.2,0.2-0.5,0.2-0.8V70.5z"/>
		<path class="st6" d="M327.7,64v9.4c0,0.4,0.1,0.7,0.2,0.8s0.4,0.2,0.7,0.2c0.2,0,0.4,0,0.5,0c0.1,0,0.3-0.1,0.5-0.2l-0.2,1.3
			c-0.2,0.1-0.4,0.2-0.6,0.2c-0.2,0-0.5,0.1-0.7,0.1c-0.7,0-1.2-0.2-1.6-0.6c-0.3-0.4-0.5-0.9-0.5-1.7V64H327.7z"/>
		<path class="st6" d="M335.7,70.5c0-0.5-0.1-0.9-0.4-1.2c-0.3-0.3-0.7-0.4-1.2-0.4c-0.5,0-0.9,0.1-1.2,0.3
			c-0.3,0.2-0.6,0.6-0.8,1.1l-1.4-0.6c0.2-0.7,0.6-1.2,1.2-1.6s1.4-0.6,2.3-0.6c0.6,0,1.2,0.1,1.7,0.3c0.5,0.2,0.9,0.5,1.2,0.9
			c0.3,0.4,0.4,0.9,0.4,1.6v3.6c0,0.4,0.2,0.6,0.6,0.6c0.2,0,0.4,0,0.6-0.1l-0.1,1.2c-0.2,0.1-0.6,0.2-0.9,0.2
			c-0.3,0-0.6-0.1-0.9-0.2c-0.3-0.1-0.5-0.3-0.6-0.6c-0.2-0.3-0.2-0.6-0.2-0.9v-0.1l0.4,0c-0.1,0.4-0.3,0.8-0.6,1s-0.6,0.5-1,0.6
			s-0.8,0.2-1.2,0.2c-0.5,0-1-0.1-1.4-0.2c-0.4-0.2-0.7-0.4-0.9-0.7c-0.2-0.3-0.3-0.7-0.3-1.2c0-0.6,0.2-1.1,0.6-1.5
			c0.4-0.4,0.9-0.6,1.7-0.8l3.1-0.6l0,1.2l-2.3,0.5c-0.4,0.1-0.8,0.2-1,0.4c-0.2,0.2-0.3,0.4-0.3,0.7c0,0.3,0.1,0.5,0.3,0.7
			c0.2,0.2,0.5,0.3,0.9,0.3c0.3,0,0.5,0,0.8-0.1s0.5-0.2,0.7-0.3c0.2-0.1,0.4-0.3,0.5-0.6c0.1-0.2,0.2-0.5,0.2-0.8V70.5z"/>
		<path class="st6" d="M343.2,75.8c-0.8,0-1.5-0.2-2.2-0.5c-0.7-0.3-1.2-0.7-1.6-1.3l1.2-1c0.2,0.4,0.6,0.8,1,1
			c0.4,0.3,1,0.4,1.6,0.4c0.5,0,0.9-0.1,1.2-0.3c0.3-0.2,0.4-0.4,0.4-0.7c0-0.2-0.1-0.4-0.2-0.5s-0.4-0.3-0.8-0.4l-1.7-0.4
			c-0.9-0.2-1.5-0.4-1.8-0.8c-0.4-0.4-0.5-0.9-0.5-1.4c0-0.4,0.1-0.8,0.4-1.2c0.3-0.4,0.6-0.7,1.1-0.9s1.1-0.3,1.8-0.3
			c0.8,0,1.5,0.1,2,0.4s1,0.7,1.3,1.2l-1.2,1c-0.2-0.4-0.5-0.7-0.9-1s-0.8-0.3-1.2-0.3c-0.3,0-0.6,0-0.9,0.1
			c-0.2,0.1-0.4,0.2-0.6,0.4s-0.2,0.3-0.2,0.5c0,0.2,0.1,0.4,0.2,0.6s0.4,0.3,0.9,0.4l1.8,0.4c0.8,0.1,1.3,0.4,1.6,0.8
			c0.3,0.4,0.5,0.8,0.5,1.3s-0.1,1-0.4,1.4c-0.3,0.4-0.7,0.7-1.2,0.9C344.5,75.7,343.9,75.8,343.2,75.8z"/>
		<path class="st6" d="M353.3,70.5c0-0.5-0.1-0.9-0.4-1.2c-0.3-0.3-0.7-0.4-1.2-0.4c-0.5,0-0.9,0.1-1.2,0.3
			c-0.3,0.2-0.6,0.6-0.8,1.1l-1.4-0.6c0.2-0.7,0.6-1.2,1.2-1.6s1.4-0.6,2.3-0.6c0.6,0,1.2,0.1,1.7,0.3c0.5,0.2,0.9,0.5,1.2,0.9
			c0.3,0.4,0.4,0.9,0.4,1.6v3.6c0,0.4,0.2,0.6,0.6,0.6c0.2,0,0.4,0,0.6-0.1l-0.1,1.2c-0.2,0.1-0.6,0.2-0.9,0.2
			c-0.3,0-0.6-0.1-0.9-0.2c-0.3-0.1-0.5-0.3-0.6-0.6c-0.2-0.3-0.2-0.6-0.2-0.9v-0.1l0.4,0c-0.1,0.4-0.3,0.8-0.6,1s-0.6,0.5-1,0.6
			s-0.8,0.2-1.2,0.2c-0.5,0-1-0.1-1.4-0.2c-0.4-0.2-0.7-0.4-0.9-0.7c-0.2-0.3-0.3-0.7-0.3-1.2c0-0.6,0.2-1.1,0.6-1.5
			c0.4-0.4,0.9-0.6,1.7-0.8l3.1-0.6l0,1.2l-2.3,0.5c-0.4,0.1-0.8,0.2-1,0.4c-0.2,0.2-0.3,0.4-0.3,0.7c0,0.3,0.1,0.5,0.3,0.7
			c0.2,0.2,0.5,0.3,0.9,0.3c0.3,0,0.5,0,0.8-0.1s0.5-0.2,0.7-0.3c0.2-0.1,0.4-0.3,0.5-0.6c0.1-0.2,0.2-0.5,0.2-0.8V70.5z"/>
		<path class="st6" d="M366.2,75.8c-0.8,0-1.5-0.2-2.1-0.5c-0.6-0.3-1.1-0.8-1.4-1.4s-0.5-1.4-0.5-2.2s0.2-1.6,0.5-2.2
			s0.8-1.1,1.4-1.4c0.6-0.3,1.3-0.5,2-0.5c0.8,0,1.4,0.2,2,0.5c0.5,0.3,1,0.8,1.2,1.3c0.3,0.6,0.4,1.2,0.4,1.9c0,0.2,0,0.4,0,0.5
			c0,0.2,0,0.3,0,0.4h-6.4v-1.3h5.7l-0.8,0.3c0-0.7-0.2-1.3-0.5-1.7c-0.4-0.4-0.9-0.6-1.5-0.6c-0.5,0-0.9,0.1-1.2,0.3
			c-0.3,0.2-0.6,0.5-0.8,1c-0.2,0.4-0.3,0.9-0.3,1.5c0,0.6,0.1,1.1,0.3,1.5s0.5,0.7,0.8,0.9c0.4,0.2,0.8,0.3,1.2,0.3
			c0.5,0,1-0.1,1.3-0.3c0.3-0.2,0.6-0.5,0.8-0.8l1.4,0.6c-0.2,0.4-0.5,0.7-0.8,1c-0.3,0.3-0.7,0.5-1.2,0.6
			C367.2,75.7,366.7,75.8,366.2,75.8z"/>
		<path class="st6" d="M375.4,67.4c0.6,0,1.2,0.1,1.6,0.3s0.8,0.5,1.1,0.8c0.3,0.3,0.5,0.7,0.7,1.2l-1.6,0.6
			c-0.1-0.5-0.4-0.9-0.7-1.1c-0.3-0.3-0.7-0.4-1.2-0.4c-0.5,0-0.9,0.1-1.2,0.3c-0.3,0.2-0.6,0.5-0.8,1s-0.3,0.9-0.3,1.5
			c0,0.6,0.1,1.1,0.3,1.5s0.4,0.7,0.8,0.9c0.3,0.2,0.7,0.3,1.2,0.3c0.4,0,0.7-0.1,0.9-0.2s0.5-0.3,0.7-0.5c0.2-0.2,0.3-0.5,0.4-0.8
			l1.6,0.5c-0.1,0.5-0.4,0.9-0.7,1.3s-0.7,0.6-1.2,0.8c-0.5,0.2-1,0.3-1.6,0.3c-0.8,0-1.5-0.2-2.1-0.5c-0.6-0.3-1.1-0.8-1.4-1.4
			s-0.5-1.4-0.5-2.2s0.2-1.6,0.5-2.2s0.8-1.1,1.4-1.4C373.9,67.6,374.6,67.4,375.4,67.4z"/>
		<path class="st6" d="M384.4,67.4c0.8,0,1.5,0.2,2.1,0.5c0.6,0.3,1.1,0.8,1.4,1.4s0.5,1.4,0.5,2.2s-0.2,1.6-0.5,2.2
			s-0.8,1.1-1.4,1.4c-0.6,0.3-1.3,0.5-2.1,0.5s-1.5-0.2-2.1-0.5c-0.6-0.3-1.1-0.8-1.4-1.4c-0.3-0.6-0.5-1.4-0.5-2.2s0.2-1.6,0.5-2.2
			c0.3-0.6,0.8-1.1,1.4-1.4C382.9,67.6,383.6,67.4,384.4,67.4z M384.4,68.8c-0.5,0-0.9,0.1-1.2,0.3s-0.6,0.5-0.8,1s-0.3,0.9-0.3,1.5
			c0,0.6,0.1,1.1,0.3,1.5c0.2,0.4,0.4,0.7,0.8,1c0.3,0.2,0.7,0.3,1.2,0.3c0.5,0,0.9-0.1,1.2-0.3c0.3-0.2,0.6-0.5,0.8-1
			c0.2-0.4,0.3-0.9,0.3-1.5c0-0.6-0.1-1.1-0.3-1.5c-0.2-0.4-0.4-0.7-0.8-1C385.3,68.9,384.8,68.8,384.4,68.8z"/>
		<path class="st6" d="M393.5,75.8c-0.8,0-1.5-0.2-2.2-0.5c-0.7-0.3-1.2-0.7-1.6-1.3l1.2-1c0.2,0.4,0.6,0.8,1,1
			c0.4,0.3,1,0.4,1.6,0.4c0.5,0,0.9-0.1,1.2-0.3c0.3-0.2,0.4-0.4,0.4-0.7c0-0.2-0.1-0.4-0.2-0.5s-0.4-0.3-0.8-0.4l-1.7-0.4
			c-0.9-0.2-1.5-0.4-1.8-0.8c-0.4-0.4-0.5-0.9-0.5-1.4c0-0.4,0.1-0.8,0.4-1.2c0.3-0.4,0.6-0.7,1.1-0.9s1.1-0.3,1.8-0.3
			c0.8,0,1.5,0.1,2,0.4s1,0.7,1.3,1.2l-1.2,1c-0.2-0.4-0.5-0.7-0.9-1s-0.8-0.3-1.2-0.3c-0.3,0-0.6,0-0.9,0.1
			c-0.2,0.1-0.4,0.2-0.6,0.4s-0.2,0.3-0.2,0.5c0,0.2,0.1,0.4,0.2,0.6s0.4,0.3,0.9,0.4l1.8,0.4c0.8,0.1,1.3,0.4,1.6,0.8
			c0.3,0.4,0.5,0.8,0.5,1.3s-0.1,1-0.4,1.4c-0.3,0.4-0.7,0.7-1.2,0.9C394.8,75.7,394.2,75.8,393.5,75.8z"/>
		<path class="st6" d="M405.6,67.6l-3.5,8.9c-0.2,0.6-0.5,1.1-0.8,1.5c-0.3,0.4-0.6,0.6-0.9,0.8c-0.4,0.2-0.8,0.2-1.2,0.2
			c-0.4,0-0.7-0.1-1.1-0.2c-0.3-0.1-0.6-0.2-0.9-0.4l0.4-1.3c0.2,0.2,0.4,0.3,0.6,0.4c0.2,0.1,0.5,0.1,0.7,0.1
			c0.3,0,0.5-0.1,0.8-0.2c0.2-0.2,0.4-0.5,0.6-0.9l0.4-0.9l-0.8-2l-2.5-6.1h1.9l1.8,5l0.5,1.5l0.5-1.6l1.7-4.9H405.6z"/>
		<path class="st6" d="M409.9,75.8c-0.8,0-1.5-0.2-2.2-0.5c-0.7-0.3-1.2-0.7-1.6-1.3l1.2-1c0.2,0.4,0.6,0.8,1,1
			c0.4,0.3,1,0.4,1.6,0.4c0.5,0,0.9-0.1,1.2-0.3c0.3-0.2,0.4-0.4,0.4-0.7c0-0.2-0.1-0.4-0.2-0.5s-0.4-0.3-0.8-0.4l-1.7-0.4
			c-0.9-0.2-1.5-0.4-1.8-0.8c-0.4-0.4-0.5-0.9-0.5-1.4c0-0.4,0.1-0.8,0.4-1.2c0.3-0.4,0.6-0.7,1.1-0.9s1.1-0.3,1.8-0.3
			c0.8,0,1.5,0.1,2,0.4s1,0.7,1.3,1.2l-1.2,1c-0.2-0.4-0.5-0.7-0.9-1s-0.8-0.3-1.2-0.3c-0.3,0-0.6,0-0.9,0.1
			c-0.2,0.1-0.4,0.2-0.6,0.4s-0.2,0.3-0.2,0.5c0,0.2,0.1,0.4,0.2,0.6s0.4,0.3,0.9,0.4l1.8,0.4c0.8,0.1,1.3,0.4,1.6,0.8
			c0.3,0.4,0.5,0.8,0.5,1.3s-0.1,1-0.4,1.4c-0.3,0.4-0.7,0.7-1.2,0.9C411.2,75.7,410.6,75.8,409.9,75.8z"/>
		<path class="st6" d="M420.4,67.6v1.3h-6v-1.3H420.4z M417.6,65.2v8c0,0.4,0.1,0.7,0.3,0.9c0.2,0.2,0.5,0.3,0.8,0.3
			c0.3,0,0.5,0,0.8-0.1c0.2-0.1,0.4-0.2,0.6-0.4l0.4,1.2c-0.2,0.2-0.5,0.4-0.9,0.5s-0.8,0.2-1.2,0.2c-0.5,0-0.9-0.1-1.3-0.2
			c-0.4-0.1-0.7-0.4-0.9-0.7c-0.2-0.3-0.3-0.8-0.3-1.3v-7.8L417.6,65.2z"/>
		<path class="st6" d="M425.6,75.8c-0.8,0-1.5-0.2-2.1-0.5c-0.6-0.3-1.1-0.8-1.4-1.4s-0.5-1.4-0.5-2.2s0.2-1.6,0.5-2.2
			s0.8-1.1,1.4-1.4c0.6-0.3,1.3-0.5,2-0.5c0.8,0,1.4,0.2,2,0.5c0.5,0.3,1,0.8,1.2,1.3c0.3,0.6,0.4,1.2,0.4,1.9c0,0.2,0,0.4,0,0.5
			c0,0.2,0,0.3,0,0.4h-6.4v-1.3h5.7l-0.8,0.3c0-0.7-0.2-1.3-0.5-1.7c-0.4-0.4-0.9-0.6-1.5-0.6c-0.5,0-0.9,0.1-1.2,0.3
			c-0.3,0.2-0.6,0.5-0.8,1c-0.2,0.4-0.3,0.9-0.3,1.5c0,0.6,0.1,1.1,0.3,1.5s0.5,0.7,0.8,0.9c0.4,0.2,0.8,0.3,1.2,0.3
			c0.5,0,1-0.1,1.3-0.3c0.3-0.2,0.6-0.5,0.8-0.8l1.4,0.6c-0.2,0.4-0.5,0.7-0.8,1c-0.3,0.3-0.7,0.5-1.2,0.6
			C426.6,75.7,426.2,75.8,425.6,75.8z"/>
		<path class="st6" d="M431.3,75.6v-8h1.5l0.1,1.3c0.3-0.5,0.6-0.9,1.1-1.1c0.5-0.2,1-0.4,1.5-0.4c0.6,0,1.1,0.1,1.6,0.4
			c0.5,0.3,0.9,0.7,1.1,1.2c0.2-0.4,0.4-0.6,0.7-0.9c0.3-0.2,0.6-0.4,1-0.5c0.4-0.1,0.7-0.2,1.1-0.2c0.5,0,1,0.1,1.4,0.3
			s0.8,0.5,1.1,1s0.4,1,0.4,1.7v5.2h-1.7v-4.9c0-0.7-0.2-1.1-0.5-1.4c-0.3-0.3-0.7-0.4-1.2-0.4c-0.4,0-0.7,0.1-1,0.3
			c-0.3,0.2-0.6,0.5-0.8,0.8c-0.2,0.4-0.3,0.8-0.3,1.3v4.4h-1.7v-4.9c0-0.7-0.2-1.1-0.5-1.4c-0.3-0.3-0.7-0.4-1.2-0.4
			c-0.3,0-0.6,0.1-1,0.3c-0.3,0.2-0.6,0.4-0.8,0.8c-0.2,0.4-0.3,0.8-0.3,1.4v4.3H431.3z"/>
	</g>
	<g>
		<g>
			<path d="M291.3,17v10.6h-1.7V17H291.3z M298.2,17l-4.7,5.1l-0.2,0l-2.7,2.9l-0.2-1.9l5.7-6.2H298.2z M293.9,20.8l4.4,6.8h-2
				l-3.8-5.8L293.9,20.8z"/>
			<path d="M302.5,27.8c-0.5,0-1-0.1-1.4-0.3c-0.4-0.2-0.8-0.5-1.1-0.9c-0.3-0.4-0.4-1-0.4-1.7v-5.3h1.7v4.8c0,0.7,0.2,1.2,0.5,1.5
				c0.3,0.3,0.7,0.4,1.3,0.4c0.3,0,0.5,0,0.8-0.1c0.3-0.1,0.5-0.2,0.7-0.4c0.2-0.2,0.4-0.5,0.5-0.8c0.1-0.3,0.2-0.7,0.2-1.1v-4.3
				h1.7v8h-1.5l-0.1-1.3c-0.3,0.5-0.7,0.9-1.1,1.1S303.2,27.8,302.5,27.8z"/>
			<path d="M313.8,27.8c-0.5,0-0.9-0.1-1.3-0.3c-0.4-0.2-0.7-0.4-1-0.8c-0.3-0.3-0.5-0.7-0.6-1.1l0.2-0.3l-0.1,2.2h-1.5V16h1.7v5.6
				l-0.2-0.3c0.2-0.6,0.5-1,1-1.4c0.5-0.4,1.1-0.5,1.8-0.5c0.6,0,1.2,0.2,1.8,0.5c0.5,0.3,1,0.8,1.3,1.4c0.3,0.6,0.5,1.4,0.5,2.3
				c0,0.9-0.2,1.6-0.5,2.2c-0.3,0.6-0.7,1.1-1.3,1.4C315.1,27.6,314.5,27.8,313.8,27.8z M313.5,26.4c0.7,0,1.2-0.2,1.6-0.7
				s0.6-1.2,0.6-2s-0.2-1.5-0.6-2c-0.4-0.5-0.9-0.7-1.6-0.7c-0.4,0-0.8,0.1-1.2,0.3c-0.3,0.2-0.6,0.6-0.8,1
				c-0.2,0.4-0.3,0.9-0.3,1.5c0,0.6,0.1,1.1,0.3,1.5c0.2,0.4,0.4,0.7,0.8,1C312.6,26.3,313,26.4,313.5,26.4z"/>
			<path d="M323.1,27.8c-0.8,0-1.5-0.2-2.1-0.5c-0.6-0.3-1.1-0.8-1.4-1.4s-0.5-1.4-0.5-2.2s0.2-1.6,0.5-2.2s0.8-1.1,1.4-1.4
				c0.6-0.3,1.3-0.5,2-0.5c0.8,0,1.4,0.2,2,0.5c0.5,0.3,1,0.8,1.2,1.3c0.3,0.6,0.4,1.2,0.4,1.9c0,0.2,0,0.4,0,0.5c0,0.2,0,0.3,0,0.4
				h-6.4v-1.3h5.7l-0.8,0.3c0-0.7-0.2-1.3-0.5-1.7c-0.4-0.4-0.9-0.6-1.5-0.6c-0.5,0-0.9,0.1-1.2,0.3c-0.3,0.2-0.6,0.5-0.8,1
				c-0.2,0.4-0.3,0.9-0.3,1.5c0,0.6,0.1,1.1,0.3,1.5s0.5,0.7,0.8,0.9c0.4,0.2,0.8,0.3,1.2,0.3c0.5,0,1-0.1,1.3-0.3
				c0.3-0.2,0.6-0.5,0.8-0.8l1.4,0.6c-0.2,0.4-0.5,0.7-0.8,1c-0.3,0.3-0.7,0.5-1.2,0.6C324.1,27.7,323.6,27.8,323.1,27.8z"/>
			<path d="M328.8,27.6v-8h1.5l0.2,1.4c0.2-0.5,0.5-0.9,1-1.2c0.4-0.3,0.9-0.4,1.6-0.4c0.2,0,0.3,0,0.5,0c0.2,0,0.3,0.1,0.4,0.1
				l-0.2,1.5c-0.1,0-0.2-0.1-0.4-0.1c-0.1,0-0.3,0-0.6,0c-0.3,0-0.7,0.1-1,0.3c-0.3,0.2-0.6,0.4-0.8,0.8s-0.3,0.8-0.3,1.3v4.2H328.8
				z"/>
			<path d="M335.5,27.6v-8h1.5l0.1,2.1l-0.2-0.2c0.1-0.5,0.4-0.8,0.6-1.1c0.3-0.3,0.6-0.5,1-0.7c0.4-0.1,0.8-0.2,1.2-0.2
				c0.6,0,1.1,0.1,1.5,0.3c0.5,0.2,0.8,0.5,1.1,1c0.3,0.4,0.4,1,0.4,1.7v5.2h-1.7v-4.7c0-0.8-0.2-1.3-0.5-1.6
				c-0.3-0.3-0.7-0.5-1.2-0.5c-0.4,0-0.7,0.1-1,0.2c-0.3,0.2-0.6,0.4-0.8,0.8s-0.3,0.8-0.3,1.5v4.3H335.5z"/>
			<path d="M348.9,27.8c-0.8,0-1.5-0.2-2.1-0.5c-0.6-0.3-1.1-0.8-1.4-1.4s-0.5-1.4-0.5-2.2s0.2-1.6,0.5-2.2s0.8-1.1,1.4-1.4
				c0.6-0.3,1.3-0.5,2-0.5c0.8,0,1.4,0.2,2,0.5c0.5,0.3,1,0.8,1.2,1.3c0.3,0.6,0.4,1.2,0.4,1.9c0,0.2,0,0.4,0,0.5c0,0.2,0,0.3,0,0.4
				H346v-1.3h5.7l-0.8,0.3c0-0.7-0.2-1.3-0.5-1.7c-0.4-0.4-0.9-0.6-1.5-0.6c-0.5,0-0.9,0.1-1.2,0.3c-0.3,0.2-0.6,0.5-0.8,1
				c-0.2,0.4-0.3,0.9-0.3,1.5c0,0.6,0.1,1.1,0.3,1.5s0.5,0.7,0.8,0.9c0.4,0.2,0.8,0.3,1.2,0.3c0.5,0,1-0.1,1.3-0.3
				c0.3-0.2,0.6-0.5,0.8-0.8l1.4,0.6c-0.2,0.4-0.5,0.7-0.8,1c-0.3,0.3-0.7,0.5-1.2,0.6C349.9,27.7,349.4,27.8,348.9,27.8z"/>
			<path d="M359.5,19.6v1.3h-6v-1.3H359.5z M356.8,17.2v8c0,0.4,0.1,0.7,0.3,0.9c0.2,0.2,0.5,0.3,0.8,0.3c0.3,0,0.5,0,0.8-0.1
				c0.2-0.1,0.4-0.2,0.6-0.4l0.4,1.2c-0.2,0.2-0.5,0.4-0.9,0.5s-0.8,0.2-1.2,0.2c-0.5,0-0.9-0.1-1.3-0.2c-0.4-0.1-0.7-0.4-0.9-0.7
				c-0.2-0.3-0.3-0.8-0.3-1.3v-7.8L356.8,17.2z"/>
			<path d="M364.7,27.8c-0.8,0-1.5-0.2-2.1-0.5c-0.6-0.3-1.1-0.8-1.4-1.4s-0.5-1.4-0.5-2.2s0.2-1.6,0.5-2.2s0.8-1.1,1.4-1.4
				c0.6-0.3,1.3-0.5,2-0.5c0.8,0,1.4,0.2,2,0.5c0.5,0.3,1,0.8,1.2,1.3c0.3,0.6,0.4,1.2,0.4,1.9c0,0.2,0,0.4,0,0.5c0,0.2,0,0.3,0,0.4
				h-6.4v-1.3h5.7l-0.8,0.3c0-0.7-0.2-1.3-0.5-1.7c-0.4-0.4-0.9-0.6-1.5-0.6c-0.5,0-0.9,0.1-1.2,0.3c-0.3,0.2-0.6,0.5-0.8,1
				c-0.2,0.4-0.3,0.9-0.3,1.5c0,0.6,0.1,1.1,0.3,1.5s0.5,0.7,0.8,0.9c0.4,0.2,0.8,0.3,1.2,0.3c0.5,0,1-0.1,1.3-0.3
				c0.3-0.2,0.6-0.5,0.8-0.8l1.4,0.6c-0.2,0.4-0.5,0.7-0.8,1c-0.3,0.3-0.7,0.5-1.2,0.6C365.7,27.7,365.3,27.8,364.7,27.8z"/>
			<path d="M373.5,27.8c-0.8,0-1.5-0.2-2.2-0.5c-0.7-0.3-1.2-0.7-1.6-1.3l1.2-1c0.2,0.4,0.6,0.8,1,1c0.4,0.3,1,0.4,1.6,0.4
				c0.5,0,0.9-0.1,1.2-0.3c0.3-0.2,0.4-0.4,0.4-0.7c0-0.2-0.1-0.4-0.2-0.5s-0.4-0.3-0.8-0.4l-1.7-0.4c-0.9-0.2-1.5-0.4-1.8-0.8
				c-0.4-0.4-0.5-0.9-0.5-1.4c0-0.4,0.1-0.8,0.4-1.2c0.3-0.4,0.6-0.7,1.1-0.9s1.1-0.3,1.8-0.3c0.8,0,1.5,0.1,2,0.4s1,0.7,1.3,1.2
				l-1.2,1c-0.2-0.4-0.5-0.7-0.9-1s-0.8-0.3-1.2-0.3c-0.3,0-0.6,0-0.9,0.1c-0.2,0.1-0.4,0.2-0.6,0.4s-0.2,0.3-0.2,0.5
				c0,0.2,0.1,0.4,0.2,0.6s0.4,0.3,0.9,0.4l1.8,0.4c0.8,0.1,1.3,0.4,1.6,0.8c0.3,0.4,0.5,0.8,0.5,1.3s-0.1,1-0.4,1.4
				c-0.3,0.4-0.7,0.7-1.2,0.9C374.8,27.7,374.2,27.8,373.5,27.8z"/>
			<path d="M384.3,16l-4.8,12.7h-1.6l4.8-12.7H384.3z"/>
			<path d="M394.8,17l-3.9,10.6h-2L385,17h1.8l2.5,7l0.6,2.1l0.6-2.1l2.5-7H394.8z"/>
			<path d="M407.6,17v10.6H406v-6.1l0.1-2.9h0l-3.2,9h-1.4l-3.2-9h0l0.1,2.9v6.1h-1.6V17h2.5l2.1,6.1l0.7,2.5h0l0.8-2.5l2.1-6.1
				H407.6z"/>
			<path d="M415.7,27.6V16h1.7v4.9c0.3-0.5,0.6-0.9,1.1-1.1c0.5-0.2,1-0.3,1.5-0.3c0.6,0,1.1,0.1,1.5,0.3c0.5,0.2,0.8,0.5,1.1,1
				c0.3,0.4,0.4,1,0.4,1.7v5.2h-1.7V23c0-0.8-0.2-1.3-0.5-1.6c-0.3-0.3-0.7-0.5-1.2-0.5c-0.3,0-0.7,0.1-1,0.2s-0.6,0.4-0.8,0.8
				c-0.2,0.4-0.3,0.9-0.3,1.5v4.2H415.7z"/>
			<path d="M429,19.4c0.8,0,1.5,0.2,2.1,0.5c0.6,0.3,1.1,0.8,1.4,1.4s0.5,1.4,0.5,2.2s-0.2,1.6-0.5,2.2s-0.8,1.1-1.4,1.4
				c-0.6,0.3-1.3,0.5-2.1,0.5s-1.5-0.2-2.1-0.5c-0.6-0.3-1.1-0.8-1.4-1.4c-0.3-0.6-0.5-1.4-0.5-2.2s0.2-1.6,0.5-2.2
				c0.3-0.6,0.8-1.1,1.4-1.4C427.6,19.6,428.3,19.4,429,19.4z M429,20.8c-0.5,0-0.9,0.1-1.2,0.3s-0.6,0.5-0.8,1s-0.3,0.9-0.3,1.5
				c0,0.6,0.1,1.1,0.3,1.5c0.2,0.4,0.4,0.7,0.8,1c0.3,0.2,0.7,0.3,1.2,0.3c0.5,0,0.9-0.1,1.2-0.3c0.3-0.2,0.6-0.5,0.8-1
				c0.2-0.4,0.3-0.9,0.3-1.5c0-0.6-0.1-1.1-0.3-1.5c-0.2-0.4-0.4-0.7-0.8-1C429.9,20.9,429.5,20.8,429,20.8z"/>
			<path d="M438.2,27.8c-0.8,0-1.5-0.2-2.2-0.5c-0.7-0.3-1.2-0.7-1.6-1.3l1.2-1c0.2,0.4,0.6,0.8,1,1c0.4,0.3,1,0.4,1.6,0.4
				c0.5,0,0.9-0.1,1.2-0.3c0.3-0.2,0.4-0.4,0.4-0.7c0-0.2-0.1-0.4-0.2-0.5s-0.4-0.3-0.8-0.4l-1.7-0.4c-0.9-0.2-1.5-0.4-1.8-0.8
				c-0.4-0.4-0.5-0.9-0.5-1.4c0-0.4,0.1-0.8,0.4-1.2c0.3-0.4,0.6-0.7,1.1-0.9s1.1-0.3,1.8-0.3c0.8,0,1.5,0.1,2,0.4s1,0.7,1.3,1.2
				l-1.2,1c-0.2-0.4-0.5-0.7-0.9-1s-0.8-0.3-1.2-0.3c-0.3,0-0.6,0-0.9,0.1c-0.2,0.1-0.4,0.2-0.6,0.4s-0.2,0.3-0.2,0.5
				c0,0.2,0.1,0.4,0.2,0.6s0.4,0.3,0.9,0.4l1.8,0.4c0.8,0.1,1.3,0.4,1.6,0.8c0.3,0.4,0.5,0.8,0.5,1.3s-0.1,1-0.4,1.4
				c-0.3,0.4-0.7,0.7-1.2,0.9C439.5,27.7,438.9,27.8,438.2,27.8z"/>
			<path d="M448.7,19.6v1.3h-6v-1.3H448.7z M446,17.2v8c0,0.4,0.1,0.7,0.3,0.9c0.2,0.2,0.5,0.3,0.8,0.3c0.3,0,0.5,0,0.8-0.1
				c0.2-0.1,0.4-0.2,0.6-0.4l0.4,1.2c-0.2,0.2-0.5,0.4-0.9,0.5s-0.8,0.2-1.2,0.2c-0.5,0-0.9-0.1-1.3-0.2c-0.4-0.1-0.7-0.4-0.9-0.7
				c-0.2-0.3-0.3-0.8-0.3-1.3v-7.8L446,17.2z"/>
			<path d="M459.1,27.8c-0.8,0-1.5-0.2-2.1-0.5c-0.6-0.3-1.1-0.8-1.4-1.4s-0.5-1.4-0.5-2.2s0.2-1.6,0.5-2.2s0.8-1.1,1.4-1.4
				c0.6-0.3,1.3-0.5,2-0.5c0.8,0,1.4,0.2,2,0.5c0.5,0.3,1,0.8,1.2,1.3c0.3,0.6,0.4,1.2,0.4,1.9c0,0.2,0,0.4,0,0.5c0,0.2,0,0.3,0,0.4
				h-6.4v-1.3h5.7l-0.8,0.3c0-0.7-0.2-1.3-0.5-1.7c-0.4-0.4-0.9-0.6-1.5-0.6c-0.5,0-0.9,0.1-1.2,0.3c-0.3,0.2-0.6,0.5-0.8,1
				c-0.2,0.4-0.3,0.9-0.3,1.5c0,0.6,0.1,1.1,0.3,1.5s0.5,0.7,0.8,0.9c0.4,0.2,0.8,0.3,1.2,0.3c0.5,0,1-0.1,1.3-0.3
				c0.3-0.2,0.6-0.5,0.8-0.8l1.4,0.6c-0.2,0.4-0.5,0.7-0.8,1c-0.3,0.3-0.7,0.5-1.2,0.6C460.2,27.7,459.7,27.8,459.1,27.8z"/>
			<path d="M464.9,27.6v-8h1.5l0.1,2.1l-0.2-0.2c0.1-0.5,0.4-0.8,0.6-1.1c0.3-0.3,0.6-0.5,1-0.7c0.4-0.1,0.8-0.2,1.2-0.2
				c0.6,0,1.1,0.1,1.5,0.3c0.5,0.2,0.8,0.5,1.1,1c0.3,0.4,0.4,1,0.4,1.7v5.2h-1.7v-4.7c0-0.8-0.2-1.3-0.5-1.6
				c-0.3-0.3-0.7-0.5-1.2-0.5c-0.4,0-0.7,0.1-1,0.2c-0.3,0.2-0.6,0.4-0.8,0.8s-0.3,0.8-0.3,1.5v4.3H464.9z"/>
			<path d="M479.8,19.6h1.8l-3.2,8h-1.9l-3.2-8h1.9l2.3,6.5L479.8,19.6z"/>
			<path d="M483.9,18.3c-0.4,0-0.7-0.1-0.9-0.3c-0.2-0.2-0.3-0.5-0.3-0.8s0.1-0.6,0.3-0.8c0.2-0.2,0.5-0.3,0.9-0.3
				c0.4,0,0.6,0.1,0.8,0.3c0.2,0.2,0.3,0.4,0.3,0.8s-0.1,0.6-0.3,0.8C484.6,18.2,484.3,18.3,483.9,18.3z M484.8,19.6v8h-1.7v-8
				H484.8z"/>
			<path d="M487.5,27.6v-8h1.5l0.2,1.4c0.2-0.5,0.5-0.9,1-1.2c0.4-0.3,0.9-0.4,1.6-0.4c0.2,0,0.3,0,0.5,0c0.2,0,0.3,0.1,0.4,0.1
				l-0.2,1.5c-0.1,0-0.2-0.1-0.4-0.1c-0.1,0-0.3,0-0.6,0c-0.3,0-0.7,0.1-1,0.3c-0.3,0.2-0.6,0.4-0.8,0.8s-0.3,0.8-0.3,1.3v4.2H487.5
				z"/>
			<path d="M497.3,19.4c0.8,0,1.5,0.2,2.1,0.5c0.6,0.3,1.1,0.8,1.4,1.4s0.5,1.4,0.5,2.2s-0.2,1.6-0.5,2.2s-0.8,1.1-1.4,1.4
				c-0.6,0.3-1.3,0.5-2.1,0.5s-1.5-0.2-2.1-0.5c-0.6-0.3-1.1-0.8-1.4-1.4c-0.3-0.6-0.5-1.4-0.5-2.2s0.2-1.6,0.5-2.2
				c0.3-0.6,0.8-1.1,1.4-1.4C495.9,19.6,496.6,19.4,497.3,19.4z M497.3,20.8c-0.5,0-0.9,0.1-1.2,0.3s-0.6,0.5-0.8,1
				s-0.3,0.9-0.3,1.5c0,0.6,0.1,1.1,0.3,1.5c0.2,0.4,0.4,0.7,0.8,1c0.3,0.2,0.7,0.3,1.2,0.3c0.5,0,0.9-0.1,1.2-0.3
				c0.3-0.2,0.6-0.5,0.8-1c0.2-0.4,0.3-0.9,0.3-1.5c0-0.6-0.1-1.1-0.3-1.5c-0.2-0.4-0.4-0.7-0.8-1C498.2,20.9,497.8,20.8,497.3,20.8
				z"/>
			<path d="M503.5,27.6v-8h1.5l0.1,2.1l-0.2-0.2c0.1-0.5,0.4-0.8,0.6-1.1c0.3-0.3,0.6-0.5,1-0.7c0.4-0.1,0.8-0.2,1.2-0.2
				c0.6,0,1.1,0.1,1.5,0.3c0.5,0.2,0.8,0.5,1.1,1c0.3,0.4,0.4,1,0.4,1.7v5.2h-1.7v-4.7c0-0.8-0.2-1.3-0.5-1.6
				c-0.3-0.3-0.7-0.5-1.2-0.5c-0.4,0-0.7,0.1-1,0.2c-0.3,0.2-0.6,0.4-0.8,0.8s-0.3,0.8-0.3,1.5v4.3H503.5z"/>
			<path d="M513.4,27.6v-8h1.5l0.1,1.3c0.3-0.5,0.6-0.9,1.1-1.1c0.5-0.2,1-0.4,1.5-0.4c0.6,0,1.1,0.1,1.6,0.4
				c0.5,0.3,0.9,0.7,1.1,1.2c0.2-0.4,0.4-0.6,0.7-0.9c0.3-0.2,0.6-0.4,1-0.5c0.4-0.1,0.7-0.2,1.1-0.2c0.5,0,1,0.1,1.4,0.3
				s0.8,0.5,1.1,1s0.4,1,0.4,1.7v5.2h-1.7v-4.9c0-0.7-0.2-1.1-0.5-1.4c-0.3-0.3-0.7-0.4-1.2-0.4c-0.4,0-0.7,0.1-1,0.3
				c-0.3,0.2-0.6,0.5-0.8,0.8c-0.2,0.4-0.3,0.8-0.3,1.3v4.4h-1.7v-4.9c0-0.7-0.2-1.1-0.5-1.4c-0.3-0.3-0.7-0.4-1.2-0.4
				c-0.3,0-0.6,0.1-1,0.3c-0.3,0.2-0.6,0.4-0.8,0.8c-0.2,0.4-0.3,0.8-0.3,1.4v4.3H513.4z"/>
			<path d="M532.1,27.8c-0.8,0-1.5-0.2-2.1-0.5c-0.6-0.3-1.1-0.8-1.4-1.4s-0.5-1.4-0.5-2.2s0.2-1.6,0.5-2.2s0.8-1.1,1.4-1.4
				c0.6-0.3,1.3-0.5,2-0.5c0.8,0,1.4,0.2,2,0.5c0.5,0.3,1,0.8,1.2,1.3c0.3,0.6,0.4,1.2,0.4,1.9c0,0.2,0,0.4,0,0.5c0,0.2,0,0.3,0,0.4
				h-6.4v-1.3h5.7l-0.8,0.3c0-0.7-0.2-1.3-0.5-1.7c-0.4-0.4-0.9-0.6-1.5-0.6c-0.5,0-0.9,0.1-1.2,0.3c-0.3,0.2-0.6,0.5-0.8,1
				c-0.2,0.4-0.3,0.9-0.3,1.5c0,0.6,0.1,1.1,0.3,1.5s0.5,0.7,0.8,0.9c0.4,0.2,0.8,0.3,1.2,0.3c0.5,0,1-0.1,1.3-0.3
				c0.3-0.2,0.6-0.5,0.8-0.8l1.4,0.6c-0.2,0.4-0.5,0.7-0.8,1c-0.3,0.3-0.7,0.5-1.2,0.6C533.1,27.7,532.6,27.8,532.1,27.8z"/>
			<path d="M537.8,27.6v-8h1.5l0.1,2.1l-0.2-0.2c0.1-0.5,0.4-0.8,0.6-1.1c0.3-0.3,0.6-0.5,1-0.7c0.4-0.1,0.8-0.2,1.2-0.2
				c0.6,0,1.1,0.1,1.5,0.3c0.5,0.2,0.8,0.5,1.1,1c0.3,0.4,0.4,1,0.4,1.7v5.2h-1.7v-4.7c0-0.8-0.2-1.3-0.5-1.6
				c-0.3-0.3-0.7-0.5-1.2-0.5c-0.4,0-0.7,0.1-1,0.2c-0.3,0.2-0.6,0.4-0.8,0.8s-0.3,0.8-0.3,1.5v4.3H537.8z"/>
			<path d="M552.7,19.6v1.3h-6v-1.3H552.7z M549.9,17.2v8c0,0.4,0.1,0.7,0.3,0.9c0.2,0.2,0.5,0.3,0.8,0.3c0.3,0,0.5,0,0.8-0.1
				c0.2-0.1,0.4-0.2,0.6-0.4l0.4,1.2c-0.2,0.2-0.5,0.4-0.9,0.5s-0.8,0.2-1.2,0.2c-0.5,0-0.9-0.1-1.3-0.2c-0.4-0.1-0.7-0.4-0.9-0.7
				c-0.2-0.3-0.3-0.8-0.3-1.3v-7.8L549.9,17.2z"/>
		</g>
	</g>
</g>
</svg>
