<svg width="863" height="682" viewBox="0 0 863 682" fill="none" xmlns="http://www.w3.org/2000/svg">
<rect width="863" height="682" fill="white"/>
<rect x="92.5" y="98.5" width="278" height="254" rx="4.5" fill="white" stroke="#00378F"/>
<path d="M113.64 123.264H117.133V128.11C116.609 128.288 116.069 128.42 115.513 128.507C114.961 128.593 114.344 128.637 113.66 128.637C112.621 128.637 111.744 128.429 111.028 128.015C110.317 127.6 109.777 127.01 109.408 126.244C109.039 125.474 108.854 124.56 108.854 123.503C108.854 122.468 109.057 121.566 109.463 120.796C109.873 120.026 110.463 119.429 111.233 119.005C112.008 118.576 112.938 118.362 114.022 118.362C114.578 118.362 115.105 118.415 115.602 118.52C116.103 118.62 116.568 118.763 116.996 118.95L116.552 119.962C116.183 119.802 115.775 119.666 115.328 119.552C114.886 119.438 114.428 119.381 113.954 119.381C113.138 119.381 112.439 119.549 111.855 119.887C111.277 120.224 110.832 120.7 110.522 121.315C110.217 121.931 110.064 122.66 110.064 123.503C110.064 124.337 110.199 125.064 110.468 125.684C110.737 126.299 111.156 126.777 111.726 127.119C112.295 127.461 113.029 127.632 113.927 127.632C114.378 127.632 114.765 127.607 115.089 127.557C115.412 127.502 115.706 127.438 115.971 127.365V124.303H113.64V123.264ZM122.946 120.871C123.097 120.871 123.254 120.88 123.418 120.898C123.582 120.912 123.728 120.933 123.855 120.96L123.712 122.013C123.589 121.981 123.452 121.956 123.302 121.938C123.151 121.919 123.01 121.91 122.878 121.91C122.577 121.91 122.292 121.972 122.023 122.095C121.759 122.213 121.527 122.386 121.326 122.614C121.125 122.838 120.968 123.109 120.854 123.428C120.74 123.742 120.683 124.093 120.683 124.48V128.5H119.542V121.008H120.485L120.608 122.389H120.656C120.811 122.111 120.998 121.858 121.217 121.63C121.435 121.397 121.688 121.213 121.975 121.076C122.267 120.939 122.591 120.871 122.946 120.871ZM131.89 124.74C131.89 125.355 131.811 125.905 131.651 126.388C131.492 126.871 131.261 127.279 130.961 127.611C130.66 127.944 130.295 128.199 129.867 128.377C129.443 128.55 128.962 128.637 128.424 128.637C127.923 128.637 127.463 128.55 127.044 128.377C126.629 128.199 126.269 127.944 125.964 127.611C125.663 127.279 125.428 126.871 125.259 126.388C125.095 125.905 125.013 125.355 125.013 124.74C125.013 123.92 125.152 123.223 125.43 122.648C125.708 122.07 126.105 121.63 126.62 121.329C127.139 121.024 127.757 120.871 128.472 120.871C129.156 120.871 129.753 121.024 130.263 121.329C130.778 121.634 131.177 122.076 131.46 122.655C131.747 123.229 131.89 123.924 131.89 124.74ZM126.189 124.74C126.189 125.342 126.269 125.864 126.428 126.306C126.588 126.748 126.834 127.09 127.167 127.331C127.499 127.573 127.928 127.693 128.452 127.693C128.971 127.693 129.397 127.573 129.73 127.331C130.067 127.09 130.316 126.748 130.475 126.306C130.635 125.864 130.715 125.342 130.715 124.74C130.715 124.143 130.635 123.628 130.475 123.195C130.316 122.758 130.07 122.421 129.737 122.184C129.404 121.947 128.974 121.828 128.445 121.828C127.666 121.828 127.094 122.086 126.729 122.601C126.369 123.116 126.189 123.829 126.189 124.74ZM140.199 121.008V128.5H139.269L139.105 127.447H139.043C138.889 127.707 138.688 127.926 138.442 128.104C138.196 128.281 137.918 128.413 137.608 128.5C137.303 128.591 136.977 128.637 136.63 128.637C136.038 128.637 135.541 128.541 135.14 128.35C134.739 128.158 134.436 127.862 134.231 127.461C134.03 127.06 133.93 126.545 133.93 125.916V121.008H135.079V125.834C135.079 126.458 135.22 126.925 135.502 127.235C135.785 127.541 136.216 127.693 136.794 127.693C137.35 127.693 137.792 127.589 138.121 127.379C138.453 127.169 138.693 126.862 138.838 126.456C138.984 126.046 139.057 125.545 139.057 124.952V121.008H140.199ZM146.279 120.871C147.213 120.871 147.958 121.192 148.514 121.835C149.07 122.478 149.348 123.444 149.348 124.733C149.348 125.586 149.22 126.301 148.965 126.88C148.71 127.459 148.35 127.896 147.885 128.192C147.425 128.489 146.88 128.637 146.251 128.637C145.855 128.637 145.506 128.584 145.205 128.479C144.905 128.375 144.647 128.233 144.433 128.056C144.219 127.878 144.041 127.684 143.9 127.475H143.818C143.831 127.652 143.847 127.867 143.866 128.117C143.888 128.368 143.9 128.587 143.9 128.773V131.85H142.758V121.008H143.695L143.845 122.115H143.9C144.046 121.887 144.223 121.68 144.433 121.493C144.643 121.302 144.898 121.151 145.199 121.042C145.504 120.928 145.864 120.871 146.279 120.871ZM146.08 121.828C145.561 121.828 145.142 121.928 144.823 122.129C144.508 122.329 144.278 122.63 144.132 123.031C143.986 123.428 143.909 123.927 143.9 124.528V124.747C143.9 125.381 143.968 125.916 144.105 126.354C144.246 126.791 144.476 127.124 144.795 127.352C145.119 127.579 145.552 127.693 146.094 127.693C146.559 127.693 146.946 127.568 147.256 127.317C147.566 127.067 147.796 126.718 147.947 126.271C148.102 125.82 148.179 125.303 148.179 124.72C148.179 123.836 148.006 123.134 147.66 122.614C147.318 122.09 146.791 121.828 146.08 121.828ZM157.707 127.707C157.894 127.707 158.085 127.691 158.281 127.659C158.477 127.627 158.637 127.589 158.76 127.543V128.425C158.628 128.484 158.443 128.534 158.206 128.575C157.974 128.616 157.746 128.637 157.522 128.637C157.126 128.637 156.766 128.568 156.442 128.432C156.119 128.29 155.859 128.053 155.663 127.721C155.472 127.388 155.376 126.928 155.376 126.34V121.896H154.31V121.343L155.383 120.898L155.834 119.271H156.518V121.008H158.712V121.896H156.518V126.306C156.518 126.775 156.625 127.126 156.839 127.358C157.058 127.591 157.347 127.707 157.707 127.707ZM161.572 121.008V128.5H160.437V121.008H161.572ZM161.018 118.205C161.205 118.205 161.365 118.267 161.497 118.39C161.634 118.508 161.702 118.695 161.702 118.95C161.702 119.201 161.634 119.388 161.497 119.511C161.365 119.634 161.205 119.695 161.018 119.695C160.822 119.695 160.658 119.634 160.526 119.511C160.399 119.388 160.335 119.201 160.335 118.95C160.335 118.695 160.399 118.508 160.526 118.39C160.658 118.267 160.822 118.205 161.018 118.205ZM166.558 127.707C166.745 127.707 166.937 127.691 167.133 127.659C167.329 127.627 167.488 127.589 167.611 127.543V128.425C167.479 128.484 167.294 128.534 167.057 128.575C166.825 128.616 166.597 128.637 166.374 128.637C165.977 128.637 165.617 128.568 165.294 128.432C164.97 128.29 164.71 128.053 164.514 127.721C164.323 127.388 164.227 126.928 164.227 126.34V121.896H163.161V121.343L164.234 120.898L164.685 119.271H165.369V121.008H167.563V121.896H165.369V126.306C165.369 126.775 165.476 127.126 165.69 127.358C165.909 127.591 166.198 127.707 166.558 127.707ZM170.43 128.5H169.289V117.863H170.43V128.5ZM175.874 120.871C176.512 120.871 177.059 121.012 177.515 121.295C177.971 121.577 178.319 121.974 178.561 122.484C178.802 122.99 178.923 123.583 178.923 124.262V124.966H173.748C173.762 125.845 173.981 126.515 174.405 126.976C174.829 127.436 175.426 127.666 176.196 127.666C176.67 127.666 177.089 127.623 177.454 127.536C177.818 127.45 178.196 127.322 178.588 127.153V128.151C178.21 128.32 177.834 128.443 177.46 128.521C177.091 128.598 176.654 128.637 176.148 128.637C175.428 128.637 174.799 128.491 174.261 128.199C173.728 127.903 173.313 127.47 173.017 126.9C172.721 126.331 172.573 125.633 172.573 124.809C172.573 124.002 172.707 123.305 172.976 122.717C173.249 122.124 173.632 121.669 174.124 121.35C174.621 121.031 175.204 120.871 175.874 120.871ZM175.861 121.801C175.255 121.801 174.772 121.999 174.412 122.396C174.051 122.792 173.837 123.346 173.769 124.057H177.734C177.729 123.61 177.659 123.218 177.522 122.881C177.39 122.539 177.187 122.275 176.913 122.088C176.64 121.896 176.289 121.801 175.861 121.801Z" fill="black"/>
<path d="M97 104H366C368.485 104 370.5 106.015 370.5 108.5V143H92.5V108.5C92.5 106.015 94.5147 104 97 104Z" fill="#00378F"/>
<path d="M111.979 118.506C113.268 118.506 114.209 118.759 114.802 119.265C115.399 119.766 115.697 120.486 115.697 121.425C115.697 121.849 115.627 122.252 115.485 122.635C115.349 123.013 115.125 123.348 114.815 123.64C114.506 123.927 114.098 124.155 113.592 124.323C113.09 124.487 112.475 124.569 111.746 124.569H110.529V128.5H109.367V118.506H111.979ZM111.869 119.497H110.529V123.571H111.616C112.254 123.571 112.785 123.503 113.209 123.366C113.637 123.229 113.959 123.008 114.173 122.703C114.387 122.393 114.494 121.983 114.494 121.473C114.494 120.807 114.282 120.313 113.858 119.989C113.435 119.661 112.771 119.497 111.869 119.497ZM120.581 120.885C121.474 120.885 122.137 121.085 122.57 121.486C123.003 121.887 123.22 122.528 123.22 123.407V128.5H122.392L122.174 127.393H122.119C121.909 127.666 121.691 127.896 121.463 128.083C121.235 128.265 120.971 128.404 120.67 128.5C120.374 128.591 120.009 128.637 119.576 128.637C119.12 128.637 118.715 128.557 118.359 128.397C118.008 128.238 117.73 127.996 117.525 127.673C117.325 127.349 117.224 126.939 117.224 126.442C117.224 125.695 117.521 125.121 118.113 124.72C118.706 124.319 119.608 124.1 120.82 124.063L122.112 124.009V123.551C122.112 122.904 121.973 122.45 121.695 122.19C121.417 121.931 121.025 121.801 120.519 121.801C120.127 121.801 119.754 121.858 119.398 121.972C119.043 122.086 118.706 122.22 118.387 122.375L118.038 121.514C118.375 121.34 118.763 121.192 119.2 121.069C119.638 120.946 120.098 120.885 120.581 120.885ZM122.098 124.809L120.957 124.856C120.023 124.893 119.364 125.046 118.981 125.314C118.598 125.583 118.407 125.964 118.407 126.456C118.407 126.884 118.537 127.201 118.797 127.406C119.056 127.611 119.401 127.714 119.829 127.714C120.494 127.714 121.039 127.529 121.463 127.16C121.887 126.791 122.098 126.237 122.098 125.499V124.809ZM129.122 120.871C129.272 120.871 129.429 120.88 129.593 120.898C129.757 120.912 129.903 120.933 130.031 120.96L129.887 122.013C129.764 121.981 129.628 121.956 129.477 121.938C129.327 121.919 129.186 121.91 129.053 121.91C128.753 121.91 128.468 121.972 128.199 122.095C127.935 122.213 127.702 122.386 127.502 122.614C127.301 122.838 127.144 123.109 127.03 123.428C126.916 123.742 126.859 124.093 126.859 124.48V128.5H125.717V121.008H126.661L126.784 122.389H126.832C126.987 122.111 127.174 121.858 127.392 121.63C127.611 121.397 127.864 121.213 128.151 121.076C128.443 120.939 128.766 120.871 129.122 120.871ZM134.491 120.871C135.129 120.871 135.676 121.012 136.131 121.295C136.587 121.577 136.936 121.974 137.177 122.484C137.419 122.99 137.54 123.583 137.54 124.262V124.966H132.365C132.378 125.845 132.597 126.515 133.021 126.976C133.445 127.436 134.042 127.666 134.812 127.666C135.286 127.666 135.705 127.623 136.07 127.536C136.434 127.45 136.813 127.322 137.205 127.153V128.151C136.826 128.32 136.45 128.443 136.077 128.521C135.708 128.598 135.27 128.637 134.764 128.637C134.044 128.637 133.415 128.491 132.877 128.199C132.344 127.903 131.93 127.47 131.633 126.9C131.337 126.331 131.189 125.633 131.189 124.809C131.189 124.002 131.323 123.305 131.592 122.717C131.866 122.124 132.249 121.669 132.741 121.35C133.237 121.031 133.821 120.871 134.491 120.871ZM134.477 121.801C133.871 121.801 133.388 121.999 133.028 122.396C132.668 122.792 132.454 123.346 132.385 124.057H136.35C136.346 123.61 136.275 123.218 136.138 122.881C136.006 122.539 135.803 122.275 135.53 122.088C135.256 121.896 134.905 121.801 134.477 121.801ZM143.175 120.871C144.064 120.871 144.736 121.09 145.192 121.527C145.647 121.96 145.875 122.658 145.875 123.619V128.5H144.754V123.694C144.754 123.07 144.611 122.603 144.324 122.293C144.041 121.983 143.606 121.828 143.018 121.828C142.189 121.828 141.605 122.063 141.268 122.532C140.931 123.002 140.762 123.683 140.762 124.576V128.5H139.627V121.008H140.543L140.714 122.088H140.776C140.935 121.824 141.138 121.603 141.384 121.425C141.63 121.243 141.906 121.106 142.211 121.015C142.517 120.919 142.838 120.871 143.175 120.871ZM150.793 127.707C150.98 127.707 151.171 127.691 151.367 127.659C151.563 127.627 151.723 127.589 151.846 127.543V128.425C151.714 128.484 151.529 128.534 151.292 128.575C151.06 128.616 150.832 128.637 150.609 128.637C150.212 128.637 149.852 128.568 149.529 128.432C149.205 128.29 148.945 128.053 148.749 127.721C148.558 127.388 148.462 126.928 148.462 126.34V121.896H147.396V121.343L148.469 120.898L148.92 119.271H149.604V121.008H151.798V121.896H149.604V126.306C149.604 126.775 149.711 127.126 149.925 127.358C150.144 127.591 150.433 127.707 150.793 127.707ZM160.102 118.506C161.392 118.506 162.333 118.759 162.926 119.265C163.523 119.766 163.821 120.486 163.821 121.425C163.821 121.849 163.751 122.252 163.609 122.635C163.473 123.013 163.249 123.348 162.939 123.64C162.629 123.927 162.222 124.155 161.716 124.323C161.214 124.487 160.599 124.569 159.87 124.569H158.653V128.5H157.491V118.506H160.102ZM159.993 119.497H158.653V123.571H159.74C160.378 123.571 160.909 123.503 161.333 123.366C161.761 123.229 162.083 123.008 162.297 122.703C162.511 122.393 162.618 121.983 162.618 121.473C162.618 120.807 162.406 120.313 161.982 119.989C161.558 119.661 160.895 119.497 159.993 119.497ZM169.306 120.871C169.457 120.871 169.614 120.88 169.778 120.898C169.942 120.912 170.088 120.933 170.216 120.96L170.072 122.013C169.949 121.981 169.812 121.956 169.662 121.938C169.511 121.919 169.37 121.91 169.238 121.91C168.937 121.91 168.652 121.972 168.384 122.095C168.119 122.213 167.887 122.386 167.686 122.614C167.486 122.838 167.329 123.109 167.215 123.428C167.101 123.742 167.044 124.093 167.044 124.48V128.5H165.902V121.008H166.845L166.968 122.389H167.016C167.171 122.111 167.358 121.858 167.577 121.63C167.796 121.397 168.049 121.213 168.336 121.076C168.627 120.939 168.951 120.871 169.306 120.871ZM178.251 124.74C178.251 125.355 178.171 125.905 178.011 126.388C177.852 126.871 177.622 127.279 177.321 127.611C177.02 127.944 176.655 128.199 176.227 128.377C175.803 128.55 175.322 128.637 174.785 128.637C174.283 128.637 173.823 128.55 173.404 128.377C172.989 128.199 172.629 127.944 172.324 127.611C172.023 127.279 171.788 126.871 171.62 126.388C171.456 125.905 171.374 125.355 171.374 124.74C171.374 123.92 171.513 123.223 171.791 122.648C172.069 122.07 172.465 121.63 172.98 121.329C173.5 121.024 174.117 120.871 174.833 120.871C175.516 120.871 176.113 121.024 176.624 121.329C177.139 121.634 177.537 122.076 177.82 122.655C178.107 123.229 178.251 123.924 178.251 124.74ZM172.549 124.74C172.549 125.342 172.629 125.864 172.789 126.306C172.948 126.748 173.194 127.09 173.527 127.331C173.86 127.573 174.288 127.693 174.812 127.693C175.332 127.693 175.758 127.573 176.09 127.331C176.428 127.09 176.676 126.748 176.836 126.306C176.995 125.864 177.075 125.342 177.075 124.74C177.075 124.143 176.995 123.628 176.836 123.195C176.676 122.758 176.43 122.421 176.097 122.184C175.765 121.947 175.334 121.828 174.805 121.828C174.026 121.828 173.454 122.086 173.089 122.601C172.729 123.116 172.549 123.829 172.549 124.74ZM179.47 131.863C179.238 131.863 179.035 131.845 178.862 131.809C178.689 131.777 178.538 131.738 178.411 131.692V130.77C178.552 130.815 178.695 130.849 178.841 130.872C178.987 130.899 179.151 130.913 179.333 130.913C179.643 130.913 179.894 130.826 180.085 130.653C180.277 130.48 180.372 130.166 180.372 129.71V121.008H181.507V129.683C181.507 130.138 181.434 130.528 181.288 130.852C181.143 131.18 180.919 131.43 180.619 131.604C180.318 131.777 179.935 131.863 179.47 131.863ZM180.27 118.95C180.27 118.695 180.334 118.508 180.461 118.39C180.593 118.267 180.758 118.205 180.954 118.205C181.14 118.205 181.3 118.267 181.432 118.39C181.569 118.508 181.637 118.695 181.637 118.95C181.637 119.201 181.569 119.388 181.432 119.511C181.3 119.634 181.14 119.695 180.954 119.695C180.758 119.695 180.593 119.634 180.461 119.511C180.334 119.388 180.27 119.201 180.27 118.95ZM186.958 120.871C187.596 120.871 188.143 121.012 188.599 121.295C189.055 121.577 189.403 121.974 189.645 122.484C189.886 122.99 190.007 123.583 190.007 124.262V124.966H184.832C184.846 125.845 185.065 126.515 185.489 126.976C185.912 127.436 186.509 127.666 187.28 127.666C187.753 127.666 188.173 127.623 188.537 127.536C188.902 127.45 189.28 127.322 189.672 127.153V128.151C189.294 128.32 188.918 128.443 188.544 128.521C188.175 128.598 187.738 128.637 187.232 128.637C186.512 128.637 185.883 128.491 185.345 128.199C184.812 127.903 184.397 127.47 184.101 126.9C183.805 126.331 183.656 125.633 183.656 124.809C183.656 124.002 183.791 123.305 184.06 122.717C184.333 122.124 184.716 121.669 185.208 121.35C185.705 121.031 186.288 120.871 186.958 120.871ZM186.945 121.801C186.338 121.801 185.855 121.999 185.495 122.396C185.135 122.792 184.921 123.346 184.853 124.057H188.818C188.813 123.61 188.742 123.218 188.606 122.881C188.474 122.539 188.271 122.275 187.997 122.088C187.724 121.896 187.373 121.801 186.945 121.801ZM195.096 128.637C194.421 128.637 193.827 128.498 193.312 128.22C192.797 127.942 192.396 127.518 192.108 126.948C191.821 126.379 191.678 125.661 191.678 124.795C191.678 123.888 191.828 123.147 192.129 122.573C192.434 121.994 192.854 121.566 193.387 121.288C193.92 121.01 194.526 120.871 195.205 120.871C195.579 120.871 195.939 120.91 196.285 120.987C196.636 121.06 196.923 121.154 197.147 121.268L196.805 122.218C196.577 122.127 196.313 122.045 196.012 121.972C195.716 121.899 195.438 121.862 195.178 121.862C194.658 121.862 194.225 121.974 193.879 122.197C193.537 122.421 193.28 122.749 193.107 123.182C192.938 123.615 192.854 124.148 192.854 124.781C192.854 125.387 192.936 125.905 193.1 126.333C193.268 126.761 193.517 127.09 193.845 127.317C194.177 127.541 194.592 127.652 195.089 127.652C195.485 127.652 195.843 127.611 196.162 127.529C196.481 127.443 196.771 127.342 197.03 127.229V128.24C196.78 128.368 196.499 128.466 196.19 128.534C195.884 128.603 195.52 128.637 195.096 128.637ZM201.388 127.707C201.574 127.707 201.766 127.691 201.962 127.659C202.158 127.627 202.317 127.589 202.44 127.543V128.425C202.308 128.484 202.124 128.534 201.887 128.575C201.654 128.616 201.426 128.637 201.203 128.637C200.807 128.637 200.447 128.568 200.123 128.432C199.799 128.29 199.54 128.053 199.344 127.721C199.152 127.388 199.057 126.928 199.057 126.34V121.896H197.99V121.343L199.063 120.898L199.515 119.271H200.198V121.008H202.393V121.896H200.198V126.306C200.198 126.775 200.305 127.126 200.519 127.358C200.738 127.591 201.028 127.707 201.388 127.707Z" fill="white"/>
<path d="M97 104H366C368.485 104 370.5 106.015 370.5 108.5V143H92.5V108.5C92.5 106.015 94.5147 104 97 104Z" stroke="#00378F"/>
<path d="M134 180.5H192.5V243.5H134C131.515 243.5 129.5 241.485 129.5 239V185C129.5 182.515 131.515 180.5 134 180.5Z" fill="#82A4D9" stroke="#82A4D9"/>
<path d="M193.5 180.5H295C297.485 180.5 299.5 182.515 299.5 185V239C299.5 241.485 297.485 243.5 295 243.5H193.5V180.5Z" fill="white"/>
<path d="M220.803 217H219.801V209.312H217.105V208.434H223.486V209.312H220.803V217ZM227.267 210.461C227.814 210.461 228.283 210.582 228.674 210.824C229.064 211.066 229.363 211.406 229.57 211.844C229.777 212.277 229.881 212.785 229.881 213.367V213.971H225.445C225.457 214.725 225.644 215.299 226.008 215.693C226.371 216.088 226.883 216.285 227.543 216.285C227.949 216.285 228.308 216.248 228.621 216.174C228.933 216.1 229.258 215.99 229.594 215.846V216.701C229.269 216.846 228.947 216.951 228.627 217.018C228.31 217.084 227.935 217.117 227.502 217.117C226.885 217.117 226.346 216.992 225.885 216.742C225.428 216.488 225.072 216.117 224.818 215.629C224.564 215.141 224.437 214.543 224.437 213.836C224.437 213.145 224.553 212.547 224.783 212.043C225.017 211.535 225.346 211.145 225.767 210.871C226.193 210.598 226.693 210.461 227.267 210.461ZM227.256 211.258C226.736 211.258 226.322 211.428 226.014 211.768C225.705 212.107 225.521 212.582 225.463 213.191H228.861C228.857 212.809 228.797 212.473 228.68 212.184C228.566 211.891 228.392 211.664 228.158 211.504C227.924 211.34 227.623 211.258 227.256 211.258ZM235.847 215.242C235.847 215.652 235.744 215.998 235.537 216.279C235.334 216.557 235.041 216.766 234.658 216.906C234.279 217.047 233.826 217.117 233.299 217.117C232.849 217.117 232.461 217.082 232.132 217.012C231.804 216.941 231.517 216.842 231.271 216.713V215.816C231.533 215.945 231.845 216.062 232.209 216.168C232.572 216.273 232.943 216.326 233.322 216.326C233.877 216.326 234.279 216.236 234.529 216.057C234.779 215.877 234.904 215.633 234.904 215.324C234.904 215.148 234.853 214.994 234.752 214.861C234.654 214.725 234.488 214.594 234.254 214.469C234.019 214.34 233.695 214.199 233.281 214.047C232.871 213.891 232.515 213.736 232.215 213.584C231.918 213.428 231.687 213.238 231.523 213.016C231.363 212.793 231.283 212.504 231.283 212.148C231.283 211.605 231.502 211.189 231.939 210.9C232.381 210.607 232.959 210.461 233.674 210.461C234.06 210.461 234.422 210.5 234.757 210.578C235.097 210.652 235.414 210.754 235.707 210.883L235.379 211.662C235.113 211.549 234.83 211.453 234.529 211.375C234.228 211.297 233.922 211.258 233.609 211.258C233.16 211.258 232.814 211.332 232.572 211.48C232.334 211.629 232.215 211.832 232.215 212.09C232.215 212.289 232.269 212.453 232.379 212.582C232.492 212.711 232.672 212.832 232.918 212.945C233.164 213.059 233.488 213.191 233.89 213.344C234.293 213.492 234.64 213.646 234.933 213.807C235.226 213.963 235.451 214.154 235.607 214.381C235.767 214.604 235.847 214.891 235.847 215.242ZM239.646 216.32C239.806 216.32 239.97 216.307 240.138 216.279C240.306 216.252 240.443 216.219 240.548 216.18V216.936C240.435 216.986 240.277 217.029 240.074 217.064C239.875 217.1 239.679 217.117 239.488 217.117C239.148 217.117 238.839 217.059 238.562 216.941C238.285 216.82 238.062 216.617 237.894 216.332C237.73 216.047 237.648 215.652 237.648 215.148V211.34H236.734V210.865L237.654 210.484L238.041 209.09H238.626V210.578H240.507V211.34H238.626V215.119C238.626 215.521 238.718 215.822 238.902 216.021C239.089 216.221 239.337 216.32 239.646 216.32ZM251.136 217.117C250.558 217.117 250.048 216.998 249.606 216.76C249.165 216.521 248.821 216.158 248.575 215.67C248.329 215.182 248.206 214.566 248.206 213.824C248.206 213.047 248.335 212.412 248.593 211.92C248.855 211.424 249.214 211.057 249.671 210.818C250.128 210.58 250.647 210.461 251.23 210.461C251.55 210.461 251.858 210.494 252.155 210.561C252.456 210.623 252.702 210.703 252.894 210.801L252.601 211.615C252.405 211.537 252.179 211.467 251.921 211.404C251.667 211.342 251.429 211.311 251.206 211.311C250.761 211.311 250.39 211.406 250.093 211.598C249.8 211.789 249.579 212.07 249.431 212.441C249.286 212.812 249.214 213.27 249.214 213.812C249.214 214.332 249.284 214.775 249.425 215.143C249.569 215.51 249.782 215.791 250.064 215.986C250.349 216.178 250.704 216.273 251.13 216.273C251.47 216.273 251.776 216.238 252.05 216.168C252.323 216.094 252.571 216.008 252.794 215.91V216.777C252.579 216.887 252.339 216.971 252.073 217.029C251.812 217.088 251.499 217.117 251.136 217.117ZM260.015 213.777C260.015 214.305 259.946 214.775 259.809 215.189C259.673 215.604 259.475 215.953 259.218 216.238C258.96 216.523 258.647 216.742 258.28 216.895C257.917 217.043 257.505 217.117 257.044 217.117C256.614 217.117 256.22 217.043 255.86 216.895C255.505 216.742 255.196 216.523 254.934 216.238C254.677 215.953 254.475 215.604 254.331 215.189C254.19 214.775 254.12 214.305 254.12 213.777C254.12 213.074 254.239 212.477 254.477 211.984C254.716 211.488 255.056 211.111 255.497 210.854C255.942 210.592 256.472 210.461 257.085 210.461C257.671 210.461 258.182 210.592 258.62 210.854C259.061 211.115 259.403 211.494 259.645 211.99C259.891 212.482 260.015 213.078 260.015 213.777ZM255.128 213.777C255.128 214.293 255.196 214.74 255.333 215.119C255.47 215.498 255.681 215.791 255.966 215.998C256.251 216.205 256.618 216.309 257.067 216.309C257.513 216.309 257.878 216.205 258.163 215.998C258.452 215.791 258.665 215.498 258.802 215.119C258.938 214.74 259.007 214.293 259.007 213.777C259.007 213.266 258.938 212.824 258.802 212.453C258.665 212.078 258.454 211.789 258.169 211.586C257.884 211.383 257.515 211.281 257.061 211.281C256.393 211.281 255.903 211.502 255.591 211.943C255.282 212.385 255.128 212.996 255.128 213.777ZM264.141 217.117C263.329 217.117 262.684 216.84 262.208 216.285C261.735 215.73 261.499 214.906 261.499 213.812C261.499 212.707 261.741 211.873 262.225 211.311C262.71 210.744 263.354 210.461 264.159 210.461C264.499 210.461 264.796 210.506 265.05 210.596C265.303 210.686 265.522 210.807 265.706 210.959C265.889 211.107 266.044 211.277 266.169 211.469H266.239C266.223 211.348 266.208 211.182 266.192 210.971C266.176 210.76 266.169 210.588 266.169 210.455V207.883H267.141V217H266.356L266.21 216.086H266.169C266.048 216.277 265.893 216.451 265.706 216.607C265.522 216.764 265.301 216.889 265.044 216.982C264.79 217.072 264.489 217.117 264.141 217.117ZM264.294 216.309C264.981 216.309 265.467 216.113 265.753 215.723C266.038 215.332 266.18 214.752 266.18 213.982V213.807C266.18 212.99 266.044 212.363 265.77 211.926C265.501 211.488 265.009 211.27 264.294 211.27C263.696 211.27 263.249 211.5 262.952 211.961C262.655 212.418 262.507 213.043 262.507 213.836C262.507 214.625 262.653 215.234 262.946 215.664C263.243 216.094 263.692 216.309 264.294 216.309ZM271.836 210.461C272.383 210.461 272.852 210.582 273.243 210.824C273.633 211.066 273.932 211.406 274.139 211.844C274.346 212.277 274.45 212.785 274.45 213.367V213.971H270.014C270.026 214.725 270.213 215.299 270.577 215.693C270.94 216.088 271.452 216.285 272.112 216.285C272.518 216.285 272.877 216.248 273.19 216.174C273.502 216.1 273.827 215.99 274.163 215.846V216.701C273.838 216.846 273.516 216.951 273.196 217.018C272.879 217.084 272.504 217.117 272.071 217.117C271.454 217.117 270.915 216.992 270.454 216.742C269.997 216.488 269.641 216.117 269.387 215.629C269.133 215.141 269.006 214.543 269.006 213.836C269.006 213.145 269.122 212.547 269.352 212.043C269.586 211.535 269.915 211.145 270.336 210.871C270.762 210.598 271.262 210.461 271.836 210.461ZM271.825 211.258C271.305 211.258 270.891 211.428 270.583 211.768C270.274 212.107 270.09 212.582 270.032 213.191H273.43C273.426 212.809 273.366 212.473 273.249 212.184C273.135 211.891 272.961 211.664 272.727 211.504C272.493 211.34 272.192 211.258 271.825 211.258Z" fill="black"/>
<path d="M193.5 180.5H295C297.485 180.5 299.5 182.515 299.5 185V239C299.5 241.485 297.485 243.5 295 243.5H193.5V180.5Z" stroke="#82A4D9"/>
<path d="M134 255.5H192.5V318.5H134C131.515 318.5 129.5 316.485 129.5 314V260C129.5 257.515 131.515 255.5 134 255.5Z" fill="#82A4D9" stroke="#82A4D9"/>
<path d="M193.5 255.5H265C267.485 255.5 269.5 257.515 269.5 260V314C269.5 316.485 267.485 318.5 265 318.5H193.5V255.5Z" fill="white"/>
<path d="M228.879 287.705C228.879 288.365 228.795 288.967 228.627 289.51C228.459 290.049 228.209 290.514 227.877 290.904C227.549 291.291 227.14 291.59 226.652 291.801C226.164 292.012 225.598 292.117 224.953 292.117C224.289 292.117 223.709 292.012 223.213 291.801C222.721 291.59 222.31 291.289 221.982 290.898C221.658 290.508 221.414 290.041 221.25 289.498C221.09 288.955 221.01 288.354 221.01 287.693C221.01 286.818 221.154 286.051 221.443 285.391C221.732 284.73 222.17 284.217 222.756 283.85C223.346 283.482 224.084 283.299 224.971 283.299C225.818 283.299 226.531 283.48 227.109 283.844C227.691 284.207 228.131 284.719 228.428 285.379C228.728 286.035 228.879 286.811 228.879 287.705ZM222.058 287.705C222.058 288.432 222.162 289.061 222.369 289.592C222.576 290.123 222.892 290.533 223.318 290.822C223.748 291.111 224.293 291.256 224.953 291.256C225.617 291.256 226.16 291.111 226.582 290.822C227.008 290.533 227.322 290.123 227.525 289.592C227.728 289.061 227.83 288.432 227.83 287.705C227.83 286.6 227.598 285.736 227.133 285.115C226.672 284.49 225.951 284.178 224.971 284.178C224.306 284.178 223.76 284.32 223.33 284.605C222.9 284.891 222.58 285.297 222.369 285.824C222.162 286.348 222.058 286.975 222.058 287.705ZM230.949 283.434H233.375C234.445 283.434 235.25 283.594 235.789 283.914C236.328 284.234 236.597 284.779 236.597 285.549C236.597 285.881 236.533 286.18 236.404 286.445C236.279 286.707 236.095 286.924 235.853 287.096C235.611 287.268 235.312 287.387 234.957 287.453V287.512C235.332 287.57 235.664 287.678 235.953 287.834C236.242 287.99 236.468 288.209 236.632 288.49C236.797 288.771 236.879 289.129 236.879 289.562C236.879 290.09 236.756 290.535 236.509 290.898C236.267 291.262 235.924 291.537 235.478 291.725C235.033 291.908 234.506 292 233.896 292H230.949V283.434ZM231.945 287.107H233.586C234.332 287.107 234.847 286.984 235.132 286.738C235.422 286.492 235.566 286.133 235.566 285.66C235.566 285.172 235.394 284.82 235.05 284.605C234.711 284.391 234.168 284.283 233.422 284.283H231.945V287.107ZM231.945 287.945V291.15H233.726C234.488 291.15 235.027 291.002 235.343 290.705C235.66 290.404 235.818 290 235.818 289.492C235.818 289.168 235.746 288.891 235.601 288.66C235.461 288.43 235.23 288.254 234.91 288.133C234.593 288.008 234.17 287.945 233.638 287.945H231.945ZM241.181 283.434C241.884 283.434 242.464 283.521 242.921 283.697C243.382 283.869 243.726 284.133 243.953 284.488C244.179 284.844 244.292 285.297 244.292 285.848C244.292 286.301 244.21 286.68 244.046 286.984C243.882 287.285 243.667 287.529 243.402 287.717C243.136 287.904 242.853 288.049 242.552 288.15L244.902 292H243.742L241.644 288.426H239.863V292H238.867V283.434H241.181ZM241.123 284.295H239.863V287.582H241.222C241.921 287.582 242.435 287.439 242.763 287.154C243.095 286.869 243.261 286.449 243.261 285.895C243.261 285.312 243.085 284.9 242.734 284.658C242.386 284.416 241.849 284.295 241.123 284.295Z" fill="black"/>
<path d="M193.5 255.5H265C267.485 255.5 269.5 257.515 269.5 260V314C269.5 316.485 267.485 318.5 265 318.5H193.5V255.5Z" stroke="#82A4D9"/>
<path d="M467.5 104.578V61C467.5 58.5147 469.515 56.5 472 56.5H520.145C522.631 56.5 524.645 58.5147 524.645 61V104.578C524.645 107.063 522.631 109.078 520.145 109.078H472C469.515 109.078 467.5 107.063 467.5 104.578Z" fill="#DA6F5A" stroke="#00378F"/>
<path d="M481.297 83.725L480.066 80.5532H476.06L474.837 83.725H473.661L477.571 73.6899H478.617L482.5 83.725H481.297ZM479.717 79.5209L478.548 76.3696C478.521 76.2875 478.476 76.1531 478.412 75.9662C478.352 75.7794 478.291 75.5857 478.227 75.3852C478.163 75.1847 478.111 75.0229 478.07 74.8998C478.024 75.0867 477.974 75.2735 477.92 75.4604C477.869 75.6427 477.819 75.8136 477.769 75.9731C477.719 76.128 477.676 76.2602 477.639 76.3696L476.45 79.5209H479.717ZM487.281 76.0961C487.431 76.0961 487.588 76.1052 487.752 76.1235C487.916 76.1371 488.062 76.1577 488.19 76.185L488.046 77.2377C487.923 77.2058 487.787 77.1808 487.636 77.1625C487.486 77.1443 487.345 77.1352 487.212 77.1352C486.912 77.1352 486.627 77.1967 486.358 77.3198C486.094 77.4383 485.861 77.6114 485.661 77.8393C485.46 78.0626 485.303 78.3338 485.189 78.6528C485.075 78.9672 485.018 79.3181 485.018 79.7055V83.725H483.876V76.2328H484.82L484.943 77.6137H484.991C485.146 77.3357 485.332 77.0828 485.551 76.8549C485.77 76.6225 486.023 76.4379 486.31 76.3012C486.602 76.1645 486.925 76.0961 487.281 76.0961ZM491.857 87.0883C490.872 87.0883 490.114 86.9037 489.58 86.5346C489.047 86.17 488.781 85.6573 488.781 84.9965C488.781 84.5271 488.929 84.1261 489.225 83.7934C489.526 83.4607 489.94 83.2397 490.469 83.1303C490.273 83.0392 490.104 82.9024 489.963 82.7202C489.826 82.5379 489.758 82.3282 489.758 82.0912C489.758 81.8178 489.833 81.5786 489.984 81.3735C490.139 81.1638 490.373 80.9633 490.688 80.7719C490.296 80.6124 489.977 80.3435 489.731 79.9653C489.489 79.5825 489.368 79.1381 489.368 78.6323C489.368 78.0945 489.48 77.6365 489.703 77.2582C489.927 76.8754 490.25 76.5838 490.674 76.3832C491.098 76.1827 491.611 76.0825 492.212 76.0825C492.344 76.0825 492.477 76.0893 492.609 76.103C492.745 76.1121 492.875 76.128 492.998 76.1508C493.121 76.169 493.228 76.1918 493.32 76.2192H495.89V76.9506L494.509 77.1215C494.646 77.2993 494.76 77.5134 494.851 77.7641C494.942 78.0148 494.988 78.2927 494.988 78.5981C494.988 79.3455 494.735 79.9402 494.229 80.3823C493.723 80.8198 493.028 81.0385 492.144 81.0385C491.934 81.0385 491.72 81.0203 491.501 80.9838C491.278 81.1069 491.107 81.2436 490.989 81.394C490.875 81.5444 490.818 81.7175 490.818 81.9135C490.818 82.0593 490.861 82.1756 490.948 82.2621C491.039 82.3487 491.169 82.4125 491.337 82.4536C491.506 82.49 491.709 82.5082 491.946 82.5082H493.265C494.081 82.5082 494.705 82.6791 495.138 83.0209C495.575 83.3627 495.794 83.8618 495.794 84.518C495.794 85.3474 495.457 85.9832 494.783 86.4252C494.108 86.8673 493.133 87.0883 491.857 87.0883ZM491.891 86.1996C492.511 86.1996 493.023 86.1358 493.429 86.0082C493.839 85.8852 494.145 85.7052 494.345 85.4682C494.55 85.2358 494.653 84.9578 494.653 84.6342C494.653 84.3334 494.584 84.1056 494.448 83.9506C494.311 83.8002 494.11 83.7 493.846 83.6498C493.582 83.5952 493.258 83.5678 492.875 83.5678H491.576C491.239 83.5678 490.945 83.6202 490.695 83.725C490.444 83.8299 490.25 83.9848 490.114 84.1899C489.981 84.395 489.915 84.6502 489.915 84.9555C489.915 85.3611 490.086 85.6687 490.428 85.8784C490.77 86.0925 491.257 86.1996 491.891 86.1996ZM492.185 80.2114C492.727 80.2114 493.135 80.0746 493.409 79.8012C493.682 79.5278 493.819 79.129 493.819 78.6049C493.819 78.0444 493.68 77.6251 493.402 77.3471C493.124 77.0646 492.714 76.9233 492.171 76.9233C491.652 76.9233 491.251 77.0691 490.968 77.3608C490.69 77.6479 490.551 78.0694 490.551 78.6254C490.551 79.1358 490.692 79.5278 490.975 79.8012C491.257 80.0746 491.661 80.2114 492.185 80.2114ZM502.373 81.6743C502.373 82.1528 502.252 82.5561 502.011 82.8842C501.774 83.2078 501.432 83.4516 500.985 83.6157C500.543 83.7797 500.015 83.8618 499.4 83.8618C498.875 83.8618 498.422 83.8207 498.039 83.7387C497.656 83.6567 497.321 83.5405 497.034 83.3901V82.3442C497.34 82.4946 497.704 82.6313 498.128 82.7543C498.552 82.8774 498.985 82.9389 499.427 82.9389C500.074 82.9389 500.543 82.8341 500.835 82.6245C501.127 82.4148 501.273 82.13 501.273 81.77C501.273 81.5649 501.213 81.3849 501.095 81.2299C500.981 81.0704 500.787 80.9177 500.514 80.7719C500.24 80.6215 499.862 80.4575 499.379 80.2797C498.901 80.0974 498.486 79.9174 498.135 79.7397C497.789 79.5574 497.52 79.3364 497.328 79.0766C497.141 78.8168 497.048 78.4796 497.048 78.0649C497.048 77.4314 497.303 76.9461 497.814 76.6088C498.329 76.267 499.003 76.0961 499.837 76.0961C500.288 76.0961 500.71 76.1417 501.102 76.2328C501.498 76.3194 501.867 76.4379 502.209 76.5883L501.826 77.4975C501.516 77.3653 501.186 77.2537 500.835 77.1625C500.484 77.0714 500.126 77.0258 499.762 77.0258C499.238 77.0258 498.834 77.1124 498.552 77.2856C498.274 77.4588 498.135 77.6957 498.135 77.9965C498.135 78.2289 498.199 78.4203 498.326 78.5707C498.458 78.7211 498.668 78.8624 498.955 78.9946C499.242 79.1267 499.621 79.2817 500.09 79.4594C500.559 79.6326 500.965 79.8126 501.307 79.9995C501.649 80.1817 501.911 80.405 502.093 80.6694C502.28 80.9291 502.373 81.2641 502.373 81.6743Z" fill="white"/>
<rect x="467.5" y="154.5" width="93" height="19" rx="4.5" fill="#00378F"/>
<path d="M493.437 169H492.268V160.031H489.123V159.006H496.567V160.031H493.437V169ZM500.952 161.371C501.59 161.371 502.137 161.512 502.593 161.795C503.048 162.077 503.397 162.474 503.639 162.984C503.88 163.49 504.001 164.083 504.001 164.762V165.466H498.826C498.84 166.345 499.058 167.015 499.482 167.476C499.906 167.936 500.503 168.166 501.273 168.166C501.747 168.166 502.167 168.123 502.531 168.036C502.896 167.95 503.274 167.822 503.666 167.653V168.651C503.288 168.82 502.912 168.943 502.538 169.021C502.169 169.098 501.731 169.137 501.225 169.137C500.505 169.137 499.876 168.991 499.339 168.699C498.806 168.403 498.391 167.97 498.095 167.4C497.798 166.831 497.65 166.133 497.65 165.309C497.65 164.502 497.785 163.805 498.054 163.217C498.327 162.624 498.71 162.169 499.202 161.85C499.699 161.531 500.282 161.371 500.952 161.371ZM500.938 162.301C500.332 162.301 499.849 162.499 499.489 162.896C499.129 163.292 498.915 163.846 498.847 164.557H502.811C502.807 164.11 502.736 163.718 502.599 163.381C502.467 163.039 502.264 162.775 501.991 162.588C501.718 162.396 501.367 162.301 500.938 162.301ZM510.935 166.949C510.935 167.428 510.814 167.831 510.573 168.159C510.336 168.483 509.994 168.727 509.548 168.891C509.105 169.055 508.577 169.137 507.962 169.137C507.438 169.137 506.984 169.096 506.601 169.014C506.218 168.932 505.883 168.815 505.596 168.665V167.619C505.902 167.77 506.266 167.906 506.69 168.029C507.114 168.152 507.547 168.214 507.989 168.214C508.636 168.214 509.105 168.109 509.397 167.899C509.689 167.69 509.835 167.405 509.835 167.045C509.835 166.84 509.775 166.66 509.657 166.505C509.543 166.345 509.349 166.193 509.076 166.047C508.802 165.896 508.424 165.732 507.941 165.555C507.463 165.372 507.048 165.192 506.697 165.015C506.351 164.832 506.082 164.611 505.89 164.352C505.703 164.092 505.61 163.755 505.61 163.34C505.61 162.706 505.865 162.221 506.376 161.884C506.891 161.542 507.565 161.371 508.399 161.371C508.85 161.371 509.272 161.417 509.664 161.508C510.06 161.594 510.429 161.713 510.771 161.863L510.388 162.772C510.078 162.64 509.748 162.529 509.397 162.438C509.046 162.346 508.688 162.301 508.324 162.301C507.8 162.301 507.396 162.387 507.114 162.561C506.836 162.734 506.697 162.971 506.697 163.271C506.697 163.504 506.761 163.695 506.888 163.846C507.021 163.996 507.23 164.137 507.517 164.27C507.804 164.402 508.183 164.557 508.652 164.734C509.121 164.908 509.527 165.088 509.869 165.274C510.211 165.457 510.473 165.68 510.655 165.944C510.842 166.204 510.935 166.539 510.935 166.949ZM515.34 168.207C515.527 168.207 515.719 168.191 515.915 168.159C516.111 168.127 516.27 168.089 516.393 168.043V168.925C516.261 168.984 516.076 169.034 515.839 169.075C515.607 169.116 515.379 169.137 515.156 169.137C514.759 169.137 514.399 169.068 514.076 168.932C513.752 168.79 513.492 168.553 513.296 168.221C513.105 167.888 513.009 167.428 513.009 166.84V162.396H511.943V161.843L513.016 161.398L513.467 159.771H514.151V161.508H516.345V162.396H514.151V166.806C514.151 167.275 514.258 167.626 514.472 167.858C514.691 168.091 514.98 168.207 515.34 168.207ZM517.9 168.289C517.9 167.97 517.977 167.744 518.132 167.612C518.287 167.476 518.476 167.407 518.7 167.407C518.932 167.407 519.128 167.476 519.287 167.612C519.447 167.744 519.527 167.97 519.527 168.289C519.527 168.604 519.447 168.834 519.287 168.979C519.128 169.121 518.932 169.191 518.7 169.191C518.476 169.191 518.287 169.121 518.132 168.979C517.977 168.834 517.9 168.604 517.9 168.289ZM521.006 172.363C520.774 172.363 520.571 172.345 520.398 172.309C520.224 172.277 520.074 172.238 519.946 172.192V171.27C520.088 171.315 520.231 171.349 520.377 171.372C520.523 171.399 520.687 171.413 520.869 171.413C521.179 171.413 521.43 171.326 521.621 171.153C521.813 170.98 521.908 170.666 521.908 170.21V161.508H523.043V170.183C523.043 170.638 522.97 171.028 522.824 171.352C522.679 171.68 522.455 171.93 522.154 172.104C521.854 172.277 521.471 172.363 521.006 172.363ZM521.806 159.45C521.806 159.195 521.87 159.008 521.997 158.89C522.129 158.767 522.293 158.705 522.489 158.705C522.676 158.705 522.836 158.767 522.968 158.89C523.105 159.008 523.173 159.195 523.173 159.45C523.173 159.701 523.105 159.888 522.968 160.011C522.836 160.134 522.676 160.195 522.489 160.195C522.293 160.195 522.129 160.134 521.997 160.011C521.87 159.888 521.806 159.701 521.806 159.45ZM528.412 161.385C529.305 161.385 529.968 161.585 530.401 161.986C530.834 162.387 531.051 163.028 531.051 163.907V169H530.224L530.005 167.893H529.95C529.741 168.166 529.522 168.396 529.294 168.583C529.066 168.765 528.802 168.904 528.501 169C528.205 169.091 527.84 169.137 527.407 169.137C526.952 169.137 526.546 169.057 526.19 168.897C525.84 168.738 525.562 168.496 525.356 168.173C525.156 167.849 525.056 167.439 525.056 166.942C525.056 166.195 525.352 165.621 525.944 165.22C526.537 164.819 527.439 164.6 528.651 164.563L529.943 164.509V164.051C529.943 163.404 529.804 162.95 529.526 162.69C529.248 162.431 528.856 162.301 528.351 162.301C527.959 162.301 527.585 162.358 527.23 162.472C526.874 162.586 526.537 162.72 526.218 162.875L525.869 162.014C526.206 161.84 526.594 161.692 527.031 161.569C527.469 161.446 527.929 161.385 528.412 161.385ZM529.93 165.309L528.788 165.356C527.854 165.393 527.195 165.546 526.813 165.814C526.43 166.083 526.238 166.464 526.238 166.956C526.238 167.384 526.368 167.701 526.628 167.906C526.888 168.111 527.232 168.214 527.66 168.214C528.326 168.214 528.87 168.029 529.294 167.66C529.718 167.291 529.93 166.737 529.93 165.999V165.309ZM536.953 161.371C537.103 161.371 537.261 161.38 537.425 161.398C537.589 161.412 537.735 161.433 537.862 161.46L537.719 162.513C537.596 162.481 537.459 162.456 537.308 162.438C537.158 162.419 537.017 162.41 536.885 162.41C536.584 162.41 536.299 162.472 536.03 162.595C535.766 162.713 535.533 162.886 535.333 163.114C535.132 163.338 534.975 163.609 534.861 163.928C534.747 164.242 534.69 164.593 534.69 164.98V169H533.549V161.508H534.492L534.615 162.889H534.663C534.818 162.611 535.005 162.358 535.224 162.13C535.442 161.897 535.695 161.713 535.982 161.576C536.274 161.439 536.598 161.371 536.953 161.371Z" fill="white"/>
<rect x="467.5" y="154.5" width="93" height="19" rx="4.5" stroke="#00378F"/>
<rect x="570.5" y="68.5" width="96" height="19" rx="4.5" fill="#00378F"/>
<path d="M593.367 73.0059H596.197C597.446 73.0059 598.385 73.1927 599.014 73.5664C599.643 73.9401 599.957 74.5758 599.957 75.4736C599.957 75.861 599.882 76.2096 599.731 76.5195C599.586 76.8249 599.371 77.0778 599.089 77.2783C598.806 77.4788 598.458 77.6178 598.043 77.6953V77.7637C598.48 77.832 598.868 77.9574 599.205 78.1396C599.542 78.3219 599.807 78.5771 599.998 78.9053C600.189 79.2334 600.285 79.6504 600.285 80.1562C600.285 80.7715 600.142 81.291 599.854 81.7148C599.572 82.1387 599.171 82.46 598.651 82.6787C598.132 82.8929 597.517 83 596.806 83H593.367V73.0059ZM594.529 77.292H596.443C597.314 77.292 597.915 77.1484 598.248 76.8613C598.585 76.5742 598.754 76.1549 598.754 75.6035C598.754 75.0339 598.553 74.6237 598.152 74.373C597.756 74.1224 597.122 73.9971 596.252 73.9971H594.529V77.292ZM594.529 78.2695V82.0088H596.607C597.496 82.0088 598.125 81.8356 598.494 81.4893C598.863 81.1383 599.048 80.6667 599.048 80.0742C599.048 79.696 598.964 79.3724 598.795 79.1035C598.631 78.8346 598.362 78.6296 597.988 78.4883C597.619 78.3424 597.125 78.2695 596.505 78.2695H594.529ZM608.867 79.2402C608.867 79.8555 608.787 80.4046 608.628 80.8877C608.468 81.3708 608.238 81.7786 607.937 82.1113C607.637 82.444 607.272 82.6992 606.844 82.877C606.42 83.0501 605.939 83.1367 605.401 83.1367C604.9 83.1367 604.44 83.0501 604.02 82.877C603.606 82.6992 603.246 82.444 602.94 82.1113C602.639 81.7786 602.405 81.3708 602.236 80.8877C602.072 80.4046 601.99 79.8555 601.99 79.2402C601.99 78.4199 602.129 77.7227 602.407 77.1484C602.685 76.5697 603.082 76.1299 603.597 75.8291C604.116 75.5238 604.734 75.3711 605.449 75.3711C606.133 75.3711 606.73 75.5238 607.24 75.8291C607.755 76.1344 608.154 76.5765 608.436 77.1553C608.723 77.7295 608.867 78.4245 608.867 79.2402ZM603.166 79.2402C603.166 79.8418 603.246 80.3636 603.405 80.8057C603.565 81.2477 603.811 81.5895 604.143 81.8311C604.476 82.0726 604.904 82.1934 605.429 82.1934C605.948 82.1934 606.374 82.0726 606.707 81.8311C607.044 81.5895 607.292 81.2477 607.452 80.8057C607.611 80.3636 607.691 79.8418 607.691 79.2402C607.691 78.6432 607.611 78.1283 607.452 77.6953C607.292 77.2578 607.046 76.9206 606.714 76.6836C606.381 76.4466 605.95 76.3281 605.422 76.3281C604.642 76.3281 604.07 76.5856 603.706 77.1006C603.346 77.6156 603.166 78.3288 603.166 79.2402ZM617.449 79.2402C617.449 79.8555 617.369 80.4046 617.21 80.8877C617.05 81.3708 616.82 81.7786 616.519 82.1113C616.218 82.444 615.854 82.6992 615.425 82.877C615.002 83.0501 614.521 83.1367 613.983 83.1367C613.482 83.1367 613.021 83.0501 612.602 82.877C612.188 82.6992 611.827 82.444 611.522 82.1113C611.221 81.7786 610.987 81.3708 610.818 80.8877C610.654 80.4046 610.572 79.8555 610.572 79.2402C610.572 78.4199 610.711 77.7227 610.989 77.1484C611.267 76.5697 611.663 76.1299 612.178 75.8291C612.698 75.5238 613.315 75.3711 614.031 75.3711C614.715 75.3711 615.312 75.5238 615.822 75.8291C616.337 76.1344 616.736 76.5765 617.018 77.1553C617.305 77.7295 617.449 78.4245 617.449 79.2402ZM611.748 79.2402C611.748 79.8418 611.827 80.3636 611.987 80.8057C612.146 81.2477 612.393 81.5895 612.725 81.8311C613.058 82.0726 613.486 82.1934 614.01 82.1934C614.53 82.1934 614.956 82.0726 615.289 81.8311C615.626 81.5895 615.874 81.2477 616.034 80.8057C616.193 80.3636 616.273 79.8418 616.273 79.2402C616.273 78.6432 616.193 78.1283 616.034 77.6953C615.874 77.2578 615.628 76.9206 615.296 76.6836C614.963 76.4466 614.532 76.3281 614.004 76.3281C613.224 76.3281 612.652 76.5856 612.288 77.1006C611.928 77.6156 611.748 78.3288 611.748 79.2402ZM621.991 82.207C622.178 82.207 622.369 82.1911 622.565 82.1592C622.761 82.1273 622.92 82.0885 623.043 82.043V82.9248C622.911 82.984 622.727 83.0342 622.49 83.0752C622.257 83.1162 622.029 83.1367 621.806 83.1367C621.41 83.1367 621.05 83.0684 620.726 82.9316C620.403 82.7904 620.143 82.5534 619.947 82.2207C619.755 81.888 619.66 81.4277 619.66 80.8398V76.3965H618.593V75.8428L619.667 75.3984L620.118 73.7715H620.801V75.5078H622.996V76.3965H620.801V80.8057C620.801 81.2751 620.908 81.626 621.123 81.8584C621.341 82.0908 621.631 82.207 621.991 82.207ZM624.55 82.2891C624.55 81.9701 624.628 81.7445 624.783 81.6123C624.938 81.4756 625.127 81.4072 625.35 81.4072C625.582 81.4072 625.778 81.4756 625.938 81.6123C626.097 81.7445 626.177 81.9701 626.177 82.2891C626.177 82.6035 626.097 82.8337 625.938 82.9795C625.778 83.1208 625.582 83.1914 625.35 83.1914C625.127 83.1914 624.938 83.1208 624.783 82.9795C624.628 82.8337 624.55 82.6035 624.55 82.2891ZM627.656 86.3633C627.424 86.3633 627.221 86.3451 627.048 86.3086C626.875 86.2767 626.724 86.238 626.597 86.1924V85.2695C626.738 85.3151 626.882 85.3493 627.028 85.3721C627.173 85.3994 627.337 85.4131 627.52 85.4131C627.83 85.4131 628.08 85.3265 628.272 85.1533C628.463 84.9801 628.559 84.6657 628.559 84.21V75.5078H629.694V84.1826C629.694 84.6383 629.621 85.028 629.475 85.3516C629.329 85.6797 629.106 85.9303 628.805 86.1035C628.504 86.2767 628.121 86.3633 627.656 86.3633ZM628.456 73.4502C628.456 73.195 628.52 73.0081 628.648 72.8896C628.78 72.7666 628.944 72.7051 629.14 72.7051C629.327 72.7051 629.486 72.7666 629.618 72.8896C629.755 73.0081 629.823 73.195 629.823 73.4502C629.823 73.7008 629.755 73.8877 629.618 74.0107C629.486 74.1338 629.327 74.1953 629.14 74.1953C628.944 74.1953 628.78 74.1338 628.648 74.0107C628.52 73.8877 628.456 73.7008 628.456 73.4502ZM635.063 75.3848C635.956 75.3848 636.619 75.5853 637.052 75.9863C637.485 76.3874 637.701 77.0277 637.701 77.9072V83H636.874L636.655 81.8926H636.601C636.391 82.166 636.172 82.3962 635.944 82.583C635.717 82.7653 635.452 82.9043 635.151 83C634.855 83.0911 634.491 83.1367 634.058 83.1367C633.602 83.1367 633.196 83.057 632.841 82.8975C632.49 82.738 632.212 82.4964 632.007 82.1729C631.806 81.8493 631.706 81.4391 631.706 80.9424C631.706 80.195 632.002 79.6208 632.595 79.2197C633.187 78.8187 634.09 78.5999 635.302 78.5635L636.594 78.5088V78.0508C636.594 77.4036 636.455 76.9502 636.177 76.6904C635.899 76.4307 635.507 76.3008 635.001 76.3008C634.609 76.3008 634.235 76.3577 633.88 76.4717C633.524 76.5856 633.187 76.7201 632.868 76.875L632.52 76.0137C632.857 75.8405 633.244 75.6924 633.682 75.5693C634.119 75.4463 634.579 75.3848 635.063 75.3848ZM636.58 79.3086L635.439 79.3564C634.504 79.3929 633.846 79.5456 633.463 79.8145C633.08 80.0833 632.889 80.4639 632.889 80.9561C632.889 81.3844 633.019 81.7012 633.278 81.9062C633.538 82.1113 633.882 82.2139 634.311 82.2139C634.976 82.2139 635.521 82.0293 635.944 81.6602C636.368 81.291 636.58 80.7373 636.58 79.999V79.3086ZM643.603 75.3711C643.754 75.3711 643.911 75.3802 644.075 75.3984C644.239 75.4121 644.385 75.4326 644.513 75.46L644.369 76.5127C644.246 76.4808 644.109 76.4557 643.959 76.4375C643.808 76.4193 643.667 76.4102 643.535 76.4102C643.234 76.4102 642.949 76.4717 642.681 76.5947C642.416 76.7132 642.184 76.8864 641.983 77.1143C641.783 77.3376 641.626 77.6087 641.512 77.9277C641.398 78.2422 641.341 78.5931 641.341 78.9805V83H640.199V75.5078H641.142L641.266 76.8887H641.313C641.468 76.6107 641.655 76.3577 641.874 76.1299C642.093 75.8975 642.346 75.7129 642.633 75.5762C642.924 75.4395 643.248 75.3711 643.603 75.3711Z" fill="white"/>
<rect x="570.5" y="68.5" width="96" height="19" rx="4.5" stroke="#00378F"/>
<rect x="467.5" y="197.5" width="72" height="19" rx="4.5" fill="#00378F"/>
<path d="M499.035 206.989C499.035 207.759 498.937 208.461 498.741 209.095C498.545 209.724 498.254 210.266 497.866 210.722C497.483 211.173 497.007 211.521 496.438 211.768C495.868 212.014 495.207 212.137 494.455 212.137C493.68 212.137 493.004 212.014 492.425 211.768C491.851 211.521 491.372 211.171 490.989 210.715C490.611 210.259 490.326 209.715 490.135 209.081C489.948 208.448 489.854 207.746 489.854 206.976C489.854 205.955 490.023 205.059 490.36 204.289C490.698 203.519 491.208 202.92 491.892 202.491C492.58 202.063 493.441 201.849 494.476 201.849C495.465 201.849 496.296 202.061 496.971 202.484C497.65 202.908 498.162 203.505 498.509 204.275C498.86 205.041 499.035 205.946 499.035 206.989ZM491.078 206.989C491.078 207.837 491.199 208.571 491.44 209.19C491.682 209.81 492.051 210.289 492.548 210.626C493.049 210.963 493.685 211.132 494.455 211.132C495.23 211.132 495.863 210.963 496.355 210.626C496.852 210.289 497.219 209.81 497.456 209.19C497.693 208.571 497.812 207.837 497.812 206.989C497.812 205.7 497.54 204.692 496.998 203.968C496.46 203.239 495.619 202.874 494.476 202.874C493.701 202.874 493.063 203.04 492.562 203.373C492.06 203.706 491.687 204.18 491.44 204.795C491.199 205.406 491.078 206.137 491.078 206.989ZM501.424 202.006H504.254C505.502 202.006 506.441 202.193 507.07 202.566C507.699 202.94 508.014 203.576 508.014 204.474C508.014 204.861 507.938 205.21 507.788 205.52C507.642 205.825 507.428 206.078 507.145 206.278C506.863 206.479 506.514 206.618 506.099 206.695V206.764C506.537 206.832 506.924 206.957 507.262 207.14C507.599 207.322 507.863 207.577 508.055 207.905C508.246 208.233 508.342 208.65 508.342 209.156C508.342 209.771 508.198 210.291 507.911 210.715C507.628 211.139 507.227 211.46 506.708 211.679C506.188 211.893 505.573 212 504.862 212H501.424V202.006ZM502.586 206.292H504.5C505.37 206.292 505.972 206.148 506.305 205.861C506.642 205.574 506.81 205.155 506.81 204.604C506.81 204.034 506.61 203.624 506.209 203.373C505.812 203.122 505.179 202.997 504.308 202.997H502.586V206.292ZM502.586 207.27V211.009H504.664C505.553 211.009 506.181 210.836 506.551 210.489C506.92 210.138 507.104 209.667 507.104 209.074C507.104 208.696 507.02 208.372 506.851 208.104C506.687 207.835 506.418 207.63 506.045 207.488C505.676 207.342 505.181 207.27 504.561 207.27H502.586ZM513.335 202.006C514.155 202.006 514.832 202.108 515.365 202.313C515.903 202.514 516.304 202.822 516.568 203.236C516.832 203.651 516.965 204.18 516.965 204.822C516.965 205.351 516.869 205.793 516.677 206.148C516.486 206.499 516.235 206.784 515.925 207.003C515.616 207.222 515.285 207.39 514.934 207.509L517.675 212H516.322L513.875 207.83H511.797V212H510.634V202.006H513.335ZM513.266 203.011H511.797V206.846H513.382C514.198 206.846 514.798 206.679 515.18 206.347C515.568 206.014 515.761 205.524 515.761 204.877C515.761 204.198 515.556 203.717 515.146 203.435C514.741 203.152 514.114 203.011 513.266 203.011Z" fill="white"/>
<rect x="467.5" y="197.5" width="72" height="19" rx="4.5" stroke="#00378F"/>
<rect x="570.5" y="148.5" width="135" height="155" rx="4.5" fill="#EBB347" stroke="#00378F"/>
<path d="M591.64 163.364H595.133V168.21C594.609 168.388 594.069 168.52 593.513 168.607C592.961 168.693 592.344 168.737 591.66 168.737C590.621 168.737 589.744 168.529 589.028 168.115C588.317 167.7 587.777 167.11 587.408 166.344C587.039 165.574 586.854 164.66 586.854 163.603C586.854 162.568 587.057 161.666 587.463 160.896C587.873 160.126 588.463 159.529 589.233 159.105C590.008 158.676 590.938 158.462 592.022 158.462C592.578 158.462 593.105 158.515 593.602 158.62C594.103 158.72 594.568 158.863 594.996 159.05L594.552 160.062C594.183 159.902 593.775 159.766 593.328 159.652C592.886 159.538 592.428 159.481 591.954 159.481C591.138 159.481 590.439 159.649 589.855 159.987C589.277 160.324 588.832 160.8 588.522 161.415C588.217 162.031 588.064 162.76 588.064 163.603C588.064 164.437 588.199 165.164 588.468 165.784C588.737 166.399 589.156 166.877 589.726 167.219C590.295 167.561 591.029 167.732 591.927 167.732C592.378 167.732 592.765 167.707 593.089 167.657C593.412 167.602 593.706 167.538 593.971 167.465V164.403H591.64V163.364ZM600.946 160.971C601.097 160.971 601.254 160.98 601.418 160.998C601.582 161.012 601.728 161.033 601.855 161.06L601.712 162.113C601.589 162.081 601.452 162.056 601.302 162.037C601.151 162.019 601.01 162.01 600.878 162.01C600.577 162.01 600.292 162.072 600.023 162.195C599.759 162.313 599.527 162.486 599.326 162.714C599.125 162.938 598.968 163.209 598.854 163.528C598.74 163.842 598.683 164.193 598.683 164.58V168.6H597.542V161.108H598.485L598.608 162.489H598.656C598.811 162.211 598.998 161.958 599.217 161.73C599.435 161.497 599.688 161.313 599.975 161.176C600.267 161.039 600.591 160.971 600.946 160.971ZM609.89 164.84C609.89 165.455 609.811 166.005 609.651 166.488C609.492 166.971 609.261 167.379 608.961 167.711C608.66 168.044 608.295 168.299 607.867 168.477C607.443 168.65 606.962 168.737 606.424 168.737C605.923 168.737 605.463 168.65 605.044 168.477C604.629 168.299 604.269 168.044 603.964 167.711C603.663 167.379 603.428 166.971 603.259 166.488C603.095 166.005 603.013 165.455 603.013 164.84C603.013 164.02 603.152 163.323 603.43 162.748C603.708 162.17 604.105 161.73 604.62 161.429C605.139 161.124 605.757 160.971 606.472 160.971C607.156 160.971 607.753 161.124 608.263 161.429C608.778 161.734 609.177 162.176 609.46 162.755C609.747 163.329 609.89 164.024 609.89 164.84ZM604.189 164.84C604.189 165.442 604.269 165.964 604.428 166.406C604.588 166.848 604.834 167.189 605.167 167.431C605.499 167.673 605.928 167.793 606.452 167.793C606.971 167.793 607.397 167.673 607.73 167.431C608.067 167.189 608.316 166.848 608.475 166.406C608.635 165.964 608.715 165.442 608.715 164.84C608.715 164.243 608.635 163.728 608.475 163.295C608.316 162.858 608.07 162.521 607.737 162.284C607.404 162.047 606.974 161.928 606.445 161.928C605.666 161.928 605.094 162.186 604.729 162.701C604.369 163.216 604.189 163.929 604.189 164.84ZM618.199 161.108V168.6H617.269L617.105 167.547H617.043C616.889 167.807 616.688 168.026 616.442 168.203C616.196 168.381 615.918 168.513 615.608 168.6C615.303 168.691 614.977 168.737 614.63 168.737C614.038 168.737 613.541 168.641 613.14 168.45C612.739 168.258 612.436 167.962 612.231 167.561C612.03 167.16 611.93 166.645 611.93 166.016V161.108H613.079V165.934C613.079 166.558 613.22 167.025 613.502 167.335C613.785 167.641 614.216 167.793 614.794 167.793C615.35 167.793 615.792 167.689 616.121 167.479C616.453 167.269 616.693 166.962 616.838 166.556C616.984 166.146 617.057 165.645 617.057 165.052V161.108H618.199ZM624.279 160.971C625.213 160.971 625.958 161.292 626.514 161.935C627.07 162.578 627.348 163.544 627.348 164.833C627.348 165.686 627.22 166.401 626.965 166.98C626.71 167.559 626.35 167.996 625.885 168.292C625.425 168.589 624.88 168.737 624.251 168.737C623.855 168.737 623.506 168.684 623.205 168.579C622.905 168.475 622.647 168.333 622.433 168.156C622.219 167.978 622.041 167.784 621.9 167.575H621.818C621.831 167.752 621.847 167.967 621.866 168.217C621.888 168.468 621.9 168.687 621.9 168.873V171.95H620.758V161.108H621.695L621.845 162.215H621.9C622.046 161.987 622.223 161.78 622.433 161.593C622.643 161.402 622.898 161.251 623.199 161.142C623.504 161.028 623.864 160.971 624.279 160.971ZM624.08 161.928C623.561 161.928 623.142 162.028 622.823 162.229C622.508 162.429 622.278 162.73 622.132 163.131C621.986 163.528 621.909 164.027 621.9 164.628V164.847C621.9 165.481 621.968 166.016 622.105 166.453C622.246 166.891 622.476 167.224 622.795 167.452C623.119 167.679 623.552 167.793 624.094 167.793C624.559 167.793 624.946 167.668 625.256 167.417C625.566 167.167 625.796 166.818 625.947 166.371C626.102 165.92 626.179 165.403 626.179 164.82C626.179 163.936 626.006 163.234 625.66 162.714C625.318 162.19 624.791 161.928 624.08 161.928ZM635.707 167.807C635.894 167.807 636.085 167.791 636.281 167.759C636.477 167.727 636.637 167.689 636.76 167.643V168.525C636.628 168.584 636.443 168.634 636.206 168.675C635.974 168.716 635.746 168.737 635.522 168.737C635.126 168.737 634.766 168.668 634.442 168.532C634.119 168.39 633.859 168.153 633.663 167.821C633.472 167.488 633.376 167.028 633.376 166.44V161.996H632.31V161.443L633.383 160.998L633.834 159.371H634.518V161.108H636.712V161.996H634.518V166.406C634.518 166.875 634.625 167.226 634.839 167.458C635.058 167.691 635.347 167.807 635.707 167.807ZM639.572 161.108V168.6H638.437V161.108H639.572ZM639.018 158.305C639.205 158.305 639.365 158.367 639.497 158.49C639.634 158.608 639.702 158.795 639.702 159.05C639.702 159.301 639.634 159.488 639.497 159.611C639.365 159.734 639.205 159.795 639.018 159.795C638.822 159.795 638.658 159.734 638.526 159.611C638.399 159.488 638.335 159.301 638.335 159.05C638.335 158.795 638.399 158.608 638.526 158.49C638.658 158.367 638.822 158.305 639.018 158.305ZM644.558 167.807C644.745 167.807 644.937 167.791 645.133 167.759C645.329 167.727 645.488 167.689 645.611 167.643V168.525C645.479 168.584 645.294 168.634 645.057 168.675C644.825 168.716 644.597 168.737 644.374 168.737C643.977 168.737 643.617 168.668 643.294 168.532C642.97 168.39 642.71 168.153 642.514 167.821C642.323 167.488 642.227 167.028 642.227 166.44V161.996H641.161V161.443L642.234 160.998L642.685 159.371H643.369V161.108H645.563V161.996H643.369V166.406C643.369 166.875 643.476 167.226 643.69 167.458C643.909 167.691 644.198 167.807 644.558 167.807ZM648.43 168.6H647.289V157.963H648.43V168.6ZM653.874 160.971C654.512 160.971 655.059 161.112 655.515 161.395C655.971 161.677 656.319 162.074 656.561 162.584C656.802 163.09 656.923 163.683 656.923 164.362V165.066H651.748C651.762 165.945 651.981 166.615 652.405 167.076C652.829 167.536 653.426 167.766 654.196 167.766C654.67 167.766 655.089 167.723 655.454 167.636C655.818 167.55 656.196 167.422 656.588 167.253V168.251C656.21 168.42 655.834 168.543 655.46 168.62C655.091 168.698 654.654 168.737 654.148 168.737C653.428 168.737 652.799 168.591 652.261 168.299C651.728 168.003 651.313 167.57 651.017 167C650.721 166.431 650.573 165.733 650.573 164.909C650.573 164.102 650.707 163.405 650.976 162.817C651.249 162.224 651.632 161.769 652.124 161.45C652.621 161.131 653.204 160.971 653.874 160.971ZM653.861 161.901C653.255 161.901 652.772 162.099 652.412 162.495C652.051 162.892 651.837 163.446 651.769 164.157H655.734C655.729 163.71 655.659 163.318 655.522 162.981C655.39 162.639 655.187 162.375 654.913 162.188C654.64 161.996 654.289 161.901 653.861 161.901Z" fill="black"/>
<path d="M575 144.1H701C703.485 144.1 705.5 146.115 705.5 148.6V183.1H570.5V148.6C570.5 146.115 572.515 144.1 575 144.1Z" fill="#DA6F5A"/>
<path d="M585.925 171.232C585.697 171.232 585.496 171.216 585.323 171.184C585.15 171.152 585.002 171.109 584.879 171.054V170.063C585.025 170.108 585.182 170.143 585.351 170.165C585.519 170.193 585.701 170.206 585.897 170.206C586.153 170.206 586.387 170.156 586.602 170.056C586.816 169.956 586.987 169.785 587.114 169.543C587.242 169.302 587.306 168.969 587.306 168.545V158.606H588.475V168.456C588.475 169.081 588.37 169.598 588.16 170.008C587.955 170.418 587.661 170.724 587.278 170.924C586.9 171.129 586.449 171.232 585.925 171.232ZM598.266 158.606L594.678 168.6H593.509L589.92 158.606H591.137L593.474 165.189C593.57 165.453 593.654 165.706 593.727 165.948C593.805 166.189 593.873 166.422 593.932 166.645C593.992 166.868 594.044 167.085 594.09 167.294C594.135 167.085 594.188 166.868 594.247 166.645C594.306 166.417 594.375 166.182 594.452 165.941C594.529 165.695 594.616 165.437 594.712 165.168L597.036 158.606H598.266ZM604.196 168.6L600.84 159.754H600.785C600.803 159.941 600.819 160.169 600.833 160.438C600.846 160.707 600.858 161.001 600.867 161.32C600.876 161.634 600.881 161.955 600.881 162.284V168.6H599.8V158.606H601.523L604.688 166.918H604.736L607.949 158.606H609.658V168.6H608.509V162.202C608.509 161.905 608.514 161.609 608.523 161.313C608.532 161.012 608.544 160.73 608.557 160.465C608.571 160.196 608.585 159.964 608.598 159.768H608.544L605.146 168.6H604.196Z" fill="white"/>
<path d="M575 144.1H701C703.485 144.1 705.5 146.115 705.5 148.6V183.1H570.5V148.6C570.5 146.115 572.515 144.1 575 144.1Z" stroke="#00378F"/>
<path d="M467 164L462 161.113V166.887L467 164ZM371 164.5H462.5V163.5H371V164.5Z" fill="black"/>
<path d="M466 207L461 204.113V209.887L466 207ZM370 207.5H461.5V206.5H370V207.5Z" fill="black"/>
<path d="M570 83L565 80.1132V85.8868L570 83ZM525 83.5L565.5 83.5V82.5L525 82.5V83.5Z" fill="black"/>
<path d="M495 110L492.233 115.067L498.005 114.93L495 110ZM496.5 151.988L495.607 114.487L494.607 114.511L495.5 152.012L496.5 151.988Z" fill="black"/>
<path d="M628 146L630.887 141L625.113 141L628 146ZM627.5 90L627.5 141.5L628.5 141.5L628.5 90L627.5 90Z" fill="black"/>
<path d="M389.834 184.189C389.361 184.189 388.936 184.271 388.557 184.436C388.182 184.596 387.861 184.83 387.596 185.139C387.334 185.443 387.133 185.812 386.992 186.246C386.852 186.68 386.781 187.168 386.781 187.711C386.781 188.43 386.893 189.055 387.115 189.586C387.342 190.113 387.678 190.521 388.123 190.811C388.572 191.1 389.133 191.244 389.805 191.244C390.188 191.244 390.547 191.213 390.883 191.15C391.223 191.084 391.553 191.002 391.873 190.904V191.771C391.561 191.889 391.232 191.975 390.889 192.029C390.545 192.088 390.137 192.117 389.664 192.117C388.793 192.117 388.064 191.938 387.479 191.578C386.896 191.215 386.459 190.703 386.166 190.043C385.877 189.383 385.732 188.604 385.732 187.705C385.732 187.057 385.822 186.465 386.002 185.93C386.186 185.391 386.451 184.926 386.799 184.535C387.15 184.145 387.58 183.844 388.088 183.633C388.6 183.418 389.186 183.311 389.846 183.311C390.279 183.311 390.697 183.354 391.1 183.439C391.502 183.525 391.865 183.648 392.189 183.809L391.791 184.652C391.518 184.527 391.217 184.42 390.889 184.33C390.564 184.236 390.213 184.189 389.834 184.189ZM399.281 188.777C399.281 189.305 399.213 189.775 399.076 190.189C398.939 190.604 398.742 190.953 398.484 191.238C398.226 191.523 397.914 191.742 397.547 191.895C397.183 192.043 396.771 192.117 396.31 192.117C395.881 192.117 395.486 192.043 395.127 191.895C394.771 191.742 394.463 191.523 394.201 191.238C393.943 190.953 393.742 190.604 393.597 190.189C393.457 189.775 393.387 189.305 393.387 188.777C393.387 188.074 393.506 187.477 393.744 186.984C393.982 186.488 394.322 186.111 394.764 185.854C395.209 185.592 395.738 185.461 396.351 185.461C396.937 185.461 397.449 185.592 397.887 185.854C398.328 186.115 398.67 186.494 398.912 186.99C399.158 187.482 399.281 188.078 399.281 188.777ZM394.394 188.777C394.394 189.293 394.463 189.74 394.599 190.119C394.736 190.498 394.947 190.791 395.232 190.998C395.517 191.205 395.885 191.309 396.334 191.309C396.779 191.309 397.144 191.205 397.43 190.998C397.719 190.791 397.931 190.498 398.068 190.119C398.205 189.74 398.273 189.293 398.273 188.777C398.273 188.266 398.205 187.824 398.068 187.453C397.931 187.078 397.721 186.789 397.435 186.586C397.15 186.383 396.781 186.281 396.328 186.281C395.66 186.281 395.17 186.502 394.857 186.943C394.549 187.385 394.394 187.996 394.394 188.777ZM408.095 185.461C408.802 185.461 409.336 185.646 409.695 186.018C410.054 186.385 410.234 186.977 410.234 187.793V192H409.273V187.84C409.273 187.32 409.16 186.932 408.933 186.674C408.711 186.412 408.379 186.281 407.937 186.281C407.316 186.281 406.865 186.461 406.584 186.82C406.302 187.18 406.162 187.709 406.162 188.408V192H405.195V187.84C405.195 187.492 405.144 187.203 405.043 186.973C404.945 186.742 404.797 186.57 404.597 186.457C404.402 186.34 404.154 186.281 403.853 186.281C403.427 186.281 403.086 186.369 402.828 186.545C402.57 186.721 402.382 186.982 402.265 187.33C402.152 187.674 402.095 188.098 402.095 188.602V192H401.123V185.578H401.908L402.054 186.486H402.107C402.236 186.264 402.398 186.076 402.593 185.924C402.789 185.771 403.007 185.656 403.25 185.578C403.492 185.5 403.75 185.461 404.023 185.461C404.511 185.461 404.92 185.553 405.248 185.736C405.58 185.916 405.82 186.191 405.968 186.562H406.021C406.232 186.191 406.521 185.916 406.888 185.736C407.256 185.553 407.658 185.461 408.095 185.461ZM415.41 185.461C416.21 185.461 416.849 185.736 417.326 186.287C417.802 186.838 418.041 187.666 418.041 188.771C418.041 189.502 417.931 190.115 417.712 190.611C417.494 191.107 417.185 191.482 416.787 191.736C416.392 191.99 415.925 192.117 415.386 192.117C415.046 192.117 414.748 192.072 414.49 191.982C414.232 191.893 414.011 191.771 413.828 191.619C413.644 191.467 413.492 191.301 413.371 191.121H413.3C413.312 191.273 413.326 191.457 413.341 191.672C413.361 191.887 413.371 192.074 413.371 192.234V194.871H412.392V185.578H413.195L413.324 186.527H413.371C413.496 186.332 413.648 186.154 413.828 185.994C414.007 185.83 414.226 185.701 414.484 185.607C414.746 185.51 415.054 185.461 415.41 185.461ZM415.24 186.281C414.794 186.281 414.435 186.367 414.162 186.539C413.892 186.711 413.695 186.969 413.57 187.312C413.445 187.652 413.378 188.08 413.371 188.596V188.783C413.371 189.326 413.429 189.785 413.546 190.16C413.667 190.535 413.865 190.82 414.138 191.016C414.416 191.211 414.787 191.309 415.251 191.309C415.65 191.309 415.982 191.201 416.248 190.986C416.513 190.771 416.71 190.473 416.839 190.09C416.972 189.703 417.039 189.26 417.039 188.76C417.039 188.002 416.89 187.4 416.593 186.955C416.3 186.506 415.849 186.281 415.24 186.281ZM420.872 185.578V192H419.9V185.578H420.872ZM420.398 183.176C420.558 183.176 420.695 183.229 420.808 183.334C420.925 183.436 420.984 183.596 420.984 183.814C420.984 184.029 420.925 184.189 420.808 184.295C420.695 184.4 420.558 184.453 420.398 184.453C420.23 184.453 420.089 184.4 419.976 184.295C419.867 184.189 419.812 184.029 419.812 183.814C419.812 183.596 419.867 183.436 419.976 183.334C420.089 183.229 420.23 183.176 420.398 183.176ZM424.073 192H423.095V182.883H424.073V192ZM428.763 185.461C429.31 185.461 429.778 185.582 430.169 185.824C430.56 186.066 430.858 186.406 431.065 186.844C431.272 187.277 431.376 187.785 431.376 188.367V188.971H426.94C426.952 189.725 427.14 190.299 427.503 190.693C427.866 191.088 428.378 191.285 429.038 191.285C429.444 191.285 429.804 191.248 430.116 191.174C430.429 191.1 430.753 190.99 431.089 190.846V191.701C430.765 191.846 430.442 191.951 430.122 192.018C429.806 192.084 429.431 192.117 428.997 192.117C428.38 192.117 427.841 191.992 427.38 191.742C426.923 191.488 426.567 191.117 426.314 190.629C426.06 190.141 425.933 189.543 425.933 188.836C425.933 188.145 426.048 187.547 426.278 187.043C426.513 186.535 426.841 186.145 427.263 185.871C427.689 185.598 428.189 185.461 428.763 185.461ZM428.751 186.258C428.231 186.258 427.817 186.428 427.509 186.768C427.2 187.107 427.017 187.582 426.958 188.191H430.356C430.353 187.809 430.292 187.473 430.175 187.184C430.062 186.891 429.888 186.664 429.653 186.504C429.419 186.34 429.118 186.258 428.751 186.258Z" fill="black"/>
</svg>
