<svg xml:space="preserve" style="enable-background:new 0 0 730 560" viewBox="0 0 730 560" xmlns="http://www.w3.org/2000/svg">
  <style>
    .galasa-ecosystem-architecture_svg__st0{fill:#fff}.galasa-ecosystem-architecture_svg__st1,.galasa-ecosystem-architecture_svg__st2,.galasa-ecosystem-architecture_svg__st3{fill:none;stroke:#000;stroke-miterlimit:10}.galasa-ecosystem-architecture_svg__st2{stroke-dasharray:.9959,3.9836}.galasa-ecosystem-architecture_svg__st3{stroke-dasharray:.9964,3.9857}.galasa-ecosystem-architecture_svg__st6{fill:#161616}.galasa-ecosystem-architecture_svg__st44{fill:#f8f68f}.galasa-ecosystem-architecture_svg__st46{fill:#efa284}.galasa-ecosystem-architecture_svg__st50,.galasa-ecosystem-architecture_svg__st51{fill:none;stroke:#000;stroke-miterlimit:10;stroke-dasharray:.9956,3.9826}.galasa-ecosystem-architecture_svg__st51{stroke-dasharray:1.002,4.0081}
  </style>
  <g id="galasa-ecosystem-architecture_svg__images_1_">
    <path d="M1 1h488v558H1z" class="galasa-ecosystem-architecture_svg__st0"/>
    <path d="M489 558.5v.5h-.5" class="galasa-ecosystem-architecture_svg__st1"/>
    <path d="M484.5 559H3.5" class="galasa-ecosystem-architecture_svg__st2"/>
    <path d="M1.5 559H1v-.5" class="galasa-ecosystem-architecture_svg__st1"/>
    <path d="M1 554.5V3.5" class="galasa-ecosystem-architecture_svg__st3"/>
    <path d="M1 1.5V1h.5" class="galasa-ecosystem-architecture_svg__st1"/>
    <path d="M5.5 1h481" class="galasa-ecosystem-architecture_svg__st2"/>
    <path d="M488.5 1h.5v.5" class="galasa-ecosystem-architecture_svg__st1"/>
    <path d="M489 5.5v551" class="galasa-ecosystem-architecture_svg__st3"/>
    <path d="M16 48h458v496H16z" style="fill:#f8f8f8"/>
    <path d="M474 48.5V48h-.5" class="galasa-ecosystem-architecture_svg__st1"/>
    <path d="M469.5 48h-451" class="galasa-ecosystem-architecture_svg__st50"/>
    <path d="M16.5 48H16v.5" class="galasa-ecosystem-architecture_svg__st1"/>
    <path d="M16 52.5v489" class="galasa-ecosystem-architecture_svg__st51"/>
    <path d="M16 543.5v.5h.5" class="galasa-ecosystem-architecture_svg__st1"/>
    <path d="M20.5 544h451" class="galasa-ecosystem-architecture_svg__st50"/>
    <path d="M473.5 544h.5v-.5" class="galasa-ecosystem-architecture_svg__st1"/>
    <path d="M474 539.5v-489" class="galasa-ecosystem-architecture_svg__st51"/>
    <path d="M248.5 400.5h159v23h-159z" class="galasa-ecosystem-architecture_svg__st46"/>
    <path d="M407 401v22H249v-22h158m1-1H248v24h160v-24z"/>
    <path d="M248.5 423.5h159v88h-159z" class="galasa-ecosystem-architecture_svg__st0"/>
    <path d="M407 424v87H249v-87h158m.9-1H248.1s-.1 0-.1.1V512h160l-.1-89c.1 0 .1 0 0 0z"/>
    <path d="M232.5 368.5h159v23h-159z" class="galasa-ecosystem-architecture_svg__st46"/>
    <path d="M391 369v22H233v-22h158m1-1H232v24h160v-24z"/>
    <path d="M232.5 391.5h159v88h-159z" class="galasa-ecosystem-architecture_svg__st0"/>
    <path d="M391 392v87H233v-87h158m.9-1H232.1s-.1 0-.1.1V480h160l-.1-89c.1 0 .1 0 0 0z"/>
    <path d="M216.5 336.5h159v23h-159z" class="galasa-ecosystem-architecture_svg__st46"/>
    <path d="M375 337v22H217v-22h158m1-1H216v24h160v-24z"/>
    <path d="M216.5 358.5h159v89h-159z" class="galasa-ecosystem-architecture_svg__st0"/>
    <path d="M375 359v88H217v-88h158m.9-1H216.1s-.1 0-.1.1V448h160l-.1-90c.1 0 .1 0 0 0z"/>
    <path d="M200.5 304.5h159v23h-159z" class="galasa-ecosystem-architecture_svg__st46"/>
    <path d="M359 305v22H201v-22h158m1-1H200v24h160v-24z"/>
    <path d="M200.5 327.5h159v88h-159z" class="galasa-ecosystem-architecture_svg__st0"/>
    <path d="M359 328v87H201v-87h158m1-1H200v89h160v-89z"/>
    <path d="M522.5 144.5h95v87h-95z" class="galasa-ecosystem-architecture_svg__st0"/>
    <path d="M617 145v86h-94v-86h94m1-1h-96v88h96v-88z"/>
    <path d="M32.5 431.5h127v64h-127z" class="galasa-ecosystem-architecture_svg__st0"/>
    <path d="M159 432v63H33v-63h126m1-1H32v65h128v-65z"/>
    <path d="M32.5 408.5h127v23h-127z" class="galasa-ecosystem-architecture_svg__st44"/>
    <path d="M159 409v22H33v-22h126m1-1H32v24h128v-24z"/>
    <path d="M32.5 327.5h127v64h-127z" class="galasa-ecosystem-architecture_svg__st0"/>
    <path d="M159 328v63H33v-63h126m.9-1H32.1c-.1 0-.1.1-.1.1V392h128v-64.9l-.1-.1z"/>
    <path d="M32.5 304.5h127v23h-127z" class="galasa-ecosystem-architecture_svg__st44"/>
    <path d="M159 305v22H33v-22h126m1-1H32v24h128v-24z"/>
    <path d="M32.5 223.5h127v64h-127z" class="galasa-ecosystem-architecture_svg__st0"/>
    <path d="M159 224v63H33v-63h126m.9-1H32.1c-.1 0-.1.1-.1.1V288h128v-64.9l-.1-.1z"/>
    <path d="M32.5 200.5h127v23h-127z" class="galasa-ecosystem-architecture_svg__st44"/>
    <path d="M159 201v22H33v-22h126m1-1H32v24h128v-24z"/>
    <path d="M200.5 223.5h135v64h-135z" class="galasa-ecosystem-architecture_svg__st0"/>
    <path d="M335 224v63H201v-63h134m1-1H200v65h136v-65z"/>
    <path d="M278.5 264v-8h-10v-8h3.5v-6h-8v6h3.5v8h-10v8H254v6h8v-6h-3.5v-7h9v7H264v6h8v-6h-3.5v-7h9v7H274v6h8v-6h-3.5zM265 247v-4h6v4h-6zm-4 18v4h-6v-4h6zm10 0v4h-6v-4h6zm10 4h-6v-4h6v4z" class="galasa-ecosystem-architecture_svg__st6"/>
    <path d="M200.5 200.5h135v23h-135z" class="galasa-ecosystem-architecture_svg__st44"/>
    <path d="M335 201v22H201v-22h134m1-1H200v24h136v-24z"/>
    <path d="M32.5 119.5h127v64h-127z" class="galasa-ecosystem-architecture_svg__st0"/>
    <path d="M159 120v63H33v-63h126m1-1H32v65h128v-65z"/>
    <path d="M82 141v5h2v17h24v-17h2v-5H82zm25 21H85v-16h22v16zm2-17H83v-3h26v3zm-9 4h-8v4h8v-4zm-1 3h-6v-2h6v2z" class="galasa-ecosystem-architecture_svg__st6"/>
    <path d="M32.5 96.5h127v23h-127z" class="galasa-ecosystem-architecture_svg__st44"/>
    <path d="M159 97v22H33V97h126m1-1H32v24h128V96z"/>
    <path d="M634.5 144.5h95v87h-95z" class="galasa-ecosystem-architecture_svg__st0"/>
    <path d="M729 145v86h-94v-86h94m1-1h-96v88h96v-88z"/>
    <path d="M522.5 248.5h95v87h-95z" class="galasa-ecosystem-architecture_svg__st0"/>
    <path d="M617 249v86h-94v-86h94m1-1h-96v88h96v-88z"/>
    <path d="M634.5 248.5h95v87h-95z" class="galasa-ecosystem-architecture_svg__st0"/>
    <path d="M729 249v86h-94v-86h94m1-1h-96v88h96v-88z"/>
    <path d="M522.5 352.5h95v87h-95z" class="galasa-ecosystem-architecture_svg__st0"/>
    <path d="M617 353v86h-94v-86h94m1-1h-96v88h96v-88z"/>
    <path d="M634.5 352.5h95v87h-95z" class="galasa-ecosystem-architecture_svg__st0"/>
    <path d="M729 353v86h-94v-86h94m1-1h-96v88h96v-88z"/>
    <path d="M505 127h33v1h-33zM346 315.5h160v1H346zM505 456h33v1h-33z" class="galasa-ecosystem-architecture_svg__st6"/>
    <path d="M505 127.8h1v329h-1zM93.1 469.9c-.7 0-1.4.2-2.1.5-2.5 1.2-3.6 4.2-2.4 6.7.8 1.8 2.6 2.9 4.5 2.9.7 0 1.4-.2 2.1-.5 2.5-1.2 3.6-4.2 2.4-6.7-.8-1.9-2.6-2.9-4.5-2.9zm3.8 6.4c-.4 1-1.1 1.8-2.1 2.3-.5.3-1.1.4-1.7.4-1.5 0-3-.9-3.6-2.3-.4-1-.5-2.1-.1-3.1s1.1-1.8 2.1-2.3c.5-.3 1.1-.4 1.7-.4 1.5 0 3 .9 3.6 2.3.4 1 .4 2.1.1 3.1z" class="galasa-ecosystem-architecture_svg__st6"/>
    <path d="M93.1 472.9c-.3 0-.6.1-.8.2-1 .5-1.4 1.7-1 2.7.3.7 1.1 1.2 1.8 1.2.3 0 .6-.1.8-.2 1-.5 1.4-1.7 1-2.7-.3-.8-1-1.2-1.8-1.2zm.5 3c-.1.1-.3.1-.4.1-.4 0-.7-.2-.9-.6-.2-.5 0-1.1.5-1.3.1-.1.3-.1.4-.1.4 0 .7.2.9.6.2.4 0 1-.5 1.3zm11.2-21L94 460l4.2 9.2L109 464l-4.2-9.1zm-9.5 5.6 9-4.3 3.4 7.3-9 4.3-3.4-7.3zM99 471l.4.9 5.5-2.5-.5-1zm-4.8-3.3.9-.4-6.3-13.8-.4-.9-2.1-4.6-.9.4 2.1 4.6-4.5 2.2.4.9 4.5-2.2zm166.7-93.9 6-6c.2-.2.2-.5 0-.7-.2-.2-.5-.2-.7 0l-5.2 5.2v-.5c0-10.8 8.8-19.5 19.5-19.5 8.6 0 16.3 5.8 18.8 14 .1.3.4.4.6.3.3-.1.4-.4.3-.6-2.5-8.7-10.7-14.7-19.7-14.7-11.3 0-20.5 9.2-20.5 20.5v.4l-5.1-5.1c-.2-.2-.5-.2-.7 0-.2.2-.2.5 0 .7l6 6c.1.1.2.1.4.1s.2 0 .3-.1zm46 1.3-6-6c-.2-.2-.5-.2-.7 0l-6 6c-.2.2-.2.5 0 .7.2.2.5.2.7 0l5.1-5.1v1.1c0 10.8-8.8 19.5-19.5 19.5-9.1 0-17-6.2-19-15.1-.1-.3-.3-.4-.6-.4-.3.1-.4.3-.4.6 2.2 9.3 10.4 15.8 20 15.8 11.3 0 20.5-9.2 20.5-20.5 0-.4 0-.8-.1-1.2l5.2 5.2c.1.1.2.1.4.1s.3 0 .4-.1c.1-.1.1-.4 0-.6zm-213.2-129-4.7-4h-7.5v21h11.8c0-.2-.1-.5-.1-.7 0 1.2.4 2.3 1.1 3.1l-3.8 3.8.7.7 3.8-3.8c.9.7 2 1.2 3.2 1.2 2.8 0 5.1-2.3 5.1-5.1 0 .3 0 .5-.1.7h6.2v-17H93.7zm4.7 20.3c-2.2 0-4.1-1.8-4.1-4.1s1.8-4.1 4.1-4.1 4.1 1.8 4.1 4.1-1.9 4.1-4.1 4.1zm10.2-4.3h-5.2c-.1-2.7-2.3-4.8-5-4.8s-4.9 2.1-5 4.8H82.6v-19h6.1l4.4 3.8.3.2h15.3v15zm-16 92.9h-5c-2.8 0-5 2.2-5 5s2.2 5 5 5h5v-2h3v-1h-3v-4h3v-1h-3v-2zm-1 9h-4c-2.2 0-4-1.8-4-4s1.8-4 4-4h4v8zm12.8-9h-5v10h5c2.8 0 5-2.2 5-5s-2.2-5-5-5zm0 9h-4v-8h4c2.2 0 4 1.8 4 4s-1.8 4-4 4z" class="galasa-ecosystem-architecture_svg__st6"/>
  </g>
  <g id="galasa-ecosystem-architecture_svg__text">
    <path d="M37.9 75.8c-1 0-1.9-.2-2.6-.7-.7-.4-1.3-1.1-1.7-1.9s-.6-1.7-.6-2.9c0-1.1.2-2.1.6-2.9.4-.8 1-1.4 1.8-1.9.8-.4 1.7-.7 2.7-.7 1.1 0 2 .2 2.7.6.7.4 1.2 1 1.6 1.9l-1.6.8c-.2-.6-.5-1-1-1.3-.5-.3-1-.4-1.7-.4s-1.2.2-1.7.5-.9.8-1.2 1.4-.4 1.3-.4 2.1.1 1.6.4 2.2c.2.6.6 1 1.1 1.4s1.1.5 1.8.5c.4 0 .8-.1 1.1-.2.3-.1.6-.3.9-.4.3-.2.5-.4.6-.8.1-.3.2-.7.2-1.1v-.3h-3.1v-1.4h4.6v5.4h-1.3l-.1-2.2.3.2c-.3.7-.7 1.2-1.3 1.6s-1.2.5-2.1.5zm11.6-5.3c0-.5-.1-.9-.4-1.2-.3-.3-.7-.4-1.2-.4s-.9.1-1.2.3c-.3.2-.6.6-.8 1.1l-1.4-.6c.2-.7.6-1.2 1.2-1.6s1.4-.6 2.3-.6c.6 0 1.2.1 1.7.3.5.2.9.5 1.2.9.3.4.4.9.4 1.6v3.6c0 .4.2.6.6.6.2 0 .4 0 .6-.1l-.1 1.2c-.2.1-.6.2-.9.2-.3 0-.6-.1-.9-.2-.3-.1-.5-.3-.6-.6-.2-.3-.2-.6-.2-.9V74h.4c-.1.4-.3.8-.6 1s-.6.5-1 .6-.8.2-1.2.2c-.5 0-1-.1-1.4-.2-.4-.2-.7-.4-.9-.7-.2-.3-.3-.7-.3-1.2 0-.6.2-1.1.6-1.5.4-.4.9-.6 1.7-.8l3.1-.6V72l-2.3.5c-.4.1-.8.2-1 .4-.2.2-.3.4-.3.7 0 .3.1.5.3.7.2.2.5.3.9.3.3 0 .5 0 .8-.1s.5-.2.7-.3c.2-.1.4-.3.5-.6.1-.2.2-.5.2-.8v-2.3zm6.2-6.5v9.4c0 .4.1.7.2.8s.4.2.7.2h.5c.1 0 .3-.1.5-.2l-.2 1.3c-.2.1-.4.2-.6.2-.2 0-.5.1-.7.1-.7 0-1.2-.2-1.6-.6-.3-.4-.5-.9-.5-1.7V64h1.7zm8 6.5c0-.5-.1-.9-.4-1.2-.3-.3-.7-.4-1.2-.4s-.9.1-1.2.3c-.3.2-.6.6-.8 1.1l-1.4-.6c.2-.7.6-1.2 1.2-1.6s1.4-.6 2.3-.6c.6 0 1.2.1 1.7.3.5.2.9.5 1.2.9.3.4.4.9.4 1.6v3.6c0 .4.2.6.6.6.2 0 .4 0 .6-.1l-.1 1.2c-.2.1-.6.2-.9.2-.3 0-.6-.1-.9-.2-.3-.1-.5-.3-.6-.6-.2-.3-.2-.6-.2-.9V74h.4c-.1.4-.3.8-.6 1s-.6.5-1 .6-.8.2-1.2.2c-.5 0-1-.1-1.4-.2-.4-.2-.7-.4-.9-.7-.2-.3-.3-.7-.3-1.2 0-.6.2-1.1.6-1.5.4-.4.9-.6 1.7-.8l3.1-.6V72l-2.3.5c-.4.1-.8.2-1 .4-.2.2-.3.4-.3.7 0 .3.1.5.3.7.2.2.5.3.9.3.3 0 .5 0 .8-.1s.5-.2.7-.3c.2-.1.4-.3.5-.6.1-.2.2-.5.2-.8v-2.3zm7.5 5.3c-.8 0-1.5-.2-2.2-.5-.7-.3-1.2-.7-1.6-1.3l1.2-1c.2.4.6.8 1 1 .4.3 1 .4 1.6.4.5 0 .9-.1 1.2-.3.3-.2.4-.4.4-.7 0-.2-.1-.4-.2-.5s-.4-.3-.8-.4l-1.7-.4c-.9-.2-1.5-.4-1.8-.8-.4-.4-.5-.9-.5-1.4 0-.4.1-.8.4-1.2.3-.4.6-.7 1.1-.9s1.1-.3 1.8-.3c.8 0 1.5.1 2 .4s1 .7 1.3 1.2l-1.2 1c-.2-.4-.5-.7-.9-1s-.8-.3-1.2-.3c-.3 0-.6 0-.9.1-.2.1-.4.2-.6.4s-.2.3-.2.5.1.4.2.6.4.3.9.4l1.8.4c.8.1 1.3.4 1.6.8.3.4.5.8.5 1.3s-.1 1-.4 1.4c-.3.4-.7.7-1.2.9-.3.1-.9.2-1.6.2zm10.1-5.3c0-.5-.1-.9-.4-1.2-.3-.3-.7-.4-1.2-.4s-.9.1-1.2.3c-.3.2-.6.6-.8 1.1l-1.4-.6c.2-.7.6-1.2 1.2-1.6s1.4-.6 2.3-.6c.6 0 1.2.1 1.7.3.5.2.9.5 1.2.9.3.4.4.9.4 1.6v3.6c0 .4.2.6.6.6.2 0 .4 0 .6-.1l-.3 1.2c-.2.1-.6.2-.9.2-.3 0-.6-.1-.9-.2-.3-.1-.5-.3-.6-.6-.2-.3-.2-.6-.2-.9V74h.4c-.1.4-.3.8-.6 1s-.6.5-1 .6-.8.2-1.2.2c-.5 0-1-.1-1.4-.2-.4-.2-.7-.4-.9-.7-.2-.3-.3-.7-.3-1.2 0-.6.2-1.1.6-1.5.4-.4.9-.6 1.7-.8l3.1-.6V72l-2.3.5c-.4.1-.8.2-1 .4-.2.2-.3.4-.3.7 0 .3.1.5.3.7.2.2.5.3.9.3.3 0 .5 0 .8-.1s.5-.2.7-.3c.2-.1.4-.3.5-.6.1-.2.2-.5.2-.8v-2.3zm12.9 5.3c-.8 0-1.5-.2-2.1-.5-.6-.3-1.1-.8-1.4-1.4a5.09 5.09 0 0 1 0-4.4c.3-.6.8-1.1 1.4-1.4.6-.3 1.3-.5 2-.5.8 0 1.4.2 2 .5.5.3 1 .8 1.2 1.3.3.6.4 1.2.4 1.9v.9h-6.4v-1.3H97l-.8.3c0-.7-.2-1.3-.5-1.7-.4-.4-.9-.6-1.5-.6-.5 0-.9.1-1.2.3-.3.2-.6.5-.8 1-.2.4-.3.9-.3 1.5s.1 1.1.3 1.5.5.7.8.9c.4.2.8.3 1.2.3.5 0 1-.1 1.3-.3.3-.2.6-.5.8-.8l1.4.6c-.2.4-.5.7-.8 1-.3.3-.7.5-1.2.6-.5.2-1 .3-1.5.3zm9.2-8.4c.6 0 1.2.1 1.6.3s.8.5 1.1.8c.3.3.5.7.7 1.2l-1.6.6c-.1-.5-.4-.9-.7-1.1-.3-.3-.7-.4-1.2-.4s-.9.1-1.2.3c-.3.2-.6.5-.8 1s-.3.9-.3 1.5.1 1.1.3 1.5.4.7.8.9c.3.2.7.3 1.2.3.4 0 .7-.1.9-.2s.5-.3.7-.5c.2-.2.3-.5.4-.8l1.6.5c-.1.5-.4.9-.7 1.3s-.7.6-1.2.8c-.5.2-1 .3-1.6.3-.8 0-1.5-.2-2.1-.5-.6-.3-1.1-.8-1.4-1.4s-.5-1.4-.5-2.2.2-1.6.5-2.2.8-1.1 1.4-1.4c.6-.4 1.3-.6 2.1-.6zm9 0c.8 0 1.5.2 2.1.5.6.3 1.1.8 1.4 1.4s.5 1.4.5 2.2-.2 1.6-.5 2.2-.8 1.1-1.4 1.4c-.6.3-1.3.5-2.1.5s-1.5-.2-2.1-.5c-.6-.3-1.1-.8-1.4-1.4a5.09 5.09 0 0 1 0-4.4c.3-.6.8-1.1 1.4-1.4.6-.3 1.3-.5 2.1-.5zm0 1.4c-.5 0-.9.1-1.2.3s-.6.5-.8 1-.3.9-.3 1.5.1 1.1.3 1.5c.2.4.4.7.8 1 .3.2.7.3 1.2.3s.9-.1 1.2-.3c.3-.2.6-.5.8-1 .2-.4.3-.9.3-1.5s-.1-1.1-.3-1.5c-.2-.4-.4-.7-.8-1-.3-.2-.8-.3-1.2-.3zm9.1 7c-.8 0-1.5-.2-2.2-.5-.7-.3-1.2-.7-1.6-1.3l1.2-1c.2.4.6.8 1 1 .4.3 1 .4 1.6.4.5 0 .9-.1 1.2-.3.3-.2.4-.4.4-.7 0-.2-.1-.4-.2-.5s-.4-.3-.8-.4l-1.7-.4c-.9-.2-1.5-.4-1.8-.8-.4-.4-.5-.9-.5-1.4 0-.4.1-.8.4-1.2.3-.4.6-.7 1.1-.9s1.1-.3 1.8-.3c.8 0 1.5.1 2 .4s1 .7 1.3 1.2l-1.2 1c-.2-.4-.5-.7-.9-1s-.8-.3-1.2-.3c-.3 0-.6 0-.9.1-.2.1-.4.2-.6.4s-.2.3-.2.5.1.4.2.6.4.3.9.4l1.8.4c.8.1 1.3.4 1.6.8.3.4.5.8.5 1.3s-.1 1-.4 1.4c-.3.4-.7.7-1.2.9-.3.1-.9.2-1.6.2zm12.1-8.2-3.5 8.9c-.2.6-.5 1.1-.8 1.5-.3.4-.6.6-.9.8-.4.2-.8.2-1.2.2-.4 0-.7-.1-1.1-.2-.3-.1-.6-.2-.9-.4l.4-1.3c.2.2.4.3.6.4.2.1.5.1.7.1.3 0 .5-.1.8-.2.2-.2.4-.5.6-.9l.4-.9-.8-2-2.5-6.1h1.9l1.8 5 .5 1.5.5-1.6 1.7-4.9h1.8zm4.3 8.2c-.8 0-1.5-.2-2.2-.5-.7-.3-1.2-.7-1.6-1.3l1.2-1c.2.4.6.8 1 1 .4.3 1 .4 1.6.4.5 0 .9-.1 1.2-.3.3-.2.4-.4.4-.7 0-.2-.1-.4-.2-.5-.1-.2-.4-.3-.8-.4l-1.7-.4c-.9-.2-1.5-.4-1.8-.8-.4-.4-.5-.9-.5-1.4 0-.4.1-.8.4-1.2.3-.4.6-.7 1.1-.9s1.1-.3 1.8-.3c.8 0 1.5.1 2 .4s1 .7 1.3 1.2l-1.2 1c-.2-.4-.5-.7-.9-1s-.8-.3-1.2-.3c-.3 0-.6 0-.9.1-.2.1-.4.2-.6.4s-.2.3-.2.5.1.4.2.6.4.3.9.4l1.8.4c.8.1 1.3.4 1.6.8.3.4.5.8.5 1.3s-.1 1-.4 1.4c-.3.4-.7.7-1.2.9-.3.1-.9.2-1.6.2zm10.5-8.2v1.3h-6v-1.3h6zm-2.8-2.4v8c0 .4.1.7.3.9.2.2.5.3.8.3.3 0 .5 0 .8-.1.2-.1.4-.2.6-.4l.4 1.2c-.2.2-.5.4-.9.5s-.8.2-1.2.2c-.5 0-.9-.1-1.3-.2s-.7-.4-.9-.7c-.2-.3-.3-.8-.3-1.3v-7.8l1.7-.6zm8 10.6c-.8 0-1.5-.2-2.1-.5-.6-.3-1.1-.8-1.4-1.4s-.5-1.4-.5-2.2.2-1.6.5-2.2.8-1.1 1.4-1.4c.6-.3 1.3-.5 2-.5.8 0 1.4.2 2 .5.5.3 1 .8 1.2 1.3.3.6.4 1.2.4 1.9v.9h-6.4v-1.3h5.7l-.8.3c0-.7-.2-1.3-.5-1.7-.4-.4-.9-.6-1.5-.6-.5 0-.9.1-1.2.3-.3.2-.6.5-.8 1-.2.4-.3.9-.3 1.5s.1 1.1.3 1.5.5.7.8.9c.4.2.8.3 1.2.3.5 0 1-.1 1.3-.3.3-.2.6-.5.8-.8l1.4.6c-.2.4-.5.7-.8 1-.3.3-.7.5-1.2.6-.5.2-.9.3-1.5.3zm5.7-.2v-8h1.5l.1 1.3c.3-.5.6-.9 1.1-1.1.5-.2 1-.4 1.5-.4.6 0 1.1.1 1.6.4.5.3.9.7 1.1 1.2.2-.4.4-.6.7-.9.3-.2.6-.4 1-.5.4-.1.7-.2 1.1-.2.5 0 1 .1 1.4.3s.8.5 1.1 1 .4 1 .4 1.7v5.2h-1.7v-4.9c0-.7-.2-1.1-.5-1.4-.3-.3-.7-.4-1.2-.4-.4 0-.7.1-1 .3-.3.2-.6.5-.8.8-.2.4-.3.8-.3 1.3v4.4h-1.7v-4.9c0-.7-.2-1.1-.5-1.4-.3-.3-.7-.4-1.2-.4-.3 0-.6.1-1 .3-.3.2-.6.4-.8.8-.2.4-.3.8-.3 1.4v4.3h-1.6z" class="galasa-ecosystem-architecture_svg__st6"/>
    <path d="M19.3 17v10.6h-1.7V17h1.7zm6.9 0-4.7 5.1h-.2L18.6 25l-.2-1.9 5.7-6.2h2.1zm-4.3 3.8 4.4 6.8h-2l-3.8-5.8 1.4-1zm8.6 7c-.5 0-1-.1-1.4-.3-.4-.2-.8-.5-1.1-.9-.3-.4-.4-1-.4-1.7v-5.3h1.7v4.8c0 .7.2 1.2.5 1.5.3.3.7.4 1.3.4.3 0 .5 0 .8-.1.3-.1.5-.2.7-.4.2-.2.4-.5.5-.8.1-.3.2-.7.2-1.1v-4.3H35v8h-1.5l-.1-1.3c-.3.5-.7.9-1.1 1.1s-1.1.4-1.8.4zm11.3 0c-.5 0-.9-.1-1.3-.3-.4-.2-.7-.4-1-.8-.3-.3-.5-.7-.6-1.1l.2-.3-.1 2.2h-1.5V16h1.7v5.6l-.2-.3c.2-.6.5-1 1-1.4.5-.4 1.1-.5 1.8-.5.6 0 1.2.2 1.8.5.5.3 1 .8 1.3 1.4.3.6.5 1.4.5 2.3 0 .9-.2 1.6-.5 2.2-.3.6-.7 1.1-1.3 1.4-.5.4-1.1.6-1.8.6zm-.3-1.4c.7 0 1.2-.2 1.6-.7s.6-1.2.6-2-.2-1.5-.6-2c-.4-.5-.9-.7-1.6-.7-.4 0-.8.1-1.2.3-.3.2-.6.6-.8 1-.2.4-.3.9-.3 1.5s.1 1.1.3 1.5c.2.4.4.7.8 1 .3 0 .7.1 1.2.1zm9.6 1.4c-.8 0-1.5-.2-2.1-.5-.6-.3-1.1-.8-1.4-1.4s-.5-1.4-.5-2.2.2-1.6.5-2.2.8-1.1 1.4-1.4c.6-.3 1.3-.5 2-.5.8 0 1.4.2 2 .5.5.3 1 .8 1.2 1.3.3.6.4 1.2.4 1.9v.9h-6.4v-1.3h5.7l-.9.2c0-.7-.2-1.3-.5-1.7-.4-.4-.9-.6-1.5-.6-.5 0-.9.1-1.2.3-.3.2-.6.5-.8 1-.2.4-.3.9-.3 1.5s.1 1.1.3 1.5.5.7.8.9c.4.2.8.3 1.2.3.5 0 1-.1 1.3-.3.3-.2.6-.5.8-.8l1.4.6c-.2.4-.5.7-.8 1-.3.3-.7.5-1.2.6-.4.3-.9.4-1.4.4zm5.7-.2v-8h1.5l.2 1.4c.2-.5.5-.9 1-1.2.4-.3.9-.4 1.6-.4h.5c.2 0 .3.1.4.1l-.2 1.5c-.1 0-.2-.1-.4-.1h-.6c-.3 0-.7.1-1 .3-.3.2-.6.4-.8.8s-.3.8-.3 1.3v4.2h-1.9zm6.7 0v-8H65l.1 2.1-.2-.2c.1-.5.4-.8.6-1.1.3-.3.6-.5 1-.7.4-.1.8-.2 1.2-.2.6 0 1.1.1 1.5.3.5.2.8.5 1.1 1 .3.4.4 1 .4 1.7v5.2H69V23c0-.8-.2-1.3-.5-1.6-.3-.3-.7-.5-1.2-.5-.4 0-.7.1-1 .2-.3.2-.6.4-.8.8s-.3.8-.3 1.5v4.3h-1.7zm13.4.2c-.8 0-1.5-.2-2.1-.5-.6-.3-1.1-.8-1.4-1.4a5.09 5.09 0 0 1 0-4.4c.3-.6.8-1.1 1.4-1.4.6-.3 1.3-.5 2-.5.8 0 1.4.2 2 .5.5.3 1 .8 1.2 1.3.3.6.4 1.2.4 1.9v.9H74v-1.3h5.7l-.8.3c0-.7-.2-1.3-.5-1.7-.4-.4-.9-.6-1.5-.6-.5 0-.9.1-1.2.3-.3.2-.6.5-.8 1-.2.4-.3.9-.3 1.5s.1 1.1.3 1.5.5.7.8.9c.4.2.8.3 1.2.3.5 0 1-.1 1.3-.3.3-.2.6-.5.8-.8l1.4.6c-.2.4-.5.7-.8 1-.3.3-.7.5-1.2.6-.5.2-1 .3-1.5.3zm10.6-8.2v1.3h-6v-1.3h6zm-2.7-2.4v8c0 .4.1.7.3.9.2.2.5.3.8.3.3 0 .5 0 .8-.1.2-.1.4-.2.6-.4l.4 1.2c-.2.2-.5.4-.9.5s-.8.2-1.2.2c-.5 0-.9-.1-1.3-.2s-.7-.4-.9-.7c-.2-.3-.3-.8-.3-1.3v-7.8l1.7-.6zm7.9 10.6c-.8 0-1.5-.2-2.1-.5-.6-.3-1.1-.8-1.4-1.4s-.5-1.4-.5-2.2.2-1.6.5-2.2.8-1.1 1.4-1.4c.6-.3 1.3-.5 2-.5.8 0 1.4.2 2 .5.5.3 1 .8 1.2 1.3.3.6.4 1.2.4 1.9v.9h-6.4v-1.3h5.7l-.8.3c0-.7-.2-1.3-.5-1.7-.4-.4-.9-.6-1.5-.6-.5 0-.9.1-1.2.3-.3.2-.6.5-.8 1-.2.4-.3.9-.3 1.5s.1 1.1.3 1.5.5.7.8.9c.4.2.8.3 1.2.3.5 0 1-.1 1.3-.3.3-.2.6-.5.8-.8l1.4.6c-.2.4-.5.7-.8 1-.3.3-.7.5-1.2.6-.5.2-.9.3-1.5.3zm8.8 0c-.8 0-1.5-.2-2.2-.5-.7-.3-1.2-.7-1.6-1.3l1.2-1c.2.4.6.8 1 1 .4.3 1 .4 1.6.4.5 0 .9-.1 1.2-.3.3-.2.4-.4.4-.7 0-.2-.1-.4-.2-.5s-.4-.3-.8-.4l-1.7-.4c-.9-.2-1.5-.4-1.8-.8-.4-.4-.5-.9-.5-1.4 0-.4.1-.8.4-1.2.3-.4.6-.7 1.1-.9s1.1-.3 1.8-.3c.8 0 1.5.1 2 .4s1 .7 1.3 1.2l-1.2 1c-.2-.4-.5-.7-.9-1s-.8-.3-1.2-.3c-.3 0-.6 0-.9.1-.2.1-.4.2-.6.4s-.2.3-.2.5.1.4.2.6.4.3.9.4l1.8.4c.8.1 1.3.4 1.6.8.3.4.5.8.5 1.3s-.1 1-.4 1.4c-.3.4-.7.7-1.2.9-.3.1-.9.2-1.6.2zM112.3 16l-4.8 12.7h-1.6l4.8-12.7h1.6zm10.5 1-3.9 10.6h-2L113 17h1.8l2.5 7 .6 2.1.6-2.1 2.5-7h1.8zm12.8 0v10.6H134v-6.1l.1-2.9-3.2 9h-1.4l-3.2-9 .1 2.9v6.1h-1.6V17h2.5l2.1 6.1.7 2.5.8-2.5L133 17h2.6zm8.1 10.6V16h1.7v4.9c.3-.5.6-.9 1.1-1.1.5-.2 1-.3 1.5-.3.6 0 1.1.1 1.5.3.5.2.8.5 1.1 1 .3.4.4 1 .4 1.7v5.2h-1.7V23c0-.8-.2-1.3-.5-1.6-.3-.3-.7-.5-1.2-.5-.3 0-.7.1-1 .2s-.6.4-.8.8c-.2.4-.3.9-.3 1.5v4.2h-1.8zm13.3-8.2c.8 0 1.5.2 2.1.5.6.3 1.1.8 1.4 1.4s.5 1.4.5 2.2-.2 1.6-.5 2.2-.8 1.1-1.4 1.4c-.6.3-1.3.5-2.1.5s-1.5-.2-2.1-.5c-.6-.3-1.1-.8-1.4-1.4a5.09 5.09 0 0 1 0-4.4c.3-.6.8-1.1 1.4-1.4.7-.3 1.4-.5 2.1-.5zm0 1.4c-.5 0-.9.1-1.2.3s-.6.5-.8 1-.3.9-.3 1.5.1 1.1.3 1.5c.2.4.4.7.8 1 .3.2.7.3 1.2.3s.9-.1 1.2-.3c.3-.2.6-.5.8-1 .2-.4.3-.9.3-1.5s-.1-1.1-.3-1.5c-.2-.4-.4-.7-.8-1-.3-.2-.7-.3-1.2-.3zm9.2 7c-.8 0-1.5-.2-2.2-.5-.7-.3-1.2-.7-1.6-1.3l1.2-1c.2.4.6.8 1 1 .4.3 1 .4 1.6.4.5 0 .9-.1 1.2-.3.3-.2.4-.4.4-.7 0-.2-.1-.4-.2-.5s-.4-.3-.8-.4l-1.7-.4c-.9-.2-1.5-.4-1.8-.8-.4-.4-.5-.9-.5-1.4 0-.4.1-.8.4-1.2.3-.4.6-.7 1.1-.9s1.1-.3 1.8-.3c.8 0 1.5.1 2 .4s1 .7 1.3 1.2l-1.2 1c-.2-.4-.5-.7-.9-1s-.8-.3-1.2-.3c-.3 0-.6 0-.9.1-.2.1-.4.2-.6.4s-.2.3-.2.5.1.4.2.6.4.3.9.4l1.8.4c.8.1 1.3.4 1.6.8.3.4.5.8.5 1.3s-.1 1-.4 1.4c-.3.4-.7.7-1.2.9-.3.1-.9.2-1.6.2zm10.5-8.2v1.3h-6v-1.3h6zm-2.7-2.4v8c0 .4.1.7.3.9.2.2.5.3.8.3.3 0 .5 0 .8-.1.2-.1.4-.2.6-.4l.4 1.2c-.2.2-.5.4-.9.5s-.8.2-1.2.2c-.5 0-.9-.1-1.3-.2s-.7-.4-.9-.7c-.2-.3-.3-.8-.3-1.3v-7.8l1.7-.6zm13.1 10.6c-.8 0-1.5-.2-2.1-.5-.6-.3-1.1-.8-1.4-1.4s-.5-1.4-.5-2.2.2-1.6.5-2.2.8-1.1 1.4-1.4c.6-.3 1.3-.5 2-.5.8 0 1.4.2 2 .5.5.3 1 .8 1.2 1.3.3.6.4 1.2.4 1.9v.9h-6.4v-1.3h5.7l-.8.3c0-.7-.2-1.3-.5-1.7-.4-.4-.9-.6-1.5-.6-.5 0-.9.1-1.2.3-.3.2-.6.5-.8 1-.2.4-.3.9-.3 1.5s.1 1.1.3 1.5.5.7.8.9c.4.2.8.3 1.2.3.5 0 1-.1 1.3-.3.3-.2.6-.5.8-.8l1.4.6c-.2.4-.5.7-.8 1-.3.3-.7.5-1.2.6-.4.2-.9.3-1.5.3zm5.8-.2v-8h1.5l.1 2.1-.2-.2c.1-.5.4-.8.6-1.1.3-.3.6-.5 1-.7.4-.1.8-.2 1.2-.2.6 0 1.1.1 1.5.3.5.2.8.5 1.1 1 .3.4.4 1 .4 1.7v5.2h-1.7V23c0-.8-.2-1.3-.5-1.6-.3-.3-.7-.5-1.2-.5-.4 0-.7.1-1 .2-.3.2-.6.4-.8.8s-.3.8-.3 1.5v4.3h-1.7zm14.9-8h1.8l-3.2 8h-1.9l-3.2-8h1.9l2.3 6.5 2.3-6.5zm4.1-1.3c-.4 0-.7-.1-.9-.3-.2-.2-.3-.5-.3-.8s.1-.6.3-.8c.2-.2.5-.3.9-.3s.6.1.8.3c.2.2.3.4.3.8s-.1.6-.3.8c-.1.2-.4.3-.8.3zm.9 1.3v8h-1.7v-8h1.7zm2.7 8v-8h1.5l.2 1.4c.2-.5.5-.9 1-1.2.4-.3.9-.4 1.6-.4h.5c.2 0 .3.1.4.1l-.2 1.5c-.1 0-.2-.1-.4-.1h-.6c-.3 0-.7.1-1 .3-.3.2-.6.4-.8.8s-.3.8-.3 1.3v4.2h-1.9zm9.8-8.2c.8 0 1.5.2 2.1.5.6.3 1.1.8 1.4 1.4s.5 1.4.5 2.2-.2 1.6-.5 2.2-.8 1.1-1.4 1.4c-.6.3-1.3.5-2.1.5s-1.5-.2-2.1-.5c-.6-.3-1.1-.8-1.4-1.4a5.09 5.09 0 0 1 0-4.4c.3-.6.8-1.1 1.4-1.4.7-.3 1.4-.5 2.1-.5zm0 1.4c-.5 0-.9.1-1.2.3s-.6.5-.8 1-.3.9-.3 1.5.1 1.1.3 1.5c.2.4.4.7.8 1 .3.2.7.3 1.2.3s.9-.1 1.2-.3c.3-.2.6-.5.8-1 .2-.4.3-.9.3-1.5s-.1-1.1-.3-1.5c-.2-.4-.4-.7-.8-1-.3-.2-.7-.3-1.2-.3zm6.2 6.8v-8h1.5l.1 2.1-.2-.2c.1-.5.4-.8.6-1.1.3-.3.6-.5 1-.7.4-.1.8-.2 1.2-.2.6 0 1.1.1 1.5.3.5.2.8.5 1.1 1 .3.4.4 1 .4 1.7v5.2H237V23c0-.8-.2-1.3-.5-1.6-.3-.3-.7-.5-1.2-.5-.4 0-.7.1-1 .2-.3.2-.6.4-.8.8s-.3.8-.3 1.5v4.3h-1.7zm9.9 0v-8h1.5l.1 1.3c.3-.5.6-.9 1.1-1.1.5-.2 1-.4 1.5-.4.6 0 1.1.1 1.6.4.5.3.9.7 1.1 1.2.2-.4.4-.6.7-.9.3-.2.6-.4 1-.5.4-.1.7-.2 1.1-.2.5 0 1 .1 1.4.3s.8.5 1.1 1 .4 1 .4 1.7v5.2h-1.7v-4.9c0-.7-.2-1.1-.5-1.4-.3-.3-.7-.4-1.2-.4-.4 0-.7.1-1 .3-.3.2-.6.5-.8.8-.2.4-.3.8-.3 1.3v4.4h-1.7v-4.9c0-.7-.2-1.1-.5-1.4-.3-.3-.7-.4-1.2-.4-.3 0-.6.1-1 .3-.3.2-.6.4-.8.8-.2.4-.3.8-.3 1.4v4.3h-1.6zm18.7.2c-.8 0-1.5-.2-2.1-.5-.6-.3-1.1-.8-1.4-1.4s-.5-1.4-.5-2.2.2-1.6.5-2.2.8-1.1 1.4-1.4c.6-.3 1.3-.5 2-.5.8 0 1.4.2 2 .5.5.3 1 .8 1.2 1.3.3.6.4 1.2.4 1.9v.9h-6.4v-1.3h5.7l-.8.3c0-.7-.2-1.3-.5-1.7-.4-.4-.9-.6-1.5-.6-.5 0-.9.1-1.2.3-.3.2-.6.5-.8 1-.2.4-.3.9-.3 1.5s.1 1.1.3 1.5.5.7.8.9c.4.2.8.3 1.2.3.5 0 1-.1 1.3-.3.3-.2.6-.5.8-.8l1.4.6c-.2.4-.5.7-.8 1-.3.3-.7.5-1.2.6-.5.2-1 .3-1.5.3zm5.7-.2v-8h1.5l.1 2.1-.2-.2c.1-.5.4-.8.6-1.1.3-.3.6-.5 1-.7.4-.1.8-.2 1.2-.2.6 0 1.1.1 1.5.3.5.2.8.5 1.1 1 .3.4.4 1 .4 1.7v5.2h-1.7V23c0-.8-.2-1.3-.5-1.6-.3-.3-.7-.5-1.2-.5-.4 0-.7.1-1 .2-.3.2-.6.4-.8.8s-.3.8-.3 1.5v4.3h-1.7zm14.9-8v1.3h-6v-1.3h6zm-2.8-2.4v8c0 .4.1.7.3.9.2.2.5.3.8.3.3 0 .5 0 .8-.1.2-.1.4-.2.6-.4l.4 1.2c-.2.2-.5.4-.9.5s-.8.2-1.2.2c-.5 0-.9-.1-1.3-.2s-.7-.4-.9-.7c-.2-.3-.3-.8-.3-1.3v-7.8l1.7-.6zM42.2 421v3.6h-1V416h2.3c1.1 0 1.8.2 2.3.6s.8 1 .8 1.8c0 1.1-.6 1.9-1.7 2.3l2.3 3.8H46l-2-3.5h-1.8zm0-.9h1.4c.7 0 1.2-.1 1.5-.4s.5-.7.5-1.3c0-.6-.2-1-.5-1.2s-.9-.4-1.6-.4h-1.3v3.3zm9 4.6c-.9 0-1.7-.3-2.2-.9s-.8-1.4-.8-2.4.3-1.9.8-2.5 1.2-.9 2.1-.9c.8 0 1.4.3 1.9.8s.7 1.2.7 2.1v.6h-4.4c0 .8.2 1.3.6 1.7s.9.6 1.5.6c.7 0 1.4-.1 2.1-.4v.9c-.3.1-.7.3-1 .3s-.9.1-1.3.1zm-.3-5.9c-.5 0-.9.2-1.2.5s-.5.8-.5 1.4h3.4c0-.6-.1-1.1-.4-1.4s-.8-.5-1.3-.5zm8.4 4c0 .6-.2 1.1-.7 1.4s-1.1.5-1.9.5c-.9 0-1.5-.1-2-.4v-.9c.3.2.6.3 1 .4s.7.1 1 .1c.5 0 .9-.1 1.2-.2s.4-.4.4-.7c0-.2-.1-.5-.3-.6s-.6-.4-1.3-.6c-.6-.2-1-.4-1.3-.6s-.4-.4-.6-.6-.2-.5-.2-.8c0-.5.2-.9.6-1.2s1-.5 1.8-.5c.7 0 1.4.1 2 .4l-.3.8c-.6-.3-1.2-.4-1.8-.4-.5 0-.8.1-1 .2s-.4.3-.4.6c0 .2 0 .3.1.4s.2.2.4.3.6.3 1.1.5c.8.3 1.3.6 1.5.8s.7.7.7 1.1zm7.1-1.5c0 1-.3 1.9-.8 2.5s-1.3.9-2.2.9c-.6 0-1.1-.1-1.5-.4s-.8-.7-1-1.2-.4-1.1-.4-1.8c0-1 .3-1.9.8-2.4s1.2-.9 2.2-.9c.9 0 1.6.3 2.1.9s.8 1.4.8 2.4zm-4.8 0c0 .8.2 1.4.5 1.9s.8.6 1.4.6 1.1-.2 1.5-.6.5-1.1.5-1.9c0-.8-.2-1.4-.5-1.9s-.8-.6-1.5-.6c-.6 0-1.1.2-1.4.6s-.5 1.1-.5 1.9zm7.5-3.2v4.2c0 .5.1.9.4 1.2.2.3.6.4 1.1.4.7 0 1.2-.2 1.5-.6s.5-1 .5-1.8v-3.4h1v6.4h-.8l-.1-.9h-.1c-.2.3-.5.6-.8.7s-.8.3-1.2.3c-.8 0-1.4-.2-1.8-.6s-.6-1-.6-1.8V418h.9zm9.3-.1c.3 0 .5 0 .8.1l-.1.9c-.3-.1-.5-.1-.7-.1-.5 0-1 .2-1.3.6s-.6.9-.6 1.6v3.4h-1v-6.4h.8l.1 1.2c.2-.4.5-.7.9-1s.7-.3 1.1-.3zm4.6 6.7c-.9 0-1.6-.3-2.2-.9s-.8-1.4-.8-2.4c0-1.1.3-1.9.8-2.5s1.3-.9 2.2-.9c.3 0 .6 0 .9.1s.6.1.7.2l-.3.8c-.2-.1-.4-.2-.7-.2s-.5-.1-.7-.1c-1.3 0-2 .8-2 2.5 0 .8.2 1.4.5 1.8s.8.6 1.4.6c.5 0 1.1-.1 1.6-.3v.9c-.2.3-.8.4-1.4.4zm5.8 0c-.9 0-1.7-.3-2.2-.9s-.8-1.4-.8-2.4.3-1.9.8-2.5 1.2-.9 2.1-.9c.8 0 1.4.3 1.9.8s.7 1.2.7 2.1v.6h-4.4c0 .8.2 1.3.6 1.7s.9.6 1.5.6c.7 0 1.4-.1 2.1-.4v.9c-.3.1-.7.3-1 .3s-.8.1-1.3.1zm-.2-5.9c-.5 0-.9.2-1.2.5s-.5.8-.5 1.4h3.4c0-.6-.1-1.1-.4-1.4s-.8-.5-1.3-.5zm15.6 5.8v-4.2c0-.5-.1-.9-.3-1.2s-.6-.4-1-.4c-.6 0-1.1.2-1.3.5-.3.3-.4.9-.4 1.6v3.6h-1v-4.2c0-.5-.1-.9-.3-1.2s-.6-.4-1-.4c-.6 0-1.1.2-1.3.5s-.4 1-.4 1.8v3.4h-1V418h.8l.2.9c.2-.3.4-.6.8-.7s.7-.3 1.1-.3c1 0 1.7.4 2 1.1.2-.3.5-.6.8-.8s.8-.3 1.2-.3c.7 0 1.3.2 1.6.6s.5 1 .5 1.8v4.2h-1zm6.9 0-.2-.9c-.3.4-.6.7-1 .8s-.7.2-1.2.2c-.6 0-1.1-.2-1.5-.5s-.5-.8-.5-1.4c0-1.3 1-2 3.1-2h1.1v-.4c0-.5-.1-.9-.3-1.1s-.6-.4-1-.4c-.5 0-1.1.2-1.8.5l-.3-.7c.3-.2.7-.3 1-.4s.8-.1 1.1-.1c.8 0 1.3.2 1.7.5s.6.9.6 1.6v4.4h-.8zm-2.2-.7c.6 0 1.1-.2 1.4-.5s.5-.8.5-1.4v-.6h-1c-.8 0-1.3.1-1.7.4s-.5.5-.5 1c0 .4.1.6.3.8s.6.3 1 .3zm9.3.7v-4.2c0-.5-.1-.9-.4-1.2s-.6-.4-1.1-.4c-.7 0-1.2.2-1.5.5s-.5 1-.5 1.8v3.4h-1v-6.4h.8l.2.9c.2-.3.5-.6.8-.7s.8-.3 1.2-.3c.8 0 1.4.2 1.7.6s.6 1 .6 1.8v4.2h-.8zm6.9 0-.2-.9c-.3.4-.6.7-1 .8s-.7.2-1.2.2c-.6 0-1.1-.2-1.5-.5s-.5-.8-.5-1.4c0-1.3 1-2 3.1-2h1.1v-.4c0-.5-.1-.9-.3-1.1s-.6-.4-1-.4c-.5 0-1.1.2-1.8.5l-.3-.7c.3-.2.7-.3 1-.4s.8-.1 1.1-.1c.8 0 1.3.2 1.7.5s.6.9.6 1.6v4.4h-.8zm-2.2-.7c.6 0 1.1-.2 1.4-.5s.5-.8.5-1.4v-.6h-1c-.8 0-1.3.1-1.7.4s-.5.5-.5 1c0 .4.1.6.3.8s.7.3 1 .3zm10.2-5.8v.6l-1.2.1c.1.1.2.3.3.5s.1.5.1.7c0 .6-.2 1.1-.6 1.5s-1 .6-1.8.6h-.5c-.4.2-.6.5-.6.8 0 .2.1.3.2.4s.4.1.7.1h1.1c.7 0 1.2.1 1.6.4s.6.7.6 1.3c0 .7-.3 1.3-.9 1.6s-1.4.6-2.5.6c-.8 0-1.5-.2-1.9-.5s-.7-.8-.7-1.3c0-.4.1-.7.4-1s.6-.5 1.1-.6c-.2-.1-.3-.2-.4-.3s-.2-.3-.2-.5.1-.4.2-.6.3-.3.6-.5c-.3-.1-.6-.4-.8-.7s-.3-.7-.3-1.1c0-.7.2-1.2.6-1.6s1-.6 1.8-.6c.3 0 .6 0 .9.1h2.2zm-5.1 7.5c0 .3.1.6.4.8s.7.3 1.3.3c.8 0 1.4-.1 1.8-.4s.6-.6.6-1c0-.3-.1-.6-.3-.7s-.6-.2-1.2-.2h-1.2c-.4 0-.8.1-1 .3s-.4.5-.4.9zm.5-5.4c0 .4.1.8.4 1s.6.3 1.1.3c.9 0 1.4-.5 1.4-1.4 0-1-.5-1.4-1.4-1.4-.5 0-.8.1-1.1.4s-.4.6-.4 1.1zm8.6 4.5c-.9 0-1.7-.3-2.2-.9s-.8-1.4-.8-2.4.3-1.9.8-2.5 1.2-.9 2.1-.9c.8 0 1.4.3 1.9.8s.7 1.2.7 2.1v.6h-4.4c0 .8.2 1.3.6 1.7s.9.6 1.5.6c.7 0 1.4-.1 2.1-.4v.9c-.3.1-.7.3-1 .3s-.8.1-1.3.1zm-.2-5.9c-.5 0-.9.2-1.2.5s-.5.8-.5 1.4h3.4c0-.6-.1-1.1-.4-1.4s-.8-.5-1.3-.5zm7.2-.8c.3 0 .5 0 .8.1l-.1.9c-.3-.1-.5-.1-.7-.1-.5 0-1 .2-1.3.6s-.6.9-.6 1.6v3.4h-1v-6.4h.8l.1 1.2c.2-.4.5-.7.9-1s.7-.3 1.1-.3zm67.7-97.4h-1v-7.7h-2.7v-.9h6.4v.9h-2.7v7.7zm6.6.1c-.9 0-1.7-.3-2.2-.9s-.8-1.4-.8-2.4.3-1.9.8-2.5 1.2-.9 2.1-.9c.8 0 1.4.3 1.9.8s.7 1.2.7 2.1v.6h-4.4c0 .8.2 1.3.6 1.7s.9.6 1.5.6c.7 0 1.4-.1 2.1-.4v.9c-.3.1-.7.3-1 .3s-.9.1-1.3.1zm-.3-5.9c-.5 0-.9.2-1.2.5s-.5.8-.5 1.4h3.4c0-.6-.1-1.1-.4-1.4s-.8-.5-1.3-.5zm8.4 4c0 .6-.2 1.1-.7 1.4s-1.1.5-1.9.5c-.9 0-1.5-.1-2-.4v-.9c.3.2.6.3 1 .4s.7.1 1 .1c.5 0 .9-.1 1.2-.2s.4-.4.4-.7c0-.2-.1-.5-.3-.6s-.6-.4-1.3-.6c-.6-.2-1-.4-1.3-.6s-.4-.4-.6-.6-.2-.5-.2-.8c0-.5.2-.9.6-1.2s1-.5 1.8-.5c.7 0 1.4.1 2 .4l-.3.8c-.6-.3-1.2-.4-1.8-.4-.5 0-.8.1-1 .2s-.4.3-.4.6c0 .2 0 .3.1.4s.2.2.4.3.6.3 1.1.5c.8.3 1.3.6 1.5.8s.7.7.7 1.1zm3.7 1.1h.5c.2 0 .3-.1.4-.1v.7c-.1.1-.3.1-.5.1h-.6c-1.2 0-1.9-.7-1.9-2v-3.8h-.9v-.5l.9-.4.4-1.4h.6v1.5h1.9v.8h-1.9v3.8c0 .4.1.7.3.9s.5.4.8.4zm8 .8c-.9 0-1.7-.3-2.2-.9s-.8-1.4-.8-2.4.3-1.9.8-2.5 1.2-.9 2.1-.9c.8 0 1.4.3 1.9.8s.7 1.2.7 2.1v.6h-4.4c0 .8.2 1.3.6 1.7s.9.6 1.5.6c.7 0 1.4-.1 2.1-.4v.9c-.3.1-.7.3-1 .3s-.9.1-1.3.1zm-.3-5.9c-.5 0-.9.2-1.2.5s-.5.8-.5 1.4h3.4c0-.6-.1-1.1-.4-1.4s-.8-.5-1.3-.5zm8.7 5.8v-4.2c0-.5-.1-.9-.4-1.2s-.6-.4-1.1-.4c-.7 0-1.2.2-1.5.5s-.5 1-.5 1.8v3.4h-1v-6.4h.8l.2.9c.2-.3.5-.6.8-.7.4-.2.8-.3 1.2-.3.8 0 1.4.2 1.7.6s.6 1 .6 1.8v4.2h-.8zm8.2-6.5v.6l-1.2.1c.1.1.2.3.3.5.1.2.1.5.1.7 0 .6-.2 1.1-.6 1.5s-1 .6-1.8.6h-.5c-.4.2-.6.5-.6.8 0 .2.1.3.2.4s.4.1.7.1h1.1c.7 0 1.2.1 1.6.4s.6.7.6 1.3c0 .7-.3 1.3-.9 1.6s-1.4.6-2.5.6c-.8 0-1.5-.2-1.9-.5s-.7-.8-.7-1.3c0-.4.1-.7.4-1s.6-.5 1.1-.6c-.2-.1-.3-.2-.4-.3s-.2-.3-.2-.5.1-.4.2-.6.3-.3.6-.5c-.3-.1-.6-.4-.8-.7s-.3-.7-.3-1.1c0-.7.2-1.2.6-1.6s1-.6 1.8-.6c.3 0 .6 0 .9.1h2.2zm-5.1 7.5c0 .3.1.6.4.8s.7.3 1.3.3c.8 0 1.4-.1 1.8-.4s.6-.6.6-1c0-.3-.1-.6-.3-.7s-.6-.2-1.2-.2h-1.2c-.4 0-.8.1-1 .3s-.4.5-.4.9zm.5-5.4c0 .4.1.8.4 1s.6.3 1.1.3c.9 0 1.4-.5 1.4-1.4 0-1-.5-1.4-1.4-1.4-.5 0-.8.1-1.1.4s-.4.6-.4 1.1zm5.9-3.8c0-.2.1-.4.2-.5s.2-.2.4-.2.3.1.4.2.2.3.2.5-.1.4-.2.5-.2.2-.4.2-.3-.1-.4-.2-.2-.3-.2-.5zm1 8.2h-1v-6.4h1v6.4zm6.5 0v-4.2c0-.5-.1-.9-.4-1.2s-.6-.4-1.1-.4c-.7 0-1.2.2-1.5.5s-.5 1-.5 1.8v3.4h-1v-6.4h.8l.2.9c.2-.3.5-.6.8-.7s.8-.3 1.2-.3c.8 0 1.4.2 1.7.6s.6 1 .6 1.8v4.2h-.8zm5.7.1c-.9 0-1.7-.3-2.2-.9s-.8-1.4-.8-2.4.3-1.9.8-2.5 1.2-.9 2.1-.9c.8 0 1.4.3 1.9.8s.7 1.2.7 2.1v.6h-4.4c0 .8.2 1.3.6 1.7s.9.6 1.5.6c.7 0 1.4-.1 2.1-.4v.9c-.3.1-.7.3-1 .3s-.9.1-1.3.1zm-.3-5.9c-.5 0-.9.2-1.2.5s-.5.8-.5 1.4h3.4c0-.6-.1-1.1-.4-1.4s-.8-.5-1.3-.5zm8.4 4c0 .6-.2 1.1-.7 1.4s-1.1.5-1.9.5c-.9 0-1.5-.1-2-.4v-.9c.3.2.6.3 1 .4s.7.1 1 .1c.5 0 .9-.1 1.2-.2s.4-.4.4-.7c0-.2-.1-.5-.3-.6s-.6-.4-1.3-.6c-.6-.2-1-.4-1.3-.6s-.4-.4-.6-.6-.2-.5-.2-.8c0-.5.2-.9.6-1.2s1-.5 1.8-.5c.7 0 1.4.1 2 .4l-.3.8c-.6-.3-1.2-.4-1.8-.4-.5 0-.8.1-1 .2s-.4.3-.4.6c0 .2 0 .3.1.4s.2.2.4.3.6.3 1.1.5c.8.3 1.3.6 1.5.8s.7.7.7 1.1zm-230.8 1.8-1.1-2.7h-3.4l-1.1 2.7h-1l3.4-8.6h.8l3.4 8.6h-1zm-1.4-3.7-1-2.7c-.1-.3-.3-.7-.4-1.2-.1.4-.2.8-.4 1.2l-1 2.7h2.8zm9-2.4c0 .9-.3 1.5-.9 2s-1.4.7-2.5.7h-1v3.4h-1V312H51c2.1 0 3.2.8 3.2 2.5zm-4.4 1.8h.9c.9 0 1.5-.1 1.9-.4s.6-.7.6-1.4c0-.6-.2-1-.6-1.3s-.9-.4-1.7-.4h-1.1v3.5zm6.2 4.3V312h1v8.6h-1zm10.5-1.8c0 .6-.2 1.1-.7 1.4s-1.1.5-1.9.5c-.9 0-1.5-.1-2-.4v-.9c.3.2.6.3 1 .4s.7.1 1 .1c.5 0 .9-.1 1.2-.2s.4-.4.4-.7c0-.2-.1-.5-.3-.6s-.6-.4-1.3-.6c-.6-.2-1-.4-1.3-.6s-.4-.4-.6-.6-.2-.5-.2-.8c0-.5.2-.9.6-1.2s1-.5 1.8-.5c.7 0 1.4.1 2 .4l-.3.8c-.6-.3-1.2-.4-1.8-.4-.5 0-.8.1-1 .2s-.4.3-.4.6c0 .2 0 .3.1.4s.2.2.4.3.6.3 1.1.5c.8.3 1.3.6 1.5.8s.7.7.7 1.1zm4.3 1.9c-.9 0-1.7-.3-2.2-.9s-.8-1.4-.8-2.4.3-1.9.8-2.5 1.2-.9 2.1-.9c.8 0 1.4.3 1.9.8s.7 1.2.7 2.1v.6h-4.4c0 .8.2 1.3.6 1.7s.9.6 1.5.6c.7 0 1.4-.1 2.1-.4v.9c-.3.1-.7.3-1 .3s-.9.1-1.3.1zm-.3-5.9c-.5 0-.9.2-1.2.5s-.5.8-.5 1.4h3.4c0-.6-.1-1.1-.4-1.4s-.8-.5-1.3-.5zm7.2-.8c.3 0 .5 0 .8.1l-.1.9c-.3-.1-.5-.1-.7-.1-.5 0-1 .2-1.3.6s-.6.9-.6 1.6v3.4h-1v-6.4h.8l.1 1.2c.2-.4.5-.7.9-1s.7-.3 1.1-.3zm3.4 6.6-2.4-6.4h1l1.4 3.8c.3.9.5 1.5.6 1.7 0-.2.2-.6.4-1.3s.7-2.1 1.5-4.3h1l-2.4 6.4h-1.1zm7.3.1c-.9 0-1.7-.3-2.2-.9s-.8-1.4-.8-2.4.3-1.9.8-2.5 1.2-.9 2.1-.9c.8 0 1.4.3 1.9.8s.7 1.2.7 2.1v.6h-4.4c0 .8.2 1.3.6 1.7s.9.6 1.5.6c.7 0 1.4-.1 2.1-.4v.9c-.3.1-.7.3-1 .3s-.9.1-1.3.1zm-.3-5.9c-.5 0-.9.2-1.2.5s-.5.8-.5 1.4h3.4c0-.6-.1-1.1-.4-1.4s-.8-.5-1.3-.5zm7.2-.8c.3 0 .5 0 .8.1l-.1.9c-.3-.1-.5-.1-.7-.1-.5 0-1 .2-1.3.6s-.6.9-.6 1.6v3.4h-1v-6.4h.8l.1 1.2c.2-.4.5-.7.9-1s.7-.3 1.1-.3zM42.2 213v3.6h-1V208h2.3c1.1 0 1.8.2 2.3.6s.8 1 .8 1.8c0 1.1-.6 1.9-1.7 2.3l2.3 3.8H46l-2-3.5h-1.8zm0-.9h1.4c.7 0 1.2-.1 1.5-.4s.5-.7.5-1.3c0-.6-.2-1-.5-1.2s-.9-.4-1.6-.4h-1.3v3.3zm11.8 4.5-1.1-2.7h-3.4l-1.1 2.7h-1l3.4-8.6h.8l3.4 8.6h-1zm-1.4-3.7-1-2.7c-.1-.3-.3-.7-.4-1.2-.1.4-.2.8-.4 1.2l-1 2.7h2.8zm8.4 1.4c0 .8-.3 1.3-.8 1.8s-1.3.6-2.2.6c-1 0-1.8-.1-2.3-.4v-1c.4.1.7.3 1.1.4s.8.1 1.2.1c.7 0 1.2-.1 1.5-.4s.5-.6.5-1.1c0-.3-.1-.5-.2-.7s-.3-.4-.6-.5-.7-.3-1.3-.5c-.8-.3-1.4-.6-1.7-1s-.5-.9-.5-1.5c0-.7.2-1.2.7-1.6s1.2-.6 2-.6c.9 0 1.6.2 2.3.5l-.3.9c-.7-.3-1.4-.4-2.1-.4-.5 0-.9.1-1.2.3s-.4.5-.4.9c0 .3.1.5.2.7s.3.4.6.5.7.3 1.2.5c.9.3 1.5.7 1.9 1s.4.9.4 1.5zm153 2.3h-4.8V208h4.8v.9h-3.8v2.8h3.6v.9h-3.6v3.2h3.8v.8zm6.1 0v-4.2c0-.5-.1-.9-.4-1.2s-.6-.4-1.1-.4c-.7 0-1.2.2-1.5.5s-.5 1-.5 1.8v3.4h-1v-6.4h.8l.2.9c.2-.3.5-.6.8-.7s.8-.3 1.2-.3c.8 0 1.4.2 1.7.6s.6 1 .6 1.8v4.2h-.8zm8.2-6.5v.6l-1.2.1c.1.1.2.3.3.5s.1.5.1.7c0 .6-.2 1.1-.6 1.5s-1 .6-1.8.6h-.5c-.4.2-.6.5-.6.8 0 .2.1.3.2.4s.4.1.7.1h1.1c.7 0 1.2.1 1.6.4s.6.7.6 1.3c0 .7-.3 1.3-.9 1.6s-1.4.6-2.5.6c-.8 0-1.5-.2-1.9-.5s-.7-.8-.7-1.3c0-.4.1-.7.4-1s.6-.5 1.1-.6c-.2-.1-.3-.2-.4-.3s-.2-.3-.2-.5.1-.4.2-.6.3-.3.6-.5c-.3-.1-.6-.4-.8-.7s-.3-.7-.3-1.1c0-.7.2-1.2.6-1.6s1-.6 1.8-.6c.3 0 .6 0 .9.1h2.2zm-5.1 7.5c0 .3.1.6.4.8.3.2.7.3 1.3.3.8 0 1.4-.1 1.8-.4s.6-.6.6-1c0-.3-.1-.6-.3-.7s-.6-.2-1.2-.2h-1.2c-.4 0-.8.1-1 .3s-.4.5-.4.9zm.5-5.4c0 .4.1.8.4 1s.6.3 1.1.3c.9 0 1.4-.5 1.4-1.4 0-1-.5-1.4-1.4-1.4-.5 0-.8.1-1.1.4s-.4.6-.4 1.1zm5.9-3.8c0-.2.1-.4.2-.5s.2-.2.4-.2.3.1.4.2.2.3.2.5-.1.4-.2.5-.2.2-.4.2-.3-.1-.4-.2-.2-.3-.2-.5zm1 8.2h-1v-6.4h1v6.4zm6.5 0v-4.2c0-.5-.1-.9-.4-1.2s-.6-.4-1.1-.4c-.7 0-1.2.2-1.5.5s-.5 1-.5 1.8v3.4h-1v-6.4h.8l.2.9c.2-.3.5-.6.8-.7s.8-.3 1.2-.3c.8 0 1.4.2 1.7.6s.6 1 .6 1.8v4.2h-.8zm5.7.1c-.9 0-1.7-.3-2.2-.9s-.8-1.4-.8-2.4.3-1.9.8-2.5 1.2-.9 2.1-.9c.8 0 1.4.3 1.9.8s.7 1.2.7 2.1v.6h-4.4c0 .8.2 1.3.6 1.7s.9.6 1.5.6c.7 0 1.4-.1 2.1-.4v.9c-.3.1-.7.3-1 .3s-.9.1-1.3.1zm-.3-5.9c-.5 0-.9.2-1.2.5s-.5.8-.5 1.4h3.4c0-.6-.1-1.1-.4-1.4s-.8-.5-1.3-.5zm10 5.9c-.9 0-1.6-.3-2.2-.9s-.8-1.4-.8-2.4c0-1.1.3-1.9.8-2.5s1.3-.9 2.2-.9c.3 0 .6 0 .9.1s.6.1.7.2l-.3.8c-.2-.1-.4-.2-.7-.2s-.5-.1-.7-.1c-1.3 0-2 .8-2 2.5 0 .8.2 1.4.5 1.8s.8.6 1.4.6c.5 0 1.1-.1 1.6-.3v.9c-.2.3-.8.4-1.4.4zm8.7-3.4c0 1-.3 1.9-.8 2.5s-1.3.9-2.2.9c-.6 0-1.1-.1-1.5-.4s-.8-.7-1-1.2-.4-1.1-.4-1.8c0-1 .3-1.9.8-2.4s1.2-.9 2.2-.9c.9 0 1.6.3 2.1.9s.8 1.4.8 2.4zm-4.9 0c0 .8.2 1.4.5 1.9s.8.6 1.4.6 1.1-.2 1.5-.6.5-1.1.5-1.9c0-.8-.2-1.4-.5-1.9s-.8-.6-1.5-.6c-.6 0-1.1.2-1.4.6s-.5 1.1-.5 1.9zm10.9 3.3v-4.2c0-.5-.1-.9-.4-1.2s-.6-.4-1.1-.4c-.7 0-1.2.2-1.5.5s-.5 1-.5 1.8v3.4h-1v-6.4h.8l.2.9c.2-.3.5-.6.8-.7s.8-.3 1.2-.3c.8 0 1.4.2 1.7.6s.6 1 .6 1.8v4.2h-.8zm5.1-.7h.5c.2 0 .3-.1.4-.1v.7c-.1.1-.3.1-.5.1h-.6c-1.2 0-1.9-.7-1.9-2v-3.8h-.9v-.5l.9-.4.4-1.4h.6v1.5h1.9v.8h-1.9v3.8c0 .4.1.7.3.9s.5.4.8.4zm5.1-5.9c.3 0 .5 0 .8.1l-.2.9c-.3-.1-.5-.1-.7-.1-.5 0-1 .2-1.3.6s-.6.9-.6 1.6v3.4h-1v-6.4h.8l.1 1.2c.2-.4.5-.7.9-1s.8-.3 1.2-.3zm7.5 3.3c0 1-.3 1.9-.8 2.5s-1.3.9-2.2.9c-.6 0-1.1-.1-1.5-.4s-.8-.7-1-1.2-.4-1.1-.4-1.8c0-1 .3-1.9.8-2.4s1.2-.9 2.2-.9c.9 0 1.6.3 2.1.9s.8 1.4.8 2.4zm-4.9 0c0 .8.2 1.4.5 1.9s.8.6 1.4.6 1.1-.2 1.5-.6.5-1.1.5-1.9c0-.8-.2-1.4-.5-1.9s-.8-.6-1.5-.6c-.6 0-1.1.2-1.4.6s-.5 1.1-.5 1.9zm7.6 3.3h-1v-9.1h1v9.1zm3 0h-1v-9.1h1v9.1zm4.8.1c-.9 0-1.7-.3-2.2-.9s-.8-1.4-.8-2.4.3-1.9.8-2.5 1.2-.9 2.1-.9c.8 0 1.4.3 1.9.8s.7 1.2.7 2.1v.6h-4.4c0 .8.2 1.3.6 1.7s.9.6 1.5.6c.7 0 1.4-.1 2.1-.4v.9c-.3.1-.7.3-1 .3s-.9.1-1.3.1zm-.3-5.9c-.5 0-.9.2-1.2.5s-.5.8-.5 1.4h3.4c0-.6-.1-1.1-.4-1.4s-.8-.5-1.3-.5zm7.2-.8c.3 0 .5 0 .8.1l-.1.9c-.3-.1-.5-.1-.7-.1-.5 0-1 .2-1.3.6s-.6.9-.6 1.6v3.4h-1v-6.4h.8l.1 1.2c.2-.4.5-.7.9-1s.7-.3 1.1-.3zM44.8 104.8c-.9 0-1.7.3-2.2.9s-.8 1.5-.8 2.6.3 2 .8 2.6 1.3.9 2.2.9c.6 0 1.3-.1 2-.3v.9c-.6.2-1.3.3-2.2.3-1.3 0-2.2-.4-2.9-1.1s-1-1.9-1-3.3c0-.9.2-1.7.5-2.3s.8-1.2 1.4-1.5 1.4-.5 2.2-.5c.9 0 1.7.2 2.4.5l-.4.9c-.7-.5-1.3-.6-2-.6zm9.4 1.7c0 .9-.3 1.5-.9 2s-1.4.7-2.5.7h-1v3.4h-1V104H51c2.1 0 3.2.8 3.2 2.5zm-4.5 1.8h.9c.9 0 1.5-.1 1.9-.4s.6-.7.6-1.4c0-.6-.2-1-.6-1.3s-.9-.4-1.7-.4h-1.1v3.5zm11.1 2c0 .8-.3 1.3-.8 1.8s-1.3.6-2.2.6c-1 0-1.8-.1-2.3-.4v-1c.4.1.7.3 1.1.4s.8.1 1.2.1c.7 0 1.2-.1 1.5-.4s.5-.6.5-1.1c0-.3-.1-.5-.2-.7s-.3-.4-.6-.5-.7-.3-1.3-.5c-.8-.3-1.4-.6-1.7-1s-.5-.9-.5-1.5c0-.7.2-1.2.7-1.6s1.2-.6 2-.6c.9 0 1.6.2 2.3.5l-.3.9c-.7-.3-1.4-.4-2.1-.4-.5 0-.9.1-1.2.3s-.4.5-.4.9c0 .3.1.5.2.7s.3.4.6.5.7.3 1.2.5c.9.3 1.5.7 1.9 1s.4.9.4 1.5zm4.9-6.3-3.2 8.6h-1l3.2-8.6h1zm8.1 4.2c0 1.4-.4 2.5-1.2 3.2s-1.9 1.1-3.3 1.1H67V104h2.6c1.3 0 2.4.4 3.1 1.1s1.1 1.8 1.1 3.1zm-1.1 0c0-1.1-.3-2-.8-2.5s-1.4-.8-2.5-.8H68v6.8h1.2c1.2 0 2.1-.3 2.7-.9s.8-1.4.8-2.6zm7.8 2.1c0 .8-.3 1.3-.8 1.8s-1.3.6-2.2.6c-1 0-1.8-.1-2.3-.4v-1c.4.1.7.3 1.1.4s.8.1 1.2.1c.7 0 1.2-.1 1.5-.4s.5-.6.5-1.1c0-.3-.1-.5-.2-.7s-.3-.4-.6-.5-.7-.3-1.3-.5c-.8-.3-1.4-.6-1.7-1s-.5-.9-.5-1.5c0-.7.2-1.2.7-1.6s1.2-.6 2-.6c.9 0 1.6.2 2.3.5l-.3.9c-.7-.3-1.4-.4-2.1-.4-.5 0-.9.1-1.2.3s-.4.5-.4.9c0 .3.1.5.2.7s.3.4.6.5.7.3 1.2.5c.9.3 1.5.7 1.9 1s.4.9.4 1.5zm6.6 0c0 .8-.3 1.3-.8 1.8-.5.4-1.3.6-2.2.6-1 0-1.8-.1-2.3-.4v-1c.4.1.7.3 1.1.4s.8.1 1.2.1c.7 0 1.2-.1 1.5-.4s.5-.6.5-1.1c0-.3-.1-.5-.2-.7s-.3-.4-.6-.5-.7-.3-1.3-.5c-.8-.3-1.4-.6-1.7-1s-.5-.9-.5-1.5c0-.7.2-1.2.7-1.6s1.2-.6 2-.6c.9 0 1.6.2 2.3.5l-.3.9c-.7-.3-1.4-.4-2.1-.4-.5 0-.9.1-1.2.3s-.4.5-.4.9c0 .3.1.5.2.7s.3.4.6.5.7.3 1.2.5c.9.3 1.5.7 1.9 1s.4.9.4 1.5zm471.1 71.9c0 1.4-.4 2.5-1.2 3.2s-1.9 1.1-3.3 1.1h-2.4V178h2.6c1.3 0 2.4.4 3.1 1.1s1.2 1.8 1.2 3.1zm-1.1 0c0-1.1-.3-2-.8-2.5s-1.4-.8-2.5-.8h-1.4v6.8h1.2c1.2 0 2.1-.3 2.7-.9s.8-1.4.8-2.6zm8.4 1.1c0 1-.3 1.9-.8 2.5s-1.3.9-2.2.9c-.6 0-1.1-.1-1.5-.4s-.8-.7-1-1.2-.4-1.1-.4-1.8c0-1 .3-1.9.8-2.4s1.2-.9 2.2-.9c.9 0 1.6.3 2.1.9s.8 1.4.8 2.4zm-4.9 0c0 .8.2 1.4.5 1.9s.8.6 1.4.6 1.1-.2 1.5-.6.5-1.1.5-1.9c0-.8-.2-1.4-.5-1.9s-.8-.6-1.5-.6c-.6 0-1.1.2-1.4.6s-.5 1.1-.5 1.9zm9.2 3.4c-.9 0-1.6-.3-2.2-.9s-.8-1.4-.8-2.4c0-1.1.3-1.9.8-2.5s1.3-.9 2.2-.9c.3 0 .6 0 .9.1s.6.1.7.2l-.3.8c-.2-.1-.4-.2-.7-.2s-.5-.1-.7-.1c-1.3 0-2 .8-2 2.5 0 .8.2 1.4.5 1.8s.8.6 1.4.6c.5 0 1.1-.1 1.6-.3v.9c-.2.3-.8.4-1.4.4zm4.1-3.4c.2-.2.4-.6.8-.9l2.1-2.2h1.2l-2.6 2.7 2.8 3.7H577l-2.3-3-.7.6v2.4h-1v-9.1h1v4.8c-.1.2-.1.5-.1 1zm8 3.4c-.9 0-1.7-.3-2.2-.9s-.8-1.4-.8-2.4.3-1.9.8-2.5 1.2-.9 2.1-.9c.8 0 1.4.3 1.9.8s.7 1.2.7 2.1v.6H580c0 .8.2 1.3.6 1.7s.9.6 1.5.6c.7 0 1.4-.1 2.1-.4v.9c-.3.1-.7.3-1 .3s-.8.1-1.3.1zm-.2-5.9c-.5 0-.9.2-1.2.5s-.5.8-.5 1.4h3.4c0-.6-.1-1.1-.4-1.4s-.8-.5-1.3-.5zm7.2-.8c.3 0 .5 0 .8.1l-.1.9c-.3-.1-.5-.1-.7-.1-.5 0-1 .2-1.3.6s-.6.9-.6 1.6v3.4h-1v-6.4h.8l.1 1.2c.2-.4.5-.7.9-1s.7-.3 1.1-.3zm-34.1 18.7c-.9 0-1.7-.3-2.2-.9s-.8-1.4-.8-2.4.3-1.9.8-2.5 1.2-.9 2.1-.9c.8 0 1.4.3 1.9.8s.7 1.2.7 2.1v.6h-4.4c0 .8.2 1.3.6 1.7s.9.6 1.5.6c.7 0 1.4-.1 2.1-.4v.9c-.3.1-.7.3-1 .3s-.8.1-1.3.1zm-.2-5.9c-.5 0-.9.2-1.2.5s-.5.8-.5 1.4h3.4c0-.6-.1-1.1-.4-1.4s-.8-.5-1.3-.5zm8.7 5.8v-4.2c0-.5-.1-.9-.4-1.2s-.6-.4-1.1-.4c-.7 0-1.2.2-1.5.5s-.5 1-.5 1.8v3.4h-1v-6.4h.8l.2.9c.2-.3.5-.6.8-.7s.8-.3 1.2-.3c.8 0 1.4.2 1.7.6s.6 1 .6 1.8v4.2h-.8zm8.2-6.5v.6l-1.2.1c.1.1.2.3.3.5s.1.5.1.7c0 .6-.2 1.1-.6 1.5s-1 .6-1.8.6h-.5c-.4.2-.6.5-.6.8 0 .2.1.3.2.4s.4.1.7.1h1.1c.7 0 1.2.1 1.6.4s.6.7.6 1.3c0 .7-.3 1.3-.9 1.6s-1.4.6-2.5.6c-.8 0-1.5-.2-1.9-.5s-.7-.8-.7-1.3c0-.4.1-.7.4-1s.6-.5 1.1-.6c-.2-.1-.3-.2-.4-.3s-.2-.3-.2-.5.1-.4.2-.6.3-.3.6-.5c-.3-.1-.6-.4-.8-.7s-.3-.7-.3-1.1c0-.7.2-1.2.6-1.6s1-.6 1.8-.6c.3 0 .6 0 .9.1h2.2zm-5.1 7.5c0 .3.1.6.4.8s.7.3 1.3.3c.8 0 1.4-.1 1.8-.4s.6-.6.6-1c0-.3-.1-.6-.3-.7s-.6-.2-1.2-.2h-1.2c-.4 0-.8.1-1 .3s-.4.5-.4.9zm.5-5.4c0 .4.1.8.4 1s.6.3 1.1.3c.9 0 1.4-.5 1.4-1.4 0-1-.5-1.4-1.4-1.4-.5 0-.8.1-1.1.4s-.4.6-.4 1.1zm5.8-3.8c0-.2.1-.4.2-.5s.2-.2.4-.2.3.1.4.2.2.3.2.5-.1.4-.2.5-.2.2-.4.2-.3-.1-.4-.2-.2-.3-.2-.5zm1.1 8.2h-1v-6.4h1v6.4zm6.4 0v-4.2c0-.5-.1-.9-.4-1.2s-.6-.4-1.1-.4c-.7 0-1.2.2-1.5.5s-.5 1-.5 1.8v3.4h-1v-6.4h.8l.2.9c.2-.3.5-.6.8-.7s.8-.3 1.2-.3c.8 0 1.4.2 1.7.6s.6 1 .6 1.8v4.2h-.8zm5.7.1c-.9 0-1.7-.3-2.2-.9s-.8-1.4-.8-2.4.3-1.9.8-2.5 1.2-.9 2.1-.9c.8 0 1.4.3 1.9.8s.7 1.2.7 2.1v.6H584c0 .8.2 1.3.6 1.7s.9.6 1.5.6c.7 0 1.4-.1 2.1-.4v.9c-.3.1-.7.3-1 .3s-.9.1-1.3.1zm-.2-5.9c-.5 0-.9.2-1.2.5s-.5.8-.5 1.4h3.4c0-.6-.1-1.1-.4-1.4s-.8-.5-1.3-.5zm76.3-8.5c0 .8-.3 1.3-.8 1.8s-1.3.6-2.2.6c-1 0-1.8-.1-2.3-.4v-1c.4.1.7.3 1.1.4s.8.1 1.2.1c.7 0 1.2-.1 1.5-.4s.5-.6.5-1.1c0-.3-.1-.5-.2-.7s-.3-.4-.6-.5-.7-.3-1.3-.5c-.8-.3-1.4-.6-1.7-1s-.5-.9-.5-1.5c0-.7.2-1.2.7-1.6s1.2-.6 2-.6c.9 0 1.6.2 2.3.5l-.3.9c-.7-.3-1.4-.4-2.1-.4-.5 0-.9.1-1.2.3s-.4.5-.4.9c0 .3.1.5.2.7s.3.4.6.5.7.3 1.2.5c.9.3 1.5.7 1.9 1s.4.9.4 1.5zm4.3 2.4c-.9 0-1.7-.3-2.2-.9s-.8-1.4-.8-2.4.3-1.9.8-2.5 1.2-.9 2.1-.9c.8 0 1.4.3 1.9.8s.7 1.2.7 2.1v.6h-4.4c0 .8.2 1.3.6 1.7s.9.6 1.5.6c.7 0 1.4-.1 2.1-.4v.9c-.3.1-.7.3-1 .3s-.8.1-1.3.1zm-.2-5.9c-.5 0-.9.2-1.2.5s-.5.8-.5 1.4h3.4c0-.6-.1-1.1-.4-1.4s-.8-.5-1.3-.5zm5.2 5.8h-1v-9.1h1v9.1zm4.8.1c-.9 0-1.7-.3-2.2-.9s-.8-1.4-.8-2.4.3-1.9.8-2.5 1.2-.9 2.1-.9c.8 0 1.4.3 1.9.8s.7 1.2.7 2.1v.6H674c0 .8.2 1.3.6 1.7s.9.6 1.5.6c.7 0 1.4-.1 2.1-.4v.9c-.3.1-.7.3-1 .3s-.7.1-1.1.1zm-.3-5.9c-.5 0-.9.2-1.2.5s-.5.8-.5 1.4h3.4c0-.6-.1-1.1-.4-1.4s-.8-.5-1.3-.5zm8.7 5.8v-4.2c0-.5-.1-.9-.4-1.2s-.6-.4-1.1-.4c-.7 0-1.2.2-1.5.5s-.5 1-.5 1.8v3.4h-1v-6.4h.8l.2.9c.2-.3.5-.6.8-.7s.8-.3 1.2-.3c.8 0 1.4.2 1.7.6s.6 1 .6 1.8v4.2h-.8zm2.9-8.2c0-.2.1-.4.2-.5s.2-.2.4-.2.3.1.4.2.2.3.2.5-.1.4-.2.5-.2.2-.4.2-.3-.1-.4-.2-.2-.3-.2-.5zm1 8.2h-1v-6.4h1v6.4zm3-6.5v4.2c0 .5.1.9.4 1.2s.6.4 1.1.4c.7 0 1.2-.2 1.5-.6s.5-1 .5-1.8v-3.4h1v6.4h-.9l-.1-.9h-.1c-.2.3-.5.6-.8.7s-.8.3-1.2.3c-.8 0-1.4-.2-1.8-.6s-.6-1-.6-1.8V180h1zm14.7 6.5v-4.2c0-.5-.1-.9-.3-1.2s-.6-.4-1-.4c-.6 0-1.1.2-1.3.5s-.4.9-.4 1.6v3.6h-1v-4.2c0-.5-.1-.9-.3-1.2s-.6-.4-1-.4c-.6 0-1.1.2-1.3.5s-.4 1-.4 1.8v3.4h-1V180h.8l.2.9c.2-.3.4-.6.8-.7s.7-.3 1.1-.3c1 0 1.7.4 2 1.1.2-.3.5-.6.8-.8s.8-.3 1.2-.3c.7 0 1.3.2 1.6.6s.5 1 .5 1.8v4.2h-1zm-35.2 11.1c-.5.7-1.2 1-2.1 1-.8 0-1.5-.3-2-.9s-.7-1.4-.7-2.4.2-1.9.7-2.5 1.1-.9 2-.9c.9 0 1.5.3 2 .9h.1v-3.6h1v9.1h-.8l-.2-.7zm-1.9.2c.7 0 1.1-.2 1.4-.5s.4-.9.4-1.7v-.2c0-.9-.2-1.6-.5-1.9s-.8-.6-1.5-.6c-.6 0-1 .2-1.3.7s-.5 1.1-.5 1.9c0 .8.2 1.4.5 1.9s.9.4 1.5.4zm7.8-5.9c.3 0 .5 0 .8.1l-.1.9c-.3-.1-.5-.1-.7-.1-.5 0-1 .2-1.3.6s-.6.9-.6 1.6v3.4h-1v-6.4h.8l.1 1.2c.2-.4.5-.7.9-1s.7-.3 1.1-.3zm1.9-1.6c0-.2.1-.4.2-.5s.2-.2.4-.2.3.1.4.2.2.3.2.5-.1.4-.2.5-.2.2-.4.2-.3-.1-.4-.2-.2-.3-.2-.5zm1.1 8.2h-1v-6.4h1v6.4zm3.5 0-2.4-6.4h1l1.4 3.8c.3.9.5 1.5.6 1.7 0-.2.2-.6.4-1.3s.7-2.1 1.5-4.3h1l-2.4 6.4h-1.1zm7.3.1c-.9 0-1.7-.3-2.2-.9s-.8-1.4-.8-2.4.3-1.9.8-2.5 1.2-.9 2.1-.9c.8 0 1.4.3 1.9.8s.7 1.2.7 2.1v.6h-4.4c0 .8.2 1.3.6 1.7s.9.6 1.5.6c.7 0 1.4-.1 2.1-.4v.9c-.3.1-.7.3-1 .3s-.9.1-1.3.1zm-.3-5.9c-.5 0-.9.2-1.2.5s-.5.8-.5 1.4h3.4c0-.6-.1-1.1-.4-1.4s-.8-.5-1.3-.5zm7.2-.8c.3 0 .5 0 .8.1l-.1.9c-.3-.1-.5-.1-.7-.1-.5 0-1 .2-1.3.6s-.6.9-.6 1.6v3.4h-1v-6.4h.8l.1 1.2c.2-.4.5-.7.9-1s.7-.3 1.1-.3zM548.9 292.3c0 1.4-.3 2.4-1 3.2s-1.7 1.2-2.9 1.2c-1.3 0-2.2-.4-2.9-1.2s-1-1.9-1-3.3.3-2.5 1-3.2 1.7-1.2 2.9-1.2 2.2.4 2.9 1.2 1 1.9 1 3.3zm-6.8 0c0 1.2.2 2 .7 2.6s1.2.9 2.2.9c.9 0 1.7-.3 2.2-.9s.7-1.5.7-2.6c0-1.2-.2-2-.7-2.6s-1.2-.9-2.1-.9c-.9 0-1.7.3-2.2.9s-.8 1.4-.8 2.6zm11.5 4.4c-.4 0-.8-.1-1.1-.2s-.6-.4-.9-.7h-.1c0 .4.1.7.1 1.1v2.6h-1v-9.3h.8l.1.9c.2-.4.5-.6.9-.8s.7-.2 1.1-.2c.9 0 1.5.3 2 .9s.7 1.4.7 2.4c0 1.1-.2 1.9-.7 2.5s-1 .8-1.9.8zm-.1-5.9c-.7 0-1.1.2-1.4.5s-.4.9-.5 1.7v.2c0 .9.2 1.5.5 1.9s.8.6 1.4.6c.6 0 1-.2 1.3-.7s.5-1.1.5-1.9c0-.8-.2-1.4-.5-1.8s-.7-.5-1.3-.5zm7.2 5.9c-.9 0-1.7-.3-2.2-.9s-.8-1.4-.8-2.4.3-1.9.8-2.5 1.2-.9 2.1-.9c.8 0 1.4.3 1.9.8s.7 1.2.7 2.1v.6h-4.4c0 .8.2 1.3.6 1.7s.9.6 1.5.6c.7 0 1.4-.1 2.1-.4v.9c-.3.1-.7.3-1 .3s-.8.1-1.3.1zm-.2-5.9c-.5 0-.9.2-1.2.5s-.5.8-.5 1.4h3.4c0-.6-.1-1.1-.4-1.4s-.8-.5-1.3-.5zm8.6 5.8v-4.2c0-.5-.1-.9-.4-1.2s-.6-.4-1.1-.4c-.7 0-1.2.2-1.5.5s-.5 1-.5 1.8v3.4h-1v-6.4h.8l.2.9c.2-.3.5-.6.8-.7s.8-.3 1.2-.3c.8 0 1.4.2 1.7.6s.6 1 .6 1.8v4.2h-.8zm7.1-1.8c0 .6-.2 1.1-.7 1.4s-1.1.5-1.9.5c-.9 0-1.5-.1-2-.4v-.9c.3.2.6.3 1 .4s.7.1 1 .1c.5 0 .9-.1 1.2-.2s.4-.4.4-.7c0-.2-.1-.5-.3-.6s-.6-.4-1.3-.6c-.6-.2-1-.4-1.3-.6s-.4-.4-.6-.6-.2-.5-.2-.8c0-.5.2-.9.6-1.2s1-.5 1.8-.5c.7 0 1.4.1 2 .4l-.3.8c-.6-.3-1.2-.4-1.8-.4-.5 0-.8.1-1 .2s-.4.3-.4.6c0 .2 0 .3.1.4s.2.2.4.3.6.3 1.1.5c.8.3 1.3.6 1.5.8s.7.7.7 1.1zm3.7 1.1h.5c.2 0 .3-.1.4-.1v.7c-.1.1-.3.1-.5.1h-.6c-1.2 0-1.9-.7-1.9-2v-3.8h-.8v-.5l.9-.4.4-1.4h.6v1.5h1.9v.8h-1.9v3.8c0 .4.1.7.3.9s.4.4.7.4zm6.1.7-.2-.9c-.3.4-.6.7-1 .8s-.7.2-1.2.2c-.6 0-1.1-.2-1.5-.5s-.5-.8-.5-1.4c0-1.3 1-2 3.1-2h1.1v-.4c0-.5-.1-.9-.3-1.1s-.6-.4-1-.4c-.5 0-1.1.2-1.8.5l-.3-.7c.3-.2.7-.3 1-.4s.8-.1 1.1-.1c.8 0 1.3.2 1.7.5s.6.9.6 1.6v4.4h-.8zm-2.2-.7c.6 0 1.1-.2 1.4-.5s.5-.8.5-1.4v-.6h-1c-.8 0-1.3.1-1.7.4s-.5.5-.5 1c0 .4.1.6.3.8s.6.3 1 .3zm7.5.8c-.9 0-1.6-.3-2.2-.9s-.8-1.4-.8-2.4c0-1.1.3-1.9.8-2.5s1.3-.9 2.2-.9c.3 0 .6 0 .9.1s.6.1.7.2l-.3.8c-.2-.1-.4-.2-.7-.2s-.5-.1-.7-.1c-1.3 0-2 .8-2 2.5 0 .8.2 1.4.5 1.8s.8.6 1.4.6c.5 0 1.1-.1 1.6-.3v.9c-.2.3-.7.4-1.4.4zm4.1-3.4c.2-.2.4-.6.8-.9l2.1-2.2h1.2l-2.6 2.7 2.8 3.7h-1.2l-2.3-3-.7.6v2.4h-1v-9.1h1v4.8c-.1.2-.1.5-.1 1zm62 3.3h-4.7v-.7l3.5-5H653v-.8h4.4v.8l-3.5 4.9h3.5v.8zm4.8-8.6-3.2 8.6h-1l3.2-8.6h1zm8.7 4.3c0 1.4-.3 2.4-1 3.2s-1.7 1.2-2.9 1.2c-1.3 0-2.2-.4-2.9-1.2s-1-1.9-1-3.3.3-2.5 1-3.2 1.7-1.2 2.9-1.2 2.2.4 2.9 1.2 1 1.9 1 3.3zm-6.8 0c0 1.2.2 2 .7 2.6s1.2.9 2.2.9c.9 0 1.7-.3 2.2-.9s.7-1.5.7-2.6c0-1.2-.2-2-.7-2.6s-1.2-.9-2.1-.9c-.9 0-1.7.3-2.2.9s-.8 1.4-.8 2.6zm13.6 2c0 .8-.3 1.3-.8 1.8s-1.3.6-2.2.6c-1 0-1.8-.1-2.3-.4v-1c.4.1.7.3 1.1.4s.8.1 1.2.1c.7 0 1.2-.1 1.5-.4s.5-.6.5-1.1c0-.3-.1-.5-.2-.7s-.3-.4-.6-.5-.7-.3-1.3-.5c-.8-.3-1.4-.6-1.7-1s-.5-.9-.5-1.5c0-.7.2-1.2.7-1.6s1.2-.6 2-.6c.9 0 1.6.2 2.3.5l-.3.9c-.7-.3-1.4-.4-2.1-.4-.5 0-.9.1-1.2.3s-.4.5-.4.9c0 .3.1.5.2.7s.3.4.6.5.7.3 1.2.5c.9.3 1.5.7 1.9 1s.4.9.4 1.5zm4.1-.5v-.9h2.9v.9h-2.9zm14.5-1.6c0 1.4-.4 2.5-1.2 3.2s-1.9 1.1-3.3 1.1h-2.4V288h2.6c1.3 0 2.4.4 3.1 1.1s1.2 1.8 1.2 3.1zm-1 0c0-1.1-.3-2-.8-2.5s-1.4-.8-2.5-.8h-1.4v6.8h1.2c1.2 0 2.1-.3 2.7-.9s.8-1.4.8-2.6zm3-4.2h2.4c1.1 0 2 .2 2.5.5s.8.9.8 1.6c0 .5-.1.9-.4 1.3s-.7.5-1.2.6v.1c1.3.2 2 .9 2 2.1 0 .8-.3 1.4-.8 1.8s-1.2.6-2.2.6h-3V288zm1 3.7h1.6c.7 0 1.2-.1 1.5-.3s.5-.6.5-1.1c0-.5-.2-.8-.5-1s-.9-.3-1.6-.3h-1.5v2.7zm0 .8v3.2h1.8c.7 0 1.2-.1 1.6-.4s.5-.7.5-1.3c0-.5-.2-.9-.5-1.2s-.9-.4-1.6-.4h-1.8zm11.8 4.1h-5.6v-.8l2.3-2.3c.7-.7 1.1-1.2 1.4-1.5s.4-.6.5-.9.2-.6.2-.9c0-.5-.1-.8-.4-1.1s-.7-.4-1.2-.4c-.4 0-.7.1-1 .2s-.7.3-1.1.6l-.5-.7c.8-.7 1.6-1 2.6-1 .8 0 1.4.2 1.9.6s.7 1 .7 1.7c0 .5-.2 1.1-.5 1.6s-.9 1.2-1.7 2l-1.9 1.8h4.4v1.1zm-166.5 104h-4.7v-.7l3.5-5h-3.3v-.8h4.4v.8l-3.5 4.9h3.5v.8zm4.7-8.6-3.2 8.6h-1l3.2-8.6h1zm8.8 4.3c0 1.4-.3 2.4-1 3.2s-1.7 1.2-2.9 1.2c-1.3 0-2.2-.4-2.9-1.2s-1-1.9-1-3.3.3-2.5 1-3.2 1.7-1.2 2.9-1.2 2.2.4 2.9 1.2 1 1.9 1 3.3zm-6.9 0c0 1.2.2 2 .7 2.6s1.2.9 2.2.9c.9 0 1.7-.3 2.2-.9s.7-1.5.7-2.6c0-1.2-.2-2-.7-2.6s-1.2-.9-2.1-.9c-.9 0-1.7.3-2.2.9s-.8 1.4-.8 2.6zm13.6 2c0 .8-.3 1.3-.8 1.8s-1.3.6-2.2.6c-1 0-1.8-.1-2.3-.4v-1c.4.1.7.3 1.1.4s.8.1 1.2.1c.7 0 1.2-.1 1.5-.4s.5-.6.5-1.1c0-.3-.1-.5-.2-.7s-.3-.4-.6-.5-.7-.3-1.3-.5c-.8-.3-1.4-.6-1.7-1s-.5-.9-.5-1.5c0-.7.2-1.2.7-1.6s1.2-.6 2-.6c.9 0 1.6.2 2.3.5l-.3.9c-.7-.3-1.4-.4-2.1-.4-.5 0-.9.1-1.2.3s-.4.5-.4.9c0 .3.1.5.2.7s.3.4.6.5.7.3 1.2.5c.9.3 1.5.7 1.9 1s.4.9.4 1.5zm4.2-.5v-.9h2.9v.9H569zm11.3-5c-.9 0-1.7.3-2.2.9s-.8 1.5-.8 2.6.3 2 .8 2.6 1.3.9 2.2.9c.6 0 1.3-.1 2-.3v.9c-.6.2-1.3.3-2.2.3-1.3 0-2.2-.4-2.9-1.1s-1-1.9-1-3.3c0-.9.2-1.7.5-2.3s.8-1.2 1.4-1.5 1.4-.5 2.2-.5c.9 0 1.7.2 2.4.5l-.4.9c-.7-.5-1.3-.6-2-.6zm3.9 7.8V392h1v8.6h-1zm7-7.8c-.9 0-1.7.3-2.2.9s-.8 1.5-.8 2.6.3 2 .8 2.6 1.3.9 2.2.9c.6 0 1.3-.1 2-.3v.9c-.6.2-1.3.3-2.2.3-1.3 0-2.2-.4-2.9-1.1s-1-1.9-1-3.3c0-.9.2-1.7.5-2.3s.8-1.2 1.4-1.5 1.4-.5 2.2-.5c.9 0 1.7.2 2.4.5l-.4.9c-.7-.5-1.3-.6-2-.6zm8.8 5.5c0 .8-.3 1.3-.8 1.8s-1.3.6-2.2.6c-1 0-1.8-.1-2.3-.4v-1c.4.1.7.3 1.1.4s.8.1 1.2.1c.7 0 1.2-.1 1.5-.4s.5-.6.5-1.1c0-.3-.1-.5-.2-.7s-.3-.4-.6-.5-.7-.3-1.3-.5c-.8-.3-1.4-.6-1.7-1s-.5-.9-.5-1.5c0-.7.2-1.2.7-1.6s1.2-.6 2-.6c.9 0 1.6.2 2.3.5l-.3.9c-.7-.3-1.4-.4-2.1-.4-.5 0-.9.1-1.2.3s-.4.5-.4.9c0 .3.1.5.2.7s.3.4.6.5.7.3 1.2.5c.9.3 1.5.7 1.9 1s.4.9.4 1.5zm59 2.3h-4.7v-.7l3.5-5h-3.3v-.8h4.4v.8l-3.5 4.9h3.5v.8zm4.8-8.6-3.2 8.6h-1l3.2-8.6h1zm8.7 4.3c0 1.4-.3 2.4-1 3.2s-1.7 1.2-2.9 1.2c-1.3 0-2.2-.4-2.9-1.2s-1-1.9-1-3.3.3-2.5 1-3.2 1.7-1.2 2.9-1.2 2.2.4 2.9 1.2 1 1.9 1 3.3zm-6.8 0c0 1.2.2 2 .7 2.6s1.2.9 2.2.9c.9 0 1.7-.3 2.2-.9s.7-1.5.7-2.6c0-1.2-.2-2-.7-2.6s-1.2-.9-2.1-.9c-.9 0-1.7.3-2.2.9s-.8 1.4-.8 2.6zm13.6 2c0 .8-.3 1.3-.8 1.8s-1.3.6-2.2.6c-1 0-1.8-.1-2.3-.4v-1c.4.1.7.3 1.1.4s.8.1 1.2.1c.7 0 1.2-.1 1.5-.4s.5-.6.5-1.1c0-.3-.1-.5-.2-.7s-.3-.4-.6-.5-.7-.3-1.3-.5c-.8-.3-1.4-.6-1.7-1s-.5-.9-.5-1.5c0-.7.2-1.2.7-1.6s1.2-.6 2-.6c.9 0 1.6.2 2.3.5l-.3.9c-.7-.3-1.4-.4-2.1-.4-.5 0-.9.1-1.2.3s-.4.5-.4.9c0 .3.1.5.2.7s.3.4.6.5.7.3 1.2.5c.9.3 1.5.7 1.9 1s.4.9.4 1.5zm4.1-.5v-.9h2.9v.9h-2.9zm11.5 2.8L692 393c.1.6.1 1.3.1 2.1v5.4h-.9V392h1.5l2.7 7.1 2.7-7.1h1.5v8.6h-1V395c0-.6 0-1.3.1-2.1l-2.9 7.6h-.9zm14.5-4.3c0 1.1-.2 2-.7 2.7s-1.1 1.2-1.9 1.5l2 2.1h-1.4l-1.7-1.9h-.3c-1.3 0-2.2-.4-2.9-1.2s-1-1.9-1-3.3.3-2.5 1-3.2 1.7-1.2 2.9-1.2 2.2.4 2.9 1.2 1.1 1.9 1.1 3.3zm-6.8 0c0 1.2.2 2 .7 2.6s1.2.9 2.2.9c.9 0 1.7-.3 2.2-.9s.7-1.5.7-2.6c0-1.2-.2-2-.7-2.6s-1.2-.9-2.1-.9c-.9 0-1.7.3-2.2.9s-.8 1.4-.8 2.6z"/>
    <path d="M377.2 285.6V277h1v8.6h-1zm7.6 0v-4.2c0-.5-.1-.9-.4-1.2s-.6-.4-1.1-.4c-.7 0-1.2.2-1.5.5s-.5 1-.5 1.8v3.4h-1v-6.4h.8l.2.9c.2-.3.5-.6.8-.7s.8-.3 1.2-.3c.8 0 1.4.2 1.7.6s.6 1 .6 1.8v4.2h-.8zm5-.7h.5c.2 0 .3-.1.4-.1v.7c-.1.1-.3.1-.5.1h-.6c-1.2 0-1.9-.7-1.9-2v-3.8h-.9v-.5l.9-.4.4-1.4h.6v1.5h1.9v.8h-1.9v3.8c0 .4.1.7.3.9s.5.4.8.4zm4.9.8c-.9 0-1.7-.3-2.2-.9s-.8-1.4-.8-2.4.3-1.9.8-2.5 1.2-.9 2.1-.9c.8 0 1.4.3 1.9.8s.7 1.2.7 2.1v.6h-4.4c0 .8.2 1.3.6 1.7s.9.6 1.5.6c.7 0 1.4-.1 2.1-.4v.9c-.3.1-.7.3-1 .3s-.9.1-1.3.1zm-.3-5.9c-.5 0-.9.2-1.2.5s-.5.8-.5 1.4h3.4c0-.6-.1-1.1-.4-1.4s-.8-.5-1.3-.5zm7.2-.8c.3 0 .5 0 .8.1l-.1.9c-.3-.1-.5-.1-.7-.1-.5 0-1 .2-1.3.6s-.6.9-.6 1.6v3.4h-1v-6.4h.8l.1 1.2c.2-.4.5-.7.9-1s.7-.3 1.1-.3zm6 6.6-.2-.9c-.3.4-.6.7-1 .8s-.7.2-1.2.2c-.6 0-1.1-.2-1.5-.5s-.5-.8-.5-1.4c0-1.3 1-2 3.1-2h1.1v-.4c0-.5-.1-.9-.3-1.1s-.6-.4-1-.4c-.5 0-1.1.2-1.8.5l-.3-.7c.3-.2.7-.3 1-.4s.8-.1 1.1-.1c.8 0 1.3.2 1.7.5s.6.9.6 1.6v4.4h-.8zm-2.2-.7c.6 0 1.1-.2 1.4-.5s.5-.8.5-1.4v-.6h-1c-.8 0-1.3.1-1.7.4s-.5.5-.5 1c0 .4.1.6.3.8s.6.3 1 .3zm7.4.8c-.9 0-1.6-.3-2.2-.9s-.8-1.4-.8-2.4c0-1.1.3-1.9.8-2.5s1.3-.9 2.2-.9c.3 0 .6 0 .9.1s.6.1.7.2l-.3.8c-.2-.1-.4-.2-.7-.2s-.5-.1-.7-.1c-1.3 0-2 .8-2 2.5 0 .8.2 1.4.5 1.8s.8.6 1.4.6c.5 0 1.1-.1 1.6-.3v.9c-.2.3-.7.4-1.4.4zm5.3-.8h.5c.2 0 .3-.1.4-.1v.7c-.1.1-.3.1-.5.1h-.6c-1.2 0-1.9-.7-1.9-2v-3.8h-.9v-.5l.9-.4.4-1.4h.6v1.5h1.9v.8H417v3.8c0 .4.1.7.3.9s.5.4.8.4zm10.5.7-1.2-3.8c-.1-.2-.2-.8-.4-1.6-.2.7-.3 1.2-.4 1.6l-1.2 3.8h-1.1l-1.8-6.4h1c.4 1.6.7 2.8.9 3.7s.3 1.4.4 1.7c0-.2.1-.5.2-.9s.2-.6.2-.8l1.2-3.7h1.1l1.1 3.7c.2.7.4 1.2.4 1.7 0-.1.1-.4.1-.7s.5-1.9 1.2-4.7h1l-1.8 6.4h-.9zm4-8.2c0-.2.1-.4.2-.5s.2-.2.4-.2.3.1.4.2.2.3.2.5-.1.4-.2.5-.2.2-.4.2-.3-.1-.4-.2-.2-.3-.2-.5zm1.1 8.2h-1v-6.4h1v6.4zm4.1-.7h.5c.2 0 .3-.1.4-.1v.7c-.1.1-.3.1-.5.1h-.6c-1.2 0-1.9-.7-1.9-2v-3.8h-.9v-.5l.9-.4.4-1.4h.6v1.5h1.9v.8h-1.9v3.8c0 .4.1.7.3.9s.5.4.8.4zm6.5.7v-4.2c0-.5-.1-.9-.4-1.2s-.6-.4-1.1-.4c-.7 0-1.2.2-1.5.6s-.5 1-.5 1.8v3.4h-1v-9.1h1v3.6h.1c.2-.3.5-.6.8-.7s.8-.3 1.2-.3c.8 0 1.4.2 1.8.6s.6 1 .6 1.8v4.2h-1zM380 295c.3 0 .5 0 .8.1l-.1.9c-.3-.1-.5-.1-.7-.1-.5 0-1 .2-1.3.6s-.6.9-.6 1.6v3.4h-1v-6.4h.8l.1 1.2c.2-.4.5-.7.9-1s.7-.3 1.1-.3zm4.6 6.7c-.9 0-1.7-.3-2.2-.9s-.8-1.4-.8-2.4.3-1.9.8-2.5 1.2-.9 2.1-.9c.8 0 1.4.3 1.9.8s.7 1.2.7 2.1v.6h-4.4c0 .8.2 1.3.6 1.7s.9.6 1.5.6c.7 0 1.4-.1 2.1-.4v.9c-.3.1-.7.3-1 .3s-.8.1-1.3.1zm-.2-5.9c-.5 0-.9.2-1.2.5s-.5.8-.5 1.4h3.4c0-.6-.1-1.1-.4-1.4s-.8-.5-1.3-.5zm8.4 4c0 .6-.2 1.1-.7 1.4s-1.1.5-1.9.5c-.9 0-1.5-.1-2-.4v-.9c.3.2.6.3 1 .4s.7.1 1 .1c.5 0 .9-.1 1.2-.2s.4-.4.4-.7c0-.2-.1-.5-.3-.6s-.6-.4-1.3-.6c-.6-.2-1-.4-1.3-.6s-.4-.4-.6-.6-.2-.5-.2-.8c0-.5.2-.9.6-1.2s1-.5 1.8-.5c.7 0 1.4.1 2 .4l-.3.8c-.6-.3-1.2-.4-1.8-.4-.5 0-.8.1-1 .2s-.4.3-.4.6c0 .2 0 .3.1.4s.2.2.4.3.6.3 1.1.5c.8.3 1.3.6 1.5.8s.7.7.7 1.1zm7.1-1.5c0 1-.3 1.9-.8 2.5s-1.3.9-2.2.9c-.6 0-1.1-.1-1.5-.4s-.8-.7-1-1.2-.4-1.1-.4-1.8c0-1 .3-1.9.8-2.4s1.2-.9 2.2-.9c.9 0 1.6.3 2.1.9s.8 1.4.8 2.4zm-4.9 0c0 .8.2 1.4.5 1.9s.8.6 1.4.6 1.1-.2 1.5-.6.5-1.1.5-1.9c0-.8-.2-1.4-.5-1.9s-.8-.6-1.5-.6c-.6 0-1.1.2-1.4.6s-.5 1.1-.5 1.9zm7.5-3.2v4.2c0 .5.1.9.4 1.2s.6.4 1.1.4c.7 0 1.2-.2 1.5-.6s.5-1 .5-1.8v-3.4h1v6.4h-.8l-.1-.9h-.1c-.2.3-.5.6-.8.7s-.8.3-1.2.3c-.8 0-1.4-.2-1.8-.6s-.6-1-.6-1.8V295h.9zm9.4-.1c.3 0 .5 0 .8.1l-.1.9c-.3-.1-.5-.1-.7-.1-.5 0-1 .2-1.3.6s-.6.9-.6 1.6v3.4h-1v-6.4h.8l.1 1.2c.2-.4.5-.7.9-1s.7-.3 1.1-.3zm4.6 6.7c-.9 0-1.6-.3-2.2-.9s-.8-1.4-.8-2.4c0-1.1.3-1.9.8-2.5s1.3-.9 2.2-.9c.3 0 .6 0 .9.1s.6.1.7.2l-.3.8c-.2-.1-.4-.2-.7-.2s-.5-.1-.7-.1c-1.3 0-2 .8-2 2.5 0 .8.2 1.4.5 1.8s.8.6 1.4.6c.5 0 1.1-.1 1.6-.3v.9c-.2.3-.8.4-1.4.4zm5.8 0c-.9 0-1.7-.3-2.2-.9s-.8-1.4-.8-2.4.3-1.9.8-2.5 1.2-.9 2.1-.9c.8 0 1.4.3 1.9.8s.7 1.2.7 2.1v.6h-4.4c0 .8.2 1.3.6 1.7s.9.6 1.5.6c.7 0 1.4-.1 2.1-.4v.9c-.3.1-.7.3-1 .3s-.8.1-1.3.1zm-.2-5.9c-.5 0-.9.2-1.2.5s-.5.8-.5 1.4h3.4c0-.6-.1-1.1-.4-1.4s-.8-.5-1.3-.5zm8.4 4c0 .6-.2 1.1-.7 1.4s-1.1.5-1.9.5c-.9 0-1.5-.1-2-.4v-.9c.3.2.6.3 1 .4s.7.1 1 .1c.5 0 .9-.1 1.2-.2s.4-.4.4-.7c0-.2-.1-.5-.3-.6s-.6-.4-1.3-.6c-.6-.2-1-.4-1.3-.6s-.4-.4-.6-.6-.2-.5-.2-.8c0-.5.2-.9.6-1.2s1-.5 1.8-.5c.7 0 1.4.1 2 .4l-.3.8c-.6-.3-1.2-.4-1.8-.4-.5 0-.8.1-1 .2s-.4.3-.4.6c0 .2 0 .3.1.4s.2.2.4.3.6.3 1.1.5c.8.3 1.3.6 1.5.8s.7.7.7 1.1zm7.4 1.9c-.9 0-1.7-.3-2.2-.9s-.8-1.4-.8-2.4.3-1.9.8-2.5 1.2-.9 2.1-.9c.8 0 1.4.3 1.9.8s.7 1.2.7 2.1v.6H436c0 .8.2 1.3.6 1.7s.9.6 1.5.6c.7 0 1.4-.1 2.1-.4v.9c-.3.1-.7.3-1 .3s-.9.1-1.3.1zm-.3-5.9c-.5 0-.9.2-1.2.5s-.5.8-.5 1.4h3.4c0-.6-.1-1.1-.4-1.4s-.8-.5-1.3-.5zm4.2 5.1c0-.3.1-.5.2-.6s.3-.2.5-.2.4.1.5.2.2.3.2.6-.1.4-.2.6-.3.2-.5.2-.4-.1-.5-.2-.2-.3-.2-.6zm8.6-5.8v.6l-1.2.1c.1.1.2.3.3.5s.1.5.1.7c0 .6-.2 1.1-.6 1.5s-1 .6-1.8.6h-.5c-.4.2-.6.5-.6.8 0 .2.1.3.2.4s.4.1.7.1h1.1c.7 0 1.2.1 1.6.4s.6.7.6 1.3c0 .7-.3 1.3-.9 1.6s-1.4.6-2.5.6c-.8 0-1.5-.2-1.9-.5s-.7-.8-.7-1.3c0-.4.1-.7.4-1s.6-.5 1.1-.6c-.2-.1-.3-.2-.4-.3s-.2-.3-.2-.5.1-.4.2-.6.3-.3.6-.5c-.3-.1-.6-.4-.8-.7s-.3-.7-.3-1.1c0-.7.2-1.2.6-1.6s1-.6 1.8-.6c.3 0 .6 0 .9.1h2.2zm-5.2 7.5c0 .3.1.6.4.8s.7.3 1.3.3c.8 0 1.4-.1 1.8-.4s.6-.6.6-1c0-.3-.1-.6-.3-.7s-.6-.2-1.2-.2h-1.2c-.4 0-.8.1-1 .3s-.4.5-.4.9zm.6-5.4c0 .4.1.8.4 1s.6.3 1.1.3c.9 0 1.4-.5 1.4-1.4 0-1-.5-1.4-1.4-1.4-.5 0-.8.1-1.1.4s-.4.6-.4 1.1zm5.7 3.7c0-.3.1-.5.2-.6s.3-.2.5-.2.4.1.5.2.2.3.2.6-.1.4-.2.6-.3.2-.5.2-.4-.1-.5-.2-.2-.3-.2-.6z" class="galasa-ecosystem-architecture_svg__st6"/>
  </g>
</svg>
