<?xml version="1.0" encoding="utf-8"?>
<!-- Generator: Adobe Illustrator 24.3.0, SVG Export Plug-In . SVG Version: 6.00 Build 0)  -->
<svg version="1.1" xmlns="http://www.w3.org/2000/svg" xmlns:xlink="http://www.w3.org/1999/xlink" x="0px" y="0px"
	 viewBox="0 0 730 560" style="enable-background:new 0 0 730 560;" xml:space="preserve">
<style type="text/css">
	.st0{fill:#FFFFFF;}
	.st1{fill:none;stroke:#000000;stroke-miterlimit:10;}
	.st2{fill:none;stroke:#000000;stroke-miterlimit:10;stroke-dasharray:0.9959,3.9836;}
	.st3{fill:none;stroke:#000000;stroke-miterlimit:10;stroke-dasharray:0.9964,3.9857;}
	.st4{fill:none;stroke:#000000;stroke-miterlimit:10;stroke-dasharray:1.0022,4.0088;}
	.st5{fill:none;stroke:#000000;stroke-miterlimit:10;stroke-dasharray:0.9976,3.9903;}
	.st6{fill:#161616;}
	.st7{fill:#003594;}
	.st8{fill:#393939;}
	.st9{fill:#8D8D8D;}
	.st10{fill:#9EBAE3;}
	.st11{fill:#DFECFF;}
	.st12{clip-path:url(#SVGID_2_);fill:#003594;}
	.st13{clip-path:url(#SVGID_4_);fill:#0F55BA;}
	.st14{clip-path:url(#SVGID_6_);fill:#9EBAE3;}
	.st15{clip-path:url(#SVGID_8_);fill:#002A66;}
	.st16{clip-path:url(#SVGID_10_);fill:#FFDB12;}
	.st17{clip-path:url(#SVGID_12_);fill:#f0b323;}
	.st18{clip-path:url(#SVGID_14_);}
	.st19{clip-path:url(#SVGID_16_);fill:#FFFFFF;}
	.st20{clip-path:url(#SVGID_18_);fill:#161616;}
	.st21{clip-path:url(#SVGID_20_);fill:#262626;}
	.st22{clip-path:url(#SVGID_22_);fill:#393939;}
	.st23{clip-path:url(#SVGID_24_);fill:#525252;}
	.st24{clip-path:url(#SVGID_26_);fill:#6F6F6F;}
	.st25{clip-path:url(#SVGID_28_);fill:#DFECFF;}
	.st26{clip-path:url(#SVGID_30_);fill:#F8F788;}
	.st27{clip-path:url(#SVGID_32_);fill:#8D8D8D;}
	.st28{clip-path:url(#SVGID_34_);fill:#A8A8A8;}
	.st29{clip-path:url(#SVGID_36_);fill:#C6C6C6;}
	.st30{clip-path:url(#SVGID_38_);fill:#E0E0E0;}
	.st31{clip-path:url(#SVGID_40_);fill:#F4F4F4;}
	.st32{clip-path:url(#SVGID_42_);fill:#D62525;}
	.st33{fill:#002A66;}
	.st34{fill:#0F55BA;}
	.st35{fill:#262626;}
	.st36{fill:#525252;}
	.st37{fill:#6F6F6F;}
	.st38{fill:#A8A8A8;}
	.st39{fill:#C6C6C6;}
	.st40{fill:#E0E0E0;}
	.st41{fill:#F4F4F4;}
	.st42{fill:#FFDB12;}
	.st43{fill:#f0b323;}
	.st44{fill:#F8F788;}
	.st45{fill:#FF832B;}
	.st46{fill:#EFA284;}
	.st47{fill:none;stroke:#000000;stroke-linecap:round;stroke-linejoin:round;stroke-miterlimit:10;}
	.st48{fill:none;stroke:#000000;stroke-linecap:round;stroke-miterlimit:10;}
	.st49{fill:#F8F8F8;}
	.st50{fill:none;stroke:#000000;stroke-miterlimit:10;stroke-dasharray:0.9956,3.9826;}
	.st51{fill:none;stroke:#000000;stroke-miterlimit:10;stroke-dasharray:1.002,4.0081;}
	.st52{fill:none;stroke:#161616;stroke-miterlimit:10;}
	.st53{fill:none;stroke:#000000;stroke-miterlimit:10;stroke-dasharray:1.0024,4.0094;}
	.st54{fill:none;stroke:#000000;stroke-miterlimit:10;stroke-dasharray:1.0057,4.0229;}
	.st55{fill:none;stroke:#000000;stroke-miterlimit:10;stroke-dasharray:1,4;}
</style>
<g id="images_1_">
	<g>
		<rect x="1" y="1" class="st0" width="488" height="558"/>
		<g>
			<polyline class="st1" points="489,558.5 489,559 488.5,559 			"/>
			<line class="st2" x1="484.5" y1="559" x2="3.5" y2="559"/>
			<polyline class="st1" points="1.5,559 1,559 1,558.5 			"/>
			<line class="st3" x1="1" y1="554.5" x2="1" y2="3.5"/>
			<polyline class="st1" points="1,1.5 1,1 1.5,1 			"/>
			<line class="st2" x1="5.5" y1="1" x2="486.5" y2="1"/>
			<polyline class="st1" points="488.5,1 489,1 489,1.5 			"/>
			<line class="st3" x1="489" y1="5.5" x2="489" y2="556.5"/>
		</g>
	</g>
	<g>
		<rect x="16" y="48" class="st49" width="458" height="496"/>
		<g>
			<polyline class="st1" points="474,48.5 474,48 473.5,48 			"/>
			<line class="st50" x1="469.5" y1="48" x2="18.5" y2="48"/>
			<polyline class="st1" points="16.5,48 16,48 16,48.5 			"/>
			<line class="st51" x1="16" y1="52.5" x2="16" y2="541.5"/>
			<polyline class="st1" points="16,543.5 16,544 16.5,544 			"/>
			<line class="st50" x1="20.5" y1="544" x2="471.5" y2="544"/>
			<polyline class="st1" points="473.5,544 474,544 474,543.5 			"/>
			<line class="st51" x1="474" y1="539.5" x2="474" y2="50.5"/>
		</g>
	</g>
	<g>
		<rect x="248.5" y="400.5" class="st46" width="159" height="23"/>
		<path d="M407,401v22H249v-22H407 M408,400H248v24h160V400L408,400z"/>
	</g>
	<g>
		<rect x="248.5" y="423.5" class="st0" width="159" height="88"/>
		<path d="M407,424v87H249v-87H407 M407.9,423H248.1c0,0-0.1,0-0.1,0.1V512h160L407.9,423C408,423,408,423,407.9,423L407.9,423z"/>
	</g>
	<g>
		<rect x="232.5" y="368.5" class="st46" width="159" height="23"/>
		<path d="M391,369v22H233v-22H391 M392,368H232v24h160V368L392,368z"/>
	</g>
	<g>
		<rect x="232.5" y="391.5" class="st0" width="159" height="88"/>
		<path d="M391,392v87H233v-87H391 M391.9,391H232.1c0,0-0.1,0-0.1,0.1V480h160L391.9,391C392,391,392,391,391.9,391L391.9,391z"/>
	</g>
	<g>
		<rect x="216.5" y="336.5" class="st46" width="159" height="23"/>
		<path d="M375,337v22H217v-22H375 M376,336H216v24h160V336L376,336z"/>
	</g>
	<g>
		<rect x="216.5" y="358.5" class="st0" width="159" height="89"/>
		<path d="M375,359v88H217v-88H375 M375.9,358H216.1c0,0-0.1,0-0.1,0.1V448h160L375.9,358C376,358,376,358,375.9,358L375.9,358z"/>
	</g>
	<g>
		<rect x="200.5" y="304.5" class="st46" width="159" height="23"/>
		<path d="M359,305v22H201v-22H359 M360,304H200v24h160V304L360,304z"/>
	</g>
	<g>
		<rect x="200.5" y="327.5" class="st0" width="159" height="88"/>
		<path d="M359,328v87H201v-87H359 M360,327H200v89h160V327L360,327z"/>
	</g>
	<g>
		<rect x="522.5" y="144.5" class="st0" width="95" height="87"/>
		<path d="M617,145v86h-94l0-86H617 M618,144h-96c0,0,0,0,0,0v88h96c0,0,0,0,0,0L618,144C618,144,618,144,618,144L618,144z"/>
	</g>
	<g>
		<rect x="32.5" y="431.5" class="st0" width="127" height="64"/>
		<path d="M159,432v63H33v-63H159 M160,431H32v65h128V431L160,431z"/>
	</g>
	<g>
		<rect x="32.5" y="408.5" class="st44" width="127" height="23"/>
		<path d="M159,409v22H33v-22H159 M160,408H32v24h128V408L160,408z"/>
	</g>
	<g>
		<rect x="32.5" y="327.5" class="st0" width="127" height="64"/>
		<path d="M159,328v63H33v-63H159 M159.9,327H32.1c-0.1,0-0.1,0.1-0.1,0.1V392h128v-64.9C160,327.1,159.9,327,159.9,327L159.9,327z"
			/>
	</g>
	<g>
		<rect x="32.5" y="304.5" class="st44" width="127" height="23"/>
		<path d="M159,305v22H33v-22H159 M160,304H32v24h128V304L160,304z"/>
	</g>
	<g>
		<rect x="32.5" y="223.5" class="st0" width="127" height="64"/>
		<path d="M159,224v63H33v-63H159 M159.9,223H32.1c-0.1,0-0.1,0.1-0.1,0.1V288h128v-64.9C160,223.1,159.9,223,159.9,223L159.9,223z"
			/>
	</g>
	<g>
		<rect x="32.5" y="200.5" class="st44" width="127" height="23"/>
		<path d="M159,201v22H33v-22H159 M160,200H32v24h128V200L160,200z"/>
	</g>
	<g>
		<rect x="200.5" y="223.5" class="st0" width="135" height="64"/>
		<path d="M335,224v63H201v-63H335 M336,223H200v65h136V223L336,223z"/>
	</g>
	<path class="st6" d="M278.5,264v-7v-1h-1h-9v-8h3.5v-6h-8v6h3.5v8h-9h-1v1v7H254v6h8v-6h-3.5v-7h9v7H264v6h8v-6h-3.5v-7h9v7H274v6
		h8v-6H278.5z M265,247v-4h6v4h-2.5h-1H265z M261,265v4h-6v-4h2.5h1H261z M271,265v4h-6v-4h2.5h1H271z M281,269h-6v-4h6V269z"/>
	<g>
		<rect x="200.5" y="200.5" class="st44" width="135" height="23"/>
		<path d="M335,201v22H201v-22H335 M336,200H200v24h136V200L336,200z"/>
	</g>
	<g>
		<rect x="32.5" y="119.5" class="st0" width="127" height="64"/>
		<path d="M159,120v63H33v-63H159 M160,119H32v65h128V119L160,119z"/>
	</g>
	<path class="st6" d="M82,141v5h2v17h24v-17h2v-5H82z M107,162H85v-16h22V162z M109,145H83v-3h26V145z M100,149h-8v4h8V149z M99,152
		h-6v-2h6V152z"/>
	<g>
		<rect x="32.5" y="96.5" class="st44" width="127" height="23"/>
		<path d="M159,97v22H33V97H159 M160,96H32v24h128V96L160,96z"/>
	</g>
	<g>
		<rect x="634.5" y="144.5" class="st0" width="95" height="87"/>
		<path d="M729,145v86h-94l0-86H729 M730,144h-96c0,0,0,0,0,0v88h96c0,0,0,0,0,0L730,144C730,144,730,144,730,144L730,144z"/>
	</g>
	<g>
		<rect x="522.5" y="248.5" class="st0" width="95" height="87"/>
		<path d="M617,249v86h-94v-86H617 M618,248h-96v88h96L618,248C618,248,618,248,618,248L618,248z"/>
	</g>
	<g>
		<rect x="634.5" y="248.5" class="st0" width="95" height="87"/>
		<path d="M729,249v86h-94v-86H729 M730,248h-96v88h96L730,248C730,248,730,248,730,248L730,248z"/>
	</g>
	<g>
		<rect x="522.5" y="352.5" class="st0" width="95" height="87"/>
		<path d="M617,353v86h-94l0-86H617 M618,352h-96c0,0,0,0,0,0v88h96c0,0,0,0,0,0L618,352C618,352,618,352,618,352L618,352z"/>
	</g>
	<g>
		<rect x="634.5" y="352.5" class="st0" width="95" height="87"/>
		<path d="M729,353v86h-94v-86H729 M730,352h-96v88h96V352L730,352z"/>
	</g>
	<rect x="505" y="127" class="st6" width="33" height="1"/>
	<rect x="346" y="315.5" class="st6" width="160" height="1"/>
	<rect x="505" y="456" class="st6" width="33" height="1"/>
	<rect x="505" y="127.8" class="st6" width="1" height="329"/>
	<g>
		<g>
			<path class="st6" d="M93.1,469.9c-0.7,0-1.4,0.2-2.1,0.5c-2.5,1.2-3.6,4.2-2.4,6.7c0.8,1.8,2.6,2.9,4.5,2.9
				c0.7,0,1.4-0.2,2.1-0.5c2.5-1.2,3.6-4.2,2.4-6.7C96.8,470.9,95,469.9,93.1,469.9z M96.9,476.3c-0.4,1-1.1,1.8-2.1,2.3
				c-0.5,0.3-1.1,0.4-1.7,0.4c-1.5,0-3-0.9-3.6-2.3c-0.4-1-0.5-2.1-0.1-3.1c0.4-1,1.1-1.8,2.1-2.3c0.5-0.3,1.1-0.4,1.7-0.4
				c1.5,0,3,0.9,3.6,2.3C97.2,474.2,97.2,475.3,96.9,476.3z"/>
		</g>
		<g>
			<path class="st6" d="M93.1,472.9c-0.3,0-0.6,0.1-0.8,0.2c-1,0.5-1.4,1.7-1,2.7c0.3,0.7,1.1,1.2,1.8,1.2c0.3,0,0.6-0.1,0.8-0.2
				c1-0.5,1.4-1.7,1-2.7C94.6,473.3,93.9,472.9,93.1,472.9z M93.6,475.9c-0.1,0.1-0.3,0.1-0.4,0.1c-0.4,0-0.7-0.2-0.9-0.6
				c-0.2-0.5,0-1.1,0.5-1.3c0.1-0.1,0.3-0.1,0.4-0.1c0.4,0,0.7,0.2,0.9,0.6C94.3,475,94.1,475.6,93.6,475.9z"/>
		</g>
		<g>
			<path class="st6" d="M104.8,454.9L94,460l4.2,9.2L109,464L104.8,454.9z M95.3,460.5l9-4.3l3.4,7.3l-9,4.3L95.3,460.5z"/>
		</g>
		<g>
			<polygon class="st6" points="99,471 99.4,471.9 104.9,469.4 104.4,468.4 			"/>
		</g>
		<g>
			<polygon class="st6" points="94.2,467.7 95.1,467.3 88.8,453.5 88.8,453.5 88.4,452.6 88.4,452.6 86.3,448 85.4,448.4 87.5,453 
				83,455.2 83.4,456.1 87.9,453.9 			"/>
		</g>
	</g>
	<g>
		<path class="st6" d="M260.9,373.8l6-6c0.2-0.2,0.2-0.5,0-0.7c-0.2-0.2-0.5-0.2-0.7,0l-5.2,5.2c0-0.2,0-0.4,0-0.5
			c0-10.8,8.8-19.5,19.5-19.5c8.6,0,16.3,5.8,18.8,14c0.1,0.3,0.4,0.4,0.6,0.3c0.3-0.1,0.4-0.4,0.3-0.6
			c-2.5-8.7-10.7-14.7-19.7-14.7c-11.3,0-20.5,9.2-20.5,20.5c0,0.1,0,0.2,0,0.4l-5.1-5.1c-0.2-0.2-0.5-0.2-0.7,0
			c-0.2,0.2-0.2,0.5,0,0.7l6,6c0.1,0.1,0.2,0.1,0.4,0.1S260.8,373.9,260.9,373.8z"/>
		<path class="st6" d="M306.9,375.1l-6-6c-0.2-0.2-0.5-0.2-0.7,0l-6,6c-0.2,0.2-0.2,0.5,0,0.7c0.2,0.2,0.5,0.2,0.7,0l5.1-5.1
			c0,0.4,0,0.7,0,1.1c0,10.8-8.8,19.5-19.5,19.5c-9.1,0-17-6.2-19-15.1c-0.1-0.3-0.3-0.4-0.6-0.4c-0.3,0.1-0.4,0.3-0.4,0.6
			c2.2,9.3,10.4,15.8,20,15.8c11.3,0,20.5-9.2,20.5-20.5c0-0.4,0-0.8-0.1-1.2l5.2,5.2c0.1,0.1,0.2,0.1,0.4,0.1s0.3,0,0.4-0.1
			C307,375.6,307,375.3,306.9,375.1z"/>
	</g>
	<path class="st6" d="M93.7,246.1l-4.7-4h-7.5v21h11.8c0-0.2-0.1-0.5-0.1-0.7c0,1.2,0.4,2.3,1.1,3.1l-3.8,3.8l0.7,0.7l3.8-3.8
		c0.9,0.7,2,1.2,3.2,1.2c2.8,0,5.1-2.3,5.1-5.1c0,0.3,0,0.5-0.1,0.7h6.2v-17H93.7z M98.4,266.4c-2.2,0-4.1-1.8-4.1-4.1
		s1.8-4.1,4.1-4.1s4.1,1.8,4.1,4.1S100.6,266.4,98.4,266.4z M108.6,262.1h-5.2c-0.1-2.7-2.3-4.8-5-4.8s-4.9,2.1-5,4.8H82.6v-19h6.1
		l4.4,3.8l0.3,0.2h0.4h14.9V262.1z"/>
	<g>
		<path class="st6" d="M92.6,355h-5c-2.8,0-5,2.2-5,5s2.2,5,5,5h5v-2h3v-1h-3v-4h3v-1h-3V355z M91.6,364h-4c-2.2,0-4-1.8-4-4
			c0-2.2,1.8-4,4-4h4V364z"/>
		<path class="st6" d="M104.4,355h-5v10h5c2.8,0,5-2.2,5-5S107.2,355,104.4,355z M104.4,364h-4v-8h4c2.2,0,4,1.8,4,4
			C108.4,362.2,106.6,364,104.4,364z"/>
	</g>
</g>
<g id="text">
	<g>
		<path class="st6" d="M37.9,75.8c-1,0-1.9-0.2-2.6-0.7c-0.7-0.4-1.3-1.1-1.7-1.9S33,71.5,33,70.3c0-1.1,0.2-2.1,0.6-2.9
			c0.4-0.8,1-1.4,1.8-1.9c0.8-0.4,1.7-0.7,2.7-0.7c1.1,0,2,0.2,2.7,0.6c0.7,0.4,1.2,1,1.6,1.9l-1.6,0.8c-0.2-0.6-0.5-1-1-1.3
			c-0.5-0.3-1-0.4-1.7-0.4s-1.2,0.2-1.7,0.5c-0.5,0.3-0.9,0.8-1.2,1.4s-0.4,1.3-0.4,2.1c0,0.8,0.1,1.6,0.4,2.2
			c0.2,0.6,0.6,1,1.1,1.4s1.1,0.5,1.8,0.5c0.4,0,0.8-0.1,1.1-0.2c0.3-0.1,0.6-0.3,0.9-0.4c0.3-0.2,0.5-0.4,0.6-0.8
			c0.1-0.3,0.2-0.7,0.2-1.1v-0.3h-3.1v-1.4h4.6v5.4h-1.3L41,73.5l0.3,0.2c-0.3,0.7-0.7,1.2-1.3,1.6S38.8,75.8,37.9,75.8z"/>
		<path class="st6" d="M49.5,70.5c0-0.5-0.1-0.9-0.4-1.2c-0.3-0.3-0.7-0.4-1.2-0.4c-0.5,0-0.9,0.1-1.2,0.3c-0.3,0.2-0.6,0.6-0.8,1.1
			l-1.4-0.6c0.2-0.7,0.6-1.2,1.2-1.6s1.4-0.6,2.3-0.6c0.6,0,1.2,0.1,1.7,0.3c0.5,0.2,0.9,0.5,1.2,0.9c0.3,0.4,0.4,0.9,0.4,1.6v3.6
			c0,0.4,0.2,0.6,0.6,0.6c0.2,0,0.4,0,0.6-0.1l-0.1,1.2c-0.2,0.1-0.6,0.2-0.9,0.2c-0.3,0-0.6-0.1-0.9-0.2c-0.3-0.1-0.5-0.3-0.6-0.6
			c-0.2-0.3-0.2-0.6-0.2-0.9v-0.1l0.4,0c-0.1,0.4-0.3,0.8-0.6,1s-0.6,0.5-1,0.6s-0.8,0.2-1.2,0.2c-0.5,0-1-0.1-1.4-0.2
			c-0.4-0.2-0.7-0.4-0.9-0.7c-0.2-0.3-0.3-0.7-0.3-1.2c0-0.6,0.2-1.1,0.6-1.5c0.4-0.4,0.9-0.6,1.7-0.8l3.1-0.6l0,1.2l-2.3,0.5
			c-0.4,0.1-0.8,0.2-1,0.4c-0.2,0.2-0.3,0.4-0.3,0.7c0,0.3,0.1,0.5,0.3,0.7c0.2,0.2,0.5,0.3,0.9,0.3c0.3,0,0.5,0,0.8-0.1
			s0.5-0.2,0.7-0.3c0.2-0.1,0.4-0.3,0.5-0.6c0.1-0.2,0.2-0.5,0.2-0.8V70.5z"/>
		<path class="st6" d="M55.7,64v9.4c0,0.4,0.1,0.7,0.2,0.8s0.4,0.2,0.7,0.2c0.2,0,0.4,0,0.5,0c0.1,0,0.3-0.1,0.5-0.2l-0.2,1.3
			c-0.2,0.1-0.4,0.2-0.6,0.2c-0.2,0-0.5,0.1-0.7,0.1c-0.7,0-1.2-0.2-1.6-0.6c-0.3-0.4-0.5-0.9-0.5-1.7V64H55.7z"/>
		<path class="st6" d="M63.7,70.5c0-0.5-0.1-0.9-0.4-1.2c-0.3-0.3-0.7-0.4-1.2-0.4c-0.5,0-0.9,0.1-1.2,0.3c-0.3,0.2-0.6,0.6-0.8,1.1
			l-1.4-0.6c0.2-0.7,0.6-1.2,1.2-1.6s1.4-0.6,2.3-0.6c0.6,0,1.2,0.1,1.7,0.3c0.5,0.2,0.9,0.5,1.2,0.9c0.3,0.4,0.4,0.9,0.4,1.6v3.6
			c0,0.4,0.2,0.6,0.6,0.6c0.2,0,0.4,0,0.6-0.1l-0.1,1.2c-0.2,0.1-0.6,0.2-0.9,0.2c-0.3,0-0.6-0.1-0.9-0.2c-0.3-0.1-0.5-0.3-0.6-0.6
			c-0.2-0.3-0.2-0.6-0.2-0.9v-0.1l0.4,0c-0.1,0.4-0.3,0.8-0.6,1s-0.6,0.5-1,0.6s-0.8,0.2-1.2,0.2c-0.5,0-1-0.1-1.4-0.2
			c-0.4-0.2-0.7-0.4-0.9-0.7c-0.2-0.3-0.3-0.7-0.3-1.2c0-0.6,0.2-1.1,0.6-1.5c0.4-0.4,0.9-0.6,1.7-0.8l3.1-0.6l0,1.2l-2.3,0.5
			c-0.4,0.1-0.8,0.2-1,0.4c-0.2,0.2-0.3,0.4-0.3,0.7c0,0.3,0.1,0.5,0.3,0.7c0.2,0.2,0.5,0.3,0.9,0.3c0.3,0,0.5,0,0.8-0.1
			s0.5-0.2,0.7-0.3c0.2-0.1,0.4-0.3,0.5-0.6c0.1-0.2,0.2-0.5,0.2-0.8V70.5z"/>
		<path class="st6" d="M71.2,75.8c-0.8,0-1.5-0.2-2.2-0.5c-0.7-0.3-1.2-0.7-1.6-1.3l1.2-1c0.2,0.4,0.6,0.8,1,1
			c0.4,0.3,1,0.4,1.6,0.4c0.5,0,0.9-0.1,1.2-0.3c0.3-0.2,0.4-0.4,0.4-0.7c0-0.2-0.1-0.4-0.2-0.5s-0.4-0.3-0.8-0.4l-1.7-0.4
			c-0.9-0.2-1.5-0.4-1.8-0.8c-0.4-0.4-0.5-0.9-0.5-1.4c0-0.4,0.1-0.8,0.4-1.2c0.3-0.4,0.6-0.7,1.1-0.9s1.1-0.3,1.8-0.3
			c0.8,0,1.5,0.1,2,0.4s1,0.7,1.3,1.2l-1.2,1c-0.2-0.4-0.5-0.7-0.9-1s-0.8-0.3-1.2-0.3c-0.3,0-0.6,0-0.9,0.1
			c-0.2,0.1-0.4,0.2-0.6,0.4s-0.2,0.3-0.2,0.5c0,0.2,0.1,0.4,0.2,0.6s0.4,0.3,0.9,0.4l1.8,0.4c0.8,0.1,1.3,0.4,1.6,0.8
			c0.3,0.4,0.5,0.8,0.5,1.3s-0.1,1-0.4,1.4c-0.3,0.4-0.7,0.7-1.2,0.9C72.5,75.7,71.9,75.8,71.2,75.8z"/>
		<path class="st6" d="M81.3,70.5c0-0.5-0.1-0.9-0.4-1.2c-0.3-0.3-0.7-0.4-1.2-0.4c-0.5,0-0.9,0.1-1.2,0.3c-0.3,0.2-0.6,0.6-0.8,1.1
			l-1.4-0.6c0.2-0.7,0.6-1.2,1.2-1.6s1.4-0.6,2.3-0.6c0.6,0,1.2,0.1,1.7,0.3c0.5,0.2,0.9,0.5,1.2,0.9c0.3,0.4,0.4,0.9,0.4,1.6v3.6
			c0,0.4,0.2,0.6,0.6,0.6c0.2,0,0.4,0,0.6-0.1L84,75.6c-0.2,0.1-0.6,0.2-0.9,0.2c-0.3,0-0.6-0.1-0.9-0.2c-0.3-0.1-0.5-0.3-0.6-0.6
			c-0.2-0.3-0.2-0.6-0.2-0.9v-0.1l0.4,0c-0.1,0.4-0.3,0.8-0.6,1s-0.6,0.5-1,0.6s-0.8,0.2-1.2,0.2c-0.5,0-1-0.1-1.4-0.2
			c-0.4-0.2-0.7-0.4-0.9-0.7c-0.2-0.3-0.3-0.7-0.3-1.2c0-0.6,0.2-1.1,0.6-1.5c0.4-0.4,0.9-0.6,1.7-0.8l3.1-0.6l0,1.2l-2.3,0.5
			c-0.4,0.1-0.8,0.2-1,0.4c-0.2,0.2-0.3,0.4-0.3,0.7c0,0.3,0.1,0.5,0.3,0.7c0.2,0.2,0.5,0.3,0.9,0.3c0.3,0,0.5,0,0.8-0.1
			s0.5-0.2,0.7-0.3c0.2-0.1,0.4-0.3,0.5-0.6c0.1-0.2,0.2-0.5,0.2-0.8V70.5z"/>
		<path class="st6" d="M94.2,75.8c-0.8,0-1.5-0.2-2.1-0.5c-0.6-0.3-1.1-0.8-1.4-1.4c-0.3-0.6-0.5-1.4-0.5-2.2s0.2-1.6,0.5-2.2
			c0.3-0.6,0.8-1.1,1.4-1.4c0.6-0.3,1.3-0.5,2-0.5c0.8,0,1.4,0.2,2,0.5c0.5,0.3,1,0.8,1.2,1.3c0.3,0.6,0.4,1.2,0.4,1.9
			c0,0.2,0,0.4,0,0.5c0,0.2,0,0.3,0,0.4h-6.4v-1.3h5.7l-0.8,0.3c0-0.7-0.2-1.3-0.5-1.7c-0.4-0.4-0.9-0.6-1.5-0.6
			c-0.5,0-0.9,0.1-1.2,0.3c-0.3,0.2-0.6,0.5-0.8,1c-0.2,0.4-0.3,0.9-0.3,1.5c0,0.6,0.1,1.1,0.3,1.5s0.5,0.7,0.8,0.9
			c0.4,0.2,0.8,0.3,1.2,0.3c0.5,0,1-0.1,1.3-0.3c0.3-0.2,0.6-0.5,0.8-0.8l1.4,0.6c-0.2,0.4-0.5,0.7-0.8,1c-0.3,0.3-0.7,0.5-1.2,0.6
			C95.2,75.7,94.7,75.8,94.2,75.8z"/>
		<path class="st6" d="M103.4,67.4c0.6,0,1.2,0.1,1.6,0.3s0.8,0.5,1.1,0.8c0.3,0.3,0.5,0.7,0.7,1.2l-1.6,0.6
			c-0.1-0.5-0.4-0.9-0.7-1.1c-0.3-0.3-0.7-0.4-1.2-0.4c-0.5,0-0.9,0.1-1.2,0.3c-0.3,0.2-0.6,0.5-0.8,1s-0.3,0.9-0.3,1.5
			c0,0.6,0.1,1.1,0.3,1.5s0.4,0.7,0.8,0.9c0.3,0.2,0.7,0.3,1.2,0.3c0.4,0,0.7-0.1,0.9-0.2s0.5-0.3,0.7-0.5c0.2-0.2,0.3-0.5,0.4-0.8
			l1.6,0.5c-0.1,0.5-0.4,0.9-0.7,1.3s-0.7,0.6-1.2,0.8c-0.5,0.2-1,0.3-1.6,0.3c-0.8,0-1.5-0.2-2.1-0.5c-0.6-0.3-1.1-0.8-1.4-1.4
			s-0.5-1.4-0.5-2.2s0.2-1.6,0.5-2.2s0.8-1.1,1.4-1.4C101.9,67.6,102.6,67.4,103.4,67.4z"/>
		<path class="st6" d="M112.4,67.4c0.8,0,1.5,0.2,2.1,0.5c0.6,0.3,1.1,0.8,1.4,1.4s0.5,1.4,0.5,2.2s-0.2,1.6-0.5,2.2
			s-0.8,1.1-1.4,1.4c-0.6,0.3-1.3,0.5-2.1,0.5s-1.5-0.2-2.1-0.5c-0.6-0.3-1.1-0.8-1.4-1.4c-0.3-0.6-0.5-1.4-0.5-2.2s0.2-1.6,0.5-2.2
			c0.3-0.6,0.8-1.1,1.4-1.4C110.9,67.6,111.6,67.4,112.4,67.4z M112.4,68.8c-0.5,0-0.9,0.1-1.2,0.3s-0.6,0.5-0.8,1s-0.3,0.9-0.3,1.5
			c0,0.6,0.1,1.1,0.3,1.5c0.2,0.4,0.4,0.7,0.8,1c0.3,0.2,0.7,0.3,1.2,0.3c0.5,0,0.9-0.1,1.2-0.3c0.3-0.2,0.6-0.5,0.8-1
			c0.2-0.4,0.3-0.9,0.3-1.5c0-0.6-0.1-1.1-0.3-1.5c-0.2-0.4-0.4-0.7-0.8-1C113.3,68.9,112.8,68.8,112.4,68.8z"/>
		<path class="st6" d="M121.5,75.8c-0.8,0-1.5-0.2-2.2-0.5c-0.7-0.3-1.2-0.7-1.6-1.3l1.2-1c0.2,0.4,0.6,0.8,1,1
			c0.4,0.3,1,0.4,1.6,0.4c0.5,0,0.9-0.1,1.2-0.3c0.3-0.2,0.4-0.4,0.4-0.7c0-0.2-0.1-0.4-0.2-0.5s-0.4-0.3-0.8-0.4l-1.7-0.4
			c-0.9-0.2-1.5-0.4-1.8-0.8c-0.4-0.4-0.5-0.9-0.5-1.4c0-0.4,0.1-0.8,0.4-1.2c0.3-0.4,0.6-0.7,1.1-0.9s1.1-0.3,1.8-0.3
			c0.8,0,1.5,0.1,2,0.4s1,0.7,1.3,1.2l-1.2,1c-0.2-0.4-0.5-0.7-0.9-1s-0.8-0.3-1.2-0.3c-0.3,0-0.6,0-0.9,0.1
			c-0.2,0.1-0.4,0.2-0.6,0.4s-0.2,0.3-0.2,0.5c0,0.2,0.1,0.4,0.2,0.6s0.4,0.3,0.9,0.4l1.8,0.4c0.8,0.1,1.3,0.4,1.6,0.8
			c0.3,0.4,0.5,0.8,0.5,1.3s-0.1,1-0.4,1.4c-0.3,0.4-0.7,0.7-1.2,0.9C122.8,75.7,122.2,75.8,121.5,75.8z"/>
		<path class="st6" d="M133.6,67.6l-3.5,8.9c-0.2,0.6-0.5,1.1-0.8,1.5c-0.3,0.4-0.6,0.6-0.9,0.8c-0.4,0.2-0.8,0.2-1.2,0.2
			c-0.4,0-0.7-0.1-1.1-0.2c-0.3-0.1-0.6-0.2-0.9-0.4l0.4-1.3c0.2,0.2,0.4,0.3,0.6,0.4c0.2,0.1,0.5,0.1,0.7,0.1
			c0.3,0,0.5-0.1,0.8-0.2c0.2-0.2,0.4-0.5,0.6-0.9l0.4-0.9l-0.8-2l-2.5-6.1h1.9l1.8,5l0.5,1.5l0.5-1.6l1.7-4.9H133.6z"/>
		<path class="st6" d="M137.9,75.8c-0.8,0-1.5-0.2-2.2-0.5c-0.7-0.3-1.2-0.7-1.6-1.3l1.2-1c0.2,0.4,0.6,0.8,1,1
			c0.4,0.3,1,0.4,1.6,0.4c0.5,0,0.9-0.1,1.2-0.3c0.3-0.2,0.4-0.4,0.4-0.7c0-0.2-0.1-0.4-0.2-0.5c-0.1-0.2-0.4-0.3-0.8-0.4l-1.7-0.4
			c-0.9-0.2-1.5-0.4-1.8-0.8c-0.4-0.4-0.5-0.9-0.5-1.4c0-0.4,0.1-0.8,0.4-1.2c0.3-0.4,0.6-0.7,1.1-0.9s1.1-0.3,1.8-0.3
			c0.8,0,1.5,0.1,2,0.4s1,0.7,1.3,1.2l-1.2,1c-0.2-0.4-0.5-0.7-0.9-1s-0.8-0.3-1.2-0.3c-0.3,0-0.6,0-0.9,0.1
			c-0.2,0.1-0.4,0.2-0.6,0.4s-0.2,0.3-0.2,0.5c0,0.2,0.1,0.4,0.2,0.6s0.4,0.3,0.9,0.4l1.8,0.4c0.8,0.1,1.3,0.4,1.6,0.8
			c0.3,0.4,0.5,0.8,0.5,1.3s-0.1,1-0.4,1.4c-0.3,0.4-0.7,0.7-1.2,0.9C139.2,75.7,138.6,75.8,137.9,75.8z"/>
		<path class="st6" d="M148.4,67.6v1.3h-6v-1.3H148.4z M145.6,65.2v8c0,0.4,0.1,0.7,0.3,0.9c0.2,0.2,0.5,0.3,0.8,0.3
			c0.3,0,0.5,0,0.8-0.1c0.2-0.1,0.4-0.2,0.6-0.4l0.4,1.2c-0.2,0.2-0.5,0.4-0.9,0.5s-0.8,0.2-1.2,0.2c-0.5,0-0.9-0.1-1.3-0.2
			c-0.4-0.1-0.7-0.4-0.9-0.7c-0.2-0.3-0.3-0.8-0.3-1.3v-7.8L145.6,65.2z"/>
		<path class="st6" d="M153.6,75.8c-0.8,0-1.5-0.2-2.1-0.5c-0.6-0.3-1.1-0.8-1.4-1.4s-0.5-1.4-0.5-2.2s0.2-1.6,0.5-2.2
			s0.8-1.1,1.4-1.4c0.6-0.3,1.3-0.5,2-0.5c0.8,0,1.4,0.2,2,0.5c0.5,0.3,1,0.8,1.2,1.3c0.3,0.6,0.4,1.2,0.4,1.9c0,0.2,0,0.4,0,0.5
			c0,0.2,0,0.3,0,0.4h-6.4v-1.3h5.7l-0.8,0.3c0-0.7-0.2-1.3-0.5-1.7c-0.4-0.4-0.9-0.6-1.5-0.6c-0.5,0-0.9,0.1-1.2,0.3
			c-0.3,0.2-0.6,0.5-0.8,1c-0.2,0.4-0.3,0.9-0.3,1.5c0,0.6,0.1,1.1,0.3,1.5s0.5,0.7,0.8,0.9c0.4,0.2,0.8,0.3,1.2,0.3
			c0.5,0,1-0.1,1.3-0.3c0.3-0.2,0.6-0.5,0.8-0.8l1.4,0.6c-0.2,0.4-0.5,0.7-0.8,1c-0.3,0.3-0.7,0.5-1.2,0.6
			C154.6,75.7,154.2,75.8,153.6,75.8z"/>
		<path class="st6" d="M159.3,75.6v-8h1.5l0.1,1.3c0.3-0.5,0.6-0.9,1.1-1.1c0.5-0.2,1-0.4,1.5-0.4c0.6,0,1.1,0.1,1.6,0.4
			c0.5,0.3,0.9,0.7,1.1,1.2c0.2-0.4,0.4-0.6,0.7-0.9c0.3-0.2,0.6-0.4,1-0.5c0.4-0.1,0.7-0.2,1.1-0.2c0.5,0,1,0.1,1.4,0.3
			s0.8,0.5,1.1,1s0.4,1,0.4,1.7v5.2h-1.7v-4.9c0-0.7-0.2-1.1-0.5-1.4c-0.3-0.3-0.7-0.4-1.2-0.4c-0.4,0-0.7,0.1-1,0.3
			c-0.3,0.2-0.6,0.5-0.8,0.8c-0.2,0.4-0.3,0.8-0.3,1.3v4.4h-1.7v-4.9c0-0.7-0.2-1.1-0.5-1.4c-0.3-0.3-0.7-0.4-1.2-0.4
			c-0.3,0-0.6,0.1-1,0.3c-0.3,0.2-0.6,0.4-0.8,0.8c-0.2,0.4-0.3,0.8-0.3,1.4v4.3H159.3z"/>
	</g>
	<g>
		<path d="M19.3,17v10.6h-1.7V17H19.3z M26.2,17l-4.7,5.1l-0.2,0l-2.7,2.9l-0.2-1.9l5.7-6.2H26.2z M21.9,20.8l4.4,6.8h-2l-3.8-5.8
			L21.9,20.8z"/>
		<path d="M30.5,27.8c-0.5,0-1-0.1-1.4-0.3c-0.4-0.2-0.8-0.5-1.1-0.9c-0.3-0.4-0.4-1-0.4-1.7v-5.3h1.7v4.8c0,0.7,0.2,1.2,0.5,1.5
			c0.3,0.3,0.7,0.4,1.3,0.4c0.3,0,0.5,0,0.8-0.1c0.3-0.1,0.5-0.2,0.7-0.4c0.2-0.2,0.4-0.5,0.5-0.8c0.1-0.3,0.2-0.7,0.2-1.1v-4.3h1.7
			v8h-1.5l-0.1-1.3c-0.3,0.5-0.7,0.9-1.1,1.1S31.2,27.8,30.5,27.8z"/>
		<path d="M41.8,27.8c-0.5,0-0.9-0.1-1.3-0.3c-0.4-0.2-0.7-0.4-1-0.8c-0.3-0.3-0.5-0.7-0.6-1.1l0.2-0.3l-0.1,2.2h-1.5V16h1.7v5.6
			l-0.2-0.3c0.2-0.6,0.5-1,1-1.4c0.5-0.4,1.1-0.5,1.8-0.5c0.6,0,1.2,0.2,1.8,0.5c0.5,0.3,1,0.8,1.3,1.4c0.3,0.6,0.5,1.4,0.5,2.3
			c0,0.9-0.2,1.6-0.5,2.2c-0.3,0.6-0.7,1.1-1.3,1.4C43.1,27.6,42.5,27.8,41.8,27.8z M41.5,26.4c0.7,0,1.2-0.2,1.6-0.7s0.6-1.2,0.6-2
			s-0.2-1.5-0.6-2c-0.4-0.5-0.9-0.7-1.6-0.7c-0.4,0-0.8,0.1-1.2,0.3c-0.3,0.2-0.6,0.6-0.8,1c-0.2,0.4-0.3,0.9-0.3,1.5
			c0,0.6,0.1,1.1,0.3,1.5c0.2,0.4,0.4,0.7,0.8,1C40.6,26.3,41,26.4,41.5,26.4z"/>
		<path d="M51.1,27.8c-0.8,0-1.5-0.2-2.1-0.5c-0.6-0.3-1.1-0.8-1.4-1.4s-0.5-1.4-0.5-2.2s0.2-1.6,0.5-2.2s0.8-1.1,1.4-1.4
			c0.6-0.3,1.3-0.5,2-0.5c0.8,0,1.4,0.2,2,0.5c0.5,0.3,1,0.8,1.2,1.3c0.3,0.6,0.4,1.2,0.4,1.9c0,0.2,0,0.4,0,0.5c0,0.2,0,0.3,0,0.4
			h-6.4v-1.3h5.7L53,23.1c0-0.7-0.2-1.3-0.5-1.7c-0.4-0.4-0.9-0.6-1.5-0.6c-0.5,0-0.9,0.1-1.2,0.3c-0.3,0.2-0.6,0.5-0.8,1
			c-0.2,0.4-0.3,0.9-0.3,1.5c0,0.6,0.1,1.1,0.3,1.5s0.5,0.7,0.8,0.9c0.4,0.2,0.8,0.3,1.2,0.3c0.5,0,1-0.1,1.3-0.3
			c0.3-0.2,0.6-0.5,0.8-0.8l1.4,0.6c-0.2,0.4-0.5,0.7-0.8,1c-0.3,0.3-0.7,0.5-1.2,0.6C52.1,27.7,51.6,27.8,51.1,27.8z"/>
		<path d="M56.8,27.6v-8h1.5l0.2,1.4c0.2-0.5,0.5-0.9,1-1.2c0.4-0.3,0.9-0.4,1.6-0.4c0.2,0,0.3,0,0.5,0c0.2,0,0.3,0.1,0.4,0.1
			l-0.2,1.5c-0.1,0-0.2-0.1-0.4-0.1c-0.1,0-0.3,0-0.6,0c-0.3,0-0.7,0.1-1,0.3c-0.3,0.2-0.6,0.4-0.8,0.8s-0.3,0.8-0.3,1.3v4.2H56.8z"
			/>
		<path d="M63.5,27.6v-8H65l0.1,2.1l-0.2-0.2c0.1-0.5,0.4-0.8,0.6-1.1c0.3-0.3,0.6-0.5,1-0.7c0.4-0.1,0.8-0.2,1.2-0.2
			c0.6,0,1.1,0.1,1.5,0.3c0.5,0.2,0.8,0.5,1.1,1c0.3,0.4,0.4,1,0.4,1.7v5.2h-1.7v-4.7c0-0.8-0.2-1.3-0.5-1.6
			c-0.3-0.3-0.7-0.5-1.2-0.5c-0.4,0-0.7,0.1-1,0.2c-0.3,0.2-0.6,0.4-0.8,0.8s-0.3,0.8-0.3,1.5v4.3H63.5z"/>
		<path d="M76.9,27.8c-0.8,0-1.5-0.2-2.1-0.5c-0.6-0.3-1.1-0.8-1.4-1.4c-0.3-0.6-0.5-1.4-0.5-2.2s0.2-1.6,0.5-2.2
			c0.3-0.6,0.8-1.1,1.4-1.4c0.6-0.3,1.3-0.5,2-0.5c0.8,0,1.4,0.2,2,0.5c0.5,0.3,1,0.8,1.2,1.3c0.3,0.6,0.4,1.2,0.4,1.9
			c0,0.2,0,0.4,0,0.5c0,0.2,0,0.3,0,0.4H74v-1.3h5.7l-0.8,0.3c0-0.7-0.2-1.3-0.5-1.7c-0.4-0.4-0.9-0.6-1.5-0.6
			c-0.5,0-0.9,0.1-1.2,0.3c-0.3,0.2-0.6,0.5-0.8,1c-0.2,0.4-0.3,0.9-0.3,1.5c0,0.6,0.1,1.1,0.3,1.5s0.5,0.7,0.8,0.9
			c0.4,0.2,0.8,0.3,1.2,0.3c0.5,0,1-0.1,1.3-0.3c0.3-0.2,0.6-0.5,0.8-0.8l1.4,0.6c-0.2,0.4-0.5,0.7-0.8,1c-0.3,0.3-0.7,0.5-1.2,0.6
			C77.9,27.7,77.4,27.8,76.9,27.8z"/>
		<path d="M87.5,19.6v1.3h-6v-1.3H87.5z M84.8,17.2v8c0,0.4,0.1,0.7,0.3,0.9c0.2,0.2,0.5,0.3,0.8,0.3c0.3,0,0.5,0,0.8-0.1
			c0.2-0.1,0.4-0.2,0.6-0.4l0.4,1.2c-0.2,0.2-0.5,0.4-0.9,0.5s-0.8,0.2-1.2,0.2c-0.5,0-0.9-0.1-1.3-0.2c-0.4-0.1-0.7-0.4-0.9-0.7
			c-0.2-0.3-0.3-0.8-0.3-1.3v-7.8L84.8,17.2z"/>
		<path d="M92.7,27.8c-0.8,0-1.5-0.2-2.1-0.5c-0.6-0.3-1.1-0.8-1.4-1.4s-0.5-1.4-0.5-2.2s0.2-1.6,0.5-2.2s0.8-1.1,1.4-1.4
			c0.6-0.3,1.3-0.5,2-0.5c0.8,0,1.4,0.2,2,0.5c0.5,0.3,1,0.8,1.2,1.3c0.3,0.6,0.4,1.2,0.4,1.9c0,0.2,0,0.4,0,0.5c0,0.2,0,0.3,0,0.4
			h-6.4v-1.3h5.7l-0.8,0.3c0-0.7-0.2-1.3-0.5-1.7c-0.4-0.4-0.9-0.6-1.5-0.6c-0.5,0-0.9,0.1-1.2,0.3c-0.3,0.2-0.6,0.5-0.8,1
			c-0.2,0.4-0.3,0.9-0.3,1.5c0,0.6,0.1,1.1,0.3,1.5s0.5,0.7,0.8,0.9c0.4,0.2,0.8,0.3,1.2,0.3c0.5,0,1-0.1,1.3-0.3
			c0.3-0.2,0.6-0.5,0.8-0.8l1.4,0.6c-0.2,0.4-0.5,0.7-0.8,1c-0.3,0.3-0.7,0.5-1.2,0.6C93.7,27.7,93.3,27.8,92.7,27.8z"/>
		<path d="M101.5,27.8c-0.8,0-1.5-0.2-2.2-0.5c-0.7-0.3-1.2-0.7-1.6-1.3l1.2-1c0.2,0.4,0.6,0.8,1,1c0.4,0.3,1,0.4,1.6,0.4
			c0.5,0,0.9-0.1,1.2-0.3c0.3-0.2,0.4-0.4,0.4-0.7c0-0.2-0.1-0.4-0.2-0.5s-0.4-0.3-0.8-0.4l-1.7-0.4c-0.9-0.2-1.5-0.4-1.8-0.8
			c-0.4-0.4-0.5-0.9-0.5-1.4c0-0.4,0.1-0.8,0.4-1.2c0.3-0.4,0.6-0.7,1.1-0.9s1.1-0.3,1.8-0.3c0.8,0,1.5,0.1,2,0.4s1,0.7,1.3,1.2
			l-1.2,1c-0.2-0.4-0.5-0.7-0.9-1s-0.8-0.3-1.2-0.3c-0.3,0-0.6,0-0.9,0.1c-0.2,0.1-0.4,0.2-0.6,0.4s-0.2,0.3-0.2,0.5
			c0,0.2,0.1,0.4,0.2,0.6s0.4,0.3,0.9,0.4l1.8,0.4c0.8,0.1,1.3,0.4,1.6,0.8c0.3,0.4,0.5,0.8,0.5,1.3s-0.1,1-0.4,1.4
			c-0.3,0.4-0.7,0.7-1.2,0.9C102.8,27.7,102.2,27.8,101.5,27.8z"/>
		<path d="M112.3,16l-4.8,12.7h-1.6l4.8-12.7H112.3z"/>
		<path d="M122.8,17l-3.9,10.6h-2L113,17h1.8l2.5,7l0.6,2.1l0.6-2.1l2.5-7H122.8z"/>
		<path d="M135.6,17v10.6H134v-6.1l0.1-2.9h0l-3.2,9h-1.4l-3.2-9h0l0.1,2.9v6.1h-1.6V17h2.5l2.1,6.1l0.7,2.5h0l0.8-2.5l2.1-6.1
			H135.6z"/>
		<path d="M143.7,27.6V16h1.7v4.9c0.3-0.5,0.6-0.9,1.1-1.1c0.5-0.2,1-0.3,1.5-0.3c0.6,0,1.1,0.1,1.5,0.3c0.5,0.2,0.8,0.5,1.1,1
			c0.3,0.4,0.4,1,0.4,1.7v5.2h-1.7V23c0-0.8-0.2-1.3-0.5-1.6c-0.3-0.3-0.7-0.5-1.2-0.5c-0.3,0-0.7,0.1-1,0.2s-0.6,0.4-0.8,0.8
			c-0.2,0.4-0.3,0.9-0.3,1.5v4.2H143.7z"/>
		<path d="M157,19.4c0.8,0,1.5,0.2,2.1,0.5c0.6,0.3,1.1,0.8,1.4,1.4s0.5,1.4,0.5,2.2s-0.2,1.6-0.5,2.2s-0.8,1.1-1.4,1.4
			c-0.6,0.3-1.3,0.5-2.1,0.5s-1.5-0.2-2.1-0.5c-0.6-0.3-1.1-0.8-1.4-1.4c-0.3-0.6-0.5-1.4-0.5-2.2s0.2-1.6,0.5-2.2
			c0.3-0.6,0.8-1.1,1.4-1.4C155.6,19.6,156.3,19.4,157,19.4z M157,20.8c-0.5,0-0.9,0.1-1.2,0.3s-0.6,0.5-0.8,1s-0.3,0.9-0.3,1.5
			c0,0.6,0.1,1.1,0.3,1.5c0.2,0.4,0.4,0.7,0.8,1c0.3,0.2,0.7,0.3,1.2,0.3c0.5,0,0.9-0.1,1.2-0.3c0.3-0.2,0.6-0.5,0.8-1
			c0.2-0.4,0.3-0.9,0.3-1.5c0-0.6-0.1-1.1-0.3-1.5c-0.2-0.4-0.4-0.7-0.8-1C157.9,20.9,157.5,20.8,157,20.8z"/>
		<path d="M166.2,27.8c-0.8,0-1.5-0.2-2.2-0.5c-0.7-0.3-1.2-0.7-1.6-1.3l1.2-1c0.2,0.4,0.6,0.8,1,1c0.4,0.3,1,0.4,1.6,0.4
			c0.5,0,0.9-0.1,1.2-0.3c0.3-0.2,0.4-0.4,0.4-0.7c0-0.2-0.1-0.4-0.2-0.5s-0.4-0.3-0.8-0.4l-1.7-0.4c-0.9-0.2-1.5-0.4-1.8-0.8
			c-0.4-0.4-0.5-0.9-0.5-1.4c0-0.4,0.1-0.8,0.4-1.2c0.3-0.4,0.6-0.7,1.1-0.9s1.1-0.3,1.8-0.3c0.8,0,1.5,0.1,2,0.4s1,0.7,1.3,1.2
			l-1.2,1c-0.2-0.4-0.5-0.7-0.9-1s-0.8-0.3-1.2-0.3c-0.3,0-0.6,0-0.9,0.1c-0.2,0.1-0.4,0.2-0.6,0.4s-0.2,0.3-0.2,0.5
			c0,0.2,0.1,0.4,0.2,0.6s0.4,0.3,0.9,0.4l1.8,0.4c0.8,0.1,1.3,0.4,1.6,0.8c0.3,0.4,0.5,0.8,0.5,1.3s-0.1,1-0.4,1.4
			c-0.3,0.4-0.7,0.7-1.2,0.9C167.5,27.7,166.9,27.8,166.2,27.8z"/>
		<path d="M176.7,19.6v1.3h-6v-1.3H176.7z M174,17.2v8c0,0.4,0.1,0.7,0.3,0.9c0.2,0.2,0.5,0.3,0.8,0.3c0.3,0,0.5,0,0.8-0.1
			c0.2-0.1,0.4-0.2,0.6-0.4l0.4,1.2c-0.2,0.2-0.5,0.4-0.9,0.5s-0.8,0.2-1.2,0.2c-0.5,0-0.9-0.1-1.3-0.2c-0.4-0.1-0.7-0.4-0.9-0.7
			c-0.2-0.3-0.3-0.8-0.3-1.3v-7.8L174,17.2z"/>
		<path d="M187.1,27.8c-0.8,0-1.5-0.2-2.1-0.5c-0.6-0.3-1.1-0.8-1.4-1.4s-0.5-1.4-0.5-2.2s0.2-1.6,0.5-2.2s0.8-1.1,1.4-1.4
			c0.6-0.3,1.3-0.5,2-0.5c0.8,0,1.4,0.2,2,0.5c0.5,0.3,1,0.8,1.2,1.3c0.3,0.6,0.4,1.2,0.4,1.9c0,0.2,0,0.4,0,0.5c0,0.2,0,0.3,0,0.4
			h-6.4v-1.3h5.7l-0.8,0.3c0-0.7-0.2-1.3-0.5-1.7c-0.4-0.4-0.9-0.6-1.5-0.6c-0.5,0-0.9,0.1-1.2,0.3c-0.3,0.2-0.6,0.5-0.8,1
			c-0.2,0.4-0.3,0.9-0.3,1.5c0,0.6,0.1,1.1,0.3,1.5s0.5,0.7,0.8,0.9c0.4,0.2,0.8,0.3,1.2,0.3c0.5,0,1-0.1,1.3-0.3
			c0.3-0.2,0.6-0.5,0.8-0.8l1.4,0.6c-0.2,0.4-0.5,0.7-0.8,1c-0.3,0.3-0.7,0.5-1.2,0.6C188.2,27.7,187.7,27.8,187.1,27.8z"/>
		<path d="M192.9,27.6v-8h1.5l0.1,2.1l-0.2-0.2c0.1-0.5,0.4-0.8,0.6-1.1c0.3-0.3,0.6-0.5,1-0.7c0.4-0.1,0.8-0.2,1.2-0.2
			c0.6,0,1.1,0.1,1.5,0.3c0.5,0.2,0.8,0.5,1.1,1c0.3,0.4,0.4,1,0.4,1.7v5.2h-1.7v-4.7c0-0.8-0.2-1.3-0.5-1.6
			c-0.3-0.3-0.7-0.5-1.2-0.5c-0.4,0-0.7,0.1-1,0.2c-0.3,0.2-0.6,0.4-0.8,0.8s-0.3,0.8-0.3,1.5v4.3H192.9z"/>
		<path d="M207.8,19.6h1.8l-3.2,8h-1.9l-3.2-8h1.9l2.3,6.5L207.8,19.6z"/>
		<path d="M211.9,18.3c-0.4,0-0.7-0.1-0.9-0.3c-0.2-0.2-0.3-0.5-0.3-0.8s0.1-0.6,0.3-0.8c0.2-0.2,0.5-0.3,0.9-0.3
			c0.4,0,0.6,0.1,0.8,0.3c0.2,0.2,0.3,0.4,0.3,0.8s-0.1,0.6-0.3,0.8C212.6,18.2,212.3,18.3,211.9,18.3z M212.8,19.6v8h-1.7v-8H212.8
			z"/>
		<path d="M215.5,27.6v-8h1.5l0.2,1.4c0.2-0.5,0.5-0.9,1-1.2c0.4-0.3,0.9-0.4,1.6-0.4c0.2,0,0.3,0,0.5,0c0.2,0,0.3,0.1,0.4,0.1
			l-0.2,1.5c-0.1,0-0.2-0.1-0.4-0.1c-0.1,0-0.3,0-0.6,0c-0.3,0-0.7,0.1-1,0.3c-0.3,0.2-0.6,0.4-0.8,0.8s-0.3,0.8-0.3,1.3v4.2H215.5z
			"/>
		<path d="M225.3,19.4c0.8,0,1.5,0.2,2.1,0.5c0.6,0.3,1.1,0.8,1.4,1.4s0.5,1.4,0.5,2.2s-0.2,1.6-0.5,2.2s-0.8,1.1-1.4,1.4
			c-0.6,0.3-1.3,0.5-2.1,0.5c-0.8,0-1.5-0.2-2.1-0.5c-0.6-0.3-1.1-0.8-1.4-1.4c-0.3-0.6-0.5-1.4-0.5-2.2s0.2-1.6,0.5-2.2
			c0.3-0.6,0.8-1.1,1.4-1.4C223.9,19.6,224.6,19.4,225.3,19.4z M225.3,20.8c-0.5,0-0.9,0.1-1.2,0.3s-0.6,0.5-0.8,1s-0.3,0.9-0.3,1.5
			c0,0.6,0.1,1.1,0.3,1.5c0.2,0.4,0.4,0.7,0.8,1c0.3,0.2,0.7,0.3,1.2,0.3c0.5,0,0.9-0.1,1.2-0.3c0.3-0.2,0.6-0.5,0.8-1
			c0.2-0.4,0.3-0.9,0.3-1.5c0-0.6-0.1-1.1-0.3-1.5c-0.2-0.4-0.4-0.7-0.8-1C226.2,20.9,225.8,20.8,225.3,20.8z"/>
		<path d="M231.5,27.6v-8h1.5l0.1,2.1l-0.2-0.2c0.1-0.5,0.4-0.8,0.6-1.1c0.3-0.3,0.6-0.5,1-0.7c0.4-0.1,0.8-0.2,1.2-0.2
			c0.6,0,1.1,0.1,1.5,0.3c0.5,0.2,0.8,0.5,1.1,1c0.3,0.4,0.4,1,0.4,1.7v5.2h-1.7v-4.7c0-0.8-0.2-1.3-0.5-1.6
			c-0.3-0.3-0.7-0.5-1.2-0.5c-0.4,0-0.7,0.1-1,0.2c-0.3,0.2-0.6,0.4-0.8,0.8s-0.3,0.8-0.3,1.5v4.3H231.5z"/>
		<path d="M241.4,27.6v-8h1.5l0.1,1.3c0.3-0.5,0.6-0.9,1.1-1.1c0.5-0.2,1-0.4,1.5-0.4c0.6,0,1.1,0.1,1.6,0.4
			c0.5,0.3,0.9,0.7,1.1,1.2c0.2-0.4,0.4-0.6,0.7-0.9c0.3-0.2,0.6-0.4,1-0.5c0.4-0.1,0.7-0.2,1.1-0.2c0.5,0,1,0.1,1.4,0.3
			s0.8,0.5,1.1,1s0.4,1,0.4,1.7v5.2h-1.7v-4.9c0-0.7-0.2-1.1-0.5-1.4c-0.3-0.3-0.7-0.4-1.2-0.4c-0.4,0-0.7,0.1-1,0.3
			c-0.3,0.2-0.6,0.5-0.8,0.8c-0.2,0.4-0.3,0.8-0.3,1.3v4.4h-1.7v-4.9c0-0.7-0.2-1.1-0.5-1.4c-0.3-0.3-0.7-0.4-1.2-0.4
			c-0.3,0-0.6,0.1-1,0.3c-0.3,0.2-0.6,0.4-0.8,0.8c-0.2,0.4-0.3,0.8-0.3,1.4v4.3H241.4z"/>
		<path d="M260.1,27.8c-0.8,0-1.5-0.2-2.1-0.5c-0.6-0.3-1.1-0.8-1.4-1.4s-0.5-1.4-0.5-2.2s0.2-1.6,0.5-2.2s0.8-1.1,1.4-1.4
			c0.6-0.3,1.3-0.5,2-0.5c0.8,0,1.4,0.2,2,0.5c0.5,0.3,1,0.8,1.2,1.3c0.3,0.6,0.4,1.2,0.4,1.9c0,0.2,0,0.4,0,0.5c0,0.2,0,0.3,0,0.4
			h-6.4v-1.3h5.7l-0.8,0.3c0-0.7-0.2-1.3-0.5-1.7c-0.4-0.4-0.9-0.6-1.5-0.6c-0.5,0-0.9,0.1-1.2,0.3c-0.3,0.2-0.6,0.5-0.8,1
			c-0.2,0.4-0.3,0.9-0.3,1.5c0,0.6,0.1,1.1,0.3,1.5s0.5,0.7,0.8,0.9c0.4,0.2,0.8,0.3,1.2,0.3c0.5,0,1-0.1,1.3-0.3
			c0.3-0.2,0.6-0.5,0.8-0.8l1.4,0.6c-0.2,0.4-0.5,0.7-0.8,1c-0.3,0.3-0.7,0.5-1.2,0.6C261.1,27.7,260.6,27.8,260.1,27.8z"/>
		<path d="M265.8,27.6v-8h1.5l0.1,2.1l-0.2-0.2c0.1-0.5,0.4-0.8,0.6-1.1c0.3-0.3,0.6-0.5,1-0.7c0.4-0.1,0.8-0.2,1.2-0.2
			c0.6,0,1.1,0.1,1.5,0.3c0.5,0.2,0.8,0.5,1.1,1c0.3,0.4,0.4,1,0.4,1.7v5.2h-1.7v-4.7c0-0.8-0.2-1.3-0.5-1.6
			c-0.3-0.3-0.7-0.5-1.2-0.5c-0.4,0-0.7,0.1-1,0.2c-0.3,0.2-0.6,0.4-0.8,0.8s-0.3,0.8-0.3,1.5v4.3H265.8z"/>
		<path d="M280.7,19.6v1.3h-6v-1.3H280.7z M277.9,17.2v8c0,0.4,0.1,0.7,0.3,0.9c0.2,0.2,0.5,0.3,0.8,0.3c0.3,0,0.5,0,0.8-0.1
			c0.2-0.1,0.4-0.2,0.6-0.4l0.4,1.2c-0.2,0.2-0.5,0.4-0.9,0.5s-0.8,0.2-1.2,0.2c-0.5,0-0.9-0.1-1.3-0.2c-0.4-0.1-0.7-0.4-0.9-0.7
			c-0.2-0.3-0.3-0.8-0.3-1.3v-7.8L277.9,17.2z"/>
	</g>
	<g>
		<g>
			<path d="M42.2,421v3.6h-1V416h2.3c1.1,0,1.8,0.2,2.3,0.6s0.8,1,0.8,1.8c0,1.1-0.6,1.9-1.7,2.3l2.3,3.8H46L44,421H42.2z
				 M42.2,420.1h1.4c0.7,0,1.2-0.1,1.5-0.4s0.5-0.7,0.5-1.3c0-0.6-0.2-1-0.5-1.2s-0.9-0.4-1.6-0.4h-1.3V420.1z"/>
			<path d="M51.2,424.7c-0.9,0-1.7-0.3-2.2-0.9s-0.8-1.4-0.8-2.4c0-1,0.3-1.9,0.8-2.5s1.2-0.9,2.1-0.9c0.8,0,1.4,0.3,1.9,0.8
				s0.7,1.2,0.7,2.1v0.6h-4.4c0,0.8,0.2,1.3,0.6,1.7s0.9,0.6,1.5,0.6c0.7,0,1.4-0.1,2.1-0.4v0.9c-0.3,0.1-0.7,0.3-1,0.3
				S51.6,424.7,51.2,424.7z M50.9,418.8c-0.5,0-0.9,0.2-1.2,0.5s-0.5,0.8-0.5,1.4h3.4c0-0.6-0.1-1.1-0.4-1.4S51.4,418.8,50.9,418.8z
				"/>
			<path d="M59.3,422.8c0,0.6-0.2,1.1-0.7,1.4s-1.1,0.5-1.9,0.5c-0.9,0-1.5-0.1-2-0.4v-0.9c0.3,0.2,0.6,0.3,1,0.4s0.7,0.1,1,0.1
				c0.5,0,0.9-0.1,1.2-0.2s0.4-0.4,0.4-0.7c0-0.2-0.1-0.5-0.3-0.6s-0.6-0.4-1.3-0.6c-0.6-0.2-1-0.4-1.3-0.6s-0.4-0.4-0.6-0.6
				s-0.2-0.5-0.2-0.8c0-0.5,0.2-0.9,0.6-1.2s1-0.5,1.8-0.5c0.7,0,1.4,0.1,2,0.4l-0.3,0.8c-0.6-0.3-1.2-0.4-1.8-0.4
				c-0.5,0-0.8,0.1-1,0.2s-0.4,0.3-0.4,0.6c0,0.2,0,0.3,0.1,0.4s0.2,0.2,0.4,0.3s0.6,0.3,1.1,0.5c0.8,0.3,1.3,0.6,1.5,0.8
				S59.3,422.4,59.3,422.8z"/>
			<path d="M66.4,421.3c0,1-0.3,1.9-0.8,2.5s-1.3,0.9-2.2,0.9c-0.6,0-1.1-0.1-1.5-0.4s-0.8-0.7-1-1.2s-0.4-1.1-0.4-1.8
				c0-1,0.3-1.9,0.8-2.4s1.2-0.9,2.2-0.9c0.9,0,1.6,0.3,2.1,0.9S66.4,420.3,66.4,421.3z M61.6,421.3c0,0.8,0.2,1.4,0.5,1.9
				s0.8,0.6,1.4,0.6s1.1-0.2,1.5-0.6s0.5-1.1,0.5-1.9c0-0.8-0.2-1.4-0.5-1.9s-0.8-0.6-1.5-0.6c-0.6,0-1.1,0.2-1.4,0.6
				S61.6,420.5,61.6,421.3z"/>
			<path d="M69.1,418.1v4.2c0,0.5,0.1,0.9,0.4,1.2c0.2,0.3,0.6,0.4,1.1,0.4c0.7,0,1.2-0.2,1.5-0.6s0.5-1,0.5-1.8v-3.4h1v6.4h-0.8
				l-0.1-0.9h-0.1c-0.2,0.3-0.5,0.6-0.8,0.7s-0.8,0.3-1.2,0.3c-0.8,0-1.4-0.2-1.8-0.6s-0.6-1-0.6-1.8v-4.2H69.1z"/>
			<path d="M78.4,418c0.3,0,0.5,0,0.8,0.1l-0.1,0.9c-0.3-0.1-0.5-0.1-0.7-0.1c-0.5,0-1,0.2-1.3,0.6s-0.6,0.9-0.6,1.6v3.4h-1v-6.4
				h0.8l0.1,1.2h0c0.2-0.4,0.5-0.7,0.9-1S78,418,78.4,418z"/>
			<path d="M83,424.7c-0.9,0-1.6-0.3-2.2-0.9s-0.8-1.4-0.8-2.4c0-1.1,0.3-1.9,0.8-2.5s1.3-0.9,2.2-0.9c0.3,0,0.6,0,0.9,0.1
				s0.6,0.1,0.7,0.2l-0.3,0.8c-0.2-0.1-0.4-0.2-0.7-0.2s-0.5-0.1-0.7-0.1c-1.3,0-2,0.8-2,2.5c0,0.8,0.2,1.4,0.5,1.8s0.8,0.6,1.4,0.6
				c0.5,0,1.1-0.1,1.6-0.3v0.9C84.2,424.6,83.6,424.7,83,424.7z"/>
			<path d="M88.8,424.7c-0.9,0-1.7-0.3-2.2-0.9s-0.8-1.4-0.8-2.4c0-1,0.3-1.9,0.8-2.5s1.2-0.9,2.1-0.9c0.8,0,1.4,0.3,1.9,0.8
				s0.7,1.2,0.7,2.1v0.6h-4.4c0,0.8,0.2,1.3,0.6,1.7s0.9,0.6,1.5,0.6c0.7,0,1.4-0.1,2.1-0.4v0.9c-0.3,0.1-0.7,0.3-1,0.3
				S89.3,424.7,88.8,424.7z M88.6,418.8c-0.5,0-0.9,0.2-1.2,0.5s-0.5,0.8-0.5,1.4h3.4c0-0.6-0.1-1.1-0.4-1.4S89.1,418.8,88.6,418.8z
				"/>
			<path d="M104.2,424.6v-4.2c0-0.5-0.1-0.9-0.3-1.2s-0.6-0.4-1-0.4c-0.6,0-1.1,0.2-1.3,0.5c-0.3,0.3-0.4,0.9-0.4,1.6v3.6h-1v-4.2
				c0-0.5-0.1-0.9-0.3-1.2s-0.6-0.4-1-0.4c-0.6,0-1.1,0.2-1.3,0.5s-0.4,1-0.4,1.8v3.4h-1v-6.4h0.8l0.2,0.9h0
				c0.2-0.3,0.4-0.6,0.8-0.7s0.7-0.3,1.1-0.3c1,0,1.7,0.4,2,1.1h0c0.2-0.3,0.5-0.6,0.8-0.8s0.8-0.3,1.2-0.3c0.7,0,1.3,0.2,1.6,0.6
				s0.5,1,0.5,1.8v4.2H104.2z"/>
			<path d="M111.1,424.6l-0.2-0.9h0c-0.3,0.4-0.6,0.7-1,0.8s-0.7,0.2-1.2,0.2c-0.6,0-1.1-0.2-1.5-0.5s-0.5-0.8-0.5-1.4
				c0-1.3,1-2,3.1-2l1.1,0v-0.4c0-0.5-0.1-0.9-0.3-1.1s-0.6-0.4-1-0.4c-0.5,0-1.1,0.2-1.8,0.5l-0.3-0.7c0.3-0.2,0.7-0.3,1-0.4
				s0.8-0.1,1.1-0.1c0.8,0,1.3,0.2,1.7,0.5s0.6,0.9,0.6,1.6v4.4H111.1z M108.9,423.9c0.6,0,1.1-0.2,1.4-0.5s0.5-0.8,0.5-1.4v-0.6
				l-1,0c-0.8,0-1.3,0.1-1.7,0.4s-0.5,0.5-0.5,1c0,0.4,0.1,0.6,0.3,0.8S108.5,423.9,108.9,423.9z"/>
			<path d="M118.2,424.6v-4.2c0-0.5-0.1-0.9-0.4-1.2s-0.6-0.4-1.1-0.4c-0.7,0-1.2,0.2-1.5,0.5s-0.5,1-0.5,1.8v3.4h-1v-6.4h0.8
				l0.2,0.9h0c0.2-0.3,0.5-0.6,0.8-0.7s0.8-0.3,1.2-0.3c0.8,0,1.4,0.2,1.7,0.6s0.6,1,0.6,1.8v4.2H118.2z"/>
			<path d="M125.1,424.6l-0.2-0.9h0c-0.3,0.4-0.6,0.7-1,0.8s-0.7,0.2-1.2,0.2c-0.6,0-1.1-0.2-1.5-0.5s-0.5-0.8-0.5-1.4
				c0-1.3,1-2,3.1-2l1.1,0v-0.4c0-0.5-0.1-0.9-0.3-1.1s-0.6-0.4-1-0.4c-0.5,0-1.1,0.2-1.8,0.5l-0.3-0.7c0.3-0.2,0.7-0.3,1-0.4
				s0.8-0.1,1.1-0.1c0.8,0,1.3,0.2,1.7,0.5s0.6,0.9,0.6,1.6v4.4H125.1z M122.9,423.9c0.6,0,1.1-0.2,1.4-0.5s0.5-0.8,0.5-1.4v-0.6
				l-1,0c-0.8,0-1.3,0.1-1.7,0.4s-0.5,0.5-0.5,1c0,0.4,0.1,0.6,0.3,0.8S122.6,423.9,122.9,423.9z"/>
			<path d="M133.1,418.1v0.6l-1.2,0.1c0.1,0.1,0.2,0.3,0.3,0.5s0.1,0.5,0.1,0.7c0,0.6-0.2,1.1-0.6,1.5s-1,0.6-1.8,0.6
				c-0.2,0-0.4,0-0.5,0c-0.4,0.2-0.6,0.5-0.6,0.8c0,0.2,0.1,0.3,0.2,0.4s0.4,0.1,0.7,0.1h1.1c0.7,0,1.2,0.1,1.6,0.4s0.6,0.7,0.6,1.3
				c0,0.7-0.3,1.3-0.9,1.6s-1.4,0.6-2.5,0.6c-0.8,0-1.5-0.2-1.9-0.5s-0.7-0.8-0.7-1.3c0-0.4,0.1-0.7,0.4-1s0.6-0.5,1.1-0.6
				c-0.2-0.1-0.3-0.2-0.4-0.3s-0.2-0.3-0.2-0.5c0-0.2,0.1-0.4,0.2-0.6s0.3-0.3,0.6-0.5c-0.3-0.1-0.6-0.4-0.8-0.7s-0.3-0.7-0.3-1.1
				c0-0.7,0.2-1.2,0.6-1.6s1-0.6,1.8-0.6c0.3,0,0.6,0,0.9,0.1H133.1z M128,425.6c0,0.3,0.1,0.6,0.4,0.8s0.7,0.3,1.3,0.3
				c0.8,0,1.4-0.1,1.8-0.4s0.6-0.6,0.6-1c0-0.3-0.1-0.6-0.3-0.7s-0.6-0.2-1.2-0.2h-1.2c-0.4,0-0.8,0.1-1,0.3S128,425.2,128,425.6z
				 M128.5,420.2c0,0.4,0.1,0.8,0.4,1s0.6,0.3,1.1,0.3c0.9,0,1.4-0.5,1.4-1.4c0-1-0.5-1.4-1.4-1.4c-0.5,0-0.8,0.1-1.1,0.4
				S128.5,419.7,128.5,420.2z"/>
			<path d="M137.1,424.7c-0.9,0-1.7-0.3-2.2-0.9s-0.8-1.4-0.8-2.4c0-1,0.3-1.9,0.8-2.5s1.2-0.9,2.1-0.9c0.8,0,1.4,0.3,1.9,0.8
				s0.7,1.2,0.7,2.1v0.6h-4.4c0,0.8,0.2,1.3,0.6,1.7s0.9,0.6,1.5,0.6c0.7,0,1.4-0.1,2.1-0.4v0.9c-0.3,0.1-0.7,0.3-1,0.3
				S137.6,424.7,137.1,424.7z M136.9,418.8c-0.5,0-0.9,0.2-1.2,0.5s-0.5,0.8-0.5,1.4h3.4c0-0.6-0.1-1.1-0.4-1.4
				S137.4,418.8,136.9,418.8z"/>
			<path d="M144.1,418c0.3,0,0.5,0,0.8,0.1l-0.1,0.9c-0.3-0.1-0.5-0.1-0.7-0.1c-0.5,0-1,0.2-1.3,0.6s-0.6,0.9-0.6,1.6v3.4h-1v-6.4
				h0.8l0.1,1.2h0c0.2-0.4,0.5-0.7,0.9-1S143.7,418,144.1,418z"/>
		</g>
	</g>
	<g>
		<g>
			<path d="M211.8,320.6h-1v-7.7h-2.7V312h6.4v0.9h-2.7V320.6z"/>
			<path d="M218.4,320.7c-0.9,0-1.7-0.3-2.2-0.9s-0.8-1.4-0.8-2.4c0-1,0.3-1.9,0.8-2.5s1.2-0.9,2.1-0.9c0.8,0,1.4,0.3,1.9,0.8
				s0.7,1.2,0.7,2.1v0.6h-4.4c0,0.8,0.2,1.3,0.6,1.7s0.9,0.6,1.5,0.6c0.7,0,1.4-0.1,2.1-0.4v0.9c-0.3,0.1-0.7,0.3-1,0.3
				S218.8,320.7,218.4,320.7z M218.1,314.8c-0.5,0-0.9,0.2-1.2,0.5s-0.5,0.8-0.5,1.4h3.4c0-0.6-0.1-1.1-0.4-1.4
				S218.6,314.8,218.1,314.8z"/>
			<path d="M226.5,318.8c0,0.6-0.2,1.1-0.7,1.4s-1.1,0.5-1.9,0.5c-0.9,0-1.5-0.1-2-0.4v-0.9c0.3,0.2,0.6,0.3,1,0.4s0.7,0.1,1,0.1
				c0.5,0,0.9-0.1,1.2-0.2s0.4-0.4,0.4-0.7c0-0.2-0.1-0.5-0.3-0.6s-0.6-0.4-1.3-0.6c-0.6-0.2-1-0.4-1.3-0.6s-0.4-0.4-0.6-0.6
				s-0.2-0.5-0.2-0.8c0-0.5,0.2-0.9,0.6-1.2s1-0.5,1.8-0.5c0.7,0,1.4,0.1,2,0.4l-0.3,0.8c-0.6-0.3-1.2-0.4-1.8-0.4
				c-0.5,0-0.8,0.1-1,0.2s-0.4,0.3-0.4,0.6c0,0.2,0,0.3,0.1,0.4s0.2,0.2,0.4,0.3s0.6,0.3,1.1,0.5c0.8,0.3,1.3,0.6,1.5,0.8
				S226.5,318.4,226.5,318.8z"/>
			<path d="M230.2,319.9c0.2,0,0.3,0,0.5,0s0.3-0.1,0.4-0.1v0.7c-0.1,0.1-0.3,0.1-0.5,0.1s-0.4,0-0.6,0c-1.2,0-1.9-0.7-1.9-2v-3.8
				h-0.9v-0.5l0.9-0.4l0.4-1.4h0.6v1.5h1.9v0.8h-1.9v3.8c0,0.4,0.1,0.7,0.3,0.9S229.9,319.9,230.2,319.9z"/>
			<path d="M238.2,320.7c-0.9,0-1.7-0.3-2.2-0.9s-0.8-1.4-0.8-2.4c0-1,0.3-1.9,0.8-2.5s1.2-0.9,2.1-0.9c0.8,0,1.4,0.3,1.9,0.8
				s0.7,1.2,0.7,2.1v0.6h-4.4c0,0.8,0.2,1.3,0.6,1.7s0.9,0.6,1.5,0.6c0.7,0,1.4-0.1,2.1-0.4v0.9c-0.3,0.1-0.7,0.3-1,0.3
				S238.6,320.7,238.2,320.7z M237.9,314.8c-0.5,0-0.9,0.2-1.2,0.5s-0.5,0.8-0.5,1.4h3.4c0-0.6-0.1-1.1-0.4-1.4
				S238.4,314.8,237.9,314.8z"/>
			<path d="M246.6,320.6v-4.2c0-0.5-0.1-0.9-0.4-1.2s-0.6-0.4-1.1-0.4c-0.7,0-1.2,0.2-1.5,0.5s-0.5,1-0.5,1.8v3.4h-1v-6.4h0.8
				l0.2,0.9h0c0.2-0.3,0.5-0.6,0.8-0.7c0.4-0.2,0.8-0.3,1.2-0.3c0.8,0,1.4,0.2,1.7,0.6s0.6,1,0.6,1.8v4.2H246.6z"/>
			<path d="M254.8,314.1v0.6l-1.2,0.1c0.1,0.1,0.2,0.3,0.3,0.5c0.1,0.2,0.1,0.5,0.1,0.7c0,0.6-0.2,1.1-0.6,1.5s-1,0.6-1.8,0.6
				c-0.2,0-0.4,0-0.5,0c-0.4,0.2-0.6,0.5-0.6,0.8c0,0.2,0.1,0.3,0.2,0.4s0.4,0.1,0.7,0.1h1.1c0.7,0,1.2,0.1,1.6,0.4s0.6,0.7,0.6,1.3
				c0,0.7-0.3,1.3-0.9,1.6s-1.4,0.6-2.5,0.6c-0.8,0-1.5-0.2-1.9-0.5s-0.7-0.8-0.7-1.3c0-0.4,0.1-0.7,0.4-1s0.6-0.5,1.1-0.6
				c-0.2-0.1-0.3-0.2-0.4-0.3s-0.2-0.3-0.2-0.5c0-0.2,0.1-0.4,0.2-0.6s0.3-0.3,0.6-0.5c-0.3-0.1-0.6-0.4-0.8-0.7s-0.3-0.7-0.3-1.1
				c0-0.7,0.2-1.2,0.6-1.6s1-0.6,1.8-0.6c0.3,0,0.6,0,0.9,0.1H254.8z M249.7,321.6c0,0.3,0.1,0.6,0.4,0.8s0.7,0.3,1.3,0.3
				c0.8,0,1.4-0.1,1.8-0.4s0.6-0.6,0.6-1c0-0.3-0.1-0.6-0.3-0.7s-0.6-0.2-1.2-0.2h-1.2c-0.4,0-0.8,0.1-1,0.3
				S249.7,321.2,249.7,321.6z M250.2,316.2c0,0.4,0.1,0.8,0.4,1s0.6,0.3,1.1,0.3c0.9,0,1.4-0.5,1.4-1.4c0-1-0.5-1.4-1.4-1.4
				c-0.5,0-0.8,0.1-1.1,0.4S250.2,315.7,250.2,316.2z"/>
			<path d="M256.1,312.4c0-0.2,0.1-0.4,0.2-0.5s0.2-0.2,0.4-0.2c0.2,0,0.3,0.1,0.4,0.2s0.2,0.3,0.2,0.5s-0.1,0.4-0.2,0.5
				s-0.2,0.2-0.4,0.2c-0.2,0-0.3-0.1-0.4-0.2S256.1,312.6,256.1,312.4z M257.1,320.6h-1v-6.4h1V320.6z"/>
			<path d="M263.6,320.6v-4.2c0-0.5-0.1-0.9-0.4-1.2s-0.6-0.4-1.1-0.4c-0.7,0-1.2,0.2-1.5,0.5s-0.5,1-0.5,1.8v3.4h-1v-6.4h0.8
				l0.2,0.9h0c0.2-0.3,0.5-0.6,0.8-0.7s0.8-0.3,1.2-0.3c0.8,0,1.4,0.2,1.7,0.6s0.6,1,0.6,1.8v4.2H263.6z"/>
			<path d="M269.3,320.7c-0.9,0-1.7-0.3-2.2-0.9s-0.8-1.4-0.8-2.4c0-1,0.3-1.9,0.8-2.5s1.2-0.9,2.1-0.9c0.8,0,1.4,0.3,1.9,0.8
				s0.7,1.2,0.7,2.1v0.6h-4.4c0,0.8,0.2,1.3,0.6,1.7s0.9,0.6,1.5,0.6c0.7,0,1.4-0.1,2.1-0.4v0.9c-0.3,0.1-0.7,0.3-1,0.3
				S269.7,320.7,269.3,320.7z M269,314.8c-0.5,0-0.9,0.2-1.2,0.5s-0.5,0.8-0.5,1.4h3.4c0-0.6-0.1-1.1-0.4-1.4S269.5,314.8,269,314.8
				z"/>
			<path d="M277.4,318.8c0,0.6-0.2,1.1-0.7,1.4s-1.1,0.5-1.9,0.5c-0.9,0-1.5-0.1-2-0.4v-0.9c0.3,0.2,0.6,0.3,1,0.4s0.7,0.1,1,0.1
				c0.5,0,0.9-0.1,1.2-0.2s0.4-0.4,0.4-0.7c0-0.2-0.1-0.5-0.3-0.6s-0.6-0.4-1.3-0.6c-0.6-0.2-1-0.4-1.3-0.6s-0.4-0.4-0.6-0.6
				s-0.2-0.5-0.2-0.8c0-0.5,0.2-0.9,0.6-1.2s1-0.5,1.8-0.5c0.7,0,1.4,0.1,2,0.4l-0.3,0.8c-0.6-0.3-1.2-0.4-1.8-0.4
				c-0.5,0-0.8,0.1-1,0.2s-0.4,0.3-0.4,0.6c0,0.2,0,0.3,0.1,0.4s0.2,0.2,0.4,0.3s0.6,0.3,1.1,0.5c0.8,0.3,1.3,0.6,1.5,0.8
				S277.4,318.4,277.4,318.8z"/>
		</g>
	</g>
	<g>
		<g>
			<path d="M46.6,320.6l-1.1-2.7h-3.4l-1.1,2.7h-1l3.4-8.6h0.8l3.4,8.6H46.6z M45.2,316.9l-1-2.7c-0.1-0.3-0.3-0.7-0.4-1.2
				c-0.1,0.4-0.2,0.8-0.4,1.2l-1,2.7H45.2z"/>
			<path d="M54.2,314.5c0,0.9-0.3,1.5-0.9,2s-1.4,0.7-2.5,0.7h-1v3.4h-1V312H51C53.1,312,54.2,312.8,54.2,314.5z M49.8,316.3h0.9
				c0.9,0,1.5-0.1,1.9-0.4s0.6-0.7,0.6-1.4c0-0.6-0.2-1-0.6-1.3s-0.9-0.4-1.7-0.4h-1.1V316.3z"/>
			<path d="M56,320.6V312h1v8.6H56z"/>
			<path d="M66.5,318.8c0,0.6-0.2,1.1-0.7,1.4s-1.1,0.5-1.9,0.5c-0.9,0-1.5-0.1-2-0.4v-0.9c0.3,0.2,0.6,0.3,1,0.4s0.7,0.1,1,0.1
				c0.5,0,0.9-0.1,1.2-0.2s0.4-0.4,0.4-0.7c0-0.2-0.1-0.5-0.3-0.6s-0.6-0.4-1.3-0.6c-0.6-0.2-1-0.4-1.3-0.6s-0.4-0.4-0.6-0.6
				s-0.2-0.5-0.2-0.8c0-0.5,0.2-0.9,0.6-1.2s1-0.5,1.8-0.5c0.7,0,1.4,0.1,2,0.4l-0.3,0.8c-0.6-0.3-1.2-0.4-1.8-0.4
				c-0.5,0-0.8,0.1-1,0.2s-0.4,0.3-0.4,0.6c0,0.2,0,0.3,0.1,0.4s0.2,0.2,0.4,0.3s0.6,0.3,1.1,0.5c0.8,0.3,1.3,0.6,1.5,0.8
				S66.5,318.4,66.5,318.8z"/>
			<path d="M70.8,320.7c-0.9,0-1.7-0.3-2.2-0.9s-0.8-1.4-0.8-2.4c0-1,0.3-1.9,0.8-2.5s1.2-0.9,2.1-0.9c0.8,0,1.4,0.3,1.9,0.8
				s0.7,1.2,0.7,2.1v0.6h-4.4c0,0.8,0.2,1.3,0.6,1.7s0.9,0.6,1.5,0.6c0.7,0,1.4-0.1,2.1-0.4v0.9c-0.3,0.1-0.7,0.3-1,0.3
				S71.2,320.7,70.8,320.7z M70.5,314.8c-0.5,0-0.9,0.2-1.2,0.5s-0.5,0.8-0.5,1.4h3.4c0-0.6-0.1-1.1-0.4-1.4S71,314.8,70.5,314.8z"
				/>
			<path d="M77.7,314c0.3,0,0.5,0,0.8,0.1l-0.1,0.9c-0.3-0.1-0.5-0.1-0.7-0.1c-0.5,0-1,0.2-1.3,0.6s-0.6,0.9-0.6,1.6v3.4h-1v-6.4
				h0.8l0.1,1.2h0c0.2-0.4,0.5-0.7,0.9-1S77.3,314,77.7,314z"/>
			<path d="M81.1,320.6l-2.4-6.4h1l1.4,3.8c0.3,0.9,0.5,1.5,0.6,1.7h0c0-0.2,0.2-0.6,0.4-1.3s0.7-2.1,1.5-4.3h1l-2.4,6.4H81.1z"/>
			<path d="M88.4,320.7c-0.9,0-1.7-0.3-2.2-0.9s-0.8-1.4-0.8-2.4c0-1,0.3-1.9,0.8-2.5s1.2-0.9,2.1-0.9c0.8,0,1.4,0.3,1.9,0.8
				s0.7,1.2,0.7,2.1v0.6h-4.4c0,0.8,0.2,1.3,0.6,1.7s0.9,0.6,1.5,0.6c0.7,0,1.4-0.1,2.1-0.4v0.9c-0.3,0.1-0.7,0.3-1,0.3
				S88.8,320.7,88.4,320.7z M88.1,314.8c-0.5,0-0.9,0.2-1.2,0.5s-0.5,0.8-0.5,1.4h3.4c0-0.6-0.1-1.1-0.4-1.4S88.6,314.8,88.1,314.8z
				"/>
			<path d="M95.3,314c0.3,0,0.5,0,0.8,0.1L96,315c-0.3-0.1-0.5-0.1-0.7-0.1c-0.5,0-1,0.2-1.3,0.6s-0.6,0.9-0.6,1.6v3.4h-1v-6.4h0.8
				l0.1,1.2h0c0.2-0.4,0.5-0.7,0.9-1S94.9,314,95.3,314z"/>
		</g>
	</g>
	<g>
		<g>
			<path d="M42.2,213v3.6h-1V208h2.3c1.1,0,1.8,0.2,2.3,0.6s0.8,1,0.8,1.8c0,1.1-0.6,1.9-1.7,2.3l2.3,3.8H46L44,213H42.2z
				 M42.2,212.1h1.4c0.7,0,1.2-0.1,1.5-0.4s0.5-0.7,0.5-1.3c0-0.6-0.2-1-0.5-1.2s-0.9-0.4-1.6-0.4h-1.3V212.1z"/>
			<path d="M54,216.6l-1.1-2.7h-3.4l-1.1,2.7h-1l3.4-8.6h0.8l3.4,8.6H54z M52.6,212.9l-1-2.7c-0.1-0.3-0.3-0.7-0.4-1.2
				c-0.1,0.4-0.2,0.8-0.4,1.2l-1,2.7H52.6z"/>
			<path d="M61,214.3c0,0.8-0.3,1.3-0.8,1.8s-1.3,0.6-2.2,0.6c-1,0-1.8-0.1-2.3-0.4v-1c0.4,0.1,0.7,0.3,1.1,0.4s0.8,0.1,1.2,0.1
				c0.7,0,1.2-0.1,1.5-0.4s0.5-0.6,0.5-1.1c0-0.3-0.1-0.5-0.2-0.7s-0.3-0.4-0.6-0.5s-0.7-0.3-1.3-0.5c-0.8-0.3-1.4-0.6-1.7-1
				s-0.5-0.9-0.5-1.5c0-0.7,0.2-1.2,0.7-1.6s1.2-0.6,2-0.6c0.9,0,1.6,0.2,2.3,0.5l-0.3,0.9c-0.7-0.3-1.4-0.4-2.1-0.4
				c-0.5,0-0.9,0.1-1.2,0.3s-0.4,0.5-0.4,0.9c0,0.3,0.1,0.5,0.2,0.7s0.3,0.4,0.6,0.5s0.7,0.3,1.2,0.5c0.9,0.3,1.5,0.7,1.9,1
				S61,213.7,61,214.3z"/>
		</g>
	</g>
	<g>
		<g>
			<path d="M214,216.6h-4.8V208h4.8v0.9h-3.8v2.8h3.6v0.9h-3.6v3.2h3.8V216.6z"/>
			<path d="M220.1,216.6v-4.2c0-0.5-0.1-0.9-0.4-1.2s-0.6-0.4-1.1-0.4c-0.7,0-1.2,0.2-1.5,0.5s-0.5,1-0.5,1.8v3.4h-1v-6.4h0.8
				l0.2,0.9h0c0.2-0.3,0.5-0.6,0.8-0.7s0.8-0.3,1.2-0.3c0.8,0,1.4,0.2,1.7,0.6s0.6,1,0.6,1.8v4.2H220.1z"/>
			<path d="M228.3,210.1v0.6l-1.2,0.1c0.1,0.1,0.2,0.3,0.3,0.5s0.1,0.5,0.1,0.7c0,0.6-0.2,1.1-0.6,1.5s-1,0.6-1.8,0.6
				c-0.2,0-0.4,0-0.5,0c-0.4,0.2-0.6,0.5-0.6,0.8c0,0.2,0.1,0.3,0.2,0.4s0.4,0.1,0.7,0.1h1.1c0.7,0,1.2,0.1,1.6,0.4s0.6,0.7,0.6,1.3
				c0,0.7-0.3,1.3-0.9,1.6s-1.4,0.6-2.5,0.6c-0.8,0-1.5-0.2-1.9-0.5s-0.7-0.8-0.7-1.3c0-0.4,0.1-0.7,0.4-1s0.6-0.5,1.1-0.6
				c-0.2-0.1-0.3-0.2-0.4-0.3s-0.2-0.3-0.2-0.5c0-0.2,0.1-0.4,0.2-0.6s0.3-0.3,0.6-0.5c-0.3-0.1-0.6-0.4-0.8-0.7s-0.3-0.7-0.3-1.1
				c0-0.7,0.2-1.2,0.6-1.6s1-0.6,1.8-0.6c0.3,0,0.6,0,0.9,0.1H228.3z M223.2,217.6c0,0.3,0.1,0.6,0.4,0.8c0.3,0.2,0.7,0.3,1.3,0.3
				c0.8,0,1.4-0.1,1.8-0.4s0.6-0.6,0.6-1c0-0.3-0.1-0.6-0.3-0.7s-0.6-0.2-1.2-0.2h-1.2c-0.4,0-0.8,0.1-1,0.3
				S223.2,217.2,223.2,217.6z M223.7,212.2c0,0.4,0.1,0.8,0.4,1s0.6,0.3,1.1,0.3c0.9,0,1.4-0.5,1.4-1.4c0-1-0.5-1.4-1.4-1.4
				c-0.5,0-0.8,0.1-1.1,0.4S223.7,211.7,223.7,212.2z"/>
			<path d="M229.6,208.4c0-0.2,0.1-0.4,0.2-0.5s0.2-0.2,0.4-0.2c0.2,0,0.3,0.1,0.4,0.2s0.2,0.3,0.2,0.5s-0.1,0.4-0.2,0.5
				s-0.2,0.2-0.4,0.2c-0.2,0-0.3-0.1-0.4-0.2S229.6,208.6,229.6,208.4z M230.6,216.6h-1v-6.4h1V216.6z"/>
			<path d="M237.1,216.6v-4.2c0-0.5-0.1-0.9-0.4-1.2s-0.6-0.4-1.1-0.4c-0.7,0-1.2,0.2-1.5,0.5s-0.5,1-0.5,1.8v3.4h-1v-6.4h0.8
				l0.2,0.9h0c0.2-0.3,0.5-0.6,0.8-0.7s0.8-0.3,1.2-0.3c0.8,0,1.4,0.2,1.7,0.6s0.6,1,0.6,1.8v4.2H237.1z"/>
			<path d="M242.8,216.7c-0.9,0-1.7-0.3-2.2-0.9s-0.8-1.4-0.8-2.4c0-1,0.3-1.9,0.8-2.5s1.2-0.9,2.1-0.9c0.8,0,1.4,0.3,1.9,0.8
				s0.7,1.2,0.7,2.1v0.6h-4.4c0,0.8,0.2,1.3,0.6,1.7s0.9,0.6,1.5,0.6c0.7,0,1.4-0.1,2.1-0.4v0.9c-0.3,0.1-0.7,0.3-1,0.3
				S243.2,216.7,242.8,216.7z M242.5,210.8c-0.5,0-0.9,0.2-1.2,0.5s-0.5,0.8-0.5,1.4h3.4c0-0.6-0.1-1.1-0.4-1.4
				S243,210.8,242.5,210.8z"/>
			<path d="M252.5,216.7c-0.9,0-1.6-0.3-2.2-0.9s-0.8-1.4-0.8-2.4c0-1.1,0.3-1.9,0.8-2.5s1.3-0.9,2.2-0.9c0.3,0,0.6,0,0.9,0.1
				s0.6,0.1,0.7,0.2l-0.3,0.8c-0.2-0.1-0.4-0.2-0.7-0.2s-0.5-0.1-0.7-0.1c-1.3,0-2,0.8-2,2.5c0,0.8,0.2,1.4,0.5,1.8s0.8,0.6,1.4,0.6
				c0.5,0,1.1-0.1,1.6-0.3v0.9C253.7,216.6,253.1,216.7,252.5,216.7z"/>
			<path d="M261.2,213.3c0,1-0.3,1.9-0.8,2.5s-1.3,0.9-2.2,0.9c-0.6,0-1.1-0.1-1.5-0.4s-0.8-0.7-1-1.2s-0.4-1.1-0.4-1.8
				c0-1,0.3-1.9,0.8-2.4s1.2-0.9,2.2-0.9c0.9,0,1.6,0.3,2.1,0.9S261.2,212.3,261.2,213.3z M256.3,213.3c0,0.8,0.2,1.4,0.5,1.9
				s0.8,0.6,1.4,0.6s1.1-0.2,1.5-0.6s0.5-1.1,0.5-1.9c0-0.8-0.2-1.4-0.5-1.9s-0.8-0.6-1.5-0.6c-0.6,0-1.1,0.2-1.4,0.6
				S256.3,212.5,256.3,213.3z"/>
			<path d="M267.2,216.6v-4.2c0-0.5-0.1-0.9-0.4-1.2s-0.6-0.4-1.1-0.4c-0.7,0-1.2,0.2-1.5,0.5s-0.5,1-0.5,1.8v3.4h-1v-6.4h0.8
				l0.2,0.9h0c0.2-0.3,0.5-0.6,0.8-0.7s0.8-0.3,1.2-0.3c0.8,0,1.4,0.2,1.7,0.6s0.6,1,0.6,1.8v4.2H267.2z"/>
			<path d="M272.3,215.9c0.2,0,0.3,0,0.5,0s0.3-0.1,0.4-0.1v0.7c-0.1,0.1-0.3,0.1-0.5,0.1s-0.4,0-0.6,0c-1.2,0-1.9-0.7-1.9-2v-3.8
				h-0.9v-0.5l0.9-0.4l0.4-1.4h0.6v1.5h1.9v0.8h-1.9v3.8c0,0.4,0.1,0.7,0.3,0.9S272,215.9,272.3,215.9z"/>
			<path d="M277.4,210c0.3,0,0.5,0,0.8,0.1L278,211c-0.3-0.1-0.5-0.1-0.7-0.1c-0.5,0-1,0.2-1.3,0.6s-0.6,0.9-0.6,1.6v3.4h-1v-6.4
				h0.8l0.1,1.2h0c0.2-0.4,0.5-0.7,0.9-1S277,210,277.4,210z"/>
			<path d="M284.9,213.3c0,1-0.3,1.9-0.8,2.5s-1.3,0.9-2.2,0.9c-0.6,0-1.1-0.1-1.5-0.4s-0.8-0.7-1-1.2s-0.4-1.1-0.4-1.8
				c0-1,0.3-1.9,0.8-2.4s1.2-0.9,2.2-0.9c0.9,0,1.6,0.3,2.1,0.9S284.9,212.3,284.9,213.3z M280,213.3c0,0.8,0.2,1.4,0.5,1.9
				s0.8,0.6,1.4,0.6s1.1-0.2,1.5-0.6s0.5-1.1,0.5-1.9c0-0.8-0.2-1.4-0.5-1.9s-0.8-0.6-1.5-0.6c-0.6,0-1.1,0.2-1.4,0.6
				S280,212.5,280,213.3z"/>
			<path d="M287.6,216.6h-1v-9.1h1V216.6z"/>
			<path d="M290.6,216.6h-1v-9.1h1V216.6z"/>
			<path d="M295.4,216.7c-0.9,0-1.7-0.3-2.2-0.9s-0.8-1.4-0.8-2.4c0-1,0.3-1.9,0.8-2.5s1.2-0.9,2.1-0.9c0.8,0,1.4,0.3,1.9,0.8
				s0.7,1.2,0.7,2.1v0.6h-4.4c0,0.8,0.2,1.3,0.6,1.7s0.9,0.6,1.5,0.6c0.7,0,1.4-0.1,2.1-0.4v0.9c-0.3,0.1-0.7,0.3-1,0.3
				S295.8,216.7,295.4,216.7z M295.1,210.8c-0.5,0-0.9,0.2-1.2,0.5s-0.5,0.8-0.5,1.4h3.4c0-0.6-0.1-1.1-0.4-1.4
				S295.6,210.8,295.1,210.8z"/>
			<path d="M302.3,210c0.3,0,0.5,0,0.8,0.1L303,211c-0.3-0.1-0.5-0.1-0.7-0.1c-0.5,0-1,0.2-1.3,0.6s-0.6,0.9-0.6,1.6v3.4h-1v-6.4
				h0.8l0.1,1.2h0c0.2-0.4,0.5-0.7,0.9-1S301.9,210,302.3,210z"/>
		</g>
	</g>
	<g>
		<path d="M44.8,104.8c-0.9,0-1.7,0.3-2.2,0.9s-0.8,1.5-0.8,2.6c0,1.1,0.3,2,0.8,2.6s1.3,0.9,2.2,0.9c0.6,0,1.3-0.1,2-0.3v0.9
			c-0.6,0.2-1.3,0.3-2.2,0.3c-1.3,0-2.2-0.4-2.9-1.1s-1-1.9-1-3.3c0-0.9,0.2-1.7,0.5-2.3s0.8-1.2,1.4-1.5s1.4-0.5,2.2-0.5
			c0.9,0,1.7,0.2,2.4,0.5l-0.4,0.9C46.1,104.9,45.5,104.8,44.8,104.8z"/>
		<path d="M54.2,106.5c0,0.9-0.3,1.5-0.9,2s-1.4,0.7-2.5,0.7h-1v3.4h-1V104H51C53.1,104,54.2,104.8,54.2,106.5z M49.7,108.3h0.9
			c0.9,0,1.5-0.1,1.9-0.4s0.6-0.7,0.6-1.4c0-0.6-0.2-1-0.6-1.3s-0.9-0.4-1.7-0.4h-1.1V108.3z"/>
		<path d="M60.8,110.3c0,0.8-0.3,1.3-0.8,1.8s-1.3,0.6-2.2,0.6c-1,0-1.8-0.1-2.3-0.4v-1c0.4,0.1,0.7,0.3,1.1,0.4s0.8,0.1,1.2,0.1
			c0.7,0,1.2-0.1,1.5-0.4s0.5-0.6,0.5-1.1c0-0.3-0.1-0.5-0.2-0.7s-0.3-0.4-0.6-0.5s-0.7-0.3-1.3-0.5c-0.8-0.3-1.4-0.6-1.7-1
			s-0.5-0.9-0.5-1.5c0-0.7,0.2-1.2,0.7-1.6s1.2-0.6,2-0.6c0.9,0,1.6,0.2,2.3,0.5l-0.3,0.9c-0.7-0.3-1.4-0.4-2.1-0.4
			c-0.5,0-0.9,0.1-1.2,0.3s-0.4,0.5-0.4,0.9c0,0.3,0.1,0.5,0.2,0.7s0.3,0.4,0.6,0.5s0.7,0.3,1.2,0.5c0.9,0.3,1.5,0.7,1.9,1
			S60.8,109.7,60.8,110.3z"/>
		<path d="M65.7,104l-3.2,8.6h-1l3.2-8.6H65.7z"/>
		<path d="M73.8,108.2c0,1.4-0.4,2.5-1.2,3.2s-1.9,1.1-3.3,1.1H67V104h2.6c1.3,0,2.4,0.4,3.1,1.1S73.8,106.9,73.8,108.2z
			 M72.7,108.2c0-1.1-0.3-2-0.8-2.5s-1.4-0.8-2.5-0.8H68v6.8h1.2c1.2,0,2.1-0.3,2.7-0.9S72.7,109.4,72.7,108.2z"/>
		<path d="M80.5,110.3c0,0.8-0.3,1.3-0.8,1.8s-1.3,0.6-2.2,0.6c-1,0-1.8-0.1-2.3-0.4v-1c0.4,0.1,0.7,0.3,1.1,0.4s0.8,0.1,1.2,0.1
			c0.7,0,1.2-0.1,1.5-0.4s0.5-0.6,0.5-1.1c0-0.3-0.1-0.5-0.2-0.7s-0.3-0.4-0.6-0.5s-0.7-0.3-1.3-0.5c-0.8-0.3-1.4-0.6-1.7-1
			s-0.5-0.9-0.5-1.5c0-0.7,0.2-1.2,0.7-1.6s1.2-0.6,2-0.6c0.9,0,1.6,0.2,2.3,0.5l-0.3,0.9c-0.7-0.3-1.4-0.4-2.1-0.4
			c-0.5,0-0.9,0.1-1.2,0.3s-0.4,0.5-0.4,0.9c0,0.3,0.1,0.5,0.2,0.7s0.3,0.4,0.6,0.5s0.7,0.3,1.2,0.5c0.9,0.3,1.5,0.7,1.9,1
			S80.5,109.7,80.5,110.3z"/>
		<path d="M87.1,110.3c0,0.8-0.3,1.3-0.8,1.8c-0.5,0.4-1.3,0.6-2.2,0.6c-1,0-1.8-0.1-2.3-0.4v-1c0.4,0.1,0.7,0.3,1.1,0.4
			s0.8,0.1,1.2,0.1c0.7,0,1.2-0.1,1.5-0.4s0.5-0.6,0.5-1.1c0-0.3-0.1-0.5-0.2-0.7s-0.3-0.4-0.6-0.5s-0.7-0.3-1.3-0.5
			c-0.8-0.3-1.4-0.6-1.7-1s-0.5-0.9-0.5-1.5c0-0.7,0.2-1.2,0.7-1.6s1.2-0.6,2-0.6c0.9,0,1.6,0.2,2.3,0.5l-0.3,0.9
			c-0.7-0.3-1.4-0.4-2.1-0.4c-0.5,0-0.9,0.1-1.2,0.3s-0.4,0.5-0.4,0.9c0,0.3,0.1,0.5,0.2,0.7s0.3,0.4,0.6,0.5s0.7,0.3,1.2,0.5
			c0.9,0.3,1.5,0.7,1.9,1S87.1,109.7,87.1,110.3z"/>
	</g>
	<g>
		<path d="M558.2,182.2c0,1.4-0.4,2.5-1.2,3.2s-1.9,1.1-3.3,1.1h-2.4V178h2.6c1.3,0,2.4,0.4,3.1,1.1S558.2,180.9,558.2,182.2z
			 M557.1,182.2c0-1.1-0.3-2-0.8-2.5s-1.4-0.8-2.5-0.8h-1.4v6.8h1.2c1.2,0,2.1-0.3,2.7-0.9S557.1,183.4,557.1,182.2z"/>
		<path d="M565.5,183.3c0,1-0.3,1.9-0.8,2.5s-1.3,0.9-2.2,0.9c-0.6,0-1.1-0.1-1.5-0.4s-0.8-0.7-1-1.2s-0.4-1.1-0.4-1.8
			c0-1,0.3-1.9,0.8-2.4s1.2-0.9,2.2-0.9c0.9,0,1.6,0.3,2.1,0.9S565.5,182.3,565.5,183.3z M560.6,183.3c0,0.8,0.2,1.4,0.5,1.9
			s0.8,0.6,1.4,0.6s1.1-0.2,1.5-0.6s0.5-1.1,0.5-1.9c0-0.8-0.2-1.4-0.5-1.9s-0.8-0.6-1.5-0.6c-0.6,0-1.1,0.2-1.4,0.6
			S560.6,182.5,560.6,183.3z"/>
		<path d="M569.8,186.7c-0.9,0-1.6-0.3-2.2-0.9s-0.8-1.4-0.8-2.4c0-1.1,0.3-1.9,0.8-2.5s1.3-0.9,2.2-0.9c0.3,0,0.6,0,0.9,0.1
			s0.6,0.1,0.7,0.2l-0.3,0.8c-0.2-0.1-0.4-0.2-0.7-0.2s-0.5-0.1-0.7-0.1c-1.3,0-2,0.8-2,2.5c0,0.8,0.2,1.4,0.5,1.8s0.8,0.6,1.4,0.6
			c0.5,0,1.1-0.1,1.6-0.3v0.9C571,186.6,570.4,186.7,569.8,186.7z"/>
		<path d="M573.9,183.3c0.2-0.2,0.4-0.6,0.8-0.9l2.1-2.2h1.2l-2.6,2.7l2.8,3.7h-1.2l-2.3-3l-0.7,0.6v2.4h-1v-9.1h1v4.8
			C573.9,182.5,573.9,182.8,573.9,183.3L573.9,183.3z"/>
		<path d="M581.9,186.7c-0.9,0-1.7-0.3-2.2-0.9s-0.8-1.4-0.8-2.4c0-1,0.3-1.9,0.8-2.5s1.2-0.9,2.1-0.9c0.8,0,1.4,0.3,1.9,0.8
			s0.7,1.2,0.7,2.1v0.6h-4.4c0,0.8,0.2,1.3,0.6,1.7s0.9,0.6,1.5,0.6c0.7,0,1.4-0.1,2.1-0.4v0.9c-0.3,0.1-0.7,0.3-1,0.3
			S582.4,186.7,581.9,186.7z M581.7,180.8c-0.5,0-0.9,0.2-1.2,0.5s-0.5,0.8-0.5,1.4h3.4c0-0.6-0.1-1.1-0.4-1.4
			S582.2,180.8,581.7,180.8z"/>
		<path d="M588.9,180c0.3,0,0.5,0,0.8,0.1l-0.1,0.9c-0.3-0.1-0.5-0.1-0.7-0.1c-0.5,0-1,0.2-1.3,0.6s-0.6,0.9-0.6,1.6v3.4h-1v-6.4
			h0.8l0.1,1.2h0c0.2-0.4,0.5-0.7,0.9-1S588.5,180,588.9,180z"/>
		<path d="M554.8,198.7c-0.9,0-1.7-0.3-2.2-0.9s-0.8-1.4-0.8-2.4c0-1,0.3-1.9,0.8-2.5s1.2-0.9,2.1-0.9c0.8,0,1.4,0.3,1.9,0.8
			s0.7,1.2,0.7,2.1v0.6h-4.4c0,0.8,0.2,1.3,0.6,1.7s0.9,0.6,1.5,0.6c0.7,0,1.4-0.1,2.1-0.4v0.9c-0.3,0.1-0.7,0.3-1,0.3
			S555.3,198.7,554.8,198.7z M554.6,192.8c-0.5,0-0.9,0.2-1.2,0.5s-0.5,0.8-0.5,1.4h3.4c0-0.6-0.1-1.1-0.4-1.4
			S555.1,192.8,554.6,192.8z"/>
		<path d="M563.3,198.6v-4.2c0-0.5-0.1-0.9-0.4-1.2s-0.6-0.4-1.1-0.4c-0.7,0-1.2,0.2-1.5,0.5s-0.5,1-0.5,1.8v3.4h-1v-6.4h0.8
			l0.2,0.9h0c0.2-0.3,0.5-0.6,0.8-0.7s0.8-0.3,1.2-0.3c0.8,0,1.4,0.2,1.7,0.6s0.6,1,0.6,1.8v4.2H563.3z"/>
		<path d="M571.5,192.1v0.6l-1.2,0.1c0.1,0.1,0.2,0.3,0.3,0.5s0.1,0.5,0.1,0.7c0,0.6-0.2,1.1-0.6,1.5s-1,0.6-1.8,0.6
			c-0.2,0-0.4,0-0.5,0c-0.4,0.2-0.6,0.5-0.6,0.8c0,0.2,0.1,0.3,0.2,0.4s0.4,0.1,0.7,0.1h1.1c0.7,0,1.2,0.1,1.6,0.4s0.6,0.7,0.6,1.3
			c0,0.7-0.3,1.3-0.9,1.6s-1.4,0.6-2.5,0.6c-0.8,0-1.5-0.2-1.9-0.5s-0.7-0.8-0.7-1.3c0-0.4,0.1-0.7,0.4-1s0.6-0.5,1.1-0.6
			c-0.2-0.1-0.3-0.2-0.4-0.3s-0.2-0.3-0.2-0.5c0-0.2,0.1-0.4,0.2-0.6s0.3-0.3,0.6-0.5c-0.3-0.1-0.6-0.4-0.8-0.7s-0.3-0.7-0.3-1.1
			c0-0.7,0.2-1.2,0.6-1.6s1-0.6,1.8-0.6c0.3,0,0.6,0,0.9,0.1H571.5z M566.4,199.6c0,0.3,0.1,0.6,0.4,0.8s0.7,0.3,1.3,0.3
			c0.8,0,1.4-0.1,1.8-0.4s0.6-0.6,0.6-1c0-0.3-0.1-0.6-0.3-0.7s-0.6-0.2-1.2-0.2h-1.2c-0.4,0-0.8,0.1-1,0.3S566.4,199.2,566.4,199.6
			z M566.9,194.2c0,0.4,0.1,0.8,0.4,1s0.6,0.3,1.1,0.3c0.9,0,1.4-0.5,1.4-1.4c0-1-0.5-1.4-1.4-1.4c-0.5,0-0.8,0.1-1.1,0.4
			S566.9,193.7,566.9,194.2z"/>
		<path d="M572.7,190.4c0-0.2,0.1-0.4,0.2-0.5s0.2-0.2,0.4-0.2c0.2,0,0.3,0.1,0.4,0.2s0.2,0.3,0.2,0.5s-0.1,0.4-0.2,0.5
			s-0.2,0.2-0.4,0.2c-0.2,0-0.3-0.1-0.4-0.2S572.7,190.6,572.7,190.4z M573.8,198.6h-1v-6.4h1V198.6z"/>
		<path d="M580.2,198.6v-4.2c0-0.5-0.1-0.9-0.4-1.2s-0.6-0.4-1.1-0.4c-0.7,0-1.2,0.2-1.5,0.5s-0.5,1-0.5,1.8v3.4h-1v-6.4h0.8
			l0.2,0.9h0c0.2-0.3,0.5-0.6,0.8-0.7s0.8-0.3,1.2-0.3c0.8,0,1.4,0.2,1.7,0.6s0.6,1,0.6,1.8v4.2H580.2z"/>
		<path d="M585.9,198.7c-0.9,0-1.7-0.3-2.2-0.9s-0.8-1.4-0.8-2.4c0-1,0.3-1.9,0.8-2.5s1.2-0.9,2.1-0.9c0.8,0,1.4,0.3,1.9,0.8
			s0.7,1.2,0.7,2.1v0.6h-4.4c0,0.8,0.2,1.3,0.6,1.7s0.9,0.6,1.5,0.6c0.7,0,1.4-0.1,2.1-0.4v0.9c-0.3,0.1-0.7,0.3-1,0.3
			S586.3,198.7,585.9,198.7z M585.7,192.8c-0.5,0-0.9,0.2-1.2,0.5s-0.5,0.8-0.5,1.4h3.4c0-0.6-0.1-1.1-0.4-1.4
			S586.2,192.8,585.7,192.8z"/>
	</g>
	<g>
		<path d="M662,184.3c0,0.8-0.3,1.3-0.8,1.8s-1.3,0.6-2.2,0.6c-1,0-1.8-0.1-2.3-0.4v-1c0.4,0.1,0.7,0.3,1.1,0.4s0.8,0.1,1.2,0.1
			c0.7,0,1.2-0.1,1.5-0.4s0.5-0.6,0.5-1.1c0-0.3-0.1-0.5-0.2-0.7s-0.3-0.4-0.6-0.5s-0.7-0.3-1.3-0.5c-0.8-0.3-1.4-0.6-1.7-1
			s-0.5-0.9-0.5-1.5c0-0.7,0.2-1.2,0.7-1.6s1.2-0.6,2-0.6c0.9,0,1.6,0.2,2.3,0.5l-0.3,0.9c-0.7-0.3-1.4-0.4-2.1-0.4
			c-0.5,0-0.9,0.1-1.2,0.3s-0.4,0.5-0.4,0.9c0,0.3,0.1,0.5,0.2,0.7s0.3,0.4,0.6,0.5s0.7,0.3,1.2,0.5c0.9,0.3,1.5,0.7,1.9,1
			S662,183.7,662,184.3z"/>
		<path d="M666.3,186.7c-0.9,0-1.7-0.3-2.2-0.9s-0.8-1.4-0.8-2.4c0-1,0.3-1.9,0.8-2.5s1.2-0.9,2.1-0.9c0.8,0,1.4,0.3,1.9,0.8
			s0.7,1.2,0.7,2.1v0.6h-4.4c0,0.8,0.2,1.3,0.6,1.7s0.9,0.6,1.5,0.6c0.7,0,1.4-0.1,2.1-0.4v0.9c-0.3,0.1-0.7,0.3-1,0.3
			S666.8,186.7,666.3,186.7z M666.1,180.8c-0.5,0-0.9,0.2-1.2,0.5s-0.5,0.8-0.5,1.4h3.4c0-0.6-0.1-1.1-0.4-1.4
			S666.6,180.8,666.1,180.8z"/>
		<path d="M671.3,186.6h-1v-9.1h1V186.6z"/>
		<path d="M676.1,186.7c-0.9,0-1.7-0.3-2.2-0.9s-0.8-1.4-0.8-2.4c0-1,0.3-1.9,0.8-2.5s1.2-0.9,2.1-0.9c0.8,0,1.4,0.3,1.9,0.8
			s0.7,1.2,0.7,2.1v0.6H674c0,0.8,0.2,1.3,0.6,1.7s0.9,0.6,1.5,0.6c0.7,0,1.4-0.1,2.1-0.4v0.9c-0.3,0.1-0.7,0.3-1,0.3
			S676.5,186.7,676.1,186.7z M675.8,180.8c-0.5,0-0.9,0.2-1.2,0.5s-0.5,0.8-0.5,1.4h3.4c0-0.6-0.1-1.1-0.4-1.4
			S676.3,180.8,675.8,180.8z"/>
		<path d="M684.5,186.6v-4.2c0-0.5-0.1-0.9-0.4-1.2s-0.6-0.4-1.1-0.4c-0.7,0-1.2,0.2-1.5,0.5s-0.5,1-0.5,1.8v3.4h-1v-6.4h0.8
			l0.2,0.9h0c0.2-0.3,0.5-0.6,0.8-0.7s0.8-0.3,1.2-0.3c0.8,0,1.4,0.2,1.7,0.6s0.6,1,0.6,1.8v4.2H684.5z"/>
		<path d="M687.4,178.4c0-0.2,0.1-0.4,0.2-0.5s0.2-0.2,0.4-0.2c0.2,0,0.3,0.1,0.4,0.2s0.2,0.3,0.2,0.5s-0.1,0.4-0.2,0.5
			s-0.2,0.2-0.4,0.2c-0.2,0-0.3-0.1-0.4-0.2S687.4,178.6,687.4,178.4z M688.4,186.6h-1v-6.4h1V186.6z"/>
		<path d="M691.4,180.1v4.2c0,0.5,0.1,0.9,0.4,1.2s0.6,0.4,1.1,0.4c0.7,0,1.2-0.2,1.5-0.6s0.5-1,0.5-1.8v-3.4h1v6.4H695l-0.1-0.9
			h-0.1c-0.2,0.3-0.5,0.6-0.8,0.7s-0.8,0.3-1.2,0.3c-0.8,0-1.4-0.2-1.8-0.6s-0.6-1-0.6-1.8v-4.2H691.4z"/>
		<path d="M706.1,186.6v-4.2c0-0.5-0.1-0.9-0.3-1.2s-0.6-0.4-1-0.4c-0.6,0-1.1,0.2-1.3,0.5s-0.4,0.9-0.4,1.6v3.6h-1v-4.2
			c0-0.5-0.1-0.9-0.3-1.2s-0.6-0.4-1-0.4c-0.6,0-1.1,0.2-1.3,0.5s-0.4,1-0.4,1.8v3.4h-1v-6.4h0.8l0.2,0.9h0c0.2-0.3,0.4-0.6,0.8-0.7
			s0.7-0.3,1.1-0.3c1,0,1.7,0.4,2,1.1h0c0.2-0.3,0.5-0.6,0.8-0.8s0.8-0.3,1.2-0.3c0.7,0,1.3,0.2,1.6,0.6s0.5,1,0.5,1.8v4.2H706.1z"
			/>
		<path d="M670.9,197.7L670.9,197.7c-0.5,0.7-1.2,1-2.1,1c-0.8,0-1.5-0.3-2-0.9s-0.7-1.4-0.7-2.4s0.2-1.9,0.7-2.5s1.1-0.9,2-0.9
			c0.9,0,1.5,0.3,2,0.9h0.1l0-0.5l0-0.5v-2.6h1v9.1h-0.8L670.9,197.7z M669,197.9c0.7,0,1.1-0.2,1.4-0.5s0.4-0.9,0.4-1.7v-0.2
			c0-0.9-0.2-1.6-0.5-1.9s-0.8-0.6-1.5-0.6c-0.6,0-1,0.2-1.3,0.7s-0.5,1.1-0.5,1.9c0,0.8,0.2,1.4,0.5,1.9S668.4,197.9,669,197.9z"/>
		<path d="M676.8,192c0.3,0,0.5,0,0.8,0.1l-0.1,0.9c-0.3-0.1-0.5-0.1-0.7-0.1c-0.5,0-1,0.2-1.3,0.6s-0.6,0.9-0.6,1.6v3.4h-1v-6.4
			h0.8l0.1,1.2h0c0.2-0.4,0.5-0.7,0.9-1S676.4,192,676.8,192z"/>
		<path d="M678.7,190.4c0-0.2,0.1-0.4,0.2-0.5s0.2-0.2,0.4-0.2c0.2,0,0.3,0.1,0.4,0.2s0.2,0.3,0.2,0.5s-0.1,0.4-0.2,0.5
			s-0.2,0.2-0.4,0.2c-0.2,0-0.3-0.1-0.4-0.2S678.7,190.6,678.7,190.4z M679.8,198.6h-1v-6.4h1V198.6z"/>
		<path d="M683.3,198.6l-2.4-6.4h1l1.4,3.8c0.3,0.9,0.5,1.5,0.6,1.7h0c0-0.2,0.2-0.6,0.4-1.3s0.7-2.1,1.5-4.3h1l-2.4,6.4H683.3z"/>
		<path d="M690.6,198.7c-0.9,0-1.7-0.3-2.2-0.9s-0.8-1.4-0.8-2.4c0-1,0.3-1.9,0.8-2.5s1.2-0.9,2.1-0.9c0.8,0,1.4,0.3,1.9,0.8
			s0.7,1.2,0.7,2.1v0.6h-4.4c0,0.8,0.2,1.3,0.6,1.7s0.9,0.6,1.5,0.6c0.7,0,1.4-0.1,2.1-0.4v0.9c-0.3,0.1-0.7,0.3-1,0.3
			S691,198.7,690.6,198.7z M690.3,192.8c-0.5,0-0.9,0.2-1.2,0.5s-0.5,0.8-0.5,1.4h3.4c0-0.6-0.1-1.1-0.4-1.4
			S690.8,192.8,690.3,192.8z"/>
		<path d="M697.5,192c0.3,0,0.5,0,0.8,0.1l-0.1,0.9c-0.3-0.1-0.5-0.1-0.7-0.1c-0.5,0-1,0.2-1.3,0.6s-0.6,0.9-0.6,1.6v3.4h-1v-6.4
			h0.8l0.1,1.2h0c0.2-0.4,0.5-0.7,0.9-1S697.1,192,697.5,192z"/>
	</g>
	<g>
		<path d="M548.9,292.3c0,1.4-0.3,2.4-1,3.2s-1.7,1.2-2.9,1.2c-1.3,0-2.2-0.4-2.9-1.2s-1-1.9-1-3.3c0-1.4,0.3-2.5,1-3.2
			s1.7-1.2,2.9-1.2c1.2,0,2.2,0.4,2.9,1.2S548.9,290.9,548.9,292.3z M542.1,292.3c0,1.2,0.2,2,0.7,2.6s1.2,0.9,2.2,0.9
			c0.9,0,1.7-0.3,2.2-0.9s0.7-1.5,0.7-2.6c0-1.2-0.2-2-0.7-2.6s-1.2-0.9-2.1-0.9c-0.9,0-1.7,0.3-2.2,0.9S542.1,291.1,542.1,292.3z"
			/>
		<path d="M553.6,296.7c-0.4,0-0.8-0.1-1.1-0.2s-0.6-0.4-0.9-0.7h-0.1c0,0.4,0.1,0.7,0.1,1.1v2.6h-1v-9.3h0.8l0.1,0.9h0
			c0.2-0.4,0.5-0.6,0.9-0.8s0.7-0.2,1.1-0.2c0.9,0,1.5,0.3,2,0.9s0.7,1.4,0.7,2.4c0,1.1-0.2,1.9-0.7,2.5S554.5,296.7,553.6,296.7z
			 M553.5,290.8c-0.7,0-1.1,0.2-1.4,0.5s-0.4,0.9-0.5,1.7v0.2c0,0.9,0.2,1.5,0.5,1.9s0.8,0.6,1.4,0.6c0.6,0,1-0.2,1.3-0.7
			s0.5-1.1,0.5-1.9c0-0.8-0.2-1.4-0.5-1.8S554.1,290.8,553.5,290.8z"/>
		<path d="M560.7,296.7c-0.9,0-1.7-0.3-2.2-0.9s-0.8-1.4-0.8-2.4c0-1,0.3-1.9,0.8-2.5s1.2-0.9,2.1-0.9c0.8,0,1.4,0.3,1.9,0.8
			s0.7,1.2,0.7,2.1v0.6h-4.4c0,0.8,0.2,1.3,0.6,1.7s0.9,0.6,1.5,0.6c0.7,0,1.4-0.1,2.1-0.4v0.9c-0.3,0.1-0.7,0.3-1,0.3
			S561.2,296.7,560.7,296.7z M560.5,290.8c-0.5,0-0.9,0.2-1.2,0.5s-0.5,0.8-0.5,1.4h3.4c0-0.6-0.1-1.1-0.4-1.4
			S561,290.8,560.5,290.8z"/>
		<path d="M569.1,296.6v-4.2c0-0.5-0.1-0.9-0.4-1.2s-0.6-0.4-1.1-0.4c-0.7,0-1.2,0.2-1.5,0.5s-0.5,1-0.5,1.8v3.4h-1v-6.4h0.8
			l0.2,0.9h0c0.2-0.3,0.5-0.6,0.8-0.7s0.8-0.3,1.2-0.3c0.8,0,1.4,0.2,1.7,0.6s0.6,1,0.6,1.8v4.2H569.1z"/>
		<path d="M576.2,294.8c0,0.6-0.2,1.1-0.7,1.4s-1.1,0.5-1.9,0.5c-0.9,0-1.5-0.1-2-0.4v-0.9c0.3,0.2,0.6,0.3,1,0.4s0.7,0.1,1,0.1
			c0.5,0,0.9-0.1,1.2-0.2s0.4-0.4,0.4-0.7c0-0.2-0.1-0.5-0.3-0.6s-0.6-0.4-1.3-0.6c-0.6-0.2-1-0.4-1.3-0.6s-0.4-0.4-0.6-0.6
			s-0.2-0.5-0.2-0.8c0-0.5,0.2-0.9,0.6-1.2s1-0.5,1.8-0.5c0.7,0,1.4,0.1,2,0.4l-0.3,0.8c-0.6-0.3-1.2-0.4-1.8-0.4
			c-0.5,0-0.8,0.1-1,0.2s-0.4,0.3-0.4,0.6c0,0.2,0,0.3,0.1,0.4s0.2,0.2,0.4,0.3s0.6,0.3,1.1,0.5c0.8,0.3,1.3,0.6,1.5,0.8
			S576.2,294.4,576.2,294.8z"/>
		<path d="M579.9,295.9c0.2,0,0.3,0,0.5,0s0.3-0.1,0.4-0.1v0.7c-0.1,0.1-0.3,0.1-0.5,0.1s-0.4,0-0.6,0c-1.2,0-1.9-0.7-1.9-2v-3.8
			H577v-0.5l0.9-0.4l0.4-1.4h0.6v1.5h1.9v0.8h-1.9v3.8c0,0.4,0.1,0.7,0.3,0.9S579.6,295.9,579.9,295.9z"/>
		<path d="M586,296.6l-0.2-0.9h0c-0.3,0.4-0.6,0.7-1,0.8s-0.7,0.2-1.2,0.2c-0.6,0-1.1-0.2-1.5-0.5s-0.5-0.8-0.5-1.4c0-1.3,1-2,3.1-2
			l1.1,0v-0.4c0-0.5-0.1-0.9-0.3-1.1s-0.6-0.4-1-0.4c-0.5,0-1.1,0.2-1.8,0.5l-0.3-0.7c0.3-0.2,0.7-0.3,1-0.4s0.8-0.1,1.1-0.1
			c0.8,0,1.3,0.2,1.7,0.5s0.6,0.9,0.6,1.6v4.4H586z M583.8,295.9c0.6,0,1.1-0.2,1.4-0.5s0.5-0.8,0.5-1.4v-0.6l-1,0
			c-0.8,0-1.3,0.1-1.7,0.4s-0.5,0.5-0.5,1c0,0.4,0.1,0.6,0.3,0.8S583.4,295.9,583.8,295.9z"/>
		<path d="M591.3,296.7c-0.9,0-1.6-0.3-2.2-0.9s-0.8-1.4-0.8-2.4c0-1.1,0.3-1.9,0.8-2.5s1.3-0.9,2.2-0.9c0.3,0,0.6,0,0.9,0.1
			s0.6,0.1,0.7,0.2l-0.3,0.8c-0.2-0.1-0.4-0.2-0.7-0.2s-0.5-0.1-0.7-0.1c-1.3,0-2,0.8-2,2.5c0,0.8,0.2,1.4,0.5,1.8s0.8,0.6,1.4,0.6
			c0.5,0,1.1-0.1,1.6-0.3v0.9C592.5,296.6,592,296.7,591.3,296.7z"/>
		<path d="M595.4,293.3c0.2-0.2,0.4-0.6,0.8-0.9l2.1-2.2h1.2l-2.6,2.7l2.8,3.7h-1.2l-2.3-3l-0.7,0.6v2.4h-1v-9.1h1v4.8
			C595.4,292.5,595.4,292.8,595.4,293.3L595.4,293.3z"/>
	</g>
	<g>
		<path d="M657.4,296.6h-4.7v-0.7l3.5-5H653v-0.8h4.4v0.8l-3.5,4.9h3.5V296.6z"/>
		<path d="M662.2,288l-3.2,8.6h-1l3.2-8.6H662.2z"/>
		<path d="M670.9,292.3c0,1.4-0.3,2.4-1,3.2s-1.7,1.2-2.9,1.2c-1.3,0-2.2-0.4-2.9-1.2s-1-1.9-1-3.3c0-1.4,0.3-2.5,1-3.2
			s1.7-1.2,2.9-1.2c1.2,0,2.2,0.4,2.9,1.2S670.9,290.9,670.9,292.3z M664.1,292.3c0,1.2,0.2,2,0.7,2.6s1.2,0.9,2.2,0.9
			c0.9,0,1.7-0.3,2.2-0.9s0.7-1.5,0.7-2.6c0-1.2-0.2-2-0.7-2.6s-1.2-0.9-2.1-0.9c-0.9,0-1.7,0.3-2.2,0.9S664.1,291.1,664.1,292.3z"
			/>
		<path d="M677.7,294.3c0,0.8-0.3,1.3-0.8,1.8s-1.3,0.6-2.2,0.6c-1,0-1.8-0.1-2.3-0.4v-1c0.4,0.1,0.7,0.3,1.1,0.4s0.8,0.1,1.2,0.1
			c0.7,0,1.2-0.1,1.5-0.4s0.5-0.6,0.5-1.1c0-0.3-0.1-0.5-0.2-0.7s-0.3-0.4-0.6-0.5s-0.7-0.3-1.3-0.5c-0.8-0.3-1.4-0.6-1.7-1
			s-0.5-0.9-0.5-1.5c0-0.7,0.2-1.2,0.7-1.6s1.2-0.6,2-0.6c0.9,0,1.6,0.2,2.3,0.5l-0.3,0.9c-0.7-0.3-1.4-0.4-2.1-0.4
			c-0.5,0-0.9,0.1-1.2,0.3s-0.4,0.5-0.4,0.9c0,0.3,0.1,0.5,0.2,0.7s0.3,0.4,0.6,0.5s0.7,0.3,1.2,0.5c0.9,0.3,1.5,0.7,1.9,1
			S677.7,293.7,677.7,294.3z"/>
		<path d="M681.8,293.8v-0.9h2.9v0.9H681.8z"/>
		<path d="M696.3,292.2c0,1.4-0.4,2.5-1.2,3.2s-1.9,1.1-3.3,1.1h-2.4V288h2.6c1.3,0,2.4,0.4,3.1,1.1S696.3,290.9,696.3,292.2z
			 M695.3,292.2c0-1.1-0.3-2-0.8-2.5s-1.4-0.8-2.5-0.8h-1.4v6.8h1.2c1.2,0,2.1-0.3,2.7-0.9S695.3,293.4,695.3,292.2z"/>
		<path d="M698.3,288h2.4c1.1,0,2,0.2,2.5,0.5s0.8,0.9,0.8,1.6c0,0.5-0.1,0.9-0.4,1.3s-0.7,0.5-1.2,0.6v0.1c1.3,0.2,2,0.9,2,2.1
			c0,0.8-0.3,1.4-0.8,1.8s-1.2,0.6-2.2,0.6h-3V288z M699.3,291.7h1.6c0.7,0,1.2-0.1,1.5-0.3s0.5-0.6,0.5-1.1c0-0.5-0.2-0.8-0.5-1
			s-0.9-0.3-1.6-0.3h-1.5V291.7z M699.3,292.5v3.2h1.8c0.7,0,1.2-0.1,1.6-0.4s0.5-0.7,0.5-1.3c0-0.5-0.2-0.9-0.5-1.2
			s-0.9-0.4-1.6-0.4H699.3z"/>
		<path d="M711.1,296.6h-5.6v-0.8l2.3-2.3c0.7-0.7,1.1-1.2,1.4-1.5s0.4-0.6,0.5-0.9s0.2-0.6,0.2-0.9c0-0.5-0.1-0.8-0.4-1.1
			s-0.7-0.4-1.2-0.4c-0.4,0-0.7,0.1-1,0.2s-0.7,0.3-1.1,0.6l-0.5-0.7c0.8-0.7,1.6-1,2.6-1c0.8,0,1.4,0.2,1.9,0.6s0.7,1,0.7,1.7
			c0,0.5-0.2,1.1-0.5,1.6s-0.9,1.2-1.7,2l-1.9,1.8v0h4.4V296.6z"/>
	</g>
	<g>
		<path d="M544.6,400.6h-4.7v-0.7l3.5-5h-3.3v-0.8h4.4v0.8l-3.5,4.9h3.5V400.6z"/>
		<path d="M549.3,392l-3.2,8.6h-1l3.2-8.6H549.3z"/>
		<path d="M558.1,396.3c0,1.4-0.3,2.4-1,3.2s-1.7,1.2-2.9,1.2c-1.3,0-2.2-0.4-2.9-1.2s-1-1.9-1-3.3c0-1.4,0.3-2.5,1-3.2
			s1.7-1.2,2.9-1.2c1.2,0,2.2,0.4,2.9,1.2S558.1,394.9,558.1,396.3z M551.2,396.3c0,1.2,0.2,2,0.7,2.6s1.2,0.9,2.2,0.9
			c0.9,0,1.7-0.3,2.2-0.9s0.7-1.5,0.7-2.6c0-1.2-0.2-2-0.7-2.6s-1.2-0.9-2.1-0.9c-0.9,0-1.7,0.3-2.2,0.9S551.2,395.1,551.2,396.3z"
			/>
		<path d="M564.8,398.3c0,0.8-0.3,1.3-0.8,1.8s-1.3,0.6-2.2,0.6c-1,0-1.8-0.1-2.3-0.4v-1c0.4,0.1,0.7,0.3,1.1,0.4s0.8,0.1,1.2,0.1
			c0.7,0,1.2-0.1,1.5-0.4s0.5-0.6,0.5-1.1c0-0.3-0.1-0.5-0.2-0.7s-0.3-0.4-0.6-0.5s-0.7-0.3-1.3-0.5c-0.8-0.3-1.4-0.6-1.7-1
			s-0.5-0.9-0.5-1.5c0-0.7,0.2-1.2,0.7-1.6s1.2-0.6,2-0.6c0.9,0,1.6,0.2,2.3,0.5l-0.3,0.9c-0.7-0.3-1.4-0.4-2.1-0.4
			c-0.5,0-0.9,0.1-1.2,0.3s-0.4,0.5-0.4,0.9c0,0.3,0.1,0.5,0.2,0.7s0.3,0.4,0.6,0.5s0.7,0.3,1.2,0.5c0.9,0.3,1.5,0.7,1.9,1
			S564.8,397.7,564.8,398.3z"/>
		<path d="M569,397.8v-0.9h2.9v0.9H569z"/>
		<path d="M580.3,392.8c-0.9,0-1.7,0.3-2.2,0.9s-0.8,1.5-0.8,2.6c0,1.1,0.3,2,0.8,2.6s1.3,0.9,2.2,0.9c0.6,0,1.3-0.1,2-0.3v0.9
			c-0.6,0.2-1.3,0.3-2.2,0.3c-1.3,0-2.2-0.4-2.9-1.1s-1-1.9-1-3.3c0-0.9,0.2-1.7,0.5-2.3s0.8-1.2,1.4-1.5s1.4-0.5,2.2-0.5
			c0.9,0,1.7,0.2,2.4,0.5l-0.4,0.9C581.6,392.9,581,392.8,580.3,392.8z"/>
		<path d="M584.2,400.6V392h1v8.6H584.2z"/>
		<path d="M591.2,392.8c-0.9,0-1.7,0.3-2.2,0.9s-0.8,1.5-0.8,2.6c0,1.1,0.3,2,0.8,2.6s1.3,0.9,2.2,0.9c0.6,0,1.3-0.1,2-0.3v0.9
			c-0.6,0.2-1.3,0.3-2.2,0.3c-1.3,0-2.2-0.4-2.9-1.1s-1-1.9-1-3.3c0-0.9,0.2-1.7,0.5-2.3s0.8-1.2,1.4-1.5s1.4-0.5,2.2-0.5
			c0.9,0,1.7,0.2,2.4,0.5l-0.4,0.9C592.5,392.9,591.9,392.8,591.2,392.8z"/>
		<path d="M600,398.3c0,0.8-0.3,1.3-0.8,1.8s-1.3,0.6-2.2,0.6c-1,0-1.8-0.1-2.3-0.4v-1c0.4,0.1,0.7,0.3,1.1,0.4s0.8,0.1,1.2,0.1
			c0.7,0,1.2-0.1,1.5-0.4s0.5-0.6,0.5-1.1c0-0.3-0.1-0.5-0.2-0.7s-0.3-0.4-0.6-0.5s-0.7-0.3-1.3-0.5c-0.8-0.3-1.4-0.6-1.7-1
			s-0.5-0.9-0.5-1.5c0-0.7,0.2-1.2,0.7-1.6s1.2-0.6,2-0.6c0.9,0,1.6,0.2,2.3,0.5l-0.3,0.9c-0.7-0.3-1.4-0.4-2.1-0.4
			c-0.5,0-0.9,0.1-1.2,0.3s-0.4,0.5-0.4,0.9c0,0.3,0.1,0.5,0.2,0.7s0.3,0.4,0.6,0.5s0.7,0.3,1.2,0.5c0.9,0.3,1.5,0.7,1.9,1
			S600,397.7,600,398.3z"/>
	</g>
	<g>
		<path d="M659,400.6h-4.7v-0.7l3.5-5h-3.3v-0.8h4.4v0.8l-3.5,4.9h3.5V400.6z"/>
		<path d="M663.8,392l-3.2,8.6h-1l3.2-8.6H663.8z"/>
		<path d="M672.5,396.3c0,1.4-0.3,2.4-1,3.2s-1.7,1.2-2.9,1.2c-1.3,0-2.2-0.4-2.9-1.2s-1-1.9-1-3.3c0-1.4,0.3-2.5,1-3.2
			s1.7-1.2,2.9-1.2c1.2,0,2.2,0.4,2.9,1.2S672.5,394.9,672.5,396.3z M665.7,396.3c0,1.2,0.2,2,0.7,2.6s1.2,0.9,2.2,0.9
			c0.9,0,1.7-0.3,2.2-0.9s0.7-1.5,0.7-2.6c0-1.2-0.2-2-0.7-2.6s-1.2-0.9-2.1-0.9c-0.9,0-1.7,0.3-2.2,0.9S665.7,395.1,665.7,396.3z"
			/>
		<path d="M679.3,398.3c0,0.8-0.3,1.3-0.8,1.8s-1.3,0.6-2.2,0.6c-1,0-1.8-0.1-2.3-0.4v-1c0.4,0.1,0.7,0.3,1.1,0.4s0.8,0.1,1.2,0.1
			c0.7,0,1.2-0.1,1.5-0.4s0.5-0.6,0.5-1.1c0-0.3-0.1-0.5-0.2-0.7s-0.3-0.4-0.6-0.5s-0.7-0.3-1.3-0.5c-0.8-0.3-1.4-0.6-1.7-1
			s-0.5-0.9-0.5-1.5c0-0.7,0.2-1.2,0.7-1.6s1.2-0.6,2-0.6c0.9,0,1.6,0.2,2.3,0.5l-0.3,0.9c-0.7-0.3-1.4-0.4-2.1-0.4
			c-0.5,0-0.9,0.1-1.2,0.3s-0.4,0.5-0.4,0.9c0,0.3,0.1,0.5,0.2,0.7s0.3,0.4,0.6,0.5s0.7,0.3,1.2,0.5c0.9,0.3,1.5,0.7,1.9,1
			S679.3,397.7,679.3,398.3z"/>
		<path d="M683.4,397.8v-0.9h2.9v0.9H683.4z"/>
		<path d="M694.9,400.6L692,393h0c0.1,0.6,0.1,1.3,0.1,2.1v5.4h-0.9V392h1.5l2.7,7.1h0l2.7-7.1h1.5v8.6h-1V395c0-0.6,0-1.3,0.1-2.1
			h0l-2.9,7.6H694.9z"/>
		<path d="M709.4,396.3c0,1.1-0.2,2-0.7,2.7s-1.1,1.2-1.9,1.5l2,2.1h-1.4l-1.7-1.9l-0.3,0c-1.3,0-2.2-0.4-2.9-1.2s-1-1.9-1-3.3
			c0-1.4,0.3-2.5,1-3.2s1.7-1.2,2.9-1.2c1.2,0,2.2,0.4,2.9,1.2S709.4,394.9,709.4,396.3z M702.6,396.3c0,1.2,0.2,2,0.7,2.6
			s1.2,0.9,2.2,0.9c0.9,0,1.7-0.3,2.2-0.9s0.7-1.5,0.7-2.6c0-1.2-0.2-2-0.7-2.6s-1.2-0.9-2.1-0.9c-0.9,0-1.7,0.3-2.2,0.9
			S702.6,395.1,702.6,396.3z"/>
	</g>
	<g>
		<path class="st6" d="M377.2,285.6V277h1v8.6H377.2z"/>
		<path class="st6" d="M384.8,285.6v-4.2c0-0.5-0.1-0.9-0.4-1.2s-0.6-0.4-1.1-0.4c-0.7,0-1.2,0.2-1.5,0.5s-0.5,1-0.5,1.8v3.4h-1
			v-6.4h0.8l0.2,0.9h0c0.2-0.3,0.5-0.6,0.8-0.7s0.8-0.3,1.2-0.3c0.8,0,1.4,0.2,1.7,0.6s0.6,1,0.6,1.8v4.2H384.8z"/>
		<path class="st6" d="M389.8,284.9c0.2,0,0.3,0,0.5,0s0.3-0.1,0.4-0.1v0.7c-0.1,0.1-0.3,0.1-0.5,0.1s-0.4,0-0.6,0
			c-1.2,0-1.9-0.7-1.9-2v-3.8h-0.9v-0.5l0.9-0.4l0.4-1.4h0.6v1.5h1.9v0.8h-1.9v3.8c0,0.4,0.1,0.7,0.3,0.9S389.5,284.9,389.8,284.9z"
			/>
		<path class="st6" d="M394.7,285.7c-0.9,0-1.7-0.3-2.2-0.9s-0.8-1.4-0.8-2.4c0-1,0.3-1.9,0.8-2.5s1.2-0.9,2.1-0.9
			c0.8,0,1.4,0.3,1.9,0.8s0.7,1.2,0.7,2.1v0.6h-4.4c0,0.8,0.2,1.3,0.6,1.7s0.9,0.6,1.5,0.6c0.7,0,1.4-0.1,2.1-0.4v0.9
			c-0.3,0.1-0.7,0.3-1,0.3S395.1,285.7,394.7,285.7z M394.4,279.8c-0.5,0-0.9,0.2-1.2,0.5s-0.5,0.8-0.5,1.4h3.4
			c0-0.6-0.1-1.1-0.4-1.4S394.9,279.8,394.4,279.8z"/>
		<path class="st6" d="M401.6,279c0.3,0,0.5,0,0.8,0.1l-0.1,0.9c-0.3-0.1-0.5-0.1-0.7-0.1c-0.5,0-1,0.2-1.3,0.6s-0.6,0.9-0.6,1.6
			v3.4h-1v-6.4h0.8l0.1,1.2h0c0.2-0.4,0.5-0.7,0.9-1S401.2,279,401.6,279z"/>
		<path class="st6" d="M407.6,285.6l-0.2-0.9h0c-0.3,0.4-0.6,0.7-1,0.8s-0.7,0.2-1.2,0.2c-0.6,0-1.1-0.2-1.5-0.5s-0.5-0.8-0.5-1.4
			c0-1.3,1-2,3.1-2l1.1,0v-0.4c0-0.5-0.1-0.9-0.3-1.1s-0.6-0.4-1-0.4c-0.5,0-1.1,0.2-1.8,0.5l-0.3-0.7c0.3-0.2,0.7-0.3,1-0.4
			s0.8-0.1,1.1-0.1c0.8,0,1.3,0.2,1.7,0.5s0.6,0.9,0.6,1.6v4.4H407.6z M405.4,284.9c0.6,0,1.1-0.2,1.4-0.5s0.5-0.8,0.5-1.4v-0.6
			l-1,0c-0.8,0-1.3,0.1-1.7,0.4s-0.5,0.5-0.5,1c0,0.4,0.1,0.6,0.3,0.8S405,284.9,405.4,284.9z"/>
		<path class="st6" d="M412.8,285.7c-0.9,0-1.6-0.3-2.2-0.9s-0.8-1.4-0.8-2.4c0-1.1,0.3-1.9,0.8-2.5s1.3-0.9,2.2-0.9
			c0.3,0,0.6,0,0.9,0.1s0.6,0.1,0.7,0.2l-0.3,0.8c-0.2-0.1-0.4-0.2-0.7-0.2s-0.5-0.1-0.7-0.1c-1.3,0-2,0.8-2,2.5
			c0,0.8,0.2,1.4,0.5,1.8s0.8,0.6,1.4,0.6c0.5,0,1.1-0.1,1.6-0.3v0.9C414,285.6,413.5,285.7,412.8,285.7z"/>
		<path class="st6" d="M418.1,284.9c0.2,0,0.3,0,0.5,0s0.3-0.1,0.4-0.1v0.7c-0.1,0.1-0.3,0.1-0.5,0.1s-0.4,0-0.6,0
			c-1.2,0-1.9-0.7-1.9-2v-3.8h-0.9v-0.5l0.9-0.4l0.4-1.4h0.6v1.5h1.9v0.8H417v3.8c0,0.4,0.1,0.7,0.3,0.9S417.8,284.9,418.1,284.9z"
			/>
		<path class="st6" d="M428.6,285.6l-1.2-3.8c-0.1-0.2-0.2-0.8-0.4-1.6h0c-0.2,0.7-0.3,1.2-0.4,1.6l-1.2,3.8h-1.1l-1.8-6.4h1
			c0.4,1.6,0.7,2.8,0.9,3.7s0.3,1.4,0.4,1.7h0c0-0.2,0.1-0.5,0.2-0.9s0.2-0.6,0.2-0.8l1.2-3.7h1.1l1.1,3.7c0.2,0.7,0.4,1.2,0.4,1.7
			h0c0-0.1,0.1-0.4,0.1-0.7s0.5-1.9,1.2-4.7h1l-1.8,6.4H428.6z"/>
		<path class="st6" d="M432.6,277.4c0-0.2,0.1-0.4,0.2-0.5s0.2-0.2,0.4-0.2c0.2,0,0.3,0.1,0.4,0.2s0.2,0.3,0.2,0.5s-0.1,0.4-0.2,0.5
			s-0.2,0.2-0.4,0.2c-0.2,0-0.3-0.1-0.4-0.2S432.6,277.6,432.6,277.4z M433.7,285.6h-1v-6.4h1V285.6z"/>
		<path class="st6" d="M437.8,284.9c0.2,0,0.3,0,0.5,0s0.3-0.1,0.4-0.1v0.7c-0.1,0.1-0.3,0.1-0.5,0.1s-0.4,0-0.6,0
			c-1.2,0-1.9-0.7-1.9-2v-3.8h-0.9v-0.5l0.9-0.4l0.4-1.4h0.6v1.5h1.9v0.8h-1.9v3.8c0,0.4,0.1,0.7,0.3,0.9S437.5,284.9,437.8,284.9z"
			/>
		<path class="st6" d="M444.3,285.6v-4.2c0-0.5-0.1-0.9-0.4-1.2s-0.6-0.4-1.1-0.4c-0.7,0-1.2,0.2-1.5,0.6s-0.5,1-0.5,1.8v3.4h-1
			v-9.1h1v2.8c0,0.3,0,0.6,0,0.8h0.1c0.2-0.3,0.5-0.6,0.8-0.7s0.8-0.3,1.2-0.3c0.8,0,1.4,0.2,1.8,0.6s0.6,1,0.6,1.8v4.2H444.3z"/>
		<path class="st6" d="M380,295c0.3,0,0.5,0,0.8,0.1l-0.1,0.9c-0.3-0.1-0.5-0.1-0.7-0.1c-0.5,0-1,0.2-1.3,0.6s-0.6,0.9-0.6,1.6v3.4
			h-1v-6.4h0.8l0.1,1.2h0c0.2-0.4,0.5-0.7,0.9-1S379.6,295,380,295z"/>
		<path class="st6" d="M384.6,301.7c-0.9,0-1.7-0.3-2.2-0.9s-0.8-1.4-0.8-2.4c0-1,0.3-1.9,0.8-2.5s1.2-0.9,2.1-0.9
			c0.8,0,1.4,0.3,1.9,0.8s0.7,1.2,0.7,2.1v0.6h-4.4c0,0.8,0.2,1.3,0.6,1.7s0.9,0.6,1.5,0.6c0.7,0,1.4-0.1,2.1-0.4v0.9
			c-0.3,0.1-0.7,0.3-1,0.3S385.1,301.7,384.6,301.7z M384.4,295.8c-0.5,0-0.9,0.2-1.2,0.5s-0.5,0.8-0.5,1.4h3.4
			c0-0.6-0.1-1.1-0.4-1.4S384.9,295.8,384.4,295.8z"/>
		<path class="st6" d="M392.8,299.8c0,0.6-0.2,1.1-0.7,1.4s-1.1,0.5-1.9,0.5c-0.9,0-1.5-0.1-2-0.4v-0.9c0.3,0.2,0.6,0.3,1,0.4
			s0.7,0.1,1,0.1c0.5,0,0.9-0.1,1.2-0.2s0.4-0.4,0.4-0.7c0-0.2-0.1-0.5-0.3-0.6s-0.6-0.4-1.3-0.6c-0.6-0.2-1-0.4-1.3-0.6
			s-0.4-0.4-0.6-0.6s-0.2-0.5-0.2-0.8c0-0.5,0.2-0.9,0.6-1.2s1-0.5,1.8-0.5c0.7,0,1.4,0.1,2,0.4l-0.3,0.8c-0.6-0.3-1.2-0.4-1.8-0.4
			c-0.5,0-0.8,0.1-1,0.2s-0.4,0.3-0.4,0.6c0,0.2,0,0.3,0.1,0.4s0.2,0.2,0.4,0.3s0.6,0.3,1.1,0.5c0.8,0.3,1.3,0.6,1.5,0.8
			S392.8,299.4,392.8,299.8z"/>
		<path class="st6" d="M399.9,298.3c0,1-0.3,1.9-0.8,2.5s-1.3,0.9-2.2,0.9c-0.6,0-1.1-0.1-1.5-0.4s-0.8-0.7-1-1.2s-0.4-1.1-0.4-1.8
			c0-1,0.3-1.9,0.8-2.4s1.2-0.9,2.2-0.9c0.9,0,1.6,0.3,2.1,0.9S399.9,297.3,399.9,298.3z M395,298.3c0,0.8,0.2,1.4,0.5,1.9
			s0.8,0.6,1.4,0.6s1.1-0.2,1.5-0.6s0.5-1.1,0.5-1.9c0-0.8-0.2-1.4-0.5-1.9s-0.8-0.6-1.5-0.6c-0.6,0-1.1,0.2-1.4,0.6
			S395,297.5,395,298.3z"/>
		<path class="st6" d="M402.5,295.1v4.2c0,0.5,0.1,0.9,0.4,1.2s0.6,0.4,1.1,0.4c0.7,0,1.2-0.2,1.5-0.6s0.5-1,0.5-1.8v-3.4h1v6.4
			h-0.8l-0.1-0.9h-0.1c-0.2,0.3-0.5,0.6-0.8,0.7s-0.8,0.3-1.2,0.3c-0.8,0-1.4-0.2-1.8-0.6s-0.6-1-0.6-1.8v-4.2H402.5z"/>
		<path class="st6" d="M411.9,295c0.3,0,0.5,0,0.8,0.1l-0.1,0.9c-0.3-0.1-0.5-0.1-0.7-0.1c-0.5,0-1,0.2-1.3,0.6s-0.6,0.9-0.6,1.6
			v3.4h-1v-6.4h0.8l0.1,1.2h0c0.2-0.4,0.5-0.7,0.9-1S411.5,295,411.9,295z"/>
		<path class="st6" d="M416.5,301.7c-0.9,0-1.6-0.3-2.2-0.9s-0.8-1.4-0.8-2.4c0-1.1,0.3-1.9,0.8-2.5s1.3-0.9,2.2-0.9
			c0.3,0,0.6,0,0.9,0.1s0.6,0.1,0.7,0.2l-0.3,0.8c-0.2-0.1-0.4-0.2-0.7-0.2s-0.5-0.1-0.7-0.1c-1.3,0-2,0.8-2,2.5
			c0,0.8,0.2,1.4,0.5,1.8s0.8,0.6,1.4,0.6c0.5,0,1.1-0.1,1.6-0.3v0.9C417.7,301.6,417.1,301.7,416.5,301.7z"/>
		<path class="st6" d="M422.3,301.7c-0.9,0-1.7-0.3-2.2-0.9s-0.8-1.4-0.8-2.4c0-1,0.3-1.9,0.8-2.5s1.2-0.9,2.1-0.9
			c0.8,0,1.4,0.3,1.9,0.8s0.7,1.2,0.7,2.1v0.6h-4.4c0,0.8,0.2,1.3,0.6,1.7s0.9,0.6,1.5,0.6c0.7,0,1.4-0.1,2.1-0.4v0.9
			c-0.3,0.1-0.7,0.3-1,0.3S422.8,301.7,422.3,301.7z M422.1,295.8c-0.5,0-0.9,0.2-1.2,0.5s-0.5,0.8-0.5,1.4h3.4
			c0-0.6-0.1-1.1-0.4-1.4S422.6,295.8,422.1,295.8z"/>
		<path class="st6" d="M430.5,299.8c0,0.6-0.2,1.1-0.7,1.4s-1.1,0.5-1.9,0.5c-0.9,0-1.5-0.1-2-0.4v-0.9c0.3,0.2,0.6,0.3,1,0.4
			s0.7,0.1,1,0.1c0.5,0,0.9-0.1,1.2-0.2s0.4-0.4,0.4-0.7c0-0.2-0.1-0.5-0.3-0.6s-0.6-0.4-1.3-0.6c-0.6-0.2-1-0.4-1.3-0.6
			s-0.4-0.4-0.6-0.6s-0.2-0.5-0.2-0.8c0-0.5,0.2-0.9,0.6-1.2s1-0.5,1.8-0.5c0.7,0,1.4,0.1,2,0.4l-0.3,0.8c-0.6-0.3-1.2-0.4-1.8-0.4
			c-0.5,0-0.8,0.1-1,0.2s-0.4,0.3-0.4,0.6c0,0.2,0,0.3,0.1,0.4s0.2,0.2,0.4,0.3s0.6,0.3,1.1,0.5c0.8,0.3,1.3,0.6,1.5,0.8
			S430.5,299.4,430.5,299.8z"/>
		<path class="st6" d="M437.9,301.7c-0.9,0-1.7-0.3-2.2-0.9s-0.8-1.4-0.8-2.4c0-1,0.3-1.9,0.8-2.5s1.2-0.9,2.1-0.9
			c0.8,0,1.4,0.3,1.9,0.8s0.7,1.2,0.7,2.1v0.6h-4.4c0,0.8,0.2,1.3,0.6,1.7s0.9,0.6,1.5,0.6c0.7,0,1.4-0.1,2.1-0.4v0.9
			c-0.3,0.1-0.7,0.3-1,0.3S438.3,301.7,437.9,301.7z M437.6,295.8c-0.5,0-0.9,0.2-1.2,0.5s-0.5,0.8-0.5,1.4h3.4
			c0-0.6-0.1-1.1-0.4-1.4S438.1,295.8,437.6,295.8z"/>
		<path class="st6" d="M441.8,300.9c0-0.3,0.1-0.5,0.2-0.6s0.3-0.2,0.5-0.2c0.2,0,0.4,0.1,0.5,0.2s0.2,0.3,0.2,0.6
			c0,0.3-0.1,0.4-0.2,0.6s-0.3,0.2-0.5,0.2c-0.2,0-0.4-0.1-0.5-0.2S441.8,301.2,441.8,300.9z"/>
		<path class="st6" d="M450.4,295.1v0.6l-1.2,0.1c0.1,0.1,0.2,0.3,0.3,0.5s0.1,0.5,0.1,0.7c0,0.6-0.2,1.1-0.6,1.5s-1,0.6-1.8,0.6
			c-0.2,0-0.4,0-0.5,0c-0.4,0.2-0.6,0.5-0.6,0.8c0,0.2,0.1,0.3,0.2,0.4s0.4,0.1,0.7,0.1h1.1c0.7,0,1.2,0.1,1.6,0.4s0.6,0.7,0.6,1.3
			c0,0.7-0.3,1.3-0.9,1.6s-1.4,0.6-2.5,0.6c-0.8,0-1.5-0.2-1.9-0.5s-0.7-0.8-0.7-1.3c0-0.4,0.1-0.7,0.4-1s0.6-0.5,1.1-0.6
			c-0.2-0.1-0.3-0.2-0.4-0.3s-0.2-0.3-0.2-0.5c0-0.2,0.1-0.4,0.2-0.6s0.3-0.3,0.6-0.5c-0.3-0.1-0.6-0.4-0.8-0.7s-0.3-0.7-0.3-1.1
			c0-0.7,0.2-1.2,0.6-1.6s1-0.6,1.8-0.6c0.3,0,0.6,0,0.9,0.1H450.4z M445.2,302.6c0,0.3,0.1,0.6,0.4,0.8s0.7,0.3,1.3,0.3
			c0.8,0,1.4-0.1,1.8-0.4s0.6-0.6,0.6-1c0-0.3-0.1-0.6-0.3-0.7s-0.6-0.2-1.2-0.2h-1.2c-0.4,0-0.8,0.1-1,0.3S445.2,302.2,445.2,302.6
			z M445.8,297.2c0,0.4,0.1,0.8,0.4,1s0.6,0.3,1.1,0.3c0.9,0,1.4-0.5,1.4-1.4c0-1-0.5-1.4-1.4-1.4c-0.5,0-0.8,0.1-1.1,0.4
			S445.8,296.7,445.8,297.2z"/>
		<path class="st6" d="M451.5,300.9c0-0.3,0.1-0.5,0.2-0.6s0.3-0.2,0.5-0.2c0.2,0,0.4,0.1,0.5,0.2s0.2,0.3,0.2,0.6
			c0,0.3-0.1,0.4-0.2,0.6s-0.3,0.2-0.5,0.2c-0.2,0-0.4-0.1-0.5-0.2S451.5,301.2,451.5,300.9z"/>
	</g>
</g>
</svg>
