<svg width="737" height="443" viewBox="0 0 737 443" fill="none" xmlns="http://www.w3.org/2000/svg">
<rect width="737" height="443" fill="white"/>
<rect x="588.5" y="174.5" width="119" height="117" rx="4.5" fill="#EBB347" stroke="#00378F"/>
<path d="M609.64 185.564H613.133V190.41C612.609 190.588 612.069 190.72 611.513 190.807C610.961 190.893 610.344 190.937 609.66 190.937C608.621 190.937 607.744 190.729 607.028 190.315C606.317 189.9 605.777 189.31 605.408 188.544C605.039 187.774 604.854 186.86 604.854 185.803C604.854 184.768 605.057 183.866 605.463 183.096C605.873 182.326 606.463 181.729 607.233 181.305C608.008 180.877 608.938 180.662 610.022 180.662C610.578 180.662 611.105 180.715 611.602 180.82C612.103 180.92 612.568 181.063 612.996 181.25L612.552 182.262C612.183 182.102 611.775 181.966 611.328 181.852C610.886 181.738 610.428 181.681 609.954 181.681C609.138 181.681 608.439 181.85 607.855 182.187C607.277 182.524 606.832 183 606.522 183.615C606.217 184.231 606.064 184.96 606.064 185.803C606.064 186.637 606.199 187.364 606.468 187.984C606.737 188.599 607.156 189.077 607.726 189.419C608.295 189.761 609.029 189.932 609.927 189.932C610.378 189.932 610.765 189.907 611.089 189.857C611.412 189.802 611.706 189.738 611.971 189.665V186.603H609.64V185.564ZM618.946 183.171C619.097 183.171 619.254 183.18 619.418 183.198C619.582 183.212 619.728 183.233 619.855 183.26L619.712 184.313C619.589 184.281 619.452 184.256 619.302 184.238C619.151 184.219 619.01 184.21 618.878 184.21C618.577 184.21 618.292 184.272 618.023 184.395C617.759 184.513 617.527 184.686 617.326 184.914C617.125 185.138 616.968 185.409 616.854 185.728C616.74 186.042 616.683 186.393 616.683 186.781V190.8H615.542V183.308H616.485L616.608 184.689H616.656C616.811 184.411 616.998 184.158 617.217 183.93C617.435 183.698 617.688 183.513 617.975 183.376C618.267 183.24 618.591 183.171 618.946 183.171ZM627.89 187.04C627.89 187.656 627.811 188.205 627.651 188.688C627.492 189.171 627.261 189.579 626.961 189.911C626.66 190.244 626.295 190.499 625.867 190.677C625.443 190.85 624.962 190.937 624.424 190.937C623.923 190.937 623.463 190.85 623.044 190.677C622.629 190.499 622.269 190.244 621.964 189.911C621.663 189.579 621.428 189.171 621.259 188.688C621.095 188.205 621.013 187.656 621.013 187.04C621.013 186.22 621.152 185.523 621.43 184.948C621.708 184.37 622.105 183.93 622.62 183.629C623.139 183.324 623.757 183.171 624.472 183.171C625.156 183.171 625.753 183.324 626.263 183.629C626.778 183.934 627.177 184.377 627.46 184.955C627.747 185.53 627.89 186.225 627.89 187.04ZM622.189 187.04C622.189 187.642 622.269 188.164 622.428 188.606C622.588 189.048 622.834 189.39 623.167 189.631C623.499 189.873 623.928 189.993 624.452 189.993C624.971 189.993 625.397 189.873 625.73 189.631C626.067 189.39 626.316 189.048 626.475 188.606C626.635 188.164 626.715 187.642 626.715 187.04C626.715 186.443 626.635 185.928 626.475 185.495C626.316 185.058 626.07 184.721 625.737 184.484C625.404 184.247 624.974 184.128 624.445 184.128C623.666 184.128 623.094 184.386 622.729 184.901C622.369 185.416 622.189 186.129 622.189 187.04ZM636.199 183.308V190.8H635.269L635.105 189.747H635.043C634.889 190.007 634.688 190.226 634.442 190.404C634.196 190.581 633.918 190.713 633.608 190.8C633.303 190.891 632.977 190.937 632.63 190.937C632.038 190.937 631.541 190.841 631.14 190.65C630.739 190.458 630.436 190.162 630.231 189.761C630.03 189.36 629.93 188.845 629.93 188.216V183.308H631.079V188.134C631.079 188.758 631.22 189.226 631.502 189.535C631.785 189.841 632.216 189.993 632.794 189.993C633.35 189.993 633.792 189.889 634.121 189.679C634.453 189.469 634.693 189.162 634.838 188.756C634.984 188.346 635.057 187.845 635.057 187.252V183.308H636.199ZM642.279 183.171C643.213 183.171 643.958 183.492 644.514 184.135C645.07 184.778 645.348 185.744 645.348 187.033C645.348 187.886 645.22 188.601 644.965 189.18C644.71 189.759 644.35 190.196 643.885 190.492C643.425 190.789 642.88 190.937 642.251 190.937C641.855 190.937 641.506 190.884 641.205 190.78C640.905 190.675 640.647 190.533 640.433 190.356C640.219 190.178 640.041 189.984 639.9 189.775H639.818C639.831 189.952 639.847 190.167 639.866 190.417C639.888 190.668 639.9 190.887 639.9 191.073V194.15H638.758V183.308H639.695L639.845 184.415H639.9C640.046 184.187 640.223 183.98 640.433 183.793C640.643 183.602 640.898 183.451 641.199 183.342C641.504 183.228 641.864 183.171 642.279 183.171ZM642.08 184.128C641.561 184.128 641.142 184.228 640.823 184.429C640.508 184.629 640.278 184.93 640.132 185.331C639.986 185.728 639.909 186.227 639.9 186.828V187.047C639.9 187.681 639.968 188.216 640.105 188.654C640.246 189.091 640.476 189.424 640.795 189.652C641.119 189.879 641.552 189.993 642.094 189.993C642.559 189.993 642.946 189.868 643.256 189.617C643.566 189.367 643.796 189.018 643.947 188.572C644.102 188.12 644.179 187.603 644.179 187.02C644.179 186.136 644.006 185.434 643.66 184.914C643.318 184.39 642.791 184.128 642.08 184.128ZM653.707 190.007C653.894 190.007 654.085 189.991 654.281 189.959C654.477 189.927 654.637 189.889 654.76 189.843V190.725C654.628 190.784 654.443 190.834 654.206 190.875C653.974 190.916 653.746 190.937 653.522 190.937C653.126 190.937 652.766 190.868 652.442 190.732C652.119 190.59 651.859 190.353 651.663 190.021C651.472 189.688 651.376 189.228 651.376 188.64V184.197H650.31V183.643L651.383 183.198L651.834 181.572H652.518V183.308H654.712V184.197H652.518V188.606C652.518 189.075 652.625 189.426 652.839 189.658C653.058 189.891 653.347 190.007 653.707 190.007ZM657.572 183.308V190.8H656.437V183.308H657.572ZM657.018 180.505C657.205 180.505 657.365 180.567 657.497 180.69C657.634 180.808 657.702 180.995 657.702 181.25C657.702 181.501 657.634 181.688 657.497 181.811C657.365 181.934 657.205 181.995 657.018 181.995C656.822 181.995 656.658 181.934 656.526 181.811C656.399 181.688 656.335 181.501 656.335 181.25C656.335 180.995 656.399 180.808 656.526 180.69C656.658 180.567 656.822 180.505 657.018 180.505ZM662.558 190.007C662.745 190.007 662.937 189.991 663.133 189.959C663.329 189.927 663.488 189.889 663.611 189.843V190.725C663.479 190.784 663.294 190.834 663.057 190.875C662.825 190.916 662.597 190.937 662.374 190.937C661.977 190.937 661.617 190.868 661.294 190.732C660.97 190.59 660.71 190.353 660.514 190.021C660.323 189.688 660.227 189.228 660.227 188.64V184.197H659.161V183.643L660.234 183.198L660.685 181.572H661.369V183.308H663.563V184.197H661.369V188.606C661.369 189.075 661.476 189.426 661.69 189.658C661.909 189.891 662.198 190.007 662.558 190.007ZM666.43 190.8H665.289V180.163H666.43V190.8ZM671.874 183.171C672.512 183.171 673.059 183.312 673.515 183.595C673.971 183.878 674.319 184.274 674.561 184.784C674.802 185.29 674.923 185.883 674.923 186.562V187.266H669.748C669.762 188.145 669.981 188.815 670.405 189.276C670.829 189.736 671.426 189.966 672.196 189.966C672.67 189.966 673.089 189.923 673.454 189.836C673.818 189.75 674.196 189.622 674.588 189.453V190.451C674.21 190.62 673.834 190.743 673.46 190.821C673.091 190.898 672.654 190.937 672.148 190.937C671.428 190.937 670.799 190.791 670.261 190.499C669.728 190.203 669.313 189.77 669.017 189.2C668.721 188.631 668.573 187.934 668.573 187.109C668.573 186.302 668.707 185.605 668.976 185.017C669.249 184.424 669.632 183.969 670.124 183.65C670.621 183.331 671.204 183.171 671.874 183.171ZM671.861 184.101C671.255 184.101 670.772 184.299 670.412 184.696C670.051 185.092 669.837 185.646 669.769 186.357H673.734C673.729 185.91 673.659 185.518 673.522 185.181C673.39 184.839 673.187 184.575 672.913 184.388C672.64 184.197 672.289 184.101 671.861 184.101Z" fill="black"/>
<path d="M593 166.3H703C705.485 166.3 707.5 168.315 707.5 170.8V205.3H588.5V170.8C588.5 168.315 590.515 166.3 593 166.3Z" fill="#DA6F5A"/>
<path d="M603.925 193.432C603.697 193.432 603.496 193.416 603.323 193.384C603.15 193.352 603.002 193.309 602.879 193.254V192.263C603.025 192.309 603.182 192.343 603.351 192.365C603.519 192.393 603.701 192.406 603.897 192.406C604.153 192.406 604.387 192.356 604.602 192.256C604.816 192.156 604.987 191.985 605.114 191.743C605.242 191.502 605.306 191.169 605.306 190.745V180.806H606.475V190.656C606.475 191.281 606.37 191.798 606.16 192.208C605.955 192.618 605.661 192.924 605.278 193.124C604.9 193.329 604.449 193.432 603.925 193.432ZM616.266 180.806L612.678 190.8H611.509L607.92 180.806H609.137L611.474 187.389C611.57 187.653 611.654 187.906 611.727 188.148C611.805 188.389 611.873 188.622 611.932 188.845C611.992 189.068 612.044 189.285 612.09 189.494C612.135 189.285 612.188 189.068 612.247 188.845C612.306 188.617 612.375 188.382 612.452 188.141C612.529 187.895 612.616 187.637 612.712 187.368L615.036 180.806H616.266ZM622.196 190.8L618.84 181.954H618.785C618.803 182.141 618.819 182.369 618.833 182.638C618.846 182.907 618.858 183.201 618.867 183.52C618.876 183.834 618.881 184.156 618.881 184.484V190.8H617.8V180.806H619.523L622.688 189.118H622.736L625.949 180.806H627.658V190.8H626.509V184.402C626.509 184.105 626.514 183.809 626.523 183.513C626.532 183.212 626.544 182.93 626.557 182.665C626.571 182.396 626.585 182.164 626.598 181.968H626.544L623.146 190.8H622.196Z" fill="white"/>
<path d="M593 166.3H703C705.485 166.3 707.5 168.315 707.5 170.8V205.3H588.5V170.8C588.5 168.315 590.515 166.3 593 166.3Z" stroke="#00378F"/>
<g style="mix-blend-mode:overlay">
<rect x="169.5" y="150.5" width="114" height="71" rx="4.5" fill="#82A4D9" stroke="#00378F"/>
<path d="M190.64 156.964H194.133V161.81C193.609 161.988 193.069 162.12 192.513 162.207C191.961 162.293 191.344 162.337 190.66 162.337C189.621 162.337 188.744 162.129 188.028 161.715C187.317 161.3 186.777 160.71 186.408 159.944C186.039 159.174 185.854 158.26 185.854 157.203C185.854 156.168 186.057 155.266 186.463 154.496C186.873 153.726 187.463 153.129 188.233 152.705C189.008 152.276 189.938 152.062 191.022 152.062C191.578 152.062 192.105 152.115 192.602 152.219C193.103 152.32 193.568 152.463 193.996 152.65L193.552 153.662C193.183 153.502 192.775 153.366 192.328 153.252C191.886 153.138 191.428 153.081 190.954 153.081C190.138 153.081 189.439 153.249 188.855 153.587C188.277 153.924 187.832 154.4 187.522 155.015C187.217 155.631 187.064 156.36 187.064 157.203C187.064 158.037 187.199 158.764 187.468 159.384C187.737 159.999 188.156 160.477 188.726 160.819C189.295 161.161 190.029 161.332 190.927 161.332C191.378 161.332 191.765 161.307 192.089 161.257C192.412 161.202 192.706 161.138 192.971 161.065V158.003H190.64V156.964ZM199.946 154.571C200.097 154.571 200.254 154.58 200.418 154.598C200.582 154.612 200.728 154.633 200.855 154.66L200.712 155.713C200.589 155.681 200.452 155.656 200.302 155.637C200.151 155.619 200.01 155.61 199.878 155.61C199.577 155.61 199.292 155.672 199.023 155.795C198.759 155.913 198.527 156.086 198.326 156.314C198.125 156.538 197.968 156.809 197.854 157.128C197.74 157.442 197.683 157.793 197.683 158.18V162.2H196.542V154.708H197.485L197.608 156.089H197.656C197.811 155.811 197.998 155.558 198.217 155.33C198.435 155.097 198.688 154.913 198.975 154.776C199.267 154.639 199.591 154.571 199.946 154.571ZM208.89 158.44C208.89 159.055 208.811 159.605 208.651 160.088C208.492 160.571 208.261 160.979 207.961 161.311C207.66 161.644 207.295 161.899 206.867 162.077C206.443 162.25 205.962 162.337 205.424 162.337C204.923 162.337 204.463 162.25 204.044 162.077C203.629 161.899 203.269 161.644 202.964 161.311C202.663 160.979 202.428 160.571 202.259 160.088C202.095 159.605 202.013 159.055 202.013 158.44C202.013 157.62 202.152 156.923 202.43 156.348C202.708 155.77 203.105 155.33 203.62 155.029C204.139 154.724 204.757 154.571 205.472 154.571C206.156 154.571 206.753 154.724 207.263 155.029C207.778 155.334 208.177 155.776 208.46 156.355C208.747 156.929 208.89 157.624 208.89 158.44ZM203.189 158.44C203.189 159.042 203.269 159.564 203.428 160.006C203.588 160.448 203.834 160.789 204.167 161.031C204.499 161.273 204.928 161.393 205.452 161.393C205.971 161.393 206.397 161.273 206.73 161.031C207.067 160.789 207.316 160.448 207.475 160.006C207.635 159.564 207.715 159.042 207.715 158.44C207.715 157.843 207.635 157.328 207.475 156.895C207.316 156.458 207.07 156.121 206.737 155.884C206.404 155.647 205.974 155.528 205.445 155.528C204.666 155.528 204.094 155.786 203.729 156.301C203.369 156.816 203.189 157.529 203.189 158.44ZM217.199 154.708V162.2H216.269L216.105 161.147H216.043C215.889 161.407 215.688 161.626 215.442 161.803C215.196 161.981 214.918 162.113 214.608 162.2C214.303 162.291 213.977 162.337 213.63 162.337C213.038 162.337 212.541 162.241 212.14 162.05C211.739 161.858 211.436 161.562 211.231 161.161C211.03 160.76 210.93 160.245 210.93 159.616V154.708H212.079V159.534C212.079 160.158 212.22 160.625 212.502 160.935C212.785 161.241 213.216 161.393 213.794 161.393C214.35 161.393 214.792 161.288 215.121 161.079C215.453 160.869 215.693 160.562 215.838 160.156C215.984 159.746 216.057 159.245 216.057 158.652V154.708H217.199ZM223.279 154.571C224.213 154.571 224.958 154.892 225.514 155.535C226.07 156.177 226.348 157.144 226.348 158.433C226.348 159.286 226.22 160.001 225.965 160.58C225.71 161.159 225.35 161.596 224.885 161.892C224.425 162.189 223.88 162.337 223.251 162.337C222.855 162.337 222.506 162.284 222.205 162.179C221.905 162.075 221.647 161.933 221.433 161.756C221.219 161.578 221.041 161.384 220.9 161.175H220.818C220.831 161.352 220.847 161.566 220.866 161.817C220.888 162.068 220.9 162.287 220.9 162.473V165.55H219.758V154.708H220.695L220.845 155.815H220.9C221.046 155.587 221.223 155.38 221.433 155.193C221.643 155.002 221.898 154.851 222.199 154.742C222.504 154.628 222.864 154.571 223.279 154.571ZM223.08 155.528C222.561 155.528 222.142 155.628 221.823 155.829C221.508 156.029 221.278 156.33 221.132 156.731C220.986 157.128 220.909 157.627 220.9 158.228V158.447C220.9 159.08 220.968 159.616 221.105 160.053C221.246 160.491 221.476 160.824 221.795 161.052C222.119 161.279 222.552 161.393 223.094 161.393C223.559 161.393 223.946 161.268 224.256 161.017C224.566 160.767 224.796 160.418 224.947 159.971C225.102 159.52 225.179 159.003 225.179 158.42C225.179 157.536 225.006 156.834 224.66 156.314C224.318 155.79 223.791 155.528 223.08 155.528ZM234.707 161.407C234.894 161.407 235.085 161.391 235.281 161.359C235.477 161.327 235.637 161.288 235.76 161.243V162.125C235.628 162.184 235.443 162.234 235.206 162.275C234.974 162.316 234.746 162.337 234.522 162.337C234.126 162.337 233.766 162.268 233.442 162.132C233.119 161.99 232.859 161.753 232.663 161.421C232.472 161.088 232.376 160.628 232.376 160.04V155.596H231.31V155.043L232.383 154.598L232.834 152.971H233.518V154.708H235.712V155.596H233.518V160.006C233.518 160.475 233.625 160.826 233.839 161.058C234.058 161.291 234.347 161.407 234.707 161.407ZM238.572 154.708V162.2H237.437V154.708H238.572ZM238.018 151.905C238.205 151.905 238.365 151.967 238.497 152.09C238.634 152.208 238.702 152.395 238.702 152.65C238.702 152.901 238.634 153.088 238.497 153.211C238.365 153.334 238.205 153.395 238.018 153.395C237.822 153.395 237.658 153.334 237.526 153.211C237.399 153.088 237.335 152.901 237.335 152.65C237.335 152.395 237.399 152.208 237.526 152.09C237.658 151.967 237.822 151.905 238.018 151.905ZM243.558 161.407C243.745 161.407 243.937 161.391 244.133 161.359C244.329 161.327 244.488 161.288 244.611 161.243V162.125C244.479 162.184 244.294 162.234 244.057 162.275C243.825 162.316 243.597 162.337 243.374 162.337C242.977 162.337 242.617 162.268 242.294 162.132C241.97 161.99 241.71 161.753 241.514 161.421C241.323 161.088 241.227 160.628 241.227 160.04V155.596H240.161V155.043L241.234 154.598L241.685 152.971H242.369V154.708H244.563V155.596H242.369V160.006C242.369 160.475 242.476 160.826 242.69 161.058C242.909 161.291 243.198 161.407 243.558 161.407ZM247.43 162.2H246.289V151.563H247.43V162.2ZM252.874 154.571C253.512 154.571 254.059 154.712 254.515 154.995C254.971 155.277 255.319 155.674 255.561 156.184C255.802 156.69 255.923 157.283 255.923 157.962V158.666H250.748C250.762 159.545 250.981 160.215 251.405 160.676C251.829 161.136 252.426 161.366 253.196 161.366C253.67 161.366 254.089 161.323 254.454 161.236C254.818 161.149 255.196 161.022 255.588 160.853V161.851C255.21 162.02 254.834 162.143 254.46 162.22C254.091 162.298 253.654 162.337 253.148 162.337C252.428 162.337 251.799 162.191 251.261 161.899C250.728 161.603 250.313 161.17 250.017 160.6C249.721 160.031 249.573 159.333 249.573 158.509C249.573 157.702 249.707 157.005 249.976 156.417C250.249 155.824 250.632 155.369 251.124 155.05C251.621 154.731 252.204 154.571 252.874 154.571ZM252.861 155.501C252.255 155.501 251.772 155.699 251.412 156.095C251.051 156.492 250.837 157.046 250.769 157.757H254.734C254.729 157.31 254.659 156.918 254.522 156.581C254.39 156.239 254.187 155.975 253.913 155.788C253.64 155.596 253.289 155.501 252.861 155.501Z" fill="black"/>
<path d="M174 137.7H279C281.485 137.7 283.5 139.715 283.5 142.2V176.7H169.5V142.2C169.5 139.715 171.515 137.7 174 137.7Z" fill="#00378F"/>
<path d="M189.437 162.2H188.268V153.231H185.123V152.206H192.567V153.231H189.437V162.2ZM196.952 154.571C197.59 154.571 198.137 154.712 198.593 154.995C199.048 155.277 199.397 155.674 199.639 156.184C199.88 156.69 200.001 157.283 200.001 157.962V158.666H194.826C194.84 159.545 195.058 160.215 195.482 160.676C195.906 161.136 196.503 161.366 197.273 161.366C197.747 161.366 198.167 161.323 198.531 161.236C198.896 161.149 199.274 161.022 199.666 160.853V161.851C199.288 162.02 198.912 162.143 198.538 162.22C198.169 162.298 197.731 162.337 197.225 162.337C196.505 162.337 195.876 162.191 195.339 161.899C194.806 161.603 194.391 161.17 194.095 160.6C193.798 160.031 193.65 159.333 193.65 158.509C193.65 157.702 193.785 157.005 194.054 156.417C194.327 155.824 194.71 155.369 195.202 155.05C195.699 154.731 196.282 154.571 196.952 154.571ZM196.938 155.501C196.332 155.501 195.849 155.699 195.489 156.095C195.129 156.492 194.915 157.046 194.847 157.757H198.811C198.807 157.31 198.736 156.918 198.599 156.581C198.467 156.239 198.264 155.975 197.991 155.788C197.718 155.596 197.367 155.501 196.938 155.501ZM206.935 160.149C206.935 160.628 206.814 161.031 206.573 161.359C206.336 161.683 205.994 161.927 205.548 162.091C205.105 162.255 204.577 162.337 203.962 162.337C203.438 162.337 202.984 162.296 202.601 162.214C202.218 162.132 201.883 162.015 201.596 161.865V160.819C201.902 160.969 202.266 161.106 202.69 161.229C203.114 161.352 203.547 161.414 203.989 161.414C204.636 161.414 205.105 161.309 205.397 161.099C205.689 160.89 205.835 160.605 205.835 160.245C205.835 160.04 205.775 159.86 205.657 159.705C205.543 159.545 205.349 159.393 205.076 159.247C204.802 159.096 204.424 158.932 203.941 158.755C203.463 158.572 203.048 158.392 202.697 158.215C202.351 158.032 202.082 157.811 201.89 157.552C201.703 157.292 201.61 156.955 201.61 156.54C201.61 155.906 201.865 155.421 202.376 155.084C202.891 154.742 203.565 154.571 204.399 154.571C204.85 154.571 205.272 154.617 205.664 154.708C206.06 154.794 206.429 154.913 206.771 155.063L206.388 155.972C206.078 155.84 205.748 155.729 205.397 155.637C205.046 155.546 204.688 155.501 204.324 155.501C203.8 155.501 203.396 155.587 203.114 155.76C202.836 155.934 202.697 156.171 202.697 156.471C202.697 156.704 202.761 156.895 202.888 157.046C203.021 157.196 203.23 157.337 203.517 157.469C203.804 157.602 204.183 157.757 204.652 157.934C205.121 158.108 205.527 158.288 205.869 158.474C206.211 158.657 206.473 158.88 206.655 159.144C206.842 159.404 206.935 159.739 206.935 160.149ZM211.34 161.407C211.527 161.407 211.719 161.391 211.915 161.359C212.111 161.327 212.27 161.288 212.393 161.243V162.125C212.261 162.184 212.076 162.234 211.839 162.275C211.607 162.316 211.379 162.337 211.156 162.337C210.759 162.337 210.399 162.268 210.076 162.132C209.752 161.99 209.492 161.753 209.296 161.421C209.105 161.088 209.009 160.628 209.009 160.04V155.596H207.943V155.043L209.016 154.598L209.467 152.971H210.151V154.708H212.345V155.596H210.151V160.006C210.151 160.475 210.258 160.826 210.472 161.058C210.691 161.291 210.98 161.407 211.34 161.407ZM222.311 153.088C221.759 153.088 221.263 153.183 220.821 153.375C220.383 153.562 220.009 153.835 219.699 154.195C219.394 154.551 219.159 154.981 218.995 155.487C218.831 155.993 218.749 156.563 218.749 157.196C218.749 158.035 218.879 158.764 219.139 159.384C219.403 159.999 219.795 160.475 220.315 160.812C220.839 161.149 221.493 161.318 222.277 161.318C222.723 161.318 223.142 161.282 223.534 161.209C223.931 161.131 224.316 161.036 224.69 160.922V161.933C224.325 162.07 223.942 162.17 223.541 162.234C223.14 162.302 222.664 162.337 222.112 162.337C221.096 162.337 220.246 162.127 219.563 161.708C218.884 161.284 218.373 160.687 218.031 159.917C217.694 159.147 217.526 158.237 217.526 157.189C217.526 156.433 217.63 155.742 217.84 155.118C218.054 154.489 218.364 153.947 218.77 153.491C219.18 153.035 219.681 152.684 220.274 152.438C220.871 152.188 221.554 152.062 222.324 152.062C222.83 152.062 223.318 152.112 223.787 152.213C224.257 152.313 224.681 152.456 225.059 152.643L224.594 153.628C224.275 153.482 223.924 153.357 223.541 153.252C223.163 153.142 222.753 153.088 222.311 153.088ZM233.306 158.44C233.306 159.055 233.226 159.605 233.066 160.088C232.907 160.571 232.677 160.979 232.376 161.311C232.075 161.644 231.711 161.899 231.282 162.077C230.858 162.25 230.378 162.337 229.84 162.337C229.339 162.337 228.878 162.25 228.459 162.077C228.044 161.899 227.684 161.644 227.379 161.311C227.078 160.979 226.843 160.571 226.675 160.088C226.511 159.605 226.429 159.055 226.429 158.44C226.429 157.62 226.568 156.923 226.846 156.348C227.124 155.77 227.52 155.33 228.035 155.029C228.555 154.724 229.172 154.571 229.888 154.571C230.571 154.571 231.168 154.724 231.679 155.029C232.194 155.334 232.592 155.776 232.875 156.355C233.162 156.929 233.306 157.624 233.306 158.44ZM227.605 158.44C227.605 159.042 227.684 159.564 227.844 160.006C228.003 160.448 228.249 160.789 228.582 161.031C228.915 161.273 229.343 161.393 229.867 161.393C230.387 161.393 230.813 161.273 231.146 161.031C231.483 160.789 231.731 160.448 231.891 160.006C232.05 159.564 232.13 159.042 232.13 158.44C232.13 157.843 232.05 157.328 231.891 156.895C231.731 156.458 231.485 156.121 231.152 155.884C230.82 155.647 230.389 155.528 229.86 155.528C229.081 155.528 228.509 155.786 228.145 156.301C227.785 156.816 227.605 157.529 227.605 158.44ZM238.094 162.337C237.146 162.337 236.394 162.013 235.838 161.366C235.286 160.719 235.011 159.757 235.011 158.481C235.011 157.191 235.293 156.219 235.858 155.562C236.423 154.901 237.175 154.571 238.114 154.571C238.511 154.571 238.857 154.623 239.153 154.728C239.449 154.833 239.705 154.974 239.919 155.152C240.133 155.325 240.313 155.524 240.459 155.747H240.541C240.523 155.606 240.504 155.412 240.486 155.166C240.468 154.92 240.459 154.719 240.459 154.564V151.563H241.594V162.2H240.678L240.507 161.134H240.459C240.318 161.357 240.138 161.56 239.919 161.742C239.705 161.924 239.447 162.07 239.146 162.179C238.85 162.284 238.499 162.337 238.094 162.337ZM238.271 161.393C239.073 161.393 239.641 161.165 239.974 160.71C240.306 160.254 240.473 159.577 240.473 158.679V158.474C240.473 157.522 240.313 156.79 239.994 156.28C239.68 155.77 239.105 155.514 238.271 155.514C237.574 155.514 237.052 155.783 236.706 156.321C236.36 156.854 236.186 157.583 236.186 158.509C236.186 159.429 236.357 160.14 236.699 160.641C237.045 161.143 237.57 161.393 238.271 161.393ZM247.045 154.571C247.683 154.571 248.23 154.712 248.685 154.995C249.141 155.277 249.49 155.674 249.731 156.184C249.973 156.69 250.093 157.283 250.093 157.962V158.666H244.919C244.932 159.545 245.151 160.215 245.575 160.676C245.999 161.136 246.596 161.366 247.366 161.366C247.84 161.366 248.259 161.323 248.624 161.236C248.988 161.149 249.367 161.022 249.759 160.853V161.851C249.38 162.02 249.004 162.143 248.631 162.22C248.261 162.298 247.824 162.337 247.318 162.337C246.598 162.337 245.969 162.191 245.431 161.899C244.898 161.603 244.483 161.17 244.187 160.6C243.891 160.031 243.743 159.333 243.743 158.509C243.743 157.702 243.877 157.005 244.146 156.417C244.42 155.824 244.802 155.369 245.295 155.05C245.791 154.731 246.375 154.571 247.045 154.571ZM247.031 155.501C246.425 155.501 245.942 155.699 245.582 156.095C245.222 156.492 245.008 157.046 244.939 157.757H248.904C248.899 157.31 248.829 156.918 248.692 156.581C248.56 156.239 248.357 155.975 248.084 155.788C247.81 155.596 247.459 155.501 247.031 155.501Z" fill="white"/>
<path d="M174 137.7H279C281.485 137.7 283.5 139.715 283.5 142.2V176.7H169.5V142.2C169.5 139.715 171.515 137.7 174 137.7Z" stroke="#00378F"/>
</g>
<rect x="138.5" y="112.5" width="201" height="203" rx="4.5" fill="white" stroke="#00378F"/>
<path d="M159.64 132.164H163.133V137.01C162.609 137.188 162.069 137.32 161.513 137.407C160.961 137.493 160.344 137.537 159.66 137.537C158.621 137.537 157.744 137.329 157.028 136.915C156.317 136.5 155.777 135.91 155.408 135.144C155.039 134.374 154.854 133.46 154.854 132.403C154.854 131.368 155.057 130.466 155.463 129.696C155.873 128.926 156.463 128.329 157.233 127.905C158.008 127.477 158.938 127.262 160.022 127.262C160.578 127.262 161.105 127.315 161.602 127.42C162.103 127.52 162.568 127.663 162.996 127.85L162.552 128.862C162.183 128.702 161.775 128.566 161.328 128.452C160.886 128.338 160.428 128.281 159.954 128.281C159.138 128.281 158.439 128.45 157.855 128.787C157.277 129.124 156.832 129.6 156.522 130.215C156.217 130.831 156.064 131.56 156.064 132.403C156.064 133.237 156.199 133.964 156.468 134.584C156.737 135.199 157.156 135.677 157.726 136.019C158.295 136.361 159.029 136.532 159.927 136.532C160.378 136.532 160.765 136.507 161.089 136.457C161.412 136.402 161.706 136.338 161.971 136.265V133.203H159.64V132.164ZM168.946 129.771C169.097 129.771 169.254 129.78 169.418 129.798C169.582 129.812 169.728 129.833 169.855 129.86L169.712 130.913C169.589 130.881 169.452 130.856 169.302 130.838C169.151 130.819 169.01 130.81 168.878 130.81C168.577 130.81 168.292 130.872 168.023 130.995C167.759 131.113 167.527 131.286 167.326 131.514C167.125 131.738 166.968 132.009 166.854 132.328C166.74 132.642 166.683 132.993 166.683 133.38V137.4H165.542V129.908H166.485L166.608 131.289H166.656C166.811 131.011 166.998 130.758 167.217 130.53C167.435 130.297 167.688 130.113 167.975 129.976C168.267 129.839 168.591 129.771 168.946 129.771ZM177.89 133.64C177.89 134.255 177.811 134.805 177.651 135.288C177.492 135.771 177.261 136.179 176.961 136.511C176.66 136.844 176.295 137.099 175.867 137.277C175.443 137.45 174.962 137.537 174.424 137.537C173.923 137.537 173.463 137.45 173.044 137.277C172.629 137.099 172.269 136.844 171.964 136.511C171.663 136.179 171.428 135.771 171.259 135.288C171.095 134.805 171.013 134.255 171.013 133.64C171.013 132.82 171.152 132.123 171.43 131.548C171.708 130.97 172.105 130.53 172.62 130.229C173.139 129.924 173.757 129.771 174.472 129.771C175.156 129.771 175.753 129.924 176.263 130.229C176.778 130.534 177.177 130.977 177.46 131.555C177.747 132.13 177.89 132.825 177.89 133.64ZM172.189 133.64C172.189 134.242 172.269 134.764 172.428 135.206C172.588 135.648 172.834 135.99 173.167 136.231C173.499 136.473 173.928 136.593 174.452 136.593C174.971 136.593 175.397 136.473 175.73 136.231C176.067 135.99 176.316 135.648 176.475 135.206C176.635 134.764 176.715 134.242 176.715 133.64C176.715 133.043 176.635 132.528 176.475 132.095C176.316 131.658 176.07 131.321 175.737 131.084C175.404 130.847 174.974 130.728 174.445 130.728C173.666 130.728 173.094 130.986 172.729 131.501C172.369 132.016 172.189 132.729 172.189 133.64ZM186.199 129.908V137.4H185.269L185.105 136.347H185.043C184.889 136.607 184.688 136.826 184.442 137.004C184.196 137.181 183.918 137.313 183.608 137.4C183.303 137.491 182.977 137.537 182.63 137.537C182.038 137.537 181.541 137.441 181.14 137.25C180.739 137.058 180.436 136.762 180.231 136.361C180.03 135.96 179.93 135.445 179.93 134.816V129.908H181.079V134.734C181.079 135.358 181.22 135.825 181.502 136.135C181.785 136.441 182.216 136.593 182.794 136.593C183.35 136.593 183.792 136.489 184.121 136.279C184.453 136.069 184.693 135.762 184.838 135.356C184.984 134.946 185.057 134.445 185.057 133.852V129.908H186.199ZM192.279 129.771C193.213 129.771 193.958 130.092 194.514 130.735C195.07 131.378 195.348 132.344 195.348 133.633C195.348 134.486 195.22 135.201 194.965 135.78C194.71 136.359 194.35 136.796 193.885 137.092C193.425 137.389 192.88 137.537 192.251 137.537C191.855 137.537 191.506 137.484 191.205 137.38C190.905 137.275 190.647 137.133 190.433 136.956C190.219 136.778 190.041 136.584 189.9 136.375H189.818C189.831 136.552 189.847 136.767 189.866 137.017C189.888 137.268 189.9 137.487 189.9 137.673V140.75H188.758V129.908H189.695L189.845 131.015H189.9C190.046 130.787 190.223 130.58 190.433 130.393C190.643 130.202 190.898 130.051 191.199 129.942C191.504 129.828 191.864 129.771 192.279 129.771ZM192.08 130.728C191.561 130.728 191.142 130.828 190.823 131.029C190.508 131.229 190.278 131.53 190.132 131.931C189.986 132.328 189.909 132.827 189.9 133.428V133.647C189.9 134.281 189.968 134.816 190.105 135.254C190.246 135.691 190.476 136.024 190.795 136.252C191.119 136.479 191.552 136.593 192.094 136.593C192.559 136.593 192.946 136.468 193.256 136.217C193.566 135.967 193.796 135.618 193.947 135.172C194.102 134.72 194.179 134.203 194.179 133.62C194.179 132.736 194.006 132.034 193.66 131.514C193.318 130.99 192.791 130.728 192.08 130.728ZM203.707 136.607C203.894 136.607 204.085 136.591 204.281 136.559C204.477 136.527 204.637 136.489 204.76 136.443V137.325C204.628 137.384 204.443 137.434 204.206 137.475C203.974 137.516 203.746 137.537 203.522 137.537C203.126 137.537 202.766 137.468 202.442 137.332C202.119 137.19 201.859 136.953 201.663 136.621C201.472 136.288 201.376 135.828 201.376 135.24V130.797H200.31V130.243L201.383 129.798L201.834 128.172H202.518V129.908H204.712V130.797H202.518V135.206C202.518 135.675 202.625 136.026 202.839 136.258C203.058 136.491 203.347 136.607 203.707 136.607ZM207.572 129.908V137.4H206.437V129.908H207.572ZM207.018 127.105C207.205 127.105 207.365 127.167 207.497 127.29C207.634 127.408 207.702 127.595 207.702 127.85C207.702 128.101 207.634 128.288 207.497 128.411C207.365 128.534 207.205 128.595 207.018 128.595C206.822 128.595 206.658 128.534 206.526 128.411C206.399 128.288 206.335 128.101 206.335 127.85C206.335 127.595 206.399 127.408 206.526 127.29C206.658 127.167 206.822 127.105 207.018 127.105ZM212.558 136.607C212.745 136.607 212.937 136.591 213.133 136.559C213.329 136.527 213.488 136.489 213.611 136.443V137.325C213.479 137.384 213.294 137.434 213.057 137.475C212.825 137.516 212.597 137.537 212.374 137.537C211.977 137.537 211.617 137.468 211.294 137.332C210.97 137.19 210.71 136.953 210.514 136.621C210.323 136.288 210.227 135.828 210.227 135.24V130.797H209.161V130.243L210.234 129.798L210.685 128.172H211.369V129.908H213.563V130.797H211.369V135.206C211.369 135.675 211.476 136.026 211.69 136.258C211.909 136.491 212.198 136.607 212.558 136.607ZM216.43 137.4H215.289V126.763H216.43V137.4ZM221.874 129.771C222.512 129.771 223.059 129.912 223.515 130.195C223.971 130.477 224.319 130.874 224.561 131.384C224.802 131.89 224.923 132.483 224.923 133.162V133.866H219.748C219.762 134.745 219.981 135.415 220.405 135.876C220.829 136.336 221.426 136.566 222.196 136.566C222.67 136.566 223.089 136.523 223.454 136.436C223.818 136.35 224.196 136.222 224.588 136.053V137.051C224.21 137.22 223.834 137.343 223.46 137.421C223.091 137.498 222.654 137.537 222.148 137.537C221.428 137.537 220.799 137.391 220.261 137.099C219.728 136.803 219.313 136.37 219.017 135.8C218.721 135.231 218.573 134.533 218.573 133.709C218.573 132.902 218.707 132.205 218.976 131.617C219.249 131.024 219.632 130.569 220.124 130.25C220.621 129.931 221.204 129.771 221.874 129.771ZM221.861 130.701C221.255 130.701 220.772 130.899 220.412 131.296C220.051 131.692 219.837 132.246 219.769 132.957H223.734C223.729 132.51 223.659 132.118 223.522 131.781C223.39 131.439 223.187 131.175 222.913 130.988C222.64 130.797 222.289 130.701 221.861 130.701Z" fill="black"/>
<path d="M143 112.9H335C337.485 112.9 339.5 114.915 339.5 117.4V151.9H138.5V117.4C138.5 114.915 140.515 112.9 143 112.9Z" fill="#00378F"/>
<path d="M157.979 127.406C159.268 127.406 160.209 127.659 160.802 128.165C161.399 128.666 161.697 129.386 161.697 130.325C161.697 130.749 161.627 131.152 161.485 131.535C161.349 131.913 161.125 132.248 160.815 132.54C160.506 132.827 160.098 133.055 159.592 133.223C159.09 133.387 158.475 133.469 157.746 133.469H156.529V137.4H155.367V127.406H157.979ZM157.869 128.397H156.529V132.471H157.616C158.254 132.471 158.785 132.403 159.209 132.266C159.637 132.13 159.959 131.908 160.173 131.603C160.387 131.293 160.494 130.883 160.494 130.373C160.494 129.707 160.282 129.213 159.858 128.889C159.435 128.561 158.771 128.397 157.869 128.397ZM166.581 129.785C167.474 129.785 168.137 129.985 168.57 130.386C169.003 130.787 169.22 131.428 169.22 132.307V137.4H168.392L168.174 136.293H168.119C167.909 136.566 167.691 136.796 167.463 136.983C167.235 137.165 166.971 137.304 166.67 137.4C166.374 137.491 166.009 137.537 165.576 137.537C165.12 137.537 164.715 137.457 164.359 137.297C164.008 137.138 163.73 136.896 163.525 136.573C163.325 136.249 163.224 135.839 163.224 135.342C163.224 134.595 163.521 134.021 164.113 133.62C164.706 133.219 165.608 133 166.82 132.964L168.112 132.909V132.451C168.112 131.804 167.973 131.35 167.695 131.09C167.417 130.831 167.025 130.701 166.519 130.701C166.127 130.701 165.754 130.758 165.398 130.872C165.043 130.986 164.706 131.12 164.387 131.275L164.038 130.414C164.375 130.241 164.763 130.092 165.2 129.969C165.638 129.846 166.098 129.785 166.581 129.785ZM168.098 133.709L166.957 133.756C166.023 133.793 165.364 133.946 164.981 134.214C164.598 134.483 164.407 134.864 164.407 135.356C164.407 135.784 164.537 136.101 164.797 136.306C165.056 136.511 165.401 136.614 165.829 136.614C166.494 136.614 167.039 136.429 167.463 136.06C167.887 135.691 168.098 135.137 168.098 134.399V133.709ZM175.122 129.771C175.272 129.771 175.429 129.78 175.593 129.798C175.757 129.812 175.903 129.833 176.031 129.86L175.887 130.913C175.764 130.881 175.628 130.856 175.477 130.838C175.327 130.819 175.186 130.81 175.053 130.81C174.753 130.81 174.468 130.872 174.199 130.995C173.935 131.113 173.702 131.286 173.502 131.514C173.301 131.738 173.144 132.009 173.03 132.328C172.916 132.642 172.859 132.993 172.859 133.38V137.4H171.717V129.908H172.661L172.784 131.289H172.832C172.987 131.011 173.174 130.758 173.392 130.53C173.611 130.297 173.864 130.113 174.151 129.976C174.443 129.839 174.766 129.771 175.122 129.771ZM180.491 129.771C181.129 129.771 181.676 129.912 182.131 130.195C182.587 130.477 182.936 130.874 183.177 131.384C183.419 131.89 183.54 132.483 183.54 133.162V133.866H178.365C178.378 134.745 178.597 135.415 179.021 135.876C179.445 136.336 180.042 136.566 180.812 136.566C181.286 136.566 181.705 136.523 182.07 136.436C182.434 136.35 182.813 136.222 183.205 136.053V137.051C182.826 137.22 182.45 137.343 182.077 137.421C181.708 137.498 181.27 137.537 180.764 137.537C180.044 137.537 179.415 137.391 178.877 137.099C178.344 136.803 177.93 136.37 177.633 135.8C177.337 135.231 177.189 134.533 177.189 133.709C177.189 132.902 177.323 132.205 177.592 131.617C177.866 131.024 178.249 130.569 178.741 130.25C179.237 129.931 179.821 129.771 180.491 129.771ZM180.477 130.701C179.871 130.701 179.388 130.899 179.028 131.296C178.668 131.692 178.454 132.246 178.385 132.957H182.35C182.346 132.51 182.275 132.118 182.138 131.781C182.006 131.439 181.803 131.175 181.53 130.988C181.256 130.797 180.905 130.701 180.477 130.701ZM189.175 129.771C190.064 129.771 190.736 129.99 191.192 130.427C191.647 130.86 191.875 131.558 191.875 132.519V137.4H190.754V132.594C190.754 131.97 190.611 131.503 190.324 131.193C190.041 130.883 189.606 130.728 189.018 130.728C188.189 130.728 187.605 130.963 187.268 131.432C186.931 131.902 186.762 132.583 186.762 133.476V137.4H185.627V129.908H186.543L186.714 130.988H186.776C186.935 130.724 187.138 130.503 187.384 130.325C187.63 130.143 187.906 130.006 188.211 129.915C188.517 129.819 188.838 129.771 189.175 129.771ZM196.793 136.607C196.98 136.607 197.171 136.591 197.367 136.559C197.563 136.527 197.723 136.489 197.846 136.443V137.325C197.714 137.384 197.529 137.434 197.292 137.475C197.06 137.516 196.832 137.537 196.609 137.537C196.212 137.537 195.852 137.468 195.529 137.332C195.205 137.19 194.945 136.953 194.749 136.621C194.558 136.288 194.462 135.828 194.462 135.24V130.797H193.396V130.243L194.469 129.798L194.92 128.172H195.604V129.908H197.798V130.797H195.604V135.206C195.604 135.675 195.711 136.026 195.925 136.258C196.144 136.491 196.433 136.607 196.793 136.607ZM206.841 129.771C207.775 129.771 208.52 130.092 209.076 130.735C209.632 131.378 209.91 132.344 209.91 133.633C209.91 134.486 209.782 135.201 209.527 135.78C209.272 136.359 208.912 136.796 208.447 137.092C207.987 137.389 207.442 137.537 206.813 137.537C206.417 137.537 206.068 137.484 205.767 137.38C205.467 137.275 205.209 137.133 204.995 136.956C204.781 136.778 204.603 136.584 204.462 136.375H204.38C204.393 136.552 204.409 136.767 204.428 137.017C204.45 137.268 204.462 137.487 204.462 137.673V140.75H203.32V129.908H204.257L204.407 131.015H204.462C204.608 130.787 204.785 130.58 204.995 130.393C205.205 130.202 205.46 130.051 205.761 129.942C206.066 129.828 206.426 129.771 206.841 129.771ZM206.642 130.728C206.123 130.728 205.704 130.828 205.385 131.029C205.07 131.229 204.84 131.53 204.694 131.931C204.548 132.328 204.471 132.827 204.462 133.428V133.647C204.462 134.281 204.53 134.816 204.667 135.254C204.808 135.691 205.038 136.024 205.357 136.252C205.681 136.479 206.114 136.593 206.656 136.593C207.121 136.593 207.508 136.468 207.818 136.217C208.128 135.967 208.358 135.618 208.509 135.172C208.664 134.72 208.741 134.203 208.741 133.62C208.741 132.736 208.568 132.034 208.222 131.514C207.88 130.99 207.353 130.728 206.642 130.728ZM215.457 129.771C215.607 129.771 215.764 129.78 215.928 129.798C216.092 129.812 216.238 129.833 216.366 129.86L216.222 130.913C216.099 130.881 215.963 130.856 215.812 130.838C215.662 130.819 215.521 130.81 215.388 130.81C215.088 130.81 214.803 130.872 214.534 130.995C214.27 131.113 214.037 131.286 213.837 131.514C213.636 131.738 213.479 132.009 213.365 132.328C213.251 132.642 213.194 132.993 213.194 133.38V137.4H212.052V129.908H212.996L213.119 131.289H213.167C213.322 131.011 213.509 130.758 213.727 130.53C213.946 130.297 214.199 130.113 214.486 129.976C214.778 129.839 215.101 129.771 215.457 129.771ZM224.401 133.64C224.401 134.255 224.321 134.805 224.162 135.288C224.002 135.771 223.772 136.179 223.471 136.511C223.17 136.844 222.806 137.099 222.377 137.277C221.954 137.45 221.473 137.537 220.935 137.537C220.434 137.537 219.974 137.45 219.554 137.277C219.14 137.099 218.78 136.844 218.474 136.511C218.173 136.179 217.939 135.771 217.77 135.288C217.606 134.805 217.524 134.255 217.524 133.64C217.524 132.82 217.663 132.123 217.941 131.548C218.219 130.97 218.615 130.53 219.13 130.229C219.65 129.924 220.267 129.771 220.983 129.771C221.667 129.771 222.264 129.924 222.774 130.229C223.289 130.534 223.688 130.977 223.97 131.555C224.257 132.13 224.401 132.825 224.401 133.64ZM218.7 133.64C218.7 134.242 218.78 134.764 218.939 135.206C219.099 135.648 219.345 135.99 219.677 136.231C220.01 136.473 220.438 136.593 220.962 136.593C221.482 136.593 221.908 136.473 222.241 136.231C222.578 135.99 222.826 135.648 222.986 135.206C223.145 134.764 223.225 134.242 223.225 133.64C223.225 133.043 223.145 132.528 222.986 132.095C222.826 131.658 222.58 131.321 222.248 131.084C221.915 130.847 221.484 130.728 220.956 130.728C220.176 130.728 219.604 130.986 219.24 131.501C218.88 132.016 218.7 132.729 218.7 133.64ZM225.621 140.763C225.388 140.763 225.185 140.745 225.012 140.709C224.839 140.677 224.689 140.638 224.561 140.592V139.67C224.702 139.715 224.846 139.749 224.992 139.772C225.137 139.799 225.301 139.813 225.484 139.813C225.794 139.813 226.044 139.727 226.236 139.553C226.427 139.38 226.523 139.066 226.523 138.61V129.908H227.658V138.583C227.658 139.038 227.585 139.428 227.439 139.752C227.293 140.08 227.07 140.33 226.769 140.504C226.468 140.677 226.085 140.763 225.621 140.763ZM226.42 127.85C226.42 127.595 226.484 127.408 226.612 127.29C226.744 127.167 226.908 127.105 227.104 127.105C227.291 127.105 227.45 127.167 227.582 127.29C227.719 127.408 227.787 127.595 227.787 127.85C227.787 128.101 227.719 128.288 227.582 128.411C227.45 128.534 227.291 128.595 227.104 128.595C226.908 128.595 226.744 128.534 226.612 128.411C226.484 128.288 226.42 128.101 226.42 127.85ZM233.109 129.771C233.747 129.771 234.294 129.912 234.749 130.195C235.205 130.477 235.554 130.874 235.795 131.384C236.037 131.89 236.157 132.483 236.157 133.162V133.866H230.983C230.996 134.745 231.215 135.415 231.639 135.876C232.063 136.336 232.66 136.566 233.43 136.566C233.904 136.566 234.323 136.523 234.688 136.436C235.052 136.35 235.431 136.222 235.823 136.053V137.051C235.444 137.22 235.068 137.343 234.695 137.421C234.325 137.498 233.888 137.537 233.382 137.537C232.662 137.537 232.033 137.391 231.495 137.099C230.962 136.803 230.547 136.37 230.251 135.8C229.955 135.231 229.807 134.533 229.807 133.709C229.807 132.902 229.941 132.205 230.21 131.617C230.484 131.024 230.866 130.569 231.359 130.25C231.855 129.931 232.439 129.771 233.109 129.771ZM233.095 130.701C232.489 130.701 232.006 130.899 231.646 131.296C231.286 131.692 231.072 132.246 231.003 132.957H234.968C234.963 132.51 234.893 132.118 234.756 131.781C234.624 131.439 234.421 131.175 234.148 130.988C233.874 130.797 233.523 130.701 233.095 130.701ZM241.246 137.537C240.572 137.537 239.977 137.398 239.462 137.12C238.947 136.842 238.546 136.418 238.259 135.848C237.972 135.279 237.828 134.561 237.828 133.695C237.828 132.788 237.979 132.047 238.279 131.473C238.585 130.894 239.004 130.466 239.537 130.188C240.07 129.91 240.677 129.771 241.356 129.771C241.729 129.771 242.089 129.81 242.436 129.887C242.787 129.96 243.074 130.054 243.297 130.168L242.955 131.118C242.727 131.027 242.463 130.945 242.162 130.872C241.866 130.799 241.588 130.762 241.328 130.762C240.809 130.762 240.376 130.874 240.029 131.097C239.688 131.321 239.43 131.649 239.257 132.082C239.088 132.515 239.004 133.048 239.004 133.681C239.004 134.287 239.086 134.805 239.25 135.233C239.419 135.661 239.667 135.99 239.995 136.217C240.328 136.441 240.743 136.552 241.239 136.552C241.636 136.552 241.994 136.511 242.313 136.429C242.632 136.343 242.921 136.242 243.181 136.129V137.14C242.93 137.268 242.65 137.366 242.34 137.434C242.035 137.503 241.67 137.537 241.246 137.537ZM247.538 136.607C247.725 136.607 247.916 136.591 248.112 136.559C248.308 136.527 248.468 136.489 248.591 136.443V137.325C248.459 137.384 248.274 137.434 248.037 137.475C247.805 137.516 247.577 137.537 247.353 137.537C246.957 137.537 246.597 137.468 246.273 137.332C245.95 137.19 245.69 136.953 245.494 136.621C245.303 136.288 245.207 135.828 245.207 135.24V130.797H244.141V130.243L245.214 129.798L245.665 128.172H246.349V129.908H248.543V130.797H246.349V135.206C246.349 135.675 246.456 136.026 246.67 136.258C246.889 136.491 247.178 136.607 247.538 136.607Z" fill="white"/>
<path d="M143 112.9H335C337.485 112.9 339.5 114.915 339.5 117.4V151.9H138.5V117.4C138.5 114.915 140.515 112.9 143 112.9Z" stroke="#00378F"/>
<path d="M156 241.5H214.5V304.5H156C153.515 304.5 151.5 302.485 151.5 300V246C151.5 243.515 153.515 241.5 156 241.5Z" fill="#82A4D9" stroke="#82A4D9"/>
<path d="M215.5 241.5H283C285.485 241.5 287.5 243.515 287.5 246V300C287.5 302.485 285.485 304.5 283 304.5H215.5V241.5Z" fill="white"/>
<path d="M247.602 273.705C247.602 274.365 247.518 274.967 247.35 275.51C247.182 276.049 246.932 276.514 246.6 276.904C246.271 277.291 245.863 277.59 245.375 277.801C244.887 278.012 244.32 278.117 243.676 278.117C243.012 278.117 242.432 278.012 241.936 277.801C241.443 277.59 241.033 277.289 240.705 276.898C240.381 276.508 240.137 276.041 239.973 275.498C239.812 274.955 239.732 274.354 239.732 273.693C239.732 272.818 239.877 272.051 240.166 271.391C240.455 270.73 240.893 270.217 241.479 269.85C242.068 269.482 242.807 269.299 243.693 269.299C244.541 269.299 245.254 269.48 245.832 269.844C246.414 270.207 246.854 270.719 247.15 271.379C247.451 272.035 247.602 272.811 247.602 273.705ZM240.781 273.705C240.781 274.432 240.885 275.061 241.092 275.592C241.299 276.123 241.615 276.533 242.041 276.822C242.471 277.111 243.016 277.256 243.676 277.256C244.34 277.256 244.883 277.111 245.305 276.822C245.73 276.533 246.045 276.123 246.248 275.592C246.451 275.061 246.553 274.432 246.553 273.705C246.553 272.6 246.32 271.736 245.855 271.115C245.395 270.49 244.674 270.178 243.693 270.178C243.029 270.178 242.482 270.32 242.053 270.605C241.623 270.891 241.303 271.297 241.092 271.824C240.885 272.348 240.781 272.975 240.781 273.705ZM249.672 269.434H252.097C253.168 269.434 253.972 269.594 254.512 269.914C255.051 270.234 255.32 270.779 255.32 271.549C255.32 271.881 255.256 272.18 255.127 272.445C255.002 272.707 254.818 272.924 254.576 273.096C254.334 273.268 254.035 273.387 253.68 273.453V273.512C254.055 273.57 254.387 273.678 254.676 273.834C254.965 273.99 255.191 274.209 255.355 274.49C255.519 274.771 255.601 275.129 255.601 275.562C255.601 276.09 255.478 276.535 255.232 276.898C254.99 277.262 254.646 277.537 254.201 277.725C253.756 277.908 253.228 278 252.619 278H249.672V269.434ZM250.668 273.107H252.308C253.055 273.107 253.57 272.984 253.855 272.738C254.144 272.492 254.289 272.133 254.289 271.66C254.289 271.172 254.117 270.82 253.773 270.605C253.433 270.391 252.89 270.283 252.144 270.283H250.668V273.107ZM250.668 273.945V277.15H252.449C253.211 277.15 253.75 277.002 254.066 276.705C254.383 276.404 254.541 276 254.541 275.492C254.541 275.168 254.469 274.891 254.324 274.66C254.183 274.43 253.953 274.254 253.633 274.133C253.316 274.008 252.892 273.945 252.361 273.945H250.668ZM259.904 269.434C260.607 269.434 261.187 269.521 261.644 269.697C262.105 269.869 262.449 270.133 262.675 270.488C262.902 270.844 263.015 271.297 263.015 271.848C263.015 272.301 262.933 272.68 262.769 272.984C262.605 273.285 262.39 273.529 262.125 273.717C261.859 273.904 261.576 274.049 261.275 274.15L263.625 278H262.465L260.367 274.426H258.586V278H257.59V269.434H259.904ZM259.845 270.295H258.586V273.582H259.945C260.644 273.582 261.158 273.439 261.486 273.154C261.818 272.869 261.984 272.449 261.984 271.895C261.984 271.312 261.808 270.9 261.457 270.658C261.109 270.416 260.572 270.295 259.845 270.295Z" fill="black"/>
<path d="M215.5 241.5H283C285.485 241.5 287.5 243.515 287.5 246V300C287.5 302.485 285.485 304.5 283 304.5H215.5V241.5Z" stroke="#82A4D9"/>
<path d="M191.968 208.828H174.478C174.214 208.828 174 208.615 174 208.351V184.478C174 184.214 174.214 184.001 174.478 184.001H185.584C185.711 184.001 185.832 184.051 185.922 184.141L192.306 190.525C192.395 190.615 192.446 190.736 192.446 190.863V208.35C192.446 208.614 192.232 208.827 191.968 208.827V208.828ZM174.955 207.873H191.491V191.06L185.387 184.956H174.955V207.873Z" fill="black"/>
<path d="M191.968 191.34H185.583C185.32 191.34 185.106 191.127 185.106 190.863V184.478C185.106 184.285 185.222 184.111 185.401 184.037C185.579 183.962 185.784 184.004 185.922 184.141L192.307 190.525C192.443 190.662 192.484 190.867 192.41 191.046C192.336 191.225 192.162 191.341 191.969 191.341L191.968 191.34ZM186.061 190.385H190.815L186.061 185.631V190.385Z" fill="black"/>
<rect x="439.5" y="184.5" width="85" height="39" rx="4.5" fill="#00378F"/>
<path d="M469.602 194.705C469.602 195.365 469.518 195.967 469.35 196.51C469.182 197.049 468.932 197.514 468.6 197.904C468.271 198.291 467.863 198.59 467.375 198.801C466.887 199.012 466.32 199.117 465.676 199.117C465.012 199.117 464.432 199.012 463.936 198.801C463.443 198.59 463.033 198.289 462.705 197.898C462.381 197.508 462.137 197.041 461.973 196.498C461.812 195.955 461.732 195.354 461.732 194.693C461.732 193.818 461.877 193.051 462.166 192.391C462.455 191.73 462.893 191.217 463.479 190.85C464.068 190.482 464.807 190.299 465.693 190.299C466.541 190.299 467.254 190.48 467.832 190.844C468.414 191.207 468.854 191.719 469.15 192.379C469.451 193.035 469.602 193.811 469.602 194.705ZM462.781 194.705C462.781 195.432 462.885 196.061 463.092 196.592C463.299 197.123 463.615 197.533 464.041 197.822C464.471 198.111 465.016 198.256 465.676 198.256C466.34 198.256 466.883 198.111 467.305 197.822C467.73 197.533 468.045 197.123 468.248 196.592C468.451 196.061 468.553 195.432 468.553 194.705C468.553 193.6 468.32 192.736 467.855 192.115C467.395 191.49 466.674 191.178 465.693 191.178C465.029 191.178 464.482 191.32 464.053 191.605C463.623 191.891 463.303 192.297 463.092 192.824C462.885 193.348 462.781 193.975 462.781 194.705ZM476.506 196.721C476.506 197.229 476.379 197.662 476.125 198.021C475.875 198.377 475.523 198.648 475.07 198.836C474.617 199.023 474.084 199.117 473.471 199.117C473.146 199.117 472.84 199.102 472.551 199.07C472.262 199.039 471.996 198.994 471.754 198.936C471.512 198.877 471.299 198.805 471.115 198.719V197.764C471.408 197.885 471.765 197.998 472.187 198.104C472.609 198.205 473.051 198.256 473.512 198.256C473.941 198.256 474.305 198.199 474.601 198.086C474.898 197.969 475.123 197.803 475.275 197.588C475.431 197.369 475.51 197.107 475.51 196.803C475.51 196.51 475.445 196.266 475.316 196.07C475.187 195.871 474.972 195.691 474.672 195.531C474.375 195.367 473.969 195.193 473.453 195.01C473.09 194.881 472.769 194.74 472.492 194.588C472.215 194.432 471.982 194.256 471.795 194.061C471.607 193.865 471.465 193.639 471.367 193.381C471.273 193.123 471.226 192.828 471.226 192.496C471.226 192.039 471.342 191.648 471.572 191.324C471.806 190.996 472.129 190.746 472.539 190.574C472.953 190.398 473.428 190.311 473.963 190.311C474.42 190.311 474.842 190.354 475.228 190.439C475.619 190.525 475.976 190.641 476.301 190.785L475.99 191.641C475.681 191.512 475.353 191.404 475.006 191.318C474.662 191.232 474.306 191.189 473.939 191.189C473.572 191.189 473.262 191.244 473.008 191.354C472.758 191.459 472.566 191.609 472.433 191.805C472.301 192 472.234 192.232 472.234 192.502C472.234 192.803 472.297 193.053 472.422 193.252C472.551 193.451 472.754 193.629 473.031 193.785C473.312 193.938 473.683 194.098 474.144 194.266C474.648 194.449 475.076 194.645 475.428 194.852C475.779 195.055 476.047 195.305 476.23 195.602C476.414 195.895 476.506 196.268 476.506 196.721ZM482.08 194.512H485.074V198.666C484.625 198.818 484.162 198.932 483.685 199.006C483.213 199.08 482.683 199.117 482.097 199.117C481.207 199.117 480.455 198.939 479.841 198.584C479.232 198.229 478.769 197.723 478.453 197.066C478.136 196.406 477.978 195.623 477.978 194.717C477.978 193.83 478.152 193.057 478.5 192.396C478.851 191.736 479.357 191.225 480.017 190.861C480.681 190.494 481.478 190.311 482.408 190.311C482.884 190.311 483.336 190.355 483.761 190.445C484.191 190.531 484.59 190.654 484.957 190.814L484.576 191.682C484.259 191.545 483.91 191.428 483.527 191.33C483.148 191.232 482.756 191.184 482.349 191.184C481.65 191.184 481.05 191.328 480.55 191.617C480.054 191.906 479.674 192.314 479.408 192.842C479.146 193.369 479.015 193.994 479.015 194.717C479.015 195.432 479.131 196.055 479.361 196.586C479.591 197.113 479.951 197.523 480.439 197.816C480.927 198.109 481.556 198.256 482.326 198.256C482.713 198.256 483.045 198.234 483.322 198.191C483.599 198.145 483.851 198.09 484.078 198.027V195.402H482.08V194.512ZM488.134 192.578V199H487.162V192.578H488.134ZM487.66 190.176C487.82 190.176 487.957 190.229 488.07 190.334C488.187 190.436 488.246 190.596 488.246 190.814C488.246 191.029 488.187 191.189 488.07 191.295C487.957 191.4 487.82 191.453 487.66 191.453C487.492 191.453 487.351 191.4 487.238 191.295C487.128 191.189 487.074 191.029 487.074 190.814C487.074 190.596 487.128 190.436 487.238 190.334C487.351 190.229 487.492 190.176 487.66 190.176ZM462.172 210.434H464.598C465.668 210.434 466.473 210.594 467.012 210.914C467.551 211.234 467.82 211.779 467.82 212.549C467.82 212.881 467.756 213.18 467.627 213.445C467.502 213.707 467.318 213.924 467.076 214.096C466.834 214.268 466.535 214.387 466.18 214.453V214.512C466.555 214.57 466.887 214.678 467.176 214.834C467.465 214.99 467.691 215.209 467.855 215.49C468.02 215.771 468.102 216.129 468.102 216.562C468.102 217.09 467.979 217.535 467.732 217.898C467.49 218.262 467.146 218.537 466.701 218.725C466.256 218.908 465.729 219 465.119 219H462.172V210.434ZM463.168 214.107H464.809C465.555 214.107 466.07 213.984 466.355 213.738C466.645 213.492 466.789 213.133 466.789 212.66C466.789 212.172 466.617 211.82 466.273 211.605C465.934 211.391 465.391 211.283 464.645 211.283H463.168V214.107ZM463.168 214.945V218.15H464.949C465.711 218.15 466.25 218.002 466.566 217.705C466.883 217.404 467.041 217 467.041 216.492C467.041 216.168 466.969 215.891 466.824 215.66C466.684 215.43 466.453 215.254 466.133 215.133C465.816 215.008 465.393 214.945 464.861 214.945H463.168ZM475.246 212.578V219H474.449L474.308 218.098H474.256C474.123 218.32 473.951 218.508 473.74 218.66C473.529 218.812 473.291 218.926 473.025 219C472.764 219.078 472.484 219.117 472.187 219.117C471.68 219.117 471.254 219.035 470.91 218.871C470.566 218.707 470.306 218.453 470.131 218.109C469.959 217.766 469.873 217.324 469.873 216.785V212.578H470.857V216.715C470.857 217.25 470.978 217.65 471.221 217.916C471.463 218.178 471.832 218.309 472.328 218.309C472.805 218.309 473.183 218.219 473.465 218.039C473.75 217.859 473.955 217.596 474.08 217.248C474.205 216.896 474.267 216.467 474.267 215.959V212.578H475.246ZM480.504 212.461C481.265 212.461 481.841 212.648 482.232 213.023C482.623 213.395 482.818 213.992 482.818 214.816V219H481.857V214.881C481.857 214.346 481.734 213.945 481.488 213.68C481.246 213.414 480.873 213.281 480.369 213.281C479.658 213.281 479.158 213.482 478.869 213.885C478.58 214.287 478.435 214.871 478.435 215.637V219H477.463V212.578H478.248L478.394 213.504H478.447C478.584 213.277 478.757 213.088 478.968 212.936C479.179 212.779 479.416 212.662 479.677 212.584C479.939 212.502 480.215 212.461 480.504 212.461ZM487.267 219.117C486.455 219.117 485.81 218.84 485.334 218.285C484.861 217.73 484.625 216.906 484.625 215.812C484.625 214.707 484.867 213.873 485.351 213.311C485.835 212.744 486.48 212.461 487.285 212.461C487.625 212.461 487.921 212.506 488.175 212.596C488.429 212.686 488.648 212.807 488.832 212.959C489.015 213.107 489.169 213.277 489.294 213.469H489.365C489.349 213.348 489.334 213.182 489.318 212.971C489.302 212.76 489.294 212.588 489.294 212.455V209.883H490.267V219H489.482L489.335 218.086H489.294C489.173 218.277 489.019 218.451 488.832 218.607C488.648 218.764 488.427 218.889 488.169 218.982C487.916 219.072 487.615 219.117 487.267 219.117ZM487.419 218.309C488.107 218.309 488.593 218.113 488.878 217.723C489.164 217.332 489.306 216.752 489.306 215.982V215.807C489.306 214.99 489.169 214.363 488.896 213.926C488.626 213.488 488.134 213.27 487.419 213.27C486.822 213.27 486.375 213.5 486.078 213.961C485.781 214.418 485.632 215.043 485.632 215.836C485.632 216.625 485.779 217.234 486.072 217.664C486.369 218.094 486.818 218.309 487.419 218.309ZM493.468 219H492.49V209.883H493.468V219ZM498.74 211.371C499.378 211.371 499.925 211.512 500.381 211.795C500.837 212.077 501.185 212.474 501.427 212.984C501.668 213.49 501.789 214.083 501.789 214.762V215.466H496.614C496.628 216.345 496.847 217.015 497.271 217.476C497.695 217.936 498.292 218.166 499.062 218.166C499.536 218.166 499.955 218.123 500.32 218.036C500.684 217.95 501.062 217.822 501.454 217.653V218.651C501.076 218.82 500.7 218.943 500.326 219.021C499.957 219.098 499.52 219.137 499.014 219.137C498.294 219.137 497.665 218.991 497.127 218.699C496.594 218.403 496.179 217.97 495.883 217.4C495.587 216.831 495.439 216.133 495.439 215.309C495.439 214.502 495.573 213.805 495.842 213.217C496.115 212.624 496.498 212.169 496.99 211.85C497.487 211.531 498.071 211.371 498.74 211.371ZM498.727 212.301C498.121 212.301 497.638 212.499 497.278 212.896C496.918 213.292 496.703 213.846 496.635 214.557H500.6C500.595 214.11 500.525 213.718 500.388 213.381C500.256 213.039 500.053 212.775 499.779 212.588C499.506 212.396 499.155 212.301 498.727 212.301Z" fill="white"/>
<rect x="439.5" y="184.5" width="85" height="39" rx="4.5" stroke="#00378F"/>
<rect x="482.5" y="249.5" width="72" height="24" rx="4.5" fill="#00378F"/>
<path d="M514.035 258.989C514.035 259.759 513.937 260.461 513.741 261.095C513.545 261.724 513.254 262.266 512.866 262.722C512.483 263.173 512.007 263.521 511.438 263.768C510.868 264.014 510.207 264.137 509.455 264.137C508.68 264.137 508.004 264.014 507.425 263.768C506.851 263.521 506.372 263.171 505.989 262.715C505.611 262.259 505.326 261.715 505.135 261.081C504.948 260.448 504.854 259.746 504.854 258.976C504.854 257.955 505.023 257.059 505.36 256.289C505.698 255.519 506.208 254.92 506.892 254.491C507.58 254.063 508.441 253.849 509.476 253.849C510.465 253.849 511.296 254.061 511.971 254.484C512.65 254.908 513.162 255.505 513.509 256.275C513.86 257.041 514.035 257.946 514.035 258.989ZM506.078 258.989C506.078 259.837 506.199 260.571 506.44 261.19C506.682 261.81 507.051 262.289 507.548 262.626C508.049 262.963 508.685 263.132 509.455 263.132C510.23 263.132 510.863 262.963 511.355 262.626C511.852 262.289 512.219 261.81 512.456 261.19C512.693 260.571 512.812 259.837 512.812 258.989C512.812 257.7 512.54 256.692 511.998 255.968C511.46 255.239 510.619 254.874 509.476 254.874C508.701 254.874 508.063 255.04 507.562 255.373C507.06 255.706 506.687 256.18 506.44 256.795C506.199 257.406 506.078 258.137 506.078 258.989ZM516.424 254.006H519.254C520.502 254.006 521.441 254.193 522.07 254.566C522.699 254.94 523.014 255.576 523.014 256.474C523.014 256.861 522.938 257.21 522.788 257.52C522.642 257.825 522.428 258.078 522.145 258.278C521.863 258.479 521.514 258.618 521.099 258.695V258.764C521.537 258.832 521.924 258.957 522.262 259.14C522.599 259.322 522.863 259.577 523.055 259.905C523.246 260.233 523.342 260.65 523.342 261.156C523.342 261.771 523.198 262.291 522.911 262.715C522.628 263.139 522.227 263.46 521.708 263.679C521.188 263.893 520.573 264 519.862 264H516.424V254.006ZM517.586 258.292H519.5C520.37 258.292 520.972 258.148 521.305 257.861C521.642 257.574 521.81 257.155 521.81 256.604C521.81 256.034 521.61 255.624 521.209 255.373C520.812 255.122 520.179 254.997 519.308 254.997H517.586V258.292ZM517.586 259.27V263.009H519.664C520.553 263.009 521.181 262.836 521.551 262.489C521.92 262.138 522.104 261.667 522.104 261.074C522.104 260.696 522.02 260.372 521.851 260.104C521.687 259.835 521.418 259.63 521.045 259.488C520.676 259.342 520.181 259.27 519.561 259.27H517.586ZM528.335 254.006C529.155 254.006 529.832 254.108 530.365 254.313C530.903 254.514 531.304 254.822 531.568 255.236C531.832 255.651 531.965 256.18 531.965 256.822C531.965 257.351 531.869 257.793 531.677 258.148C531.486 258.499 531.235 258.784 530.925 259.003C530.616 259.222 530.285 259.39 529.934 259.509L532.675 264H531.322L528.875 259.83H526.797V264H525.634V254.006H528.335ZM528.266 255.011H526.797V258.846H528.382C529.198 258.846 529.798 258.679 530.18 258.347C530.568 258.014 530.761 257.524 530.761 256.877C530.761 256.198 530.556 255.717 530.146 255.435C529.741 255.152 529.114 255.011 528.266 255.011Z" fill="white"/>
<rect x="482.5" y="249.5" width="72" height="24" rx="4.5" stroke="#00378F"/>
<path d="M368.834 233.189C368.361 233.189 367.936 233.271 367.557 233.436C367.182 233.596 366.861 233.83 366.596 234.139C366.334 234.443 366.133 234.812 365.992 235.246C365.852 235.68 365.781 236.168 365.781 236.711C365.781 237.43 365.893 238.055 366.115 238.586C366.342 239.113 366.678 239.521 367.123 239.811C367.572 240.1 368.133 240.244 368.805 240.244C369.188 240.244 369.547 240.213 369.883 240.15C370.223 240.084 370.553 240.002 370.873 239.904V240.771C370.561 240.889 370.232 240.975 369.889 241.029C369.545 241.088 369.137 241.117 368.664 241.117C367.793 241.117 367.064 240.938 366.479 240.578C365.896 240.215 365.459 239.703 365.166 239.043C364.877 238.383 364.732 237.604 364.732 236.705C364.732 236.057 364.822 235.465 365.002 234.93C365.186 234.391 365.451 233.926 365.799 233.535C366.15 233.145 366.58 232.844 367.088 232.633C367.6 232.418 368.186 232.311 368.846 232.311C369.279 232.311 369.697 232.354 370.1 232.439C370.502 232.525 370.865 232.648 371.189 232.809L370.791 233.652C370.518 233.527 370.217 233.42 369.889 233.33C369.564 233.236 369.213 233.189 368.834 233.189ZM378.281 237.777C378.281 238.305 378.213 238.775 378.076 239.189C377.939 239.604 377.742 239.953 377.484 240.238C377.226 240.523 376.914 240.742 376.547 240.895C376.183 241.043 375.771 241.117 375.31 241.117C374.881 241.117 374.486 241.043 374.127 240.895C373.771 240.742 373.463 240.523 373.201 240.238C372.943 239.953 372.742 239.604 372.597 239.189C372.457 238.775 372.387 238.305 372.387 237.777C372.387 237.074 372.506 236.477 372.744 235.984C372.982 235.488 373.322 235.111 373.764 234.854C374.209 234.592 374.738 234.461 375.351 234.461C375.937 234.461 376.449 234.592 376.887 234.854C377.328 235.115 377.67 235.494 377.912 235.99C378.158 236.482 378.281 237.078 378.281 237.777ZM373.394 237.777C373.394 238.293 373.463 238.74 373.599 239.119C373.736 239.498 373.947 239.791 374.232 239.998C374.517 240.205 374.885 240.309 375.334 240.309C375.779 240.309 376.144 240.205 376.43 239.998C376.719 239.791 376.931 239.498 377.068 239.119C377.205 238.74 377.273 238.293 377.273 237.777C377.273 237.266 377.205 236.824 377.068 236.453C376.931 236.078 376.721 235.789 376.435 235.586C376.15 235.383 375.781 235.281 375.328 235.281C374.66 235.281 374.17 235.502 373.857 235.943C373.549 236.385 373.394 236.996 373.394 237.777ZM387.095 234.461C387.802 234.461 388.336 234.646 388.695 235.018C389.054 235.385 389.234 235.977 389.234 236.793V241H388.273V236.84C388.273 236.32 388.16 235.932 387.933 235.674C387.711 235.412 387.379 235.281 386.937 235.281C386.316 235.281 385.865 235.461 385.584 235.82C385.302 236.18 385.162 236.709 385.162 237.408V241H384.195V236.84C384.195 236.492 384.144 236.203 384.043 235.973C383.945 235.742 383.797 235.57 383.597 235.457C383.402 235.34 383.154 235.281 382.853 235.281C382.427 235.281 382.086 235.369 381.828 235.545C381.57 235.721 381.382 235.982 381.265 236.33C381.152 236.674 381.095 237.098 381.095 237.602V241H380.123V234.578H380.908L381.054 235.486H381.107C381.236 235.264 381.398 235.076 381.593 234.924C381.789 234.771 382.007 234.656 382.25 234.578C382.492 234.5 382.75 234.461 383.023 234.461C383.511 234.461 383.92 234.553 384.248 234.736C384.58 234.916 384.82 235.191 384.968 235.562H385.021C385.232 235.191 385.521 234.916 385.888 234.736C386.256 234.553 386.658 234.461 387.095 234.461ZM394.41 234.461C395.21 234.461 395.849 234.736 396.326 235.287C396.802 235.838 397.041 236.666 397.041 237.771C397.041 238.502 396.931 239.115 396.712 239.611C396.494 240.107 396.185 240.482 395.787 240.736C395.392 240.99 394.925 241.117 394.386 241.117C394.046 241.117 393.748 241.072 393.49 240.982C393.232 240.893 393.011 240.771 392.828 240.619C392.644 240.467 392.492 240.301 392.371 240.121H392.3C392.312 240.273 392.326 240.457 392.341 240.672C392.361 240.887 392.371 241.074 392.371 241.234V243.871H391.392V234.578H392.195L392.324 235.527H392.371C392.496 235.332 392.648 235.154 392.828 234.994C393.007 234.83 393.226 234.701 393.484 234.607C393.746 234.51 394.054 234.461 394.41 234.461ZM394.24 235.281C393.794 235.281 393.435 235.367 393.162 235.539C392.892 235.711 392.695 235.969 392.57 236.312C392.445 236.652 392.378 237.08 392.371 237.596V237.783C392.371 238.326 392.429 238.785 392.546 239.16C392.667 239.535 392.865 239.82 393.138 240.016C393.416 240.211 393.787 240.309 394.251 240.309C394.65 240.309 394.982 240.201 395.248 239.986C395.513 239.771 395.71 239.473 395.839 239.09C395.972 238.703 396.039 238.26 396.039 237.76C396.039 237.002 395.89 236.4 395.593 235.955C395.3 235.506 394.849 235.281 394.24 235.281ZM399.872 234.578V241H398.9V234.578H399.872ZM399.398 232.176C399.558 232.176 399.695 232.229 399.808 232.334C399.925 232.436 399.984 232.596 399.984 232.814C399.984 233.029 399.925 233.189 399.808 233.295C399.695 233.4 399.558 233.453 399.398 233.453C399.23 233.453 399.089 233.4 398.976 233.295C398.867 233.189 398.812 233.029 398.812 232.814C398.812 232.596 398.867 232.436 398.976 232.334C399.089 232.229 399.23 232.176 399.398 232.176ZM403.073 241H402.095V231.883H403.073V241ZM407.763 234.461C408.31 234.461 408.778 234.582 409.169 234.824C409.56 235.066 409.858 235.406 410.065 235.844C410.272 236.277 410.376 236.785 410.376 237.367V237.971H405.94C405.952 238.725 406.14 239.299 406.503 239.693C406.866 240.088 407.378 240.285 408.038 240.285C408.444 240.285 408.804 240.248 409.116 240.174C409.429 240.1 409.753 239.99 410.089 239.846V240.701C409.765 240.846 409.442 240.951 409.122 241.018C408.806 241.084 408.431 241.117 407.997 241.117C407.38 241.117 406.841 240.992 406.38 240.742C405.923 240.488 405.567 240.117 405.314 239.629C405.06 239.141 404.933 238.543 404.933 237.836C404.933 237.145 405.048 236.547 405.278 236.043C405.513 235.535 405.841 235.145 406.263 234.871C406.689 234.598 407.189 234.461 407.763 234.461ZM407.751 235.258C407.231 235.258 406.817 235.428 406.509 235.768C406.2 236.107 406.017 236.582 405.958 237.191H409.356C409.353 236.809 409.292 236.473 409.175 236.184C409.062 235.891 408.888 235.664 408.653 235.504C408.419 235.34 408.118 235.258 407.751 235.258Z" fill="black"/>
<path d="M385.834 117.189C385.361 117.189 384.936 117.271 384.557 117.436C384.182 117.596 383.861 117.83 383.596 118.139C383.334 118.443 383.133 118.812 382.992 119.246C382.852 119.68 382.781 120.168 382.781 120.711C382.781 121.43 382.893 122.055 383.115 122.586C383.342 123.113 383.678 123.521 384.123 123.811C384.572 124.1 385.133 124.244 385.805 124.244C386.188 124.244 386.547 124.213 386.883 124.15C387.223 124.084 387.553 124.002 387.873 123.904V124.771C387.561 124.889 387.232 124.975 386.889 125.029C386.545 125.088 386.137 125.117 385.664 125.117C384.793 125.117 384.064 124.938 383.479 124.578C382.896 124.215 382.459 123.703 382.166 123.043C381.877 122.383 381.732 121.604 381.732 120.705C381.732 120.057 381.822 119.465 382.002 118.93C382.186 118.391 382.451 117.926 382.799 117.535C383.15 117.145 383.58 116.844 384.088 116.633C384.6 116.418 385.186 116.311 385.846 116.311C386.279 116.311 386.697 116.354 387.1 116.439C387.502 116.525 387.865 116.648 388.189 116.809L387.791 117.652C387.518 117.527 387.217 117.42 386.889 117.33C386.564 117.236 386.213 117.189 385.834 117.189ZM395.281 121.777C395.281 122.305 395.213 122.775 395.076 123.189C394.939 123.604 394.742 123.953 394.484 124.238C394.226 124.523 393.914 124.742 393.547 124.895C393.183 125.043 392.771 125.117 392.31 125.117C391.881 125.117 391.486 125.043 391.127 124.895C390.771 124.742 390.463 124.523 390.201 124.238C389.943 123.953 389.742 123.604 389.597 123.189C389.457 122.775 389.387 122.305 389.387 121.777C389.387 121.074 389.506 120.477 389.744 119.984C389.982 119.488 390.322 119.111 390.764 118.854C391.209 118.592 391.738 118.461 392.351 118.461C392.937 118.461 393.449 118.592 393.887 118.854C394.328 119.115 394.67 119.494 394.912 119.99C395.158 120.482 395.281 121.078 395.281 121.777ZM390.394 121.777C390.394 122.293 390.463 122.74 390.599 123.119C390.736 123.498 390.947 123.791 391.232 123.998C391.517 124.205 391.885 124.309 392.334 124.309C392.779 124.309 393.144 124.205 393.43 123.998C393.719 123.791 393.931 123.498 394.068 123.119C394.205 122.74 394.273 122.293 394.273 121.777C394.273 121.266 394.205 120.824 394.068 120.453C393.931 120.078 393.721 119.789 393.435 119.586C393.15 119.383 392.781 119.281 392.328 119.281C391.66 119.281 391.17 119.502 390.857 119.943C390.549 120.385 390.394 120.996 390.394 121.777ZM404.095 118.461C404.802 118.461 405.336 118.646 405.695 119.018C406.054 119.385 406.234 119.977 406.234 120.793V125H405.273V120.84C405.273 120.32 405.16 119.932 404.933 119.674C404.711 119.412 404.379 119.281 403.937 119.281C403.316 119.281 402.865 119.461 402.584 119.82C402.302 120.18 402.162 120.709 402.162 121.408V125H401.195V120.84C401.195 120.492 401.144 120.203 401.043 119.973C400.945 119.742 400.797 119.57 400.597 119.457C400.402 119.34 400.154 119.281 399.853 119.281C399.427 119.281 399.086 119.369 398.828 119.545C398.57 119.721 398.382 119.982 398.265 120.33C398.152 120.674 398.095 121.098 398.095 121.602V125H397.123V118.578H397.908L398.054 119.486H398.107C398.236 119.264 398.398 119.076 398.593 118.924C398.789 118.771 399.007 118.656 399.25 118.578C399.492 118.5 399.75 118.461 400.023 118.461C400.511 118.461 400.92 118.553 401.248 118.736C401.58 118.916 401.82 119.191 401.968 119.562H402.021C402.232 119.191 402.521 118.916 402.888 118.736C403.256 118.553 403.658 118.461 404.095 118.461ZM411.41 118.461C412.21 118.461 412.849 118.736 413.326 119.287C413.802 119.838 414.041 120.666 414.041 121.771C414.041 122.502 413.931 123.115 413.712 123.611C413.494 124.107 413.185 124.482 412.787 124.736C412.392 124.99 411.925 125.117 411.386 125.117C411.046 125.117 410.748 125.072 410.49 124.982C410.232 124.893 410.011 124.771 409.828 124.619C409.644 124.467 409.492 124.301 409.371 124.121H409.3C409.312 124.273 409.326 124.457 409.341 124.672C409.361 124.887 409.371 125.074 409.371 125.234V127.871H408.392V118.578H409.195L409.324 119.527H409.371C409.496 119.332 409.648 119.154 409.828 118.994C410.007 118.83 410.226 118.701 410.484 118.607C410.746 118.51 411.054 118.461 411.41 118.461ZM411.24 119.281C410.794 119.281 410.435 119.367 410.162 119.539C409.892 119.711 409.695 119.969 409.57 120.312C409.445 120.652 409.378 121.08 409.371 121.596V121.783C409.371 122.326 409.429 122.785 409.546 123.16C409.667 123.535 409.865 123.82 410.138 124.016C410.416 124.211 410.787 124.309 411.251 124.309C411.65 124.309 411.982 124.201 412.248 123.986C412.513 123.771 412.71 123.473 412.839 123.09C412.972 122.703 413.039 122.26 413.039 121.76C413.039 121.002 412.89 120.4 412.593 119.955C412.3 119.506 411.849 119.281 411.24 119.281ZM416.872 118.578V125H415.9V118.578H416.872ZM416.398 116.176C416.558 116.176 416.695 116.229 416.808 116.334C416.925 116.436 416.984 116.596 416.984 116.814C416.984 117.029 416.925 117.189 416.808 117.295C416.695 117.4 416.558 117.453 416.398 117.453C416.23 117.453 416.089 117.4 415.976 117.295C415.867 117.189 415.812 117.029 415.812 116.814C415.812 116.596 415.867 116.436 415.976 116.334C416.089 116.229 416.23 116.176 416.398 116.176ZM420.073 125H419.095V115.883H420.073V125ZM424.763 118.461C425.31 118.461 425.778 118.582 426.169 118.824C426.56 119.066 426.858 119.406 427.065 119.844C427.272 120.277 427.376 120.785 427.376 121.367V121.971H422.94C422.952 122.725 423.14 123.299 423.503 123.693C423.866 124.088 424.378 124.285 425.038 124.285C425.444 124.285 425.804 124.248 426.116 124.174C426.429 124.1 426.753 123.99 427.089 123.846V124.701C426.765 124.846 426.442 124.951 426.122 125.018C425.806 125.084 425.431 125.117 424.997 125.117C424.38 125.117 423.841 124.992 423.38 124.742C422.923 124.488 422.567 124.117 422.314 123.629C422.06 123.141 421.933 122.543 421.933 121.836C421.933 121.145 422.048 120.547 422.278 120.043C422.513 119.535 422.841 119.145 423.263 118.871C423.689 118.598 424.189 118.461 424.763 118.461ZM424.751 119.258C424.231 119.258 423.817 119.428 423.509 119.768C423.2 120.107 423.017 120.582 422.958 121.191H426.356C426.353 120.809 426.292 120.473 426.175 120.184C426.062 119.891 425.888 119.664 425.653 119.504C425.419 119.34 425.118 119.258 424.751 119.258Z" fill="black"/>
<path d="M475 132L472.113 137H477.887L475 132ZM475.5 188V136.5H474.5V188H475.5Z" fill="black"/>
<path d="M543 132L540.157 137.025L545.93 136.974L543 132ZM544.5 245.996L543.539 136.495L542.539 136.504L543.5 246.004L544.5 245.996Z" fill="black"/>
<path d="M439 204L433.943 201.215L434.059 206.987L439 204ZM340.01 206.5L434.511 204.591L434.491 203.591L339.99 205.5L340.01 206.5Z" fill="black"/>
<path d="M156 162.5H214.5V225.5H156C153.515 225.5 151.5 223.485 151.5 221V167C151.5 164.515 153.515 162.5 156 162.5Z" fill="#82A4D9" stroke="#82A4D9"/>
<path d="M215.5 162.5H317C319.485 162.5 321.5 164.515 321.5 167V221C321.5 223.485 319.485 225.5 317 225.5H215.5V162.5Z" fill="white"/>
<path d="M242.803 199H241.801V191.312H239.105V190.434H245.486V191.312H242.803V199ZM249.267 192.461C249.814 192.461 250.283 192.582 250.674 192.824C251.064 193.066 251.363 193.406 251.57 193.844C251.777 194.277 251.881 194.785 251.881 195.367V195.971H247.445C247.457 196.725 247.644 197.299 248.008 197.693C248.371 198.088 248.883 198.285 249.543 198.285C249.949 198.285 250.308 198.248 250.621 198.174C250.933 198.1 251.258 197.99 251.594 197.846V198.701C251.269 198.846 250.947 198.951 250.627 199.018C250.31 199.084 249.935 199.117 249.502 199.117C248.885 199.117 248.346 198.992 247.885 198.742C247.428 198.488 247.072 198.117 246.818 197.629C246.564 197.141 246.437 196.543 246.437 195.836C246.437 195.145 246.553 194.547 246.783 194.043C247.017 193.535 247.346 193.145 247.767 192.871C248.193 192.598 248.693 192.461 249.267 192.461ZM249.256 193.258C248.736 193.258 248.322 193.428 248.014 193.768C247.705 194.107 247.521 194.582 247.463 195.191H250.861C250.857 194.809 250.797 194.473 250.68 194.184C250.566 193.891 250.392 193.664 250.158 193.504C249.924 193.34 249.623 193.258 249.256 193.258ZM257.847 197.242C257.847 197.652 257.744 197.998 257.537 198.279C257.334 198.557 257.041 198.766 256.658 198.906C256.279 199.047 255.826 199.117 255.299 199.117C254.849 199.117 254.461 199.082 254.132 199.012C253.804 198.941 253.517 198.842 253.271 198.713V197.816C253.533 197.945 253.845 198.062 254.209 198.168C254.572 198.273 254.943 198.326 255.322 198.326C255.877 198.326 256.279 198.236 256.529 198.057C256.779 197.877 256.904 197.633 256.904 197.324C256.904 197.148 256.853 196.994 256.752 196.861C256.654 196.725 256.488 196.594 256.254 196.469C256.019 196.34 255.695 196.199 255.281 196.047C254.871 195.891 254.515 195.736 254.215 195.584C253.918 195.428 253.687 195.238 253.523 195.016C253.363 194.793 253.283 194.504 253.283 194.148C253.283 193.605 253.502 193.189 253.939 192.9C254.381 192.607 254.959 192.461 255.674 192.461C256.06 192.461 256.422 192.5 256.757 192.578C257.097 192.652 257.414 192.754 257.707 192.883L257.379 193.662C257.113 193.549 256.83 193.453 256.529 193.375C256.228 193.297 255.922 193.258 255.609 193.258C255.16 193.258 254.814 193.332 254.572 193.48C254.334 193.629 254.215 193.832 254.215 194.09C254.215 194.289 254.269 194.453 254.379 194.582C254.492 194.711 254.672 194.832 254.918 194.945C255.164 195.059 255.488 195.191 255.89 195.344C256.293 195.492 256.64 195.646 256.933 195.807C257.226 195.963 257.451 196.154 257.607 196.381C257.767 196.604 257.847 196.891 257.847 197.242ZM261.646 198.32C261.806 198.32 261.97 198.307 262.138 198.279C262.306 198.252 262.443 198.219 262.548 198.18V198.936C262.435 198.986 262.277 199.029 262.074 199.064C261.875 199.1 261.679 199.117 261.488 199.117C261.148 199.117 260.839 199.059 260.562 198.941C260.285 198.82 260.062 198.617 259.894 198.332C259.73 198.047 259.648 197.652 259.648 197.148V193.34H258.734V192.865L259.654 192.484L260.041 191.09H260.626V192.578H262.507V193.34H260.626V197.119C260.626 197.521 260.718 197.822 260.902 198.021C261.089 198.221 261.337 198.32 261.646 198.32ZM273.136 199.117C272.558 199.117 272.048 198.998 271.606 198.76C271.165 198.521 270.821 198.158 270.575 197.67C270.329 197.182 270.206 196.566 270.206 195.824C270.206 195.047 270.335 194.412 270.593 193.92C270.855 193.424 271.214 193.057 271.671 192.818C272.128 192.58 272.647 192.461 273.23 192.461C273.55 192.461 273.858 192.494 274.155 192.561C274.456 192.623 274.702 192.703 274.894 192.801L274.601 193.615C274.405 193.537 274.179 193.467 273.921 193.404C273.667 193.342 273.429 193.311 273.206 193.311C272.761 193.311 272.39 193.406 272.093 193.598C271.8 193.789 271.579 194.07 271.431 194.441C271.286 194.812 271.214 195.27 271.214 195.812C271.214 196.332 271.284 196.775 271.425 197.143C271.569 197.51 271.782 197.791 272.064 197.986C272.349 198.178 272.704 198.273 273.13 198.273C273.47 198.273 273.776 198.238 274.05 198.168C274.323 198.094 274.571 198.008 274.794 197.91V198.777C274.579 198.887 274.339 198.971 274.073 199.029C273.812 199.088 273.499 199.117 273.136 199.117ZM282.015 195.777C282.015 196.305 281.946 196.775 281.809 197.189C281.673 197.604 281.475 197.953 281.218 198.238C280.96 198.523 280.647 198.742 280.28 198.895C279.917 199.043 279.505 199.117 279.044 199.117C278.614 199.117 278.22 199.043 277.86 198.895C277.505 198.742 277.196 198.523 276.934 198.238C276.677 197.953 276.475 197.604 276.331 197.189C276.19 196.775 276.12 196.305 276.12 195.777C276.12 195.074 276.239 194.477 276.477 193.984C276.716 193.488 277.056 193.111 277.497 192.854C277.942 192.592 278.472 192.461 279.085 192.461C279.671 192.461 280.182 192.592 280.62 192.854C281.061 193.115 281.403 193.494 281.645 193.99C281.891 194.482 282.015 195.078 282.015 195.777ZM277.128 195.777C277.128 196.293 277.196 196.74 277.333 197.119C277.47 197.498 277.681 197.791 277.966 197.998C278.251 198.205 278.618 198.309 279.067 198.309C279.513 198.309 279.878 198.205 280.163 197.998C280.452 197.791 280.665 197.498 280.802 197.119C280.938 196.74 281.007 196.293 281.007 195.777C281.007 195.266 280.938 194.824 280.802 194.453C280.665 194.078 280.454 193.789 280.169 193.586C279.884 193.383 279.515 193.281 279.061 193.281C278.393 193.281 277.903 193.502 277.591 193.943C277.282 194.385 277.128 194.996 277.128 195.777ZM286.141 199.117C285.329 199.117 284.684 198.84 284.208 198.285C283.735 197.73 283.499 196.906 283.499 195.812C283.499 194.707 283.741 193.873 284.225 193.311C284.71 192.744 285.354 192.461 286.159 192.461C286.499 192.461 286.796 192.506 287.05 192.596C287.303 192.686 287.522 192.807 287.706 192.959C287.889 193.107 288.044 193.277 288.169 193.469H288.239C288.223 193.348 288.208 193.182 288.192 192.971C288.176 192.76 288.169 192.588 288.169 192.455V189.883H289.141V199H288.356L288.21 198.086H288.169C288.048 198.277 287.893 198.451 287.706 198.607C287.522 198.764 287.301 198.889 287.044 198.982C286.79 199.072 286.489 199.117 286.141 199.117ZM286.294 198.309C286.981 198.309 287.467 198.113 287.753 197.723C288.038 197.332 288.18 196.752 288.18 195.982V195.807C288.18 194.99 288.044 194.363 287.77 193.926C287.501 193.488 287.009 193.27 286.294 193.27C285.696 193.27 285.249 193.5 284.952 193.961C284.655 194.418 284.507 195.043 284.507 195.836C284.507 196.625 284.653 197.234 284.946 197.664C285.243 198.094 285.692 198.309 286.294 198.309ZM293.836 192.461C294.383 192.461 294.852 192.582 295.243 192.824C295.633 193.066 295.932 193.406 296.139 193.844C296.346 194.277 296.45 194.785 296.45 195.367V195.971H292.014C292.026 196.725 292.213 197.299 292.577 197.693C292.94 198.088 293.452 198.285 294.112 198.285C294.518 198.285 294.877 198.248 295.19 198.174C295.502 198.1 295.827 197.99 296.163 197.846V198.701C295.838 198.846 295.516 198.951 295.196 199.018C294.879 199.084 294.504 199.117 294.071 199.117C293.454 199.117 292.915 198.992 292.454 198.742C291.997 198.488 291.641 198.117 291.387 197.629C291.133 197.141 291.006 196.543 291.006 195.836C291.006 195.145 291.122 194.547 291.352 194.043C291.586 193.535 291.915 193.145 292.336 192.871C292.762 192.598 293.262 192.461 293.836 192.461ZM293.825 193.258C293.305 193.258 292.891 193.428 292.583 193.768C292.274 194.107 292.09 194.582 292.032 195.191H295.43C295.426 194.809 295.366 194.473 295.249 194.184C295.135 193.891 294.961 193.664 294.727 193.504C294.493 193.34 294.192 193.258 293.825 193.258Z" fill="black"/>
<path d="M215.5 162.5H317C319.485 162.5 321.5 164.515 321.5 167V221C321.5 223.485 319.485 225.5 317 225.5H215.5V162.5Z" stroke="#82A4D9"/>
<path d="M193.968 211.828H176.478C176.214 211.828 176 211.615 176 211.351V187.478C176 187.214 176.214 187.001 176.478 187.001H187.584C187.711 187.001 187.832 187.051 187.922 187.141L194.306 193.525C194.395 193.615 194.446 193.736 194.446 193.863V211.35C194.446 211.614 194.232 211.827 193.968 211.827V211.828ZM176.955 210.873H193.491V194.06L187.387 187.956H176.955V210.873Z" fill="black"/>
<path d="M193.968 194.34H187.583C187.32 194.34 187.106 194.127 187.106 193.863V187.478C187.106 187.285 187.222 187.111 187.401 187.037C187.579 186.962 187.784 187.004 187.922 187.141L194.307 193.525C194.443 193.662 194.484 193.867 194.41 194.046C194.336 194.225 194.162 194.341 193.969 194.341L193.968 194.34ZM188.061 193.385H192.815L188.061 188.631V193.385Z" fill="black"/>
<path d="M482 262L476.96 259.184L477.041 264.957L482 262ZM340.007 264.5L477.507 262.563L477.493 261.563L339.993 263.5L340.007 264.5Z" fill="black"/>
<path d="M194.589 283.733H192.435C192.171 283.733 191.957 283.519 191.957 283.255V269.592L186.412 264.047H178.631C178.368 264.047 178.154 263.833 178.154 263.569V261.477C178.154 261.213 178.368 261 178.631 261H194.589C194.852 261 195.066 261.213 195.066 261.477V283.255C195.066 283.519 194.852 283.733 194.589 283.733V283.733ZM192.912 282.778H194.111V261.954H179.109V263.092H186.611C186.737 263.092 186.859 263.143 186.948 263.232L192.772 269.057C192.861 269.147 192.912 269.268 192.912 269.394V282.778Z" fill="black"/>
<path d="M192.435 285.826H176.477C176.214 285.826 176 285.613 176 285.349V263.569C176 263.305 176.214 263.092 176.477 263.092H186.61C186.736 263.092 186.858 263.143 186.947 263.232L192.771 269.057C192.86 269.147 192.911 269.268 192.911 269.394V285.348C192.911 285.612 192.697 285.825 192.434 285.825L192.435 285.826ZM176.955 284.871H191.957V269.592L186.412 264.047H176.954V284.871H176.955Z" fill="black"/>
<path d="M192.435 269.872H186.61C186.346 269.872 186.132 269.658 186.132 269.394V263.569C186.132 263.376 186.248 263.202 186.427 263.128C186.605 263.053 186.811 263.094 186.948 263.231L192.773 269.056C192.91 269.193 192.95 269.398 192.876 269.577C192.802 269.756 192.628 269.872 192.435 269.872ZM187.087 268.917H191.282L187.087 264.722V268.917Z" fill="black"/>
<path d="M466.559 123.237V75.9188C466.559 73.4335 468.574 71.4188 471.059 71.4188H556.09C558.576 71.4188 560.591 73.4335 560.591 75.9188V123.237C560.591 125.722 558.576 127.737 556.091 127.737H471.059C468.574 127.737 466.559 125.722 466.559 123.237Z" fill="#DA6F5A" stroke="#00378F"/>
<path d="M472.504 103.831L471.273 100.659H467.267L466.044 103.831H464.868L468.778 93.7958H469.824L473.707 103.831H472.504ZM470.924 99.6268L469.755 96.4755C469.728 96.3934 469.683 96.259 469.619 96.0721C469.56 95.8853 469.498 95.6916 469.434 95.4911C469.37 95.2906 469.318 95.1288 469.277 95.0057C469.231 95.1926 469.181 95.3794 469.127 95.5663C469.076 95.7486 469.026 95.9195 468.976 96.079C468.926 96.2339 468.883 96.3661 468.846 96.4755L467.657 99.6268H470.924ZM478.488 96.202C478.638 96.202 478.795 96.2111 478.959 96.2294C479.124 96.243 479.269 96.2635 479.397 96.2909L479.253 97.3436C479.13 97.3117 478.994 97.2867 478.843 97.2684C478.693 97.2502 478.552 97.2411 478.419 97.2411C478.119 97.2411 477.834 97.3026 477.565 97.4257C477.301 97.5441 477.068 97.7173 476.868 97.9452C476.667 98.1685 476.51 98.4397 476.396 98.7587C476.282 99.0731 476.225 99.424 476.225 99.8114V103.831H475.083V96.3387H476.027L476.15 97.7196H476.198C476.353 97.4416 476.54 97.1887 476.758 96.9608C476.977 96.7284 477.23 96.5438 477.517 96.4071C477.809 96.2704 478.132 96.202 478.488 96.202ZM483.064 107.194C482.079 107.194 481.321 107.01 480.787 106.641C480.254 106.276 479.988 105.763 479.988 105.102C479.988 104.633 480.136 104.232 480.432 103.899C480.733 103.567 481.147 103.346 481.676 103.236C481.48 103.145 481.311 103.008 481.17 102.826C481.034 102.644 480.965 102.434 480.965 102.197C480.965 101.924 481.04 101.684 481.191 101.479C481.346 101.27 481.58 101.069 481.895 100.878C481.503 100.718 481.184 100.449 480.938 100.071C480.696 99.6884 480.575 99.244 480.575 98.7382C480.575 98.2004 480.687 97.7424 480.91 97.3641C481.134 96.9813 481.457 96.6897 481.881 96.4891C482.305 96.2886 482.818 96.1884 483.419 96.1884C483.551 96.1884 483.684 96.1952 483.816 96.2089C483.952 96.218 484.082 96.2339 484.205 96.2567C484.328 96.2749 484.436 96.2977 484.527 96.3251H487.097V97.0565L485.716 97.2274C485.853 97.4052 485.967 97.6193 486.058 97.87C486.149 98.1206 486.195 98.3986 486.195 98.704C486.195 99.4514 485.942 100.046 485.436 100.488C484.93 100.926 484.235 101.144 483.351 101.144C483.141 101.144 482.927 101.126 482.708 101.09C482.485 101.213 482.314 101.349 482.196 101.5C482.082 101.65 482.025 101.823 482.025 102.019C482.025 102.165 482.068 102.281 482.155 102.368C482.246 102.455 482.376 102.518 482.544 102.559C482.713 102.596 482.916 102.614 483.153 102.614H484.472C485.288 102.614 485.912 102.785 486.345 103.127C486.783 103.469 487.001 103.968 487.001 104.624C487.001 105.453 486.664 106.089 485.99 106.531C485.315 106.973 484.34 107.194 483.064 107.194ZM483.098 106.306C483.718 106.306 484.23 106.242 484.636 106.114C485.046 105.991 485.352 105.811 485.552 105.574C485.757 105.342 485.86 105.064 485.86 104.74C485.86 104.439 485.791 104.211 485.655 104.057C485.518 103.906 485.317 103.806 485.053 103.756C484.789 103.701 484.465 103.674 484.082 103.674H482.784C482.446 103.674 482.152 103.726 481.902 103.831C481.651 103.936 481.457 104.091 481.321 104.296C481.188 104.501 481.122 104.756 481.122 105.061C481.122 105.467 481.293 105.775 481.635 105.984C481.977 106.198 482.464 106.306 483.098 106.306ZM483.392 100.317C483.934 100.317 484.342 100.181 484.616 99.9071C484.889 99.6337 485.026 99.2349 485.026 98.7108C485.026 98.1503 484.887 97.731 484.609 97.453C484.331 97.1705 483.921 97.0292 483.378 97.0292C482.859 97.0292 482.458 97.175 482.175 97.4667C481.897 97.7538 481.758 98.1753 481.758 98.7313C481.758 99.2417 481.899 99.6337 482.182 99.9071C482.464 100.181 482.868 100.317 483.392 100.317ZM493.58 101.78C493.58 102.259 493.459 102.662 493.218 102.99C492.981 103.314 492.639 103.557 492.193 103.722C491.75 103.886 491.222 103.968 490.607 103.968C490.082 103.968 489.629 103.927 489.246 103.845C488.863 103.763 488.528 103.646 488.241 103.496V102.45C488.547 102.6 488.911 102.737 489.335 102.86C489.759 102.983 490.192 103.045 490.634 103.045C491.281 103.045 491.75 102.94 492.042 102.73C492.334 102.521 492.48 102.236 492.48 101.876C492.48 101.671 492.42 101.491 492.302 101.336C492.188 101.176 491.994 101.024 491.721 100.878C491.447 100.727 491.069 100.563 490.586 100.386C490.108 100.203 489.693 100.023 489.342 99.8456C488.996 99.6633 488.727 99.4423 488.535 99.1825C488.348 98.9227 488.255 98.5855 488.255 98.1708C488.255 97.5373 488.51 97.052 489.021 96.7147C489.536 96.3729 490.21 96.202 491.044 96.202C491.495 96.202 491.917 96.2476 492.309 96.3387C492.705 96.4253 493.074 96.5438 493.416 96.6942L493.033 97.6034C492.723 97.4712 492.393 97.3596 492.042 97.2684C491.691 97.1773 491.333 97.1317 490.969 97.1317C490.445 97.1317 490.041 97.2183 489.759 97.3915C489.481 97.5647 489.342 97.8016 489.342 98.1024C489.342 98.3348 489.406 98.5262 489.533 98.6766C489.666 98.827 489.875 98.9683 490.162 99.1005C490.449 99.2326 490.828 99.3876 491.297 99.5653C491.766 99.7385 492.172 99.9185 492.514 100.105C492.856 100.288 493.118 100.511 493.3 100.775C493.487 101.035 493.58 101.37 493.58 101.78Z" fill="white"/>
<rect x="604.5" y="89.5" width="96" height="19.5645" rx="4.5" fill="#00378F"/>
<path d="M627.367 94.0059H630.197C631.446 94.0059 632.385 94.1927 633.014 94.5664C633.643 94.9401 633.957 95.5758 633.957 96.4736C633.957 96.861 633.882 97.2096 633.731 97.5195C633.586 97.8249 633.371 98.0778 633.089 98.2783C632.806 98.4788 632.458 98.6178 632.043 98.6953V98.7637C632.48 98.832 632.868 98.9574 633.205 99.1396C633.542 99.3219 633.807 99.5771 633.998 99.9053C634.189 100.233 634.285 100.65 634.285 101.156C634.285 101.771 634.142 102.291 633.854 102.715C633.572 103.139 633.171 103.46 632.651 103.679C632.132 103.893 631.517 104 630.806 104H627.367V94.0059ZM628.529 98.292H630.443C631.314 98.292 631.915 98.1484 632.248 97.8613C632.585 97.5742 632.754 97.1549 632.754 96.6035C632.754 96.0339 632.553 95.6237 632.152 95.373C631.756 95.1224 631.122 94.9971 630.252 94.9971H628.529V98.292ZM628.529 99.2695V103.009H630.607C631.496 103.009 632.125 102.836 632.494 102.489C632.863 102.138 633.048 101.667 633.048 101.074C633.048 100.696 632.964 100.372 632.795 100.104C632.631 99.8346 632.362 99.6296 631.988 99.4883C631.619 99.3424 631.125 99.2695 630.505 99.2695H628.529ZM642.867 100.24C642.867 100.855 642.787 101.405 642.628 101.888C642.468 102.371 642.238 102.779 641.937 103.111C641.637 103.444 641.272 103.699 640.844 103.877C640.42 104.05 639.939 104.137 639.401 104.137C638.9 104.137 638.44 104.05 638.02 103.877C637.606 103.699 637.246 103.444 636.94 103.111C636.639 102.779 636.405 102.371 636.236 101.888C636.072 101.405 635.99 100.855 635.99 100.24C635.99 99.4199 636.129 98.7227 636.407 98.1484C636.685 97.5697 637.082 97.1299 637.597 96.8291C638.116 96.5238 638.734 96.3711 639.449 96.3711C640.133 96.3711 640.73 96.5238 641.24 96.8291C641.755 97.1344 642.154 97.5765 642.436 98.1553C642.723 98.7295 642.867 99.4245 642.867 100.24ZM637.166 100.24C637.166 100.842 637.246 101.364 637.405 101.806C637.565 102.248 637.811 102.59 638.143 102.831C638.476 103.073 638.904 103.193 639.429 103.193C639.948 103.193 640.374 103.073 640.707 102.831C641.044 102.59 641.292 102.248 641.452 101.806C641.611 101.364 641.691 100.842 641.691 100.24C641.691 99.6432 641.611 99.1283 641.452 98.6953C641.292 98.2578 641.046 97.9206 640.714 97.6836C640.381 97.4466 639.95 97.3281 639.422 97.3281C638.642 97.3281 638.07 97.5856 637.706 98.1006C637.346 98.6156 637.166 99.3288 637.166 100.24ZM651.449 100.24C651.449 100.855 651.369 101.405 651.21 101.888C651.05 102.371 650.82 102.779 650.519 103.111C650.218 103.444 649.854 103.699 649.425 103.877C649.002 104.05 648.521 104.137 647.983 104.137C647.482 104.137 647.021 104.05 646.602 103.877C646.188 103.699 645.827 103.444 645.522 103.111C645.221 102.779 644.987 102.371 644.818 101.888C644.654 101.405 644.572 100.855 644.572 100.24C644.572 99.4199 644.711 98.7227 644.989 98.1484C645.267 97.5697 645.663 97.1299 646.178 96.8291C646.698 96.5238 647.315 96.3711 648.031 96.3711C648.715 96.3711 649.312 96.5238 649.822 96.8291C650.337 97.1344 650.736 97.5765 651.018 98.1553C651.305 98.7295 651.449 99.4245 651.449 100.24ZM645.748 100.24C645.748 100.842 645.827 101.364 645.987 101.806C646.146 102.248 646.393 102.59 646.725 102.831C647.058 103.073 647.486 103.193 648.01 103.193C648.53 103.193 648.956 103.073 649.289 102.831C649.626 102.59 649.874 102.248 650.034 101.806C650.193 101.364 650.273 100.842 650.273 100.24C650.273 99.6432 650.193 99.1283 650.034 98.6953C649.874 98.2578 649.628 97.9206 649.296 97.6836C648.963 97.4466 648.532 97.3281 648.004 97.3281C647.224 97.3281 646.652 97.5856 646.288 98.1006C645.928 98.6156 645.748 99.3288 645.748 100.24ZM655.991 103.207C656.178 103.207 656.369 103.191 656.565 103.159C656.761 103.127 656.92 103.089 657.043 103.043V103.925C656.911 103.984 656.727 104.034 656.49 104.075C656.257 104.116 656.029 104.137 655.806 104.137C655.41 104.137 655.05 104.068 654.726 103.932C654.403 103.79 654.143 103.553 653.947 103.221C653.755 102.888 653.66 102.428 653.66 101.84V97.3965H652.593V96.8428L653.667 96.3984L654.118 94.7715H654.801V96.5078H656.996V97.3965H654.801V101.806C654.801 102.275 654.908 102.626 655.123 102.858C655.341 103.091 655.631 103.207 655.991 103.207ZM658.55 103.289C658.55 102.97 658.628 102.744 658.783 102.612C658.938 102.476 659.127 102.407 659.35 102.407C659.582 102.407 659.778 102.476 659.938 102.612C660.097 102.744 660.177 102.97 660.177 103.289C660.177 103.604 660.097 103.834 659.938 103.979C659.778 104.121 659.582 104.191 659.35 104.191C659.127 104.191 658.938 104.121 658.783 103.979C658.628 103.834 658.55 103.604 658.55 103.289ZM661.656 107.363C661.424 107.363 661.221 107.345 661.048 107.309C660.875 107.277 660.724 107.238 660.597 107.192V106.27C660.738 106.315 660.882 106.349 661.028 106.372C661.173 106.399 661.337 106.413 661.52 106.413C661.83 106.413 662.08 106.326 662.272 106.153C662.463 105.98 662.559 105.666 662.559 105.21V96.5078H663.694V105.183C663.694 105.638 663.621 106.028 663.475 106.352C663.329 106.68 663.106 106.93 662.805 107.104C662.504 107.277 662.121 107.363 661.656 107.363ZM662.456 94.4502C662.456 94.195 662.52 94.0081 662.648 93.8896C662.78 93.7666 662.944 93.7051 663.14 93.7051C663.327 93.7051 663.486 93.7666 663.618 93.8896C663.755 94.0081 663.823 94.195 663.823 94.4502C663.823 94.7008 663.755 94.8877 663.618 95.0107C663.486 95.1338 663.327 95.1953 663.14 95.1953C662.944 95.1953 662.78 95.1338 662.648 95.0107C662.52 94.8877 662.456 94.7008 662.456 94.4502ZM669.063 96.3848C669.956 96.3848 670.619 96.5853 671.052 96.9863C671.485 97.3874 671.701 98.0277 671.701 98.9072V104H670.874L670.655 102.893H670.601C670.391 103.166 670.172 103.396 669.944 103.583C669.717 103.765 669.452 103.904 669.151 104C668.855 104.091 668.491 104.137 668.058 104.137C667.602 104.137 667.196 104.057 666.841 103.897C666.49 103.738 666.212 103.496 666.007 103.173C665.806 102.849 665.706 102.439 665.706 101.942C665.706 101.195 666.002 100.621 666.595 100.22C667.187 99.8187 668.09 99.5999 669.302 99.5635L670.594 99.5088V99.0508C670.594 98.4036 670.455 97.9502 670.177 97.6904C669.899 97.4307 669.507 97.3008 669.001 97.3008C668.609 97.3008 668.235 97.3577 667.88 97.4717C667.524 97.5856 667.187 97.7201 666.868 97.875L666.52 97.0137C666.857 96.8405 667.244 96.6924 667.682 96.5693C668.119 96.4463 668.579 96.3848 669.063 96.3848ZM670.58 100.309L669.439 100.356C668.504 100.393 667.846 100.546 667.463 100.814C667.08 101.083 666.889 101.464 666.889 101.956C666.889 102.384 667.019 102.701 667.278 102.906C667.538 103.111 667.882 103.214 668.311 103.214C668.976 103.214 669.521 103.029 669.944 102.66C670.368 102.291 670.58 101.737 670.58 100.999V100.309ZM677.603 96.3711C677.754 96.3711 677.911 96.3802 678.075 96.3984C678.239 96.4121 678.385 96.4326 678.513 96.46L678.369 97.5127C678.246 97.4808 678.109 97.4557 677.959 97.4375C677.808 97.4193 677.667 97.4102 677.535 97.4102C677.234 97.4102 676.949 97.4717 676.681 97.5947C676.416 97.7132 676.184 97.8864 675.983 98.1143C675.783 98.3376 675.626 98.6087 675.512 98.9277C675.398 99.2422 675.341 99.5931 675.341 99.9805V104H674.199V96.5078H675.142L675.266 97.8887H675.313C675.468 97.6107 675.655 97.3577 675.874 97.1299C676.093 96.8975 676.346 96.7129 676.633 96.5762C676.924 96.4395 677.248 96.3711 677.603 96.3711Z" fill="white"/>
<rect x="604.5" y="89.5" width="96" height="19.5645" rx="4.5" stroke="#00378F"/>
<path d="M604 99L599 96.1132L599 101.887L604 99ZM561 99.5L599.5 99.5L599.5 98.5L561 98.5L561 99.5Z" fill="black"/>
<path d="M664 168.581L666.887 163.581L661.113 163.581L664 168.581ZM663.5 111L663.5 164.081L664.5 164.081L664.5 111L663.5 111Z" fill="black"/>
</svg>
