<svg width="570" height="243" viewBox="0 0 570 243" fill="none" xmlns="http://www.w3.org/2000/svg">
<rect x="450.5" y="101.5" width="119" height="117" rx="4.5" fill="#EBB347" stroke="#00378F"/>
<path d="M471.64 112.564H475.133V117.41C474.609 117.588 474.069 117.72 473.513 117.807C472.961 117.893 472.344 117.937 471.66 117.937C470.621 117.937 469.744 117.729 469.028 117.315C468.317 116.9 467.777 116.31 467.408 115.544C467.039 114.774 466.854 113.86 466.854 112.803C466.854 111.768 467.057 110.866 467.463 110.096C467.873 109.326 468.463 108.729 469.233 108.305C470.008 107.877 470.938 107.662 472.022 107.662C472.578 107.662 473.105 107.715 473.602 107.82C474.103 107.92 474.568 108.063 474.996 108.25L474.552 109.262C474.183 109.102 473.775 108.966 473.328 108.852C472.886 108.738 472.428 108.681 471.954 108.681C471.138 108.681 470.439 108.85 469.855 109.187C469.277 109.524 468.832 110 468.522 110.615C468.217 111.231 468.064 111.96 468.064 112.803C468.064 113.637 468.199 114.364 468.468 114.984C468.737 115.599 469.156 116.077 469.726 116.419C470.295 116.761 471.029 116.932 471.927 116.932C472.378 116.932 472.765 116.907 473.089 116.857C473.412 116.802 473.706 116.738 473.971 116.665V113.603H471.64V112.564ZM480.946 110.171C481.097 110.171 481.254 110.18 481.418 110.198C481.582 110.212 481.728 110.233 481.855 110.26L481.712 111.313C481.589 111.281 481.452 111.256 481.302 111.238C481.151 111.219 481.01 111.21 480.878 111.21C480.577 111.21 480.292 111.272 480.023 111.395C479.759 111.513 479.527 111.686 479.326 111.914C479.125 112.138 478.968 112.409 478.854 112.728C478.74 113.042 478.683 113.393 478.683 113.781V117.8H477.542V110.308H478.485L478.608 111.689H478.656C478.811 111.411 478.998 111.158 479.217 110.93C479.435 110.698 479.688 110.513 479.975 110.376C480.267 110.24 480.591 110.171 480.946 110.171ZM489.89 114.04C489.89 114.656 489.811 115.205 489.651 115.688C489.492 116.171 489.261 116.579 488.961 116.911C488.66 117.244 488.295 117.499 487.867 117.677C487.443 117.85 486.962 117.937 486.424 117.937C485.923 117.937 485.463 117.85 485.044 117.677C484.629 117.499 484.269 117.244 483.964 116.911C483.663 116.579 483.428 116.171 483.259 115.688C483.095 115.205 483.013 114.656 483.013 114.04C483.013 113.22 483.152 112.523 483.43 111.948C483.708 111.37 484.105 110.93 484.62 110.629C485.139 110.324 485.757 110.171 486.472 110.171C487.156 110.171 487.753 110.324 488.263 110.629C488.778 110.934 489.177 111.377 489.46 111.955C489.747 112.53 489.89 113.225 489.89 114.04ZM484.189 114.04C484.189 114.642 484.269 115.164 484.428 115.606C484.588 116.048 484.834 116.39 485.167 116.631C485.499 116.873 485.928 116.993 486.452 116.993C486.971 116.993 487.397 116.873 487.73 116.631C488.067 116.39 488.316 116.048 488.475 115.606C488.635 115.164 488.715 114.642 488.715 114.04C488.715 113.443 488.635 112.928 488.475 112.495C488.316 112.058 488.07 111.721 487.737 111.484C487.404 111.247 486.974 111.128 486.445 111.128C485.666 111.128 485.094 111.386 484.729 111.901C484.369 112.416 484.189 113.129 484.189 114.04ZM498.199 110.308V117.8H497.269L497.105 116.747H497.043C496.889 117.007 496.688 117.226 496.442 117.404C496.196 117.581 495.918 117.713 495.608 117.8C495.303 117.891 494.977 117.937 494.63 117.937C494.038 117.937 493.541 117.841 493.14 117.65C492.739 117.458 492.436 117.162 492.231 116.761C492.03 116.36 491.93 115.845 491.93 115.216V110.308H493.079V115.134C493.079 115.758 493.22 116.226 493.502 116.535C493.785 116.841 494.216 116.993 494.794 116.993C495.35 116.993 495.792 116.889 496.121 116.679C496.453 116.469 496.693 116.162 496.838 115.756C496.984 115.346 497.057 114.845 497.057 114.252V110.308H498.199ZM504.279 110.171C505.213 110.171 505.958 110.492 506.514 111.135C507.07 111.778 507.348 112.744 507.348 114.033C507.348 114.886 507.22 115.601 506.965 116.18C506.71 116.759 506.35 117.196 505.885 117.492C505.425 117.789 504.88 117.937 504.251 117.937C503.855 117.937 503.506 117.884 503.205 117.78C502.905 117.675 502.647 117.533 502.433 117.356C502.219 117.178 502.041 116.984 501.9 116.775H501.818C501.831 116.952 501.847 117.167 501.866 117.417C501.888 117.668 501.9 117.887 501.9 118.073V121.15H500.758V110.308H501.695L501.845 111.415H501.9C502.046 111.187 502.223 110.98 502.433 110.793C502.643 110.602 502.898 110.451 503.199 110.342C503.504 110.228 503.864 110.171 504.279 110.171ZM504.08 111.128C503.561 111.128 503.142 111.228 502.823 111.429C502.508 111.629 502.278 111.93 502.132 112.331C501.986 112.728 501.909 113.227 501.9 113.828V114.047C501.9 114.681 501.968 115.216 502.105 115.654C502.246 116.091 502.476 116.424 502.795 116.652C503.119 116.879 503.552 116.993 504.094 116.993C504.559 116.993 504.946 116.868 505.256 116.617C505.566 116.367 505.796 116.018 505.947 115.572C506.102 115.12 506.179 114.603 506.179 114.02C506.179 113.136 506.006 112.434 505.66 111.914C505.318 111.39 504.791 111.128 504.08 111.128ZM515.707 117.007C515.894 117.007 516.085 116.991 516.281 116.959C516.477 116.927 516.637 116.889 516.76 116.843V117.725C516.628 117.784 516.443 117.834 516.206 117.875C515.974 117.916 515.746 117.937 515.522 117.937C515.126 117.937 514.766 117.868 514.442 117.732C514.119 117.59 513.859 117.353 513.663 117.021C513.472 116.688 513.376 116.228 513.376 115.64V111.197H512.31V110.643L513.383 110.198L513.834 108.572H514.518V110.308H516.712V111.197H514.518V115.606C514.518 116.075 514.625 116.426 514.839 116.658C515.058 116.891 515.347 117.007 515.707 117.007ZM519.572 110.308V117.8H518.437V110.308H519.572ZM519.018 107.505C519.205 107.505 519.365 107.567 519.497 107.69C519.634 107.808 519.702 107.995 519.702 108.25C519.702 108.501 519.634 108.688 519.497 108.811C519.365 108.934 519.205 108.995 519.018 108.995C518.822 108.995 518.658 108.934 518.526 108.811C518.399 108.688 518.335 108.501 518.335 108.25C518.335 107.995 518.399 107.808 518.526 107.69C518.658 107.567 518.822 107.505 519.018 107.505ZM524.558 117.007C524.745 117.007 524.937 116.991 525.133 116.959C525.329 116.927 525.488 116.889 525.611 116.843V117.725C525.479 117.784 525.294 117.834 525.057 117.875C524.825 117.916 524.597 117.937 524.374 117.937C523.977 117.937 523.617 117.868 523.294 117.732C522.97 117.59 522.71 117.353 522.514 117.021C522.323 116.688 522.227 116.228 522.227 115.64V111.197H521.161V110.643L522.234 110.198L522.685 108.572H523.369V110.308H525.563V111.197H523.369V115.606C523.369 116.075 523.476 116.426 523.69 116.658C523.909 116.891 524.198 117.007 524.558 117.007ZM528.43 117.8H527.289V107.163H528.43V117.8ZM533.874 110.171C534.512 110.171 535.059 110.312 535.515 110.595C535.971 110.878 536.319 111.274 536.561 111.784C536.802 112.29 536.923 112.883 536.923 113.562V114.266H531.748C531.762 115.145 531.981 115.815 532.405 116.276C532.829 116.736 533.426 116.966 534.196 116.966C534.67 116.966 535.089 116.923 535.454 116.836C535.818 116.75 536.196 116.622 536.588 116.453V117.451C536.21 117.62 535.834 117.743 535.46 117.821C535.091 117.898 534.654 117.937 534.148 117.937C533.428 117.937 532.799 117.791 532.261 117.499C531.728 117.203 531.313 116.77 531.017 116.2C530.721 115.631 530.573 114.934 530.573 114.109C530.573 113.302 530.707 112.605 530.976 112.017C531.249 111.424 531.632 110.969 532.124 110.65C532.621 110.331 533.204 110.171 533.874 110.171ZM533.861 111.101C533.255 111.101 532.772 111.299 532.412 111.696C532.051 112.092 531.837 112.646 531.769 113.357H535.734C535.729 112.91 535.659 112.518 535.522 112.181C535.39 111.839 535.187 111.575 534.913 111.388C534.64 111.197 534.289 111.101 533.861 111.101Z" fill="black"/>
<path d="M455 93.3H565C567.485 93.3 569.5 95.3148 569.5 97.8V132.3H450.5V97.8C450.5 95.3148 452.515 93.3 455 93.3Z" fill="#DA6F5A"/>
<path d="M465.925 120.432C465.697 120.432 465.496 120.416 465.323 120.384C465.15 120.352 465.002 120.309 464.879 120.254V119.263C465.025 119.309 465.182 119.343 465.351 119.365C465.519 119.393 465.701 119.406 465.897 119.406C466.153 119.406 466.387 119.356 466.602 119.256C466.816 119.156 466.987 118.985 467.114 118.743C467.242 118.502 467.306 118.169 467.306 117.745V107.806H468.475V117.656C468.475 118.281 468.37 118.798 468.16 119.208C467.955 119.618 467.661 119.924 467.278 120.124C466.9 120.329 466.449 120.432 465.925 120.432ZM478.266 107.806L474.678 117.8H473.509L469.92 107.806H471.137L473.474 114.389C473.57 114.653 473.654 114.906 473.727 115.148C473.805 115.389 473.873 115.622 473.932 115.845C473.992 116.068 474.044 116.285 474.09 116.494C474.135 116.285 474.188 116.068 474.247 115.845C474.306 115.617 474.375 115.382 474.452 115.141C474.529 114.895 474.616 114.637 474.712 114.368L477.036 107.806H478.266ZM484.196 117.8L480.84 108.954H480.785C480.803 109.141 480.819 109.369 480.833 109.638C480.846 109.907 480.858 110.201 480.867 110.52C480.876 110.834 480.881 111.156 480.881 111.484V117.8H479.8V107.806H481.523L484.688 116.118H484.736L487.949 107.806H489.658V117.8H488.509V111.402C488.509 111.105 488.514 110.809 488.523 110.513C488.532 110.212 488.544 109.93 488.557 109.665C488.571 109.396 488.585 109.164 488.598 108.968H488.544L485.146 117.8H484.196Z" fill="white"/>
<path d="M455 93.3H565C567.485 93.3 569.5 95.3148 569.5 97.8V132.3H450.5V97.8C450.5 95.3148 452.515 93.3 455 93.3Z" stroke="#00378F"/>
<g style="mix-blend-mode:overlay">
<rect x="31.5" y="77.5" width="114" height="71" rx="4.5" fill="#82A4D9" stroke="#00378F"/>
<path d="M52.6396 83.9636H56.1328V88.8103C55.6087 88.988 55.0687 89.1202 54.5127 89.2068C53.9613 89.2934 53.3438 89.3367 52.6602 89.3367C51.6211 89.3367 50.7438 89.1293 50.0283 88.7146C49.3174 88.2999 48.7773 87.7097 48.4082 86.9441C48.0391 86.1739 47.8545 85.2602 47.8545 84.2029C47.8545 83.1684 48.0573 82.266 48.4629 81.4958C48.873 80.7257 49.4632 80.1287 50.2334 79.7048C51.0081 79.2764 51.9378 79.0623 53.0225 79.0623C53.5785 79.0623 54.1048 79.1147 54.6016 79.2195C55.1029 79.3197 55.5677 79.4633 55.9961 79.6501L55.5518 80.6619C55.1826 80.5024 54.7747 80.3656 54.3281 80.2517C53.8861 80.1378 53.4281 80.0808 52.9541 80.0808C52.1383 80.0808 51.4388 80.2494 50.8555 80.5867C50.2767 80.9239 49.8324 81.4001 49.5225 82.0154C49.2171 82.6306 49.0645 83.3598 49.0645 84.2029C49.0645 85.0369 49.1989 85.7638 49.4678 86.3835C49.7367 86.9988 50.1559 87.4773 50.7256 87.8191C51.2952 88.1609 52.029 88.3318 52.9268 88.3318C53.3779 88.3318 53.7653 88.3067 54.0889 88.2566C54.4124 88.2019 54.7064 88.1381 54.9707 88.0652V85.0027H52.6396V83.9636ZM61.9461 81.571C62.0965 81.571 62.2537 81.5802 62.4178 81.5984C62.5819 81.6121 62.7277 81.6326 62.8553 81.6599L62.7118 82.7126C62.5887 82.6807 62.452 82.6557 62.3016 82.6375C62.1512 82.6192 62.0099 82.6101 61.8778 82.6101C61.577 82.6101 61.2922 82.6716 61.0233 82.7947C60.759 82.9132 60.5265 83.0863 60.326 83.3142C60.1255 83.5375 59.9683 83.8087 59.8543 84.1277C59.7404 84.4421 59.6834 84.7931 59.6834 85.1804V89.2H58.5418V81.7078H59.4852L59.6082 83.0886H59.6561C59.811 82.8106 59.9979 82.5577 60.2166 82.3298C60.4354 82.0974 60.6883 81.9128 60.9754 81.7761C61.2671 81.6394 61.5907 81.571 61.9461 81.571ZM70.8903 85.4402C70.8903 86.0554 70.8106 86.6046 70.6511 87.0876C70.4915 87.5707 70.2614 87.9786 69.9606 88.3113C69.6598 88.644 69.2953 88.8992 68.8669 89.0769C68.443 89.2501 67.9623 89.3367 67.4245 89.3367C66.9232 89.3367 66.4629 89.2501 66.0436 89.0769C65.6289 88.8992 65.2689 88.644 64.9636 88.3113C64.6628 87.9786 64.4281 87.5707 64.2595 87.0876C64.0954 86.6046 64.0134 86.0554 64.0134 85.4402C64.0134 84.6199 64.1524 83.9226 64.4304 83.3484C64.7083 82.7696 65.1048 82.3298 65.6198 82.0291C66.1393 81.7237 66.7568 81.571 67.4723 81.571C68.1559 81.571 68.7529 81.7237 69.2634 82.0291C69.7783 82.3344 70.1771 82.7764 70.4596 83.3552C70.7468 83.9294 70.8903 84.6244 70.8903 85.4402ZM65.1891 85.4402C65.1891 86.0417 65.2689 86.5636 65.4284 87.0056C65.5879 87.4477 65.834 87.7895 66.1667 88.031C66.4994 88.2725 66.9277 88.3933 67.4518 88.3933C67.9714 88.3933 68.3975 88.2725 68.7302 88.031C69.0674 87.7895 69.3158 87.4477 69.4753 87.0056C69.6348 86.5636 69.7145 86.0417 69.7145 85.4402C69.7145 84.8432 69.6348 84.3282 69.4753 83.8953C69.3158 83.4578 69.0697 83.1205 68.737 82.8835C68.4043 82.6466 67.9736 82.5281 67.445 82.5281C66.6657 82.5281 66.0938 82.7856 65.7292 83.3005C65.3692 83.8155 65.1891 84.5287 65.1891 85.4402ZM79.1987 81.7078V89.2H78.2691L78.105 88.1472H78.0435C77.8885 88.407 77.688 88.6257 77.4419 88.8035C77.1958 88.9812 76.9178 89.1134 76.6079 89.2C76.3026 89.2911 75.9767 89.3367 75.6304 89.3367C75.0379 89.3367 74.5412 89.241 74.1402 89.0496C73.7391 88.8582 73.4361 88.5619 73.231 88.1609C73.0305 87.7598 72.9302 87.2449 72.9302 86.616V81.7078H74.0786V86.5339C74.0786 87.1583 74.2199 87.6254 74.5025 87.9353C74.785 88.2406 75.2157 88.3933 75.7945 88.3933C76.3504 88.3933 76.7925 88.2885 77.1206 88.0789C77.4533 87.8692 77.6926 87.5616 77.8384 87.156C77.9842 86.7458 78.0571 86.2445 78.0571 85.6521V81.7078H79.1987ZM85.2787 81.571C86.2129 81.571 86.958 81.8923 87.514 82.5349C88.07 83.1775 88.348 84.1436 88.348 85.4333C88.348 86.2856 88.2204 87.0011 87.9652 87.5798C87.71 88.1586 87.35 88.5961 86.8851 88.8923C86.4248 89.1886 85.8802 89.3367 85.2513 89.3367C84.8548 89.3367 84.5062 89.2843 84.2054 89.1794C83.9046 89.0746 83.6472 88.9333 83.433 88.7556C83.2188 88.5779 83.041 88.3842 82.8998 88.1746H82.8177C82.8314 88.3523 82.8474 88.5665 82.8656 88.8171C82.8884 89.0678 82.8998 89.2865 82.8998 89.4734V92.5496H81.7582V81.7078H82.6947L82.8451 82.8152H82.8998C83.0456 82.5873 83.2233 82.38 83.433 82.1931C83.6426 82.0017 83.8978 81.8513 84.1986 81.7419C84.5039 81.628 84.864 81.571 85.2787 81.571ZM85.0804 82.5281C84.5609 82.5281 84.1416 82.6283 83.8226 82.8289C83.5082 83.0294 83.278 83.3302 83.1322 83.7312C82.9864 84.1277 82.9089 84.6267 82.8998 85.2283V85.447C82.8998 86.0805 82.9681 86.616 83.1048 87.0535C83.2461 87.491 83.4763 87.8236 83.7953 88.0515C84.1188 88.2794 84.5518 88.3933 85.0941 88.3933C85.5589 88.3933 85.9463 88.268 86.2562 88.0173C86.5661 87.7667 86.7962 87.4181 86.9466 86.9714C87.1016 86.5203 87.1791 86.003 87.1791 85.4197C87.1791 84.5356 87.0059 83.8337 86.6595 83.3142C86.3177 82.7901 85.7914 82.5281 85.0804 82.5281ZM96.7071 88.407C96.8939 88.407 97.0853 88.391 97.2813 88.3591C97.4773 88.3272 97.6368 88.2885 97.7598 88.2429V89.1248C97.6276 89.184 97.4431 89.2341 97.2061 89.2751C96.9737 89.3162 96.7458 89.3367 96.5225 89.3367C96.126 89.3367 95.766 89.2683 95.4424 89.1316C95.1189 88.9903 94.8591 88.7533 94.6631 88.4207C94.4717 88.088 94.376 87.6277 94.376 87.0398V82.5964H93.3096V82.0427L94.3829 81.5984L94.834 79.9714H95.5176V81.7078H97.712V82.5964H95.5176V87.0056C95.5176 87.475 95.6247 87.8259 95.8389 88.0583C96.0577 88.2908 96.347 88.407 96.7071 88.407ZM100.572 81.7078V89.2H99.4374V81.7078H100.572ZM100.018 78.905C100.205 78.905 100.365 78.9666 100.497 79.0896C100.634 79.2081 100.702 79.3949 100.702 79.6501C100.702 79.9008 100.634 80.0876 100.497 80.2107C100.365 80.3337 100.205 80.3953 100.018 80.3953C99.8225 80.3953 99.6584 80.3337 99.5262 80.2107C99.3986 80.0876 99.3348 79.9008 99.3348 79.6501C99.3348 79.3949 99.3986 79.2081 99.5262 79.0896C99.6584 78.9666 99.8225 78.905 100.018 78.905ZM105.558 88.407C105.745 88.407 105.937 88.391 106.133 88.3591C106.329 88.3272 106.488 88.2885 106.611 88.2429V89.1248C106.479 89.184 106.294 89.2341 106.057 89.2751C105.825 89.3162 105.597 89.3367 105.374 89.3367C104.977 89.3367 104.617 89.2683 104.294 89.1316C103.97 88.9903 103.71 88.7533 103.514 88.4207C103.323 88.088 103.227 87.6277 103.227 87.0398V82.5964H102.161V82.0427L103.234 81.5984L103.685 79.9714H104.369V81.7078H106.563V82.5964H104.369V87.0056C104.369 87.475 104.476 87.8259 104.69 88.0583C104.909 88.2908 105.198 88.407 105.558 88.407ZM109.43 89.2H108.289V78.5632H109.43V89.2ZM114.874 81.571C115.512 81.571 116.059 81.7123 116.515 81.9949C116.971 82.2774 117.319 82.6739 117.561 83.1843C117.802 83.6902 117.923 84.2826 117.923 84.9617V85.6658H112.748C112.762 86.5453 112.981 87.2153 113.405 87.6755C113.829 88.1358 114.426 88.366 115.196 88.366C115.67 88.366 116.089 88.3227 116.454 88.2361C116.818 88.1495 117.196 88.0219 117.588 87.8533V88.8513C117.21 89.0199 116.834 89.143 116.46 89.2205C116.091 89.2979 115.654 89.3367 115.148 89.3367C114.428 89.3367 113.799 89.1908 113.261 88.8992C112.728 88.6029 112.313 88.17 112.017 87.6003C111.721 87.0307 111.573 86.3334 111.573 85.5085C111.573 84.7019 111.707 84.0046 111.976 83.4167C112.249 82.8243 112.632 82.3686 113.124 82.0496C113.621 81.7306 114.204 81.571 114.874 81.571ZM114.861 82.5007C114.255 82.5007 113.772 82.699 113.412 83.0955C113.051 83.4919 112.837 84.0457 112.769 84.7566H116.734C116.729 84.31 116.659 83.9181 116.522 83.5808C116.39 83.239 116.187 82.9747 115.913 82.7878C115.64 82.5964 115.289 82.5007 114.861 82.5007Z" fill="black"/>
<path d="M36 64.7H141C143.485 64.7 145.5 66.7147 145.5 69.2V103.7H31.5V69.2C31.5 66.7147 33.5147 64.7 36 64.7Z" fill="#00378F"/>
<path d="M51.4365 89.2H50.2676V80.2312H47.123V79.2058H54.5674V80.2312H51.4365V89.2ZM58.952 81.571C59.59 81.571 60.1369 81.7123 60.5926 81.9949C61.0483 82.2774 61.397 82.6739 61.6385 83.1843C61.8801 83.6902 62.0008 84.2826 62.0008 84.9617V85.6658H56.826C56.8397 86.5453 57.0584 87.2153 57.4823 87.6755C57.9061 88.1358 58.5031 88.366 59.2733 88.366C59.7472 88.366 60.1665 88.3227 60.5311 88.2361C60.8957 88.1495 61.2739 88.0219 61.6659 87.8533V88.8513C61.2876 89.0199 60.9116 89.143 60.5379 89.2205C60.1688 89.2979 59.7313 89.3367 59.2254 89.3367C58.5054 89.3367 57.8765 89.1908 57.3387 88.8992C56.8055 88.6029 56.3908 88.17 56.0946 87.6003C55.7983 87.0307 55.6502 86.3334 55.6502 85.5085C55.6502 84.7019 55.7847 84.0046 56.0536 83.4167C56.327 82.8243 56.7098 82.3686 57.202 82.0496C57.6987 81.7306 58.2821 81.571 58.952 81.571ZM58.9383 82.5007C58.3322 82.5007 57.8491 82.699 57.4891 83.0955C57.1291 83.4919 56.9149 84.0457 56.8465 84.7566H60.8114C60.8068 84.31 60.7362 83.9181 60.5995 83.5808C60.4673 83.239 60.2645 82.9747 59.9911 82.7878C59.7176 82.5964 59.3667 82.5007 58.9383 82.5007ZM68.9352 87.1492C68.9352 87.6277 68.8145 88.031 68.5729 88.3591C68.336 88.6827 67.9942 88.9265 67.5475 89.0906C67.1055 89.2546 66.5768 89.3367 65.9616 89.3367C65.4375 89.3367 64.9841 89.2957 64.6012 89.2136C64.2184 89.1316 63.8835 89.0154 63.5964 88.865V87.8191C63.9017 87.9695 64.2663 88.1062 64.6901 88.2292C65.1139 88.3523 65.5469 88.4138 65.9889 88.4138C66.6361 88.4138 67.1055 88.309 67.3971 88.0994C67.6888 87.8897 67.8346 87.6049 67.8346 87.2449C67.8346 87.0398 67.7754 86.8598 67.6569 86.7048C67.543 86.5453 67.3493 86.3927 67.0759 86.2468C66.8024 86.0964 66.4242 85.9324 65.9411 85.7546C65.4626 85.5723 65.0479 85.3923 64.697 85.2146C64.3506 85.0323 64.0817 84.8113 63.8903 84.5515C63.7035 84.2917 63.61 83.9545 63.61 83.5398C63.61 82.9063 63.8652 82.421 64.3757 82.0837C64.8906 81.7419 65.5651 81.571 66.3991 81.571C66.8503 81.571 67.2718 81.6166 67.6637 81.7078C68.0602 81.7944 68.4294 81.9128 68.7712 82.0632L68.3884 82.9724C68.0785 82.8403 67.7481 82.7286 67.3971 82.6375C67.0462 82.5463 66.6885 82.5007 66.3239 82.5007C65.7998 82.5007 65.3965 82.5873 65.1139 82.7605C64.836 82.9337 64.697 83.1707 64.697 83.4714C64.697 83.7039 64.7608 83.8953 64.8884 84.0457C65.0205 84.196 65.2302 84.3373 65.5173 84.4695C65.8044 84.6016 66.1826 84.7566 66.652 84.9343C67.1214 85.1075 67.527 85.2875 67.8688 85.4744C68.2106 85.6567 68.4727 85.88 68.655 86.1443C68.8418 86.4041 68.9352 86.739 68.9352 87.1492ZM73.3404 88.407C73.5272 88.407 73.7186 88.391 73.9146 88.3591C74.1105 88.3272 74.27 88.2885 74.3931 88.2429V89.1248C74.2609 89.184 74.0764 89.2341 73.8394 89.2751C73.607 89.3162 73.3791 89.3367 73.1558 89.3367C72.7593 89.3367 72.3993 89.2683 72.0757 89.1316C71.7521 88.9903 71.4924 88.7533 71.2964 88.4207C71.105 88.088 71.0093 87.6277 71.0093 87.0398V82.5964H69.9429V82.0427L71.0161 81.5984L71.4673 79.9714H72.1509V81.7078H74.3452V82.5964H72.1509V87.0056C72.1509 87.475 72.258 87.8259 72.4722 88.0583C72.6909 88.2908 72.9803 88.407 73.3404 88.407ZM84.3107 80.0876C83.7593 80.0876 83.2626 80.1833 82.8205 80.3748C82.383 80.5616 82.0093 80.835 81.6994 81.1951C81.3941 81.5505 81.1594 81.9812 80.9953 82.4871C80.8312 82.9929 80.7492 83.5626 80.7492 84.196C80.7492 85.0346 80.8791 85.7638 81.1389 86.3835C81.4032 86.9988 81.7951 87.475 82.3146 87.8123C82.8387 88.1495 83.4927 88.3181 84.2766 88.3181C84.7232 88.3181 85.1424 88.2817 85.5344 88.2087C85.9309 88.1313 86.3159 88.0356 86.6896 87.9216V88.9333C86.3251 89.0701 85.9423 89.1703 85.5412 89.2341C85.1402 89.3025 84.6639 89.3367 84.1125 89.3367C83.0962 89.3367 82.2463 89.127 81.5627 88.7078C80.8837 88.2839 80.3732 87.6869 80.0314 86.9167C79.6942 86.1466 79.5256 85.2374 79.5256 84.1892C79.5256 83.4327 79.6304 82.7423 79.84 82.1179C80.0542 81.489 80.3641 80.9467 80.7697 80.491C81.1799 80.0352 81.6812 79.6843 82.2736 79.4382C82.8706 79.1876 83.5542 79.0623 84.3244 79.0623C84.8303 79.0623 85.3179 79.1124 85.7873 79.2126C86.2567 79.3129 86.6805 79.4565 87.0588 79.6433L86.5939 80.6277C86.2749 80.4819 85.924 80.3565 85.5412 80.2517C85.163 80.1423 84.7528 80.0876 84.3107 80.0876ZM95.3057 85.4402C95.3057 86.0554 95.2259 86.6046 95.0664 87.0876C94.9069 87.5707 94.6768 87.9786 94.376 88.3113C94.0752 88.644 93.7107 88.8992 93.2823 89.0769C92.8584 89.2501 92.3776 89.3367 91.8399 89.3367C91.3386 89.3367 90.8783 89.2501 90.459 89.0769C90.0443 88.8992 89.6843 88.644 89.3789 88.3113C89.0782 87.9786 88.8435 87.5707 88.6748 87.0876C88.5108 86.6046 88.4287 86.0554 88.4287 85.4402C88.4287 84.6199 88.5677 83.9226 88.8457 83.3484C89.1237 82.7696 89.5202 82.3298 90.0352 82.0291C90.5547 81.7237 91.1722 81.571 91.8877 81.571C92.5713 81.571 93.1683 81.7237 93.6787 82.0291C94.1937 82.3344 94.5925 82.7764 94.875 83.3552C95.1621 83.9294 95.3057 84.6244 95.3057 85.4402ZM89.6045 85.4402C89.6045 86.0417 89.6843 86.5636 89.8438 87.0056C90.0033 87.4477 90.2494 87.7895 90.5821 88.031C90.9148 88.2725 91.3431 88.3933 91.8672 88.3933C92.3868 88.3933 92.8129 88.2725 93.1455 88.031C93.4828 87.7895 93.7312 87.4477 93.8907 87.0056C94.0502 86.5636 94.1299 86.0417 94.1299 85.4402C94.1299 84.8432 94.0502 84.3282 93.8907 83.8953C93.7312 83.4578 93.4851 83.1205 93.1524 82.8835C92.8197 82.6466 92.389 82.5281 91.8604 82.5281C91.0811 82.5281 90.5092 82.7856 90.1446 83.3005C89.7845 83.8155 89.6045 84.5287 89.6045 85.4402ZM100.094 89.3367C99.1457 89.3367 98.3938 89.0131 97.8378 88.366C97.2863 87.7188 97.0106 86.7572 97.0106 85.4812C97.0106 84.1915 97.2932 83.2185 97.8583 82.5623C98.4234 81.9014 99.1753 81.571 100.114 81.571C100.511 81.571 100.857 81.6235 101.153 81.7283C101.449 81.8331 101.705 81.9744 101.919 82.1521C102.133 82.3253 102.313 82.5235 102.459 82.7468H102.541C102.523 82.6056 102.504 82.4119 102.486 82.1658C102.468 81.9197 102.459 81.7192 102.459 81.5642V78.5632H103.594V89.2H102.678L102.507 88.1335H102.459C102.318 88.3569 102.138 88.5597 101.919 88.7419C101.705 88.9242 101.447 89.0701 101.146 89.1794C100.85 89.2843 100.499 89.3367 100.094 89.3367ZM100.271 88.3933C101.073 88.3933 101.641 88.1654 101.974 87.7097C102.306 87.254 102.473 86.5772 102.473 85.6794V85.4744C102.473 84.5219 102.313 83.7904 101.994 83.28C101.68 82.7696 101.105 82.5144 100.271 82.5144C99.5741 82.5144 99.0523 82.7833 98.7059 83.321C98.3596 83.8542 98.1864 84.5834 98.1864 85.5085C98.1864 86.4291 98.3573 87.1401 98.6991 87.6414C99.0455 88.1427 99.5695 88.3933 100.271 88.3933ZM109.045 81.571C109.683 81.571 110.23 81.7123 110.685 81.9949C111.141 82.2774 111.49 82.6739 111.731 83.1843C111.973 83.6902 112.093 84.2826 112.093 84.9617V85.6658H106.919C106.932 86.5453 107.151 87.2153 107.575 87.6755C107.999 88.1358 108.596 88.366 109.366 88.366C109.84 88.366 110.259 88.3227 110.624 88.2361C110.988 88.1495 111.367 88.0219 111.759 87.8533V88.8513C111.38 89.0199 111.004 89.143 110.631 89.2205C110.261 89.2979 109.824 89.3367 109.318 89.3367C108.598 89.3367 107.969 89.1908 107.431 88.8992C106.898 88.6029 106.483 88.17 106.187 87.6003C105.891 87.0307 105.743 86.3334 105.743 85.5085C105.743 84.7019 105.877 84.0046 106.146 83.4167C106.42 82.8243 106.802 82.3686 107.295 82.0496C107.791 81.7306 108.375 81.571 109.045 81.571ZM109.031 82.5007C108.425 82.5007 107.942 82.699 107.582 83.0955C107.222 83.4919 107.008 84.0457 106.939 84.7566H110.904C110.899 84.31 110.829 83.9181 110.692 83.5808C110.56 83.239 110.357 82.9747 110.084 82.7878C109.81 82.5964 109.459 82.5007 109.031 82.5007Z" fill="white"/>
<path d="M36 64.7H141C143.485 64.7 145.5 66.7147 145.5 69.2V103.7H31.5V69.2C31.5 66.7147 33.5147 64.7 36 64.7Z" stroke="#00378F"/>
</g>
<rect x="0.5" y="39.5" width="201" height="203" rx="4.5" fill="white" stroke="#00378F"/>
<path d="M21.6396 59.1637H25.1328V64.0104C24.6087 64.1881 24.0687 64.3203 23.5127 64.4069C22.9613 64.4934 22.3438 64.5367 21.6602 64.5367C20.6211 64.5367 19.7438 64.3294 19.0283 63.9147C18.3174 63.5 17.7773 62.9098 17.4082 62.1442C17.0391 61.374 16.8545 60.4602 16.8545 59.403C16.8545 58.3684 17.0573 57.4661 17.4629 56.6959C17.873 55.9257 18.4632 55.3287 19.2334 54.9049C20.0081 54.4765 20.9378 54.2623 22.0225 54.2623C22.5785 54.2623 23.1048 54.3147 23.6016 54.4196C24.1029 54.5198 24.5677 54.6634 24.9961 54.8502L24.5518 55.8619C24.1826 55.7024 23.7747 55.5657 23.3281 55.4518C22.8861 55.3378 22.4281 55.2809 21.9541 55.2809C21.1383 55.2809 20.4388 55.4495 19.8555 55.7867C19.2767 56.124 18.8324 56.6002 18.5225 57.2155C18.2171 57.8307 18.0645 58.5599 18.0645 59.403C18.0645 60.2369 18.1989 60.9638 18.4678 61.5836C18.7367 62.1989 19.1559 62.6774 19.7256 63.0192C20.2952 63.361 21.029 63.5319 21.9268 63.5319C22.3779 63.5319 22.7653 63.5068 23.0889 63.4567C23.4124 63.402 23.7064 63.3382 23.9707 63.2653V60.2028H21.6396V59.1637ZM30.9461 56.7711C31.0965 56.7711 31.2537 56.7802 31.4178 56.7985C31.5819 56.8121 31.7277 56.8326 31.8553 56.86L31.7118 57.9127C31.5887 57.8808 31.452 57.8558 31.3016 57.8375C31.1512 57.8193 31.0099 57.8102 30.8778 57.8102C30.577 57.8102 30.2922 57.8717 30.0233 57.9948C29.759 58.1132 29.5265 58.2864 29.326 58.5143C29.1255 58.7376 28.9683 59.0087 28.8543 59.3278C28.7404 59.6422 28.6834 59.9931 28.6834 60.3805V64.4H27.5418V56.9078H28.4852L28.6082 58.2887H28.6561C28.811 58.0107 28.9979 57.7578 29.2166 57.5299C29.4354 57.2975 29.6883 57.1129 29.9754 56.9762C30.2671 56.8395 30.5907 56.7711 30.9461 56.7711ZM39.8903 60.6403C39.8903 61.2555 39.8106 61.8046 39.6511 62.2877C39.4915 62.7708 39.2614 63.1787 38.9606 63.5114C38.6598 63.844 38.2953 64.0992 37.8669 64.277C37.443 64.4502 36.9623 64.5367 36.4245 64.5367C35.9232 64.5367 35.4629 64.4502 35.0436 64.277C34.6289 64.0992 34.2689 63.844 33.9636 63.5114C33.6628 63.1787 33.4281 62.7708 33.2595 62.2877C33.0954 61.8046 33.0134 61.2555 33.0134 60.6403C33.0134 59.8199 33.1524 59.1227 33.4304 58.5485C33.7083 57.9697 34.1048 57.5299 34.6198 57.2291C35.1393 56.9238 35.7568 56.7711 36.4723 56.7711C37.1559 56.7711 37.7529 56.9238 38.2634 57.2291C38.7783 57.5345 39.1771 57.9765 39.4596 58.5553C39.7468 59.1295 39.8903 59.8245 39.8903 60.6403ZM34.1891 60.6403C34.1891 61.2418 34.2689 61.7636 34.4284 62.2057C34.5879 62.6477 34.834 62.9895 35.1667 63.2311C35.4994 63.4726 35.9277 63.5934 36.4518 63.5934C36.9714 63.5934 37.3975 63.4726 37.7302 63.2311C38.0674 62.9895 38.3158 62.6477 38.4753 62.2057C38.6348 61.7636 38.7145 61.2418 38.7145 60.6403C38.7145 60.0433 38.6348 59.5283 38.4753 59.0953C38.3158 58.6578 38.0697 58.3206 37.737 58.0836C37.4043 57.8466 36.9736 57.7281 36.445 57.7281C35.6657 57.7281 35.0938 57.9856 34.7292 58.5006C34.3692 59.0156 34.1891 59.7288 34.1891 60.6403ZM48.1987 56.9078V64.4H47.2691L47.105 63.3473H47.0435C46.8885 63.6071 46.688 63.8258 46.4419 64.0035C46.1958 64.1813 45.9178 64.3134 45.6079 64.4C45.3026 64.4912 44.9767 64.5367 44.6304 64.5367C44.0379 64.5367 43.5412 64.441 43.1402 64.2496C42.7391 64.0582 42.4361 63.762 42.231 63.361C42.0305 62.9599 41.9302 62.4449 41.9302 61.816V56.9078H43.0786V61.734C43.0786 62.3584 43.2199 62.8255 43.5025 63.1354C43.785 63.4407 44.2157 63.5934 44.7945 63.5934C45.3504 63.5934 45.7925 63.4886 46.1206 63.2789C46.4533 63.0693 46.6926 62.7617 46.8384 62.3561C46.9842 61.9459 47.0571 61.4446 47.0571 60.8522V56.9078H48.1987ZM54.2787 56.7711C55.2129 56.7711 55.958 57.0924 56.514 57.735C57.07 58.3776 57.348 59.3437 57.348 60.6334C57.348 61.4856 57.2204 62.2011 56.9652 62.7799C56.71 63.3587 56.35 63.7962 55.8851 64.0924C55.4248 64.3886 54.8802 64.5367 54.2513 64.5367C53.8548 64.5367 53.5062 64.4843 53.2054 64.3795C52.9046 64.2747 52.6472 64.1334 52.433 63.9557C52.2188 63.778 52.041 63.5843 51.8998 63.3746H51.8177C51.8314 63.5524 51.8474 63.7666 51.8656 64.0172C51.8884 64.2679 51.8998 64.4866 51.8998 64.6735V67.7496H50.7582V56.9078H51.6947L51.8451 58.0153H51.8998C52.0456 57.7874 52.2233 57.58 52.433 57.3932C52.6426 57.2018 52.8978 57.0514 53.1986 56.942C53.5039 56.8281 53.864 56.7711 54.2787 56.7711ZM54.0804 57.7281C53.5609 57.7281 53.1416 57.8284 52.8226 58.0289C52.5082 58.2295 52.278 58.5302 52.1322 58.9313C51.9864 59.3278 51.9089 59.8268 51.8998 60.4283V60.6471C51.8998 61.2806 51.9681 61.816 52.1048 62.2535C52.2461 62.691 52.4763 63.0237 52.7953 63.2516C53.1188 63.4795 53.5518 63.5934 54.0941 63.5934C54.5589 63.5934 54.9463 63.4681 55.2562 63.2174C55.5661 62.9668 55.7962 62.6181 55.9466 62.1715C56.1016 61.7203 56.1791 61.2031 56.1791 60.6198C56.1791 59.7356 56.0059 59.0338 55.6595 58.5143C55.3177 57.9902 54.7914 57.7281 54.0804 57.7281ZM65.7071 63.6071C65.8939 63.6071 66.0853 63.5911 66.2813 63.5592C66.4773 63.5273 66.6368 63.4886 66.7598 63.443V64.3248C66.6276 64.3841 66.4431 64.4342 66.2061 64.4752C65.9737 64.5162 65.7458 64.5367 65.5225 64.5367C65.126 64.5367 64.766 64.4684 64.4424 64.3317C64.1189 64.1904 63.8591 63.9534 63.6631 63.6207C63.4717 63.288 63.376 62.8278 63.376 62.2399V57.7965H62.3096V57.2428L63.3829 56.7985L63.834 55.1715H64.5176V56.9078H66.712V57.7965H64.5176V62.2057C64.5176 62.6751 64.6247 63.026 64.8389 63.2584C65.0577 63.4908 65.347 63.6071 65.7071 63.6071ZM69.5721 56.9078V64.4H68.4374V56.9078H69.5721ZM69.0184 54.1051C69.2053 54.1051 69.3648 54.1666 69.497 54.2897C69.6337 54.4082 69.702 54.595 69.702 54.8502C69.702 55.1009 69.6337 55.2877 69.497 55.4108C69.3648 55.5338 69.2053 55.5953 69.0184 55.5953C68.8225 55.5953 68.6584 55.5338 68.5262 55.4108C68.3986 55.2877 68.3348 55.1009 68.3348 54.8502C68.3348 54.595 68.3986 54.4082 68.5262 54.2897C68.6584 54.1666 68.8225 54.1051 69.0184 54.1051ZM74.5583 63.6071C74.7452 63.6071 74.9366 63.5911 75.1325 63.5592C75.3285 63.5273 75.488 63.4886 75.6111 63.443V64.3248C75.4789 64.3841 75.2943 64.4342 75.0573 64.4752C74.8249 64.5162 74.5971 64.5367 74.3737 64.5367C73.9773 64.5367 73.6172 64.4684 73.2937 64.3317C72.9701 64.1904 72.7103 63.9534 72.5144 63.6207C72.323 63.288 72.2273 62.8278 72.2273 62.2399V57.7965H71.1609V57.2428L72.2341 56.7985L72.6853 55.1715H73.3689V56.9078H75.5632V57.7965H73.3689V62.2057C73.3689 62.6751 73.476 63.026 73.6902 63.2584C73.9089 63.4908 74.1983 63.6071 74.5583 63.6071ZM78.4302 64.4H77.2886V53.7633H78.4302V64.4ZM83.8744 56.7711C84.5124 56.7711 85.0593 56.9124 85.515 57.1949C85.9708 57.4775 86.3194 57.874 86.5609 58.3844C86.8025 58.8903 86.9232 59.4827 86.9232 60.1617V60.8658H81.7484C81.7621 61.7454 81.9809 62.4153 82.4047 62.8756C82.8285 63.3359 83.4255 63.566 84.1957 63.566C84.6697 63.566 85.0889 63.5227 85.4535 63.4362C85.8181 63.3496 86.1964 63.222 86.5883 63.0533V64.0514C86.21 64.22 85.834 64.3431 85.4604 64.4205C85.0912 64.498 84.6537 64.5367 84.1479 64.5367C83.4278 64.5367 82.7989 64.3909 82.2611 64.0992C81.7279 63.803 81.3132 63.3701 81.017 62.8004C80.7208 62.2308 80.5727 61.5335 80.5727 60.7086C80.5727 59.902 80.7071 59.2047 80.976 58.6168C81.2494 58.0244 81.6322 57.5686 82.1244 57.2496C82.6212 56.9306 83.2045 56.7711 83.8744 56.7711ZM83.8607 57.7008C83.2546 57.7008 82.7715 57.899 82.4115 58.2955C82.0515 58.692 81.8373 59.2457 81.7689 59.9567H85.7338C85.7292 59.5101 85.6586 59.1181 85.5219 58.7809C85.3897 58.4391 85.1869 58.1748 84.9135 57.9879C84.64 57.7965 84.2891 57.7008 83.8607 57.7008Z" fill="black"/>
<path d="M5 39.9H197C199.485 39.9 201.5 41.9147 201.5 44.4V78.9H0.5V44.4C0.5 41.9147 2.51472 39.9 5 39.9Z" fill="#00378F"/>
<path d="M22.9316 64.4H17.3672V54.4059H22.9316V55.4313H18.5293V58.6647H22.6787V59.6764H18.5293V63.3746H22.9316V64.4ZM28.1366 64.5367C27.4621 64.5367 26.8674 64.3977 26.3524 64.1198C25.8374 63.8418 25.4364 63.4179 25.1493 62.8483C24.8621 62.2786 24.7186 61.5608 24.7186 60.6949C24.7186 59.788 24.869 59.0475 25.1698 58.4733C25.4751 57.8945 25.8944 57.4661 26.4276 57.1881C26.9608 56.9101 27.5669 56.7711 28.2459 56.7711C28.6196 56.7711 28.9797 56.8099 29.326 56.8873C29.6769 56.9602 29.964 57.0537 30.1873 57.1676L29.8455 58.1178C29.6177 58.0267 29.3534 57.9446 29.0526 57.8717C28.7564 57.7988 28.4784 57.7623 28.2186 57.7623C27.6991 57.7623 27.2661 57.874 26.9198 58.0973C26.578 58.3206 26.3205 58.6487 26.1473 59.0817C25.9787 59.5146 25.8944 60.0478 25.8944 60.6813C25.8944 61.2874 25.9764 61.8046 26.1405 62.233C26.3091 62.6614 26.5575 62.9895 26.8856 63.2174C27.2183 63.4407 27.633 63.5524 28.1297 63.5524C28.5262 63.5524 28.884 63.5114 29.203 63.4293C29.522 63.3427 29.8114 63.2425 30.0711 63.1285V64.1403C29.8205 64.2679 29.5402 64.3658 29.2303 64.4342C28.925 64.5026 28.5604 64.5367 28.1366 64.5367ZM33.1501 64.4H32.0085V53.7633H33.1501V64.4ZM36.8443 56.9078V64.4H35.7095V56.9078H36.8443ZM36.2905 54.1051C36.4774 54.1051 36.6369 54.1666 36.7691 54.2897C36.9058 54.4082 36.9741 54.595 36.9741 54.8502C36.9741 55.1009 36.9058 55.2877 36.7691 55.4108C36.6369 55.5338 36.4774 55.5953 36.2905 55.5953C36.0946 55.5953 35.9305 55.5338 35.7984 55.4108C35.6708 55.2877 35.607 55.1009 35.607 54.8502C35.607 54.595 35.6708 54.4082 35.7984 54.2897C35.9305 54.1666 36.0946 54.1051 36.2905 54.1051ZM42.931 56.7711C43.8653 56.7711 44.6104 57.0924 45.1664 57.735C45.7224 58.3776 46.0004 59.3437 46.0004 60.6334C46.0004 61.4856 45.8727 62.2011 45.6175 62.7799C45.3623 63.3587 45.0023 63.7962 44.5375 64.0924C44.0772 64.3886 43.5326 64.5367 42.9037 64.5367C42.5072 64.5367 42.1586 64.4843 41.8578 64.3795C41.557 64.2747 41.2995 64.1334 41.0853 63.9557C40.8711 63.778 40.6934 63.5843 40.5521 63.3746H40.4701C40.4837 63.5524 40.4997 63.7666 40.5179 64.0172C40.5407 64.2679 40.5521 64.4866 40.5521 64.6735V67.7496H39.4105V56.9078H40.347L40.4974 58.0153H40.5521C40.6979 57.7874 40.8757 57.58 41.0853 57.3932C41.2949 57.2018 41.5502 57.0514 41.8509 56.942C42.1563 56.8281 42.5163 56.7711 42.931 56.7711ZM42.7328 57.7281C42.2132 57.7281 41.794 57.8284 41.475 58.0289C41.1605 58.2295 40.9304 58.5302 40.7845 58.9313C40.6387 59.3278 40.5612 59.8268 40.5521 60.4283V60.6471C40.5521 61.2806 40.6205 61.816 40.7572 62.2535C40.8985 62.691 41.1286 63.0237 41.4476 63.2516C41.7712 63.4795 42.2041 63.5934 42.7464 63.5934C43.2113 63.5934 43.5987 63.4681 43.9086 63.2174C44.2184 62.9668 44.4486 62.6181 44.599 62.1715C44.7539 61.7203 44.8314 61.2031 44.8314 60.6198C44.8314 59.7356 44.6582 59.0338 44.3119 58.5143C43.9701 57.9902 43.4437 57.7281 42.7328 57.7281ZM52.9895 62.3492C52.9895 62.8278 52.8687 63.2311 52.6271 63.5592C52.3902 63.8828 52.0484 64.1266 51.6018 64.2906C51.1597 64.4547 50.6311 64.5367 50.0158 64.5367C49.4917 64.5367 49.0383 64.4957 48.6555 64.4137C48.2727 64.3317 47.9377 64.2155 47.6506 64.0651V63.0192C47.9559 63.1696 48.3205 63.3063 48.7443 63.4293C49.1682 63.5524 49.6011 63.6139 50.0432 63.6139C50.6903 63.6139 51.1597 63.5091 51.4514 63.2994C51.743 63.0898 51.8889 62.805 51.8889 62.4449C51.8889 62.2399 51.8296 62.0599 51.7111 61.9049C51.5972 61.7454 51.4035 61.5927 51.1301 61.4469C50.8566 61.2965 50.4784 61.1324 49.9953 60.9547C49.5168 60.7724 49.1021 60.5924 48.7512 60.4147C48.4048 60.2324 48.1359 60.0114 47.9445 59.7516C47.7577 59.4918 47.6643 59.1546 47.6643 58.7399C47.6643 58.1064 47.9195 57.6211 48.4299 57.2838C48.9449 56.942 49.6193 56.7711 50.4533 56.7711C50.9045 56.7711 51.326 56.8167 51.718 56.9078C52.1145 56.9944 52.4836 57.1129 52.8254 57.2633L52.4426 58.1725C52.1327 58.0403 51.8023 57.9287 51.4514 57.8375C51.1005 57.7464 50.7427 57.7008 50.3781 57.7008C49.854 57.7008 49.4507 57.7874 49.1682 57.9606C48.8902 58.1337 48.7512 58.3707 48.7512 58.6715C48.7512 58.9039 48.815 59.0953 48.9426 59.2457C49.0747 59.3961 49.2844 59.5374 49.5715 59.6696C49.8586 59.8017 50.2368 59.9567 50.7062 60.1344C51.1757 60.3076 51.5812 60.4876 51.923 60.6744C52.2648 60.8567 52.5269 61.08 52.7092 61.3444C52.896 61.6041 52.9895 61.9391 52.9895 62.3492ZM57.8594 56.7711C58.4974 56.7711 59.0443 56.9124 59.5 57.1949C59.9558 57.4775 60.3044 57.874 60.5459 58.3844C60.7875 58.8903 60.9082 59.4827 60.9082 60.1617V60.8658H55.7334C55.7471 61.7454 55.9659 62.4153 56.3897 62.8756C56.8135 63.3359 57.4105 63.566 58.1807 63.566C58.6547 63.566 59.0739 63.5227 59.4385 63.4362C59.8031 63.3496 60.1814 63.222 60.5733 63.0533V64.0514C60.195 64.22 59.819 64.3431 59.4454 64.4205C59.0762 64.498 58.6387 64.5367 58.1329 64.5367C57.4128 64.5367 56.7839 64.3909 56.2461 64.0992C55.7129 63.803 55.2982 63.3701 55.002 62.8004C54.7058 62.2308 54.5577 61.5335 54.5577 60.7086C54.5577 59.902 54.6921 59.2047 54.961 58.6168C55.2344 58.0244 55.6172 57.5686 56.1094 57.2496C56.6062 56.9306 57.1895 56.7711 57.8594 56.7711ZM57.8457 57.7008C57.2396 57.7008 56.7565 57.899 56.3965 58.2955C56.0365 58.692 55.8223 59.2457 55.7539 59.9567H59.7188C59.7142 59.5101 59.6436 59.1181 59.5069 58.7809C59.3747 58.4391 59.1719 58.1748 58.8985 57.9879C58.625 57.7965 58.2741 57.7008 57.8457 57.7008Z" fill="white"/>
<path d="M5 39.9H197C199.485 39.9 201.5 41.9147 201.5 44.4V78.9H0.5V44.4C0.5 41.9147 2.51472 39.9 5 39.9Z" stroke="#00378F"/>
<path d="M18 168.5H76.5V231.5H18C15.5147 231.5 13.5 229.485 13.5 227V173C13.5 170.515 15.5147 168.5 18 168.5Z" fill="#82A4D9" stroke="#82A4D9"/>
<path d="M77.5 168.5H145C147.485 168.5 149.5 170.515 149.5 173V227C149.5 229.485 147.485 231.5 145 231.5H77.5V168.5Z" fill="white"/>
<path d="M109.602 200.705C109.602 201.365 109.518 201.967 109.35 202.51C109.182 203.049 108.932 203.514 108.6 203.904C108.271 204.291 107.863 204.59 107.375 204.801C106.887 205.012 106.32 205.117 105.676 205.117C105.012 205.117 104.432 205.012 103.936 204.801C103.443 204.59 103.033 204.289 102.705 203.898C102.381 203.508 102.137 203.041 101.973 202.498C101.812 201.955 101.732 201.354 101.732 200.693C101.732 199.818 101.877 199.051 102.166 198.391C102.455 197.73 102.893 197.217 103.479 196.85C104.068 196.482 104.807 196.299 105.693 196.299C106.541 196.299 107.254 196.48 107.832 196.844C108.414 197.207 108.854 197.719 109.15 198.379C109.451 199.035 109.602 199.811 109.602 200.705ZM102.781 200.705C102.781 201.432 102.885 202.061 103.092 202.592C103.299 203.123 103.615 203.533 104.041 203.822C104.471 204.111 105.016 204.256 105.676 204.256C106.34 204.256 106.883 204.111 107.305 203.822C107.73 203.533 108.045 203.123 108.248 202.592C108.451 202.061 108.553 201.432 108.553 200.705C108.553 199.6 108.32 198.736 107.855 198.115C107.395 197.49 106.674 197.178 105.693 197.178C105.029 197.178 104.482 197.32 104.053 197.605C103.623 197.891 103.303 198.297 103.092 198.824C102.885 199.348 102.781 199.975 102.781 200.705ZM111.672 196.434H114.097C115.168 196.434 115.972 196.594 116.512 196.914C117.051 197.234 117.32 197.779 117.32 198.549C117.32 198.881 117.256 199.18 117.127 199.445C117.002 199.707 116.818 199.924 116.576 200.096C116.334 200.268 116.035 200.387 115.68 200.453V200.512C116.055 200.57 116.387 200.678 116.676 200.834C116.965 200.99 117.191 201.209 117.355 201.49C117.519 201.771 117.601 202.129 117.601 202.562C117.601 203.09 117.478 203.535 117.232 203.898C116.99 204.262 116.646 204.537 116.201 204.725C115.756 204.908 115.228 205 114.619 205H111.672V196.434ZM112.668 200.107H114.308C115.055 200.107 115.57 199.984 115.855 199.738C116.144 199.492 116.289 199.133 116.289 198.66C116.289 198.172 116.117 197.82 115.773 197.605C115.433 197.391 114.89 197.283 114.144 197.283H112.668V200.107ZM112.668 200.945V204.15H114.449C115.211 204.15 115.75 204.002 116.066 203.705C116.383 203.404 116.541 203 116.541 202.492C116.541 202.168 116.469 201.891 116.324 201.66C116.183 201.43 115.953 201.254 115.633 201.133C115.316 201.008 114.892 200.945 114.361 200.945H112.668ZM121.904 196.434C122.607 196.434 123.187 196.521 123.644 196.697C124.105 196.869 124.449 197.133 124.675 197.488C124.902 197.844 125.015 198.297 125.015 198.848C125.015 199.301 124.933 199.68 124.769 199.984C124.605 200.285 124.39 200.529 124.125 200.717C123.859 200.904 123.576 201.049 123.275 201.15L125.625 205H124.465L122.367 201.426H120.586V205H119.59V196.434H121.904ZM121.845 197.295H120.586V200.582H121.945C122.644 200.582 123.158 200.439 123.486 200.154C123.818 199.869 123.984 199.449 123.984 198.895C123.984 198.312 123.808 197.9 123.457 197.658C123.109 197.416 122.572 197.295 121.845 197.295Z" fill="black"/>
<path d="M77.5 168.5H145C147.485 168.5 149.5 170.515 149.5 173V227C149.5 229.485 147.485 231.5 145 231.5H77.5V168.5Z" stroke="#82A4D9"/>
<path d="M53.968 135.828H36.478C36.214 135.828 36 135.615 36 135.351V111.478C36 111.214 36.214 111.001 36.478 111.001H47.584C47.711 111.001 47.832 111.051 47.922 111.141L54.306 117.525C54.395 117.615 54.446 117.736 54.446 117.863V135.35C54.446 135.614 54.232 135.827 53.968 135.827V135.828ZM36.955 134.873H53.491V118.06L47.387 111.956H36.955V134.873Z" fill="black"/>
<path d="M53.968 118.34H47.583C47.32 118.34 47.106 118.127 47.106 117.863V111.478C47.106 111.285 47.222 111.111 47.401 111.037C47.579 110.962 47.784 111.004 47.922 111.141L54.307 117.525C54.443 117.662 54.484 117.867 54.41 118.046C54.336 118.225 54.162 118.341 53.969 118.341L53.968 118.34ZM48.061 117.385H52.815L48.061 112.631V117.385Z" fill="black"/>
<rect x="301.5" y="111.5" width="85" height="39" rx="4.5" fill="#00378F"/>
<path d="M331.602 121.705C331.602 122.365 331.518 122.967 331.35 123.51C331.182 124.049 330.932 124.514 330.6 124.904C330.271 125.291 329.863 125.59 329.375 125.801C328.887 126.012 328.32 126.117 327.676 126.117C327.012 126.117 326.432 126.012 325.936 125.801C325.443 125.59 325.033 125.289 324.705 124.898C324.381 124.508 324.137 124.041 323.973 123.498C323.812 122.955 323.732 122.354 323.732 121.693C323.732 120.818 323.877 120.051 324.166 119.391C324.455 118.73 324.893 118.217 325.479 117.85C326.068 117.482 326.807 117.299 327.693 117.299C328.541 117.299 329.254 117.48 329.832 117.844C330.414 118.207 330.854 118.719 331.15 119.379C331.451 120.035 331.602 120.811 331.602 121.705ZM324.781 121.705C324.781 122.432 324.885 123.061 325.092 123.592C325.299 124.123 325.615 124.533 326.041 124.822C326.471 125.111 327.016 125.256 327.676 125.256C328.34 125.256 328.883 125.111 329.305 124.822C329.73 124.533 330.045 124.123 330.248 123.592C330.451 123.061 330.553 122.432 330.553 121.705C330.553 120.6 330.32 119.736 329.855 119.115C329.395 118.49 328.674 118.178 327.693 118.178C327.029 118.178 326.482 118.32 326.053 118.605C325.623 118.891 325.303 119.297 325.092 119.824C324.885 120.348 324.781 120.975 324.781 121.705ZM338.506 123.721C338.506 124.229 338.379 124.662 338.125 125.021C337.875 125.377 337.523 125.648 337.07 125.836C336.617 126.023 336.084 126.117 335.471 126.117C335.146 126.117 334.84 126.102 334.551 126.07C334.262 126.039 333.996 125.994 333.754 125.936C333.512 125.877 333.299 125.805 333.115 125.719V124.764C333.408 124.885 333.765 124.998 334.187 125.104C334.609 125.205 335.051 125.256 335.512 125.256C335.941 125.256 336.305 125.199 336.601 125.086C336.898 124.969 337.123 124.803 337.275 124.588C337.431 124.369 337.51 124.107 337.51 123.803C337.51 123.51 337.445 123.266 337.316 123.07C337.187 122.871 336.972 122.691 336.672 122.531C336.375 122.367 335.969 122.193 335.453 122.01C335.09 121.881 334.769 121.74 334.492 121.588C334.215 121.432 333.982 121.256 333.795 121.061C333.607 120.865 333.465 120.639 333.367 120.381C333.273 120.123 333.226 119.828 333.226 119.496C333.226 119.039 333.342 118.648 333.572 118.324C333.806 117.996 334.129 117.746 334.539 117.574C334.953 117.398 335.428 117.311 335.963 117.311C336.42 117.311 336.842 117.354 337.228 117.439C337.619 117.525 337.976 117.641 338.301 117.785L337.99 118.641C337.681 118.512 337.353 118.404 337.006 118.318C336.662 118.232 336.306 118.189 335.939 118.189C335.572 118.189 335.262 118.244 335.008 118.354C334.758 118.459 334.566 118.609 334.433 118.805C334.301 119 334.234 119.232 334.234 119.502C334.234 119.803 334.297 120.053 334.422 120.252C334.551 120.451 334.754 120.629 335.031 120.785C335.312 120.938 335.683 121.098 336.144 121.266C336.648 121.449 337.076 121.645 337.428 121.852C337.779 122.055 338.047 122.305 338.23 122.602C338.414 122.895 338.506 123.268 338.506 123.721ZM344.08 121.512H347.074V125.666C346.625 125.818 346.162 125.932 345.685 126.006C345.213 126.08 344.683 126.117 344.097 126.117C343.207 126.117 342.455 125.939 341.841 125.584C341.232 125.229 340.769 124.723 340.453 124.066C340.136 123.406 339.978 122.623 339.978 121.717C339.978 120.83 340.152 120.057 340.5 119.396C340.851 118.736 341.357 118.225 342.017 117.861C342.681 117.494 343.478 117.311 344.408 117.311C344.884 117.311 345.336 117.355 345.761 117.445C346.191 117.531 346.59 117.654 346.957 117.814L346.576 118.682C346.259 118.545 345.91 118.428 345.527 118.33C345.148 118.232 344.756 118.184 344.349 118.184C343.65 118.184 343.05 118.328 342.55 118.617C342.054 118.906 341.674 119.314 341.408 119.842C341.146 120.369 341.015 120.994 341.015 121.717C341.015 122.432 341.131 123.055 341.361 123.586C341.591 124.113 341.951 124.523 342.439 124.816C342.927 125.109 343.556 125.256 344.326 125.256C344.713 125.256 345.045 125.234 345.322 125.191C345.599 125.145 345.851 125.09 346.078 125.027V122.402H344.08V121.512ZM350.134 119.578V126H349.162V119.578H350.134ZM349.66 117.176C349.82 117.176 349.957 117.229 350.07 117.334C350.187 117.436 350.246 117.596 350.246 117.814C350.246 118.029 350.187 118.189 350.07 118.295C349.957 118.4 349.82 118.453 349.66 118.453C349.492 118.453 349.351 118.4 349.238 118.295C349.128 118.189 349.074 118.029 349.074 117.814C349.074 117.596 349.128 117.436 349.238 117.334C349.351 117.229 349.492 117.176 349.66 117.176ZM324.172 137.434H326.598C327.668 137.434 328.473 137.594 329.012 137.914C329.551 138.234 329.82 138.779 329.82 139.549C329.82 139.881 329.756 140.18 329.627 140.445C329.502 140.707 329.318 140.924 329.076 141.096C328.834 141.268 328.535 141.387 328.18 141.453V141.512C328.555 141.57 328.887 141.678 329.176 141.834C329.465 141.99 329.691 142.209 329.855 142.49C330.02 142.771 330.102 143.129 330.102 143.562C330.102 144.09 329.979 144.535 329.732 144.898C329.49 145.262 329.146 145.537 328.701 145.725C328.256 145.908 327.729 146 327.119 146H324.172V137.434ZM325.168 141.107H326.809C327.555 141.107 328.07 140.984 328.355 140.738C328.645 140.492 328.789 140.133 328.789 139.66C328.789 139.172 328.617 138.82 328.273 138.605C327.934 138.391 327.391 138.283 326.645 138.283H325.168V141.107ZM325.168 141.945V145.15H326.949C327.711 145.15 328.25 145.002 328.566 144.705C328.883 144.404 329.041 144 329.041 143.492C329.041 143.168 328.969 142.891 328.824 142.66C328.684 142.43 328.453 142.254 328.133 142.133C327.816 142.008 327.393 141.945 326.861 141.945H325.168ZM337.246 139.578V146H336.449L336.308 145.098H336.256C336.123 145.32 335.951 145.508 335.74 145.66C335.529 145.812 335.291 145.926 335.025 146C334.764 146.078 334.484 146.117 334.187 146.117C333.68 146.117 333.254 146.035 332.91 145.871C332.566 145.707 332.306 145.453 332.131 145.109C331.959 144.766 331.873 144.324 331.873 143.785V139.578H332.857V143.715C332.857 144.25 332.978 144.65 333.221 144.916C333.463 145.178 333.832 145.309 334.328 145.309C334.805 145.309 335.183 145.219 335.465 145.039C335.75 144.859 335.955 144.596 336.08 144.248C336.205 143.896 336.267 143.467 336.267 142.959V139.578H337.246ZM342.504 139.461C343.265 139.461 343.841 139.648 344.232 140.023C344.623 140.395 344.818 140.992 344.818 141.816V146H343.857V141.881C343.857 141.346 343.734 140.945 343.488 140.68C343.246 140.414 342.873 140.281 342.369 140.281C341.658 140.281 341.158 140.482 340.869 140.885C340.58 141.287 340.435 141.871 340.435 142.637V146H339.463V139.578H340.248L340.394 140.504H340.447C340.584 140.277 340.757 140.088 340.968 139.936C341.179 139.779 341.416 139.662 341.677 139.584C341.939 139.502 342.215 139.461 342.504 139.461ZM349.267 146.117C348.455 146.117 347.81 145.84 347.334 145.285C346.861 144.73 346.625 143.906 346.625 142.812C346.625 141.707 346.867 140.873 347.351 140.311C347.835 139.744 348.48 139.461 349.285 139.461C349.625 139.461 349.921 139.506 350.175 139.596C350.429 139.686 350.648 139.807 350.832 139.959C351.015 140.107 351.169 140.277 351.294 140.469H351.365C351.349 140.348 351.334 140.182 351.318 139.971C351.302 139.76 351.294 139.588 351.294 139.455V136.883H352.267V146H351.482L351.335 145.086H351.294C351.173 145.277 351.019 145.451 350.832 145.607C350.648 145.764 350.427 145.889 350.169 145.982C349.916 146.072 349.615 146.117 349.267 146.117ZM349.419 145.309C350.107 145.309 350.593 145.113 350.878 144.723C351.164 144.332 351.306 143.752 351.306 142.982V142.807C351.306 141.99 351.169 141.363 350.896 140.926C350.626 140.488 350.134 140.27 349.419 140.27C348.822 140.27 348.375 140.5 348.078 140.961C347.781 141.418 347.632 142.043 347.632 142.836C347.632 143.625 347.779 144.234 348.072 144.664C348.369 145.094 348.818 145.309 349.419 145.309ZM355.468 146H354.49V136.883H355.468V146ZM360.74 138.371C361.378 138.371 361.925 138.512 362.381 138.795C362.837 139.077 363.185 139.474 363.427 139.984C363.668 140.49 363.789 141.083 363.789 141.762V142.466H358.614C358.628 143.345 358.847 144.015 359.271 144.476C359.695 144.936 360.292 145.166 361.062 145.166C361.536 145.166 361.955 145.123 362.32 145.036C362.684 144.95 363.062 144.822 363.454 144.653V145.651C363.076 145.82 362.7 145.943 362.326 146.021C361.957 146.098 361.52 146.137 361.014 146.137C360.294 146.137 359.665 145.991 359.127 145.699C358.594 145.403 358.179 144.97 357.883 144.4C357.587 143.831 357.439 143.133 357.439 142.309C357.439 141.502 357.573 140.805 357.842 140.217C358.115 139.624 358.498 139.169 358.99 138.85C359.487 138.531 360.071 138.371 360.74 138.371ZM360.727 139.301C360.121 139.301 359.638 139.499 359.278 139.896C358.918 140.292 358.703 140.846 358.635 141.557H362.6C362.595 141.11 362.525 140.718 362.388 140.381C362.256 140.039 362.053 139.775 361.779 139.588C361.506 139.396 361.155 139.301 360.727 139.301Z" fill="white"/>
<rect x="301.5" y="111.5" width="85" height="39" rx="4.5" stroke="#00378F"/>
<rect x="344.5" y="176.5" width="72" height="24" rx="4.5" fill="#00378F"/>
<path d="M376.035 185.989C376.035 186.759 375.937 187.461 375.741 188.095C375.545 188.724 375.254 189.266 374.866 189.722C374.483 190.173 374.007 190.521 373.438 190.768C372.868 191.014 372.207 191.137 371.455 191.137C370.68 191.137 370.004 191.014 369.425 190.768C368.851 190.521 368.372 190.171 367.989 189.715C367.611 189.259 367.326 188.715 367.135 188.081C366.948 187.448 366.854 186.746 366.854 185.976C366.854 184.955 367.023 184.059 367.36 183.289C367.698 182.519 368.208 181.92 368.892 181.491C369.58 181.063 370.441 180.849 371.476 180.849C372.465 180.849 373.296 181.061 373.971 181.484C374.65 181.908 375.162 182.505 375.509 183.275C375.86 184.041 376.035 184.946 376.035 185.989ZM368.078 185.989C368.078 186.837 368.199 187.571 368.44 188.19C368.682 188.81 369.051 189.289 369.548 189.626C370.049 189.963 370.685 190.132 371.455 190.132C372.23 190.132 372.863 189.963 373.355 189.626C373.852 189.289 374.219 188.81 374.456 188.19C374.693 187.571 374.812 186.837 374.812 185.989C374.812 184.7 374.54 183.692 373.998 182.968C373.46 182.239 372.619 181.874 371.476 181.874C370.701 181.874 370.063 182.04 369.562 182.373C369.06 182.706 368.687 183.18 368.44 183.795C368.199 184.406 368.078 185.137 368.078 185.989ZM378.424 181.006H381.254C382.502 181.006 383.441 181.193 384.07 181.566C384.699 181.94 385.014 182.576 385.014 183.474C385.014 183.861 384.938 184.21 384.788 184.52C384.642 184.825 384.428 185.078 384.145 185.278C383.863 185.479 383.514 185.618 383.099 185.695V185.764C383.537 185.832 383.924 185.957 384.262 186.14C384.599 186.322 384.863 186.577 385.055 186.905C385.246 187.233 385.342 187.65 385.342 188.156C385.342 188.771 385.198 189.291 384.911 189.715C384.628 190.139 384.227 190.46 383.708 190.679C383.188 190.893 382.573 191 381.862 191H378.424V181.006ZM379.586 185.292H381.5C382.37 185.292 382.972 185.148 383.305 184.861C383.642 184.574 383.81 184.155 383.81 183.604C383.81 183.034 383.61 182.624 383.209 182.373C382.812 182.122 382.179 181.997 381.308 181.997H379.586V185.292ZM379.586 186.27V190.009H381.664C382.553 190.009 383.181 189.836 383.551 189.489C383.92 189.138 384.104 188.667 384.104 188.074C384.104 187.696 384.02 187.372 383.851 187.104C383.687 186.835 383.418 186.63 383.045 186.488C382.676 186.342 382.181 186.27 381.561 186.27H379.586ZM390.335 181.006C391.155 181.006 391.832 181.108 392.365 181.313C392.903 181.514 393.304 181.822 393.568 182.236C393.832 182.651 393.965 183.18 393.965 183.822C393.965 184.351 393.869 184.793 393.677 185.148C393.486 185.499 393.235 185.784 392.925 186.003C392.616 186.222 392.285 186.39 391.934 186.509L394.675 191H393.322L390.875 186.83H388.797V191H387.634V181.006H390.335ZM390.266 182.011H388.797V185.846H390.382C391.198 185.846 391.798 185.679 392.18 185.347C392.568 185.014 392.761 184.524 392.761 183.877C392.761 183.198 392.556 182.717 392.146 182.435C391.741 182.152 391.114 182.011 390.266 182.011Z" fill="white"/>
<rect x="344.5" y="176.5" width="72" height="24" rx="4.5" stroke="#00378F"/>
<path d="M230.834 160.189C230.361 160.189 229.936 160.271 229.557 160.436C229.182 160.596 228.861 160.83 228.596 161.139C228.334 161.443 228.133 161.812 227.992 162.246C227.852 162.68 227.781 163.168 227.781 163.711C227.781 164.43 227.893 165.055 228.115 165.586C228.342 166.113 228.678 166.521 229.123 166.811C229.572 167.1 230.133 167.244 230.805 167.244C231.188 167.244 231.547 167.213 231.883 167.15C232.223 167.084 232.553 167.002 232.873 166.904V167.771C232.561 167.889 232.232 167.975 231.889 168.029C231.545 168.088 231.137 168.117 230.664 168.117C229.793 168.117 229.064 167.938 228.479 167.578C227.896 167.215 227.459 166.703 227.166 166.043C226.877 165.383 226.732 164.604 226.732 163.705C226.732 163.057 226.822 162.465 227.002 161.93C227.186 161.391 227.451 160.926 227.799 160.535C228.15 160.145 228.58 159.844 229.088 159.633C229.6 159.418 230.186 159.311 230.846 159.311C231.279 159.311 231.697 159.354 232.1 159.439C232.502 159.525 232.865 159.648 233.189 159.809L232.791 160.652C232.518 160.527 232.217 160.42 231.889 160.33C231.564 160.236 231.213 160.189 230.834 160.189ZM240.281 164.777C240.281 165.305 240.213 165.775 240.076 166.189C239.939 166.604 239.742 166.953 239.484 167.238C239.226 167.523 238.914 167.742 238.547 167.895C238.183 168.043 237.771 168.117 237.31 168.117C236.881 168.117 236.486 168.043 236.127 167.895C235.771 167.742 235.463 167.523 235.201 167.238C234.943 166.953 234.742 166.604 234.597 166.189C234.457 165.775 234.387 165.305 234.387 164.777C234.387 164.074 234.506 163.477 234.744 162.984C234.982 162.488 235.322 162.111 235.764 161.854C236.209 161.592 236.738 161.461 237.351 161.461C237.937 161.461 238.449 161.592 238.887 161.854C239.328 162.115 239.67 162.494 239.912 162.99C240.158 163.482 240.281 164.078 240.281 164.777ZM235.394 164.777C235.394 165.293 235.463 165.74 235.599 166.119C235.736 166.498 235.947 166.791 236.232 166.998C236.517 167.205 236.885 167.309 237.334 167.309C237.779 167.309 238.144 167.205 238.43 166.998C238.719 166.791 238.931 166.498 239.068 166.119C239.205 165.74 239.273 165.293 239.273 164.777C239.273 164.266 239.205 163.824 239.068 163.453C238.931 163.078 238.721 162.789 238.435 162.586C238.15 162.383 237.781 162.281 237.328 162.281C236.66 162.281 236.17 162.502 235.857 162.943C235.549 163.385 235.394 163.996 235.394 164.777ZM249.095 161.461C249.802 161.461 250.336 161.646 250.695 162.018C251.054 162.385 251.234 162.977 251.234 163.793V168H250.273V163.84C250.273 163.32 250.16 162.932 249.933 162.674C249.711 162.412 249.379 162.281 248.937 162.281C248.316 162.281 247.865 162.461 247.584 162.82C247.302 163.18 247.162 163.709 247.162 164.408V168H246.195V163.84C246.195 163.492 246.144 163.203 246.043 162.973C245.945 162.742 245.797 162.57 245.597 162.457C245.402 162.34 245.154 162.281 244.853 162.281C244.427 162.281 244.086 162.369 243.828 162.545C243.57 162.721 243.382 162.982 243.265 163.33C243.152 163.674 243.095 164.098 243.095 164.602V168H242.123V161.578H242.908L243.054 162.486H243.107C243.236 162.264 243.398 162.076 243.593 161.924C243.789 161.771 244.007 161.656 244.25 161.578C244.492 161.5 244.75 161.461 245.023 161.461C245.511 161.461 245.92 161.553 246.248 161.736C246.58 161.916 246.82 162.191 246.968 162.562H247.021C247.232 162.191 247.521 161.916 247.888 161.736C248.256 161.553 248.658 161.461 249.095 161.461ZM256.41 161.461C257.21 161.461 257.849 161.736 258.326 162.287C258.802 162.838 259.041 163.666 259.041 164.771C259.041 165.502 258.931 166.115 258.712 166.611C258.494 167.107 258.185 167.482 257.787 167.736C257.392 167.99 256.925 168.117 256.386 168.117C256.046 168.117 255.748 168.072 255.49 167.982C255.232 167.893 255.011 167.771 254.828 167.619C254.644 167.467 254.492 167.301 254.371 167.121H254.3C254.312 167.273 254.326 167.457 254.341 167.672C254.361 167.887 254.371 168.074 254.371 168.234V170.871H253.392V161.578H254.195L254.324 162.527H254.371C254.496 162.332 254.648 162.154 254.828 161.994C255.007 161.83 255.226 161.701 255.484 161.607C255.746 161.51 256.054 161.461 256.41 161.461ZM256.24 162.281C255.794 162.281 255.435 162.367 255.162 162.539C254.892 162.711 254.695 162.969 254.57 163.312C254.445 163.652 254.378 164.08 254.371 164.596V164.783C254.371 165.326 254.429 165.785 254.546 166.16C254.667 166.535 254.865 166.82 255.138 167.016C255.416 167.211 255.787 167.309 256.251 167.309C256.65 167.309 256.982 167.201 257.248 166.986C257.513 166.771 257.71 166.473 257.839 166.09C257.972 165.703 258.039 165.26 258.039 164.76C258.039 164.002 257.89 163.4 257.593 162.955C257.3 162.506 256.849 162.281 256.24 162.281ZM261.872 161.578V168H260.9V161.578H261.872ZM261.398 159.176C261.558 159.176 261.695 159.229 261.808 159.334C261.925 159.436 261.984 159.596 261.984 159.814C261.984 160.029 261.925 160.189 261.808 160.295C261.695 160.4 261.558 160.453 261.398 160.453C261.23 160.453 261.089 160.4 260.976 160.295C260.867 160.189 260.812 160.029 260.812 159.814C260.812 159.596 260.867 159.436 260.976 159.334C261.089 159.229 261.23 159.176 261.398 159.176ZM265.073 168H264.095V158.883H265.073V168ZM269.763 161.461C270.31 161.461 270.778 161.582 271.169 161.824C271.56 162.066 271.858 162.406 272.065 162.844C272.272 163.277 272.376 163.785 272.376 164.367V164.971H267.94C267.952 165.725 268.14 166.299 268.503 166.693C268.866 167.088 269.378 167.285 270.038 167.285C270.444 167.285 270.804 167.248 271.116 167.174C271.429 167.1 271.753 166.99 272.089 166.846V167.701C271.765 167.846 271.442 167.951 271.122 168.018C270.806 168.084 270.431 168.117 269.997 168.117C269.38 168.117 268.841 167.992 268.38 167.742C267.923 167.488 267.567 167.117 267.314 166.629C267.06 166.141 266.933 165.543 266.933 164.836C266.933 164.145 267.048 163.547 267.278 163.043C267.513 162.535 267.841 162.145 268.263 161.871C268.689 161.598 269.189 161.461 269.763 161.461ZM269.751 162.258C269.231 162.258 268.817 162.428 268.509 162.768C268.2 163.107 268.017 163.582 267.958 164.191H271.356C271.353 163.809 271.292 163.473 271.175 163.184C271.062 162.891 270.888 162.664 270.653 162.504C270.419 162.34 270.118 162.258 269.751 162.258Z" fill="black"/>
<path d="M247.834 44.1895C247.361 44.1895 246.936 44.2715 246.557 44.4355C246.182 44.5957 245.861 44.8301 245.596 45.1387C245.334 45.4434 245.133 45.8125 244.992 46.2461C244.852 46.6797 244.781 47.168 244.781 47.7109C244.781 48.4297 244.893 49.0547 245.115 49.5859C245.342 50.1133 245.678 50.5215 246.123 50.8105C246.572 51.0996 247.133 51.2441 247.805 51.2441C248.188 51.2441 248.547 51.2129 248.883 51.1504C249.223 51.084 249.553 51.002 249.873 50.9043V51.7715C249.561 51.8887 249.232 51.9746 248.889 52.0293C248.545 52.0879 248.137 52.1172 247.664 52.1172C246.793 52.1172 246.064 51.9375 245.479 51.5781C244.896 51.2148 244.459 50.7031 244.166 50.043C243.877 49.3828 243.732 48.6035 243.732 47.7051C243.732 47.0566 243.822 46.4648 244.002 45.9297C244.186 45.3906 244.451 44.9258 244.799 44.5352C245.15 44.1445 245.58 43.8438 246.088 43.6328C246.6 43.418 247.186 43.3105 247.846 43.3105C248.279 43.3105 248.697 43.3535 249.1 43.4395C249.502 43.5254 249.865 43.6484 250.189 43.8086L249.791 44.6523C249.518 44.5273 249.217 44.4199 248.889 44.3301C248.564 44.2363 248.213 44.1895 247.834 44.1895ZM257.281 48.7773C257.281 49.3047 257.213 49.7754 257.076 50.1895C256.939 50.6035 256.742 50.9531 256.484 51.2383C256.226 51.5234 255.914 51.7422 255.547 51.8945C255.183 52.043 254.771 52.1172 254.31 52.1172C253.881 52.1172 253.486 52.043 253.127 51.8945C252.771 51.7422 252.463 51.5234 252.201 51.2383C251.943 50.9531 251.742 50.6035 251.597 50.1895C251.457 49.7754 251.387 49.3047 251.387 48.7773C251.387 48.0742 251.506 47.4766 251.744 46.9844C251.982 46.4883 252.322 46.1113 252.764 45.8535C253.209 45.5918 253.738 45.4609 254.351 45.4609C254.937 45.4609 255.449 45.5918 255.887 45.8535C256.328 46.1152 256.67 46.4941 256.912 46.9902C257.158 47.4824 257.281 48.0781 257.281 48.7773ZM252.394 48.7773C252.394 49.293 252.463 49.7402 252.599 50.1191C252.736 50.498 252.947 50.791 253.232 50.998C253.517 51.2051 253.885 51.3086 254.334 51.3086C254.779 51.3086 255.144 51.2051 255.43 50.998C255.719 50.791 255.931 50.498 256.068 50.1191C256.205 49.7402 256.273 49.293 256.273 48.7773C256.273 48.2656 256.205 47.8242 256.068 47.4531C255.931 47.0781 255.721 46.7891 255.435 46.5859C255.15 46.3828 254.781 46.2812 254.328 46.2812C253.66 46.2812 253.17 46.502 252.857 46.9434C252.549 47.3848 252.394 47.9961 252.394 48.7773ZM266.095 45.4609C266.802 45.4609 267.336 45.6465 267.695 46.0176C268.054 46.3848 268.234 46.9766 268.234 47.793V52H267.273V47.8398C267.273 47.3203 267.16 46.9316 266.933 46.6738C266.711 46.4121 266.379 46.2812 265.937 46.2812C265.316 46.2812 264.865 46.4609 264.584 46.8203C264.302 47.1797 264.162 47.709 264.162 48.4082V52H263.195V47.8398C263.195 47.4922 263.144 47.2031 263.043 46.9727C262.945 46.7422 262.797 46.5703 262.597 46.457C262.402 46.3398 262.154 46.2812 261.853 46.2812C261.427 46.2812 261.086 46.3691 260.828 46.5449C260.57 46.7207 260.382 46.9824 260.265 47.3301C260.152 47.6738 260.095 48.0977 260.095 48.6016V52H259.123V45.5781H259.908L260.054 46.4863H260.107C260.236 46.2637 260.398 46.0762 260.593 45.9238C260.789 45.7715 261.007 45.6562 261.25 45.5781C261.492 45.5 261.75 45.4609 262.023 45.4609C262.511 45.4609 262.92 45.5527 263.248 45.7363C263.58 45.916 263.82 46.1914 263.968 46.5625H264.021C264.232 46.1914 264.521 45.916 264.888 45.7363C265.256 45.5527 265.658 45.4609 266.095 45.4609ZM273.41 45.4609C274.21 45.4609 274.849 45.7363 275.326 46.2871C275.802 46.8379 276.041 47.666 276.041 48.7715C276.041 49.502 275.931 50.1152 275.712 50.6113C275.494 51.1074 275.185 51.4824 274.787 51.7363C274.392 51.9902 273.925 52.1172 273.386 52.1172C273.046 52.1172 272.748 52.0723 272.49 51.9824C272.232 51.8926 272.011 51.7715 271.828 51.6191C271.644 51.4668 271.492 51.3008 271.371 51.1211H271.3C271.312 51.2734 271.326 51.457 271.341 51.6719C271.361 51.8867 271.371 52.0742 271.371 52.2344V54.8711H270.392V45.5781H271.195L271.324 46.5273H271.371C271.496 46.332 271.648 46.1543 271.828 45.9941C272.007 45.8301 272.226 45.7012 272.484 45.6074C272.746 45.5098 273.054 45.4609 273.41 45.4609ZM273.24 46.2812C272.794 46.2812 272.435 46.3672 272.162 46.5391C271.892 46.7109 271.695 46.9688 271.57 47.3125C271.445 47.6523 271.378 48.0801 271.371 48.5957V48.7832C271.371 49.3262 271.429 49.7852 271.546 50.1602C271.667 50.5352 271.865 50.8203 272.138 51.0156C272.416 51.2109 272.787 51.3086 273.251 51.3086C273.65 51.3086 273.982 51.2012 274.248 50.9863C274.513 50.7715 274.71 50.4727 274.839 50.0898C274.972 49.7031 275.039 49.2598 275.039 48.7598C275.039 48.002 274.89 47.4004 274.593 46.9551C274.3 46.5059 273.849 46.2812 273.24 46.2812ZM278.872 45.5781V52H277.9V45.5781H278.872ZM278.398 43.1758C278.558 43.1758 278.695 43.2285 278.808 43.334C278.925 43.4355 278.984 43.5957 278.984 43.8145C278.984 44.0293 278.925 44.1895 278.808 44.2949C278.695 44.4004 278.558 44.4531 278.398 44.4531C278.23 44.4531 278.089 44.4004 277.976 44.2949C277.867 44.1895 277.812 44.0293 277.812 43.8145C277.812 43.5957 277.867 43.4355 277.976 43.334C278.089 43.2285 278.23 43.1758 278.398 43.1758ZM282.073 52H281.095V42.8828H282.073V52ZM286.763 45.4609C287.31 45.4609 287.778 45.582 288.169 45.8242C288.56 46.0664 288.858 46.4062 289.065 46.8438C289.272 47.2773 289.376 47.7852 289.376 48.3672V48.9707H284.94C284.952 49.7246 285.14 50.2988 285.503 50.6934C285.866 51.0879 286.378 51.2852 287.038 51.2852C287.444 51.2852 287.804 51.248 288.116 51.1738C288.429 51.0996 288.753 50.9902 289.089 50.8457V51.7012C288.765 51.8457 288.442 51.9512 288.122 52.0176C287.806 52.084 287.431 52.1172 286.997 52.1172C286.38 52.1172 285.841 51.9922 285.38 51.7422C284.923 51.4883 284.567 51.1172 284.314 50.6289C284.06 50.1406 283.933 49.543 283.933 48.8359C283.933 48.1445 284.048 47.5469 284.278 47.043C284.513 46.5352 284.841 46.1445 285.263 45.8711C285.689 45.5977 286.189 45.4609 286.763 45.4609ZM286.751 46.2578C286.231 46.2578 285.817 46.4277 285.509 46.7676C285.2 47.1074 285.017 47.582 284.958 48.1914H288.356C288.353 47.8086 288.292 47.4727 288.175 47.1836C288.062 46.8906 287.888 46.6641 287.653 46.5039C287.419 46.3398 287.118 46.2578 286.751 46.2578Z" fill="black"/>
<path d="M337 59L334.113 64H339.887L337 59ZM337.5 115V63.5H336.5V115H337.5Z" fill="black"/>
<path d="M405 59L402.157 64.0251L407.93 63.9745L405 59ZM406.5 172.996L405.539 63.4954L404.539 63.5042L405.5 173.004L406.5 172.996Z" fill="black"/>
<path d="M301 131L295.943 128.215L296.059 133.987L301 131ZM202.01 133.5L296.511 131.591L296.491 130.591L201.99 132.5L202.01 133.5Z" fill="black"/>
<path d="M18 89.5H76.5V152.5H18C15.5147 152.5 13.5 150.485 13.5 148V94C13.5 91.5147 15.5147 89.5 18 89.5Z" fill="#82A4D9" stroke="#82A4D9"/>
<path d="M77.5 89.5H179C181.485 89.5 183.5 91.5147 183.5 94V148C183.5 150.485 181.485 152.5 179 152.5H77.5V89.5Z" fill="white"/>
<path d="M104.803 126H103.801V118.312H101.105V117.434H107.486V118.312H104.803V126ZM111.267 119.461C111.814 119.461 112.283 119.582 112.674 119.824C113.064 120.066 113.363 120.406 113.57 120.844C113.777 121.277 113.881 121.785 113.881 122.367V122.971H109.445C109.457 123.725 109.644 124.299 110.008 124.693C110.371 125.088 110.883 125.285 111.543 125.285C111.949 125.285 112.308 125.248 112.621 125.174C112.933 125.1 113.258 124.99 113.594 124.846V125.701C113.269 125.846 112.947 125.951 112.627 126.018C112.31 126.084 111.935 126.117 111.502 126.117C110.885 126.117 110.346 125.992 109.885 125.742C109.428 125.488 109.072 125.117 108.818 124.629C108.564 124.141 108.437 123.543 108.437 122.836C108.437 122.145 108.553 121.547 108.783 121.043C109.017 120.535 109.346 120.145 109.767 119.871C110.193 119.598 110.693 119.461 111.267 119.461ZM111.256 120.258C110.736 120.258 110.322 120.428 110.014 120.768C109.705 121.107 109.521 121.582 109.463 122.191H112.861C112.857 121.809 112.797 121.473 112.68 121.184C112.566 120.891 112.392 120.664 112.158 120.504C111.924 120.34 111.623 120.258 111.256 120.258ZM119.847 124.242C119.847 124.652 119.744 124.998 119.537 125.279C119.334 125.557 119.041 125.766 118.658 125.906C118.279 126.047 117.826 126.117 117.299 126.117C116.849 126.117 116.461 126.082 116.132 126.012C115.804 125.941 115.517 125.842 115.271 125.713V124.816C115.533 124.945 115.845 125.062 116.209 125.168C116.572 125.273 116.943 125.326 117.322 125.326C117.877 125.326 118.279 125.236 118.529 125.057C118.779 124.877 118.904 124.633 118.904 124.324C118.904 124.148 118.853 123.994 118.752 123.861C118.654 123.725 118.488 123.594 118.254 123.469C118.019 123.34 117.695 123.199 117.281 123.047C116.871 122.891 116.515 122.736 116.215 122.584C115.918 122.428 115.687 122.238 115.523 122.016C115.363 121.793 115.283 121.504 115.283 121.148C115.283 120.605 115.502 120.189 115.939 119.9C116.381 119.607 116.959 119.461 117.674 119.461C118.06 119.461 118.422 119.5 118.757 119.578C119.097 119.652 119.414 119.754 119.707 119.883L119.379 120.662C119.113 120.549 118.83 120.453 118.529 120.375C118.228 120.297 117.922 120.258 117.609 120.258C117.16 120.258 116.814 120.332 116.572 120.48C116.334 120.629 116.215 120.832 116.215 121.09C116.215 121.289 116.269 121.453 116.379 121.582C116.492 121.711 116.672 121.832 116.918 121.945C117.164 122.059 117.488 122.191 117.89 122.344C118.293 122.492 118.64 122.646 118.933 122.807C119.226 122.963 119.451 123.154 119.607 123.381C119.767 123.604 119.847 123.891 119.847 124.242ZM123.646 125.32C123.806 125.32 123.97 125.307 124.138 125.279C124.306 125.252 124.443 125.219 124.548 125.18V125.936C124.435 125.986 124.277 126.029 124.074 126.064C123.875 126.1 123.679 126.117 123.488 126.117C123.148 126.117 122.839 126.059 122.562 125.941C122.285 125.82 122.062 125.617 121.894 125.332C121.73 125.047 121.648 124.652 121.648 124.148V120.34H120.734V119.865L121.654 119.484L122.041 118.09H122.626V119.578H124.507V120.34H122.626V124.119C122.626 124.521 122.718 124.822 122.902 125.021C123.089 125.221 123.337 125.32 123.646 125.32ZM135.136 126.117C134.558 126.117 134.048 125.998 133.606 125.76C133.165 125.521 132.821 125.158 132.575 124.67C132.329 124.182 132.206 123.566 132.206 122.824C132.206 122.047 132.335 121.412 132.593 120.92C132.855 120.424 133.214 120.057 133.671 119.818C134.128 119.58 134.647 119.461 135.23 119.461C135.55 119.461 135.858 119.494 136.155 119.561C136.456 119.623 136.702 119.703 136.894 119.801L136.601 120.615C136.405 120.537 136.179 120.467 135.921 120.404C135.667 120.342 135.429 120.311 135.206 120.311C134.761 120.311 134.39 120.406 134.093 120.598C133.8 120.789 133.579 121.07 133.431 121.441C133.286 121.812 133.214 122.27 133.214 122.812C133.214 123.332 133.284 123.775 133.425 124.143C133.569 124.51 133.782 124.791 134.064 124.986C134.349 125.178 134.704 125.273 135.13 125.273C135.47 125.273 135.776 125.238 136.05 125.168C136.323 125.094 136.571 125.008 136.794 124.91V125.777C136.579 125.887 136.339 125.971 136.073 126.029C135.812 126.088 135.499 126.117 135.136 126.117ZM144.015 122.777C144.015 123.305 143.946 123.775 143.809 124.189C143.673 124.604 143.475 124.953 143.218 125.238C142.96 125.523 142.647 125.742 142.28 125.895C141.917 126.043 141.505 126.117 141.044 126.117C140.614 126.117 140.22 126.043 139.86 125.895C139.505 125.742 139.196 125.523 138.934 125.238C138.677 124.953 138.475 124.604 138.331 124.189C138.19 123.775 138.12 123.305 138.12 122.777C138.12 122.074 138.239 121.477 138.477 120.984C138.716 120.488 139.056 120.111 139.497 119.854C139.942 119.592 140.472 119.461 141.085 119.461C141.671 119.461 142.182 119.592 142.62 119.854C143.061 120.115 143.403 120.494 143.645 120.99C143.891 121.482 144.015 122.078 144.015 122.777ZM139.128 122.777C139.128 123.293 139.196 123.74 139.333 124.119C139.47 124.498 139.681 124.791 139.966 124.998C140.251 125.205 140.618 125.309 141.067 125.309C141.513 125.309 141.878 125.205 142.163 124.998C142.452 124.791 142.665 124.498 142.802 124.119C142.938 123.74 143.007 123.293 143.007 122.777C143.007 122.266 142.938 121.824 142.802 121.453C142.665 121.078 142.454 120.789 142.169 120.586C141.884 120.383 141.515 120.281 141.061 120.281C140.393 120.281 139.903 120.502 139.591 120.943C139.282 121.385 139.128 121.996 139.128 122.777ZM148.141 126.117C147.329 126.117 146.684 125.84 146.208 125.285C145.735 124.73 145.499 123.906 145.499 122.812C145.499 121.707 145.741 120.873 146.225 120.311C146.71 119.744 147.354 119.461 148.159 119.461C148.499 119.461 148.796 119.506 149.05 119.596C149.303 119.686 149.522 119.807 149.706 119.959C149.889 120.107 150.044 120.277 150.169 120.469H150.239C150.223 120.348 150.208 120.182 150.192 119.971C150.176 119.76 150.169 119.588 150.169 119.455V116.883H151.141V126H150.356L150.21 125.086H150.169C150.048 125.277 149.893 125.451 149.706 125.607C149.522 125.764 149.301 125.889 149.044 125.982C148.79 126.072 148.489 126.117 148.141 126.117ZM148.294 125.309C148.981 125.309 149.467 125.113 149.753 124.723C150.038 124.332 150.18 123.752 150.18 122.982V122.807C150.18 121.99 150.044 121.363 149.77 120.926C149.501 120.488 149.009 120.27 148.294 120.27C147.696 120.27 147.249 120.5 146.952 120.961C146.655 121.418 146.507 122.043 146.507 122.836C146.507 123.625 146.653 124.234 146.946 124.664C147.243 125.094 147.692 125.309 148.294 125.309ZM155.836 119.461C156.383 119.461 156.852 119.582 157.243 119.824C157.633 120.066 157.932 120.406 158.139 120.844C158.346 121.277 158.45 121.785 158.45 122.367V122.971H154.014C154.026 123.725 154.213 124.299 154.577 124.693C154.94 125.088 155.452 125.285 156.112 125.285C156.518 125.285 156.877 125.248 157.19 125.174C157.502 125.1 157.827 124.99 158.163 124.846V125.701C157.838 125.846 157.516 125.951 157.196 126.018C156.879 126.084 156.504 126.117 156.071 126.117C155.454 126.117 154.915 125.992 154.454 125.742C153.997 125.488 153.641 125.117 153.387 124.629C153.133 124.141 153.006 123.543 153.006 122.836C153.006 122.145 153.122 121.547 153.352 121.043C153.586 120.535 153.915 120.145 154.336 119.871C154.762 119.598 155.262 119.461 155.836 119.461ZM155.825 120.258C155.305 120.258 154.891 120.428 154.583 120.768C154.274 121.107 154.09 121.582 154.032 122.191H157.43C157.426 121.809 157.366 121.473 157.249 121.184C157.135 120.891 156.961 120.664 156.727 120.504C156.493 120.34 156.192 120.258 155.825 120.258Z" fill="black"/>
<path d="M77.5 89.5H179C181.485 89.5 183.5 91.5147 183.5 94V148C183.5 150.485 181.485 152.5 179 152.5H77.5V89.5Z" stroke="#82A4D9"/>
<path d="M55.968 138.828H38.478C38.214 138.828 38 138.615 38 138.351V114.478C38 114.214 38.214 114.001 38.478 114.001H49.584C49.711 114.001 49.832 114.051 49.922 114.141L56.306 120.525C56.395 120.615 56.446 120.736 56.446 120.863V138.35C56.446 138.614 56.232 138.827 55.968 138.827V138.828ZM38.955 137.873H55.491V121.06L49.387 114.956H38.955V137.873Z" fill="black"/>
<path d="M55.968 121.34H49.583C49.32 121.34 49.106 121.127 49.106 120.863V114.478C49.106 114.285 49.222 114.111 49.401 114.037C49.579 113.962 49.784 114.004 49.922 114.141L56.307 120.525C56.443 120.662 56.484 120.867 56.41 121.046C56.336 121.225 56.162 121.341 55.969 121.341L55.968 121.34ZM50.061 120.385H54.815L50.061 115.631V120.385Z" fill="black"/>
<path d="M344 189L338.96 186.184L339.041 191.957L344 189ZM202.007 191.5L339.507 189.563L339.493 188.563L201.993 190.5L202.007 191.5Z" fill="black"/>
<path d="M56.5891 210.733H54.4351C54.1711 210.733 53.957 210.519 53.957 210.255V196.592L48.412 191.047H40.6311C40.3681 191.047 40.1541 190.833 40.1541 190.569V188.477C40.1541 188.213 40.3681 188 40.6311 188H56.5891C56.8521 188 57.066 188.213 57.066 188.477V210.255C57.066 210.519 56.8521 210.733 56.5891 210.733V210.733ZM54.912 209.778H56.1111V188.954H41.109V190.092H48.6111C48.7371 190.092 48.8591 190.143 48.9481 190.232L54.772 196.057C54.861 196.147 54.912 196.268 54.912 196.394V209.778Z" fill="black"/>
<path d="M54.435 212.826H38.477C38.214 212.826 38 212.613 38 212.349V190.569C38 190.305 38.214 190.092 38.477 190.092H48.61C48.736 190.092 48.858 190.143 48.947 190.232L54.771 196.057C54.86 196.147 54.911 196.268 54.911 196.394V212.348C54.911 212.612 54.697 212.825 54.434 212.825L54.435 212.826ZM38.955 211.871H53.957V196.592L48.412 191.047H38.954V211.871H38.955Z" fill="black"/>
<path d="M54.435 196.872H48.61C48.346 196.872 48.132 196.658 48.132 196.394V190.569C48.132 190.376 48.248 190.202 48.427 190.128C48.605 190.053 48.811 190.094 48.948 190.231L54.773 196.056C54.91 196.193 54.95 196.398 54.876 196.577C54.802 196.756 54.628 196.872 54.435 196.872ZM49.087 195.917H53.282L49.087 191.722V195.917Z" fill="black"/>
<path d="M323.5 54V5C323.5 2.51472 325.515 0.5 328 0.5H412C414.485 0.5 416.5 2.51472 416.5 5V54C416.5 56.4853 414.485 58.5 412 58.5H328C325.515 58.5 323.5 56.4853 323.5 54Z" fill="#DA6F5A" stroke="#00378F"/>
<path d="M334.504 30.8309L333.273 27.6591H329.267L328.044 30.8309H326.868L330.778 20.7958H331.824L335.707 30.8309H334.504ZM332.924 26.6268L331.755 23.4755C331.728 23.3934 331.683 23.259 331.619 23.0721C331.56 22.8853 331.498 22.6916 331.434 22.4911C331.37 22.2906 331.318 22.1288 331.277 22.0057C331.231 22.1926 331.181 22.3794 331.127 22.5663C331.076 22.7486 331.026 22.9195 330.976 23.079C330.926 23.2339 330.883 23.3661 330.846 23.4755L329.657 26.6268H332.924ZM340.488 23.202C340.638 23.202 340.795 23.2111 340.959 23.2294C341.124 23.243 341.269 23.2635 341.397 23.2909L341.253 24.3436C341.13 24.3117 340.994 24.2867 340.843 24.2684C340.693 24.2502 340.552 24.2411 340.419 24.2411C340.119 24.2411 339.834 24.3026 339.565 24.4257C339.301 24.5441 339.068 24.7173 338.868 24.9452C338.667 25.1685 338.51 25.4397 338.396 25.7587C338.282 26.0731 338.225 26.424 338.225 26.8114V30.8309H337.083V23.3387H338.027L338.15 24.7196H338.198C338.353 24.4416 338.54 24.1887 338.758 23.9608C338.977 23.7284 339.23 23.5438 339.517 23.4071C339.809 23.2704 340.132 23.202 340.488 23.202ZM345.064 34.1942C344.079 34.1942 343.321 34.0096 342.787 33.6405C342.254 33.2759 341.988 32.7632 341.988 32.1024C341.988 31.633 342.136 31.232 342.432 30.8993C342.733 30.5666 343.147 30.3456 343.676 30.2362C343.48 30.1451 343.311 30.0083 343.17 29.826C343.034 29.6438 342.965 29.4341 342.965 29.1971C342.965 28.9237 343.04 28.6844 343.191 28.4794C343.346 28.2697 343.58 28.0692 343.895 27.8778C343.503 27.7183 343.184 27.4494 342.938 27.0712C342.696 26.6884 342.575 26.244 342.575 25.7382C342.575 25.2004 342.687 24.7424 342.91 24.3641C343.134 23.9813 343.457 23.6897 343.881 23.4891C344.305 23.2886 344.818 23.1884 345.419 23.1884C345.551 23.1884 345.684 23.1952 345.816 23.2089C345.952 23.218 346.082 23.2339 346.205 23.2567C346.328 23.2749 346.436 23.2977 346.527 23.3251H349.097V24.0565L347.716 24.2274C347.853 24.4052 347.967 24.6193 348.058 24.87C348.149 25.1206 348.195 25.3986 348.195 25.704C348.195 26.4514 347.942 27.0461 347.436 27.4882C346.93 27.9257 346.235 28.1444 345.351 28.1444C345.141 28.1444 344.927 28.1262 344.708 28.0897C344.485 28.2128 344.314 28.3495 344.196 28.4999C344.082 28.6503 344.025 28.8234 344.025 29.0194C344.025 29.1652 344.068 29.2815 344.155 29.368C344.246 29.4546 344.376 29.5184 344.544 29.5594C344.713 29.5959 344.916 29.6141 345.153 29.6141H346.472C347.288 29.6141 347.912 29.785 348.345 30.1268C348.783 30.4686 349.001 30.9677 349.001 31.6239C349.001 32.4533 348.664 33.0891 347.99 33.5311C347.315 33.9732 346.34 34.1942 345.064 34.1942ZM345.098 33.3055C345.718 33.3055 346.23 33.2417 346.636 33.1141C347.046 32.9911 347.352 32.8111 347.552 32.5741C347.757 32.3417 347.86 32.0637 347.86 31.7401C347.86 31.4393 347.791 31.2115 347.655 31.0565C347.518 30.9061 347.317 30.8059 347.053 30.7557C346.789 30.701 346.465 30.6737 346.082 30.6737H344.784C344.446 30.6737 344.152 30.7261 343.902 30.8309C343.651 30.9358 343.457 31.0907 343.321 31.2958C343.188 31.5009 343.122 31.7561 343.122 32.0614C343.122 32.467 343.293 32.7746 343.635 32.9843C343.977 33.1984 344.464 33.3055 345.098 33.3055ZM345.392 27.3173C345.934 27.3173 346.342 27.1805 346.616 26.9071C346.889 26.6337 347.026 26.2349 347.026 25.7108C347.026 25.1503 346.887 24.731 346.609 24.453C346.331 24.1705 345.921 24.0292 345.378 24.0292C344.859 24.0292 344.458 24.175 344.175 24.4667C343.897 24.7538 343.758 25.1753 343.758 25.7313C343.758 26.2417 343.899 26.6337 344.182 26.9071C344.464 27.1805 344.868 27.3173 345.392 27.3173ZM355.58 28.7802C355.58 29.2587 355.459 29.662 355.218 29.9901C354.981 30.3137 354.639 30.5575 354.193 30.7216C353.75 30.8856 353.222 30.9677 352.607 30.9677C352.082 30.9677 351.629 30.9266 351.246 30.8446C350.863 30.7626 350.528 30.6464 350.241 30.496V29.4501C350.547 29.6005 350.911 29.7372 351.335 29.8602C351.759 29.9833 352.192 30.0448 352.634 30.0448C353.281 30.0448 353.75 29.94 354.042 29.7303C354.334 29.5207 354.48 29.2359 354.48 28.8759C354.48 28.6708 354.42 28.4908 354.302 28.3358C354.188 28.1763 353.994 28.0236 353.721 27.8778C353.447 27.7274 353.069 27.5634 352.586 27.3856C352.108 27.2033 351.693 27.0233 351.342 26.8456C350.996 26.6633 350.727 26.4423 350.535 26.1825C350.348 25.9227 350.255 25.5855 350.255 25.1708C350.255 24.5373 350.51 24.052 351.021 23.7147C351.536 23.3729 352.21 23.202 353.044 23.202C353.495 23.202 353.917 23.2476 354.309 23.3387C354.705 23.4253 355.074 23.5438 355.416 23.6942L355.033 24.6034C354.723 24.4712 354.393 24.3596 354.042 24.2684C353.691 24.1773 353.333 24.1317 352.969 24.1317C352.445 24.1317 352.041 24.2183 351.759 24.3915C351.481 24.5647 351.342 24.8016 351.342 25.1024C351.342 25.3348 351.406 25.5262 351.533 25.6766C351.666 25.827 351.875 25.9683 352.162 26.1005C352.449 26.2326 352.828 26.3876 353.297 26.5653C353.766 26.7385 354.172 26.9185 354.514 27.1053C354.856 27.2876 355.118 27.5109 355.3 27.7753C355.487 28.035 355.58 28.37 355.58 28.7802Z" fill="white"/>
<rect x="466.5" y="16.5" width="96" height="19.5645" rx="4.5" fill="#00378F"/>
<path d="M489.367 21.0059H492.197C493.446 21.0059 494.385 21.1927 495.014 21.5664C495.643 21.9401 495.957 22.5758 495.957 23.4736C495.957 23.861 495.882 24.2096 495.731 24.5195C495.586 24.8249 495.371 25.0778 495.089 25.2783C494.806 25.4788 494.458 25.6178 494.043 25.6953V25.7637C494.48 25.832 494.868 25.9574 495.205 26.1396C495.542 26.3219 495.807 26.5771 495.998 26.9053C496.189 27.2334 496.285 27.6504 496.285 28.1562C496.285 28.7715 496.142 29.291 495.854 29.7148C495.572 30.1387 495.171 30.46 494.651 30.6787C494.132 30.8929 493.517 31 492.806 31H489.367V21.0059ZM490.529 25.292H492.443C493.314 25.292 493.915 25.1484 494.248 24.8613C494.585 24.5742 494.754 24.1549 494.754 23.6035C494.754 23.0339 494.553 22.6237 494.152 22.373C493.756 22.1224 493.122 21.9971 492.252 21.9971H490.529V25.292ZM490.529 26.2695V30.0088H492.607C493.496 30.0088 494.125 29.8356 494.494 29.4893C494.863 29.1383 495.048 28.6667 495.048 28.0742C495.048 27.696 494.964 27.3724 494.795 27.1035C494.631 26.8346 494.362 26.6296 493.988 26.4883C493.619 26.3424 493.125 26.2695 492.505 26.2695H490.529ZM504.867 27.2402C504.867 27.8555 504.787 28.4046 504.628 28.8877C504.468 29.3708 504.238 29.7786 503.937 30.1113C503.637 30.444 503.272 30.6992 502.844 30.877C502.42 31.0501 501.939 31.1367 501.401 31.1367C500.9 31.1367 500.44 31.0501 500.02 30.877C499.606 30.6992 499.246 30.444 498.94 30.1113C498.639 29.7786 498.405 29.3708 498.236 28.8877C498.072 28.4046 497.99 27.8555 497.99 27.2402C497.99 26.4199 498.129 25.7227 498.407 25.1484C498.685 24.5697 499.082 24.1299 499.597 23.8291C500.116 23.5238 500.734 23.3711 501.449 23.3711C502.133 23.3711 502.73 23.5238 503.24 23.8291C503.755 24.1344 504.154 24.5765 504.436 25.1553C504.723 25.7295 504.867 26.4245 504.867 27.2402ZM499.166 27.2402C499.166 27.8418 499.246 28.3636 499.405 28.8057C499.565 29.2477 499.811 29.5895 500.143 29.8311C500.476 30.0726 500.904 30.1934 501.429 30.1934C501.948 30.1934 502.374 30.0726 502.707 29.8311C503.044 29.5895 503.292 29.2477 503.452 28.8057C503.611 28.3636 503.691 27.8418 503.691 27.2402C503.691 26.6432 503.611 26.1283 503.452 25.6953C503.292 25.2578 503.046 24.9206 502.714 24.6836C502.381 24.4466 501.95 24.3281 501.422 24.3281C500.642 24.3281 500.07 24.5856 499.706 25.1006C499.346 25.6156 499.166 26.3288 499.166 27.2402ZM513.449 27.2402C513.449 27.8555 513.369 28.4046 513.21 28.8877C513.05 29.3708 512.82 29.7786 512.519 30.1113C512.218 30.444 511.854 30.6992 511.425 30.877C511.002 31.0501 510.521 31.1367 509.983 31.1367C509.482 31.1367 509.021 31.0501 508.602 30.877C508.188 30.6992 507.827 30.444 507.522 30.1113C507.221 29.7786 506.987 29.3708 506.818 28.8877C506.654 28.4046 506.572 27.8555 506.572 27.2402C506.572 26.4199 506.711 25.7227 506.989 25.1484C507.267 24.5697 507.663 24.1299 508.178 23.8291C508.698 23.5238 509.315 23.3711 510.031 23.3711C510.715 23.3711 511.312 23.5238 511.822 23.8291C512.337 24.1344 512.736 24.5765 513.018 25.1553C513.305 25.7295 513.449 26.4245 513.449 27.2402ZM507.748 27.2402C507.748 27.8418 507.827 28.3636 507.987 28.8057C508.146 29.2477 508.393 29.5895 508.725 29.8311C509.058 30.0726 509.486 30.1934 510.01 30.1934C510.53 30.1934 510.956 30.0726 511.289 29.8311C511.626 29.5895 511.874 29.2477 512.034 28.8057C512.193 28.3636 512.273 27.8418 512.273 27.2402C512.273 26.6432 512.193 26.1283 512.034 25.6953C511.874 25.2578 511.628 24.9206 511.296 24.6836C510.963 24.4466 510.532 24.3281 510.004 24.3281C509.224 24.3281 508.652 24.5856 508.288 25.1006C507.928 25.6156 507.748 26.3288 507.748 27.2402ZM517.991 30.207C518.178 30.207 518.369 30.1911 518.565 30.1592C518.761 30.1273 518.92 30.0885 519.043 30.043V30.9248C518.911 30.984 518.727 31.0342 518.49 31.0752C518.257 31.1162 518.029 31.1367 517.806 31.1367C517.41 31.1367 517.05 31.0684 516.726 30.9316C516.403 30.7904 516.143 30.5534 515.947 30.2207C515.755 29.888 515.66 29.4277 515.66 28.8398V24.3965H514.593V23.8428L515.667 23.3984L516.118 21.7715H516.801V23.5078H518.996V24.3965H516.801V28.8057C516.801 29.2751 516.908 29.626 517.123 29.8584C517.341 30.0908 517.631 30.207 517.991 30.207ZM520.55 30.2891C520.55 29.9701 520.628 29.7445 520.783 29.6123C520.938 29.4756 521.127 29.4072 521.35 29.4072C521.582 29.4072 521.778 29.4756 521.938 29.6123C522.097 29.7445 522.177 29.9701 522.177 30.2891C522.177 30.6035 522.097 30.8337 521.938 30.9795C521.778 31.1208 521.582 31.1914 521.35 31.1914C521.127 31.1914 520.938 31.1208 520.783 30.9795C520.628 30.8337 520.55 30.6035 520.55 30.2891ZM523.656 34.3633C523.424 34.3633 523.221 34.3451 523.048 34.3086C522.875 34.2767 522.724 34.238 522.597 34.1924V33.2695C522.738 33.3151 522.882 33.3493 523.028 33.3721C523.173 33.3994 523.337 33.4131 523.52 33.4131C523.83 33.4131 524.08 33.3265 524.272 33.1533C524.463 32.9801 524.559 32.6657 524.559 32.21V23.5078H525.694V32.1826C525.694 32.6383 525.621 33.028 525.475 33.3516C525.329 33.6797 525.106 33.9303 524.805 34.1035C524.504 34.2767 524.121 34.3633 523.656 34.3633ZM524.456 21.4502C524.456 21.195 524.52 21.0081 524.648 20.8896C524.78 20.7666 524.944 20.7051 525.14 20.7051C525.327 20.7051 525.486 20.7666 525.618 20.8896C525.755 21.0081 525.823 21.195 525.823 21.4502C525.823 21.7008 525.755 21.8877 525.618 22.0107C525.486 22.1338 525.327 22.1953 525.14 22.1953C524.944 22.1953 524.78 22.1338 524.648 22.0107C524.52 21.8877 524.456 21.7008 524.456 21.4502ZM531.063 23.3848C531.956 23.3848 532.619 23.5853 533.052 23.9863C533.485 24.3874 533.701 25.0277 533.701 25.9072V31H532.874L532.655 29.8926H532.601C532.391 30.166 532.172 30.3962 531.944 30.583C531.717 30.7653 531.452 30.9043 531.151 31C530.855 31.0911 530.491 31.1367 530.058 31.1367C529.602 31.1367 529.196 31.057 528.841 30.8975C528.49 30.738 528.212 30.4964 528.007 30.1729C527.806 29.8493 527.706 29.4391 527.706 28.9424C527.706 28.195 528.002 27.6208 528.595 27.2197C529.187 26.8187 530.09 26.5999 531.302 26.5635L532.594 26.5088V26.0508C532.594 25.4036 532.455 24.9502 532.177 24.6904C531.899 24.4307 531.507 24.3008 531.001 24.3008C530.609 24.3008 530.235 24.3577 529.88 24.4717C529.524 24.5856 529.187 24.7201 528.868 24.875L528.52 24.0137C528.857 23.8405 529.244 23.6924 529.682 23.5693C530.119 23.4463 530.579 23.3848 531.063 23.3848ZM532.58 27.3086L531.439 27.3564C530.504 27.3929 529.846 27.5456 529.463 27.8145C529.08 28.0833 528.889 28.4639 528.889 28.9561C528.889 29.3844 529.019 29.7012 529.278 29.9062C529.538 30.1113 529.882 30.2139 530.311 30.2139C530.976 30.2139 531.521 30.0293 531.944 29.6602C532.368 29.291 532.58 28.7373 532.58 27.999V27.3086ZM539.603 23.3711C539.754 23.3711 539.911 23.3802 540.075 23.3984C540.239 23.4121 540.385 23.4326 540.513 23.46L540.369 24.5127C540.246 24.4808 540.109 24.4557 539.959 24.4375C539.808 24.4193 539.667 24.4102 539.535 24.4102C539.234 24.4102 538.949 24.4717 538.681 24.5947C538.416 24.7132 538.184 24.8864 537.983 25.1143C537.783 25.3376 537.626 25.6087 537.512 25.9277C537.398 26.2422 537.341 26.5931 537.341 26.9805V31H536.199V23.5078H537.142L537.266 24.8887H537.313C537.468 24.6107 537.655 24.3577 537.874 24.1299C538.093 23.8975 538.346 23.7129 538.633 23.5762C538.924 23.4395 539.248 23.3711 539.603 23.3711Z" fill="white"/>
<rect x="466.5" y="16.5" width="96" height="19.5645" rx="4.5" stroke="#00378F"/>
<path d="M466 26L460.942 23.2159L461.06 28.9882L466 26ZM417.01 27.4999L461.511 26.5917L461.491 25.5919L416.99 26.5001L417.01 27.4999Z" fill="black"/>
<path d="M526 95.5806L528.887 90.5806L523.113 90.5806L526 95.5806ZM525.5 38L525.5 91.0806L526.5 91.0806L526.5 38L525.5 38Z" fill="black"/>
</svg>
