<svg width="596" height="345" viewBox="0 0 596 345" fill="none" xmlns="http://www.w3.org/2000/svg">
<rect width="596" height="345" fill="white"/>
<rect x="36.5" y="49.5" width="209" height="199" rx="4.5" fill="white" stroke="#00378F"/>
<path d="M41 49.5H241C243.485 49.5 245.5 51.5147 245.5 54V88.5H36.5V54C36.5 51.5147 38.5147 49.5 41 49.5Z" fill="#00378F"/>
<path d="M57.6396 68.7637H61.1328V73.6104C60.6087 73.7881 60.0687 73.9202 59.5127 74.0068C58.9613 74.0934 58.3438 74.1367 57.6602 74.1367C56.6211 74.1367 55.7438 73.9294 55.0283 73.5146C54.3174 73.0999 53.7773 72.5098 53.4082 71.7441C53.0391 70.974 52.8545 70.0602 52.8545 69.0029C52.8545 67.9684 53.0573 67.0661 53.4629 66.2959C53.873 65.5257 54.4632 64.9287 55.2334 64.5049C56.0081 64.0765 56.9378 63.8623 58.0225 63.8623C58.5785 63.8623 59.1048 63.9147 59.6016 64.0195C60.1029 64.1198 60.5677 64.2633 60.9961 64.4502L60.5518 65.4619C60.1826 65.3024 59.7747 65.1657 59.3281 65.0518C58.8861 64.9378 58.4281 64.8809 57.9541 64.8809C57.1383 64.8809 56.4388 65.0495 55.8555 65.3867C55.2767 65.724 54.8324 66.2002 54.5225 66.8154C54.2171 67.4307 54.0645 68.1598 54.0645 69.0029C54.0645 69.8369 54.1989 70.5638 54.4678 71.1836C54.7367 71.7988 55.1559 72.2773 55.7256 72.6191C56.2952 72.9609 57.029 73.1318 57.9268 73.1318C58.3779 73.1318 58.7653 73.1068 59.0889 73.0566C59.4124 73.002 59.7064 72.9382 59.9707 72.8652V69.8027H57.6396V68.7637ZM66.9461 66.3711C67.0965 66.3711 67.2537 66.3802 67.4178 66.3984C67.5819 66.4121 67.7277 66.4326 67.8553 66.46L67.7118 67.5127C67.5887 67.4808 67.452 67.4557 67.3016 67.4375C67.1512 67.4193 67.0099 67.4102 66.8778 67.4102C66.577 67.4102 66.2922 67.4717 66.0233 67.5947C65.759 67.7132 65.5265 67.8864 65.326 68.1143C65.1255 68.3376 64.9683 68.6087 64.8543 68.9277C64.7404 69.2422 64.6834 69.5931 64.6834 69.9805V74H63.5418V66.5078H64.4852L64.6082 67.8887H64.6561C64.811 67.6107 64.9979 67.3577 65.2166 67.1299C65.4354 66.8975 65.6883 66.7129 65.9754 66.5762C66.2671 66.4395 66.5907 66.3711 66.9461 66.3711ZM75.8903 70.2402C75.8903 70.8555 75.8106 71.4046 75.6511 71.8877C75.4915 72.3708 75.2614 72.7786 74.9606 73.1113C74.6598 73.444 74.2953 73.6992 73.8669 73.877C73.443 74.0501 72.9623 74.1367 72.4245 74.1367C71.9232 74.1367 71.4629 74.0501 71.0436 73.877C70.6289 73.6992 70.2689 73.444 69.9636 73.1113C69.6628 72.7786 69.4281 72.3708 69.2595 71.8877C69.0954 71.4046 69.0134 70.8555 69.0134 70.2402C69.0134 69.4199 69.1524 68.7227 69.4304 68.1484C69.7083 67.5697 70.1048 67.1299 70.6198 66.8291C71.1393 66.5238 71.7568 66.3711 72.4723 66.3711C73.1559 66.3711 73.7529 66.5238 74.2634 66.8291C74.7783 67.1344 75.1771 67.5765 75.4596 68.1553C75.7468 68.7295 75.8903 69.4245 75.8903 70.2402ZM70.1891 70.2402C70.1891 70.8418 70.2689 71.3636 70.4284 71.8057C70.5879 72.2477 70.834 72.5895 71.1667 72.8311C71.4994 73.0726 71.9277 73.1934 72.4518 73.1934C72.9714 73.1934 73.3975 73.0726 73.7302 72.8311C74.0674 72.5895 74.3158 72.2477 74.4753 71.8057C74.6348 71.3636 74.7145 70.8418 74.7145 70.2402C74.7145 69.6432 74.6348 69.1283 74.4753 68.6953C74.3158 68.2578 74.0697 67.9206 73.737 67.6836C73.4043 67.4466 72.9736 67.3281 72.445 67.3281C71.6657 67.3281 71.0938 67.5856 70.7292 68.1006C70.3692 68.6156 70.1891 69.3288 70.1891 70.2402ZM84.1987 66.5078V74H83.2691L83.105 72.9473H83.0435C82.8885 73.207 82.688 73.4258 82.4419 73.6035C82.1958 73.7812 81.9178 73.9134 81.6079 74C81.3026 74.0911 80.9767 74.1367 80.6304 74.1367C80.0379 74.1367 79.5412 74.041 79.1402 73.8496C78.7391 73.6582 78.4361 73.362 78.231 72.9609C78.0305 72.5599 77.9302 72.0449 77.9302 71.416V66.5078H79.0786V71.334C79.0786 71.9583 79.2199 72.4255 79.5025 72.7354C79.785 73.0407 80.2157 73.1934 80.7945 73.1934C81.3504 73.1934 81.7925 73.0885 82.1206 72.8789C82.4533 72.6693 82.6926 72.3617 82.8384 71.9561C82.9842 71.5459 83.0571 71.0446 83.0571 70.4521V66.5078H84.1987ZM90.2787 66.3711C91.2129 66.3711 91.958 66.6924 92.514 67.335C93.07 67.9775 93.348 68.9437 93.348 70.2334C93.348 71.0856 93.2204 71.8011 92.9652 72.3799C92.71 72.9587 92.35 73.3962 91.8851 73.6924C91.4248 73.9886 90.8802 74.1367 90.2513 74.1367C89.8548 74.1367 89.5062 74.0843 89.2054 73.9795C88.9046 73.8747 88.6472 73.7334 88.433 73.5557C88.2188 73.3779 88.041 73.1842 87.8998 72.9746H87.8177C87.8314 73.1523 87.8474 73.3665 87.8656 73.6172C87.8884 73.8678 87.8998 74.0866 87.8998 74.2734V77.3496H86.7582V66.5078H87.6947L87.8451 67.6152H87.8998C88.0456 67.3874 88.2233 67.18 88.433 66.9932C88.6426 66.8018 88.8978 66.6514 89.1986 66.542C89.5039 66.4281 89.864 66.3711 90.2787 66.3711ZM90.0804 67.3281C89.5609 67.3281 89.1416 67.4284 88.8226 67.6289C88.5082 67.8294 88.278 68.1302 88.1322 68.5312C87.9864 68.9277 87.9089 69.4268 87.8998 70.0283V70.2471C87.8998 70.8805 87.9681 71.416 88.1048 71.8535C88.2461 72.291 88.4763 72.6237 88.7953 72.8516C89.1188 73.0794 89.5518 73.1934 90.0941 73.1934C90.5589 73.1934 90.9463 73.068 91.2562 72.8174C91.5661 72.5667 91.7962 72.2181 91.9466 71.7715C92.1016 71.3203 92.1791 70.8031 92.1791 70.2197C92.1791 69.3356 92.0059 68.6338 91.6595 68.1143C91.3177 67.5902 90.7914 67.3281 90.0804 67.3281ZM101.707 73.207C101.894 73.207 102.085 73.1911 102.281 73.1592C102.477 73.1273 102.637 73.0885 102.76 73.043V73.9248C102.628 73.984 102.443 74.0342 102.206 74.0752C101.974 74.1162 101.746 74.1367 101.522 74.1367C101.126 74.1367 100.766 74.0684 100.442 73.9316C100.119 73.7904 99.8591 73.5534 99.6631 73.2207C99.4717 72.888 99.376 72.4277 99.376 71.8398V67.3965H98.3096V66.8428L99.3829 66.3984L99.834 64.7715H100.518V66.5078H102.712V67.3965H100.518V71.8057C100.518 72.2751 100.625 72.626 100.839 72.8584C101.058 73.0908 101.347 73.207 101.707 73.207ZM105.572 66.5078V74H104.437V66.5078H105.572ZM105.018 63.7051C105.205 63.7051 105.365 63.7666 105.497 63.8896C105.634 64.0081 105.702 64.195 105.702 64.4502C105.702 64.7008 105.634 64.8877 105.497 65.0107C105.365 65.1338 105.205 65.1953 105.018 65.1953C104.822 65.1953 104.658 65.1338 104.526 65.0107C104.399 64.8877 104.335 64.7008 104.335 64.4502C104.335 64.195 104.399 64.0081 104.526 63.8896C104.658 63.7666 104.822 63.7051 105.018 63.7051ZM110.558 73.207C110.745 73.207 110.937 73.1911 111.133 73.1592C111.329 73.1273 111.488 73.0885 111.611 73.043V73.9248C111.479 73.984 111.294 74.0342 111.057 74.0752C110.825 74.1162 110.597 74.1367 110.374 74.1367C109.977 74.1367 109.617 74.0684 109.294 73.9316C108.97 73.7904 108.71 73.5534 108.514 73.2207C108.323 72.888 108.227 72.4277 108.227 71.8398V67.3965H107.161V66.8428L108.234 66.3984L108.685 64.7715H109.369V66.5078H111.563V67.3965H109.369V71.8057C109.369 72.2751 109.476 72.626 109.69 72.8584C109.909 73.0908 110.198 73.207 110.558 73.207ZM114.43 74H113.289V63.3633H114.43V74ZM119.874 66.3711C120.512 66.3711 121.059 66.5124 121.515 66.7949C121.971 67.0775 122.319 67.474 122.561 67.9844C122.802 68.4902 122.923 69.0827 122.923 69.7617V70.4658H117.748C117.762 71.3454 117.981 72.0153 118.405 72.4756C118.829 72.9359 119.426 73.166 120.196 73.166C120.67 73.166 121.089 73.1227 121.454 73.0361C121.818 72.9495 122.196 72.8219 122.588 72.6533V73.6514C122.21 73.82 121.834 73.943 121.46 74.0205C121.091 74.098 120.654 74.1367 120.148 74.1367C119.428 74.1367 118.799 73.9909 118.261 73.6992C117.728 73.403 117.313 72.9701 117.017 72.4004C116.721 71.8307 116.573 71.1335 116.573 70.3086C116.573 69.502 116.707 68.8047 116.976 68.2168C117.249 67.6243 117.632 67.1686 118.124 66.8496C118.621 66.5306 119.204 66.3711 119.874 66.3711ZM119.861 67.3008C119.255 67.3008 118.772 67.499 118.412 67.8955C118.051 68.292 117.837 68.8457 117.769 69.5566H121.734C121.729 69.11 121.659 68.7181 121.522 68.3809C121.39 68.0391 121.187 67.7747 120.913 67.5879C120.64 67.3965 120.289 67.3008 119.861 67.3008Z" fill="white"/>
<path d="M41 49.5H241C243.485 49.5 245.5 51.5147 245.5 54V88.5H36.5V54C36.5 51.5147 38.5147 49.5 41 49.5Z" stroke="#00378F"/>
<path d="M41 49.5H241C243.485 49.5 245.5 51.5147 245.5 54V88.5H36.5V54C36.5 51.5147 38.5147 49.5 41 49.5Z" fill="#00378F"/>
<path d="M55.9785 64.0059C57.2682 64.0059 58.2093 64.2588 58.8018 64.7646C59.3988 65.266 59.6973 65.986 59.6973 66.9248C59.6973 67.3486 59.6266 67.752 59.4854 68.1348C59.3486 68.513 59.1253 68.848 58.8154 69.1396C58.5055 69.4268 58.0977 69.6546 57.5918 69.8232C57.0905 69.9873 56.4753 70.0693 55.7461 70.0693H54.5293V74H53.3672V64.0059H55.9785ZM55.8691 64.9971H54.5293V69.0713H55.6162C56.2542 69.0713 56.7852 69.0029 57.209 68.8662C57.6374 68.7295 57.9587 68.5085 58.1729 68.2031C58.387 67.8932 58.4941 67.4831 58.4941 66.9727C58.4941 66.3073 58.2822 65.8128 57.8584 65.4893C57.4346 65.1611 56.7715 64.9971 55.8691 64.9971ZM64.5809 66.3848C65.4741 66.3848 66.1372 66.5853 66.5702 66.9863C67.0031 67.3874 67.2196 68.0277 67.2196 68.9072V74H66.3924L66.1737 72.8926H66.119C65.9093 73.166 65.6906 73.3962 65.4627 73.583C65.2349 73.7653 64.9705 73.9043 64.6698 74C64.3735 74.0911 64.009 74.1367 63.576 74.1367C63.1203 74.1367 62.7147 74.057 62.3592 73.8975C62.0083 73.738 61.7303 73.4964 61.5252 73.1729C61.3247 72.8493 61.2245 72.4391 61.2245 71.9424C61.2245 71.195 61.5207 70.6208 62.1131 70.2197C62.7056 69.8187 63.6079 69.5999 64.8202 69.5635L66.1121 69.5088V69.0508C66.1121 68.4036 65.9732 67.9502 65.6952 67.6904C65.4172 67.4307 65.0252 67.3008 64.5194 67.3008C64.1274 67.3008 63.7537 67.3577 63.3983 67.4717C63.0428 67.5856 62.7056 67.7201 62.3866 67.875L62.0379 67.0137C62.3752 66.8405 62.7625 66.6924 63.2 66.5693C63.6375 66.4463 64.0978 66.3848 64.5809 66.3848ZM66.0985 70.3086L64.9569 70.3564C64.0226 70.3929 63.3641 70.5456 62.9813 70.8145C62.5985 71.0833 62.4071 71.4639 62.4071 71.9561C62.4071 72.3844 62.537 72.7012 62.7967 72.9062C63.0565 73.1113 63.4006 73.2139 63.8289 73.2139C64.4943 73.2139 65.0389 73.0293 65.4627 72.6602C65.8866 72.291 66.0985 71.7373 66.0985 70.999V70.3086ZM73.1218 66.3711C73.2721 66.3711 73.4294 66.3802 73.5934 66.3984C73.7575 66.4121 73.9033 66.4326 74.0309 66.46L73.8874 67.5127C73.7643 67.4808 73.6276 67.4557 73.4772 67.4375C73.3268 67.4193 73.1856 67.4102 73.0534 67.4102C72.7526 67.4102 72.4678 67.4717 72.1989 67.5947C71.9346 67.7132 71.7022 67.8864 71.5016 68.1143C71.3011 68.3376 71.1439 68.6087 71.03 68.9277C70.916 69.2422 70.8591 69.5931 70.8591 69.9805V74H69.7175V66.5078H70.6608L70.7839 67.8887H70.8317C70.9867 67.6107 71.1735 67.3577 71.3923 67.1299C71.611 66.8975 71.8639 66.7129 72.1511 66.5762C72.4427 66.4395 72.7663 66.3711 73.1218 66.3711ZM78.4907 66.3711C79.1288 66.3711 79.6756 66.5124 80.1314 66.7949C80.5871 67.0775 80.9357 67.474 81.1773 67.9844C81.4188 68.4902 81.5396 69.0827 81.5396 69.7617V70.4658H76.3648C76.3784 71.3454 76.5972 72.0153 77.021 72.4756C77.4448 72.9359 78.0418 73.166 78.812 73.166C79.286 73.166 79.7053 73.1227 80.0698 73.0361C80.4344 72.9495 80.8127 72.8219 81.2046 72.6533V73.6514C80.8264 73.82 80.4504 73.943 80.0767 74.0205C79.7075 74.098 79.27 74.1367 78.7642 74.1367C78.0441 74.1367 77.4152 73.9909 76.8775 73.6992C76.3443 73.403 75.9295 72.9701 75.6333 72.4004C75.3371 71.8307 75.189 71.1335 75.189 70.3086C75.189 69.502 75.3234 68.8047 75.5923 68.2168C75.8657 67.6243 76.2486 67.1686 76.7407 66.8496C77.2375 66.5306 77.8208 66.3711 78.4907 66.3711ZM78.4771 67.3008C77.871 67.3008 77.3879 67.499 77.0279 67.8955C76.6678 68.292 76.4536 68.8457 76.3853 69.5566H80.3501C80.3456 69.11 80.2749 68.7181 80.1382 68.3809C80.006 68.0391 79.8032 67.7747 79.5298 67.5879C79.2564 67.3965 78.9055 67.3008 78.4771 67.3008ZM87.1752 66.3711C88.0638 66.3711 88.736 66.5898 89.1918 67.0273C89.6475 67.4603 89.8754 68.1576 89.8754 69.1191V74H88.7543V69.1943C88.7543 68.57 88.6107 68.1029 88.3236 67.793C88.041 67.4831 87.6058 67.3281 87.0179 67.3281C86.1885 67.3281 85.6052 67.5628 85.2679 68.0322C84.9307 68.5016 84.7621 69.1829 84.7621 70.0762V74H83.6273V66.5078H84.5433L84.7142 67.5879H84.7757C84.9352 67.3236 85.138 67.1025 85.3841 66.9248C85.6302 66.7425 85.9059 66.6058 86.2113 66.5146C86.5166 66.4189 86.8379 66.3711 87.1752 66.3711ZM94.7932 73.207C94.98 73.207 95.1714 73.1911 95.3674 73.1592C95.5633 73.1273 95.7229 73.0885 95.8459 73.043V73.9248C95.7137 73.984 95.5292 74.0342 95.2922 74.0752C95.0598 74.1162 94.8319 74.1367 94.6086 74.1367C94.2121 74.1367 93.8521 74.0684 93.5285 73.9316C93.2049 73.7904 92.9452 73.5534 92.7492 73.2207C92.5578 72.888 92.4621 72.4277 92.4621 71.8398V67.3965H91.3957V66.8428L92.4689 66.3984L92.9201 64.7715H93.6037V66.5078H95.798V67.3965H93.6037V71.8057C93.6037 72.2751 93.7108 72.626 93.925 72.8584C94.1437 73.0908 94.4331 73.207 94.7932 73.207ZM104.841 66.3711C105.775 66.3711 106.52 66.6924 107.076 67.335C107.632 67.9775 107.91 68.9437 107.91 70.2334C107.91 71.0856 107.782 71.8011 107.527 72.3799C107.272 72.9587 106.912 73.3962 106.447 73.6924C105.987 73.9886 105.442 74.1367 104.813 74.1367C104.417 74.1367 104.068 74.0843 103.767 73.9795C103.467 73.8747 103.209 73.7334 102.995 73.5557C102.781 73.3779 102.603 73.1842 102.462 72.9746H102.38C102.393 73.1523 102.409 73.3665 102.428 73.6172C102.45 73.8678 102.462 74.0866 102.462 74.2734V77.3496H101.32V66.5078H102.257L102.407 67.6152H102.462C102.608 67.3874 102.785 67.18 102.995 66.9932C103.205 66.8018 103.46 66.6514 103.761 66.542C104.066 66.4281 104.426 66.3711 104.841 66.3711ZM104.642 67.3281C104.123 67.3281 103.704 67.4284 103.385 67.6289C103.07 67.8294 102.84 68.1302 102.694 68.5312C102.548 68.9277 102.471 69.4268 102.462 70.0283V70.2471C102.462 70.8805 102.53 71.416 102.667 71.8535C102.808 72.291 103.038 72.6237 103.357 72.8516C103.681 73.0794 104.114 73.1934 104.656 73.1934C105.121 73.1934 105.508 73.068 105.818 72.8174C106.128 72.5667 106.358 72.2181 106.509 71.7715C106.664 71.3203 106.741 70.8031 106.741 70.2197C106.741 69.3356 106.568 68.6338 106.222 68.1143C105.88 67.5902 105.353 67.3281 104.642 67.3281ZM113.457 66.3711C113.607 66.3711 113.764 66.3802 113.928 66.3984C114.092 66.4121 114.238 66.4326 114.366 66.46L114.222 67.5127C114.099 67.4808 113.963 67.4557 113.812 67.4375C113.662 67.4193 113.521 67.4102 113.388 67.4102C113.088 67.4102 112.803 67.4717 112.534 67.5947C112.27 67.7132 112.037 67.8864 111.837 68.1143C111.636 68.3376 111.479 68.6087 111.365 68.9277C111.251 69.2422 111.194 69.5931 111.194 69.9805V74H110.052V66.5078H110.996L111.119 67.8887H111.167C111.322 67.6107 111.509 67.3577 111.727 67.1299C111.946 66.8975 112.199 66.7129 112.486 66.5762C112.778 66.4395 113.101 66.3711 113.457 66.3711ZM122.401 70.2402C122.401 70.8555 122.321 71.4046 122.162 71.8877C122.002 72.3708 121.772 72.7786 121.471 73.1113C121.17 73.444 120.806 73.6992 120.377 73.877C119.954 74.0501 119.473 74.1367 118.935 74.1367C118.434 74.1367 117.974 74.0501 117.554 73.877C117.14 73.6992 116.78 73.444 116.474 73.1113C116.173 72.7786 115.939 72.3708 115.77 71.8877C115.606 71.4046 115.524 70.8555 115.524 70.2402C115.524 69.4199 115.663 68.7227 115.941 68.1484C116.219 67.5697 116.615 67.1299 117.13 66.8291C117.65 66.5238 118.267 66.3711 118.983 66.3711C119.667 66.3711 120.264 66.5238 120.774 66.8291C121.289 67.1344 121.688 67.5765 121.97 68.1553C122.257 68.7295 122.401 69.4245 122.401 70.2402ZM116.7 70.2402C116.7 70.8418 116.78 71.3636 116.939 71.8057C117.099 72.2477 117.345 72.5895 117.677 72.8311C118.01 73.0726 118.438 73.1934 118.962 73.1934C119.482 73.1934 119.908 73.0726 120.241 72.8311C120.578 72.5895 120.826 72.2477 120.986 71.8057C121.145 71.3636 121.225 70.8418 121.225 70.2402C121.225 69.6432 121.145 69.1283 120.986 68.6953C120.826 68.2578 120.58 67.9206 120.248 67.6836C119.915 67.4466 119.484 67.3281 118.956 67.3281C118.176 67.3281 117.604 67.5856 117.24 68.1006C116.88 68.6156 116.7 69.3288 116.7 70.2402ZM123.621 77.3633C123.388 77.3633 123.185 77.3451 123.012 77.3086C122.839 77.2767 122.689 77.238 122.561 77.1924V76.2695C122.702 76.3151 122.846 76.3493 122.992 76.3721C123.137 76.3994 123.301 76.4131 123.484 76.4131C123.794 76.4131 124.044 76.3265 124.236 76.1533C124.427 75.9801 124.523 75.6657 124.523 75.21V66.5078H125.658V75.1826C125.658 75.6383 125.585 76.028 125.439 76.3516C125.293 76.6797 125.07 76.9303 124.769 77.1035C124.468 77.2767 124.085 77.3633 123.621 77.3633ZM124.42 64.4502C124.42 64.195 124.484 64.0081 124.612 63.8896C124.744 63.7666 124.908 63.7051 125.104 63.7051C125.291 63.7051 125.45 63.7666 125.582 63.8896C125.719 64.0081 125.787 64.195 125.787 64.4502C125.787 64.7008 125.719 64.8877 125.582 65.0107C125.45 65.1338 125.291 65.1953 125.104 65.1953C124.908 65.1953 124.744 65.1338 124.612 65.0107C124.484 64.8877 124.42 64.7008 124.42 64.4502ZM131.109 66.3711C131.747 66.3711 132.294 66.5124 132.749 66.7949C133.205 67.0775 133.554 67.474 133.795 67.9844C134.037 68.4902 134.157 69.0827 134.157 69.7617V70.4658H128.983C128.996 71.3454 129.215 72.0153 129.639 72.4756C130.063 72.9359 130.66 73.166 131.43 73.166C131.904 73.166 132.323 73.1227 132.688 73.0361C133.052 72.9495 133.431 72.8219 133.823 72.6533V73.6514C133.444 73.82 133.068 73.943 132.695 74.0205C132.325 74.098 131.888 74.1367 131.382 74.1367C130.662 74.1367 130.033 73.9909 129.495 73.6992C128.962 73.403 128.547 72.9701 128.251 72.4004C127.955 71.8307 127.807 71.1335 127.807 70.3086C127.807 69.502 127.941 68.8047 128.21 68.2168C128.484 67.6243 128.866 67.1686 129.359 66.8496C129.855 66.5306 130.439 66.3711 131.109 66.3711ZM131.095 67.3008C130.489 67.3008 130.006 67.499 129.646 67.8955C129.286 68.292 129.072 68.8457 129.003 69.5566H132.968C132.963 69.11 132.893 68.7181 132.756 68.3809C132.624 68.0391 132.421 67.7747 132.148 67.5879C131.874 67.3965 131.523 67.3008 131.095 67.3008ZM139.246 74.1367C138.572 74.1367 137.977 73.9977 137.462 73.7197C136.947 73.4417 136.546 73.0179 136.259 72.4482C135.972 71.8786 135.828 71.1608 135.828 70.2949C135.828 69.388 135.979 68.6475 136.279 68.0732C136.585 67.4945 137.004 67.0661 137.537 66.7881C138.07 66.5101 138.677 66.3711 139.356 66.3711C139.729 66.3711 140.089 66.4098 140.436 66.4873C140.787 66.5602 141.074 66.6536 141.297 66.7676L140.955 67.7178C140.727 67.6266 140.463 67.5446 140.162 67.4717C139.866 67.3988 139.588 67.3623 139.328 67.3623C138.809 67.3623 138.376 67.474 138.029 67.6973C137.688 67.9206 137.43 68.2487 137.257 68.6816C137.088 69.1146 137.004 69.6478 137.004 70.2812C137.004 70.8874 137.086 71.4046 137.25 71.833C137.419 72.2614 137.667 72.5895 137.995 72.8174C138.328 73.0407 138.743 73.1523 139.239 73.1523C139.636 73.1523 139.994 73.1113 140.313 73.0293C140.632 72.9427 140.921 72.8424 141.181 72.7285V73.7402C140.93 73.8678 140.65 73.9658 140.34 74.0342C140.035 74.1025 139.67 74.1367 139.246 74.1367ZM145.538 73.207C145.725 73.207 145.916 73.1911 146.112 73.1592C146.308 73.1273 146.468 73.0885 146.591 73.043V73.9248C146.459 73.984 146.274 74.0342 146.037 74.0752C145.805 74.1162 145.577 74.1367 145.353 74.1367C144.957 74.1367 144.597 74.0684 144.273 73.9316C143.95 73.7904 143.69 73.5534 143.494 73.2207C143.303 72.888 143.207 72.4277 143.207 71.8398V67.3965H142.141V66.8428L143.214 66.3984L143.665 64.7715H144.349V66.5078H146.543V67.3965H144.349V71.8057C144.349 72.2751 144.456 72.626 144.67 72.8584C144.889 73.0908 145.178 73.207 145.538 73.207Z" fill="white"/>
<path d="M41 49.5H241C243.485 49.5 245.5 51.5147 245.5 54V88.5H36.5V54C36.5 51.5147 38.5147 49.5 41 49.5Z" stroke="#00378F"/>
<path d="M51 99.5H109.5V162.5H51C48.5147 162.5 46.5 160.485 46.5 158V104C46.5 101.515 48.5147 99.5 51 99.5Z" fill="#82A4D9" stroke="#82A4D9"/>
<path d="M89.3902 143.014H66.6222C66.2786 143.014 66 142.808 66 142.553V119.462C66 119.207 66.2786 119.001 66.6222 119.001H81.0797C81.245 119.001 81.4026 119.049 81.5197 119.136L89.8302 125.311C89.9461 125.398 90.0125 125.515 90.0125 125.638V142.552C90.0125 142.807 89.7339 143.013 89.3902 143.013V143.014ZM67.2432 142.09H88.7693V125.828L80.8233 119.925H67.2432V142.09Z" fill="white"/>
<path d="M89.3903 126.099H81.0785C80.7361 126.099 80.4575 125.893 80.4575 125.638V119.462C80.4575 119.275 80.6085 119.107 80.8415 119.036C81.0733 118.963 81.3401 119.004 81.5198 119.136L89.8316 125.311C90.0086 125.443 90.062 125.642 89.9657 125.815C89.8693 125.988 89.6428 126.1 89.3916 126.1L89.3903 126.099ZM81.7007 125.176H87.8893L81.7007 120.577V125.176Z" fill="white"/>
<path d="M110.5 99.5H217C219.485 99.5 221.5 101.515 221.5 104V158C221.5 160.485 219.485 162.5 217 162.5H110.5V99.5Z" fill="white"/>
<path d="M138.437 136H137.268V127.031H134.123V126.006H141.567V127.031H138.437V136ZM145.952 128.371C146.59 128.371 147.137 128.512 147.593 128.795C148.048 129.077 148.397 129.474 148.639 129.984C148.88 130.49 149.001 131.083 149.001 131.762V132.466H143.826C143.84 133.345 144.058 134.015 144.482 134.476C144.906 134.936 145.503 135.166 146.273 135.166C146.747 135.166 147.167 135.123 147.531 135.036C147.896 134.95 148.274 134.822 148.666 134.653V135.651C148.288 135.82 147.912 135.943 147.538 136.021C147.169 136.098 146.731 136.137 146.225 136.137C145.505 136.137 144.876 135.991 144.339 135.699C143.806 135.403 143.391 134.97 143.095 134.4C142.798 133.831 142.65 133.133 142.65 132.309C142.65 131.502 142.785 130.805 143.054 130.217C143.327 129.624 143.71 129.169 144.202 128.85C144.699 128.531 145.282 128.371 145.952 128.371ZM145.938 129.301C145.332 129.301 144.849 129.499 144.489 129.896C144.129 130.292 143.915 130.846 143.847 131.557H147.811C147.807 131.11 147.736 130.718 147.599 130.381C147.467 130.039 147.264 129.775 146.991 129.588C146.718 129.396 146.367 129.301 145.938 129.301ZM155.935 133.949C155.935 134.428 155.814 134.831 155.573 135.159C155.336 135.483 154.994 135.727 154.548 135.891C154.105 136.055 153.577 136.137 152.962 136.137C152.438 136.137 151.984 136.096 151.601 136.014C151.218 135.932 150.883 135.815 150.596 135.665V134.619C150.902 134.77 151.266 134.906 151.69 135.029C152.114 135.152 152.547 135.214 152.989 135.214C153.636 135.214 154.105 135.109 154.397 134.899C154.689 134.69 154.835 134.405 154.835 134.045C154.835 133.84 154.775 133.66 154.657 133.505C154.543 133.345 154.349 133.193 154.076 133.047C153.802 132.896 153.424 132.732 152.941 132.555C152.463 132.372 152.048 132.192 151.697 132.015C151.351 131.832 151.082 131.611 150.89 131.352C150.703 131.092 150.61 130.755 150.61 130.34C150.61 129.706 150.865 129.221 151.376 128.884C151.891 128.542 152.565 128.371 153.399 128.371C153.85 128.371 154.272 128.417 154.664 128.508C155.06 128.594 155.429 128.713 155.771 128.863L155.388 129.772C155.078 129.64 154.748 129.529 154.397 129.438C154.046 129.346 153.688 129.301 153.324 129.301C152.8 129.301 152.396 129.387 152.114 129.561C151.836 129.734 151.697 129.971 151.697 130.271C151.697 130.504 151.761 130.695 151.888 130.846C152.021 130.996 152.23 131.137 152.517 131.27C152.804 131.402 153.183 131.557 153.652 131.734C154.121 131.908 154.527 132.088 154.869 132.274C155.211 132.457 155.473 132.68 155.655 132.944C155.842 133.204 155.935 133.539 155.935 133.949ZM160.34 135.207C160.527 135.207 160.719 135.191 160.915 135.159C161.111 135.127 161.27 135.089 161.393 135.043V135.925C161.261 135.984 161.076 136.034 160.839 136.075C160.607 136.116 160.379 136.137 160.156 136.137C159.759 136.137 159.399 136.068 159.076 135.932C158.752 135.79 158.492 135.553 158.296 135.221C158.105 134.888 158.009 134.428 158.009 133.84V129.396H156.943V128.843L158.016 128.398L158.467 126.771H159.151V128.508H161.345V129.396H159.151V133.806C159.151 134.275 159.258 134.626 159.472 134.858C159.691 135.091 159.98 135.207 160.34 135.207ZM169.868 136.137C169.194 136.137 168.599 135.998 168.084 135.72C167.569 135.442 167.168 135.018 166.881 134.448C166.594 133.879 166.45 133.161 166.45 132.295C166.45 131.388 166.601 130.647 166.902 130.073C167.207 129.494 167.626 129.066 168.159 128.788C168.693 128.51 169.299 128.371 169.978 128.371C170.351 128.371 170.711 128.41 171.058 128.487C171.409 128.56 171.696 128.654 171.919 128.768L171.577 129.718C171.349 129.627 171.085 129.545 170.784 129.472C170.488 129.399 170.21 129.362 169.95 129.362C169.431 129.362 168.998 129.474 168.652 129.697C168.31 129.921 168.052 130.249 167.879 130.682C167.71 131.115 167.626 131.648 167.626 132.281C167.626 132.887 167.708 133.405 167.872 133.833C168.041 134.261 168.289 134.59 168.617 134.817C168.95 135.041 169.365 135.152 169.862 135.152C170.258 135.152 170.616 135.111 170.935 135.029C171.254 134.943 171.543 134.842 171.803 134.729V135.74C171.552 135.868 171.272 135.966 170.962 136.034C170.657 136.103 170.292 136.137 169.868 136.137ZM180.2 132.24C180.2 132.855 180.12 133.405 179.961 133.888C179.801 134.371 179.571 134.779 179.271 135.111C178.97 135.444 178.605 135.699 178.177 135.877C177.753 136.05 177.272 136.137 176.734 136.137C176.233 136.137 175.773 136.05 175.354 135.877C174.939 135.699 174.579 135.444 174.273 135.111C173.973 134.779 173.738 134.371 173.569 133.888C173.405 133.405 173.323 132.855 173.323 132.24C173.323 131.42 173.462 130.723 173.74 130.148C174.018 129.57 174.415 129.13 174.93 128.829C175.449 128.524 176.067 128.371 176.782 128.371C177.466 128.371 178.063 128.524 178.573 128.829C179.088 129.134 179.487 129.576 179.77 130.155C180.057 130.729 180.2 131.424 180.2 132.24ZM174.499 132.24C174.499 132.842 174.579 133.364 174.738 133.806C174.898 134.248 175.144 134.59 175.477 134.831C175.809 135.073 176.238 135.193 176.762 135.193C177.281 135.193 177.707 135.073 178.04 134.831C178.377 134.59 178.626 134.248 178.785 133.806C178.945 133.364 179.024 132.842 179.024 132.24C179.024 131.643 178.945 131.128 178.785 130.695C178.626 130.258 178.38 129.921 178.047 129.684C177.714 129.447 177.284 129.328 176.755 129.328C175.976 129.328 175.404 129.586 175.039 130.101C174.679 130.616 174.499 131.329 174.499 132.24ZM184.988 136.137C184.04 136.137 183.288 135.813 182.732 135.166C182.181 134.519 181.905 133.557 181.905 132.281C181.905 130.992 182.188 130.019 182.753 129.362C183.318 128.701 184.07 128.371 185.009 128.371C185.405 128.371 185.752 128.424 186.048 128.528C186.344 128.633 186.599 128.774 186.813 128.952C187.028 129.125 187.208 129.324 187.353 129.547H187.435C187.417 129.406 187.399 129.212 187.381 128.966C187.363 128.72 187.353 128.519 187.353 128.364V125.363H188.488V136H187.572L187.401 134.934H187.353C187.212 135.157 187.032 135.36 186.813 135.542C186.599 135.724 186.342 135.87 186.041 135.979C185.745 136.084 185.394 136.137 184.988 136.137ZM185.166 135.193C185.968 135.193 186.535 134.965 186.868 134.51C187.201 134.054 187.367 133.377 187.367 132.479V132.274C187.367 131.322 187.208 130.59 186.889 130.08C186.574 129.57 186 129.314 185.166 129.314C184.469 129.314 183.947 129.583 183.6 130.121C183.254 130.654 183.081 131.383 183.081 132.309C183.081 133.229 183.252 133.94 183.594 134.441C183.94 134.943 184.464 135.193 185.166 135.193ZM193.939 128.371C194.577 128.371 195.124 128.512 195.58 128.795C196.036 129.077 196.384 129.474 196.626 129.984C196.867 130.49 196.988 131.083 196.988 131.762V132.466H191.813C191.827 133.345 192.046 134.015 192.469 134.476C192.893 134.936 193.49 135.166 194.26 135.166C194.734 135.166 195.154 135.123 195.518 135.036C195.883 134.95 196.261 134.822 196.653 134.653V135.651C196.275 135.82 195.899 135.943 195.525 136.021C195.156 136.098 194.718 136.137 194.213 136.137C193.493 136.137 192.864 135.991 192.326 135.699C191.793 135.403 191.378 134.97 191.082 134.4C190.786 133.831 190.637 133.133 190.637 132.309C190.637 131.502 190.772 130.805 191.041 130.217C191.314 129.624 191.697 129.169 192.189 128.85C192.686 128.531 193.269 128.371 193.939 128.371ZM193.926 129.301C193.319 129.301 192.836 129.499 192.476 129.896C192.116 130.292 191.902 130.846 191.834 131.557H195.799C195.794 131.11 195.723 130.718 195.587 130.381C195.454 130.039 195.252 129.775 194.978 129.588C194.705 129.396 194.354 129.301 193.926 129.301Z" fill="black"/>
<path d="M110.5 99.5H217C219.485 99.5 221.5 101.515 221.5 104V158C221.5 160.485 219.485 162.5 217 162.5H110.5V99.5Z" stroke="#82A4D9"/>
<path d="M52 169.5H110.5V232.5H52C49.5147 232.5 47.5 230.485 47.5 228V174C47.5 171.515 49.5147 169.5 52 169.5Z" fill="#82A4D9" stroke="#82A4D9"/>
<path d="M90.4122 210.989H87.6993C87.3668 210.989 87.0973 210.782 87.0973 210.527V197.311L80.1136 191.947H70.3137C69.9824 191.947 69.7129 191.74 69.7129 191.485V189.461C69.7129 189.206 69.9824 189 70.3137 189H90.4122C90.7435 189 91.013 189.206 91.013 189.461V210.527C91.013 210.782 90.7435 210.989 90.4122 210.989V210.989ZM88.3001 210.066H89.8102V189.923H70.9157V191.024H80.3642C80.5229 191.024 80.6766 191.073 80.7886 191.159L88.1238 196.793C88.2359 196.881 88.3001 196.998 88.3001 197.119V210.066Z" fill="white"/>
<path d="M87.6993 213.014H67.6008C67.2695 213.014 67 212.808 67 212.553V191.485C67 191.23 67.2695 191.024 67.6008 191.024H80.3629C80.5216 191.024 80.6753 191.073 80.7874 191.159L88.1225 196.794C88.2346 196.881 88.2989 196.998 88.2989 197.119V212.552C88.2989 212.807 88.0293 213.013 87.6981 213.013L87.6993 213.014ZM68.2028 212.09H87.0973V197.311L80.1136 191.947H68.2015V212.09H68.2028Z" fill="white"/>
<path d="M87.6994 197.582H80.363C80.0305 197.582 79.761 197.375 79.761 197.119V191.485C79.761 191.298 79.9071 191.13 80.1325 191.058C80.3567 190.986 80.6162 191.026 80.7887 191.158L88.1251 196.793C88.2977 196.925 88.348 197.123 88.2548 197.296C88.1616 197.47 87.9425 197.582 87.6994 197.582ZM80.9638 196.658H86.2472L80.9638 192.6V196.658Z" fill="white"/>
<path d="M111.5 169.5H183C185.485 169.5 187.5 171.515 187.5 174V228C187.5 230.485 185.485 232.5 183 232.5H111.5V169.5Z" fill="white"/>
<path d="M145.035 200.989C145.035 201.759 144.937 202.461 144.741 203.095C144.545 203.724 144.254 204.266 143.866 204.722C143.483 205.173 143.007 205.521 142.438 205.768C141.868 206.014 141.207 206.137 140.455 206.137C139.68 206.137 139.004 206.014 138.425 205.768C137.851 205.521 137.372 205.171 136.989 204.715C136.611 204.259 136.326 203.715 136.135 203.081C135.948 202.448 135.854 201.746 135.854 200.976C135.854 199.955 136.023 199.059 136.36 198.289C136.698 197.519 137.208 196.92 137.892 196.491C138.58 196.063 139.441 195.849 140.476 195.849C141.465 195.849 142.296 196.061 142.971 196.484C143.65 196.908 144.162 197.505 144.509 198.275C144.86 199.041 145.035 199.946 145.035 200.989ZM137.078 200.989C137.078 201.837 137.199 202.571 137.44 203.19C137.682 203.81 138.051 204.289 138.548 204.626C139.049 204.963 139.685 205.132 140.455 205.132C141.23 205.132 141.863 204.963 142.355 204.626C142.852 204.289 143.219 203.81 143.456 203.19C143.693 202.571 143.812 201.837 143.812 200.989C143.812 199.7 143.54 198.692 142.998 197.968C142.46 197.239 141.619 196.874 140.476 196.874C139.701 196.874 139.063 197.04 138.562 197.373C138.06 197.706 137.687 198.18 137.44 198.795C137.199 199.406 137.078 200.137 137.078 200.989ZM147.424 196.006H150.254C151.502 196.006 152.441 196.193 153.07 196.566C153.699 196.94 154.014 197.576 154.014 198.474C154.014 198.861 153.938 199.21 153.788 199.52C153.642 199.825 153.428 200.078 153.145 200.278C152.863 200.479 152.514 200.618 152.099 200.695V200.764C152.537 200.832 152.924 200.957 153.262 201.14C153.599 201.322 153.863 201.577 154.055 201.905C154.246 202.233 154.342 202.65 154.342 203.156C154.342 203.771 154.198 204.291 153.911 204.715C153.628 205.139 153.227 205.46 152.708 205.679C152.188 205.893 151.573 206 150.862 206H147.424V196.006ZM148.586 200.292H150.5C151.37 200.292 151.972 200.148 152.305 199.861C152.642 199.574 152.81 199.155 152.81 198.604C152.81 198.034 152.61 197.624 152.209 197.373C151.812 197.122 151.179 196.997 150.308 196.997H148.586V200.292ZM148.586 201.27V205.009H150.664C151.553 205.009 152.181 204.836 152.551 204.489C152.92 204.138 153.104 203.667 153.104 203.074C153.104 202.696 153.02 202.372 152.851 202.104C152.687 201.835 152.418 201.63 152.045 201.488C151.676 201.342 151.181 201.27 150.561 201.27H148.586ZM159.335 196.006C160.155 196.006 160.832 196.108 161.365 196.313C161.903 196.514 162.304 196.822 162.568 197.236C162.832 197.651 162.965 198.18 162.965 198.822C162.965 199.351 162.869 199.793 162.677 200.148C162.486 200.499 162.235 200.784 161.925 201.003C161.616 201.222 161.285 201.39 160.934 201.509L163.675 206H162.322L159.875 201.83H157.797V206H156.634V196.006H159.335ZM159.266 197.011H157.797V200.846H159.382C160.198 200.846 160.798 200.679 161.18 200.347C161.568 200.014 161.761 199.524 161.761 198.877C161.761 198.198 161.556 197.717 161.146 197.435C160.741 197.152 160.114 197.011 159.266 197.011Z" fill="black"/>
<path d="M111.5 169.5H183C185.485 169.5 187.5 171.515 187.5 174V228C187.5 230.485 185.485 232.5 183 232.5H111.5V169.5Z" stroke="#82A4D9"/>
<rect x="450.5" y="54.5" width="96" height="19.5645" rx="4.5" fill="#00378F"/>
<path d="M473.367 59.0059H476.197C477.446 59.0059 478.385 59.1927 479.014 59.5664C479.643 59.9401 479.957 60.5758 479.957 61.4736C479.957 61.861 479.882 62.2096 479.731 62.5195C479.586 62.8249 479.371 63.0778 479.089 63.2783C478.806 63.4788 478.458 63.6178 478.043 63.6953V63.7637C478.48 63.832 478.868 63.9574 479.205 64.1396C479.542 64.3219 479.807 64.5771 479.998 64.9053C480.189 65.2334 480.285 65.6504 480.285 66.1562C480.285 66.7715 480.142 67.291 479.854 67.7148C479.572 68.1387 479.171 68.46 478.651 68.6787C478.132 68.8929 477.517 69 476.806 69H473.367V59.0059ZM474.529 63.292H476.443C477.314 63.292 477.915 63.1484 478.248 62.8613C478.585 62.5742 478.754 62.1549 478.754 61.6035C478.754 61.0339 478.553 60.6237 478.152 60.373C477.756 60.1224 477.122 59.9971 476.252 59.9971H474.529V63.292ZM474.529 64.2695V68.0088H476.607C477.496 68.0088 478.125 67.8356 478.494 67.4893C478.863 67.1383 479.048 66.6667 479.048 66.0742C479.048 65.696 478.964 65.3724 478.795 65.1035C478.631 64.8346 478.362 64.6296 477.988 64.4883C477.619 64.3424 477.125 64.2695 476.505 64.2695H474.529ZM488.867 65.2402C488.867 65.8555 488.787 66.4046 488.628 66.8877C488.468 67.3708 488.238 67.7786 487.937 68.1113C487.637 68.444 487.272 68.6992 486.844 68.877C486.42 69.0501 485.939 69.1367 485.401 69.1367C484.9 69.1367 484.44 69.0501 484.02 68.877C483.606 68.6992 483.246 68.444 482.94 68.1113C482.639 67.7786 482.405 67.3708 482.236 66.8877C482.072 66.4046 481.99 65.8555 481.99 65.2402C481.99 64.4199 482.129 63.7227 482.407 63.1484C482.685 62.5697 483.082 62.1299 483.597 61.8291C484.116 61.5238 484.734 61.3711 485.449 61.3711C486.133 61.3711 486.73 61.5238 487.24 61.8291C487.755 62.1344 488.154 62.5765 488.436 63.1553C488.723 63.7295 488.867 64.4245 488.867 65.2402ZM483.166 65.2402C483.166 65.8418 483.246 66.3636 483.405 66.8057C483.565 67.2477 483.811 67.5895 484.143 67.8311C484.476 68.0726 484.904 68.1934 485.429 68.1934C485.948 68.1934 486.374 68.0726 486.707 67.8311C487.044 67.5895 487.292 67.2477 487.452 66.8057C487.611 66.3636 487.691 65.8418 487.691 65.2402C487.691 64.6432 487.611 64.1283 487.452 63.6953C487.292 63.2578 487.046 62.9206 486.714 62.6836C486.381 62.4466 485.95 62.3281 485.422 62.3281C484.642 62.3281 484.07 62.5856 483.706 63.1006C483.346 63.6156 483.166 64.3288 483.166 65.2402ZM497.449 65.2402C497.449 65.8555 497.369 66.4046 497.21 66.8877C497.05 67.3708 496.82 67.7786 496.519 68.1113C496.218 68.444 495.854 68.6992 495.425 68.877C495.002 69.0501 494.521 69.1367 493.983 69.1367C493.482 69.1367 493.021 69.0501 492.602 68.877C492.188 68.6992 491.827 68.444 491.522 68.1113C491.221 67.7786 490.987 67.3708 490.818 66.8877C490.654 66.4046 490.572 65.8555 490.572 65.2402C490.572 64.4199 490.711 63.7227 490.989 63.1484C491.267 62.5697 491.663 62.1299 492.178 61.8291C492.698 61.5238 493.315 61.3711 494.031 61.3711C494.715 61.3711 495.312 61.5238 495.822 61.8291C496.337 62.1344 496.736 62.5765 497.018 63.1553C497.305 63.7295 497.449 64.4245 497.449 65.2402ZM491.748 65.2402C491.748 65.8418 491.827 66.3636 491.987 66.8057C492.146 67.2477 492.393 67.5895 492.725 67.8311C493.058 68.0726 493.486 68.1934 494.01 68.1934C494.53 68.1934 494.956 68.0726 495.289 67.8311C495.626 67.5895 495.874 67.2477 496.034 66.8057C496.193 66.3636 496.273 65.8418 496.273 65.2402C496.273 64.6432 496.193 64.1283 496.034 63.6953C495.874 63.2578 495.628 62.9206 495.296 62.6836C494.963 62.4466 494.532 62.3281 494.004 62.3281C493.224 62.3281 492.652 62.5856 492.288 63.1006C491.928 63.6156 491.748 64.3288 491.748 65.2402ZM501.991 68.207C502.178 68.207 502.369 68.1911 502.565 68.1592C502.761 68.1273 502.92 68.0885 503.043 68.043V68.9248C502.911 68.984 502.727 69.0342 502.49 69.0752C502.257 69.1162 502.029 69.1367 501.806 69.1367C501.41 69.1367 501.05 69.0684 500.726 68.9316C500.403 68.7904 500.143 68.5534 499.947 68.2207C499.755 67.888 499.66 67.4277 499.66 66.8398V62.3965H498.593V61.8428L499.667 61.3984L500.118 59.7715H500.801V61.5078H502.996V62.3965H500.801V66.8057C500.801 67.2751 500.908 67.626 501.123 67.8584C501.341 68.0908 501.631 68.207 501.991 68.207ZM504.55 68.2891C504.55 67.9701 504.628 67.7445 504.783 67.6123C504.938 67.4756 505.127 67.4072 505.35 67.4072C505.582 67.4072 505.778 67.4756 505.938 67.6123C506.097 67.7445 506.177 67.9701 506.177 68.2891C506.177 68.6035 506.097 68.8337 505.938 68.9795C505.778 69.1208 505.582 69.1914 505.35 69.1914C505.127 69.1914 504.938 69.1208 504.783 68.9795C504.628 68.8337 504.55 68.6035 504.55 68.2891ZM507.656 72.3633C507.424 72.3633 507.221 72.3451 507.048 72.3086C506.875 72.2767 506.724 72.238 506.597 72.1924V71.2695C506.738 71.3151 506.882 71.3493 507.028 71.3721C507.173 71.3994 507.337 71.4131 507.52 71.4131C507.83 71.4131 508.08 71.3265 508.272 71.1533C508.463 70.9801 508.559 70.6657 508.559 70.21V61.5078H509.694V70.1826C509.694 70.6383 509.621 71.028 509.475 71.3516C509.329 71.6797 509.106 71.9303 508.805 72.1035C508.504 72.2767 508.121 72.3633 507.656 72.3633ZM508.456 59.4502C508.456 59.195 508.52 59.0081 508.648 58.8896C508.78 58.7666 508.944 58.7051 509.14 58.7051C509.327 58.7051 509.486 58.7666 509.618 58.8896C509.755 59.0081 509.823 59.195 509.823 59.4502C509.823 59.7008 509.755 59.8877 509.618 60.0107C509.486 60.1338 509.327 60.1953 509.14 60.1953C508.944 60.1953 508.78 60.1338 508.648 60.0107C508.52 59.8877 508.456 59.7008 508.456 59.4502ZM515.063 61.3848C515.956 61.3848 516.619 61.5853 517.052 61.9863C517.485 62.3874 517.701 63.0277 517.701 63.9072V69H516.874L516.655 67.8926H516.601C516.391 68.166 516.172 68.3962 515.944 68.583C515.717 68.7653 515.452 68.9043 515.151 69C514.855 69.0911 514.491 69.1367 514.058 69.1367C513.602 69.1367 513.196 69.057 512.841 68.8975C512.49 68.738 512.212 68.4964 512.007 68.1729C511.806 67.8493 511.706 67.4391 511.706 66.9424C511.706 66.195 512.002 65.6208 512.595 65.2197C513.187 64.8187 514.09 64.5999 515.302 64.5635L516.594 64.5088V64.0508C516.594 63.4036 516.455 62.9502 516.177 62.6904C515.899 62.4307 515.507 62.3008 515.001 62.3008C514.609 62.3008 514.235 62.3577 513.88 62.4717C513.524 62.5856 513.187 62.7201 512.868 62.875L512.52 62.0137C512.857 61.8405 513.244 61.6924 513.682 61.5693C514.119 61.4463 514.579 61.3848 515.063 61.3848ZM516.58 65.3086L515.439 65.3564C514.504 65.3929 513.846 65.5456 513.463 65.8145C513.08 66.0833 512.889 66.4639 512.889 66.9561C512.889 67.3844 513.019 67.7012 513.278 67.9062C513.538 68.1113 513.882 68.2139 514.311 68.2139C514.976 68.2139 515.521 68.0293 515.944 67.6602C516.368 67.291 516.58 66.7373 516.58 65.999V65.3086ZM523.603 61.3711C523.754 61.3711 523.911 61.3802 524.075 61.3984C524.239 61.4121 524.385 61.4326 524.513 61.46L524.369 62.5127C524.246 62.4808 524.109 62.4557 523.959 62.4375C523.808 62.4193 523.667 62.4102 523.535 62.4102C523.234 62.4102 522.949 62.4717 522.681 62.5947C522.416 62.7132 522.184 62.8864 521.983 63.1143C521.783 63.3376 521.626 63.6087 521.512 63.9277C521.398 64.2422 521.341 64.5931 521.341 64.9805V69H520.199V61.5078H521.142L521.266 62.8887H521.313C521.468 62.6107 521.655 62.3577 521.874 62.1299C522.093 61.8975 522.346 61.7129 522.633 61.5762C522.924 61.4395 523.248 61.3711 523.603 61.3711Z" fill="white"/>
<rect x="450.5" y="54.5" width="96" height="19.5645" rx="4.5" stroke="#00378F"/>
<path d="M350 54C350 51.2386 352.239 49 355 49H401.727C404.489 49 406.727 51.2386 406.727 54V97.5196C406.727 100.281 404.489 102.52 401.727 102.52H355C352.239 102.52 350 100.281 350 97.5196V54Z" fill="#DA6F5A"/>
<path d="M350 52.1482C350 50.4095 351.058 49 352.364 49H404.364C405.669 49 406.727 50.4095 406.727 52.1482V99.3714C406.727 101.11 405.669 102.52 404.364 102.52H352.364C351.058 102.52 350 101.11 350 99.3714V52.1482Z" fill="#DA6F5A"/>
<path d="M374.406 78.7917L373.176 75.6198H369.17L367.947 78.7917H366.771L370.681 68.7565H371.727L375.61 78.7917H374.406ZM372.827 74.5876L371.658 71.4362C371.631 71.3542 371.586 71.2197 371.522 71.0329C371.462 70.846 371.401 70.6523 371.337 70.4518C371.273 70.2513 371.221 70.0895 371.18 69.9665C371.134 70.1533 371.084 70.3402 371.03 70.527C370.979 70.7093 370.929 70.8802 370.879 71.0397C370.829 71.1947 370.786 71.3268 370.749 71.4362L369.56 74.5876H372.827ZM380.391 71.1628C380.541 71.1628 380.698 71.1719 380.862 71.1901C381.026 71.2038 381.172 71.2243 381.3 71.2516L381.156 72.3044C381.033 72.2725 380.897 72.2474 380.746 72.2292C380.596 72.2109 380.455 72.2018 380.322 72.2018C380.022 72.2018 379.737 72.2633 379.468 72.3864C379.204 72.5049 378.971 72.678 378.771 72.9059C378.57 73.1292 378.413 73.4004 378.299 73.7194C378.185 74.0338 378.128 74.3848 378.128 74.7721V78.7917H376.986V71.2995H377.93L378.053 72.6803H378.101C378.256 72.4023 378.442 72.1494 378.661 71.9215C378.88 71.6891 379.133 71.5045 379.42 71.3678C379.712 71.2311 380.035 71.1628 380.391 71.1628ZM384.967 82.1549C383.982 82.1549 383.224 81.9704 382.69 81.6012C382.157 81.2366 381.891 80.7239 381.891 80.0631C381.891 79.5937 382.039 79.1927 382.335 78.86C382.636 78.5273 383.05 78.3063 383.579 78.1969C383.383 78.1058 383.214 77.9691 383.073 77.7868C382.936 77.6045 382.868 77.3948 382.868 77.1579C382.868 76.8844 382.943 76.6452 383.094 76.4401C383.249 76.2305 383.483 76.0299 383.798 75.8385C383.406 75.679 383.087 75.4101 382.841 75.0319C382.599 74.6491 382.478 74.2047 382.478 73.6989C382.478 73.1611 382.59 72.7031 382.813 72.3249C383.037 71.942 383.36 71.6504 383.784 71.4499C384.208 71.2493 384.721 71.1491 385.322 71.1491C385.454 71.1491 385.587 71.1559 385.719 71.1696C385.855 71.1787 385.985 71.1947 386.108 71.2174C386.231 71.2357 386.338 71.2585 386.43 71.2858H389V72.0172L387.619 72.1881C387.756 72.3659 387.87 72.5801 387.961 72.8307C388.052 73.0814 388.098 73.3594 388.098 73.6647C388.098 74.4121 387.845 75.0068 387.339 75.4489C386.833 75.8864 386.138 76.1051 385.254 76.1051C385.044 76.1051 384.83 76.0869 384.611 76.0504C384.388 76.1735 384.217 76.3102 384.099 76.4606C383.985 76.611 383.928 76.7842 383.928 76.9801C383.928 77.126 383.971 77.2422 384.058 77.3288C384.149 77.4154 384.279 77.4792 384.447 77.5202C384.616 77.5566 384.819 77.5749 385.056 77.5749H386.375C387.191 77.5749 387.815 77.7458 388.248 78.0876C388.685 78.4294 388.904 78.9284 388.904 79.5846C388.904 80.4141 388.567 81.0498 387.893 81.4919C387.218 81.9339 386.243 82.1549 384.967 82.1549ZM385.001 81.2663C385.621 81.2663 386.133 81.2025 386.539 81.0749C386.949 80.9518 387.254 80.7718 387.455 80.5348C387.66 80.3024 387.763 80.0244 387.763 79.7008C387.763 79.4001 387.694 79.1722 387.558 79.0172C387.421 78.8669 387.22 78.7666 386.956 78.7165C386.692 78.6618 386.368 78.6344 385.985 78.6344H384.686C384.349 78.6344 384.055 78.6868 383.805 78.7917C383.554 78.8965 383.36 79.0514 383.224 79.2565C383.091 79.4616 383.025 79.7168 383.025 80.0221C383.025 80.4277 383.196 80.7353 383.538 80.945C383.88 81.1592 384.367 81.2663 385.001 81.2663ZM385.295 75.278C385.837 75.278 386.245 75.1413 386.518 74.8678C386.792 74.5944 386.929 74.1956 386.929 73.6715C386.929 73.111 386.79 72.6917 386.512 72.4137C386.234 72.1312 385.823 71.9899 385.281 71.9899C384.762 71.9899 384.361 72.1357 384.078 72.4274C383.8 72.7145 383.661 73.1361 383.661 73.692C383.661 74.2025 383.802 74.5944 384.085 74.8678C384.367 75.1413 384.771 75.278 385.295 75.278ZM395.483 76.7409C395.483 77.2194 395.362 77.6227 395.121 77.9508C394.884 78.2744 394.542 78.5182 394.095 78.6823C393.653 78.8463 393.125 78.9284 392.51 78.9284C391.985 78.9284 391.532 78.8874 391.149 78.8053C390.766 78.7233 390.431 78.6071 390.144 78.4567V77.4108C390.45 77.5612 390.814 77.6979 391.238 77.821C391.662 77.944 392.095 78.0055 392.537 78.0055C393.184 78.0055 393.653 77.9007 393.945 77.6911C394.237 77.4814 394.383 77.1966 394.383 76.8366C394.383 76.6315 394.323 76.4515 394.205 76.2965C394.091 76.137 393.897 75.9844 393.624 75.8385C393.35 75.6881 392.972 75.5241 392.489 75.3463C392.011 75.1641 391.596 74.984 391.245 74.8063C390.899 74.624 390.63 74.403 390.438 74.1432C390.251 73.8835 390.158 73.5462 390.158 73.1315C390.158 72.498 390.413 72.0127 390.924 71.6754C391.439 71.3336 392.113 71.1628 392.947 71.1628C393.398 71.1628 393.82 71.2083 394.212 71.2995C394.608 71.3861 394.977 71.5045 395.319 71.6549L394.936 72.5641C394.626 72.432 394.296 72.3203 393.945 72.2292C393.594 72.138 393.236 72.0924 392.872 72.0924C392.348 72.0924 391.944 72.179 391.662 72.3522C391.384 72.5254 391.245 72.7624 391.245 73.0631C391.245 73.2956 391.309 73.487 391.436 73.6374C391.568 73.7878 391.778 73.929 392.065 74.0612C392.352 74.1933 392.731 74.3483 393.2 74.526C393.669 74.6992 394.075 74.8792 394.417 75.0661C394.759 75.2484 395.021 75.4717 395.203 75.736C395.39 75.9958 395.483 76.3307 395.483 76.7409Z" fill="white"/>
<rect x="314.5" y="152.5" width="72" height="19.5645" rx="4.5" fill="#00378F"/>
<path d="M346.035 161.989C346.035 162.759 345.937 163.461 345.741 164.095C345.545 164.724 345.254 165.266 344.866 165.722C344.483 166.173 344.007 166.521 343.438 166.768C342.868 167.014 342.207 167.137 341.455 167.137C340.68 167.137 340.004 167.014 339.425 166.768C338.851 166.521 338.372 166.171 337.989 165.715C337.611 165.259 337.326 164.715 337.135 164.081C336.948 163.448 336.854 162.746 336.854 161.976C336.854 160.955 337.023 160.059 337.36 159.289C337.698 158.519 338.208 157.92 338.892 157.491C339.58 157.063 340.441 156.849 341.476 156.849C342.465 156.849 343.296 157.061 343.971 157.484C344.65 157.908 345.162 158.505 345.509 159.275C345.86 160.041 346.035 160.946 346.035 161.989ZM338.078 161.989C338.078 162.837 338.199 163.571 338.44 164.19C338.682 164.81 339.051 165.289 339.548 165.626C340.049 165.963 340.685 166.132 341.455 166.132C342.23 166.132 342.863 165.963 343.355 165.626C343.852 165.289 344.219 164.81 344.456 164.19C344.693 163.571 344.812 162.837 344.812 161.989C344.812 160.7 344.54 159.692 343.998 158.968C343.46 158.239 342.619 157.874 341.476 157.874C340.701 157.874 340.063 158.04 339.562 158.373C339.06 158.706 338.687 159.18 338.44 159.795C338.199 160.406 338.078 161.137 338.078 161.989ZM348.424 157.006H351.254C352.502 157.006 353.441 157.193 354.07 157.566C354.699 157.94 355.014 158.576 355.014 159.474C355.014 159.861 354.938 160.21 354.788 160.52C354.642 160.825 354.428 161.078 354.145 161.278C353.863 161.479 353.514 161.618 353.099 161.695V161.764C353.537 161.832 353.924 161.957 354.262 162.14C354.599 162.322 354.863 162.577 355.055 162.905C355.246 163.233 355.342 163.65 355.342 164.156C355.342 164.771 355.198 165.291 354.911 165.715C354.628 166.139 354.227 166.46 353.708 166.679C353.188 166.893 352.573 167 351.862 167H348.424V157.006ZM349.586 161.292H351.5C352.37 161.292 352.972 161.148 353.305 160.861C353.642 160.574 353.81 160.155 353.81 159.604C353.81 159.034 353.61 158.624 353.209 158.373C352.812 158.122 352.179 157.997 351.308 157.997H349.586V161.292ZM349.586 162.27V166.009H351.664C352.553 166.009 353.181 165.836 353.551 165.489C353.92 165.138 354.104 164.667 354.104 164.074C354.104 163.696 354.02 163.372 353.851 163.104C353.687 162.835 353.418 162.63 353.045 162.488C352.676 162.342 352.181 162.27 351.561 162.27H349.586ZM360.335 157.006C361.155 157.006 361.832 157.108 362.365 157.313C362.903 157.514 363.304 157.822 363.568 158.236C363.832 158.651 363.965 159.18 363.965 159.822C363.965 160.351 363.869 160.793 363.677 161.148C363.486 161.499 363.235 161.784 362.925 162.003C362.616 162.222 362.285 162.39 361.934 162.509L364.675 167H363.322L360.875 162.83H358.797V167H357.634V157.006H360.335ZM360.266 158.011H358.797V161.846H360.382C361.198 161.846 361.798 161.679 362.18 161.347C362.568 161.014 362.761 160.524 362.761 159.877C362.761 159.198 362.556 158.717 362.146 158.435C361.741 158.152 361.114 158.011 360.266 158.011Z" fill="white"/>
<rect x="314.5" y="152.5" width="72" height="19.5645" rx="4.5" stroke="#00378F"/>
<rect x="313.5" y="203.5" width="127" height="19.5645" rx="4.5" fill="#00378F"/>
<path d="M345.035 212.989C345.035 213.759 344.937 214.461 344.741 215.095C344.545 215.724 344.254 216.266 343.866 216.722C343.483 217.173 343.007 217.521 342.438 217.768C341.868 218.014 341.207 218.137 340.455 218.137C339.68 218.137 339.004 218.014 338.425 217.768C337.851 217.521 337.372 217.171 336.989 216.715C336.611 216.259 336.326 215.715 336.135 215.081C335.948 214.448 335.854 213.746 335.854 212.976C335.854 211.955 336.023 211.059 336.36 210.289C336.698 209.519 337.208 208.92 337.892 208.491C338.58 208.063 339.441 207.849 340.476 207.849C341.465 207.849 342.296 208.061 342.971 208.484C343.65 208.908 344.162 209.505 344.509 210.275C344.86 211.041 345.035 211.946 345.035 212.989ZM337.078 212.989C337.078 213.837 337.199 214.571 337.44 215.19C337.682 215.81 338.051 216.289 338.548 216.626C339.049 216.963 339.685 217.132 340.455 217.132C341.23 217.132 341.863 216.963 342.355 216.626C342.852 216.289 343.219 215.81 343.456 215.19C343.693 214.571 343.812 213.837 343.812 212.989C343.812 211.7 343.54 210.692 342.998 209.968C342.46 209.239 341.619 208.874 340.476 208.874C339.701 208.874 339.063 209.04 338.562 209.373C338.06 209.706 337.687 210.18 337.44 210.795C337.199 211.406 337.078 212.137 337.078 212.989ZM353.063 215.341C353.063 215.933 352.915 216.439 352.619 216.858C352.327 217.273 351.917 217.59 351.389 217.809C350.86 218.027 350.238 218.137 349.522 218.137C349.144 218.137 348.786 218.118 348.449 218.082C348.112 218.046 347.802 217.993 347.519 217.925C347.237 217.856 346.988 217.772 346.774 217.672V216.558C347.116 216.699 347.533 216.831 348.025 216.954C348.517 217.073 349.032 217.132 349.57 217.132C350.071 217.132 350.495 217.066 350.842 216.934C351.188 216.797 351.45 216.603 351.628 216.353C351.81 216.097 351.901 215.792 351.901 215.437C351.901 215.095 351.826 214.81 351.676 214.582C351.525 214.35 351.275 214.14 350.924 213.953C350.577 213.762 350.103 213.559 349.502 213.345C349.078 213.194 348.704 213.03 348.381 212.853C348.057 212.67 347.786 212.465 347.567 212.237C347.348 212.009 347.182 211.745 347.068 211.444C346.959 211.144 346.904 210.799 346.904 210.412C346.904 209.879 347.039 209.423 347.307 209.045C347.581 208.662 347.957 208.37 348.435 208.17C348.918 207.965 349.472 207.862 350.097 207.862C350.63 207.862 351.122 207.912 351.573 208.013C352.029 208.113 352.446 208.247 352.824 208.416L352.462 209.414C352.102 209.264 351.719 209.138 351.313 209.038C350.912 208.938 350.498 208.888 350.069 208.888C349.641 208.888 349.278 208.951 348.982 209.079C348.691 209.202 348.467 209.378 348.312 209.605C348.157 209.833 348.08 210.104 348.08 210.419C348.08 210.77 348.153 211.062 348.299 211.294C348.449 211.526 348.686 211.734 349.01 211.916C349.338 212.094 349.771 212.281 350.308 212.477C350.896 212.691 351.395 212.919 351.806 213.16C352.216 213.397 352.528 213.689 352.742 214.035C352.956 214.377 353.063 214.812 353.063 215.341ZM359.54 212.764H363.033V217.61C362.509 217.788 361.969 217.92 361.413 218.007C360.861 218.093 360.244 218.137 359.56 218.137C358.521 218.137 357.644 217.929 356.928 217.515C356.217 217.1 355.677 216.51 355.308 215.744C354.939 214.974 354.755 214.06 354.755 213.003C354.755 211.968 354.957 211.066 355.363 210.296C355.773 209.526 356.363 208.929 357.133 208.505C357.908 208.076 358.838 207.862 359.923 207.862C360.479 207.862 361.005 207.915 361.502 208.02C362.003 208.12 362.468 208.263 362.896 208.45L362.452 209.462C362.083 209.302 361.675 209.166 361.228 209.052C360.786 208.938 360.328 208.881 359.854 208.881C359.038 208.881 358.339 209.049 357.756 209.387C357.177 209.724 356.732 210.2 356.423 210.815C356.117 211.431 355.965 212.16 355.965 213.003C355.965 213.837 356.099 214.564 356.368 215.184C356.637 215.799 357.056 216.277 357.626 216.619C358.195 216.961 358.929 217.132 359.827 217.132C360.278 217.132 360.665 217.107 360.989 217.057C361.313 217.002 361.606 216.938 361.871 216.865V213.803H359.54V212.764ZM366.577 210.508V218H365.442V210.508H366.577ZM366.023 207.705C366.21 207.705 366.369 207.767 366.501 207.89C366.638 208.008 366.707 208.195 366.707 208.45C366.707 208.701 366.638 208.888 366.501 209.011C366.369 209.134 366.21 209.195 366.023 209.195C365.827 209.195 365.663 209.134 365.531 209.011C365.403 208.888 365.339 208.701 365.339 208.45C365.339 208.195 365.403 208.008 365.531 207.89C365.663 207.767 365.827 207.705 366.023 207.705ZM373.111 208.006H375.941C377.189 208.006 378.128 208.193 378.757 208.566C379.386 208.94 379.7 209.576 379.7 210.474C379.7 210.861 379.625 211.21 379.475 211.52C379.329 211.825 379.115 212.078 378.832 212.278C378.55 212.479 378.201 212.618 377.786 212.695V212.764C378.224 212.832 378.611 212.957 378.948 213.14C379.286 213.322 379.55 213.577 379.741 213.905C379.933 214.233 380.029 214.65 380.029 215.156C380.029 215.771 379.885 216.291 379.598 216.715C379.315 217.139 378.914 217.46 378.395 217.679C377.875 217.893 377.26 218 376.549 218H373.111V208.006ZM374.273 212.292H376.187C377.057 212.292 377.659 212.148 377.991 211.861C378.329 211.574 378.497 211.155 378.497 210.604C378.497 210.034 378.297 209.624 377.896 209.373C377.499 209.122 376.866 208.997 375.995 208.997H374.273V212.292ZM374.273 213.27V217.009H376.351C377.239 217.009 377.868 216.836 378.237 216.489C378.607 216.138 378.791 215.667 378.791 215.074C378.791 214.696 378.707 214.372 378.538 214.104C378.374 213.835 378.105 213.63 377.732 213.488C377.362 213.342 376.868 213.27 376.248 213.27H374.273ZM388.337 210.508V218H387.407L387.243 216.947H387.182C387.027 217.207 386.826 217.426 386.58 217.604C386.334 217.781 386.056 217.913 385.746 218C385.441 218.091 385.115 218.137 384.769 218.137C384.176 218.137 383.679 218.041 383.278 217.85C382.877 217.658 382.574 217.362 382.369 216.961C382.169 216.56 382.068 216.045 382.068 215.416V210.508H383.217V215.334C383.217 215.958 383.358 216.425 383.641 216.735C383.923 217.041 384.354 217.193 384.933 217.193C385.489 217.193 385.931 217.089 386.259 216.879C386.592 216.669 386.831 216.362 386.977 215.956C387.122 215.546 387.195 215.045 387.195 214.452V210.508H388.337ZM394.444 210.371C395.333 210.371 396.005 210.59 396.461 211.027C396.917 211.46 397.144 212.158 397.144 213.119V218H396.023V213.194C396.023 212.57 395.88 212.103 395.593 211.793C395.31 211.483 394.875 211.328 394.287 211.328C393.458 211.328 392.874 211.563 392.537 212.032C392.2 212.502 392.031 213.183 392.031 214.076V218H390.896V210.508H391.812L391.983 211.588H392.045C392.204 211.324 392.407 211.103 392.653 210.925C392.899 210.743 393.175 210.606 393.48 210.515C393.786 210.419 394.107 210.371 394.444 210.371ZM402.308 218.137C401.36 218.137 400.608 217.813 400.052 217.166C399.501 216.519 399.225 215.557 399.225 214.281C399.225 212.992 399.508 212.019 400.073 211.362C400.638 210.701 401.39 210.371 402.329 210.371C402.725 210.371 403.072 210.424 403.368 210.528C403.664 210.633 403.919 210.774 404.134 210.952C404.348 211.125 404.528 211.324 404.674 211.547H404.756C404.737 211.406 404.719 211.212 404.701 210.966C404.683 210.72 404.674 210.519 404.674 210.364V207.363H405.808V218H404.892L404.721 216.934H404.674C404.532 217.157 404.352 217.36 404.134 217.542C403.919 217.724 403.662 217.87 403.361 217.979C403.065 218.084 402.714 218.137 402.308 218.137ZM402.486 217.193C403.288 217.193 403.856 216.965 404.188 216.51C404.521 216.054 404.687 215.377 404.687 214.479V214.274C404.687 213.322 404.528 212.59 404.209 212.08C403.894 211.57 403.32 211.314 402.486 211.314C401.789 211.314 401.267 211.583 400.921 212.121C400.574 212.654 400.401 213.383 400.401 214.309C400.401 215.229 400.572 215.94 400.914 216.441C401.26 216.943 401.784 217.193 402.486 217.193ZM409.516 218H408.375V207.363H409.516V218ZM414.96 210.371C415.598 210.371 416.145 210.512 416.601 210.795C417.057 211.077 417.405 211.474 417.647 211.984C417.888 212.49 418.009 213.083 418.009 213.762V214.466H412.834C412.848 215.345 413.067 216.015 413.491 216.476C413.914 216.936 414.511 217.166 415.282 217.166C415.756 217.166 416.175 217.123 416.539 217.036C416.904 216.95 417.282 216.822 417.674 216.653V217.651C417.296 217.82 416.92 217.943 416.546 218.021C416.177 218.098 415.74 218.137 415.234 218.137C414.514 218.137 413.885 217.991 413.347 217.699C412.814 217.403 412.399 216.97 412.103 216.4C411.807 215.831 411.659 215.133 411.659 214.309C411.659 213.502 411.793 212.805 412.062 212.217C412.335 211.624 412.718 211.169 413.21 210.85C413.707 210.531 414.29 210.371 414.96 210.371ZM414.947 211.301C414.341 211.301 413.857 211.499 413.497 211.896C413.137 212.292 412.923 212.846 412.855 213.557H416.82C416.815 213.11 416.745 212.718 416.608 212.381C416.476 212.039 416.273 211.775 415.999 211.588C415.726 211.396 415.375 211.301 414.947 211.301Z" fill="white"/>
<rect x="313.5" y="203.5" width="127" height="19.5645" rx="4.5" stroke="#00378F"/>
<path d="M313.591 162L309.751 159.783L309.751 164.217L313.591 162ZM246 162.384L310.135 162.384L310.135 161.616L246 161.616L246 162.384Z" fill="black"/>
<path d="M257.834 183.189C257.361 183.189 256.936 183.271 256.557 183.436C256.182 183.596 255.861 183.83 255.596 184.139C255.334 184.443 255.133 184.812 254.992 185.246C254.852 185.68 254.781 186.168 254.781 186.711C254.781 187.43 254.893 188.055 255.115 188.586C255.342 189.113 255.678 189.521 256.123 189.811C256.572 190.1 257.133 190.244 257.805 190.244C258.188 190.244 258.547 190.213 258.883 190.15C259.223 190.084 259.553 190.002 259.873 189.904V190.771C259.561 190.889 259.232 190.975 258.889 191.029C258.545 191.088 258.137 191.117 257.664 191.117C256.793 191.117 256.064 190.938 255.479 190.578C254.896 190.215 254.459 189.703 254.166 189.043C253.877 188.383 253.732 187.604 253.732 186.705C253.732 186.057 253.822 185.465 254.002 184.93C254.186 184.391 254.451 183.926 254.799 183.535C255.15 183.145 255.58 182.844 256.088 182.633C256.6 182.418 257.186 182.311 257.846 182.311C258.279 182.311 258.697 182.354 259.1 182.439C259.502 182.525 259.865 182.648 260.189 182.809L259.791 183.652C259.518 183.527 259.217 183.42 258.889 183.33C258.564 183.236 258.213 183.189 257.834 183.189ZM267.281 187.777C267.281 188.305 267.213 188.775 267.076 189.189C266.939 189.604 266.742 189.953 266.484 190.238C266.226 190.523 265.914 190.742 265.547 190.895C265.183 191.043 264.771 191.117 264.31 191.117C263.881 191.117 263.486 191.043 263.127 190.895C262.771 190.742 262.463 190.523 262.201 190.238C261.943 189.953 261.742 189.604 261.597 189.189C261.457 188.775 261.387 188.305 261.387 187.777C261.387 187.074 261.506 186.477 261.744 185.984C261.982 185.488 262.322 185.111 262.764 184.854C263.209 184.592 263.738 184.461 264.351 184.461C264.937 184.461 265.449 184.592 265.887 184.854C266.328 185.115 266.67 185.494 266.912 185.99C267.158 186.482 267.281 187.078 267.281 187.777ZM262.394 187.777C262.394 188.293 262.463 188.74 262.599 189.119C262.736 189.498 262.947 189.791 263.232 189.998C263.517 190.205 263.885 190.309 264.334 190.309C264.779 190.309 265.144 190.205 265.43 189.998C265.719 189.791 265.931 189.498 266.068 189.119C266.205 188.74 266.273 188.293 266.273 187.777C266.273 187.266 266.205 186.824 266.068 186.453C265.931 186.078 265.721 185.789 265.435 185.586C265.15 185.383 264.781 185.281 264.328 185.281C263.66 185.281 263.17 185.502 262.857 185.943C262.549 186.385 262.394 186.996 262.394 187.777ZM276.095 184.461C276.802 184.461 277.336 184.646 277.695 185.018C278.054 185.385 278.234 185.977 278.234 186.793V191H277.273V186.84C277.273 186.32 277.16 185.932 276.933 185.674C276.711 185.412 276.379 185.281 275.937 185.281C275.316 185.281 274.865 185.461 274.584 185.82C274.302 186.18 274.162 186.709 274.162 187.408V191H273.195V186.84C273.195 186.492 273.144 186.203 273.043 185.973C272.945 185.742 272.797 185.57 272.597 185.457C272.402 185.34 272.154 185.281 271.853 185.281C271.427 185.281 271.086 185.369 270.828 185.545C270.57 185.721 270.382 185.982 270.265 186.33C270.152 186.674 270.095 187.098 270.095 187.602V191H269.123V184.578H269.908L270.054 185.486H270.107C270.236 185.264 270.398 185.076 270.593 184.924C270.789 184.771 271.007 184.656 271.25 184.578C271.492 184.5 271.75 184.461 272.023 184.461C272.511 184.461 272.92 184.553 273.248 184.736C273.58 184.916 273.82 185.191 273.968 185.562H274.021C274.232 185.191 274.521 184.916 274.888 184.736C275.256 184.553 275.658 184.461 276.095 184.461ZM283.41 184.461C284.21 184.461 284.849 184.736 285.326 185.287C285.802 185.838 286.041 186.666 286.041 187.771C286.041 188.502 285.931 189.115 285.712 189.611C285.494 190.107 285.185 190.482 284.787 190.736C284.392 190.99 283.925 191.117 283.386 191.117C283.046 191.117 282.748 191.072 282.49 190.982C282.232 190.893 282.011 190.771 281.828 190.619C281.644 190.467 281.492 190.301 281.371 190.121H281.3C281.312 190.273 281.326 190.457 281.341 190.672C281.361 190.887 281.371 191.074 281.371 191.234V193.871H280.392V184.578H281.195L281.324 185.527H281.371C281.496 185.332 281.648 185.154 281.828 184.994C282.007 184.83 282.226 184.701 282.484 184.607C282.746 184.51 283.054 184.461 283.41 184.461ZM283.24 185.281C282.794 185.281 282.435 185.367 282.162 185.539C281.892 185.711 281.695 185.969 281.57 186.312C281.445 186.652 281.378 187.08 281.371 187.596V187.783C281.371 188.326 281.429 188.785 281.546 189.16C281.667 189.535 281.865 189.82 282.138 190.016C282.416 190.211 282.787 190.309 283.251 190.309C283.65 190.309 283.982 190.201 284.248 189.986C284.513 189.771 284.71 189.473 284.839 189.09C284.972 188.703 285.039 188.26 285.039 187.76C285.039 187.002 284.89 186.4 284.593 185.955C284.3 185.506 283.849 185.281 283.24 185.281ZM288.872 184.578V191H287.9V184.578H288.872ZM288.398 182.176C288.558 182.176 288.695 182.229 288.808 182.334C288.925 182.436 288.984 182.596 288.984 182.814C288.984 183.029 288.925 183.189 288.808 183.295C288.695 183.4 288.558 183.453 288.398 183.453C288.23 183.453 288.089 183.4 287.976 183.295C287.867 183.189 287.812 183.029 287.812 182.814C287.812 182.596 287.867 182.436 287.976 182.334C288.089 182.229 288.23 182.176 288.398 182.176ZM292.073 191H291.095V181.883H292.073V191ZM296.763 184.461C297.31 184.461 297.778 184.582 298.169 184.824C298.56 185.066 298.858 185.406 299.065 185.844C299.272 186.277 299.376 186.785 299.376 187.367V187.971H294.94C294.952 188.725 295.14 189.299 295.503 189.693C295.866 190.088 296.378 190.285 297.038 190.285C297.444 190.285 297.804 190.248 298.116 190.174C298.429 190.1 298.753 189.99 299.089 189.846V190.701C298.765 190.846 298.442 190.951 298.122 191.018C297.806 191.084 297.431 191.117 296.997 191.117C296.38 191.117 295.841 190.992 295.38 190.742C294.923 190.488 294.567 190.117 294.314 189.629C294.06 189.141 293.933 188.543 293.933 187.836C293.933 187.145 294.048 186.547 294.278 186.043C294.513 185.535 294.841 185.145 295.263 184.871C295.689 184.598 296.189 184.461 296.763 184.461ZM296.751 185.258C296.231 185.258 295.817 185.428 295.509 185.768C295.2 186.107 295.017 186.582 294.958 187.191H298.356C298.353 186.809 298.292 186.473 298.175 186.184C298.062 185.891 297.888 185.664 297.653 185.504C297.419 185.34 297.118 185.258 296.751 185.258Z" fill="black"/>
<path d="M311.905 213L308.472 211.018V214.982L311.905 213ZM246 213.343H308.815V212.657H246V213.343Z" fill="black"/>
<path d="M394.003 103L391.428 107.444L396.565 107.452L394.003 103ZM394.304 203.002L394.442 107.004L393.552 107.003L393.415 203.001L394.304 203.002Z" fill="black"/>
<path d="M361 103L358.291 107.477L363.523 107.584L361 103ZM360.453 151.764L361.369 107.087L360.463 107.068L359.547 151.745L360.453 151.764Z" fill="black"/>
<path d="M450 64L445 61.1132L445 66.8868L450 64ZM407 64.5L445.5 64.5L445.5 63.5L407 63.5L407 64.5Z" fill="black"/>
<path d="M509 109.679L510.739 106.668L507.261 106.668L509 109.679ZM508.699 75L508.699 106.969L509.301 106.969L509.301 75L508.699 75Z" fill="black"/>
<rect x="450.5" y="116.5" width="136" height="138" rx="4.5" fill="white" stroke="#00378F"/>
<path d="M455 110.4H582C584.485 110.4 586.5 112.415 586.5 114.9V149.4H450.5V114.9C450.5 112.415 452.515 110.4 455 110.4Z" fill="#00378F"/>
<path d="M471.64 129.664H475.133V134.51C474.609 134.688 474.069 134.82 473.513 134.907C472.961 134.993 472.344 135.037 471.66 135.037C470.621 135.037 469.744 134.829 469.028 134.415C468.317 134 467.777 133.41 467.408 132.644C467.039 131.874 466.854 130.96 466.854 129.903C466.854 128.868 467.057 127.966 467.463 127.196C467.873 126.426 468.463 125.829 469.233 125.405C470.008 124.976 470.938 124.762 472.022 124.762C472.578 124.762 473.105 124.815 473.602 124.92C474.103 125.02 474.568 125.163 474.996 125.35L474.552 126.362C474.183 126.202 473.775 126.066 473.328 125.952C472.886 125.838 472.428 125.781 471.954 125.781C471.138 125.781 470.439 125.949 469.855 126.287C469.277 126.624 468.832 127.1 468.522 127.715C468.217 128.331 468.064 129.06 468.064 129.903C468.064 130.737 468.199 131.464 468.468 132.084C468.737 132.699 469.156 133.177 469.726 133.519C470.295 133.861 471.029 134.032 471.927 134.032C472.378 134.032 472.765 134.007 473.089 133.957C473.412 133.902 473.706 133.838 473.971 133.765V130.703H471.64V129.664ZM480.946 127.271C481.097 127.271 481.254 127.28 481.418 127.298C481.582 127.312 481.728 127.333 481.855 127.36L481.712 128.413C481.589 128.381 481.452 128.356 481.302 128.337C481.151 128.319 481.01 128.31 480.878 128.31C480.577 128.31 480.292 128.372 480.023 128.495C479.759 128.613 479.527 128.786 479.326 129.014C479.125 129.238 478.968 129.509 478.854 129.828C478.74 130.142 478.683 130.493 478.683 130.88V134.9H477.542V127.408H478.485L478.608 128.789H478.656C478.811 128.511 478.998 128.258 479.217 128.03C479.435 127.797 479.688 127.613 479.975 127.476C480.267 127.339 480.591 127.271 480.946 127.271ZM489.89 131.14C489.89 131.755 489.811 132.305 489.651 132.788C489.492 133.271 489.261 133.679 488.961 134.011C488.66 134.344 488.295 134.599 487.867 134.777C487.443 134.95 486.962 135.037 486.424 135.037C485.923 135.037 485.463 134.95 485.044 134.777C484.629 134.599 484.269 134.344 483.964 134.011C483.663 133.679 483.428 133.271 483.259 132.788C483.095 132.305 483.013 131.755 483.013 131.14C483.013 130.32 483.152 129.623 483.43 129.048C483.708 128.47 484.105 128.03 484.62 127.729C485.139 127.424 485.757 127.271 486.472 127.271C487.156 127.271 487.753 127.424 488.263 127.729C488.778 128.034 489.177 128.476 489.46 129.055C489.747 129.629 489.89 130.324 489.89 131.14ZM484.189 131.14C484.189 131.742 484.269 132.264 484.428 132.706C484.588 133.148 484.834 133.49 485.167 133.731C485.499 133.973 485.928 134.093 486.452 134.093C486.971 134.093 487.397 133.973 487.73 133.731C488.067 133.49 488.316 133.148 488.475 132.706C488.635 132.264 488.715 131.742 488.715 131.14C488.715 130.543 488.635 130.028 488.475 129.595C488.316 129.158 488.07 128.821 487.737 128.584C487.404 128.347 486.974 128.228 486.445 128.228C485.666 128.228 485.094 128.486 484.729 129.001C484.369 129.516 484.189 130.229 484.189 131.14ZM498.199 127.408V134.9H497.269L497.105 133.847H497.043C496.889 134.107 496.688 134.326 496.442 134.504C496.196 134.681 495.918 134.813 495.608 134.9C495.303 134.991 494.977 135.037 494.63 135.037C494.038 135.037 493.541 134.941 493.14 134.75C492.739 134.558 492.436 134.262 492.231 133.861C492.03 133.46 491.93 132.945 491.93 132.316V127.408H493.079V132.234C493.079 132.858 493.22 133.325 493.502 133.635C493.785 133.941 494.216 134.093 494.794 134.093C495.35 134.093 495.792 133.989 496.121 133.779C496.453 133.569 496.693 133.262 496.838 132.856C496.984 132.446 497.057 131.945 497.057 131.352V127.408H498.199ZM504.279 127.271C505.213 127.271 505.958 127.592 506.514 128.235C507.07 128.878 507.348 129.844 507.348 131.133C507.348 131.986 507.22 132.701 506.965 133.28C506.71 133.859 506.35 134.296 505.885 134.592C505.425 134.889 504.88 135.037 504.251 135.037C503.855 135.037 503.506 134.984 503.205 134.879C502.905 134.775 502.647 134.633 502.433 134.456C502.219 134.278 502.041 134.084 501.9 133.875H501.818C501.831 134.052 501.847 134.267 501.866 134.517C501.888 134.768 501.9 134.987 501.9 135.173V138.25H500.758V127.408H501.695L501.845 128.515H501.9C502.046 128.287 502.223 128.08 502.433 127.893C502.643 127.702 502.898 127.551 503.199 127.442C503.504 127.328 503.864 127.271 504.279 127.271ZM504.08 128.228C503.561 128.228 503.142 128.328 502.823 128.529C502.508 128.729 502.278 129.03 502.132 129.431C501.986 129.828 501.909 130.327 501.9 130.928V131.147C501.9 131.781 501.968 132.316 502.105 132.754C502.246 133.191 502.476 133.524 502.795 133.752C503.119 133.979 503.552 134.093 504.094 134.093C504.559 134.093 504.946 133.968 505.256 133.717C505.566 133.467 505.796 133.118 505.947 132.671C506.102 132.22 506.179 131.703 506.179 131.12C506.179 130.236 506.006 129.534 505.66 129.014C505.318 128.49 504.791 128.228 504.08 128.228ZM515.707 134.107C515.894 134.107 516.085 134.091 516.281 134.059C516.477 134.027 516.637 133.989 516.76 133.943V134.825C516.628 134.884 516.443 134.934 516.206 134.975C515.974 135.016 515.746 135.037 515.522 135.037C515.126 135.037 514.766 134.968 514.442 134.832C514.119 134.69 513.859 134.453 513.663 134.121C513.472 133.788 513.376 133.328 513.376 132.74V128.296H512.31V127.743L513.383 127.298L513.834 125.671H514.518V127.408H516.712V128.296H514.518V132.706C514.518 133.175 514.625 133.526 514.839 133.758C515.058 133.991 515.347 134.107 515.707 134.107ZM519.572 127.408V134.9H518.437V127.408H519.572ZM519.018 124.605C519.205 124.605 519.365 124.667 519.497 124.79C519.634 124.908 519.702 125.095 519.702 125.35C519.702 125.601 519.634 125.788 519.497 125.911C519.365 126.034 519.205 126.095 519.018 126.095C518.822 126.095 518.658 126.034 518.526 125.911C518.399 125.788 518.335 125.601 518.335 125.35C518.335 125.095 518.399 124.908 518.526 124.79C518.658 124.667 518.822 124.605 519.018 124.605ZM524.558 134.107C524.745 134.107 524.937 134.091 525.133 134.059C525.329 134.027 525.488 133.989 525.611 133.943V134.825C525.479 134.884 525.294 134.934 525.057 134.975C524.825 135.016 524.597 135.037 524.374 135.037C523.977 135.037 523.617 134.968 523.294 134.832C522.97 134.69 522.71 134.453 522.514 134.121C522.323 133.788 522.227 133.328 522.227 132.74V128.296H521.161V127.743L522.234 127.298L522.685 125.671H523.369V127.408H525.563V128.296H523.369V132.706C523.369 133.175 523.476 133.526 523.69 133.758C523.909 133.991 524.198 134.107 524.558 134.107ZM528.43 134.9H527.289V124.263H528.43V134.9ZM533.874 127.271C534.512 127.271 535.059 127.412 535.515 127.695C535.971 127.977 536.319 128.374 536.561 128.884C536.802 129.39 536.923 129.983 536.923 130.662V131.366H531.748C531.762 132.245 531.981 132.915 532.405 133.376C532.829 133.836 533.426 134.066 534.196 134.066C534.67 134.066 535.089 134.023 535.454 133.936C535.818 133.85 536.196 133.722 536.588 133.553V134.551C536.21 134.72 535.834 134.843 535.46 134.921C535.091 134.998 534.654 135.037 534.148 135.037C533.428 135.037 532.799 134.891 532.261 134.599C531.728 134.303 531.313 133.87 531.017 133.3C530.721 132.731 530.573 132.033 530.573 131.209C530.573 130.402 530.707 129.705 530.976 129.117C531.249 128.524 531.632 128.069 532.124 127.75C532.621 127.431 533.204 127.271 533.874 127.271ZM533.861 128.201C533.255 128.201 532.772 128.399 532.412 128.796C532.051 129.192 531.837 129.746 531.769 130.457H535.734C535.729 130.01 535.659 129.618 535.522 129.281C535.39 128.939 535.187 128.675 534.913 128.488C534.64 128.296 534.289 128.201 533.861 128.201Z" fill="white"/>
<path d="M455 110.4H582C584.485 110.4 586.5 112.415 586.5 114.9V149.4H450.5V114.9C450.5 112.415 452.515 110.4 455 110.4Z" stroke="#00378F"/>
<path d="M455 110.4H582C584.485 110.4 586.5 112.415 586.5 114.9V149.4H450.5V114.9C450.5 112.415 452.515 110.4 455 110.4Z" fill="#00378F"/>
<path d="M465.925 137.532C465.697 137.532 465.496 137.516 465.323 137.484C465.15 137.452 465.002 137.409 464.879 137.354V136.363C465.025 136.408 465.182 136.443 465.351 136.465C465.519 136.493 465.701 136.506 465.897 136.506C466.153 136.506 466.387 136.456 466.602 136.356C466.816 136.256 466.987 136.085 467.114 135.843C467.242 135.602 467.306 135.269 467.306 134.845V124.906H468.475V134.756C468.475 135.381 468.37 135.898 468.16 136.308C467.955 136.718 467.661 137.024 467.278 137.224C466.9 137.429 466.449 137.532 465.925 137.532ZM478.266 124.906L474.678 134.9H473.509L469.92 124.906H471.137L473.474 131.489C473.57 131.753 473.654 132.006 473.727 132.248C473.805 132.489 473.873 132.722 473.932 132.945C473.992 133.168 474.044 133.385 474.09 133.594C474.135 133.385 474.188 133.168 474.247 132.945C474.306 132.717 474.375 132.482 474.452 132.241C474.529 131.995 474.616 131.737 474.712 131.468L477.036 124.906H478.266ZM484.196 134.9L480.84 126.054H480.785C480.803 126.241 480.819 126.469 480.833 126.738C480.846 127.007 480.858 127.301 480.867 127.62C480.876 127.934 480.881 128.255 480.881 128.584V134.9H479.8V124.906H481.523L484.688 133.218H484.736L487.949 124.906H489.658V134.9H488.509V128.502C488.509 128.205 488.514 127.909 488.523 127.613C488.532 127.312 488.544 127.03 488.557 126.765C488.571 126.496 488.585 126.264 488.598 126.068H488.544L485.146 134.9H484.196Z" fill="white"/>
<path d="M455 110.4H582C584.485 110.4 586.5 112.415 586.5 114.9V149.4H450.5V114.9C450.5 112.415 452.515 110.4 455 110.4Z" stroke="#00378F"/>
</svg>
