<svg width="846" height="552" viewBox="0 0 846 552" fill="none" xmlns="http://www.w3.org/2000/svg">
<rect width="846" height="552" fill="white"/>
<rect x="112.5" y="29.5" width="504" height="394" rx="4.5" fill="white" stroke="#00378F" stroke-dasharray="2 2"/>
<path d="M140.722 63.5059L138.049 73.5H136.88L134.897 66.7734C134.838 66.582 134.781 66.3906 134.727 66.1992C134.676 66.0033 134.629 65.8187 134.583 65.6455C134.537 65.4678 134.499 65.3128 134.467 65.1807C134.439 65.0439 134.419 64.9414 134.405 64.873C134.396 64.9414 134.378 65.0417 134.351 65.1738C134.328 65.306 134.296 65.4587 134.255 65.6318C134.218 65.805 134.173 65.9896 134.118 66.1855C134.068 66.3815 134.013 66.5798 133.954 66.7803L132.026 73.5H130.857L128.205 63.5059H129.415L131.021 69.7744C131.076 69.984 131.126 70.1914 131.172 70.3965C131.222 70.597 131.265 70.793 131.302 70.9844C131.343 71.1758 131.379 71.3626 131.411 71.5449C131.443 71.7272 131.473 71.9049 131.5 72.0781C131.523 71.9004 131.552 71.7158 131.589 71.5244C131.625 71.3285 131.664 71.1302 131.705 70.9297C131.751 70.7292 131.799 70.5264 131.849 70.3213C131.903 70.1162 131.96 69.9111 132.02 69.7061L133.817 63.5059H135.014L136.887 69.7539C136.951 69.9681 137.01 70.18 137.064 70.3896C137.119 70.5993 137.167 70.8044 137.208 71.0049C137.254 71.2008 137.292 71.39 137.324 71.5723C137.361 71.75 137.393 71.9186 137.42 72.0781C137.452 71.8548 137.491 71.6201 137.536 71.374C137.582 71.1279 137.634 70.8704 137.693 70.6016C137.757 70.3327 137.826 70.0547 137.898 69.7676L139.505 63.5059H140.722ZM148.75 69.7402C148.75 70.3555 148.67 70.9046 148.511 71.3877C148.351 71.8708 148.121 72.2786 147.82 72.6113C147.519 72.944 147.155 73.1992 146.726 73.377C146.303 73.5501 145.822 73.6367 145.284 73.6367C144.783 73.6367 144.322 73.5501 143.903 73.377C143.488 73.1992 143.128 72.944 142.823 72.6113C142.522 72.2786 142.288 71.8708 142.119 71.3877C141.955 70.9046 141.873 70.3555 141.873 69.7402C141.873 68.9199 142.012 68.2227 142.29 67.6484C142.568 67.0697 142.964 66.6299 143.479 66.3291C143.999 66.0238 144.616 65.8711 145.332 65.8711C146.015 65.8711 146.612 66.0238 147.123 66.3291C147.638 66.6344 148.037 67.0765 148.319 67.6553C148.606 68.2295 148.75 68.9245 148.75 69.7402ZM143.049 69.7402C143.049 70.3418 143.128 70.8636 143.288 71.3057C143.447 71.7477 143.694 72.0895 144.026 72.3311C144.359 72.5726 144.787 72.6934 145.311 72.6934C145.831 72.6934 146.257 72.5726 146.59 72.3311C146.927 72.0895 147.175 71.7477 147.335 71.3057C147.494 70.8636 147.574 70.3418 147.574 69.7402C147.574 69.1432 147.494 68.6283 147.335 68.1953C147.175 67.7578 146.929 67.4206 146.597 67.1836C146.264 66.9466 145.833 66.8281 145.305 66.8281C144.525 66.8281 143.953 67.0856 143.589 67.6006C143.229 68.1156 143.049 68.8288 143.049 69.7402ZM154.276 65.8711C154.426 65.8711 154.584 65.8802 154.748 65.8984C154.912 65.9121 155.058 65.9326 155.185 65.96L155.042 67.0127C154.919 66.9808 154.782 66.9557 154.632 66.9375C154.481 66.9193 154.34 66.9102 154.208 66.9102C153.907 66.9102 153.622 66.9717 153.353 67.0947C153.089 67.2132 152.856 67.3864 152.656 67.6143C152.455 67.8376 152.298 68.1087 152.184 68.4277C152.07 68.7422 152.013 69.0931 152.013 69.4805V73.5H150.872V66.0078H151.815L151.938 67.3887H151.986C152.141 67.1107 152.328 66.8577 152.547 66.6299C152.765 66.3975 153.018 66.2129 153.305 66.0762C153.597 65.9395 153.921 65.8711 154.276 65.8711ZM157.888 62.8633V68.3867C157.888 68.569 157.881 68.7923 157.868 69.0566C157.854 69.3164 157.843 69.5465 157.834 69.7471H157.881C157.977 69.6286 158.116 69.4531 158.298 69.2207C158.485 68.9883 158.642 68.8014 158.77 68.6602L161.258 66.0078H162.591L159.577 69.207L162.81 73.5H161.443L158.797 69.9521L157.888 70.7861V73.5H156.76V62.8633H157.888ZM169.122 71.4492C169.122 71.9277 169.002 72.3311 168.76 72.6592C168.523 72.9827 168.181 73.2266 167.735 73.3906C167.293 73.5547 166.764 73.6367 166.149 73.6367C165.625 73.6367 165.171 73.5957 164.788 73.5137C164.406 73.4316 164.071 73.3154 163.784 73.165V72.1191C164.089 72.2695 164.453 72.4062 164.877 72.5293C165.301 72.6523 165.734 72.7139 166.176 72.7139C166.823 72.7139 167.293 72.609 167.584 72.3994C167.876 72.1898 168.022 71.9049 168.022 71.5449C168.022 71.3398 167.963 71.1598 167.844 71.0049C167.73 70.8454 167.536 70.6927 167.263 70.5469C166.99 70.3965 166.611 70.2324 166.128 70.0547C165.65 69.8724 165.235 69.6924 164.884 69.5146C164.538 69.3324 164.269 69.1113 164.077 68.8516C163.891 68.5918 163.797 68.2546 163.797 67.8398C163.797 67.2064 164.052 66.721 164.563 66.3838C165.078 66.042 165.752 65.8711 166.586 65.8711C167.037 65.8711 167.459 65.9167 167.851 66.0078C168.247 66.0944 168.617 66.2129 168.958 66.3633L168.576 67.2725C168.266 67.1403 167.935 67.0286 167.584 66.9375C167.233 66.8464 166.876 66.8008 166.511 66.8008C165.987 66.8008 165.584 66.8874 165.301 67.0605C165.023 67.2337 164.884 67.4707 164.884 67.7715C164.884 68.0039 164.948 68.1953 165.076 68.3457C165.208 68.4961 165.417 68.6374 165.704 68.7695C165.992 68.9017 166.37 69.0566 166.839 69.2344C167.309 69.4076 167.714 69.5876 168.056 69.7744C168.398 69.9567 168.66 70.18 168.842 70.4443C169.029 70.7041 169.122 71.0391 169.122 71.4492ZM173.528 72.707C173.714 72.707 173.906 72.6911 174.102 72.6592C174.298 72.6273 174.457 72.5885 174.58 72.543V73.4248C174.448 73.484 174.264 73.5342 174.027 73.5752C173.794 73.6162 173.566 73.6367 173.343 73.6367C172.946 73.6367 172.586 73.5684 172.263 73.4316C171.939 73.2904 171.68 73.0534 171.484 72.7207C171.292 72.388 171.196 71.9277 171.196 71.3398V66.8965H170.13V66.3428L171.203 65.8984L171.654 64.2715H172.338V66.0078H174.532V66.8965H172.338V71.3057C172.338 71.7751 172.445 72.126 172.659 72.3584C172.878 72.5908 173.168 72.707 173.528 72.707ZM179.061 65.8848C179.954 65.8848 180.617 66.0853 181.05 66.4863C181.483 66.8874 181.699 67.5277 181.699 68.4072V73.5H180.872L180.653 72.3926H180.599C180.389 72.666 180.17 72.8962 179.942 73.083C179.715 73.2653 179.45 73.4043 179.149 73.5C178.853 73.5911 178.489 73.6367 178.056 73.6367C177.6 73.6367 177.194 73.557 176.839 73.3975C176.488 73.238 176.21 72.9964 176.005 72.6729C175.804 72.3493 175.704 71.9391 175.704 71.4424C175.704 70.695 176 70.1208 176.593 69.7197C177.185 69.3187 178.088 69.0999 179.3 69.0635L180.592 69.0088V68.5508C180.592 67.9036 180.453 67.4502 180.175 67.1904C179.897 66.9307 179.505 66.8008 178.999 66.8008C178.607 66.8008 178.233 66.8577 177.878 66.9717C177.522 67.0856 177.185 67.2201 176.866 67.375L176.518 66.5137C176.855 66.3405 177.242 66.1924 177.68 66.0693C178.117 65.9463 178.578 65.8848 179.061 65.8848ZM180.578 69.8086L179.437 69.8564C178.502 69.8929 177.844 70.0456 177.461 70.3145C177.078 70.5833 176.887 70.9639 176.887 71.4561C176.887 71.8844 177.017 72.2012 177.276 72.4062C177.536 72.6113 177.88 72.7139 178.309 72.7139C178.974 72.7139 179.519 72.5293 179.942 72.1602C180.366 71.791 180.578 71.2373 180.578 70.499V69.8086ZM186.617 72.707C186.804 72.707 186.995 72.6911 187.191 72.6592C187.387 72.6273 187.547 72.5885 187.67 72.543V73.4248C187.538 73.484 187.353 73.5342 187.116 73.5752C186.884 73.6162 186.656 73.6367 186.432 73.6367C186.036 73.6367 185.676 73.5684 185.352 73.4316C185.029 73.2904 184.769 73.0534 184.573 72.7207C184.382 72.388 184.286 71.9277 184.286 71.3398V66.8965H183.22V66.3428L184.293 65.8984L184.744 64.2715H185.428V66.0078H187.622V66.8965H185.428V71.3057C185.428 71.7751 185.535 72.126 185.749 72.3584C185.968 72.5908 186.257 72.707 186.617 72.707ZM190.482 66.0078V73.5H189.347V66.0078H190.482ZM189.928 63.2051C190.115 63.2051 190.275 63.2666 190.407 63.3896C190.544 63.5081 190.612 63.695 190.612 63.9502C190.612 64.2008 190.544 64.3877 190.407 64.5107C190.275 64.6338 190.115 64.6953 189.928 64.6953C189.732 64.6953 189.568 64.6338 189.436 64.5107C189.309 64.3877 189.245 64.2008 189.245 63.9502C189.245 63.695 189.309 63.5081 189.436 63.3896C189.568 63.2666 189.732 63.2051 189.928 63.2051ZM199.508 69.7402C199.508 70.3555 199.429 70.9046 199.269 71.3877C199.11 71.8708 198.879 72.2786 198.579 72.6113C198.278 72.944 197.913 73.1992 197.485 73.377C197.061 73.5501 196.58 73.6367 196.043 73.6367C195.541 73.6367 195.081 73.5501 194.662 73.377C194.247 73.1992 193.887 72.944 193.582 72.6113C193.281 72.2786 193.046 71.8708 192.877 71.3877C192.713 70.9046 192.631 70.3555 192.631 69.7402C192.631 68.9199 192.77 68.2227 193.048 67.6484C193.326 67.0697 193.723 66.6299 194.238 66.3291C194.757 66.0238 195.375 65.8711 196.09 65.8711C196.774 65.8711 197.371 66.0238 197.881 66.3291C198.396 66.6344 198.795 67.0765 199.078 67.6553C199.365 68.2295 199.508 68.9245 199.508 69.7402ZM193.807 69.7402C193.807 70.3418 193.887 70.8636 194.046 71.3057C194.206 71.7477 194.452 72.0895 194.785 72.3311C195.117 72.5726 195.546 72.6934 196.07 72.6934C196.589 72.6934 197.016 72.5726 197.348 72.3311C197.685 72.0895 197.934 71.7477 198.093 71.3057C198.253 70.8636 198.333 70.3418 198.333 69.7402C198.333 69.1432 198.253 68.6283 198.093 68.1953C197.934 67.7578 197.688 67.4206 197.355 67.1836C197.022 66.9466 196.592 66.8281 196.063 66.8281C195.284 66.8281 194.712 67.0856 194.347 67.6006C193.987 68.1156 193.807 68.8288 193.807 69.7402ZM205.178 65.8711C206.067 65.8711 206.739 66.0898 207.195 66.5273C207.65 66.9603 207.878 67.6576 207.878 68.6191V73.5H206.757V68.6943C206.757 68.07 206.614 67.6029 206.327 67.293C206.044 66.9831 205.609 66.8281 205.021 66.8281C204.191 66.8281 203.608 67.0628 203.271 67.5322C202.934 68.0016 202.765 68.6829 202.765 69.5762V73.5H201.63V66.0078H202.546L202.717 67.0879H202.779C202.938 66.8236 203.141 66.6025 203.387 66.4248C203.633 66.2425 203.909 66.1058 204.214 66.0146C204.52 65.9189 204.841 65.8711 205.178 65.8711Z" fill="black"/>
<path d="M381.904 305.434L379.613 314H378.611L376.912 308.234C376.861 308.07 376.812 307.906 376.766 307.742C376.723 307.574 376.682 307.416 376.643 307.268C376.604 307.115 376.57 306.982 376.543 306.869C376.52 306.752 376.502 306.664 376.49 306.605C376.482 306.664 376.467 306.75 376.443 306.863C376.424 306.977 376.396 307.107 376.361 307.256C376.33 307.404 376.291 307.562 376.244 307.73C376.201 307.898 376.154 308.068 376.104 308.24L374.451 314H373.449L371.176 305.434H372.213L373.59 310.807C373.637 310.986 373.68 311.164 373.719 311.34C373.762 311.512 373.799 311.68 373.83 311.844C373.865 312.008 373.896 312.168 373.924 312.324C373.951 312.48 373.977 312.633 374 312.781C374.02 312.629 374.045 312.471 374.076 312.307C374.107 312.139 374.141 311.969 374.176 311.797C374.215 311.625 374.256 311.451 374.299 311.275C374.346 311.1 374.395 310.924 374.445 310.748L375.986 305.434H377.012L378.617 310.789C378.672 310.973 378.723 311.154 378.77 311.334C378.816 311.514 378.857 311.689 378.893 311.861C378.932 312.029 378.965 312.191 378.992 312.348C379.023 312.5 379.051 312.645 379.074 312.781C379.102 312.59 379.135 312.389 379.174 312.178C379.213 311.967 379.258 311.746 379.309 311.516C379.363 311.285 379.422 311.047 379.484 310.801L380.861 305.434H381.904ZM388.808 310.777C388.808 311.305 388.74 311.775 388.603 312.189C388.467 312.604 388.269 312.953 388.012 313.238C387.754 313.523 387.441 313.742 387.074 313.895C386.711 314.043 386.299 314.117 385.838 314.117C385.408 314.117 385.014 314.043 384.654 313.895C384.299 313.742 383.99 313.523 383.728 313.238C383.471 312.953 383.269 312.604 383.125 312.189C382.984 311.775 382.914 311.305 382.914 310.777C382.914 310.074 383.033 309.477 383.271 308.984C383.51 308.488 383.849 308.111 384.291 307.854C384.736 307.592 385.265 307.461 385.879 307.461C386.465 307.461 386.976 307.592 387.414 307.854C387.855 308.115 388.197 308.494 388.439 308.99C388.685 309.482 388.808 310.078 388.808 310.777ZM383.922 310.777C383.922 311.293 383.99 311.74 384.127 312.119C384.264 312.498 384.474 312.791 384.76 312.998C385.045 313.205 385.412 313.309 385.861 313.309C386.306 313.309 386.672 313.205 386.957 312.998C387.246 312.791 387.459 312.498 387.596 312.119C387.732 311.74 387.801 311.293 387.801 310.777C387.801 310.266 387.732 309.824 387.596 309.453C387.459 309.078 387.248 308.789 386.963 308.586C386.678 308.383 386.308 308.281 385.855 308.281C385.187 308.281 384.697 308.502 384.385 308.943C384.076 309.385 383.922 309.996 383.922 310.777ZM393.568 307.461C393.697 307.461 393.832 307.469 393.972 307.484C394.113 307.496 394.238 307.514 394.347 307.537L394.224 308.439C394.119 308.412 394.002 308.391 393.873 308.375C393.744 308.359 393.623 308.352 393.509 308.352C393.252 308.352 393.007 308.404 392.777 308.51C392.55 308.611 392.351 308.76 392.179 308.955C392.007 309.146 391.873 309.379 391.775 309.652C391.677 309.922 391.629 310.223 391.629 310.555V314H390.65V307.578H391.459L391.564 308.762H391.605C391.738 308.523 391.898 308.307 392.086 308.111C392.273 307.912 392.49 307.754 392.736 307.637C392.986 307.52 393.263 307.461 393.568 307.461ZM396.687 304.883V309.617C396.687 309.773 396.681 309.965 396.669 310.191C396.658 310.414 396.648 310.611 396.64 310.783H396.681C396.763 310.682 396.882 310.531 397.039 310.332C397.199 310.133 397.334 309.973 397.443 309.852L399.576 307.578H400.718L398.134 310.32L400.906 314H399.734L397.466 310.959L396.687 311.674V314H395.72V304.883H396.687ZM406.339 312.242C406.339 312.652 406.236 312.998 406.029 313.279C405.826 313.557 405.533 313.766 405.15 313.906C404.771 314.047 404.318 314.117 403.79 314.117C403.341 314.117 402.952 314.082 402.624 314.012C402.296 313.941 402.009 313.842 401.763 313.713V312.816C402.025 312.945 402.337 313.062 402.701 313.168C403.064 313.273 403.435 313.326 403.814 313.326C404.369 313.326 404.771 313.236 405.021 313.057C405.271 312.877 405.396 312.633 405.396 312.324C405.396 312.148 405.345 311.994 405.244 311.861C405.146 311.725 404.98 311.594 404.745 311.469C404.511 311.34 404.187 311.199 403.773 311.047C403.363 310.891 403.007 310.736 402.706 310.584C402.41 310.428 402.179 310.238 402.015 310.016C401.855 309.793 401.775 309.504 401.775 309.148C401.775 308.605 401.994 308.189 402.431 307.9C402.872 307.607 403.451 307.461 404.165 307.461C404.552 307.461 404.913 307.5 405.249 307.578C405.589 307.652 405.906 307.754 406.199 307.883L405.87 308.662C405.605 308.549 405.322 308.453 405.021 308.375C404.72 308.297 404.413 308.258 404.101 308.258C403.652 308.258 403.306 308.332 403.064 308.48C402.826 308.629 402.706 308.832 402.706 309.09C402.706 309.289 402.761 309.453 402.87 309.582C402.984 309.711 403.163 309.832 403.41 309.945C403.656 310.059 403.98 310.191 404.382 310.344C404.785 310.492 405.132 310.646 405.425 310.807C405.718 310.963 405.943 311.154 406.099 311.381C406.259 311.604 406.339 311.891 406.339 312.242ZM411.081 307.461C411.882 307.461 412.521 307.736 412.997 308.287C413.474 308.838 413.712 309.666 413.712 310.771C413.712 311.502 413.603 312.115 413.384 312.611C413.165 313.107 412.857 313.482 412.458 313.736C412.064 313.99 411.597 314.117 411.058 314.117C410.718 314.117 410.419 314.072 410.161 313.982C409.904 313.893 409.683 313.771 409.499 313.619C409.316 313.467 409.163 313.301 409.042 313.121H408.972C408.984 313.273 408.997 313.457 409.013 313.672C409.032 313.887 409.042 314.074 409.042 314.234V316.871H408.064V307.578H408.866L408.995 308.527H409.042C409.167 308.332 409.32 308.154 409.499 307.994C409.679 307.83 409.898 307.701 410.155 307.607C410.417 307.51 410.726 307.461 411.081 307.461ZM410.911 308.281C410.466 308.281 410.107 308.367 409.833 308.539C409.564 308.711 409.366 308.969 409.241 309.312C409.116 309.652 409.05 310.08 409.042 310.596V310.783C409.042 311.326 409.101 311.785 409.218 312.16C409.339 312.535 409.536 312.82 409.81 313.016C410.087 313.211 410.458 313.309 410.923 313.309C411.321 313.309 411.654 313.201 411.919 312.986C412.185 312.771 412.382 312.473 412.511 312.09C412.644 311.703 412.71 311.26 412.71 310.76C412.71 310.002 412.562 309.4 412.265 308.955C411.972 308.506 411.521 308.281 410.911 308.281ZM417.974 307.473C418.739 307.473 419.308 307.645 419.679 307.988C420.05 308.332 420.235 308.881 420.235 309.635V314H419.526L419.339 313.051H419.292C419.112 313.285 418.925 313.482 418.73 313.643C418.534 313.799 418.308 313.918 418.05 314C417.796 314.078 417.483 314.117 417.112 314.117C416.722 314.117 416.374 314.049 416.069 313.912C415.769 313.775 415.53 313.568 415.355 313.291C415.183 313.014 415.097 312.662 415.097 312.236C415.097 311.596 415.351 311.104 415.858 310.76C416.366 310.416 417.14 310.229 418.179 310.197L419.286 310.15V309.758C419.286 309.203 419.167 308.814 418.929 308.592C418.69 308.369 418.355 308.258 417.921 308.258C417.585 308.258 417.265 308.307 416.96 308.404C416.655 308.502 416.366 308.617 416.093 308.75L415.794 308.012C416.083 307.863 416.415 307.736 416.79 307.631C417.165 307.525 417.56 307.473 417.974 307.473ZM419.274 310.836L418.296 310.877C417.495 310.908 416.931 311.039 416.603 311.27C416.274 311.5 416.11 311.826 416.11 312.248C416.11 312.615 416.222 312.887 416.444 313.062C416.667 313.238 416.962 313.326 417.329 313.326C417.899 313.326 418.366 313.168 418.73 312.852C419.093 312.535 419.274 312.061 419.274 311.428V310.836ZM424.972 314.117C424.393 314.117 423.884 313.998 423.442 313.76C423.001 313.521 422.657 313.158 422.411 312.67C422.165 312.182 422.042 311.566 422.042 310.824C422.042 310.047 422.171 309.412 422.429 308.92C422.69 308.424 423.05 308.057 423.507 307.818C423.964 307.58 424.483 307.461 425.065 307.461C425.386 307.461 425.694 307.494 425.991 307.561C426.292 307.623 426.538 307.703 426.729 307.801L426.436 308.615C426.241 308.537 426.015 308.467 425.757 308.404C425.503 308.342 425.265 308.311 425.042 308.311C424.597 308.311 424.225 308.406 423.929 308.598C423.636 308.789 423.415 309.07 423.266 309.441C423.122 309.812 423.05 310.27 423.05 310.812C423.05 311.332 423.12 311.775 423.261 312.143C423.405 312.51 423.618 312.791 423.899 312.986C424.184 313.178 424.54 313.273 424.966 313.273C425.306 313.273 425.612 313.238 425.886 313.168C426.159 313.094 426.407 313.008 426.63 312.91V313.777C426.415 313.887 426.175 313.971 425.909 314.029C425.647 314.088 425.335 314.117 424.972 314.117ZM430.786 307.461C431.333 307.461 431.801 307.582 432.192 307.824C432.583 308.066 432.882 308.406 433.089 308.844C433.296 309.277 433.399 309.785 433.399 310.367V310.971H428.964C428.975 311.725 429.163 312.299 429.526 312.693C429.889 313.088 430.401 313.285 431.061 313.285C431.467 313.285 431.827 313.248 432.139 313.174C432.452 313.1 432.776 312.99 433.112 312.846V313.701C432.788 313.846 432.466 313.951 432.145 314.018C431.829 314.084 431.454 314.117 431.02 314.117C430.403 314.117 429.864 313.992 429.403 313.742C428.946 313.488 428.591 313.117 428.337 312.629C428.083 312.141 427.956 311.543 427.956 310.836C427.956 310.145 428.071 309.547 428.301 309.043C428.536 308.535 428.864 308.145 429.286 307.871C429.712 307.598 430.212 307.461 430.786 307.461ZM430.774 308.258C430.255 308.258 429.841 308.428 429.532 308.768C429.223 309.107 429.04 309.582 428.981 310.191H432.38C432.376 309.809 432.315 309.473 432.198 309.184C432.085 308.891 431.911 308.664 431.676 308.504C431.442 308.34 431.141 308.258 430.774 308.258ZM379.602 329.705C379.602 330.365 379.518 330.967 379.35 331.51C379.182 332.049 378.932 332.514 378.6 332.904C378.271 333.291 377.863 333.59 377.375 333.801C376.887 334.012 376.32 334.117 375.676 334.117C375.012 334.117 374.432 334.012 373.936 333.801C373.443 333.59 373.033 333.289 372.705 332.898C372.381 332.508 372.137 332.041 371.973 331.498C371.812 330.955 371.732 330.354 371.732 329.693C371.732 328.818 371.877 328.051 372.166 327.391C372.455 326.73 372.893 326.217 373.479 325.85C374.068 325.482 374.807 325.299 375.693 325.299C376.541 325.299 377.254 325.48 377.832 325.844C378.414 326.207 378.854 326.719 379.15 327.379C379.451 328.035 379.602 328.811 379.602 329.705ZM372.781 329.705C372.781 330.432 372.885 331.061 373.092 331.592C373.299 332.123 373.615 332.533 374.041 332.822C374.471 333.111 375.016 333.256 375.676 333.256C376.34 333.256 376.883 333.111 377.305 332.822C377.73 332.533 378.045 332.123 378.248 331.592C378.451 331.061 378.553 330.432 378.553 329.705C378.553 328.6 378.32 327.736 377.855 327.115C377.395 326.49 376.674 326.178 375.693 326.178C375.029 326.178 374.482 326.32 374.053 326.605C373.623 326.891 373.303 327.297 373.092 327.824C372.885 328.348 372.781 328.975 372.781 329.705ZM381.672 325.434H384.097C385.168 325.434 385.972 325.594 386.512 325.914C387.051 326.234 387.32 326.779 387.32 327.549C387.32 327.881 387.256 328.18 387.127 328.445C387.002 328.707 386.818 328.924 386.576 329.096C386.334 329.268 386.035 329.387 385.68 329.453V329.512C386.055 329.57 386.387 329.678 386.676 329.834C386.965 329.99 387.191 330.209 387.355 330.49C387.519 330.771 387.601 331.129 387.601 331.562C387.601 332.09 387.478 332.535 387.232 332.898C386.99 333.262 386.646 333.537 386.201 333.725C385.756 333.908 385.228 334 384.619 334H381.672V325.434ZM382.668 329.107H384.308C385.055 329.107 385.57 328.984 385.855 328.738C386.144 328.492 386.289 328.133 386.289 327.66C386.289 327.172 386.117 326.82 385.773 326.605C385.433 326.391 384.89 326.283 384.144 326.283H382.668V329.107ZM382.668 329.945V333.15H384.449C385.211 333.15 385.75 333.002 386.066 332.705C386.383 332.404 386.541 332 386.541 331.492C386.541 331.168 386.469 330.891 386.324 330.66C386.183 330.43 385.953 330.254 385.633 330.133C385.316 330.008 384.892 329.945 384.361 329.945H382.668ZM391.904 325.434C392.607 325.434 393.187 325.521 393.644 325.697C394.105 325.869 394.449 326.133 394.675 326.488C394.902 326.844 395.015 327.297 395.015 327.848C395.015 328.301 394.933 328.68 394.769 328.984C394.605 329.285 394.39 329.529 394.125 329.717C393.859 329.904 393.576 330.049 393.275 330.15L395.625 334H394.465L392.367 330.426H390.586V334H389.59V325.434H391.904ZM391.845 326.295H390.586V329.582H391.945C392.644 329.582 393.158 329.439 393.486 329.154C393.818 328.869 393.984 328.449 393.984 327.895C393.984 327.312 393.808 326.9 393.457 326.658C393.109 326.416 392.572 326.295 391.845 326.295ZM400.433 325.434H402.859C403.929 325.434 404.734 325.594 405.273 325.914C405.812 326.234 406.081 326.779 406.081 327.549C406.081 327.881 406.017 328.18 405.888 328.445C405.763 328.707 405.579 328.924 405.337 329.096C405.095 329.268 404.796 329.387 404.441 329.453V329.512C404.816 329.57 405.148 329.678 405.437 329.834C405.726 329.99 405.952 330.209 406.117 330.49C406.281 330.771 406.363 331.129 406.363 331.562C406.363 332.09 406.24 332.535 405.994 332.898C405.751 333.262 405.408 333.537 404.962 333.725C404.517 333.908 403.99 334 403.38 334H400.433V325.434ZM401.429 329.107H403.07C403.816 329.107 404.331 328.984 404.617 328.738C404.906 328.492 405.05 328.133 405.05 327.66C405.05 327.172 404.878 326.82 404.535 326.605C404.195 326.391 403.652 326.283 402.906 326.283H401.429V329.107ZM401.429 329.945V333.15H403.21C403.972 333.15 404.511 333.002 404.827 332.705C405.144 332.404 405.302 332 405.302 331.492C405.302 331.168 405.23 330.891 405.085 330.66C404.945 330.43 404.714 330.254 404.394 330.133C404.077 330.008 403.654 329.945 403.122 329.945H401.429ZM413.507 327.578V334H412.71L412.57 333.098H412.517C412.384 333.32 412.212 333.508 412.001 333.66C411.79 333.812 411.552 333.926 411.286 334C411.025 334.078 410.745 334.117 410.448 334.117C409.941 334.117 409.515 334.035 409.171 333.871C408.827 333.707 408.568 333.453 408.392 333.109C408.22 332.766 408.134 332.324 408.134 331.785V327.578H409.118V331.715C409.118 332.25 409.239 332.65 409.482 332.916C409.724 333.178 410.093 333.309 410.589 333.309C411.066 333.309 411.445 333.219 411.726 333.039C412.011 332.859 412.216 332.596 412.341 332.248C412.466 331.896 412.529 331.467 412.529 330.959V327.578H413.507ZM416.696 327.578V334H415.724V327.578H416.696ZM416.222 325.176C416.382 325.176 416.519 325.229 416.632 325.334C416.749 325.436 416.808 325.596 416.808 325.814C416.808 326.029 416.749 326.189 416.632 326.295C416.519 326.4 416.382 326.453 416.222 326.453C416.054 326.453 415.913 326.4 415.8 326.295C415.69 326.189 415.636 326.029 415.636 325.814C415.636 325.596 415.69 325.436 415.8 325.334C415.913 325.229 416.054 325.176 416.222 325.176ZM419.897 334H418.919V324.883H419.897V334ZM424.399 334.117C423.587 334.117 422.942 333.84 422.466 333.285C421.993 332.73 421.757 331.906 421.757 330.812C421.757 329.707 421.999 328.873 422.483 328.311C422.967 327.744 423.612 327.461 424.417 327.461C424.757 327.461 425.053 327.506 425.307 327.596C425.561 327.686 425.78 327.807 425.964 327.959C426.147 328.107 426.301 328.277 426.426 328.469H426.497C426.481 328.348 426.466 328.182 426.45 327.971C426.434 327.76 426.426 327.588 426.426 327.455V324.883H427.399V334H426.614L426.467 333.086H426.426C426.305 333.277 426.151 333.451 425.964 333.607C425.78 333.764 425.559 333.889 425.301 333.982C425.048 334.072 424.747 334.117 424.399 334.117ZM424.551 333.309C425.239 333.309 425.725 333.113 426.01 332.723C426.296 332.332 426.438 331.752 426.438 330.982V330.807C426.438 329.99 426.301 329.363 426.028 328.926C425.759 328.488 425.266 328.27 424.551 328.27C423.954 328.27 423.507 328.5 423.21 328.961C422.913 329.418 422.764 330.043 422.764 330.836C422.764 331.625 422.911 332.234 423.204 332.664C423.501 333.094 423.95 333.309 424.551 333.309Z" fill="black"/>
<rect x="470.5" y="182.5" width="119" height="117" rx="4.5" fill="#EBB347" stroke="#00378F"/>
<path d="M491.64 193.564H495.133V198.41C494.609 198.588 494.069 198.72 493.513 198.807C492.961 198.893 492.344 198.937 491.66 198.937C490.621 198.937 489.744 198.729 489.028 198.315C488.317 197.9 487.777 197.31 487.408 196.544C487.039 195.774 486.854 194.86 486.854 193.803C486.854 192.768 487.057 191.866 487.463 191.096C487.873 190.326 488.463 189.729 489.233 189.305C490.008 188.877 490.938 188.662 492.022 188.662C492.578 188.662 493.105 188.715 493.602 188.82C494.103 188.92 494.568 189.063 494.996 189.25L494.552 190.262C494.183 190.102 493.775 189.966 493.328 189.852C492.886 189.738 492.428 189.681 491.954 189.681C491.138 189.681 490.439 189.849 489.855 190.187C489.277 190.524 488.832 191 488.522 191.615C488.217 192.231 488.064 192.96 488.064 193.803C488.064 194.637 488.199 195.364 488.468 195.984C488.737 196.599 489.156 197.077 489.726 197.419C490.295 197.761 491.029 197.932 491.927 197.932C492.378 197.932 492.765 197.907 493.089 197.857C493.412 197.802 493.706 197.738 493.971 197.665V194.603H491.64V193.564ZM500.946 191.171C501.097 191.171 501.254 191.18 501.418 191.198C501.582 191.212 501.728 191.233 501.855 191.26L501.712 192.313C501.589 192.281 501.452 192.256 501.302 192.238C501.151 192.219 501.01 192.21 500.878 192.21C500.577 192.21 500.292 192.272 500.023 192.395C499.759 192.513 499.527 192.686 499.326 192.914C499.125 193.138 498.968 193.409 498.854 193.728C498.74 194.042 498.683 194.393 498.683 194.78V198.8H497.542V191.308H498.485L498.608 192.689H498.656C498.811 192.411 498.998 192.158 499.217 191.93C499.435 191.697 499.688 191.513 499.975 191.376C500.267 191.239 500.591 191.171 500.946 191.171ZM509.89 195.04C509.89 195.655 509.811 196.205 509.651 196.688C509.492 197.171 509.261 197.579 508.961 197.911C508.66 198.244 508.295 198.499 507.867 198.677C507.443 198.85 506.962 198.937 506.424 198.937C505.923 198.937 505.463 198.85 505.044 198.677C504.629 198.499 504.269 198.244 503.964 197.911C503.663 197.579 503.428 197.171 503.259 196.688C503.095 196.205 503.013 195.655 503.013 195.04C503.013 194.22 503.152 193.523 503.43 192.948C503.708 192.37 504.105 191.93 504.62 191.629C505.139 191.324 505.757 191.171 506.472 191.171C507.156 191.171 507.753 191.324 508.263 191.629C508.778 191.934 509.177 192.377 509.46 192.955C509.747 193.529 509.89 194.224 509.89 195.04ZM504.189 195.04C504.189 195.642 504.269 196.164 504.428 196.606C504.588 197.048 504.834 197.39 505.167 197.631C505.499 197.873 505.928 197.993 506.452 197.993C506.971 197.993 507.397 197.873 507.73 197.631C508.067 197.39 508.316 197.048 508.475 196.606C508.635 196.164 508.715 195.642 508.715 195.04C508.715 194.443 508.635 193.928 508.475 193.495C508.316 193.058 508.07 192.721 507.737 192.484C507.404 192.247 506.974 192.128 506.445 192.128C505.666 192.128 505.094 192.386 504.729 192.901C504.369 193.416 504.189 194.129 504.189 195.04ZM518.199 191.308V198.8H517.269L517.105 197.747H517.043C516.889 198.007 516.688 198.226 516.442 198.404C516.196 198.581 515.918 198.713 515.608 198.8C515.303 198.891 514.977 198.937 514.63 198.937C514.038 198.937 513.541 198.841 513.14 198.65C512.739 198.458 512.436 198.162 512.231 197.761C512.03 197.36 511.93 196.845 511.93 196.216V191.308H513.079V196.134C513.079 196.758 513.22 197.225 513.502 197.535C513.785 197.841 514.216 197.993 514.794 197.993C515.35 197.993 515.792 197.889 516.121 197.679C516.453 197.469 516.693 197.162 516.838 196.756C516.984 196.346 517.057 195.845 517.057 195.252V191.308H518.199ZM524.279 191.171C525.213 191.171 525.958 191.492 526.514 192.135C527.07 192.778 527.348 193.744 527.348 195.033C527.348 195.886 527.22 196.601 526.965 197.18C526.71 197.759 526.35 198.196 525.885 198.492C525.425 198.789 524.88 198.937 524.251 198.937C523.855 198.937 523.506 198.884 523.205 198.779C522.905 198.675 522.647 198.533 522.433 198.356C522.219 198.178 522.041 197.984 521.9 197.775H521.818C521.831 197.952 521.847 198.167 521.866 198.417C521.888 198.668 521.9 198.887 521.9 199.073V202.15H520.758V191.308H521.695L521.845 192.415H521.9C522.046 192.187 522.223 191.98 522.433 191.793C522.643 191.602 522.898 191.451 523.199 191.342C523.504 191.228 523.864 191.171 524.279 191.171ZM524.08 192.128C523.561 192.128 523.142 192.228 522.823 192.429C522.508 192.629 522.278 192.93 522.132 193.331C521.986 193.728 521.909 194.227 521.9 194.828V195.047C521.9 195.681 521.968 196.216 522.105 196.654C522.246 197.091 522.476 197.424 522.795 197.652C523.119 197.879 523.552 197.993 524.094 197.993C524.559 197.993 524.946 197.868 525.256 197.617C525.566 197.367 525.796 197.018 525.947 196.571C526.102 196.12 526.179 195.603 526.179 195.02C526.179 194.136 526.006 193.434 525.66 192.914C525.318 192.39 524.791 192.128 524.08 192.128ZM535.707 198.007C535.894 198.007 536.085 197.991 536.281 197.959C536.477 197.927 536.637 197.889 536.76 197.843V198.725C536.628 198.784 536.443 198.834 536.206 198.875C535.974 198.916 535.746 198.937 535.522 198.937C535.126 198.937 534.766 198.868 534.442 198.732C534.119 198.59 533.859 198.353 533.663 198.021C533.472 197.688 533.376 197.228 533.376 196.64V192.196H532.31V191.643L533.383 191.198L533.834 189.571H534.518V191.308H536.712V192.196H534.518V196.606C534.518 197.075 534.625 197.426 534.839 197.658C535.058 197.891 535.347 198.007 535.707 198.007ZM539.572 191.308V198.8H538.437V191.308H539.572ZM539.018 188.505C539.205 188.505 539.365 188.567 539.497 188.69C539.634 188.808 539.702 188.995 539.702 189.25C539.702 189.501 539.634 189.688 539.497 189.811C539.365 189.934 539.205 189.995 539.018 189.995C538.822 189.995 538.658 189.934 538.526 189.811C538.399 189.688 538.335 189.501 538.335 189.25C538.335 188.995 538.399 188.808 538.526 188.69C538.658 188.567 538.822 188.505 539.018 188.505ZM544.558 198.007C544.745 198.007 544.937 197.991 545.133 197.959C545.329 197.927 545.488 197.889 545.611 197.843V198.725C545.479 198.784 545.294 198.834 545.057 198.875C544.825 198.916 544.597 198.937 544.374 198.937C543.977 198.937 543.617 198.868 543.294 198.732C542.97 198.59 542.71 198.353 542.514 198.021C542.323 197.688 542.227 197.228 542.227 196.64V192.196H541.161V191.643L542.234 191.198L542.685 189.571H543.369V191.308H545.563V192.196H543.369V196.606C543.369 197.075 543.476 197.426 543.69 197.658C543.909 197.891 544.198 198.007 544.558 198.007ZM548.43 198.8H547.289V188.163H548.43V198.8ZM553.874 191.171C554.512 191.171 555.059 191.312 555.515 191.595C555.971 191.877 556.319 192.274 556.561 192.784C556.802 193.29 556.923 193.883 556.923 194.562V195.266H551.748C551.762 196.145 551.981 196.815 552.405 197.276C552.829 197.736 553.426 197.966 554.196 197.966C554.67 197.966 555.089 197.923 555.454 197.836C555.818 197.75 556.196 197.622 556.588 197.453V198.451C556.21 198.62 555.834 198.743 555.46 198.821C555.091 198.898 554.654 198.937 554.148 198.937C553.428 198.937 552.799 198.791 552.261 198.499C551.728 198.203 551.313 197.77 551.017 197.2C550.721 196.631 550.573 195.933 550.573 195.109C550.573 194.302 550.707 193.605 550.976 193.017C551.249 192.424 551.632 191.969 552.124 191.65C552.621 191.331 553.204 191.171 553.874 191.171ZM553.861 192.101C553.255 192.101 552.772 192.299 552.412 192.696C552.051 193.092 551.837 193.646 551.769 194.357H555.734C555.729 193.91 555.659 193.518 555.522 193.181C555.39 192.839 555.187 192.575 554.913 192.388C554.64 192.196 554.289 192.101 553.861 192.101Z" fill="black"/>
<path d="M475 174.3H585C587.485 174.3 589.5 176.315 589.5 178.8V213.3H470.5V178.8C470.5 176.315 472.515 174.3 475 174.3Z" fill="#DA6F5A"/>
<path d="M485.925 201.432C485.697 201.432 485.496 201.416 485.323 201.384C485.15 201.352 485.002 201.309 484.879 201.254V200.263C485.025 200.308 485.182 200.343 485.351 200.365C485.519 200.393 485.701 200.406 485.897 200.406C486.153 200.406 486.387 200.356 486.602 200.256C486.816 200.156 486.987 199.985 487.114 199.743C487.242 199.502 487.306 199.169 487.306 198.745V188.806H488.475V198.656C488.475 199.281 488.37 199.798 488.16 200.208C487.955 200.618 487.661 200.924 487.278 201.124C486.9 201.329 486.449 201.432 485.925 201.432ZM498.266 188.806L494.678 198.8H493.509L489.92 188.806H491.137L493.474 195.389C493.57 195.653 493.654 195.906 493.727 196.148C493.805 196.389 493.873 196.622 493.932 196.845C493.992 197.068 494.044 197.285 494.09 197.494C494.135 197.285 494.188 197.068 494.247 196.845C494.306 196.617 494.375 196.382 494.452 196.141C494.529 195.895 494.616 195.637 494.712 195.368L497.036 188.806H498.266ZM504.196 198.8L500.84 189.954H500.785C500.803 190.141 500.819 190.369 500.833 190.638C500.846 190.907 500.858 191.201 500.867 191.52C500.876 191.834 500.881 192.155 500.881 192.484V198.8H499.8V188.806H501.523L504.688 197.118H504.736L507.949 188.806H509.658V198.8H508.509V192.402C508.509 192.105 508.514 191.809 508.523 191.513C508.532 191.212 508.544 190.93 508.557 190.665C508.571 190.396 508.585 190.164 508.598 189.968H508.544L505.146 198.8H504.196Z" fill="white"/>
<path d="M475 174.3H585C587.485 174.3 589.5 176.315 589.5 178.8V213.3H470.5V178.8C470.5 176.315 472.515 174.3 475 174.3Z" stroke="#00378F"/>
<g style="mix-blend-mode:overlay">
<rect x="169.5" y="150.5" width="114" height="71" rx="4.5" fill="#82A4D9" stroke="#00378F"/>
<path d="M190.64 156.964H194.133V161.81C193.609 161.988 193.069 162.12 192.513 162.207C191.961 162.293 191.344 162.337 190.66 162.337C189.621 162.337 188.744 162.129 188.028 161.715C187.317 161.3 186.777 160.71 186.408 159.944C186.039 159.174 185.854 158.26 185.854 157.203C185.854 156.168 186.057 155.266 186.463 154.496C186.873 153.726 187.463 153.129 188.233 152.705C189.008 152.276 189.938 152.062 191.022 152.062C191.578 152.062 192.105 152.115 192.602 152.22C193.103 152.32 193.568 152.463 193.996 152.65L193.552 153.662C193.183 153.502 192.775 153.366 192.328 153.252C191.886 153.138 191.428 153.081 190.954 153.081C190.138 153.081 189.439 153.249 188.855 153.587C188.277 153.924 187.832 154.4 187.522 155.015C187.217 155.631 187.064 156.36 187.064 157.203C187.064 158.037 187.199 158.764 187.468 159.384C187.737 159.999 188.156 160.477 188.726 160.819C189.295 161.161 190.029 161.332 190.927 161.332C191.378 161.332 191.765 161.307 192.089 161.257C192.412 161.202 192.706 161.138 192.971 161.065V158.003H190.64V156.964ZM199.946 154.571C200.097 154.571 200.254 154.58 200.418 154.598C200.582 154.612 200.728 154.633 200.855 154.66L200.712 155.713C200.589 155.681 200.452 155.656 200.302 155.637C200.151 155.619 200.01 155.61 199.878 155.61C199.577 155.61 199.292 155.672 199.023 155.795C198.759 155.913 198.527 156.086 198.326 156.314C198.125 156.538 197.968 156.809 197.854 157.128C197.74 157.442 197.683 157.793 197.683 158.18V162.2H196.542V154.708H197.485L197.608 156.089H197.656C197.811 155.811 197.998 155.558 198.217 155.33C198.435 155.097 198.688 154.913 198.975 154.776C199.267 154.639 199.591 154.571 199.946 154.571ZM208.89 158.44C208.89 159.055 208.811 159.605 208.651 160.088C208.492 160.571 208.261 160.979 207.961 161.311C207.66 161.644 207.295 161.899 206.867 162.077C206.443 162.25 205.962 162.337 205.424 162.337C204.923 162.337 204.463 162.25 204.044 162.077C203.629 161.899 203.269 161.644 202.964 161.311C202.663 160.979 202.428 160.571 202.259 160.088C202.095 159.605 202.013 159.055 202.013 158.44C202.013 157.62 202.152 156.923 202.43 156.348C202.708 155.77 203.105 155.33 203.62 155.029C204.139 154.724 204.757 154.571 205.472 154.571C206.156 154.571 206.753 154.724 207.263 155.029C207.778 155.334 208.177 155.776 208.46 156.355C208.747 156.929 208.89 157.624 208.89 158.44ZM203.189 158.44C203.189 159.042 203.269 159.564 203.428 160.006C203.588 160.448 203.834 160.79 204.167 161.031C204.499 161.273 204.928 161.393 205.452 161.393C205.971 161.393 206.397 161.273 206.73 161.031C207.067 160.79 207.316 160.448 207.475 160.006C207.635 159.564 207.715 159.042 207.715 158.44C207.715 157.843 207.635 157.328 207.475 156.895C207.316 156.458 207.07 156.121 206.737 155.884C206.404 155.647 205.974 155.528 205.445 155.528C204.666 155.528 204.094 155.786 203.729 156.301C203.369 156.816 203.189 157.529 203.189 158.44ZM217.199 154.708V162.2H216.269L216.105 161.147H216.043C215.889 161.407 215.688 161.626 215.442 161.804C215.196 161.981 214.918 162.113 214.608 162.2C214.303 162.291 213.977 162.337 213.63 162.337C213.038 162.337 212.541 162.241 212.14 162.05C211.739 161.858 211.436 161.562 211.231 161.161C211.03 160.76 210.93 160.245 210.93 159.616V154.708H212.079V159.534C212.079 160.158 212.22 160.625 212.502 160.935C212.785 161.241 213.216 161.393 213.794 161.393C214.35 161.393 214.792 161.289 215.121 161.079C215.453 160.869 215.693 160.562 215.838 160.156C215.984 159.746 216.057 159.245 216.057 158.652V154.708H217.199ZM223.279 154.571C224.213 154.571 224.958 154.892 225.514 155.535C226.07 156.178 226.348 157.144 226.348 158.433C226.348 159.286 226.22 160.001 225.965 160.58C225.71 161.159 225.35 161.596 224.885 161.892C224.425 162.189 223.88 162.337 223.251 162.337C222.855 162.337 222.506 162.284 222.205 162.179C221.905 162.075 221.647 161.933 221.433 161.756C221.219 161.578 221.041 161.384 220.9 161.175H220.818C220.831 161.352 220.847 161.567 220.866 161.817C220.888 162.068 220.9 162.287 220.9 162.473V165.55H219.758V154.708H220.695L220.845 155.815H220.9C221.046 155.587 221.223 155.38 221.433 155.193C221.643 155.002 221.898 154.851 222.199 154.742C222.504 154.628 222.864 154.571 223.279 154.571ZM223.08 155.528C222.561 155.528 222.142 155.628 221.823 155.829C221.508 156.029 221.278 156.33 221.132 156.731C220.986 157.128 220.909 157.627 220.9 158.228V158.447C220.9 159.081 220.968 159.616 221.105 160.054C221.246 160.491 221.476 160.824 221.795 161.052C222.119 161.279 222.552 161.393 223.094 161.393C223.559 161.393 223.946 161.268 224.256 161.017C224.566 160.767 224.796 160.418 224.947 159.971C225.102 159.52 225.179 159.003 225.179 158.42C225.179 157.536 225.006 156.834 224.66 156.314C224.318 155.79 223.791 155.528 223.08 155.528ZM234.707 161.407C234.894 161.407 235.085 161.391 235.281 161.359C235.477 161.327 235.637 161.289 235.76 161.243V162.125C235.628 162.184 235.443 162.234 235.206 162.275C234.974 162.316 234.746 162.337 234.522 162.337C234.126 162.337 233.766 162.268 233.442 162.132C233.119 161.99 232.859 161.753 232.663 161.421C232.472 161.088 232.376 160.628 232.376 160.04V155.596H231.31V155.043L232.383 154.598L232.834 152.971H233.518V154.708H235.712V155.596H233.518V160.006C233.518 160.475 233.625 160.826 233.839 161.058C234.058 161.291 234.347 161.407 234.707 161.407ZM238.572 154.708V162.2H237.437V154.708H238.572ZM238.018 151.905C238.205 151.905 238.365 151.967 238.497 152.09C238.634 152.208 238.702 152.395 238.702 152.65C238.702 152.901 238.634 153.088 238.497 153.211C238.365 153.334 238.205 153.395 238.018 153.395C237.822 153.395 237.658 153.334 237.526 153.211C237.399 153.088 237.335 152.901 237.335 152.65C237.335 152.395 237.399 152.208 237.526 152.09C237.658 151.967 237.822 151.905 238.018 151.905ZM243.558 161.407C243.745 161.407 243.937 161.391 244.133 161.359C244.329 161.327 244.488 161.289 244.611 161.243V162.125C244.479 162.184 244.294 162.234 244.057 162.275C243.825 162.316 243.597 162.337 243.374 162.337C242.977 162.337 242.617 162.268 242.294 162.132C241.97 161.99 241.71 161.753 241.514 161.421C241.323 161.088 241.227 160.628 241.227 160.04V155.596H240.161V155.043L241.234 154.598L241.685 152.971H242.369V154.708H244.563V155.596H242.369V160.006C242.369 160.475 242.476 160.826 242.69 161.058C242.909 161.291 243.198 161.407 243.558 161.407ZM247.43 162.2H246.289V151.563H247.43V162.2ZM252.874 154.571C253.512 154.571 254.059 154.712 254.515 154.995C254.971 155.277 255.319 155.674 255.561 156.184C255.802 156.69 255.923 157.283 255.923 157.962V158.666H250.748C250.762 159.545 250.981 160.215 251.405 160.676C251.829 161.136 252.426 161.366 253.196 161.366C253.67 161.366 254.089 161.323 254.454 161.236C254.818 161.15 255.196 161.022 255.588 160.853V161.851C255.21 162.02 254.834 162.143 254.46 162.221C254.091 162.298 253.654 162.337 253.148 162.337C252.428 162.337 251.799 162.191 251.261 161.899C250.728 161.603 250.313 161.17 250.017 160.6C249.721 160.031 249.573 159.333 249.573 158.509C249.573 157.702 249.707 157.005 249.976 156.417C250.249 155.824 250.632 155.369 251.124 155.05C251.621 154.731 252.204 154.571 252.874 154.571ZM252.861 155.501C252.255 155.501 251.772 155.699 251.412 156.096C251.051 156.492 250.837 157.046 250.769 157.757H254.734C254.729 157.31 254.659 156.918 254.522 156.581C254.39 156.239 254.187 155.975 253.913 155.788C253.64 155.596 253.289 155.501 252.861 155.501Z" fill="black"/>
<path d="M174 137.7H279C281.485 137.7 283.5 139.715 283.5 142.2V176.7H169.5V142.2C169.5 139.715 171.515 137.7 174 137.7Z" fill="#00378F"/>
<path d="M189.437 162.2H188.268V153.231H185.123V152.206H192.567V153.231H189.437V162.2ZM196.952 154.571C197.59 154.571 198.137 154.712 198.593 154.995C199.048 155.277 199.397 155.674 199.639 156.184C199.88 156.69 200.001 157.283 200.001 157.962V158.666H194.826C194.84 159.545 195.058 160.215 195.482 160.676C195.906 161.136 196.503 161.366 197.273 161.366C197.747 161.366 198.167 161.323 198.531 161.236C198.896 161.15 199.274 161.022 199.666 160.853V161.851C199.288 162.02 198.912 162.143 198.538 162.221C198.169 162.298 197.731 162.337 197.225 162.337C196.505 162.337 195.876 162.191 195.339 161.899C194.806 161.603 194.391 161.17 194.095 160.6C193.798 160.031 193.65 159.333 193.65 158.509C193.65 157.702 193.785 157.005 194.054 156.417C194.327 155.824 194.71 155.369 195.202 155.05C195.699 154.731 196.282 154.571 196.952 154.571ZM196.938 155.501C196.332 155.501 195.849 155.699 195.489 156.096C195.129 156.492 194.915 157.046 194.847 157.757H198.811C198.807 157.31 198.736 156.918 198.599 156.581C198.467 156.239 198.264 155.975 197.991 155.788C197.718 155.596 197.367 155.501 196.938 155.501ZM206.935 160.149C206.935 160.628 206.814 161.031 206.573 161.359C206.336 161.683 205.994 161.927 205.548 162.091C205.105 162.255 204.577 162.337 203.962 162.337C203.438 162.337 202.984 162.296 202.601 162.214C202.218 162.132 201.883 162.015 201.596 161.865V160.819C201.902 160.97 202.266 161.106 202.69 161.229C203.114 161.352 203.547 161.414 203.989 161.414C204.636 161.414 205.105 161.309 205.397 161.099C205.689 160.89 205.835 160.605 205.835 160.245C205.835 160.04 205.775 159.86 205.657 159.705C205.543 159.545 205.349 159.393 205.076 159.247C204.802 159.096 204.424 158.932 203.941 158.755C203.463 158.572 203.048 158.392 202.697 158.215C202.351 158.032 202.082 157.811 201.89 157.552C201.703 157.292 201.61 156.955 201.61 156.54C201.61 155.906 201.865 155.421 202.376 155.084C202.891 154.742 203.565 154.571 204.399 154.571C204.85 154.571 205.272 154.617 205.664 154.708C206.06 154.794 206.429 154.913 206.771 155.063L206.388 155.972C206.078 155.84 205.748 155.729 205.397 155.637C205.046 155.546 204.688 155.501 204.324 155.501C203.8 155.501 203.396 155.587 203.114 155.761C202.836 155.934 202.697 156.171 202.697 156.471C202.697 156.704 202.761 156.895 202.888 157.046C203.021 157.196 203.23 157.337 203.517 157.47C203.804 157.602 204.183 157.757 204.652 157.934C205.121 158.108 205.527 158.288 205.869 158.474C206.211 158.657 206.473 158.88 206.655 159.144C206.842 159.404 206.935 159.739 206.935 160.149ZM211.34 161.407C211.527 161.407 211.719 161.391 211.915 161.359C212.111 161.327 212.27 161.289 212.393 161.243V162.125C212.261 162.184 212.076 162.234 211.839 162.275C211.607 162.316 211.379 162.337 211.156 162.337C210.759 162.337 210.399 162.268 210.076 162.132C209.752 161.99 209.492 161.753 209.296 161.421C209.105 161.088 209.009 160.628 209.009 160.04V155.596H207.943V155.043L209.016 154.598L209.467 152.971H210.151V154.708H212.345V155.596H210.151V160.006C210.151 160.475 210.258 160.826 210.472 161.058C210.691 161.291 210.98 161.407 211.34 161.407ZM222.311 153.088C221.759 153.088 221.263 153.183 220.821 153.375C220.383 153.562 220.009 153.835 219.699 154.195C219.394 154.551 219.159 154.981 218.995 155.487C218.831 155.993 218.749 156.563 218.749 157.196C218.749 158.035 218.879 158.764 219.139 159.384C219.403 159.999 219.795 160.475 220.315 160.812C220.839 161.15 221.493 161.318 222.277 161.318C222.723 161.318 223.142 161.282 223.534 161.209C223.931 161.131 224.316 161.036 224.69 160.922V161.933C224.325 162.07 223.942 162.17 223.541 162.234C223.14 162.303 222.664 162.337 222.112 162.337C221.096 162.337 220.246 162.127 219.563 161.708C218.884 161.284 218.373 160.687 218.031 159.917C217.694 159.147 217.526 158.237 217.526 157.189C217.526 156.433 217.63 155.742 217.84 155.118C218.054 154.489 218.364 153.947 218.77 153.491C219.18 153.035 219.681 152.684 220.274 152.438C220.871 152.188 221.554 152.062 222.324 152.062C222.83 152.062 223.318 152.112 223.787 152.213C224.257 152.313 224.681 152.457 225.059 152.643L224.594 153.628C224.275 153.482 223.924 153.357 223.541 153.252C223.163 153.142 222.753 153.088 222.311 153.088ZM233.306 158.44C233.306 159.055 233.226 159.605 233.066 160.088C232.907 160.571 232.677 160.979 232.376 161.311C232.075 161.644 231.711 161.899 231.282 162.077C230.858 162.25 230.378 162.337 229.84 162.337C229.339 162.337 228.878 162.25 228.459 162.077C228.044 161.899 227.684 161.644 227.379 161.311C227.078 160.979 226.843 160.571 226.675 160.088C226.511 159.605 226.429 159.055 226.429 158.44C226.429 157.62 226.568 156.923 226.846 156.348C227.124 155.77 227.52 155.33 228.035 155.029C228.555 154.724 229.172 154.571 229.888 154.571C230.571 154.571 231.168 154.724 231.679 155.029C232.194 155.334 232.592 155.776 232.875 156.355C233.162 156.929 233.306 157.624 233.306 158.44ZM227.605 158.44C227.605 159.042 227.684 159.564 227.844 160.006C228.003 160.448 228.249 160.79 228.582 161.031C228.915 161.273 229.343 161.393 229.867 161.393C230.387 161.393 230.813 161.273 231.146 161.031C231.483 160.79 231.731 160.448 231.891 160.006C232.05 159.564 232.13 159.042 232.13 158.44C232.13 157.843 232.05 157.328 231.891 156.895C231.731 156.458 231.485 156.121 231.152 155.884C230.82 155.647 230.389 155.528 229.86 155.528C229.081 155.528 228.509 155.786 228.145 156.301C227.785 156.816 227.605 157.529 227.605 158.44ZM238.094 162.337C237.146 162.337 236.394 162.013 235.838 161.366C235.286 160.719 235.011 159.757 235.011 158.481C235.011 157.192 235.293 156.219 235.858 155.562C236.423 154.901 237.175 154.571 238.114 154.571C238.511 154.571 238.857 154.623 239.153 154.728C239.449 154.833 239.705 154.974 239.919 155.152C240.133 155.325 240.313 155.524 240.459 155.747H240.541C240.523 155.606 240.504 155.412 240.486 155.166C240.468 154.92 240.459 154.719 240.459 154.564V151.563H241.594V162.2H240.678L240.507 161.134H240.459C240.318 161.357 240.138 161.56 239.919 161.742C239.705 161.924 239.447 162.07 239.146 162.179C238.85 162.284 238.499 162.337 238.094 162.337ZM238.271 161.393C239.073 161.393 239.641 161.165 239.974 160.71C240.306 160.254 240.473 159.577 240.473 158.679V158.474C240.473 157.522 240.313 156.79 239.994 156.28C239.68 155.77 239.105 155.514 238.271 155.514C237.574 155.514 237.052 155.783 236.706 156.321C236.36 156.854 236.186 157.583 236.186 158.509C236.186 159.429 236.357 160.14 236.699 160.641C237.045 161.143 237.57 161.393 238.271 161.393ZM247.045 154.571C247.683 154.571 248.23 154.712 248.685 154.995C249.141 155.277 249.49 155.674 249.731 156.184C249.973 156.69 250.093 157.283 250.093 157.962V158.666H244.919C244.932 159.545 245.151 160.215 245.575 160.676C245.999 161.136 246.596 161.366 247.366 161.366C247.84 161.366 248.259 161.323 248.624 161.236C248.988 161.15 249.367 161.022 249.759 160.853V161.851C249.38 162.02 249.004 162.143 248.631 162.221C248.261 162.298 247.824 162.337 247.318 162.337C246.598 162.337 245.969 162.191 245.431 161.899C244.898 161.603 244.483 161.17 244.187 160.6C243.891 160.031 243.743 159.333 243.743 158.509C243.743 157.702 243.877 157.005 244.146 156.417C244.42 155.824 244.802 155.369 245.295 155.05C245.791 154.731 246.375 154.571 247.045 154.571ZM247.031 155.501C246.425 155.501 245.942 155.699 245.582 156.096C245.222 156.492 245.008 157.046 244.939 157.757H248.904C248.899 157.31 248.829 156.918 248.692 156.581C248.56 156.239 248.357 155.975 248.084 155.788C247.81 155.596 247.459 155.501 247.031 155.501Z" fill="white"/>
<path d="M174 137.7H279C281.485 137.7 283.5 139.715 283.5 142.2V176.7H169.5V142.2C169.5 139.715 171.515 137.7 174 137.7Z" stroke="#00378F"/>
</g>
<rect x="143.5" y="108.5" width="201" height="203" rx="4.5" fill="white" stroke="#00378F"/>
<path d="M164.64 128.164H168.133V133.01C167.609 133.188 167.069 133.32 166.513 133.407C165.961 133.493 165.344 133.537 164.66 133.537C163.621 133.537 162.744 133.329 162.028 132.915C161.317 132.5 160.777 131.91 160.408 131.144C160.039 130.374 159.854 129.46 159.854 128.403C159.854 127.368 160.057 126.466 160.463 125.696C160.873 124.926 161.463 124.329 162.233 123.905C163.008 123.476 163.938 123.262 165.022 123.262C165.578 123.262 166.105 123.315 166.602 123.42C167.103 123.52 167.568 123.663 167.996 123.85L167.552 124.862C167.183 124.702 166.775 124.566 166.328 124.452C165.886 124.338 165.428 124.281 164.954 124.281C164.138 124.281 163.439 124.449 162.855 124.787C162.277 125.124 161.832 125.6 161.522 126.215C161.217 126.831 161.064 127.56 161.064 128.403C161.064 129.237 161.199 129.964 161.468 130.584C161.737 131.199 162.156 131.677 162.726 132.019C163.295 132.361 164.029 132.532 164.927 132.532C165.378 132.532 165.765 132.507 166.089 132.457C166.412 132.402 166.706 132.338 166.971 132.265V129.203H164.64V128.164ZM173.946 125.771C174.097 125.771 174.254 125.78 174.418 125.798C174.582 125.812 174.728 125.833 174.855 125.86L174.712 126.913C174.589 126.881 174.452 126.856 174.302 126.837C174.151 126.819 174.01 126.81 173.878 126.81C173.577 126.81 173.292 126.872 173.023 126.995C172.759 127.113 172.527 127.286 172.326 127.514C172.125 127.738 171.968 128.009 171.854 128.328C171.74 128.642 171.683 128.993 171.683 129.38V133.4H170.542V125.908H171.485L171.608 127.289H171.656C171.811 127.011 171.998 126.758 172.217 126.53C172.435 126.297 172.688 126.113 172.975 125.976C173.267 125.839 173.591 125.771 173.946 125.771ZM182.89 129.64C182.89 130.255 182.811 130.805 182.651 131.288C182.492 131.771 182.261 132.179 181.961 132.511C181.66 132.844 181.295 133.099 180.867 133.277C180.443 133.45 179.962 133.537 179.424 133.537C178.923 133.537 178.463 133.45 178.044 133.277C177.629 133.099 177.269 132.844 176.964 132.511C176.663 132.179 176.428 131.771 176.259 131.288C176.095 130.805 176.013 130.255 176.013 129.64C176.013 128.82 176.152 128.123 176.43 127.548C176.708 126.97 177.105 126.53 177.62 126.229C178.139 125.924 178.757 125.771 179.472 125.771C180.156 125.771 180.753 125.924 181.263 126.229C181.778 126.534 182.177 126.976 182.46 127.555C182.747 128.129 182.89 128.824 182.89 129.64ZM177.189 129.64C177.189 130.242 177.269 130.764 177.428 131.206C177.588 131.648 177.834 131.99 178.167 132.231C178.499 132.473 178.928 132.593 179.452 132.593C179.971 132.593 180.397 132.473 180.73 132.231C181.067 131.99 181.316 131.648 181.475 131.206C181.635 130.764 181.715 130.242 181.715 129.64C181.715 129.043 181.635 128.528 181.475 128.095C181.316 127.658 181.07 127.321 180.737 127.084C180.404 126.847 179.974 126.728 179.445 126.728C178.666 126.728 178.094 126.986 177.729 127.501C177.369 128.016 177.189 128.729 177.189 129.64ZM191.199 125.908V133.4H190.269L190.105 132.347H190.043C189.889 132.607 189.688 132.826 189.442 133.004C189.196 133.181 188.918 133.313 188.608 133.4C188.303 133.491 187.977 133.537 187.63 133.537C187.038 133.537 186.541 133.441 186.14 133.25C185.739 133.058 185.436 132.762 185.231 132.361C185.03 131.96 184.93 131.445 184.93 130.816V125.908H186.079V130.734C186.079 131.358 186.22 131.825 186.502 132.135C186.785 132.441 187.216 132.593 187.794 132.593C188.35 132.593 188.792 132.489 189.121 132.279C189.453 132.069 189.693 131.762 189.838 131.356C189.984 130.946 190.057 130.445 190.057 129.852V125.908H191.199ZM197.279 125.771C198.213 125.771 198.958 126.092 199.514 126.735C200.07 127.378 200.348 128.344 200.348 129.633C200.348 130.486 200.22 131.201 199.965 131.78C199.71 132.359 199.35 132.796 198.885 133.092C198.425 133.389 197.88 133.537 197.251 133.537C196.855 133.537 196.506 133.484 196.205 133.379C195.905 133.275 195.647 133.133 195.433 132.956C195.219 132.778 195.041 132.584 194.9 132.375H194.818C194.831 132.552 194.847 132.767 194.866 133.017C194.888 133.268 194.9 133.487 194.9 133.673V136.75H193.758V125.908H194.695L194.845 127.015H194.9C195.046 126.787 195.223 126.58 195.433 126.393C195.643 126.202 195.898 126.051 196.199 125.942C196.504 125.828 196.864 125.771 197.279 125.771ZM197.08 126.728C196.561 126.728 196.142 126.828 195.823 127.029C195.508 127.229 195.278 127.53 195.132 127.931C194.986 128.328 194.909 128.827 194.9 129.428V129.647C194.9 130.281 194.968 130.816 195.105 131.254C195.246 131.691 195.476 132.024 195.795 132.252C196.119 132.479 196.552 132.593 197.094 132.593C197.559 132.593 197.946 132.468 198.256 132.217C198.566 131.967 198.796 131.618 198.947 131.171C199.102 130.72 199.179 130.203 199.179 129.62C199.179 128.736 199.006 128.034 198.66 127.514C198.318 126.99 197.791 126.728 197.08 126.728ZM208.707 132.607C208.894 132.607 209.085 132.591 209.281 132.559C209.477 132.527 209.637 132.489 209.76 132.443V133.325C209.628 133.384 209.443 133.434 209.206 133.475C208.974 133.516 208.746 133.537 208.522 133.537C208.126 133.537 207.766 133.468 207.442 133.332C207.119 133.19 206.859 132.953 206.663 132.621C206.472 132.288 206.376 131.828 206.376 131.24V126.796H205.31V126.243L206.383 125.798L206.834 124.171H207.518V125.908H209.712V126.796H207.518V131.206C207.518 131.675 207.625 132.026 207.839 132.258C208.058 132.491 208.347 132.607 208.707 132.607ZM212.572 125.908V133.4H211.437V125.908H212.572ZM212.018 123.105C212.205 123.105 212.365 123.167 212.497 123.29C212.634 123.408 212.702 123.595 212.702 123.85C212.702 124.101 212.634 124.288 212.497 124.411C212.365 124.534 212.205 124.595 212.018 124.595C211.822 124.595 211.658 124.534 211.526 124.411C211.399 124.288 211.335 124.101 211.335 123.85C211.335 123.595 211.399 123.408 211.526 123.29C211.658 123.167 211.822 123.105 212.018 123.105ZM217.558 132.607C217.745 132.607 217.937 132.591 218.133 132.559C218.329 132.527 218.488 132.489 218.611 132.443V133.325C218.479 133.384 218.294 133.434 218.057 133.475C217.825 133.516 217.597 133.537 217.374 133.537C216.977 133.537 216.617 133.468 216.294 133.332C215.97 133.19 215.71 132.953 215.514 132.621C215.323 132.288 215.227 131.828 215.227 131.24V126.796H214.161V126.243L215.234 125.798L215.685 124.171H216.369V125.908H218.563V126.796H216.369V131.206C216.369 131.675 216.476 132.026 216.69 132.258C216.909 132.491 217.198 132.607 217.558 132.607ZM221.43 133.4H220.289V122.763H221.43V133.4ZM226.874 125.771C227.512 125.771 228.059 125.912 228.515 126.195C228.971 126.477 229.319 126.874 229.561 127.384C229.802 127.89 229.923 128.483 229.923 129.162V129.866H224.748C224.762 130.745 224.981 131.415 225.405 131.876C225.829 132.336 226.426 132.566 227.196 132.566C227.67 132.566 228.089 132.523 228.454 132.436C228.818 132.35 229.196 132.222 229.588 132.053V133.051C229.21 133.22 228.834 133.343 228.46 133.421C228.091 133.498 227.654 133.537 227.148 133.537C226.428 133.537 225.799 133.391 225.261 133.099C224.728 132.803 224.313 132.37 224.017 131.8C223.721 131.231 223.573 130.533 223.573 129.709C223.573 128.902 223.707 128.205 223.976 127.617C224.249 127.024 224.632 126.569 225.124 126.25C225.621 125.931 226.204 125.771 226.874 125.771ZM226.861 126.701C226.255 126.701 225.772 126.899 225.412 127.296C225.051 127.692 224.837 128.246 224.769 128.957H228.734C228.729 128.51 228.659 128.118 228.522 127.781C228.39 127.439 228.187 127.175 227.913 126.988C227.64 126.796 227.289 126.701 226.861 126.701Z" fill="black"/>
<path d="M148 108.9H340C342.485 108.9 344.5 110.915 344.5 113.4V147.9H143.5V113.4C143.5 110.915 145.515 108.9 148 108.9Z" fill="#00378F"/>
<path d="M165.932 133.4H160.367V123.406H165.932V124.431H161.529V127.665H165.679V128.676H161.529V132.375H165.932V133.4ZM171.137 133.537C170.462 133.537 169.867 133.398 169.352 133.12C168.837 132.842 168.436 132.418 168.149 131.848C167.862 131.279 167.719 130.561 167.719 129.695C167.719 128.788 167.869 128.047 168.17 127.473C168.475 126.894 168.894 126.466 169.428 126.188C169.961 125.91 170.567 125.771 171.246 125.771C171.62 125.771 171.98 125.81 172.326 125.887C172.677 125.96 172.964 126.054 173.187 126.168L172.846 127.118C172.618 127.027 172.353 126.945 172.053 126.872C171.756 126.799 171.478 126.762 171.219 126.762C170.699 126.762 170.266 126.874 169.92 127.097C169.578 127.321 169.32 127.649 169.147 128.082C168.979 128.515 168.894 129.048 168.894 129.681C168.894 130.287 168.976 130.805 169.14 131.233C169.309 131.661 169.557 131.99 169.886 132.217C170.218 132.441 170.633 132.552 171.13 132.552C171.526 132.552 171.884 132.511 172.203 132.429C172.522 132.343 172.811 132.242 173.071 132.129V133.14C172.82 133.268 172.54 133.366 172.23 133.434C171.925 133.503 171.56 133.537 171.137 133.537ZM176.15 133.4H175.008V122.763H176.15V133.4ZM179.844 125.908V133.4H178.709V125.908H179.844ZM179.291 123.105C179.477 123.105 179.637 123.167 179.769 123.29C179.906 123.408 179.974 123.595 179.974 123.85C179.974 124.101 179.906 124.288 179.769 124.411C179.637 124.534 179.477 124.595 179.291 124.595C179.095 124.595 178.931 124.534 178.798 124.411C178.671 124.288 178.607 124.101 178.607 123.85C178.607 123.595 178.671 123.408 178.798 123.29C178.931 123.167 179.095 123.105 179.291 123.105ZM185.931 125.771C186.865 125.771 187.61 126.092 188.166 126.735C188.722 127.378 189 128.344 189 129.633C189 130.486 188.873 131.201 188.618 131.78C188.362 132.359 188.002 132.796 187.537 133.092C187.077 133.389 186.533 133.537 185.904 133.537C185.507 133.537 185.159 133.484 184.858 133.379C184.557 133.275 184.3 133.133 184.085 132.956C183.871 132.778 183.693 132.584 183.552 132.375H183.47C183.484 132.552 183.5 132.767 183.518 133.017C183.541 133.268 183.552 133.487 183.552 133.673V136.75H182.411V125.908H183.347L183.497 127.015H183.552C183.698 126.787 183.876 126.58 184.085 126.393C184.295 126.202 184.55 126.051 184.851 125.942C185.156 125.828 185.516 125.771 185.931 125.771ZM185.733 126.728C185.213 126.728 184.794 126.828 184.475 127.029C184.161 127.229 183.93 127.53 183.785 127.931C183.639 128.328 183.561 128.827 183.552 129.428V129.647C183.552 130.281 183.62 130.816 183.757 131.254C183.898 131.691 184.129 132.024 184.448 132.252C184.771 132.479 185.204 132.593 185.746 132.593C186.211 132.593 186.599 132.468 186.909 132.217C187.218 131.967 187.449 131.618 187.599 131.171C187.754 130.72 187.831 130.203 187.831 129.62C187.831 128.736 187.658 128.034 187.312 127.514C186.97 126.99 186.444 126.728 185.733 126.728ZM195.989 131.349C195.989 131.828 195.869 132.231 195.627 132.559C195.39 132.883 195.048 133.127 194.602 133.291C194.16 133.455 193.631 133.537 193.016 133.537C192.492 133.537 192.038 133.496 191.655 133.414C191.273 133.332 190.938 133.215 190.651 133.065V132.019C190.956 132.17 191.321 132.306 191.744 132.429C192.168 132.552 192.601 132.614 193.043 132.614C193.69 132.614 194.16 132.509 194.451 132.299C194.743 132.09 194.889 131.805 194.889 131.445C194.889 131.24 194.83 131.06 194.711 130.905C194.597 130.745 194.404 130.593 194.13 130.447C193.857 130.296 193.478 130.132 192.995 129.955C192.517 129.772 192.102 129.592 191.751 129.415C191.405 129.232 191.136 129.011 190.945 128.752C190.758 128.492 190.664 128.155 190.664 127.74C190.664 127.106 190.919 126.621 191.43 126.284C191.945 125.942 192.619 125.771 193.453 125.771C193.904 125.771 194.326 125.817 194.718 125.908C195.114 125.994 195.484 126.113 195.825 126.263L195.443 127.172C195.133 127.04 194.802 126.929 194.451 126.837C194.1 126.746 193.743 126.701 193.378 126.701C192.854 126.701 192.451 126.787 192.168 126.961C191.89 127.134 191.751 127.371 191.751 127.671C191.751 127.904 191.815 128.095 191.943 128.246C192.075 128.396 192.284 128.537 192.571 128.67C192.859 128.802 193.237 128.957 193.706 129.134C194.176 129.308 194.581 129.488 194.923 129.674C195.265 129.857 195.527 130.08 195.709 130.344C195.896 130.604 195.989 130.939 195.989 131.349ZM200.859 125.771C201.497 125.771 202.044 125.912 202.5 126.195C202.956 126.477 203.304 126.874 203.546 127.384C203.787 127.89 203.908 128.483 203.908 129.162V129.866H198.733C198.747 130.745 198.966 131.415 199.39 131.876C199.814 132.336 200.411 132.566 201.181 132.566C201.655 132.566 202.074 132.523 202.439 132.436C202.803 132.35 203.181 132.222 203.573 132.053V133.051C203.195 133.22 202.819 133.343 202.445 133.421C202.076 133.498 201.639 133.537 201.133 133.537C200.413 133.537 199.784 133.391 199.246 133.099C198.713 132.803 198.298 132.37 198.002 131.8C197.706 131.231 197.558 130.533 197.558 129.709C197.558 128.902 197.692 128.205 197.961 127.617C198.234 127.024 198.617 126.569 199.109 126.25C199.606 125.931 200.189 125.771 200.859 125.771ZM200.846 126.701C200.24 126.701 199.757 126.899 199.397 127.296C199.036 127.692 198.822 128.246 198.754 128.957H202.719C202.714 128.51 202.644 128.118 202.507 127.781C202.375 127.439 202.172 127.175 201.898 126.988C201.625 126.796 201.274 126.701 200.846 126.701Z" fill="white"/>
<path d="M148 108.9H340C342.485 108.9 344.5 110.915 344.5 113.4V147.9H143.5V113.4C143.5 110.915 145.515 108.9 148 108.9Z" stroke="#00378F"/>
<rect x="466.5" y="127.5" width="93" height="19" rx="4.5" fill="#00378F"/>
<path d="M492.437 142H491.268V133.031H488.123V132.006H495.567V133.031H492.437V142ZM499.952 134.371C500.59 134.371 501.137 134.512 501.593 134.795C502.048 135.077 502.397 135.474 502.639 135.984C502.88 136.49 503.001 137.083 503.001 137.762V138.466H497.826C497.84 139.345 498.058 140.015 498.482 140.476C498.906 140.936 499.503 141.166 500.273 141.166C500.747 141.166 501.167 141.123 501.531 141.036C501.896 140.95 502.274 140.822 502.666 140.653V141.651C502.288 141.82 501.912 141.943 501.538 142.021C501.169 142.098 500.731 142.137 500.225 142.137C499.505 142.137 498.876 141.991 498.339 141.699C497.806 141.403 497.391 140.97 497.095 140.4C496.798 139.831 496.65 139.133 496.65 138.309C496.65 137.502 496.785 136.805 497.054 136.217C497.327 135.624 497.71 135.169 498.202 134.85C498.699 134.531 499.282 134.371 499.952 134.371ZM499.938 135.301C499.332 135.301 498.849 135.499 498.489 135.896C498.129 136.292 497.915 136.846 497.847 137.557H501.811C501.807 137.11 501.736 136.718 501.599 136.381C501.467 136.039 501.264 135.775 500.991 135.588C500.718 135.396 500.367 135.301 499.938 135.301ZM509.935 139.949C509.935 140.428 509.814 140.831 509.573 141.159C509.336 141.483 508.994 141.727 508.548 141.891C508.105 142.055 507.577 142.137 506.962 142.137C506.438 142.137 505.984 142.096 505.601 142.014C505.218 141.932 504.883 141.815 504.596 141.665V140.619C504.902 140.77 505.266 140.906 505.69 141.029C506.114 141.152 506.547 141.214 506.989 141.214C507.636 141.214 508.105 141.109 508.397 140.899C508.689 140.69 508.835 140.405 508.835 140.045C508.835 139.84 508.775 139.66 508.657 139.505C508.543 139.345 508.349 139.193 508.076 139.047C507.802 138.896 507.424 138.732 506.941 138.555C506.463 138.372 506.048 138.192 505.697 138.015C505.351 137.832 505.082 137.611 504.89 137.352C504.703 137.092 504.61 136.755 504.61 136.34C504.61 135.706 504.865 135.221 505.376 134.884C505.891 134.542 506.565 134.371 507.399 134.371C507.85 134.371 508.272 134.417 508.664 134.508C509.06 134.594 509.429 134.713 509.771 134.863L509.388 135.772C509.078 135.64 508.748 135.529 508.397 135.438C508.046 135.346 507.688 135.301 507.324 135.301C506.8 135.301 506.396 135.387 506.114 135.561C505.836 135.734 505.697 135.971 505.697 136.271C505.697 136.504 505.761 136.695 505.888 136.846C506.021 136.996 506.23 137.137 506.517 137.27C506.804 137.402 507.183 137.557 507.652 137.734C508.121 137.908 508.527 138.088 508.869 138.274C509.211 138.457 509.473 138.68 509.655 138.944C509.842 139.204 509.935 139.539 509.935 139.949ZM514.34 141.207C514.527 141.207 514.719 141.191 514.915 141.159C515.111 141.127 515.27 141.089 515.393 141.043V141.925C515.261 141.984 515.076 142.034 514.839 142.075C514.607 142.116 514.379 142.137 514.156 142.137C513.759 142.137 513.399 142.068 513.076 141.932C512.752 141.79 512.492 141.553 512.296 141.221C512.105 140.888 512.009 140.428 512.009 139.84V135.396H510.943V134.843L512.016 134.398L512.467 132.771H513.151V134.508H515.345V135.396H513.151V139.806C513.151 140.275 513.258 140.626 513.472 140.858C513.691 141.091 513.98 141.207 514.34 141.207ZM516.9 141.289C516.9 140.97 516.977 140.744 517.132 140.612C517.287 140.476 517.476 140.407 517.7 140.407C517.932 140.407 518.128 140.476 518.287 140.612C518.447 140.744 518.527 140.97 518.527 141.289C518.527 141.604 518.447 141.834 518.287 141.979C518.128 142.121 517.932 142.191 517.7 142.191C517.476 142.191 517.287 142.121 517.132 141.979C516.977 141.834 516.9 141.604 516.9 141.289ZM520.006 145.363C519.774 145.363 519.571 145.345 519.398 145.309C519.224 145.277 519.074 145.238 518.946 145.192V144.27C519.088 144.315 519.231 144.349 519.377 144.372C519.523 144.399 519.687 144.413 519.869 144.413C520.179 144.413 520.43 144.326 520.621 144.153C520.813 143.98 520.908 143.666 520.908 143.21V134.508H522.043V143.183C522.043 143.638 521.97 144.028 521.824 144.352C521.679 144.68 521.455 144.93 521.154 145.104C520.854 145.277 520.471 145.363 520.006 145.363ZM520.806 132.45C520.806 132.195 520.87 132.008 520.997 131.89C521.129 131.767 521.293 131.705 521.489 131.705C521.676 131.705 521.836 131.767 521.968 131.89C522.105 132.008 522.173 132.195 522.173 132.45C522.173 132.701 522.105 132.888 521.968 133.011C521.836 133.134 521.676 133.195 521.489 133.195C521.293 133.195 521.129 133.134 520.997 133.011C520.87 132.888 520.806 132.701 520.806 132.45ZM527.412 134.385C528.305 134.385 528.968 134.585 529.401 134.986C529.834 135.387 530.051 136.028 530.051 136.907V142H529.224L529.005 140.893H528.95C528.741 141.166 528.522 141.396 528.294 141.583C528.066 141.765 527.802 141.904 527.501 142C527.205 142.091 526.84 142.137 526.407 142.137C525.952 142.137 525.546 142.057 525.19 141.897C524.84 141.738 524.562 141.496 524.356 141.173C524.156 140.849 524.056 140.439 524.056 139.942C524.056 139.195 524.352 138.621 524.944 138.22C525.537 137.819 526.439 137.6 527.651 137.563L528.943 137.509V137.051C528.943 136.404 528.804 135.95 528.526 135.69C528.248 135.431 527.856 135.301 527.351 135.301C526.959 135.301 526.585 135.358 526.23 135.472C525.874 135.586 525.537 135.72 525.218 135.875L524.869 135.014C525.206 134.84 525.594 134.692 526.031 134.569C526.469 134.446 526.929 134.385 527.412 134.385ZM528.93 138.309L527.788 138.356C526.854 138.393 526.195 138.546 525.813 138.814C525.43 139.083 525.238 139.464 525.238 139.956C525.238 140.384 525.368 140.701 525.628 140.906C525.888 141.111 526.232 141.214 526.66 141.214C527.326 141.214 527.87 141.029 528.294 140.66C528.718 140.291 528.93 139.737 528.93 138.999V138.309ZM535.953 134.371C536.103 134.371 536.261 134.38 536.425 134.398C536.589 134.412 536.735 134.433 536.862 134.46L536.719 135.513C536.596 135.481 536.459 135.456 536.308 135.438C536.158 135.419 536.017 135.41 535.885 135.41C535.584 135.41 535.299 135.472 535.03 135.595C534.766 135.713 534.533 135.886 534.333 136.114C534.132 136.338 533.975 136.609 533.861 136.928C533.747 137.242 533.69 137.593 533.69 137.98V142H532.549V134.508H533.492L533.615 135.889H533.663C533.818 135.611 534.005 135.358 534.224 135.13C534.442 134.897 534.695 134.713 534.982 134.576C535.274 134.439 535.598 134.371 535.953 134.371Z" fill="white"/>
<rect x="466.5" y="127.5" width="93" height="19" rx="4.5" stroke="#00378F"/>
<rect x="364.5" y="385.5" width="72" height="19" rx="4.5" fill="#00378F"/>
<path d="M396.035 394.989C396.035 395.759 395.937 396.461 395.741 397.095C395.545 397.724 395.254 398.266 394.866 398.722C394.483 399.173 394.007 399.521 393.438 399.768C392.868 400.014 392.207 400.137 391.455 400.137C390.68 400.137 390.004 400.014 389.425 399.768C388.851 399.521 388.372 399.171 387.989 398.715C387.611 398.259 387.326 397.715 387.135 397.081C386.948 396.448 386.854 395.746 386.854 394.976C386.854 393.955 387.023 393.059 387.36 392.289C387.698 391.519 388.208 390.92 388.892 390.491C389.58 390.063 390.441 389.849 391.476 389.849C392.465 389.849 393.296 390.061 393.971 390.484C394.65 390.908 395.162 391.505 395.509 392.275C395.86 393.041 396.035 393.946 396.035 394.989ZM388.078 394.989C388.078 395.837 388.199 396.571 388.44 397.19C388.682 397.81 389.051 398.289 389.548 398.626C390.049 398.963 390.685 399.132 391.455 399.132C392.23 399.132 392.863 398.963 393.355 398.626C393.852 398.289 394.219 397.81 394.456 397.19C394.693 396.571 394.812 395.837 394.812 394.989C394.812 393.7 394.54 392.692 393.998 391.968C393.46 391.239 392.619 390.874 391.476 390.874C390.701 390.874 390.063 391.04 389.562 391.373C389.06 391.706 388.687 392.18 388.44 392.795C388.199 393.406 388.078 394.137 388.078 394.989ZM398.424 390.006H401.254C402.502 390.006 403.441 390.193 404.07 390.566C404.699 390.94 405.014 391.576 405.014 392.474C405.014 392.861 404.938 393.21 404.788 393.52C404.642 393.825 404.428 394.078 404.145 394.278C403.863 394.479 403.514 394.618 403.099 394.695V394.764C403.537 394.832 403.924 394.957 404.262 395.14C404.599 395.322 404.863 395.577 405.055 395.905C405.246 396.233 405.342 396.65 405.342 397.156C405.342 397.771 405.198 398.291 404.911 398.715C404.628 399.139 404.227 399.46 403.708 399.679C403.188 399.893 402.573 400 401.862 400H398.424V390.006ZM399.586 394.292H401.5C402.37 394.292 402.972 394.148 403.305 393.861C403.642 393.574 403.81 393.155 403.81 392.604C403.81 392.034 403.61 391.624 403.209 391.373C402.812 391.122 402.179 390.997 401.308 390.997H399.586V394.292ZM399.586 395.27V399.009H401.664C402.553 399.009 403.181 398.836 403.551 398.489C403.92 398.138 404.104 397.667 404.104 397.074C404.104 396.696 404.02 396.372 403.851 396.104C403.687 395.835 403.418 395.63 403.045 395.488C402.676 395.342 402.181 395.27 401.561 395.27H399.586ZM410.335 390.006C411.155 390.006 411.832 390.108 412.365 390.313C412.903 390.514 413.304 390.822 413.568 391.236C413.832 391.651 413.965 392.18 413.965 392.822C413.965 393.351 413.869 393.793 413.677 394.148C413.486 394.499 413.235 394.784 412.925 395.003C412.616 395.222 412.285 395.39 411.934 395.509L414.675 400H413.322L410.875 395.83H408.797V400H407.634V390.006H410.335ZM410.266 391.011H408.797V394.846H410.382C411.198 394.846 411.798 394.679 412.18 394.347C412.568 394.014 412.761 393.524 412.761 392.877C412.761 392.198 412.556 391.717 412.146 391.435C411.741 391.152 411.114 391.011 410.266 391.011Z" fill="white"/>
<rect x="364.5" y="385.5" width="72" height="19" rx="4.5" stroke="#00378F"/>
<path d="M388.486 180.434C389.189 180.434 389.77 180.521 390.227 180.697C390.688 180.869 391.031 181.133 391.258 181.488C391.484 181.844 391.598 182.297 391.598 182.848C391.598 183.301 391.516 183.68 391.352 183.984C391.188 184.285 390.973 184.529 390.707 184.717C390.441 184.904 390.158 185.049 389.857 185.15L392.207 189H391.047L388.949 185.426H387.168V189H386.172V180.434H388.486ZM388.428 181.295H387.168V184.582H388.527C389.227 184.582 389.74 184.439 390.068 184.154C390.4 183.869 390.566 183.449 390.566 182.895C390.566 182.312 390.391 181.9 390.039 181.658C389.691 181.416 389.154 181.295 388.428 181.295ZM398.894 182.578V189H398.097L397.957 188.098H397.904C397.771 188.32 397.599 188.508 397.389 188.66C397.178 188.812 396.939 188.926 396.674 189C396.412 189.078 396.133 189.117 395.836 189.117C395.328 189.117 394.902 189.035 394.558 188.871C394.215 188.707 393.955 188.453 393.779 188.109C393.607 187.766 393.521 187.324 393.521 186.785V182.578H394.506V186.715C394.506 187.25 394.627 187.65 394.869 187.916C395.111 188.178 395.48 188.309 395.976 188.309C396.453 188.309 396.832 188.219 397.113 188.039C397.398 187.859 397.603 187.596 397.728 187.248C397.853 186.896 397.916 186.467 397.916 185.959V182.578H398.894ZM404.152 182.461C404.914 182.461 405.49 182.648 405.881 183.023C406.271 183.395 406.466 183.992 406.466 184.816V189H405.506V184.881C405.506 184.346 405.382 183.945 405.136 183.68C404.894 183.414 404.521 183.281 404.017 183.281C403.306 183.281 402.806 183.482 402.517 183.885C402.228 184.287 402.084 184.871 402.084 185.637V189H401.111V182.578H401.896L402.043 183.504H402.095C402.232 183.277 402.406 183.088 402.617 182.936C402.828 182.779 403.064 182.662 403.326 182.584C403.588 182.502 403.863 182.461 404.152 182.461Z" fill="black"/>
<path d="M385.834 117.189C385.361 117.189 384.936 117.271 384.557 117.436C384.182 117.596 383.861 117.83 383.596 118.139C383.334 118.443 383.133 118.812 382.992 119.246C382.852 119.68 382.781 120.168 382.781 120.711C382.781 121.43 382.893 122.055 383.115 122.586C383.342 123.113 383.678 123.521 384.123 123.811C384.572 124.1 385.133 124.244 385.805 124.244C386.188 124.244 386.547 124.213 386.883 124.15C387.223 124.084 387.553 124.002 387.873 123.904V124.771C387.561 124.889 387.232 124.975 386.889 125.029C386.545 125.088 386.137 125.117 385.664 125.117C384.793 125.117 384.064 124.938 383.479 124.578C382.896 124.215 382.459 123.703 382.166 123.043C381.877 122.383 381.732 121.604 381.732 120.705C381.732 120.057 381.822 119.465 382.002 118.93C382.186 118.391 382.451 117.926 382.799 117.535C383.15 117.145 383.58 116.844 384.088 116.633C384.6 116.418 385.186 116.311 385.846 116.311C386.279 116.311 386.697 116.354 387.1 116.439C387.502 116.525 387.865 116.648 388.189 116.809L387.791 117.652C387.518 117.527 387.217 117.42 386.889 117.33C386.564 117.236 386.213 117.189 385.834 117.189ZM395.281 121.777C395.281 122.305 395.213 122.775 395.076 123.189C394.939 123.604 394.742 123.953 394.484 124.238C394.226 124.523 393.914 124.742 393.547 124.895C393.183 125.043 392.771 125.117 392.31 125.117C391.881 125.117 391.486 125.043 391.127 124.895C390.771 124.742 390.463 124.523 390.201 124.238C389.943 123.953 389.742 123.604 389.597 123.189C389.457 122.775 389.387 122.305 389.387 121.777C389.387 121.074 389.506 120.477 389.744 119.984C389.982 119.488 390.322 119.111 390.764 118.854C391.209 118.592 391.738 118.461 392.351 118.461C392.937 118.461 393.449 118.592 393.887 118.854C394.328 119.115 394.67 119.494 394.912 119.99C395.158 120.482 395.281 121.078 395.281 121.777ZM390.394 121.777C390.394 122.293 390.463 122.74 390.599 123.119C390.736 123.498 390.947 123.791 391.232 123.998C391.517 124.205 391.885 124.309 392.334 124.309C392.779 124.309 393.144 124.205 393.43 123.998C393.719 123.791 393.931 123.498 394.068 123.119C394.205 122.74 394.273 122.293 394.273 121.777C394.273 121.266 394.205 120.824 394.068 120.453C393.931 120.078 393.721 119.789 393.435 119.586C393.15 119.383 392.781 119.281 392.328 119.281C391.66 119.281 391.17 119.502 390.857 119.943C390.549 120.385 390.394 120.996 390.394 121.777ZM404.095 118.461C404.802 118.461 405.336 118.646 405.695 119.018C406.054 119.385 406.234 119.977 406.234 120.793V125H405.273V120.84C405.273 120.32 405.16 119.932 404.933 119.674C404.711 119.412 404.379 119.281 403.937 119.281C403.316 119.281 402.865 119.461 402.584 119.82C402.302 120.18 402.162 120.709 402.162 121.408V125H401.195V120.84C401.195 120.492 401.144 120.203 401.043 119.973C400.945 119.742 400.797 119.57 400.597 119.457C400.402 119.34 400.154 119.281 399.853 119.281C399.427 119.281 399.086 119.369 398.828 119.545C398.57 119.721 398.382 119.982 398.265 120.33C398.152 120.674 398.095 121.098 398.095 121.602V125H397.123V118.578H397.908L398.054 119.486H398.107C398.236 119.264 398.398 119.076 398.593 118.924C398.789 118.771 399.007 118.656 399.25 118.578C399.492 118.5 399.75 118.461 400.023 118.461C400.511 118.461 400.92 118.553 401.248 118.736C401.58 118.916 401.82 119.191 401.968 119.562H402.021C402.232 119.191 402.521 118.916 402.888 118.736C403.256 118.553 403.658 118.461 404.095 118.461ZM411.41 118.461C412.21 118.461 412.849 118.736 413.326 119.287C413.802 119.838 414.041 120.666 414.041 121.771C414.041 122.502 413.931 123.115 413.712 123.611C413.494 124.107 413.185 124.482 412.787 124.736C412.392 124.99 411.925 125.117 411.386 125.117C411.046 125.117 410.748 125.072 410.49 124.982C410.232 124.893 410.011 124.771 409.828 124.619C409.644 124.467 409.492 124.301 409.371 124.121H409.3C409.312 124.273 409.326 124.457 409.341 124.672C409.361 124.887 409.371 125.074 409.371 125.234V127.871H408.392V118.578H409.195L409.324 119.527H409.371C409.496 119.332 409.648 119.154 409.828 118.994C410.007 118.83 410.226 118.701 410.484 118.607C410.746 118.51 411.054 118.461 411.41 118.461ZM411.24 119.281C410.794 119.281 410.435 119.367 410.162 119.539C409.892 119.711 409.695 119.969 409.57 120.312C409.445 120.652 409.378 121.08 409.371 121.596V121.783C409.371 122.326 409.429 122.785 409.546 123.16C409.667 123.535 409.865 123.82 410.138 124.016C410.416 124.211 410.787 124.309 411.251 124.309C411.65 124.309 411.982 124.201 412.248 123.986C412.513 123.771 412.71 123.473 412.839 123.09C412.972 122.703 413.039 122.26 413.039 121.76C413.039 121.002 412.89 120.4 412.593 119.955C412.3 119.506 411.849 119.281 411.24 119.281ZM416.872 118.578V125H415.9V118.578H416.872ZM416.398 116.176C416.558 116.176 416.695 116.229 416.808 116.334C416.925 116.436 416.984 116.596 416.984 116.814C416.984 117.029 416.925 117.189 416.808 117.295C416.695 117.4 416.558 117.453 416.398 117.453C416.23 117.453 416.089 117.4 415.976 117.295C415.867 117.189 415.812 117.029 415.812 116.814C415.812 116.596 415.867 116.436 415.976 116.334C416.089 116.229 416.23 116.176 416.398 116.176ZM420.073 125H419.095V115.883H420.073V125ZM424.763 118.461C425.31 118.461 425.778 118.582 426.169 118.824C426.56 119.066 426.858 119.406 427.065 119.844C427.272 120.277 427.376 120.785 427.376 121.367V121.971H422.94C422.952 122.725 423.14 123.299 423.503 123.693C423.866 124.088 424.378 124.285 425.038 124.285C425.444 124.285 425.804 124.248 426.116 124.174C426.429 124.1 426.753 123.99 427.089 123.846V124.701C426.765 124.846 426.442 124.951 426.122 125.018C425.806 125.084 425.431 125.117 424.997 125.117C424.38 125.117 423.841 124.992 423.38 124.742C422.923 124.488 422.567 124.117 422.314 123.629C422.06 123.141 421.933 122.543 421.933 121.836C421.933 121.145 422.048 120.547 422.278 120.043C422.513 119.535 422.841 119.145 423.263 118.871C423.689 118.598 424.189 118.461 424.763 118.461ZM424.751 119.258C424.231 119.258 423.817 119.428 423.509 119.768C423.2 120.107 423.017 120.582 422.958 121.191H426.356C426.353 120.809 426.292 120.473 426.175 120.184C426.062 119.891 425.888 119.664 425.653 119.504C425.419 119.34 425.118 119.258 424.751 119.258Z" fill="black"/>
<path d="M465 135L459.976 132.155L460.024 137.929L465 135ZM346.004 136.5L460.504 135.538L460.496 134.538L345.996 135.5L346.004 136.5Z" fill="black"/>
<path d="M470 199L465 196.113V201.887L470 199ZM346 199.5L465.5 199.5V198.5L346 198.5V199.5Z" fill="black"/>
<path d="M155 189.5H213.5V252.5H155C152.515 252.5 150.5 250.485 150.5 248V194C150.5 191.515 152.515 189.5 155 189.5Z" fill="#82A4D9" stroke="#82A4D9"/>
<path d="M214.5 189.5H316C318.485 189.5 320.5 191.515 320.5 194V248C320.5 250.485 318.485 252.5 316 252.5H214.5V189.5Z" fill="white"/>
<path d="M241.803 226H240.801V218.312H238.105V217.434H244.486V218.312H241.803V226ZM248.267 219.461C248.814 219.461 249.283 219.582 249.674 219.824C250.064 220.066 250.363 220.406 250.57 220.844C250.777 221.277 250.881 221.785 250.881 222.367V222.971H246.445C246.457 223.725 246.644 224.299 247.008 224.693C247.371 225.088 247.883 225.285 248.543 225.285C248.949 225.285 249.308 225.248 249.621 225.174C249.933 225.1 250.258 224.99 250.594 224.846V225.701C250.269 225.846 249.947 225.951 249.627 226.018C249.31 226.084 248.935 226.117 248.502 226.117C247.885 226.117 247.346 225.992 246.885 225.742C246.428 225.488 246.072 225.117 245.818 224.629C245.564 224.141 245.437 223.543 245.437 222.836C245.437 222.145 245.553 221.547 245.783 221.043C246.017 220.535 246.346 220.145 246.767 219.871C247.193 219.598 247.693 219.461 248.267 219.461ZM248.256 220.258C247.736 220.258 247.322 220.428 247.014 220.768C246.705 221.107 246.521 221.582 246.463 222.191H249.861C249.857 221.809 249.797 221.473 249.68 221.184C249.566 220.891 249.392 220.664 249.158 220.504C248.924 220.34 248.623 220.258 248.256 220.258ZM256.847 224.242C256.847 224.652 256.744 224.998 256.537 225.279C256.334 225.557 256.041 225.766 255.658 225.906C255.279 226.047 254.826 226.117 254.299 226.117C253.849 226.117 253.461 226.082 253.132 226.012C252.804 225.941 252.517 225.842 252.271 225.713V224.816C252.533 224.945 252.845 225.062 253.209 225.168C253.572 225.273 253.943 225.326 254.322 225.326C254.877 225.326 255.279 225.236 255.529 225.057C255.779 224.877 255.904 224.633 255.904 224.324C255.904 224.148 255.853 223.994 255.752 223.861C255.654 223.725 255.488 223.594 255.254 223.469C255.019 223.34 254.695 223.199 254.281 223.047C253.871 222.891 253.515 222.736 253.215 222.584C252.918 222.428 252.687 222.238 252.523 222.016C252.363 221.793 252.283 221.504 252.283 221.148C252.283 220.605 252.502 220.189 252.939 219.9C253.381 219.607 253.959 219.461 254.674 219.461C255.06 219.461 255.422 219.5 255.757 219.578C256.097 219.652 256.414 219.754 256.707 219.883L256.379 220.662C256.113 220.549 255.83 220.453 255.529 220.375C255.228 220.297 254.922 220.258 254.609 220.258C254.16 220.258 253.814 220.332 253.572 220.48C253.334 220.629 253.215 220.832 253.215 221.09C253.215 221.289 253.269 221.453 253.379 221.582C253.492 221.711 253.672 221.832 253.918 221.945C254.164 222.059 254.488 222.191 254.89 222.344C255.293 222.492 255.64 222.646 255.933 222.807C256.226 222.963 256.451 223.154 256.607 223.381C256.767 223.604 256.847 223.891 256.847 224.242ZM260.646 225.32C260.806 225.32 260.97 225.307 261.138 225.279C261.306 225.252 261.443 225.219 261.548 225.18V225.936C261.435 225.986 261.277 226.029 261.074 226.064C260.875 226.1 260.679 226.117 260.488 226.117C260.148 226.117 259.839 226.059 259.562 225.941C259.285 225.82 259.062 225.617 258.894 225.332C258.73 225.047 258.648 224.652 258.648 224.148V220.34H257.734V219.865L258.654 219.484L259.041 218.09H259.626V219.578H261.507V220.34H259.626V224.119C259.626 224.521 259.718 224.822 259.902 225.021C260.089 225.221 260.337 225.32 260.646 225.32ZM272.136 226.117C271.558 226.117 271.048 225.998 270.606 225.76C270.165 225.521 269.821 225.158 269.575 224.67C269.329 224.182 269.206 223.566 269.206 222.824C269.206 222.047 269.335 221.412 269.593 220.92C269.855 220.424 270.214 220.057 270.671 219.818C271.128 219.58 271.647 219.461 272.23 219.461C272.55 219.461 272.858 219.494 273.155 219.561C273.456 219.623 273.702 219.703 273.894 219.801L273.601 220.615C273.405 220.537 273.179 220.467 272.921 220.404C272.667 220.342 272.429 220.311 272.206 220.311C271.761 220.311 271.39 220.406 271.093 220.598C270.8 220.789 270.579 221.07 270.431 221.441C270.286 221.812 270.214 222.27 270.214 222.812C270.214 223.332 270.284 223.775 270.425 224.143C270.569 224.51 270.782 224.791 271.064 224.986C271.349 225.178 271.704 225.273 272.13 225.273C272.47 225.273 272.776 225.238 273.05 225.168C273.323 225.094 273.571 225.008 273.794 224.91V225.777C273.579 225.887 273.339 225.971 273.073 226.029C272.812 226.088 272.499 226.117 272.136 226.117ZM281.015 222.777C281.015 223.305 280.946 223.775 280.809 224.189C280.673 224.604 280.475 224.953 280.218 225.238C279.96 225.523 279.647 225.742 279.28 225.895C278.917 226.043 278.505 226.117 278.044 226.117C277.614 226.117 277.22 226.043 276.86 225.895C276.505 225.742 276.196 225.523 275.934 225.238C275.677 224.953 275.475 224.604 275.331 224.189C275.19 223.775 275.12 223.305 275.12 222.777C275.12 222.074 275.239 221.477 275.477 220.984C275.716 220.488 276.056 220.111 276.497 219.854C276.942 219.592 277.472 219.461 278.085 219.461C278.671 219.461 279.182 219.592 279.62 219.854C280.061 220.115 280.403 220.494 280.645 220.99C280.891 221.482 281.015 222.078 281.015 222.777ZM276.128 222.777C276.128 223.293 276.196 223.74 276.333 224.119C276.47 224.498 276.681 224.791 276.966 224.998C277.251 225.205 277.618 225.309 278.067 225.309C278.513 225.309 278.878 225.205 279.163 224.998C279.452 224.791 279.665 224.498 279.802 224.119C279.938 223.74 280.007 223.293 280.007 222.777C280.007 222.266 279.938 221.824 279.802 221.453C279.665 221.078 279.454 220.789 279.169 220.586C278.884 220.383 278.515 220.281 278.061 220.281C277.393 220.281 276.903 220.502 276.591 220.943C276.282 221.385 276.128 221.996 276.128 222.777ZM285.141 226.117C284.329 226.117 283.684 225.84 283.208 225.285C282.735 224.73 282.499 223.906 282.499 222.812C282.499 221.707 282.741 220.873 283.225 220.311C283.71 219.744 284.354 219.461 285.159 219.461C285.499 219.461 285.796 219.506 286.05 219.596C286.303 219.686 286.522 219.807 286.706 219.959C286.889 220.107 287.044 220.277 287.169 220.469H287.239C287.223 220.348 287.208 220.182 287.192 219.971C287.176 219.76 287.169 219.588 287.169 219.455V216.883H288.141V226H287.356L287.21 225.086H287.169C287.048 225.277 286.893 225.451 286.706 225.607C286.522 225.764 286.301 225.889 286.044 225.982C285.79 226.072 285.489 226.117 285.141 226.117ZM285.294 225.309C285.981 225.309 286.467 225.113 286.753 224.723C287.038 224.332 287.18 223.752 287.18 222.982V222.807C287.18 221.99 287.044 221.363 286.77 220.926C286.501 220.488 286.009 220.27 285.294 220.27C284.696 220.27 284.249 220.5 283.952 220.961C283.655 221.418 283.507 222.043 283.507 222.836C283.507 223.625 283.653 224.234 283.946 224.664C284.243 225.094 284.692 225.309 285.294 225.309ZM292.836 219.461C293.383 219.461 293.852 219.582 294.243 219.824C294.633 220.066 294.932 220.406 295.139 220.844C295.346 221.277 295.45 221.785 295.45 222.367V222.971H291.014C291.026 223.725 291.213 224.299 291.577 224.693C291.94 225.088 292.452 225.285 293.112 225.285C293.518 225.285 293.877 225.248 294.19 225.174C294.502 225.1 294.827 224.99 295.163 224.846V225.701C294.838 225.846 294.516 225.951 294.196 226.018C293.879 226.084 293.504 226.117 293.071 226.117C292.454 226.117 291.915 225.992 291.454 225.742C290.997 225.488 290.641 225.117 290.387 224.629C290.133 224.141 290.006 223.543 290.006 222.836C290.006 222.145 290.122 221.547 290.352 221.043C290.586 220.535 290.915 220.145 291.336 219.871C291.762 219.598 292.262 219.461 292.836 219.461ZM292.825 220.258C292.305 220.258 291.891 220.428 291.583 220.768C291.274 221.107 291.09 221.582 291.032 222.191H294.43C294.426 221.809 294.366 221.473 294.249 221.184C294.135 220.891 293.961 220.664 293.727 220.504C293.493 220.34 293.192 220.258 292.825 220.258Z" fill="black"/>
<path d="M214.5 189.5H316C318.485 189.5 320.5 191.515 320.5 194V248C320.5 250.485 318.485 252.5 316 252.5H214.5V189.5Z" stroke="#82A4D9"/>
<path d="M190.968 231.828H173.478C173.214 231.828 173 231.615 173 231.351V207.478C173 207.214 173.214 207.001 173.478 207.001H184.584C184.711 207.001 184.832 207.051 184.922 207.141L191.306 213.525C191.395 213.615 191.446 213.736 191.446 213.863V231.35C191.446 231.614 191.232 231.827 190.968 231.827V231.828ZM173.955 230.873H190.491V214.06L184.387 207.956H173.955V230.873Z" fill="black"/>
<path d="M190.968 214.34H184.583C184.32 214.34 184.106 214.127 184.106 213.863V207.478C184.106 207.285 184.222 207.111 184.401 207.037C184.579 206.962 184.784 207.004 184.922 207.141L191.307 213.525C191.443 213.662 191.484 213.867 191.41 214.046C191.336 214.225 191.162 214.341 190.969 214.341L190.968 214.34ZM185.061 213.385H189.815L185.061 208.631V213.385Z" fill="black"/>
<path d="M396 199V299" stroke="black"/>
<path d="M396 380L398.887 375L393.113 375L396 380ZM395.5 341L395.5 375.5L396.5 375.5L396.5 341L395.5 341Z" fill="black"/>
</svg>
