<svg width="55" height="18" data-name="Layer 1" xmlns="http://www.w3.org/2000/svg">
  <title>alpha</title>
  <rect width="55" height="18" fill="#cd312c" rx="5"/>
  <path fill="#fff" d="m17.28 13-.86-2.38h-3.27L12.31 13h-1.48L14 4.4h1.52l3.25 8.6Zm-1.23-3.59-.8-2.33c-.06-.15-.14-.4-.24-.74s-.18-.58-.22-.73a12.6 12.6 0 0 1-.46 1.57l-.77 2.23ZM21.13 13h-1.38V3.88h1.38Zm5.25.12a2.28 2.28 0 0 1-1.91-.89h-.08c.06.55.08.88.08 1v2.65H23.1V6.52h1.11c0 .12.1.41.19.87h.07a2.16 2.16 0 0 1 1.94-1 2.26 2.26 0 0 1 1.89.88 4 4 0 0 1 .7 2.48 4 4 0 0 1-.68 2.48 2.3 2.3 0 0 1-1.94.89Zm-.33-5.59a1.43 1.43 0 0 0-1.2.48 2.49 2.49 0 0 0-.38 1.53v.21a3 3 0 0 0 .38 1.71 1.38 1.38 0 0 0 1.22.53 1.22 1.22 0 0 0 1.1-.58 3 3 0 0 0 .39-1.67 3 3 0 0 0-.38-1.65 1.27 1.27 0 0 0-1.13-.56ZM36.27 13h-1.38V9a1.74 1.74 0 0 0-.3-1.12 1.15 1.15 0 0 0-1-.37 1.5 1.5 0 0 0-1.27.52A2.83 2.83 0 0 0 32 9.78V13h-1.43V3.88H32V6.2a10.2 10.2 0 0 1-.07 1.19H32a1.89 1.89 0 0 1 .78-.73 2.52 2.52 0 0 1 1.17-.26 2.09 2.09 0 0 1 2.35 2.38Zm5.98 0-.25-.9a2.59 2.59 0 0 1-.94.8 2.86 2.86 0 0 1-1.22.22 2 2 0 0 1-1.49-.52 1.92 1.92 0 0 1-.54-1.46 1.7 1.7 0 0 1 .75-1.51 4.35 4.35 0 0 1 2.27-.56h1.11v-.38a1.3 1.3 0 0 0-.29-.93 1.19 1.19 0 0 0-.9-.3 3.31 3.31 0 0 0-1 .14 8.48 8.48 0 0 0-.88.35L38.4 7a4.61 4.61 0 0 1 1.15-.41 5.09 5.09 0 0 1 1.18-.15 2.8 2.8 0 0 1 1.87.54 2.12 2.12 0 0 1 .63 1.69V13Zm-2.06-.94a1.71 1.71 0 0 0 1.21-.42 1.52 1.52 0 0 0 .45-1.17v-.56h-.83a2.7 2.7 0 0 0-1.41.33 1 1 0 0 0-.45.88.9.9 0 0 0 .26.68 1.14 1.14 0 0 0 .77.26Z"/>
</svg>
