<svg width="55" height="18" data-name="Layer 1" xmlns="http://www.w3.org/2000/svg">
  <title>beta</title>
  <rect width="55" height="18" fill="#003594" rx="5"/>
  <path fill="#fff" d="M15.37 4.43h2.55a4.81 4.81 0 0 1 2.55.57 1.8 1.8 0 0 1 .79 1.63 2 2 0 0 1-.38 1.25 1.71 1.71 0 0 1-1.12.62v.06a2.22 2.22 0 0 1 1.33.67 2.07 2.07 0 0 1 .42 1.36 2.2 2.2 0 0 1-.8 1.81 3.51 3.51 0 0 1-2.24.65h-3.1ZM16.77 8h1.35a2.29 2.29 0 0 0 1.29-.28 1.07 1.07 0 0 0 .4-.94.94.94 0 0 0-.44-.87 2.7 2.7 0 0 0-1.37-.3h-1.23Zm0 1.14v2.71h1.49a2.23 2.23 0 0 0 1.33-.33 1.25 1.25 0 0 0 .41-1.1 1.13 1.13 0 0 0-.46-1 2.46 2.46 0 0 0-1.39-.32ZM26 13.12a3.14 3.14 0 0 1-2.36-.88 3.35 3.35 0 0 1-.86-2.43 3.73 3.73 0 0 1 .79-2.5 2.77 2.77 0 0 1 2.18-.91 2.65 2.65 0 0 1 2 .78 3 3 0 0 1 .75 2.15v.74h-4.32a2.13 2.13 0 0 0 .51 1.45A1.76 1.76 0 0 0 26 12a5.1 5.1 0 0 0 1.07-.11 5.39 5.39 0 0 0 1.07-.36v1.12a4.53 4.53 0 0 1-1 .34 6.93 6.93 0 0 1-1.14.13Zm-.25-5.67a1.36 1.36 0 0 0-1.05.41 2 2 0 0 0-.48 1.21h2.95a1.79 1.79 0 0 0-.39-1.21 1.3 1.3 0 0 0-1.05-.41ZM32.48 12a3.58 3.58 0 0 0 1-.15v1a3 3 0 0 1-.59.17 4.54 4.54 0 0 1-.75.07c-1.31 0-2-.69-2-2.07V7.56h-.88V7l1-.5.47-1.37h.85v1.39h1.84v1h-1.84V11a1 1 0 0 0 .24.74 1 1 0 0 0 .66.26Zm6.35 1-.27-.9h-.05a2.59 2.59 0 0 1-.94.8 2.86 2.86 0 0 1-1.22.22 2 2 0 0 1-1.49-.52 1.92 1.92 0 0 1-.54-1.46 1.7 1.7 0 0 1 .75-1.51 4.34 4.34 0 0 1 2.26-.56h1.12v-.38a1.3 1.3 0 0 0-.29-.93 1.19 1.19 0 0 0-.9-.3 3.31 3.31 0 0 0-.95.14 7.68 7.68 0 0 0-.88.35L35 7a4.61 4.61 0 0 1 1.15-.41 5.09 5.09 0 0 1 1.18-.15 2.8 2.8 0 0 1 1.87.54 2.12 2.12 0 0 1 .63 1.69V13Zm-2-.94a1.71 1.71 0 0 0 1.17-.42 1.52 1.52 0 0 0 .45-1.17v-.56h-.83a2.7 2.7 0 0 0-1.41.33 1 1 0 0 0-.45.88.9.9 0 0 0 .26.68 1.14 1.14 0 0 0 .76.26Z"/>
</svg>
