<svg xml:space="preserve" width="32" height="32" style="enable-background:new 0 0 32 32" xmlns="http://www.w3.org/2000/svg">
  <style>
    .compare-list_svg__st0{display:none}.compare-list_svg__st3{fill:none;stroke:#60a3ff;stroke-width:2.000000e-02;stroke-miterlimit:10}
  </style>
  <g id="compare-list_svg__Layer_3">
    <path id="compare-list_svg___Transparent_Rectangle_" d="M0 0h32v32H0z" style="fill:none"/>
    <path d="M2 6h2v2H2zm4 0h7v2H6zm-4 9h2v2H2zm4 0h7v2H6zm-4 9h2v2H2zm4 0h7v2H6zM19 6h2v2h-2zm4 0h7v2h-7zm-4 9h2v2h-2zm4 0h7v2h-7zm-4 9h2v2h-2zm4 0h7v2h-7zM15 4h2v25h-2z"/>
  </g>
</svg>
