<svg xmlns="http://www.w3.org/2000/svg" xmlns:xlink="http://www.w3.org/1999/xlink" width="730.792" height="474.5" viewBox="0 0 730.792 474.5">
  <defs>
    <clipPath id="clip-path">
      <rect id="Rectangle_263" data-name="Rectangle 263" width="51.034" height="51.034" fill="none"/>
    </clipPath>
  </defs>
  <g id="Group_121" data-name="Group 121" transform="translate(-184.57 -1481.556)">
    <g id="Ellipse_53" data-name="Ellipse 53" transform="translate(384.615 1481.556)" fill="none" stroke="#fff" stroke-miterlimit="10" stroke-width="1">
      <circle cx="23.982" cy="23.982" r="23.982" stroke="none"/>
      <circle cx="23.982" cy="23.982" r="23.482" fill="none"/>
    </g>
    <g id="Ellipse_54" data-name="Ellipse 54" transform="translate(533.045 1653.285)" fill="none" stroke="#fff" stroke-miterlimit="10" stroke-width="1">
      <circle cx="23.982" cy="23.982" r="23.982" stroke="none"/>
      <circle cx="23.982" cy="23.982" r="23.482" fill="none"/>
    </g>
    <line id="Line_138" data-name="Line 138" x2="510.237" transform="translate(317.277 1701.341)" fill="none" stroke="#fff" stroke-miterlimit="10" stroke-width="1"/>
    <path id="Path_145" data-name="Path 145" d="M306.738,1582.844l-28.762,45.462h6.3l25.611-40.481Z" transform="translate(66.99 73.034)" fill="none" stroke="#fff" stroke-miterlimit="10" stroke-width="1"/>
    <path id="Path_146" data-name="Path 146" d="M281.638,1626.22h51.222l-25.611-40.481Z" transform="translate(69.63 75.121)" fill="#fff" stroke="#fff" stroke-miterlimit="10" stroke-width="1"/>
    <path id="Path_147" data-name="Path 147" d="M414.242,1591.4s4.4,13.07-9.161,22.107" transform="translate(158.64 79.204)" fill="none" stroke="#fff" stroke-miterlimit="10" stroke-width="1"/>
    <g id="Ellipse_55" data-name="Ellipse 55" transform="translate(324.426 1789.691)" fill="none" stroke="#fff" stroke-miterlimit="10" stroke-width="1">
      <circle cx="23.982" cy="23.982" r="23.982" stroke="none"/>
      <circle cx="23.982" cy="23.982" r="23.482" fill="none"/>
    </g>
    <path id="Path_148" data-name="Path 148" d="M270.682,1675s5.988-12.419,22-9.411" transform="translate(61.731 132.359)" fill="none" stroke="#fff" stroke-miterlimit="10" stroke-width="1"/>
    <path id="Path_149" data-name="Path 149" d="M317.671,1485.972s13.178,4.056,12.6,20.341" transform="translate(95.612 3.184)" fill="none" stroke="#fff" stroke-miterlimit="10" stroke-width="1"/>
    <line id="Line_139" data-name="Line 139" x2="119.988" y2="35.847" transform="translate(314.185 1635.362)" fill="none" stroke="#fff" stroke-miterlimit="10" stroke-width="1"/>
    <path id="Path_150" data-name="Path 150" d="M710.313,1575.407V1703.64H468.751" transform="translate(204.549 67.671)" fill="none" stroke="#fff" stroke-miterlimit="10" stroke-width="1"/>
    <line id="Line_140" data-name="Line 140" x1="38.276" transform="translate(611.208 1771.311)" fill="none" stroke="#fff" stroke-miterlimit="10" stroke-width="1"/>
    <line id="Line_141" data-name="Line 141" x1="38.276" transform="translate(554.424 1771.311)" fill="none" stroke="#fff" stroke-miterlimit="10" stroke-width="1"/>
    <line id="Line_142" data-name="Line 142" x1="217.489" transform="translate(317.277 1771.311)" fill="none" stroke="#fff" stroke-miterlimit="10" stroke-width="1"/>
    <path id="Path_151" data-name="Path 151" d="M295.9,1609.259s-81.174-1.442-81.174,69.973" transform="translate(21.381 92.079)" fill="none" stroke="#fff" stroke-miterlimit="10" stroke-width="1"/>
    <rect id="Rectangle_260" data-name="Rectangle 260" width="51.034" height="51.034" transform="translate(185.07 1786.621)" fill="none" stroke="#fff" stroke-miterlimit="10" stroke-width="1"/>
    <rect id="Rectangle_261" data-name="Rectangle 261" width="51.034" height="51.034" transform="translate(185.07 1904.522)" fill="none" stroke="#fff" stroke-miterlimit="10" stroke-width="1"/>
    <rect id="Rectangle_262" data-name="Rectangle 262" width="51.034" height="51.034" transform="translate(185.07 1845.572)" fill="none" stroke="#fff" stroke-miterlimit="10" stroke-width="1"/>
    <g id="Group_120" data-name="Group 120" transform="translate(185.07 1845.572)">
      <g id="Group_119" data-name="Group 119" clip-path="url(#clip-path)">
        <line id="Line_143" data-name="Line 143" x1="55.032" y2="55.032" transform="translate(-27.916 -27.916)" fill="none" stroke="#fff" stroke-miterlimit="10" stroke-width="1"/>
        <line id="Line_144" data-name="Line 144" x1="55.032" y2="55.032" transform="translate(-24.353 -24.353)" fill="none" stroke="#fff" stroke-miterlimit="10" stroke-width="1"/>
        <line id="Line_145" data-name="Line 145" x1="55.032" y2="55.032" transform="translate(-20.944 -20.944)" fill="none" stroke="#fff" stroke-miterlimit="10" stroke-width="1"/>
        <line id="Line_146" data-name="Line 146" x1="55.032" y2="55.032" transform="translate(-17.599 -17.599)" fill="none" stroke="#fff" stroke-miterlimit="10" stroke-width="1"/>
        <line id="Line_147" data-name="Line 147" x1="55.032" y2="55.032" transform="translate(-14.058 -14.058)" fill="none" stroke="#fff" stroke-miterlimit="10" stroke-width="1"/>
        <line id="Line_148" data-name="Line 148" x1="55.032" y2="55.032" transform="translate(-10.495 -10.495)" fill="none" stroke="#fff" stroke-miterlimit="10" stroke-width="1"/>
        <line id="Line_149" data-name="Line 149" x1="55.032" y2="55.032" transform="translate(-7.085 -7.085)" fill="none" stroke="#fff" stroke-miterlimit="10" stroke-width="1"/>
        <line id="Line_150" data-name="Line 150" x1="55.032" y2="55.032" transform="translate(-3.74 -3.74)" fill="none" stroke="#fff" stroke-miterlimit="10" stroke-width="1"/>
        <line id="Line_151" data-name="Line 151" x1="55.032" y2="55.032" transform="translate(-0.209 -0.209)" fill="none" stroke="#fff" stroke-miterlimit="10" stroke-width="1"/>
        <line id="Line_152" data-name="Line 152" x1="55.032" y2="55.032" transform="translate(3.354 3.354)" fill="none" stroke="#fff" stroke-miterlimit="10" stroke-width="1"/>
        <line id="Line_153" data-name="Line 153" x1="55.032" y2="55.032" transform="translate(6.764 6.764)" fill="none" stroke="#fff" stroke-miterlimit="10" stroke-width="1"/>
        <line id="Line_154" data-name="Line 154" x1="55.032" y2="55.032" transform="translate(10.109 10.109)" fill="none" stroke="#fff" stroke-miterlimit="10" stroke-width="1"/>
        <line id="Line_155" data-name="Line 155" x1="55.032" y2="55.032" transform="translate(13.601 13.601)" fill="none" stroke="#fff" stroke-miterlimit="10" stroke-width="1"/>
        <line id="Line_156" data-name="Line 156" x1="55.032" y2="55.032" transform="translate(17.164 17.164)" fill="none" stroke="#fff" stroke-miterlimit="10" stroke-width="1"/>
        <line id="Line_157" data-name="Line 157" x1="55.032" y2="55.032" transform="translate(20.574 20.574)" fill="none" stroke="#fff" stroke-miterlimit="10" stroke-width="1"/>
        <line id="Line_158" data-name="Line 158" x1="55.032" y2="55.032" transform="translate(23.918 23.918)" fill="none" stroke="#fff" stroke-miterlimit="10" stroke-width="1"/>
      </g>
    </g>
    <path id="Path_152" data-name="Path 152" d="M261.888,1688.464H479.377l54.845,54.845" transform="translate(55.389 149.192)" fill="none" stroke="#fff" stroke-miterlimit="10" stroke-width="1"/>
    <line id="Line_159" data-name="Line 159" y2="194.308" transform="translate(602.345 1748.417)" fill="none" stroke="#fff" stroke-miterlimit="10" stroke-width="1"/>
    <path id="Path_153" data-name="Path 153" d="M432.673,1744.218l57.014-57.014h182.6" transform="translate(178.535 148.283)" fill="none" stroke="#fff" stroke-miterlimit="10" stroke-width="1"/>
  </g>
</svg>
