<svg xmlns="http://www.w3.org/2000/svg" width="429.887" height="450.881" viewBox="0 0 429.887 450.881">
  <g data-name="Group 118" transform="translate(-336.052 -411.425)">
    <path data-name="Path 132" d="M487.014,411.925A103.69,103.69,0,0,0,469.2,617.765L576.379,463.032A103.633,103.633,0,0,0,487.014,411.925Z" transform="translate(36.842)" fill="#fff" stroke="#000" stroke-miterlimit="10" stroke-width="1"/>
    <path data-name="Path 133" d="M552.66,492.98a103.2,103.2,0,0,0-14.334-52.592L431.148,595.121A103.628,103.628,0,0,0,552.66,492.98Z" transform="translate(74.895 22.644)" fill="#fbf789" stroke="#000" stroke-miterlimit="10" stroke-width="1"/>
    <line data-name="Line 136" x1="144.849" y2="205.353" transform="translate(337.006 627.116)" fill="none" stroke="#000" stroke-miterlimit="10" stroke-width="1"/>
    <line data-name="Line 137" y1="179.929" x2="127.248" transform="translate(337.006 626.138)" fill="none" stroke="#000" stroke-miterlimit="10" stroke-width="1"/>
    <path data-name="Path 134" d="M544.317,706.1h-16.5v-39.54H631.234l67.584-241.535H632.324l-19.1,27.58A103.686,103.686,0,0,1,523.856,608.9a104.361,104.361,0,0,1-17.814-1.555L337.006,851.382H579.518l35.3-126.146h-70.5Z" transform="translate(0 10.424)" fill="#fff" stroke="#000" stroke-miterlimit="10" stroke-width="1"/>
    <path data-name="Path 135" d="M617.725,579.317v-19.77h-114.4l-5.532,19.77Z" transform="translate(127.912 117.44)" fill="none" stroke="#000" stroke-miterlimit="10" stroke-width="1"/>
    <path data-name="Path 136" d="M443.274,599.087h16.5v-19.77H541.16l5.532-19.77H443.274Z" transform="translate(84.541 117.44)" fill="#fbf789" stroke="#000" stroke-miterlimit="10" stroke-width="1"/>
    <path data-name="Path 137" d="M642.35,570.557h-19.8v19.77H497.081l-5.354,19.132H642.35Z" transform="translate(123.089 126.2)" fill="none" stroke="#000" stroke-miterlimit="10" stroke-width="1"/>
    <path data-name="Path 138" d="M452.464,581.568V600.7h70.5l5.354-19.132Z" transform="translate(91.853 134.959)" fill="#fbf789" stroke="#000" stroke-miterlimit="10" stroke-width="1"/>
    <path data-name="Path 139" d="M494.709,590.327H620.176v-19.77H500.241Z" transform="translate(125.461 126.2)" fill="none" stroke="#000" stroke-miterlimit="10" stroke-width="1"/>
    <path data-name="Path 140" d="M452.464,570.557v19.77h75.853l5.532-19.77Z" transform="translate(91.853 126.2)" fill="#fff" stroke="#000" stroke-miterlimit="10" stroke-width="1"/>
    <path data-name="Path 141" d="M337.006,679.864V531.227H440.785Z" transform="translate(0 94.911)" fill="#f2f1eb" stroke="#000" stroke-miterlimit="10" stroke-width="1"/>
    <path data-name="Path 142" d="M337.006,585.416v-149.5H409.43" transform="translate(0 19.09)" fill="#fff" stroke="#000" stroke-miterlimit="10" stroke-width="1"/>
    <path data-name="Path 143" d="M490.839,680.59H643.057v-75.3" transform="translate(122.382 153.835)" fill="#fff" stroke="#000" stroke-miterlimit="10" stroke-width="1"/>
    <path data-name="Path 144" d="M595.544,634.429V435.921H550.562" transform="translate(169.894 19.09)" fill="none" stroke="#000" stroke-miterlimit="10" stroke-width="1"/>
  </g>
</svg>
