<?xml version="1.0" encoding="utf-8"?>
<!-- Generator: Adobe Illustrator 23.1.1, SVG Export Plug-In . SVG Version: 6.00 Build 0)  -->
<svg version="1.1" id="Layer_1" xmlns="http://www.w3.org/2000/svg" xmlns:xlink="http://www.w3.org/1999/xlink" x="0px" y="0px" width="450px"
	 viewBox="0 0 448.5 139.9" style="enable-background:new 0 0 448.5 139.9;" xml:space="preserve">
<style type="text/css">
	.st0{fill:none;}
	.st1{fill:#C62B27;}
	.st2{fill:#013A93;}
	.st3{fill:#259D24;}
	.st4{fill:none;stroke:#EFE9E9;stroke-miterlimit:10;}
	.st5{fill:none;stroke:#A6C8FF;stroke-miterlimit:10;}
	.st6{fill:#FCFCFC;}
	.st7{fill:#555555;}
</style>
<g>
	<g>
		<path class="st1" d="M53,43H6.1c-2.3,0-4.1-1.8-4.1-4.1v-9.8c0-2.3,1.8-4.1,4.1-4.1H53c2.3,0,4.1,1.8,4.1,4.1v9.8
			C57.1,41.2,55.2,43,53,43z"/>
	</g>
	<g>
		<path class="st6" d="M19.4,38l-1.2-2.9h-3.7L13.4,38h-1.1l3.7-9h0.9l3.7,9H19.4z M17.9,34.2l-1.1-2.8c-0.1-0.4-0.3-0.8-0.4-1.3
			c-0.1,0.4-0.2,0.8-0.4,1.3l-1.1,2.8H17.9z"/>
		<path class="st6" d="M22.7,38h-1.1v-9.6h1.1V38z"/>
		<path class="st6" d="M28.2,38.1c-0.5,0-0.9-0.1-1.2-0.2s-0.7-0.4-0.9-0.7h-0.1c0.1,0.4,0.1,0.8,0.1,1.1V41h-1.1v-9.8h0.9l0.1,0.9
			H26c0.3-0.4,0.6-0.6,0.9-0.8s0.8-0.2,1.2-0.2c0.9,0,1.6,0.3,2.1,0.9c0.5,0.6,0.8,1.5,0.8,2.6c0,1.1-0.3,2-0.8,2.6
			C29.8,37.8,29.1,38.1,28.2,38.1z M28,32c-0.7,0-1.2,0.2-1.5,0.6c-0.3,0.4-0.5,1-0.5,1.8v0.2c0,0.9,0.2,1.6,0.5,2s0.9,0.6,1.6,0.6
			c0.6,0,1.1-0.2,1.4-0.7c0.3-0.5,0.5-1.1,0.5-2c0-0.8-0.2-1.5-0.5-1.9S28.7,32,28,32z"/>
		<path class="st6" d="M37.7,38v-4.4c0-0.6-0.1-1-0.4-1.2c-0.3-0.3-0.7-0.4-1.2-0.4c-0.7,0-1.3,0.2-1.6,0.6c-0.3,0.4-0.5,1-0.5,1.9
			V38h-1.1v-9.6H34v2.9c0,0.3,0,0.6-0.1,0.9H34c0.2-0.3,0.5-0.6,0.9-0.8c0.4-0.2,0.8-0.3,1.3-0.3c0.9,0,1.5,0.2,1.9,0.6
			c0.4,0.4,0.6,1,0.6,1.9V38H37.7z"/>
		<path class="st6" d="M45.2,38L45,37H45c-0.3,0.4-0.7,0.7-1,0.9c-0.3,0.1-0.8,0.2-1.3,0.2c-0.7,0-1.2-0.2-1.6-0.5
			c-0.4-0.3-0.6-0.8-0.6-1.5c0-1.4,1.1-2.1,3.4-2.1l1.2,0v-0.4c0-0.5-0.1-0.9-0.4-1.2C44.4,32.1,44,32,43.5,32c-0.6,0-1.2,0.2-2,0.5
			l-0.3-0.8c0.3-0.2,0.7-0.3,1.1-0.4c0.4-0.1,0.8-0.2,1.2-0.2c0.8,0,1.5,0.2,1.9,0.5s0.6,0.9,0.6,1.7V38H45.2z M42.9,37.3
			c0.7,0,1.2-0.2,1.6-0.5s0.6-0.8,0.6-1.5v-0.6l-1.1,0c-0.8,0-1.4,0.2-1.8,0.4c-0.4,0.2-0.6,0.6-0.6,1c0,0.4,0.1,0.7,0.3,0.8
			C42.1,37.2,42.4,37.3,42.9,37.3z"/>
	</g>
</g>
<g>
	<path class="st2" d="M53,84.6H6.1c-2.3,0-4.1-1.8-4.1-4.1v-9.8c0-2.3,1.8-4.1,4.1-4.1H53c2.3,0,4.1,1.8,4.1,4.1v9.8
		C57.1,82.7,55.2,84.6,53,84.6z"/>
	<g>
		<path class="st6" d="M17.4,70.5H20c1.2,0,2.1,0.2,2.7,0.5c0.6,0.4,0.8,0.9,0.8,1.7c0,0.5-0.2,1-0.5,1.3c-0.3,0.3-0.8,0.6-1.3,0.7
			v0.1c1.4,0.2,2.1,1,2.1,2.2c0,0.8-0.3,1.4-0.8,1.9c-0.6,0.5-1.4,0.7-2.4,0.7h-3.2V70.5z M18.5,74.4h1.8c0.8,0,1.3-0.1,1.7-0.3
			c0.3-0.2,0.5-0.6,0.5-1.2c0-0.5-0.2-0.9-0.6-1.1c-0.4-0.2-1-0.3-1.8-0.3h-1.6V74.4z M18.5,75.3v3.4h1.9c0.8,0,1.3-0.1,1.7-0.4
			c0.4-0.3,0.6-0.7,0.6-1.3c0-0.6-0.2-1-0.6-1.2s-1-0.4-1.8-0.4H18.5z"/>
		<path class="st6" d="M28.7,79.7c-1,0-1.8-0.3-2.4-0.9s-0.9-1.5-0.9-2.5c0-1.1,0.3-2,0.8-2.6c0.6-0.6,1.3-1,2.2-1
			c0.9,0,1.6,0.3,2.1,0.8s0.8,1.3,0.8,2.2v0.6h-4.8c0,0.8,0.2,1.4,0.6,1.8c0.4,0.4,0.9,0.6,1.7,0.6c0.8,0,1.5-0.2,2.2-0.5v0.9
			c-0.4,0.2-0.7,0.3-1.1,0.3C29.5,79.6,29.1,79.7,28.7,79.7z M28.4,73.5c-0.6,0-1,0.2-1.3,0.5c-0.3,0.4-0.5,0.8-0.6,1.5h3.7
			c0-0.6-0.1-1.1-0.4-1.5C29.3,73.7,28.9,73.5,28.4,73.5z"/>
		<path class="st6" d="M35.3,78.8c0.2,0,0.4,0,0.5,0c0.2,0,0.3-0.1,0.4-0.1v0.8c-0.1,0.1-0.3,0.1-0.5,0.1c-0.2,0-0.4,0.1-0.6,0.1
			c-1.4,0-2-0.7-2-2.1v-4h-1v-0.5l1-0.4l0.4-1.4h0.6v1.6h2v0.8h-2v4c0,0.4,0.1,0.7,0.3,0.9C34.7,78.7,34.9,78.8,35.3,78.8z"/>
		<path class="st6" d="M41.9,79.5l-0.2-1h-0.1c-0.3,0.4-0.7,0.7-1,0.9c-0.3,0.1-0.8,0.2-1.3,0.2c-0.7,0-1.2-0.2-1.6-0.5
			c-0.4-0.3-0.6-0.8-0.6-1.5c0-1.4,1.1-2.1,3.4-2.1l1.2,0v-0.4c0-0.5-0.1-0.9-0.4-1.2c-0.2-0.3-0.6-0.4-1.1-0.4
			c-0.6,0-1.2,0.2-2,0.5l-0.3-0.8c0.3-0.2,0.7-0.3,1.1-0.4c0.4-0.1,0.8-0.2,1.2-0.2c0.8,0,1.5,0.2,1.9,0.5s0.6,0.9,0.6,1.7v4.6H41.9
			z M39.5,78.8c0.7,0,1.2-0.2,1.6-0.5s0.6-0.8,0.6-1.5v-0.6l-1.1,0c-0.8,0-1.4,0.2-1.8,0.4c-0.4,0.2-0.6,0.6-0.6,1
			c0,0.4,0.1,0.7,0.3,0.8C38.8,78.7,39.1,78.8,39.5,78.8z"/>
	</g>
</g>
<g>
	<g>
		<path class="st3" d="M53,126.1H6.1c-2.3,0-4.1-1.8-4.1-4.1v-9.8c0-2.3,1.8-4.1,4.1-4.1H53c2.3,0,4.1,1.8,4.1,4.1v9.8
			C57.1,124.2,55.2,126.1,53,126.1z"/>
	</g>
	<g>
		<path class="st6" d="M9,116.9v3.7H7.9v-9h2.6c1.1,0,2,0.2,2.5,0.6s0.8,1.1,0.8,1.9c0,1.2-0.6,2-1.9,2.4l2.5,4h-1.3l-2.3-3.7H9z
			 M9,116h1.5c0.8,0,1.3-0.1,1.7-0.4s0.5-0.7,0.5-1.3c0-0.6-0.2-1-0.5-1.3s-0.9-0.4-1.7-0.4H9V116z"/>
		<path class="st6" d="M18.8,120.8c-1,0-1.8-0.3-2.4-0.9c-0.6-0.6-0.9-1.5-0.9-2.5c0-1.1,0.3-2,0.8-2.6c0.6-0.6,1.3-1,2.2-1
			c0.9,0,1.6,0.3,2.1,0.8s0.8,1.3,0.8,2.2v0.6h-4.8c0,0.8,0.2,1.4,0.6,1.8c0.4,0.4,0.9,0.6,1.7,0.6c0.8,0,1.5-0.2,2.2-0.5v0.9
			c-0.4,0.2-0.7,0.3-1.1,0.3C19.6,120.8,19.2,120.8,18.8,120.8z M18.5,114.6c-0.6,0-1,0.2-1.3,0.5c-0.3,0.4-0.5,0.8-0.6,1.5h3.7
			c0-0.6-0.1-1.1-0.4-1.5S19,114.6,18.5,114.6z"/>
		<path class="st6" d="M24.2,120.7h-1.1v-9.6h1.1V120.7z"/>
		<path class="st6" d="M29.4,120.8c-1,0-1.8-0.3-2.4-0.9c-0.6-0.6-0.9-1.5-0.9-2.5c0-1.1,0.3-2,0.8-2.6s1.3-1,2.2-1
			c0.9,0,1.6,0.3,2.1,0.8s0.8,1.3,0.8,2.2v0.6h-4.8c0,0.8,0.2,1.4,0.6,1.8c0.4,0.4,0.9,0.6,1.7,0.6c0.8,0,1.5-0.2,2.2-0.5v0.9
			c-0.4,0.2-0.7,0.3-1.1,0.3C30.2,120.8,29.8,120.8,29.4,120.8z M29.1,114.6c-0.6,0-1,0.2-1.3,0.5c-0.3,0.4-0.5,0.8-0.6,1.5h3.7
			c0-0.6-0.1-1.1-0.4-1.5S29.6,114.6,29.1,114.6z"/>
		<path class="st6" d="M38,120.7l-0.2-1h-0.1c-0.3,0.4-0.7,0.7-1,0.9c-0.3,0.1-0.8,0.2-1.3,0.2c-0.7,0-1.2-0.2-1.6-0.5
			c-0.4-0.3-0.6-0.8-0.6-1.5c0-1.4,1.1-2.1,3.4-2.1l1.2,0v-0.4c0-0.5-0.1-0.9-0.4-1.2s-0.6-0.4-1.1-0.4c-0.6,0-1.2,0.2-2,0.5
			l-0.3-0.8c0.3-0.2,0.7-0.3,1.1-0.4c0.4-0.1,0.8-0.2,1.2-0.2c0.8,0,1.4,0.2,1.9,0.5c0.4,0.4,0.6,0.9,0.6,1.7v4.6H38z M35.6,119.9
			c0.7,0,1.2-0.2,1.6-0.5c0.4-0.3,0.6-0.8,0.6-1.5v-0.6l-1.1,0c-0.8,0-1.4,0.2-1.8,0.4c-0.4,0.2-0.6,0.6-0.6,1
			c0,0.4,0.1,0.7,0.3,0.8C34.9,119.8,35.2,119.9,35.6,119.9z"/>
		<path class="st6" d="M45.5,118.8c0,0.6-0.2,1.1-0.7,1.5c-0.5,0.3-1.2,0.5-2,0.5c-0.9,0-1.6-0.1-2.2-0.4v-0.9
			c0.3,0.2,0.7,0.3,1.1,0.4c0.4,0.1,0.8,0.1,1.1,0.1c0.6,0,1-0.1,1.3-0.3c0.3-0.2,0.4-0.4,0.4-0.8c0-0.3-0.1-0.5-0.4-0.7
			c-0.2-0.2-0.7-0.4-1.4-0.7c-0.6-0.2-1.1-0.4-1.4-0.6s-0.5-0.4-0.6-0.6c-0.1-0.2-0.2-0.5-0.2-0.8c0-0.5,0.2-1,0.7-1.3
			s1.1-0.5,1.9-0.5c0.8,0,1.5,0.1,2.2,0.4l-0.4,0.8c-0.7-0.3-1.3-0.4-1.9-0.4c-0.5,0-0.9,0.1-1.1,0.2c-0.3,0.2-0.4,0.4-0.4,0.6
			c0,0.2,0,0.3,0.1,0.5c0.1,0.1,0.2,0.2,0.5,0.4c0.2,0.1,0.6,0.3,1.2,0.5c0.8,0.3,1.4,0.6,1.7,0.9C45.4,118,45.5,118.4,45.5,118.8z"
			/>
		<path class="st6" d="M50.2,120.8c-1,0-1.8-0.3-2.4-0.9c-0.6-0.6-0.9-1.5-0.9-2.5c0-1.1,0.3-2,0.8-2.6c0.6-0.6,1.3-1,2.2-1
			c0.9,0,1.6,0.3,2.1,0.8s0.8,1.3,0.8,2.2v0.6h-4.8c0,0.8,0.2,1.4,0.6,1.8c0.4,0.4,0.9,0.6,1.7,0.6c0.8,0,1.5-0.2,2.2-0.5v0.9
			c-0.4,0.2-0.7,0.3-1.1,0.3S50.7,120.8,50.2,120.8z M49.9,114.6c-0.6,0-1,0.2-1.3,0.5c-0.3,0.4-0.5,0.8-0.6,1.5h3.7
			c0-0.6-0.1-1.1-0.4-1.5C50.9,114.8,50.4,114.6,49.9,114.6z"/>
	</g>
</g>
<g>
	<path class="st7" d="M69.8,35.7h-1.2v-9h-3.2v-1H73v1h-3.2V35.7z"/>
	<path class="st7" d="M79.4,35.7v-4.8c0-0.6-0.1-1.1-0.4-1.4S78.3,29,77.7,29c-0.8,0-1.4,0.2-1.7,0.6c-0.4,0.4-0.5,1.1-0.5,2.1v3.9
		h-1.1V25h1.1v3.2c0,0.4,0,0.7-0.1,1h0.1c0.2-0.4,0.5-0.6,1-0.9c0.4-0.2,0.9-0.3,1.4-0.3c0.9,0,1.6,0.2,2.1,0.7
		c0.5,0.4,0.7,1.1,0.7,2.1v4.9H79.4z"/>
	<path class="st7" d="M82.8,26.2c0-0.3,0.1-0.5,0.2-0.6s0.3-0.2,0.5-0.2c0.2,0,0.3,0.1,0.5,0.2s0.2,0.3,0.2,0.6s-0.1,0.4-0.2,0.6
		s-0.3,0.2-0.5,0.2c-0.2,0-0.4-0.1-0.5-0.2S82.8,26.4,82.8,26.2z M84,35.7h-1.1v-7.5H84V35.7z"/>
	<path class="st7" d="M91.3,33.6c0,0.7-0.3,1.2-0.8,1.6s-1.2,0.6-2.2,0.6c-1,0-1.8-0.2-2.3-0.5v-1.1c0.4,0.2,0.7,0.3,1.2,0.4
		c0.4,0.1,0.8,0.2,1.2,0.2c0.6,0,1-0.1,1.4-0.3s0.5-0.5,0.5-0.9c0-0.3-0.1-0.5-0.4-0.7c-0.3-0.2-0.7-0.5-1.5-0.7
		c-0.7-0.3-1.2-0.5-1.5-0.7c-0.3-0.2-0.5-0.4-0.7-0.7C86,30.7,86,30.4,86,30c0-0.6,0.2-1.1,0.7-1.4s1.2-0.5,2-0.5
		c0.8,0,1.6,0.2,2.4,0.5l-0.4,0.9c-0.8-0.3-1.4-0.5-2-0.5c-0.5,0-0.9,0.1-1.2,0.3s-0.4,0.4-0.4,0.7c0,0.2,0.1,0.4,0.2,0.5
		c0.1,0.1,0.3,0.3,0.5,0.4s0.7,0.3,1.3,0.6c0.9,0.3,1.5,0.6,1.8,1C91.1,32.7,91.3,33.1,91.3,33.6z"/>
	<path class="st7" d="M101.4,35.7L98,26.8h-0.1c0.1,0.7,0.1,1.5,0.1,2.5v6.4h-1.1v-10h1.8l3.2,8.2h0.1l3.2-8.2h1.7v10h-1.2v-6.4
		c0-0.7,0-1.5,0.1-2.4h-0.1l-3.4,8.8H101.4z"/>
	<path class="st7" d="M114,35.7l-0.2-1.1h-0.1c-0.4,0.5-0.7,0.8-1.1,1c-0.4,0.2-0.8,0.2-1.4,0.2c-0.7,0-1.3-0.2-1.7-0.6
		c-0.4-0.4-0.6-0.9-0.6-1.6c0-1.5,1.2-2.3,3.6-2.4l1.3,0v-0.5c0-0.6-0.1-1-0.4-1.3c-0.3-0.3-0.7-0.4-1.2-0.4c-0.6,0-1.3,0.2-2.1,0.6
		l-0.3-0.9c0.4-0.2,0.8-0.4,1.2-0.5c0.4-0.1,0.9-0.2,1.3-0.2c0.9,0,1.6,0.2,2,0.6c0.4,0.4,0.6,1,0.6,1.9v5.1H114z M111.4,34.9
		c0.7,0,1.3-0.2,1.7-0.6c0.4-0.4,0.6-0.9,0.6-1.6V32l-1.1,0c-0.9,0-1.6,0.2-2,0.4c-0.4,0.2-0.6,0.6-0.6,1.2c0,0.4,0.1,0.7,0.4,0.9
		C110.7,34.8,111,34.9,111.4,34.9z"/>
	<path class="st7" d="M122.3,35.7v-4.8c0-0.6-0.1-1.1-0.4-1.4s-0.7-0.5-1.3-0.5c-0.8,0-1.4,0.2-1.7,0.6s-0.5,1.1-0.5,2.1v3.9h-1.1
		v-7.5h0.9l0.2,1h0.1c0.2-0.4,0.6-0.7,1-0.9s0.9-0.3,1.4-0.3c0.9,0,1.6,0.2,2,0.7s0.7,1.1,0.7,2.1v4.9H122.3z"/>
	<path class="st7" d="M130.4,35.7l-0.2-1.1h-0.1c-0.4,0.5-0.7,0.8-1.1,1c-0.4,0.2-0.8,0.2-1.4,0.2c-0.7,0-1.3-0.2-1.7-0.6
		c-0.4-0.4-0.6-0.9-0.6-1.6c0-1.5,1.2-2.3,3.6-2.4l1.3,0v-0.5c0-0.6-0.1-1-0.4-1.3c-0.3-0.3-0.7-0.4-1.2-0.4c-0.6,0-1.3,0.2-2.1,0.6
		l-0.3-0.9c0.4-0.2,0.8-0.4,1.2-0.5c0.4-0.1,0.9-0.2,1.3-0.2c0.9,0,1.6,0.2,2,0.6c0.4,0.4,0.6,1,0.6,1.9v5.1H130.4z M127.8,34.9
		c0.7,0,1.3-0.2,1.7-0.6c0.4-0.4,0.6-0.9,0.6-1.6V32l-1.1,0c-0.9,0-1.6,0.2-2,0.4c-0.4,0.2-0.6,0.6-0.6,1.2c0,0.4,0.1,0.7,0.4,0.9
		C127,34.8,127.4,34.9,127.8,34.9z"/>
	<path class="st7" d="M139.7,28.2v0.7l-1.4,0.2c0.1,0.2,0.2,0.4,0.3,0.6s0.2,0.5,0.2,0.9c0,0.7-0.3,1.3-0.8,1.8S136.9,33,136,33
		c-0.2,0-0.4,0-0.6-0.1c-0.5,0.3-0.7,0.6-0.7,1c0,0.2,0.1,0.4,0.3,0.5s0.5,0.1,0.9,0.1h1.3c0.8,0,1.4,0.2,1.9,0.5
		c0.4,0.3,0.7,0.8,0.7,1.5c0,0.8-0.3,1.5-1,1.9S137,39,135.7,39c-1,0-1.7-0.2-2.3-0.5c-0.5-0.4-0.8-0.9-0.8-1.5
		c0-0.5,0.1-0.9,0.4-1.2s0.7-0.6,1.2-0.7c-0.2-0.1-0.4-0.2-0.5-0.4c-0.1-0.2-0.2-0.4-0.2-0.6c0-0.3,0.1-0.5,0.2-0.7s0.4-0.4,0.7-0.6
		c-0.4-0.2-0.7-0.4-0.9-0.8c-0.2-0.4-0.4-0.8-0.4-1.3c0-0.8,0.2-1.5,0.7-1.9s1.2-0.7,2.1-0.7c0.4,0,0.7,0,1.1,0.1H139.7z
		 M133.7,36.9c0,0.4,0.2,0.7,0.5,0.9s0.8,0.3,1.5,0.3c1,0,1.7-0.1,2.1-0.4c0.5-0.3,0.7-0.7,0.7-1.2c0-0.4-0.1-0.7-0.4-0.8
		s-0.7-0.2-1.4-0.2h-1.4c-0.5,0-0.9,0.1-1.2,0.4S133.7,36.5,133.7,36.9z M134.3,30.6c0,0.5,0.1,0.9,0.4,1.2s0.7,0.4,1.2,0.4
		c1.1,0,1.7-0.5,1.7-1.6c0-1.1-0.6-1.7-1.7-1.7c-0.5,0-0.9,0.1-1.2,0.4S134.3,30,134.3,30.6z"/>
	<path class="st7" d="M144.4,35.8c-1.1,0-2-0.3-2.6-1c-0.6-0.7-1-1.6-1-2.8c0-1.2,0.3-2.2,0.9-2.9c0.6-0.7,1.4-1.1,2.4-1.1
		c0.9,0,1.7,0.3,2.2,0.9s0.8,1.4,0.8,2.4v0.7H142c0,0.9,0.2,1.5,0.7,2c0.4,0.5,1,0.7,1.8,0.7c0.8,0,1.6-0.2,2.4-0.5v1
		c-0.4,0.2-0.8,0.3-1.1,0.4C145.3,35.8,144.9,35.8,144.4,35.8z M144.1,29c-0.6,0-1.1,0.2-1.4,0.6c-0.4,0.4-0.6,0.9-0.6,1.6h3.9
		c0-0.7-0.2-1.3-0.5-1.6S144.7,29,144.1,29z"/>
	<path class="st7" d="M152.5,28c0.3,0,0.6,0,0.9,0.1l-0.2,1.1c-0.3-0.1-0.6-0.1-0.8-0.1c-0.6,0-1.1,0.2-1.6,0.7
		c-0.4,0.5-0.6,1.1-0.6,1.8v4h-1.1v-7.5h0.9l0.1,1.4h0.1c0.3-0.5,0.6-0.9,1-1.1S152,28,152.5,28z"/>
	<path class="st7" d="M158.4,26.2c0-0.3,0.1-0.5,0.2-0.6s0.3-0.2,0.5-0.2c0.2,0,0.3,0.1,0.5,0.2s0.2,0.3,0.2,0.6s-0.1,0.4-0.2,0.6
		s-0.3,0.2-0.5,0.2c-0.2,0-0.4-0.1-0.5-0.2S158.4,26.4,158.4,26.2z M159.6,35.7h-1.1v-7.5h1.1V35.7z"/>
	<path class="st7" d="M166.8,33.6c0,0.7-0.3,1.2-0.8,1.6s-1.2,0.6-2.2,0.6c-1,0-1.8-0.2-2.3-0.5v-1.1c0.4,0.2,0.7,0.3,1.2,0.4
		c0.4,0.1,0.8,0.2,1.2,0.2c0.6,0,1-0.1,1.4-0.3s0.5-0.5,0.5-0.9c0-0.3-0.1-0.5-0.4-0.7c-0.3-0.2-0.7-0.5-1.5-0.7
		c-0.7-0.3-1.2-0.5-1.5-0.7c-0.3-0.2-0.5-0.4-0.7-0.7c-0.1-0.2-0.2-0.5-0.2-0.9c0-0.6,0.2-1.1,0.7-1.4s1.2-0.5,2-0.5
		c0.8,0,1.6,0.2,2.4,0.5l-0.4,0.9c-0.8-0.3-1.4-0.5-2-0.5c-0.5,0-0.9,0.1-1.2,0.3s-0.4,0.4-0.4,0.7c0,0.2,0.1,0.4,0.2,0.5
		c0.1,0.1,0.3,0.3,0.5,0.4s0.7,0.3,1.3,0.6c0.9,0.3,1.5,0.6,1.8,1C166.7,32.7,166.8,33.1,166.8,33.6z"/>
	<path class="st7" d="M175.8,28.1c1,0,1.7,0.3,2.3,1c0.5,0.7,0.8,1.6,0.8,2.9s-0.3,2.2-0.8,2.9c-0.5,0.7-1.3,1-2.3,1
		c-0.5,0-0.9-0.1-1.3-0.3c-0.4-0.2-0.7-0.5-1-0.8h-0.1l-0.2,1h-0.8V25h1.1v2.6c0,0.6,0,1.1-0.1,1.6h0.1
		C174,28.4,174.8,28.1,175.8,28.1z M175.6,29c-0.8,0-1.3,0.2-1.7,0.7s-0.5,1.2-0.5,2.2s0.2,1.8,0.5,2.3s0.9,0.7,1.7,0.7
		c0.7,0,1.2-0.3,1.6-0.8s0.5-1.2,0.5-2.2c0-1-0.2-1.7-0.5-2.2S176.3,29,175.6,29z"/>
	<path class="st7" d="M184,35.8c-1.1,0-2-0.3-2.6-1c-0.6-0.7-1-1.6-1-2.8c0-1.2,0.3-2.2,0.9-2.9c0.6-0.7,1.4-1.1,2.4-1.1
		c0.9,0,1.7,0.3,2.2,0.9s0.8,1.4,0.8,2.4v0.7h-5.2c0,0.9,0.2,1.5,0.7,2c0.4,0.5,1,0.7,1.8,0.7c0.8,0,1.6-0.2,2.4-0.5v1
		c-0.4,0.2-0.8,0.3-1.1,0.4C185,35.8,184.6,35.8,184,35.8z M183.7,29c-0.6,0-1.1,0.2-1.4,0.6c-0.4,0.4-0.6,0.9-0.6,1.6h3.9
		c0-0.7-0.2-1.3-0.5-1.6S184.3,29,183.7,29z"/>
	<path class="st7" d="M188.6,26.2c0-0.3,0.1-0.5,0.2-0.6s0.3-0.2,0.5-0.2c0.2,0,0.3,0.1,0.5,0.2s0.2,0.3,0.2,0.6s-0.1,0.4-0.2,0.6
		s-0.3,0.2-0.5,0.2c-0.2,0-0.4-0.1-0.5-0.2S188.6,26.4,188.6,26.2z M189.9,35.7h-1.1v-7.5h1.1V35.7z"/>
	<path class="st7" d="M197.4,35.7v-4.8c0-0.6-0.1-1.1-0.4-1.4s-0.7-0.5-1.3-0.5c-0.8,0-1.4,0.2-1.7,0.6s-0.5,1.1-0.5,2.1v3.9h-1.1
		v-7.5h0.9l0.2,1h0.1c0.2-0.4,0.6-0.7,1-0.9s0.9-0.3,1.4-0.3c0.9,0,1.6,0.2,2,0.7s0.7,1.1,0.7,2.1v4.9H197.4z"/>
	<path class="st7" d="M207,28.2v0.7l-1.4,0.2c0.1,0.2,0.2,0.4,0.3,0.6s0.2,0.5,0.2,0.9c0,0.7-0.2,1.3-0.8,1.8s-1.2,0.7-2.1,0.7
		c-0.2,0-0.4,0-0.6-0.1c-0.5,0.3-0.7,0.6-0.7,1c0,0.2,0.1,0.4,0.3,0.5s0.5,0.1,0.9,0.1h1.3c0.8,0,1.4,0.2,1.9,0.5
		c0.4,0.3,0.7,0.8,0.7,1.5c0,0.8-0.3,1.5-1,1.9S204.3,39,203,39c-1,0-1.7-0.2-2.3-0.5c-0.5-0.4-0.8-0.9-0.8-1.5
		c0-0.5,0.1-0.9,0.4-1.2s0.7-0.6,1.2-0.7c-0.2-0.1-0.4-0.2-0.5-0.4c-0.1-0.2-0.2-0.4-0.2-0.6c0-0.3,0.1-0.5,0.2-0.7s0.4-0.4,0.7-0.6
		c-0.4-0.2-0.7-0.4-0.9-0.8c-0.2-0.4-0.4-0.8-0.4-1.3c0-0.8,0.2-1.5,0.7-1.9s1.2-0.7,2.1-0.7c0.4,0,0.7,0,1.1,0.1H207z M201,36.9
		c0,0.4,0.2,0.7,0.5,0.9s0.8,0.3,1.5,0.3c1,0,1.7-0.1,2.1-0.4c0.5-0.3,0.7-0.7,0.7-1.2c0-0.4-0.1-0.7-0.4-0.8s-0.7-0.2-1.4-0.2h-1.4
		c-0.5,0-0.9,0.1-1.2,0.4S201,36.5,201,36.9z M201.6,30.6c0,0.5,0.1,0.9,0.4,1.2s0.7,0.4,1.2,0.4c1.1,0,1.7-0.5,1.7-1.6
		c0-1.1-0.6-1.7-1.7-1.7c-0.5,0-0.9,0.1-1.2,0.4S201.6,30,201.6,30.6z"/>
	<path class="st7" d="M216.8,35.7l-0.2-1.1h-0.1c-0.4,0.5-0.7,0.8-1.1,1c-0.4,0.2-0.8,0.2-1.4,0.2c-0.7,0-1.3-0.2-1.7-0.6
		c-0.4-0.4-0.6-0.9-0.6-1.6c0-1.5,1.2-2.3,3.6-2.4l1.3,0v-0.5c0-0.6-0.1-1-0.4-1.3c-0.3-0.3-0.7-0.4-1.2-0.4c-0.6,0-1.3,0.2-2.1,0.6
		l-0.3-0.9c0.4-0.2,0.8-0.4,1.2-0.5c0.4-0.1,0.9-0.2,1.3-0.2c0.9,0,1.6,0.2,2,0.6c0.4,0.4,0.6,1,0.6,1.9v5.1H216.8z M214.2,34.9
		c0.7,0,1.3-0.2,1.7-0.6c0.4-0.4,0.6-0.9,0.6-1.6V32l-1.1,0c-0.9,0-1.6,0.2-2,0.4c-0.4,0.2-0.6,0.6-0.6,1.2c0,0.4,0.1,0.7,0.4,0.9
		C213.4,34.8,213.8,34.9,214.2,34.9z"/>
	<path class="st7" d="M223,35.8c-1.1,0-1.9-0.3-2.5-1c-0.6-0.7-0.9-1.6-0.9-2.8c0-1.3,0.3-2.2,0.9-2.9c0.6-0.7,1.5-1,2.6-1
		c0.4,0,0.7,0,1.1,0.1s0.6,0.2,0.8,0.3l-0.3,1c-0.3-0.1-0.5-0.2-0.8-0.2s-0.6-0.1-0.8-0.1c-1.5,0-2.3,1-2.3,2.9
		c0,0.9,0.2,1.6,0.6,2.1c0.4,0.5,0.9,0.7,1.7,0.7c0.6,0,1.3-0.1,1.9-0.4v1C224.3,35.7,223.7,35.8,223,35.8z"/>
	<path class="st7" d="M229,34.9c0.2,0,0.4,0,0.6,0s0.3-0.1,0.4-0.1v0.9c-0.1,0.1-0.3,0.1-0.5,0.1c-0.2,0-0.5,0.1-0.6,0.1
		c-1.4,0-2.2-0.8-2.2-2.3v-4.5h-1.1v-0.5l1.1-0.5l0.5-1.6h0.7v1.7h2.2v0.9h-2.2v4.4c0,0.5,0.1,0.8,0.3,1S228.7,34.9,229,34.9z"/>
	<path class="st7" d="M231.5,26.2c0-0.3,0.1-0.5,0.2-0.6s0.3-0.2,0.5-0.2c0.2,0,0.3,0.1,0.5,0.2s0.2,0.3,0.2,0.6s-0.1,0.4-0.2,0.6
		s-0.3,0.2-0.5,0.2c-0.2,0-0.4-0.1-0.5-0.2S231.5,26.4,231.5,26.2z M232.7,35.7h-1.1v-7.5h1.1V35.7z"/>
	<path class="st7" d="M236.8,35.7l-2.8-7.5h1.2l1.6,4.4c0.4,1,0.6,1.7,0.6,2h0.1c0-0.2,0.2-0.7,0.5-1.5c0.3-0.8,0.9-2.4,1.8-5h1.2
		l-2.8,7.5H236.8z"/>
	<path class="st7" d="M245.3,35.8c-1.1,0-2-0.3-2.6-1c-0.6-0.7-1-1.6-1-2.8c0-1.2,0.3-2.2,0.9-2.9c0.6-0.7,1.4-1.1,2.4-1.1
		c0.9,0,1.7,0.3,2.2,0.9s0.8,1.4,0.8,2.4v0.7h-5.2c0,0.9,0.2,1.5,0.7,2c0.4,0.5,1,0.7,1.8,0.7c0.8,0,1.6-0.2,2.4-0.5v1
		c-0.4,0.2-0.8,0.3-1.1,0.4C246.2,35.8,245.8,35.8,245.3,35.8z M245,29c-0.6,0-1.1,0.2-1.4,0.6c-0.4,0.4-0.6,0.9-0.6,1.6h3.9
		c0-0.7-0.2-1.3-0.5-1.6S245.6,29,245,29z"/>
	<path class="st7" d="M251.1,35.7H250V25h1.1V35.7z"/>
	<path class="st7" d="M252.3,28.2h1.2l1.6,4.3c0.4,1,0.6,1.7,0.7,2.1h0.1c0.1-0.2,0.2-0.6,0.4-1.2c0.2-0.6,0.8-2.3,1.9-5.2h1.2
		l-3.2,8.5c-0.3,0.8-0.7,1.4-1.1,1.8c-0.4,0.4-0.9,0.5-1.6,0.5c-0.3,0-0.7,0-1-0.1V38c0.2,0.1,0.5,0.1,0.8,0.1
		c0.8,0,1.3-0.4,1.7-1.3l0.4-1.1L252.3,28.2z"/>
	<path class="st7" d="M269.3,34.7L269.3,34.7c-0.6,0.8-1.4,1.1-2.4,1.1c-1,0-1.7-0.3-2.3-1c-0.5-0.7-0.8-1.6-0.8-2.9
		s0.3-2.2,0.8-2.9s1.3-1,2.3-1c1,0,1.8,0.4,2.3,1.1h0.1l0-0.5l0-0.5v-3h1.1v10.6h-0.9L269.3,34.7z M267,34.9c0.8,0,1.3-0.2,1.7-0.6
		c0.3-0.4,0.5-1.1,0.5-2V32c0-1.1-0.2-1.8-0.5-2.3c-0.4-0.5-0.9-0.7-1.7-0.7c-0.7,0-1.2,0.3-1.5,0.8c-0.4,0.5-0.5,1.2-0.5,2.2
		c0,1,0.2,1.7,0.5,2.2S266.4,34.9,267,34.9z"/>
	<path class="st7" d="M276,35.8c-1.1,0-2-0.3-2.6-1c-0.6-0.7-1-1.6-1-2.8c0-1.2,0.3-2.2,0.9-2.9c0.6-0.7,1.4-1.1,2.4-1.1
		c0.9,0,1.7,0.3,2.2,0.9s0.8,1.4,0.8,2.4v0.7h-5.2c0,0.9,0.2,1.5,0.7,2c0.4,0.5,1,0.7,1.8,0.7c0.8,0,1.6-0.2,2.4-0.5v1
		c-0.4,0.2-0.8,0.3-1.1,0.4C276.9,35.8,276.5,35.8,276,35.8z M275.6,29c-0.6,0-1.1,0.2-1.4,0.6c-0.4,0.4-0.6,0.9-0.6,1.6h3.9
		c0-0.7-0.2-1.3-0.5-1.6S276.2,29,275.6,29z"/>
	<path class="st7" d="M282.3,35.7l-2.8-7.5h1.2l1.6,4.4c0.4,1,0.6,1.7,0.6,2h0.1c0-0.2,0.2-0.7,0.5-1.5c0.3-0.8,0.9-2.4,1.8-5h1.2
		l-2.8,7.5H282.3z"/>
	<path class="st7" d="M290.8,35.8c-1.1,0-2-0.3-2.6-1c-0.6-0.7-1-1.6-1-2.8c0-1.2,0.3-2.2,0.9-2.9c0.6-0.7,1.4-1.1,2.4-1.1
		c0.9,0,1.7,0.3,2.2,0.9s0.8,1.4,0.8,2.4v0.7h-5.2c0,0.9,0.2,1.5,0.7,2c0.4,0.5,1,0.7,1.8,0.7c0.8,0,1.6-0.2,2.4-0.5v1
		c-0.4,0.2-0.8,0.3-1.1,0.4C291.8,35.8,291.3,35.8,290.8,35.8z M290.5,29c-0.6,0-1.1,0.2-1.4,0.6c-0.4,0.4-0.6,0.9-0.6,1.6h3.9
		c0-0.7-0.2-1.3-0.5-1.6S291.1,29,290.5,29z"/>
	<path class="st7" d="M296.6,35.7h-1.1V25h1.1V35.7z"/>
	<path class="st7" d="M305.5,31.9c0,1.2-0.3,2.2-0.9,2.9s-1.5,1-2.5,1c-0.7,0-1.3-0.2-1.8-0.5s-0.9-0.8-1.2-1.4s-0.4-1.3-0.4-2.1
		c0-1.2,0.3-2.2,0.9-2.9s1.5-1,2.5-1c1,0,1.9,0.3,2.5,1C305.2,29.8,305.5,30.7,305.5,31.9z M299.8,31.9c0,1,0.2,1.7,0.6,2.2
		s0.9,0.8,1.7,0.8s1.3-0.2,1.7-0.7c0.4-0.5,0.6-1.2,0.6-2.2c0-1-0.2-1.7-0.6-2.2c-0.4-0.5-1-0.7-1.7-0.7c-0.7,0-1.3,0.2-1.7,0.7
		S299.8,31,299.8,31.9z"/>
	<path class="st7" d="M311,35.8c-0.5,0-0.9-0.1-1.3-0.3c-0.4-0.2-0.7-0.5-1-0.8h-0.1c0.1,0.4,0.1,0.9,0.1,1.2V39h-1.1V28.2h0.9
		l0.2,1h0.1c0.3-0.4,0.6-0.7,1-0.9s0.8-0.3,1.3-0.3c1,0,1.8,0.3,2.3,1c0.5,0.7,0.8,1.6,0.8,2.9c0,1.2-0.3,2.2-0.8,2.9
		C312.7,35.5,312,35.8,311,35.8z M310.8,29c-0.8,0-1.3,0.2-1.7,0.6s-0.5,1.1-0.5,2v0.3c0,1.1,0.2,1.8,0.5,2.3s0.9,0.7,1.7,0.7
		c0.6,0,1.2-0.3,1.5-0.8c0.4-0.5,0.5-1.2,0.5-2.2c0-0.9-0.2-1.7-0.5-2.1C312,29.3,311.5,29,310.8,29z"/>
	<path class="st7" d="M319.3,35.8c-1.1,0-2-0.3-2.6-1c-0.6-0.7-1-1.6-1-2.8c0-1.2,0.3-2.2,0.9-2.9c0.6-0.7,1.4-1.1,2.4-1.1
		c0.9,0,1.7,0.3,2.2,0.9s0.8,1.4,0.8,2.4v0.7h-5.2c0,0.9,0.2,1.5,0.7,2c0.4,0.5,1,0.7,1.8,0.7c0.8,0,1.6-0.2,2.4-0.5v1
		c-0.4,0.2-0.8,0.3-1.1,0.4C320.2,35.8,319.8,35.8,319.3,35.8z M318.9,29c-0.6,0-1.1,0.2-1.4,0.6c-0.4,0.4-0.6,0.9-0.6,1.6h3.9
		c0-0.7-0.2-1.3-0.5-1.6S319.5,29,318.9,29z"/>
	<path class="st7" d="M329,34.7L329,34.7c-0.6,0.8-1.4,1.1-2.4,1.1c-1,0-1.7-0.3-2.3-1c-0.5-0.7-0.8-1.6-0.8-2.9s0.3-2.2,0.8-2.9
		s1.3-1,2.3-1c1,0,1.8,0.4,2.3,1.1h0.1l0-0.5l0-0.5v-3h1.1v10.6h-0.9L329,34.7z M326.8,34.9c0.8,0,1.3-0.2,1.7-0.6
		c0.3-0.4,0.5-1.1,0.5-2V32c0-1.1-0.2-1.8-0.5-2.3c-0.4-0.5-0.9-0.7-1.7-0.7c-0.7,0-1.2,0.3-1.5,0.8c-0.4,0.5-0.5,1.2-0.5,2.2
		c0,1,0.2,1.7,0.5,2.2S326.1,34.9,326.8,34.9z"/>
	<path class="st7" d="M332.4,35c0-0.3,0.1-0.5,0.2-0.7c0.1-0.2,0.3-0.2,0.6-0.2c0.3,0,0.5,0.1,0.6,0.2c0.1,0.2,0.2,0.4,0.2,0.7
		c0,0.3-0.1,0.5-0.2,0.7s-0.4,0.2-0.6,0.2c-0.2,0-0.4-0.1-0.6-0.2C332.4,35.5,332.4,35.3,332.4,35z"/>
	<path class="st7" d="M66.7,52.5v-10h1.2v10H66.7z"/>
	<path class="st7" d="M72.9,51.7c0.2,0,0.4,0,0.6,0s0.3-0.1,0.4-0.1v0.9c-0.1,0.1-0.3,0.1-0.5,0.1c-0.2,0-0.5,0.1-0.6,0.1
		c-1.4,0-2.2-0.8-2.2-2.3v-4.5h-1.1v-0.5l1.1-0.5l0.5-1.6h0.7V45h2.2v0.9h-2.2v4.4c0,0.5,0.1,0.8,0.3,1S72.5,51.7,72.9,51.7z"/>
	<path class="st7" d="M79,43c0-0.3,0.1-0.5,0.2-0.6s0.3-0.2,0.5-0.2c0.2,0,0.3,0.1,0.5,0.2s0.2,0.3,0.2,0.6s-0.1,0.4-0.2,0.6
		s-0.3,0.2-0.5,0.2c-0.2,0-0.4-0.1-0.5-0.2S79,43.2,79,43z M80.2,52.5h-1.1V45h1.1V52.5z"/>
	<path class="st7" d="M87.4,50.4c0,0.7-0.3,1.2-0.8,1.6s-1.2,0.6-2.2,0.6c-1,0-1.8-0.2-2.3-0.5v-1.1c0.4,0.2,0.7,0.3,1.2,0.4
		c0.4,0.1,0.8,0.2,1.2,0.2c0.6,0,1-0.1,1.4-0.3s0.5-0.5,0.5-0.9c0-0.3-0.1-0.5-0.4-0.7c-0.3-0.2-0.7-0.5-1.5-0.7
		c-0.7-0.3-1.2-0.5-1.5-0.7c-0.3-0.2-0.5-0.4-0.7-0.7c-0.1-0.2-0.2-0.5-0.2-0.9c0-0.6,0.2-1.1,0.7-1.4s1.2-0.5,2-0.5
		c0.8,0,1.6,0.2,2.4,0.5l-0.4,0.9c-0.8-0.3-1.4-0.5-2-0.5c-0.5,0-0.9,0.1-1.2,0.3s-0.4,0.4-0.4,0.7c0,0.2,0.1,0.4,0.2,0.5
		c0.1,0.1,0.3,0.3,0.5,0.4s0.7,0.3,1.3,0.6c0.9,0.3,1.5,0.6,1.8,1C87.3,49.5,87.4,49.9,87.4,50.4z"/>
	<path class="st7" d="M97.7,50.4c0,0.7-0.3,1.2-0.8,1.6s-1.2,0.6-2.2,0.6c-1,0-1.8-0.2-2.3-0.5v-1.1c0.4,0.2,0.7,0.3,1.2,0.4
		c0.4,0.1,0.8,0.2,1.2,0.2c0.6,0,1-0.1,1.4-0.3s0.5-0.5,0.5-0.9c0-0.3-0.1-0.5-0.4-0.7c-0.3-0.2-0.7-0.5-1.5-0.7
		c-0.7-0.3-1.2-0.5-1.5-0.7c-0.3-0.2-0.5-0.4-0.7-0.7c-0.1-0.2-0.2-0.5-0.2-0.9c0-0.6,0.2-1.1,0.7-1.4s1.2-0.5,2-0.5
		c0.8,0,1.6,0.2,2.4,0.5l-0.4,0.9c-0.8-0.3-1.4-0.5-2-0.5c-0.5,0-0.9,0.1-1.2,0.3s-0.4,0.4-0.4,0.7c0,0.2,0.1,0.4,0.2,0.5
		c0.1,0.1,0.3,0.3,0.5,0.4s0.7,0.3,1.3,0.6c0.9,0.3,1.5,0.6,1.8,1C97.6,49.5,97.7,49.9,97.7,50.4z"/>
	<path class="st7" d="M100.7,45v4.9c0,0.6,0.1,1.1,0.4,1.4s0.7,0.5,1.3,0.5c0.8,0,1.4-0.2,1.7-0.6c0.4-0.4,0.5-1.1,0.5-2.1V45h1.1
		v7.5h-0.9l-0.2-1h-0.1c-0.2,0.4-0.6,0.7-1,0.8c-0.4,0.2-0.9,0.3-1.4,0.3c-0.9,0-1.6-0.2-2-0.6c-0.5-0.4-0.7-1.1-0.7-2.1V45H100.7z"
		/>
	<path class="st7" d="M111.7,44.9c1,0,1.7,0.3,2.3,1c0.5,0.7,0.8,1.6,0.8,2.9s-0.3,2.2-0.8,2.9c-0.5,0.7-1.3,1-2.3,1
		c-0.5,0-0.9-0.1-1.3-0.3c-0.4-0.2-0.7-0.5-1-0.8h-0.1l-0.2,1h-0.8V41.8h1.1v2.6c0,0.6,0,1.1-0.1,1.6h0.1
		C109.8,45.2,110.6,44.9,111.7,44.9z M111.5,45.8c-0.8,0-1.3,0.2-1.7,0.7s-0.5,1.2-0.5,2.2s0.2,1.8,0.5,2.3s0.9,0.7,1.7,0.7
		c0.7,0,1.2-0.3,1.6-0.8s0.5-1.2,0.5-2.2c0-1-0.2-1.7-0.5-2.2S112.2,45.8,111.5,45.8z"/>
	<path class="st7" d="M115.9,55.8c-0.4,0-0.8-0.1-1.1-0.2v-0.9c0.3,0.1,0.6,0.1,0.9,0.1c0.4,0,0.6-0.1,0.8-0.3
		c0.2-0.2,0.2-0.5,0.2-0.9V45h1.1v8.6C117.9,55.1,117.2,55.8,115.9,55.8z M116.7,43c0-0.3,0.1-0.5,0.2-0.6s0.3-0.2,0.5-0.2
		c0.2,0,0.3,0.1,0.5,0.2s0.2,0.3,0.2,0.6s-0.1,0.4-0.2,0.6s-0.3,0.2-0.5,0.2c-0.2,0-0.4-0.1-0.5-0.2S116.7,43.2,116.7,43z"/>
	<path class="st7" d="M123.5,52.6c-1.1,0-2-0.3-2.6-1c-0.6-0.7-1-1.6-1-2.8c0-1.2,0.3-2.2,0.9-2.9c0.6-0.7,1.4-1.1,2.4-1.1
		c0.9,0,1.7,0.3,2.2,0.9s0.8,1.4,0.8,2.4v0.7h-5.2c0,0.9,0.2,1.5,0.7,2c0.4,0.5,1,0.7,1.8,0.7c0.8,0,1.6-0.2,2.4-0.5v1
		c-0.4,0.2-0.8,0.3-1.1,0.4C124.4,52.6,124,52.6,123.5,52.6z M123.2,45.8c-0.6,0-1.1,0.2-1.4,0.6c-0.4,0.4-0.6,0.9-0.6,1.6h3.9
		c0-0.7-0.2-1.3-0.5-1.6S123.8,45.8,123.2,45.8z"/>
	<path class="st7" d="M131.2,52.6c-1.1,0-1.9-0.3-2.5-1c-0.6-0.7-0.9-1.6-0.9-2.8c0-1.3,0.3-2.2,0.9-2.9c0.6-0.7,1.5-1,2.6-1
		c0.4,0,0.7,0,1.1,0.1s0.6,0.2,0.8,0.3l-0.3,1c-0.3-0.1-0.5-0.2-0.8-0.2s-0.6-0.1-0.8-0.1c-1.5,0-2.3,1-2.3,2.9
		c0,0.9,0.2,1.6,0.6,2.1c0.4,0.5,0.9,0.7,1.7,0.7c0.6,0,1.3-0.1,1.9-0.4v1C132.5,52.5,131.9,52.6,131.2,52.6z"/>
	<path class="st7" d="M137.2,51.7c0.2,0,0.4,0,0.6,0s0.3-0.1,0.4-0.1v0.9c-0.1,0.1-0.3,0.1-0.5,0.1c-0.2,0-0.5,0.1-0.6,0.1
		c-1.4,0-2.2-0.8-2.2-2.3v-4.5h-1.1v-0.5l1.1-0.5l0.5-1.6h0.7V45h2.2v0.9H136v4.4c0,0.5,0.1,0.8,0.3,1S136.9,51.7,137.2,51.7z"/>
	<path class="st7" d="M145.8,51.7c0.2,0,0.4,0,0.6,0s0.3-0.1,0.4-0.1v0.9c-0.1,0.1-0.3,0.1-0.5,0.1c-0.2,0-0.5,0.1-0.6,0.1
		c-1.4,0-2.2-0.8-2.2-2.3v-4.5h-1.1v-0.5l1.1-0.5l0.5-1.6h0.7V45h2.2v0.9h-2.2v4.4c0,0.5,0.1,0.8,0.3,1S145.4,51.7,145.8,51.7z"/>
	<path class="st7" d="M154.8,48.7c0,1.2-0.3,2.2-0.9,2.9s-1.5,1-2.5,1c-0.7,0-1.3-0.2-1.8-0.5s-0.9-0.8-1.2-1.4s-0.4-1.3-0.4-2.1
		c0-1.2,0.3-2.2,0.9-2.9s1.5-1,2.5-1c1,0,1.9,0.3,2.5,1C154.5,46.6,154.8,47.5,154.8,48.7z M149.1,48.7c0,1,0.2,1.7,0.6,2.2
		s0.9,0.8,1.7,0.8s1.3-0.2,1.7-0.7c0.4-0.5,0.6-1.2,0.6-2.2c0-1-0.2-1.7-0.6-2.2c-0.4-0.5-1-0.7-1.7-0.7c-0.7,0-1.3,0.2-1.7,0.7
		S149.1,47.8,149.1,48.7z"/>
	<path class="st7" d="M163.4,52.6c-1.1,0-1.9-0.3-2.5-1c-0.6-0.7-0.9-1.6-0.9-2.8c0-1.3,0.3-2.2,0.9-2.9c0.6-0.7,1.5-1,2.6-1
		c0.4,0,0.7,0,1.1,0.1s0.6,0.2,0.8,0.3l-0.3,1c-0.3-0.1-0.5-0.2-0.8-0.2s-0.6-0.1-0.8-0.1c-1.5,0-2.3,1-2.3,2.9
		c0,0.9,0.2,1.6,0.6,2.1c0.4,0.5,0.9,0.7,1.7,0.7c0.6,0,1.3-0.1,1.9-0.4v1C164.8,52.5,164.2,52.6,163.4,52.6z"/>
	<path class="st7" d="M172.2,52.5v-4.8c0-0.6-0.1-1.1-0.4-1.4s-0.7-0.5-1.3-0.5c-0.8,0-1.4,0.2-1.7,0.6c-0.4,0.4-0.5,1.1-0.5,2.1
		v3.9h-1.1V41.8h1.1v3.2c0,0.4,0,0.7-0.1,1h0.1c0.2-0.4,0.5-0.6,1-0.9c0.4-0.2,0.9-0.3,1.4-0.3c0.9,0,1.6,0.2,2.1,0.7
		c0.5,0.4,0.7,1.1,0.7,2.1v4.9H172.2z"/>
	<path class="st7" d="M180.3,52.5l-0.2-1.1H180c-0.4,0.5-0.7,0.8-1.1,1c-0.4,0.2-0.8,0.2-1.4,0.2c-0.7,0-1.3-0.2-1.7-0.6
		c-0.4-0.4-0.6-0.9-0.6-1.6c0-1.5,1.2-2.3,3.6-2.4l1.3,0v-0.5c0-0.6-0.1-1-0.4-1.3c-0.3-0.3-0.7-0.4-1.2-0.4c-0.6,0-1.3,0.2-2.1,0.6
		l-0.3-0.9c0.4-0.2,0.8-0.4,1.2-0.5c0.4-0.1,0.9-0.2,1.3-0.2c0.9,0,1.6,0.2,2,0.6c0.4,0.4,0.6,1,0.6,1.9v5.1H180.3z M177.7,51.7
		c0.7,0,1.3-0.2,1.7-0.6c0.4-0.4,0.6-0.9,0.6-1.6v-0.7l-1.1,0c-0.9,0-1.6,0.2-2,0.4c-0.4,0.2-0.6,0.6-0.6,1.2c0,0.4,0.1,0.7,0.4,0.9
		C176.9,51.6,177.3,51.7,177.7,51.7z"/>
	<path class="st7" d="M188.6,52.5v-4.8c0-0.6-0.1-1.1-0.4-1.4s-0.7-0.5-1.3-0.5c-0.8,0-1.4,0.2-1.7,0.6s-0.5,1.1-0.5,2.1v3.9h-1.1
		V45h0.9l0.2,1h0.1c0.2-0.4,0.6-0.7,1-0.9s0.9-0.3,1.4-0.3c0.9,0,1.6,0.2,2,0.7s0.7,1.1,0.7,2.1v4.9H188.6z"/>
	<path class="st7" d="M198.2,45v0.7l-1.4,0.2c0.1,0.2,0.2,0.4,0.3,0.6s0.2,0.5,0.2,0.9c0,0.7-0.3,1.3-0.8,1.8s-1.2,0.7-2.1,0.7
		c-0.2,0-0.4,0-0.6-0.1c-0.5,0.3-0.7,0.6-0.7,1c0,0.2,0.1,0.4,0.3,0.5s0.5,0.1,0.9,0.1h1.3c0.8,0,1.4,0.2,1.9,0.5
		c0.4,0.3,0.7,0.8,0.7,1.5c0,0.8-0.3,1.5-1,1.9s-1.6,0.7-2.9,0.7c-1,0-1.7-0.2-2.3-0.5c-0.5-0.4-0.8-0.9-0.8-1.5
		c0-0.5,0.1-0.9,0.4-1.2s0.7-0.6,1.2-0.7c-0.2-0.1-0.4-0.2-0.5-0.4c-0.1-0.2-0.2-0.4-0.2-0.6c0-0.3,0.1-0.5,0.2-0.7s0.4-0.4,0.7-0.6
		c-0.4-0.2-0.7-0.4-0.9-0.8c-0.2-0.4-0.4-0.8-0.4-1.3c0-0.8,0.2-1.5,0.7-1.9s1.2-0.7,2.1-0.7c0.4,0,0.7,0,1.1,0.1H198.2z
		 M192.2,53.7c0,0.4,0.2,0.7,0.5,0.9s0.8,0.3,1.5,0.3c1,0,1.7-0.1,2.1-0.4c0.5-0.3,0.7-0.7,0.7-1.2c0-0.4-0.1-0.7-0.4-0.8
		s-0.7-0.2-1.4-0.2h-1.4c-0.5,0-0.9,0.1-1.2,0.4S192.2,53.3,192.2,53.7z M192.8,47.4c0,0.5,0.1,0.9,0.4,1.2s0.7,0.4,1.2,0.4
		c1.1,0,1.7-0.5,1.7-1.6c0-1.1-0.6-1.7-1.7-1.7c-0.5,0-0.9,0.1-1.2,0.4S192.8,46.8,192.8,47.4z"/>
	<path class="st7" d="M202.9,52.6c-1.1,0-2-0.3-2.6-1c-0.6-0.7-1-1.6-1-2.8c0-1.2,0.3-2.2,0.9-2.9c0.6-0.7,1.4-1.1,2.4-1.1
		c0.9,0,1.7,0.3,2.2,0.9s0.8,1.4,0.8,2.4v0.7h-5.2c0,0.9,0.2,1.5,0.7,2c0.4,0.5,1,0.7,1.8,0.7c0.8,0,1.6-0.2,2.4-0.5v1
		c-0.4,0.2-0.8,0.3-1.1,0.4C203.8,52.6,203.4,52.6,202.9,52.6z M202.6,45.8c-0.6,0-1.1,0.2-1.4,0.6c-0.4,0.4-0.6,0.9-0.6,1.6h3.9
		c0-0.7-0.2-1.3-0.5-1.6S203.2,45.8,202.6,45.8z"/>
	<path class="st7" d="M215.8,52.5l-0.2-1.1h-0.1c-0.4,0.5-0.7,0.8-1.1,1c-0.4,0.2-0.8,0.2-1.4,0.2c-0.7,0-1.3-0.2-1.7-0.6
		c-0.4-0.4-0.6-0.9-0.6-1.6c0-1.5,1.2-2.3,3.6-2.4l1.3,0v-0.5c0-0.6-0.1-1-0.4-1.3c-0.3-0.3-0.7-0.4-1.2-0.4c-0.6,0-1.3,0.2-2.1,0.6
		l-0.3-0.9c0.4-0.2,0.8-0.4,1.2-0.5c0.4-0.1,0.9-0.2,1.3-0.2c0.9,0,1.6,0.2,2,0.6c0.4,0.4,0.6,1,0.6,1.9v5.1H215.8z M213.3,51.7
		c0.7,0,1.3-0.2,1.7-0.6c0.4-0.4,0.6-0.9,0.6-1.6v-0.7l-1.1,0c-0.9,0-1.6,0.2-2,0.4c-0.4,0.2-0.6,0.6-0.6,1.2c0,0.4,0.1,0.7,0.4,0.9
		C212.5,51.6,212.8,51.7,213.3,51.7z"/>
	<path class="st7" d="M224.1,52.5v-4.8c0-0.6-0.1-1.1-0.4-1.4s-0.7-0.5-1.3-0.5c-0.8,0-1.4,0.2-1.7,0.6s-0.5,1.1-0.5,2.1v3.9H219V45
		h0.9l0.2,1h0.1c0.2-0.4,0.6-0.7,1-0.9s0.9-0.3,1.4-0.3c0.9,0,1.6,0.2,2,0.7s0.7,1.1,0.7,2.1v4.9H224.1z"/>
	<path class="st7" d="M232.7,51.5L232.7,51.5c-0.6,0.8-1.4,1.1-2.4,1.1c-1,0-1.7-0.3-2.3-1c-0.5-0.7-0.8-1.6-0.8-2.9
		s0.3-2.2,0.8-2.9s1.3-1,2.3-1c1,0,1.8,0.4,2.3,1.1h0.1l0-0.5l0-0.5v-3h1.1v10.6h-0.9L232.7,51.5z M230.4,51.7
		c0.8,0,1.3-0.2,1.7-0.6c0.3-0.4,0.5-1.1,0.5-2v-0.2c0-1.1-0.2-1.8-0.5-2.3c-0.4-0.5-0.9-0.7-1.7-0.7c-0.7,0-1.2,0.3-1.5,0.8
		c-0.4,0.5-0.5,1.2-0.5,2.2c0,1,0.2,1.7,0.5,2.2S229.8,51.7,230.4,51.7z"/>
	<path class="st7" d="M245,52.5v-4.8c0-0.6-0.1-1.1-0.4-1.4s-0.7-0.5-1.3-0.5c-0.8,0-1.4,0.2-1.7,0.6c-0.4,0.4-0.5,1.1-0.5,2.1v3.9
		h-1.1V41.8h1.1v3.2c0,0.4,0,0.7-0.1,1h0.1c0.2-0.4,0.5-0.6,1-0.9c0.4-0.2,0.9-0.3,1.4-0.3c0.9,0,1.6,0.2,2.1,0.7
		c0.5,0.4,0.7,1.1,0.7,2.1v4.9H245z"/>
	<path class="st7" d="M253,52.5l-0.2-1.1h-0.1c-0.4,0.5-0.7,0.8-1.1,1c-0.4,0.2-0.8,0.2-1.4,0.2c-0.7,0-1.3-0.2-1.7-0.6
		c-0.4-0.4-0.6-0.9-0.6-1.6c0-1.5,1.2-2.3,3.6-2.4l1.3,0v-0.5c0-0.6-0.1-1-0.4-1.3c-0.3-0.3-0.7-0.4-1.2-0.4c-0.6,0-1.3,0.2-2.1,0.6
		l-0.3-0.9c0.4-0.2,0.8-0.4,1.2-0.5c0.4-0.1,0.9-0.2,1.3-0.2c0.9,0,1.6,0.2,2,0.6c0.4,0.4,0.6,1,0.6,1.9v5.1H253z M250.5,51.7
		c0.7,0,1.3-0.2,1.7-0.6c0.4-0.4,0.6-0.9,0.6-1.6v-0.7l-1.1,0c-0.9,0-1.6,0.2-2,0.4c-0.4,0.2-0.6,0.6-0.6,1.2c0,0.4,0.1,0.7,0.4,0.9
		C249.7,51.6,250,51.7,250.5,51.7z"/>
	<path class="st7" d="M261,50.4c0,0.7-0.3,1.2-0.8,1.6s-1.2,0.6-2.2,0.6c-1,0-1.8-0.2-2.3-0.5v-1.1c0.4,0.2,0.7,0.3,1.2,0.4
		c0.4,0.1,0.8,0.2,1.2,0.2c0.6,0,1-0.1,1.4-0.3s0.5-0.5,0.5-0.9c0-0.3-0.1-0.5-0.4-0.7c-0.3-0.2-0.7-0.5-1.5-0.7
		c-0.7-0.3-1.2-0.5-1.5-0.7c-0.3-0.2-0.5-0.4-0.7-0.7c-0.1-0.2-0.2-0.5-0.2-0.9c0-0.6,0.2-1.1,0.7-1.4s1.2-0.5,2-0.5
		c0.8,0,1.6,0.2,2.4,0.5l-0.4,0.9c-0.8-0.3-1.4-0.5-2-0.5c-0.5,0-0.9,0.1-1.2,0.3s-0.4,0.4-0.4,0.7c0,0.2,0.1,0.4,0.2,0.5
		c0.1,0.1,0.3,0.3,0.5,0.4c0.2,0.1,0.7,0.3,1.3,0.6c0.9,0.3,1.5,0.6,1.8,1C260.9,49.5,261,49.9,261,50.4z"/>
	<path class="st7" d="M271.6,52.5v-4.8c0-0.6-0.1-1.1-0.4-1.4s-0.7-0.5-1.3-0.5c-0.8,0-1.4,0.2-1.7,0.6s-0.5,1.1-0.5,2.1v3.9h-1.1
		V45h0.9l0.2,1h0.1c0.2-0.4,0.6-0.7,1-0.9s0.9-0.3,1.4-0.3c0.9,0,1.6,0.2,2,0.7s0.7,1.1,0.7,2.1v4.9H271.6z"/>
	<path class="st7" d="M281.6,48.7c0,1.2-0.3,2.2-0.9,2.9s-1.5,1-2.5,1c-0.7,0-1.3-0.2-1.8-0.5s-0.9-0.8-1.2-1.4s-0.4-1.3-0.4-2.1
		c0-1.2,0.3-2.2,0.9-2.9s1.5-1,2.5-1c1,0,1.9,0.3,2.5,1C281.3,46.6,281.6,47.5,281.6,48.7z M275.9,48.7c0,1,0.2,1.7,0.6,2.2
		s0.9,0.8,1.7,0.8s1.3-0.2,1.7-0.7c0.4-0.5,0.6-1.2,0.6-2.2c0-1-0.2-1.7-0.6-2.2c-0.4-0.5-1-0.7-1.7-0.7c-0.7,0-1.3,0.2-1.7,0.7
		S275.9,47.8,275.9,48.7z"/>
	<path class="st7" d="M286,51.7c0.2,0,0.4,0,0.6,0s0.3-0.1,0.4-0.1v0.9c-0.1,0.1-0.3,0.1-0.5,0.1c-0.2,0-0.5,0.1-0.6,0.1
		c-1.4,0-2.2-0.8-2.2-2.3v-4.5h-1.1v-0.5l1.1-0.5l0.5-1.6h0.7V45h2.2v0.9h-2.2v4.4c0,0.5,0.1,0.8,0.3,1S285.6,51.7,286,51.7z"/>
	<path class="st7" d="M295.6,44.9c1,0,1.7,0.3,2.3,1c0.5,0.7,0.8,1.6,0.8,2.9s-0.3,2.2-0.8,2.9c-0.5,0.7-1.3,1-2.3,1
		c-0.5,0-0.9-0.1-1.3-0.3c-0.4-0.2-0.7-0.5-1-0.8h-0.1l-0.2,1h-0.8V41.8h1.1v2.6c0,0.6,0,1.1-0.1,1.6h0.1
		C293.8,45.2,294.6,44.9,295.6,44.9z M295.5,45.8c-0.8,0-1.3,0.2-1.7,0.7s-0.5,1.2-0.5,2.2s0.2,1.8,0.5,2.3s0.9,0.7,1.7,0.7
		c0.7,0,1.2-0.3,1.6-0.8s0.5-1.2,0.5-2.2c0-1-0.2-1.7-0.5-2.2S296.2,45.8,295.5,45.8z"/>
	<path class="st7" d="M303.9,52.6c-1.1,0-2-0.3-2.6-1c-0.6-0.7-1-1.6-1-2.8c0-1.2,0.3-2.2,0.9-2.9c0.6-0.7,1.4-1.1,2.4-1.1
		c0.9,0,1.7,0.3,2.2,0.9s0.8,1.4,0.8,2.4v0.7h-5.2c0,0.9,0.2,1.5,0.7,2c0.4,0.5,1,0.7,1.8,0.7c0.8,0,1.6-0.2,2.4-0.5v1
		c-0.4,0.2-0.8,0.3-1.1,0.4C304.8,52.6,304.4,52.6,303.9,52.6z M303.6,45.8c-0.6,0-1.1,0.2-1.4,0.6c-0.4,0.4-0.6,0.9-0.6,1.6h3.9
		c0-0.7-0.2-1.3-0.5-1.6S304.2,45.8,303.6,45.8z"/>
	<path class="st7" d="M311.7,52.6c-1.1,0-2-0.3-2.6-1c-0.6-0.7-1-1.6-1-2.8c0-1.2,0.3-2.2,0.9-2.9c0.6-0.7,1.4-1.1,2.4-1.1
		c0.9,0,1.7,0.3,2.2,0.9s0.8,1.4,0.8,2.4v0.7h-5.2c0,0.9,0.2,1.5,0.7,2c0.4,0.5,1,0.7,1.8,0.7c0.8,0,1.6-0.2,2.4-0.5v1
		c-0.4,0.2-0.8,0.3-1.1,0.4C312.7,52.6,312.3,52.6,311.7,52.6z M311.4,45.8c-0.6,0-1.1,0.2-1.4,0.6c-0.4,0.4-0.6,0.9-0.6,1.6h3.9
		c0-0.7-0.2-1.3-0.5-1.6S312,45.8,311.4,45.8z"/>
	<path class="st7" d="M321.6,52.5v-4.8c0-0.6-0.1-1.1-0.4-1.4s-0.7-0.5-1.3-0.5c-0.8,0-1.4,0.2-1.7,0.6s-0.5,1.1-0.5,2.1v3.9h-1.1
		V45h0.9l0.2,1h0.1c0.2-0.4,0.6-0.7,1-0.9s0.9-0.3,1.4-0.3c0.9,0,1.6,0.2,2,0.7s0.7,1.1,0.7,2.1v4.9H321.6z"/>
	<path class="st7" d="M331.8,52.6c-1.1,0-2-0.3-2.6-1c-0.6-0.7-1-1.6-1-2.8c0-1.2,0.3-2.2,0.9-2.9c0.6-0.7,1.4-1.1,2.4-1.1
		c0.9,0,1.7,0.3,2.2,0.9s0.8,1.4,0.8,2.4v0.7h-5.2c0,0.9,0.2,1.5,0.7,2c0.4,0.5,1,0.7,1.8,0.7c0.8,0,1.6-0.2,2.4-0.5v1
		c-0.4,0.2-0.8,0.3-1.1,0.4C332.8,52.6,332.3,52.6,331.8,52.6z M331.5,45.8c-0.6,0-1.1,0.2-1.4,0.6c-0.4,0.4-0.6,0.9-0.6,1.6h3.9
		c0-0.7-0.2-1.3-0.5-1.6S332.1,45.8,331.5,45.8z"/>
	<path class="st7" d="M338.3,48.6l-2.6-3.7h1.3l2,2.9l2-2.9h1.3l-2.6,3.7l2.7,3.8h-1.3l-2.1-3l-2.1,3h-1.3L338.3,48.6z"/>
	<path class="st7" d="M346.3,51.7c0.2,0,0.4,0,0.6,0s0.3-0.1,0.4-0.1v0.9c-0.1,0.1-0.3,0.1-0.5,0.1c-0.2,0-0.5,0.1-0.6,0.1
		c-1.4,0-2.2-0.8-2.2-2.3v-4.5h-1.1v-0.5l1.1-0.5l0.5-1.6h0.7V45h2.2v0.9h-2.2v4.4c0,0.5,0.1,0.8,0.3,1S345.9,51.7,346.3,51.7z"/>
	<path class="st7" d="M352,52.6c-1.1,0-2-0.3-2.6-1c-0.6-0.7-1-1.6-1-2.8c0-1.2,0.3-2.2,0.9-2.9c0.6-0.7,1.4-1.1,2.4-1.1
		c0.9,0,1.7,0.3,2.2,0.9s0.8,1.4,0.8,2.4v0.7h-5.2c0,0.9,0.2,1.5,0.7,2c0.4,0.5,1,0.7,1.8,0.7c0.8,0,1.6-0.2,2.4-0.5v1
		c-0.4,0.2-0.8,0.3-1.1,0.4C352.9,52.6,352.5,52.6,352,52.6z M351.7,45.8c-0.6,0-1.1,0.2-1.4,0.6c-0.4,0.4-0.6,0.9-0.6,1.6h3.9
		c0-0.7-0.2-1.3-0.5-1.6S352.3,45.8,351.7,45.8z"/>
	<path class="st7" d="M361.8,52.5v-4.8c0-0.6-0.1-1.1-0.4-1.4s-0.7-0.5-1.3-0.5c-0.8,0-1.4,0.2-1.7,0.6s-0.5,1.1-0.5,2.1v3.9h-1.1
		V45h0.9l0.2,1h0.1c0.2-0.4,0.6-0.7,1-0.9s0.9-0.3,1.4-0.3c0.9,0,1.6,0.2,2,0.7s0.7,1.1,0.7,2.1v4.9H361.8z"/>
	<path class="st7" d="M370.1,50.4c0,0.7-0.3,1.2-0.8,1.6s-1.2,0.6-2.2,0.6c-1,0-1.8-0.2-2.3-0.5v-1.1c0.4,0.2,0.7,0.3,1.2,0.4
		c0.4,0.1,0.8,0.2,1.2,0.2c0.6,0,1-0.1,1.4-0.3s0.5-0.5,0.5-0.9c0-0.3-0.1-0.5-0.4-0.7c-0.3-0.2-0.7-0.5-1.5-0.7
		c-0.7-0.3-1.2-0.5-1.5-0.7c-0.3-0.2-0.5-0.4-0.7-0.7c-0.1-0.2-0.2-0.5-0.2-0.9c0-0.6,0.2-1.1,0.7-1.4s1.2-0.5,2-0.5
		c0.8,0,1.6,0.2,2.4,0.5l-0.4,0.9c-0.8-0.3-1.4-0.5-2-0.5c-0.5,0-0.9,0.1-1.2,0.3s-0.4,0.4-0.4,0.7c0,0.2,0.1,0.4,0.2,0.5
		c0.1,0.1,0.3,0.3,0.5,0.4s0.7,0.3,1.3,0.6c0.9,0.3,1.5,0.6,1.8,1C369.9,49.5,370.1,49.9,370.1,50.4z"/>
	<path class="st7" d="M371.8,43c0-0.3,0.1-0.5,0.2-0.6s0.3-0.2,0.5-0.2c0.2,0,0.3,0.1,0.5,0.2s0.2,0.3,0.2,0.6s-0.1,0.4-0.2,0.6
		s-0.3,0.2-0.5,0.2c-0.2,0-0.4-0.1-0.5-0.2S371.8,43.2,371.8,43z M373.1,52.5h-1.1V45h1.1V52.5z"/>
	<path class="st7" d="M377.1,52.5l-2.8-7.5h1.2l1.6,4.4c0.4,1,0.6,1.7,0.6,2h0.1c0-0.2,0.2-0.7,0.5-1.5c0.3-0.8,0.9-2.4,1.8-5h1.2
		l-2.8,7.5H377.1z"/>
	<path class="st7" d="M385.6,52.6c-1.1,0-2-0.3-2.6-1c-0.6-0.7-1-1.6-1-2.8c0-1.2,0.3-2.2,0.9-2.9c0.6-0.7,1.4-1.1,2.4-1.1
		c0.9,0,1.7,0.3,2.2,0.9s0.8,1.4,0.8,2.4v0.7h-5.2c0,0.9,0.2,1.5,0.7,2c0.4,0.5,1,0.7,1.8,0.7c0.8,0,1.6-0.2,2.4-0.5v1
		c-0.4,0.2-0.8,0.3-1.1,0.4C386.6,52.6,386.2,52.6,385.6,52.6z M385.3,45.8c-0.6,0-1.1,0.2-1.4,0.6c-0.4,0.4-0.6,0.9-0.6,1.6h3.9
		c0-0.7-0.2-1.3-0.5-1.6S385.9,45.8,385.3,45.8z"/>
	<path class="st7" d="M391.5,52.5h-1.1V41.8h1.1V52.5z"/>
	<path class="st7" d="M392.7,45h1.2l1.6,4.3c0.4,1,0.6,1.7,0.7,2.1h0.1c0.1-0.2,0.2-0.6,0.4-1.2c0.2-0.6,0.8-2.3,1.9-5.2h1.2
		l-3.2,8.5c-0.3,0.8-0.7,1.4-1.1,1.8c-0.4,0.4-0.9,0.5-1.6,0.5c-0.3,0-0.7,0-1-0.1v-0.9c0.3,0.1,0.5,0.1,0.8,0.1
		c0.8,0,1.3-0.4,1.7-1.3l0.4-1.1L392.7,45z"/>
	<path class="st7" d="M407,51.7c0.2,0,0.4,0,0.6,0s0.3-0.1,0.4-0.1v0.9c-0.1,0.1-0.3,0.1-0.5,0.1c-0.2,0-0.5,0.1-0.6,0.1
		c-1.4,0-2.2-0.8-2.2-2.3v-4.5h-1.1v-0.5l1.1-0.5l0.5-1.6h0.7V45h2.2v0.9h-2.2v4.4c0,0.5,0.1,0.8,0.3,1S406.6,51.7,407,51.7z"/>
	<path class="st7" d="M412.7,52.6c-1.1,0-2-0.3-2.6-1c-0.6-0.7-1-1.6-1-2.8c0-1.2,0.3-2.2,0.9-2.9c0.6-0.7,1.4-1.1,2.4-1.1
		c0.9,0,1.7,0.3,2.2,0.9s0.8,1.4,0.8,2.4v0.7h-5.2c0,0.9,0.2,1.5,0.7,2c0.4,0.5,1,0.7,1.8,0.7c0.8,0,1.6-0.2,2.4-0.5v1
		c-0.4,0.2-0.8,0.3-1.1,0.4C413.6,52.6,413.2,52.6,412.7,52.6z M412.4,45.8c-0.6,0-1.1,0.2-1.4,0.6c-0.4,0.4-0.6,0.9-0.6,1.6h3.9
		c0-0.7-0.2-1.3-0.5-1.6S413,45.8,412.4,45.8z"/>
	<path class="st7" d="M422.2,50.4c0,0.7-0.3,1.2-0.8,1.6s-1.2,0.6-2.2,0.6c-1,0-1.8-0.2-2.3-0.5v-1.1c0.4,0.2,0.7,0.3,1.2,0.4
		c0.4,0.1,0.8,0.2,1.2,0.2c0.6,0,1-0.1,1.4-0.3s0.5-0.5,0.5-0.9c0-0.3-0.1-0.5-0.4-0.7c-0.3-0.2-0.7-0.5-1.5-0.7
		c-0.7-0.3-1.2-0.5-1.5-0.7c-0.3-0.2-0.5-0.4-0.7-0.7c-0.1-0.2-0.2-0.5-0.2-0.9c0-0.6,0.2-1.1,0.7-1.4s1.2-0.5,2-0.5
		c0.8,0,1.6,0.2,2.4,0.5l-0.4,0.9c-0.8-0.3-1.4-0.5-2-0.5c-0.5,0-0.9,0.1-1.2,0.3s-0.4,0.4-0.4,0.7c0,0.2,0.1,0.4,0.2,0.5
		c0.1,0.1,0.3,0.3,0.5,0.4s0.7,0.3,1.3,0.6c0.9,0.3,1.5,0.6,1.8,1C422,49.5,422.2,49.9,422.2,50.4z"/>
	<path class="st7" d="M426.5,51.7c0.2,0,0.4,0,0.6,0s0.3-0.1,0.4-0.1v0.9c-0.1,0.1-0.3,0.1-0.5,0.1c-0.2,0-0.5,0.1-0.6,0.1
		c-1.4,0-2.2-0.8-2.2-2.3v-4.5h-1.1v-0.5l1.1-0.5l0.5-1.6h0.7V45h2.2v0.9h-2.2v4.4c0,0.5,0.1,0.8,0.3,1S426.1,51.7,426.5,51.7z"/>
	<path class="st7" d="M432.2,52.6c-1.1,0-2-0.3-2.6-1c-0.6-0.7-1-1.6-1-2.8c0-1.2,0.3-2.2,0.9-2.9c0.6-0.7,1.4-1.1,2.4-1.1
		c0.9,0,1.7,0.3,2.2,0.9s0.8,1.4,0.8,2.4v0.7h-5.2c0,0.9,0.2,1.5,0.7,2c0.4,0.5,1,0.7,1.8,0.7c0.8,0,1.6-0.2,2.4-0.5v1
		c-0.4,0.2-0.8,0.3-1.1,0.4C433.1,52.6,432.7,52.6,432.2,52.6z M431.8,45.8c-0.6,0-1.1,0.2-1.4,0.6c-0.4,0.4-0.6,0.9-0.6,1.6h3.9
		c0-0.7-0.2-1.3-0.5-1.6S432.4,45.8,431.8,45.8z"/>
	<path class="st7" d="M441.9,51.5L441.9,51.5c-0.6,0.8-1.4,1.1-2.4,1.1c-1,0-1.7-0.3-2.3-1c-0.5-0.7-0.8-1.6-0.8-2.9
		s0.3-2.2,0.8-2.9s1.3-1,2.3-1c1,0,1.8,0.4,2.3,1.1h0.1l0-0.5l0-0.5v-3h1.1v10.6h-0.9L441.9,51.5z M439.7,51.7
		c0.8,0,1.3-0.2,1.7-0.6c0.3-0.4,0.5-1.1,0.5-2v-0.2c0-1.1-0.2-1.8-0.5-2.3c-0.4-0.5-0.9-0.7-1.7-0.7c-0.7,0-1.2,0.3-1.5,0.8
		c-0.4,0.5-0.5,1.2-0.5,2.2c0,1,0.2,1.7,0.5,2.2S439,51.7,439.7,51.7z"/>
	<path class="st7" d="M445.3,51.8c0-0.3,0.1-0.5,0.2-0.7c0.1-0.2,0.3-0.2,0.6-0.2c0.3,0,0.5,0.1,0.6,0.2c0.1,0.2,0.2,0.4,0.2,0.7
		c0,0.3-0.1,0.5-0.2,0.7s-0.4,0.2-0.6,0.2c-0.2,0-0.4-0.1-0.6-0.2C445.3,52.3,445.3,52.1,445.3,51.8z"/>
</g>
<g>
	<path class="st7" d="M69.8,75.6h-1.2v-9h-3.2v-1H73v1h-3.2V75.6z"/>
	<path class="st7" d="M79.4,75.6v-4.8c0-0.6-0.1-1.1-0.4-1.4c-0.3-0.3-0.7-0.5-1.3-0.5c-0.8,0-1.4,0.2-1.7,0.6s-0.5,1.1-0.5,2.1v3.9
		h-1.1V64.9h1.1v3.2c0,0.4,0,0.7-0.1,1h0.1c0.2-0.4,0.5-0.6,1-0.9c0.4-0.2,0.9-0.3,1.4-0.3c0.9,0,1.6,0.2,2.1,0.7s0.7,1.1,0.7,2.1
		v4.9H79.4z"/>
	<path class="st7" d="M82.8,66c0-0.3,0.1-0.5,0.2-0.6c0.1-0.1,0.3-0.2,0.5-0.2c0.2,0,0.3,0.1,0.5,0.2c0.1,0.1,0.2,0.3,0.2,0.6
		s-0.1,0.4-0.2,0.6c-0.1,0.1-0.3,0.2-0.5,0.2c-0.2,0-0.4-0.1-0.5-0.2C82.9,66.5,82.8,66.3,82.8,66z M84,75.6h-1.1v-7.5H84V75.6z"/>
	<path class="st7" d="M91.3,73.5c0,0.7-0.3,1.2-0.8,1.6s-1.2,0.6-2.2,0.6c-1,0-1.8-0.2-2.3-0.5v-1.1c0.4,0.2,0.7,0.3,1.2,0.4
		c0.4,0.1,0.8,0.2,1.2,0.2c0.6,0,1-0.1,1.4-0.3c0.3-0.2,0.5-0.5,0.5-0.9c0-0.3-0.1-0.5-0.4-0.7s-0.7-0.5-1.5-0.7
		c-0.7-0.3-1.2-0.5-1.5-0.7s-0.5-0.4-0.7-0.7S86,70.2,86,69.9c0-0.6,0.2-1.1,0.7-1.4c0.5-0.4,1.2-0.5,2-0.5c0.8,0,1.6,0.2,2.4,0.5
		l-0.4,0.9c-0.8-0.3-1.4-0.5-2-0.5c-0.5,0-0.9,0.1-1.2,0.3s-0.4,0.4-0.4,0.7c0,0.2,0.1,0.4,0.2,0.5s0.3,0.3,0.5,0.4
		c0.2,0.1,0.7,0.3,1.3,0.6c0.9,0.3,1.5,0.6,1.8,1C91.1,72.6,91.3,73,91.3,73.5z"/>
	<path class="st7" d="M101.4,75.6L98,66.7h-0.1c0.1,0.7,0.1,1.5,0.1,2.5v6.4h-1.1v-10h1.8l3.2,8.2h0.1l3.2-8.2h1.7v10h-1.2v-6.4
		c0-0.7,0-1.5,0.1-2.4h-0.1l-3.4,8.8H101.4z"/>
	<path class="st7" d="M114,75.6l-0.2-1.1h-0.1c-0.4,0.5-0.7,0.8-1.1,1c-0.4,0.2-0.8,0.2-1.4,0.2c-0.7,0-1.3-0.2-1.7-0.6
		c-0.4-0.4-0.6-0.9-0.6-1.6c0-1.5,1.2-2.3,3.6-2.4l1.3,0v-0.5c0-0.6-0.1-1-0.4-1.3s-0.7-0.4-1.2-0.4c-0.6,0-1.3,0.2-2.1,0.6
		l-0.3-0.9c0.4-0.2,0.8-0.4,1.2-0.5c0.4-0.1,0.9-0.2,1.3-0.2c0.9,0,1.6,0.2,2,0.6s0.6,1,0.6,1.9v5.1H114z M111.4,74.8
		c0.7,0,1.3-0.2,1.7-0.6s0.6-0.9,0.6-1.6v-0.7l-1.1,0c-0.9,0-1.6,0.2-2,0.4c-0.4,0.2-0.6,0.6-0.6,1.2c0,0.4,0.1,0.7,0.4,0.9
		C110.7,74.6,111,74.8,111.4,74.8z"/>
	<path class="st7" d="M122.3,75.6v-4.8c0-0.6-0.1-1.1-0.4-1.4c-0.3-0.3-0.7-0.5-1.3-0.5c-0.8,0-1.4,0.2-1.7,0.6
		c-0.4,0.4-0.5,1.1-0.5,2.1v3.9h-1.1v-7.5h0.9l0.2,1h0.1c0.2-0.4,0.6-0.7,1-0.9c0.4-0.2,0.9-0.3,1.4-0.3c0.9,0,1.6,0.2,2,0.7
		c0.5,0.4,0.7,1.1,0.7,2.1v4.9H122.3z"/>
	<path class="st7" d="M130.4,75.6l-0.2-1.1h-0.1c-0.4,0.5-0.7,0.8-1.1,1c-0.4,0.2-0.8,0.2-1.4,0.2c-0.7,0-1.3-0.2-1.7-0.6
		c-0.4-0.4-0.6-0.9-0.6-1.6c0-1.5,1.2-2.3,3.6-2.4l1.3,0v-0.5c0-0.6-0.1-1-0.4-1.3s-0.7-0.4-1.2-0.4c-0.6,0-1.3,0.2-2.1,0.6
		l-0.3-0.9c0.4-0.2,0.8-0.4,1.2-0.5c0.4-0.1,0.9-0.2,1.3-0.2c0.9,0,1.6,0.2,2,0.6s0.6,1,0.6,1.9v5.1H130.4z M127.8,74.8
		c0.7,0,1.3-0.2,1.7-0.6s0.6-0.9,0.6-1.6v-0.7l-1.1,0c-0.9,0-1.6,0.2-2,0.4c-0.4,0.2-0.6,0.6-0.6,1.2c0,0.4,0.1,0.7,0.4,0.9
		C127,74.6,127.4,74.8,127.8,74.8z"/>
	<path class="st7" d="M139.7,68.1v0.7l-1.4,0.2c0.1,0.2,0.2,0.4,0.3,0.6c0.1,0.3,0.2,0.5,0.2,0.9c0,0.7-0.2,1.3-0.8,1.8
		c-0.5,0.4-1.2,0.7-2.1,0.7c-0.2,0-0.4,0-0.6-0.1c-0.5,0.3-0.7,0.6-0.7,1c0,0.2,0.1,0.4,0.3,0.5c0.2,0.1,0.5,0.1,0.9,0.1h1.3
		c0.8,0,1.4,0.2,1.9,0.5c0.4,0.3,0.7,0.8,0.7,1.5c0,0.8-0.3,1.5-1,1.9c-0.7,0.4-1.6,0.7-2.9,0.7c-1,0-1.7-0.2-2.3-0.5
		c-0.5-0.4-0.8-0.9-0.8-1.5c0-0.5,0.1-0.9,0.4-1.2c0.3-0.3,0.7-0.6,1.2-0.7c-0.2-0.1-0.4-0.2-0.5-0.4s-0.2-0.4-0.2-0.6
		c0-0.3,0.1-0.5,0.2-0.7c0.1-0.2,0.4-0.4,0.7-0.6c-0.4-0.2-0.7-0.4-0.9-0.8c-0.2-0.4-0.4-0.8-0.4-1.3c0-0.8,0.2-1.5,0.7-1.9
		s1.2-0.7,2.1-0.7c0.4,0,0.7,0,1.1,0.1H139.7z M133.7,76.8c0,0.4,0.2,0.7,0.5,0.9s0.8,0.3,1.5,0.3c1,0,1.7-0.1,2.1-0.4
		s0.7-0.7,0.7-1.2c0-0.4-0.1-0.7-0.4-0.8c-0.2-0.2-0.7-0.2-1.4-0.2h-1.4c-0.5,0-0.9,0.1-1.2,0.4S133.7,76.3,133.7,76.8z M134.3,70.5
		c0,0.5,0.1,0.9,0.4,1.2c0.3,0.3,0.7,0.4,1.2,0.4c1.1,0,1.7-0.5,1.7-1.6c0-1.1-0.6-1.7-1.7-1.7c-0.5,0-0.9,0.1-1.2,0.4
		S134.3,69.9,134.3,70.5z"/>
	<path class="st7" d="M144.4,75.7c-1.1,0-2-0.3-2.6-1c-0.6-0.7-1-1.6-1-2.8c0-1.2,0.3-2.2,0.9-2.9s1.4-1.1,2.4-1.1
		c0.9,0,1.7,0.3,2.2,0.9s0.8,1.4,0.8,2.4V72H142c0,0.9,0.2,1.5,0.7,2c0.4,0.5,1,0.7,1.8,0.7c0.8,0,1.6-0.2,2.4-0.5v1
		c-0.4,0.2-0.8,0.3-1.1,0.4C145.3,75.6,144.9,75.7,144.4,75.7z M144.1,68.9c-0.6,0-1.1,0.2-1.4,0.6c-0.4,0.4-0.6,0.9-0.6,1.6h3.9
		c0-0.7-0.2-1.3-0.5-1.6C145.1,69.1,144.7,68.9,144.1,68.9z"/>
	<path class="st7" d="M152.5,67.9c0.3,0,0.6,0,0.9,0.1l-0.2,1.1c-0.3-0.1-0.6-0.1-0.8-0.1c-0.6,0-1.1,0.2-1.6,0.7s-0.6,1.1-0.6,1.8
		v4h-1.1v-7.5h0.9l0.1,1.4h0.1c0.3-0.5,0.6-0.9,1-1.1C151.6,68.1,152,67.9,152.5,67.9z"/>
	<path class="st7" d="M158.4,66c0-0.3,0.1-0.5,0.2-0.6c0.1-0.1,0.3-0.2,0.5-0.2c0.2,0,0.3,0.1,0.5,0.2c0.1,0.1,0.2,0.3,0.2,0.6
		s-0.1,0.4-0.2,0.6c-0.1,0.1-0.3,0.2-0.5,0.2c-0.2,0-0.4-0.1-0.5-0.2C158.4,66.5,158.4,66.3,158.4,66z M159.6,75.6h-1.1v-7.5h1.1
		V75.6z"/>
	<path class="st7" d="M166.8,73.5c0,0.7-0.3,1.2-0.8,1.6s-1.2,0.6-2.2,0.6c-1,0-1.8-0.2-2.3-0.5v-1.1c0.4,0.2,0.7,0.3,1.2,0.4
		c0.4,0.1,0.8,0.2,1.2,0.2c0.6,0,1-0.1,1.4-0.3c0.3-0.2,0.5-0.5,0.5-0.9c0-0.3-0.1-0.5-0.4-0.7s-0.7-0.5-1.5-0.7
		c-0.7-0.3-1.2-0.5-1.5-0.7s-0.5-0.4-0.7-0.7s-0.2-0.5-0.2-0.9c0-0.6,0.2-1.1,0.7-1.4c0.5-0.4,1.2-0.5,2-0.5c0.8,0,1.6,0.2,2.4,0.5
		l-0.4,0.9c-0.8-0.3-1.4-0.5-2-0.5c-0.5,0-0.9,0.1-1.2,0.3s-0.4,0.4-0.4,0.7c0,0.2,0.1,0.4,0.2,0.5s0.3,0.3,0.5,0.4
		c0.2,0.1,0.7,0.3,1.3,0.6c0.9,0.3,1.5,0.6,1.8,1C166.7,72.6,166.8,73,166.8,73.5z"/>
	<path class="st7" d="M176.9,75.6l-0.2-1.1h-0.1c-0.4,0.5-0.7,0.8-1.1,1c-0.4,0.2-0.8,0.2-1.4,0.2c-0.7,0-1.3-0.2-1.7-0.6
		c-0.4-0.4-0.6-0.9-0.6-1.6c0-1.5,1.2-2.3,3.6-2.4l1.3,0v-0.5c0-0.6-0.1-1-0.4-1.3s-0.7-0.4-1.2-0.4c-0.6,0-1.3,0.2-2.1,0.6
		l-0.3-0.9c0.4-0.2,0.8-0.4,1.2-0.5c0.4-0.1,0.9-0.2,1.3-0.2c0.9,0,1.6,0.2,2,0.6s0.6,1,0.6,1.9v5.1H176.9z M174.3,74.8
		c0.7,0,1.3-0.2,1.7-0.6s0.6-0.9,0.6-1.6v-0.7l-1.1,0c-0.9,0-1.6,0.2-2,0.4c-0.4,0.2-0.6,0.6-0.6,1.2c0,0.4,0.1,0.7,0.4,0.9
		C173.6,74.6,173.9,74.8,174.3,74.8z"/>
	<path class="st7" d="M181.2,75.6h-1.1V64.9h1.1V75.6z"/>
	<path class="st7" d="M193.2,75.6v-4.9c0-0.6-0.1-1-0.4-1.3c-0.3-0.3-0.7-0.4-1.2-0.4c-0.7,0-1.2,0.2-1.6,0.6
		c-0.3,0.4-0.5,1-0.5,1.9v4.2h-1.1v-4.9c0-0.6-0.1-1-0.4-1.3c-0.3-0.3-0.7-0.4-1.2-0.4c-0.7,0-1.2,0.2-1.6,0.6
		c-0.3,0.4-0.5,1.1-0.5,2.1v3.9h-1.1v-7.5h0.9l0.2,1h0.1c0.2-0.4,0.5-0.6,0.9-0.9s0.8-0.3,1.3-0.3c1.2,0,1.9,0.4,2.3,1.3h0.1
		c0.2-0.4,0.5-0.7,1-0.9s0.9-0.3,1.4-0.3c0.8,0,1.5,0.2,1.9,0.7c0.4,0.4,0.6,1.1,0.6,2.1v4.9H193.2z"/>
	<path class="st7" d="M203.1,71.8c0,1.2-0.3,2.2-0.9,2.9s-1.5,1-2.5,1c-0.7,0-1.3-0.2-1.8-0.5s-0.9-0.8-1.2-1.4
		c-0.3-0.6-0.4-1.3-0.4-2.1c0-1.2,0.3-2.2,0.9-2.9c0.6-0.7,1.5-1,2.5-1c1,0,1.9,0.3,2.5,1C202.8,69.7,203.1,70.6,203.1,71.8z
		 M197.4,71.8c0,1,0.2,1.7,0.6,2.2s0.9,0.8,1.7,0.8c0.7,0,1.3-0.2,1.7-0.7c0.4-0.5,0.6-1.2,0.6-2.2c0-1-0.2-1.7-0.6-2.2
		c-0.4-0.5-1-0.7-1.7-0.7c-0.7,0-1.3,0.2-1.7,0.7C197.6,70.1,197.4,70.8,197.4,71.8z"/>
	<path class="st7" d="M209.9,73.5c0,0.7-0.3,1.2-0.8,1.6s-1.2,0.6-2.2,0.6c-1,0-1.8-0.2-2.3-0.5v-1.1c0.4,0.2,0.7,0.3,1.2,0.4
		c0.4,0.1,0.8,0.2,1.2,0.2c0.6,0,1-0.1,1.4-0.3c0.3-0.2,0.5-0.5,0.5-0.9c0-0.3-0.1-0.5-0.4-0.7s-0.7-0.5-1.5-0.7
		c-0.7-0.3-1.2-0.5-1.5-0.7s-0.5-0.4-0.7-0.7s-0.2-0.5-0.2-0.9c0-0.6,0.2-1.1,0.7-1.4c0.5-0.4,1.2-0.5,2-0.5c0.8,0,1.6,0.2,2.4,0.5
		l-0.4,0.9c-0.8-0.3-1.4-0.5-2-0.5c-0.5,0-0.9,0.1-1.2,0.3s-0.4,0.4-0.4,0.7c0,0.2,0.1,0.4,0.2,0.5s0.3,0.3,0.5,0.4
		c0.2,0.1,0.7,0.3,1.3,0.6c0.9,0.3,1.5,0.6,1.8,1C209.8,72.6,209.9,73,209.9,73.5z"/>
	<path class="st7" d="M214.2,74.8c0.2,0,0.4,0,0.6,0c0.2,0,0.3-0.1,0.4-0.1v0.9c-0.1,0.1-0.3,0.1-0.5,0.1s-0.5,0.1-0.6,0.1
		c-1.4,0-2.2-0.8-2.2-2.3v-4.5h-1.1v-0.5l1.1-0.5l0.5-1.6h0.7v1.7h2.2v0.9H213v4.4c0,0.5,0.1,0.8,0.3,1
		C213.5,74.6,213.8,74.8,214.2,74.8z"/>
	<path class="st7" d="M223.8,67.9c0.3,0,0.6,0,0.9,0.1l-0.2,1.1c-0.3-0.1-0.6-0.1-0.8-0.1c-0.6,0-1.1,0.2-1.6,0.7s-0.6,1.1-0.6,1.8
		v4h-1.1v-7.5h0.9l0.1,1.4h0.1c0.3-0.5,0.6-0.9,1-1.1C222.9,68.1,223.3,67.9,223.8,67.9z"/>
	<path class="st7" d="M229.2,75.7c-1.1,0-2-0.3-2.6-1c-0.6-0.7-1-1.6-1-2.8c0-1.2,0.3-2.2,0.9-2.9s1.4-1.1,2.4-1.1
		c0.9,0,1.7,0.3,2.2,0.9s0.8,1.4,0.8,2.4V72h-5.2c0,0.9,0.2,1.5,0.7,2c0.4,0.5,1,0.7,1.8,0.7c0.8,0,1.6-0.2,2.4-0.5v1
		c-0.4,0.2-0.8,0.3-1.1,0.4C230.2,75.6,229.8,75.7,229.2,75.7z M228.9,68.9c-0.6,0-1.1,0.2-1.4,0.6c-0.4,0.4-0.6,0.9-0.6,1.6h3.9
		c0-0.7-0.2-1.3-0.5-1.6C230,69.1,229.5,68.9,228.9,68.9z"/>
	<path class="st7" d="M238.5,75.6l-0.2-1.1h-0.1c-0.4,0.5-0.7,0.8-1.1,1c-0.4,0.2-0.8,0.2-1.4,0.2c-0.7,0-1.3-0.2-1.7-0.6
		c-0.4-0.4-0.6-0.9-0.6-1.6c0-1.5,1.2-2.3,3.6-2.4l1.3,0v-0.5c0-0.6-0.1-1-0.4-1.3s-0.7-0.4-1.2-0.4c-0.6,0-1.3,0.2-2.1,0.6
		l-0.3-0.9c0.4-0.2,0.8-0.4,1.2-0.5c0.4-0.1,0.9-0.2,1.3-0.2c0.9,0,1.6,0.2,2,0.6s0.6,1,0.6,1.9v5.1H238.5z M236,74.8
		c0.7,0,1.3-0.2,1.7-0.6s0.6-0.9,0.6-1.6v-0.7l-1.1,0c-0.9,0-1.6,0.2-2,0.4c-0.4,0.2-0.6,0.6-0.6,1.2c0,0.4,0.1,0.7,0.4,0.9
		C235.2,74.6,235.5,74.8,236,74.8z"/>
	<path class="st7" d="M246.8,74.5L246.8,74.5c-0.6,0.8-1.4,1.1-2.4,1.1c-1,0-1.7-0.3-2.3-1c-0.5-0.7-0.8-1.6-0.8-2.9
		s0.3-2.2,0.8-2.9s1.3-1,2.3-1c1,0,1.8,0.4,2.3,1.1h0.1l0-0.5l0-0.5v-3h1.1v10.6H247L246.8,74.5z M244.6,74.7c0.8,0,1.3-0.2,1.7-0.6
		s0.5-1.1,0.5-2v-0.2c0-1.1-0.2-1.8-0.5-2.3c-0.4-0.5-0.9-0.7-1.7-0.7c-0.7,0-1.2,0.3-1.5,0.8c-0.4,0.5-0.5,1.2-0.5,2.2
		c0,1,0.2,1.7,0.5,2.2C243.4,74.5,243.9,74.7,244.6,74.7z"/>
	<path class="st7" d="M249.1,68.1h1.2l1.6,4.3c0.4,1,0.6,1.7,0.7,2.1h0.1c0.1-0.2,0.2-0.6,0.4-1.2c0.2-0.6,0.8-2.3,1.9-5.2h1.2
		l-3.2,8.5c-0.3,0.8-0.7,1.4-1.1,1.8c-0.4,0.4-0.9,0.5-1.6,0.5c-0.3,0-0.7,0-1-0.1v-0.9c0.3,0.1,0.5,0.1,0.8,0.1
		c0.8,0,1.3-0.4,1.7-1.3l0.4-1.1L249.1,68.1z"/>
	<path class="st7" d="M257.2,74.8c0-0.3,0.1-0.5,0.2-0.7c0.1-0.2,0.3-0.2,0.6-0.2c0.3,0,0.5,0.1,0.6,0.2c0.1,0.2,0.2,0.4,0.2,0.7
		c0,0.3-0.1,0.5-0.2,0.7s-0.4,0.2-0.6,0.2c-0.2,0-0.4-0.1-0.6-0.2C257.3,75.4,257.2,75.2,257.2,74.8z"/>
	<path class="st7" d="M264.9,75.6v-10h1.2v10H264.9z"/>
	<path class="st7" d="M271,74.8c0.2,0,0.4,0,0.6,0s0.3-0.1,0.4-0.1v0.9c-0.1,0.1-0.3,0.1-0.5,0.1c-0.2,0-0.5,0.1-0.6,0.1
		c-1.4,0-2.2-0.8-2.2-2.3v-4.5h-1.1v-0.5l1.1-0.5l0.5-1.6h0.7v1.7h2.2v0.9h-2.2v4.4c0,0.5,0.1,0.8,0.3,1S270.7,74.8,271,74.8z"/>
	<path class="st7" d="M282.3,75.6v-4.8c0-0.6-0.1-1.1-0.4-1.4s-0.7-0.5-1.3-0.5c-0.8,0-1.4,0.2-1.7,0.6c-0.4,0.4-0.5,1.1-0.5,2.1
		v3.9h-1.1V64.9h1.1v3.2c0,0.4,0,0.7-0.1,1h0.1c0.2-0.4,0.5-0.6,1-0.9c0.4-0.2,0.9-0.3,1.4-0.3c0.9,0,1.6,0.2,2.1,0.7
		c0.5,0.4,0.7,1.1,0.7,2.1v4.9H282.3z"/>
	<path class="st7" d="M290.4,75.6l-0.2-1.1h-0.1c-0.4,0.5-0.7,0.8-1.1,1c-0.4,0.2-0.8,0.2-1.4,0.2c-0.7,0-1.3-0.2-1.7-0.6
		c-0.4-0.4-0.6-0.9-0.6-1.6c0-1.5,1.2-2.3,3.6-2.4l1.3,0v-0.5c0-0.6-0.1-1-0.4-1.3c-0.3-0.3-0.7-0.4-1.2-0.4c-0.6,0-1.3,0.2-2.1,0.6
		l-0.3-0.9c0.4-0.2,0.8-0.4,1.2-0.5c0.4-0.1,0.9-0.2,1.3-0.2c0.9,0,1.6,0.2,2,0.6c0.4,0.4,0.6,1,0.6,1.9v5.1H290.4z M287.8,74.8
		c0.7,0,1.3-0.2,1.7-0.6c0.4-0.4,0.6-0.9,0.6-1.6v-0.7l-1.1,0c-0.9,0-1.6,0.2-2,0.4c-0.4,0.2-0.6,0.6-0.6,1.2c0,0.4,0.1,0.7,0.4,0.9
		C287,74.6,287.4,74.8,287.8,74.8z"/>
	<path class="st7" d="M298.4,73.5c0,0.7-0.3,1.2-0.8,1.6s-1.2,0.6-2.2,0.6c-1,0-1.8-0.2-2.3-0.5v-1.1c0.4,0.2,0.7,0.3,1.2,0.4
		c0.4,0.1,0.8,0.2,1.2,0.2c0.6,0,1-0.1,1.4-0.3s0.5-0.5,0.5-0.9c0-0.3-0.1-0.5-0.4-0.7c-0.3-0.2-0.7-0.5-1.5-0.7
		c-0.7-0.3-1.2-0.5-1.5-0.7c-0.3-0.2-0.5-0.4-0.7-0.7c-0.1-0.2-0.2-0.5-0.2-0.9c0-0.6,0.2-1.1,0.7-1.4s1.2-0.5,2-0.5
		c0.8,0,1.6,0.2,2.4,0.5l-0.4,0.9c-0.8-0.3-1.4-0.5-2-0.5c-0.5,0-0.9,0.1-1.2,0.3s-0.4,0.4-0.4,0.7c0,0.2,0.1,0.4,0.2,0.5
		c0.1,0.1,0.3,0.3,0.5,0.4s0.7,0.3,1.3,0.6c0.9,0.3,1.5,0.6,1.8,1C298.3,72.6,298.4,73,298.4,73.5z"/>
	<path class="st7" d="M307.4,67.9c1,0,1.7,0.3,2.3,1c0.5,0.7,0.8,1.6,0.8,2.9s-0.3,2.2-0.8,2.9c-0.5,0.7-1.3,1-2.3,1
		c-0.5,0-0.9-0.1-1.3-0.3c-0.4-0.2-0.7-0.5-1-0.8h-0.1l-0.2,1h-0.8V64.9h1.1v2.6c0,0.6,0,1.1-0.1,1.6h0.1
		C305.6,68.3,306.3,67.9,307.4,67.9z M307.2,68.9c-0.8,0-1.3,0.2-1.7,0.7s-0.5,1.2-0.5,2.2s0.2,1.8,0.5,2.3s0.9,0.7,1.7,0.7
		c0.7,0,1.2-0.3,1.6-0.8s0.5-1.2,0.5-2.2c0-1-0.2-1.7-0.5-2.2S307.9,68.9,307.2,68.9z"/>
	<path class="st7" d="M315.6,75.7c-1.1,0-2-0.3-2.6-1c-0.6-0.7-1-1.6-1-2.8c0-1.2,0.3-2.2,0.9-2.9c0.6-0.7,1.4-1.1,2.4-1.1
		c0.9,0,1.7,0.3,2.2,0.9s0.8,1.4,0.8,2.4V72h-5.2c0,0.9,0.2,1.5,0.7,2c0.4,0.5,1,0.7,1.8,0.7c0.8,0,1.6-0.2,2.4-0.5v1
		c-0.4,0.2-0.8,0.3-1.1,0.4C316.6,75.6,316.1,75.7,315.6,75.7z M315.3,68.9c-0.6,0-1.1,0.2-1.4,0.6c-0.4,0.4-0.6,0.9-0.6,1.6h3.9
		c0-0.7-0.2-1.3-0.5-1.6S315.9,68.9,315.3,68.9z"/>
	<path class="st7" d="M323.5,75.7c-1.1,0-2-0.3-2.6-1c-0.6-0.7-1-1.6-1-2.8c0-1.2,0.3-2.2,0.9-2.9c0.6-0.7,1.4-1.1,2.4-1.1
		c0.9,0,1.7,0.3,2.2,0.9s0.8,1.4,0.8,2.4V72h-5.2c0,0.9,0.2,1.5,0.7,2c0.4,0.5,1,0.7,1.8,0.7c0.8,0,1.6-0.2,2.4-0.5v1
		c-0.4,0.2-0.8,0.3-1.1,0.4C324.4,75.6,324,75.7,323.5,75.7z M323.2,68.9c-0.6,0-1.1,0.2-1.4,0.6c-0.4,0.4-0.6,0.9-0.6,1.6h3.9
		c0-0.7-0.2-1.3-0.5-1.6S323.8,68.9,323.2,68.9z"/>
	<path class="st7" d="M333.3,75.6v-4.8c0-0.6-0.1-1.1-0.4-1.4s-0.7-0.5-1.3-0.5c-0.8,0-1.4,0.2-1.7,0.6s-0.5,1.1-0.5,2.1v3.9h-1.1
		v-7.5h0.9l0.2,1h0.1c0.2-0.4,0.6-0.7,1-0.9s0.9-0.3,1.4-0.3c0.9,0,1.6,0.2,2,0.7s0.7,1.1,0.7,2.1v4.9H333.3z"/>
	<path class="st7" d="M342.8,74.8c0.2,0,0.4,0,0.6,0s0.3-0.1,0.4-0.1v0.9c-0.1,0.1-0.3,0.1-0.5,0.1c-0.2,0-0.5,0.1-0.6,0.1
		c-1.4,0-2.2-0.8-2.2-2.3v-4.5h-1.1v-0.5l1.1-0.5l0.5-1.6h0.7v1.7h2.2v0.9h-2.2v4.4c0,0.5,0.1,0.8,0.3,1S342.5,74.8,342.8,74.8z"/>
	<path class="st7" d="M348.5,75.7c-1.1,0-2-0.3-2.6-1c-0.6-0.7-1-1.6-1-2.8c0-1.2,0.3-2.2,0.9-2.9c0.6-0.7,1.4-1.1,2.4-1.1
		c0.9,0,1.7,0.3,2.2,0.9s0.8,1.4,0.8,2.4V72h-5.2c0,0.9,0.2,1.5,0.7,2c0.4,0.5,1,0.7,1.8,0.7c0.8,0,1.6-0.2,2.4-0.5v1
		c-0.4,0.2-0.8,0.3-1.1,0.4C349.5,75.6,349,75.7,348.5,75.7z M348.2,68.9c-0.6,0-1.1,0.2-1.4,0.6c-0.4,0.4-0.6,0.9-0.6,1.6h3.9
		c0-0.7-0.2-1.3-0.5-1.6S348.8,68.9,348.2,68.9z"/>
	<path class="st7" d="M358,73.5c0,0.7-0.3,1.2-0.8,1.6s-1.2,0.6-2.2,0.6c-1,0-1.8-0.2-2.3-0.5v-1.1c0.4,0.2,0.7,0.3,1.2,0.4
		c0.4,0.1,0.8,0.2,1.2,0.2c0.6,0,1-0.1,1.4-0.3s0.5-0.5,0.5-0.9c0-0.3-0.1-0.5-0.4-0.7c-0.3-0.2-0.7-0.5-1.5-0.7
		c-0.7-0.3-1.2-0.5-1.5-0.7c-0.3-0.2-0.5-0.4-0.7-0.7c-0.1-0.2-0.2-0.5-0.2-0.9c0-0.6,0.2-1.1,0.7-1.4s1.2-0.5,2-0.5
		c0.8,0,1.6,0.2,2.4,0.5l-0.4,0.9c-0.8-0.3-1.4-0.5-2-0.5c-0.5,0-0.9,0.1-1.2,0.3s-0.4,0.4-0.4,0.7c0,0.2,0.1,0.4,0.2,0.5
		c0.1,0.1,0.3,0.3,0.5,0.4s0.7,0.3,1.3,0.6c0.9,0.3,1.5,0.6,1.8,1C357.9,72.6,358,73,358,73.5z"/>
	<path class="st7" d="M362.3,74.8c0.2,0,0.4,0,0.6,0s0.3-0.1,0.4-0.1v0.9c-0.1,0.1-0.3,0.1-0.5,0.1c-0.2,0-0.5,0.1-0.6,0.1
		c-1.4,0-2.2-0.8-2.2-2.3v-4.5h-1.1v-0.5l1.1-0.5l0.5-1.6h0.7v1.7h2.2v0.9h-2.2v4.4c0,0.5,0.1,0.8,0.3,1S361.9,74.8,362.3,74.8z"/>
	<path class="st7" d="M368,75.7c-1.1,0-2-0.3-2.6-1c-0.6-0.7-1-1.6-1-2.8c0-1.2,0.3-2.2,0.9-2.9c0.6-0.7,1.4-1.1,2.4-1.1
		c0.9,0,1.7,0.3,2.2,0.9s0.8,1.4,0.8,2.4V72h-5.2c0,0.9,0.2,1.5,0.7,2c0.4,0.5,1,0.7,1.8,0.7c0.8,0,1.6-0.2,2.4-0.5v1
		c-0.4,0.2-0.8,0.3-1.1,0.4C368.9,75.6,368.5,75.7,368,75.7z M367.7,68.9c-0.6,0-1.1,0.2-1.4,0.6c-0.4,0.4-0.6,0.9-0.6,1.6h3.9
		c0-0.7-0.2-1.3-0.5-1.6S368.3,68.9,367.7,68.9z"/>
	<path class="st7" d="M377.8,74.5L377.8,74.5c-0.6,0.8-1.4,1.1-2.4,1.1c-1,0-1.7-0.3-2.3-1c-0.5-0.7-0.8-1.6-0.8-2.9
		s0.3-2.2,0.8-2.9s1.3-1,2.3-1c1,0,1.8,0.4,2.3,1.1h0.1l0-0.5l0-0.5v-3h1.1v10.6h-0.9L377.8,74.5z M375.5,74.7
		c0.8,0,1.3-0.2,1.7-0.6c0.3-0.4,0.5-1.1,0.5-2v-0.2c0-1.1-0.2-1.8-0.5-2.3c-0.4-0.5-0.9-0.7-1.7-0.7c-0.7,0-1.2,0.3-1.5,0.8
		c-0.4,0.5-0.5,1.2-0.5,2.2c0,1,0.2,1.7,0.5,2.2S374.8,74.7,375.5,74.7z"/>
	<path class="st7" d="M389.5,75.6l-0.2-1.1h-0.1c-0.4,0.5-0.7,0.8-1.1,1c-0.4,0.2-0.8,0.2-1.4,0.2c-0.7,0-1.3-0.2-1.7-0.6
		c-0.4-0.4-0.6-0.9-0.6-1.6c0-1.5,1.2-2.3,3.6-2.4l1.3,0v-0.5c0-0.6-0.1-1-0.4-1.3c-0.3-0.3-0.7-0.4-1.2-0.4c-0.6,0-1.3,0.2-2.1,0.6
		l-0.3-0.9c0.4-0.2,0.8-0.4,1.2-0.5c0.4-0.1,0.9-0.2,1.3-0.2c0.9,0,1.6,0.2,2,0.6c0.4,0.4,0.6,1,0.6,1.9v5.1H389.5z M386.9,74.8
		c0.7,0,1.3-0.2,1.7-0.6c0.4-0.4,0.6-0.9,0.6-1.6v-0.7l-1.1,0c-0.9,0-1.6,0.2-2,0.4c-0.4,0.2-0.6,0.6-0.6,1.2c0,0.4,0.1,0.7,0.4,0.9
		C386.2,74.6,386.5,74.8,386.9,74.8z"/>
	<path class="st7" d="M397.8,75.6v-4.8c0-0.6-0.1-1.1-0.4-1.4s-0.7-0.5-1.3-0.5c-0.8,0-1.4,0.2-1.7,0.6s-0.5,1.1-0.5,2.1v3.9h-1.1
		v-7.5h0.9l0.2,1h0.1c0.2-0.4,0.6-0.7,1-0.9s0.9-0.3,1.4-0.3c0.9,0,1.6,0.2,2,0.7s0.7,1.1,0.7,2.1v4.9H397.8z"/>
	<path class="st7" d="M406.4,74.5L406.4,74.5c-0.6,0.8-1.4,1.1-2.4,1.1c-1,0-1.7-0.3-2.3-1c-0.5-0.7-0.8-1.6-0.8-2.9
		s0.3-2.2,0.8-2.9s1.3-1,2.3-1c1,0,1.8,0.4,2.3,1.1h0.1l0-0.5l0-0.5v-3h1.1v10.6h-0.9L406.4,74.5z M404.1,74.7
		c0.8,0,1.3-0.2,1.7-0.6c0.3-0.4,0.5-1.1,0.5-2v-0.2c0-1.1-0.2-1.8-0.5-2.3c-0.4-0.5-0.9-0.7-1.7-0.7c-0.7,0-1.2,0.3-1.5,0.8
		c-0.4,0.5-0.5,1.2-0.5,2.2c0,1,0.2,1.7,0.5,2.2S403.4,74.7,404.1,74.7z"/>
	<path class="st7" d="M415.9,74.8c0.2,0,0.4,0,0.6,0s0.3-0.1,0.4-0.1v0.9c-0.1,0.1-0.3,0.1-0.5,0.1c-0.2,0-0.5,0.1-0.6,0.1
		c-1.4,0-2.2-0.8-2.2-2.3v-4.5h-1.1v-0.5l1.1-0.5l0.5-1.6h0.7v1.7h2.2v0.9h-2.2v4.4c0,0.5,0.1,0.8,0.3,1S415.5,74.8,415.9,74.8z"/>
	<path class="st7" d="M423.6,75.6v-4.8c0-0.6-0.1-1.1-0.4-1.4s-0.7-0.5-1.3-0.5c-0.8,0-1.4,0.2-1.7,0.6c-0.4,0.4-0.5,1.1-0.5,2.1
		v3.9h-1.1V64.9h1.1v3.2c0,0.4,0,0.7-0.1,1h0.1c0.2-0.4,0.5-0.6,1-0.9c0.4-0.2,0.9-0.3,1.4-0.3c0.9,0,1.6,0.2,2.1,0.7
		c0.5,0.4,0.7,1.1,0.7,2.1v4.9H423.6z"/>
	<path class="st7" d="M430.2,75.7c-1.1,0-2-0.3-2.6-1c-0.6-0.7-1-1.6-1-2.8c0-1.2,0.3-2.2,0.9-2.9c0.6-0.7,1.4-1.1,2.4-1.1
		c0.9,0,1.7,0.3,2.2,0.9s0.8,1.4,0.8,2.4V72h-5.2c0,0.9,0.2,1.5,0.7,2c0.4,0.5,1,0.7,1.8,0.7c0.8,0,1.6-0.2,2.4-0.5v1
		c-0.4,0.2-0.8,0.3-1.1,0.4C431.1,75.6,430.7,75.7,430.2,75.7z M429.9,68.9c-0.6,0-1.1,0.2-1.4,0.6c-0.4,0.4-0.6,0.9-0.6,1.6h3.9
		c0-0.7-0.2-1.3-0.5-1.6S430.5,68.9,429.9,68.9z"/>
	<path class="st7" d="M69.8,92.4h-1.2v-9h-3.2v-1H73v1h-3.2V92.4z"/>
	<path class="st7" d="M80.8,85.3c0,1-0.3,1.8-1,2.3s-1.7,0.8-3,0.8h-1.2v3.9h-1.2v-10h2.6C79.6,82.4,80.8,83.3,80.8,85.3z
		 M75.6,87.4h1c1,0,1.8-0.2,2.2-0.5c0.5-0.3,0.7-0.9,0.7-1.6c0-0.7-0.2-1.2-0.6-1.5c-0.4-0.3-1.1-0.5-2-0.5h-1.3V87.4z"/>
	<path class="st7" d="M82.9,92.4v-10h1.2v10H82.9z"/>
	<path class="st7" d="M90.2,82.8c0-0.3,0.1-0.5,0.2-0.6c0.1-0.1,0.3-0.2,0.5-0.2c0.2,0,0.3,0.1,0.5,0.2c0.1,0.1,0.2,0.3,0.2,0.6
		s-0.1,0.4-0.2,0.6c-0.1,0.1-0.3,0.2-0.5,0.2c-0.2,0-0.4-0.1-0.5-0.2C90.3,83.3,90.2,83.1,90.2,82.8z M91.4,92.4h-1.1v-7.5h1.1V92.4
		z"/>
	<path class="st7" d="M98.7,90.3c0,0.7-0.3,1.2-0.8,1.6s-1.2,0.6-2.2,0.6c-1,0-1.8-0.2-2.3-0.5V91c0.4,0.2,0.7,0.3,1.2,0.4
		c0.4,0.1,0.8,0.2,1.2,0.2c0.6,0,1-0.1,1.4-0.3c0.3-0.2,0.5-0.5,0.5-0.9c0-0.3-0.1-0.5-0.4-0.7s-0.7-0.5-1.5-0.7
		c-0.7-0.3-1.2-0.5-1.5-0.7s-0.5-0.4-0.7-0.7s-0.2-0.5-0.2-0.9c0-0.6,0.2-1.1,0.7-1.4c0.5-0.4,1.2-0.5,2-0.5c0.8,0,1.6,0.2,2.4,0.5
		l-0.4,0.9c-0.8-0.3-1.4-0.5-2-0.5c-0.5,0-0.9,0.1-1.2,0.3s-0.4,0.4-0.4,0.7c0,0.2,0.1,0.4,0.2,0.5s0.3,0.3,0.5,0.4
		c0.2,0.1,0.7,0.3,1.3,0.6c0.9,0.3,1.5,0.6,1.8,1C98.5,89.4,98.7,89.8,98.7,90.3z"/>
	<path class="st7" d="M109,90.3c0,0.7-0.3,1.2-0.8,1.6s-1.2,0.6-2.2,0.6c-1,0-1.8-0.2-2.3-0.5V91c0.4,0.2,0.7,0.3,1.2,0.4
		c0.4,0.1,0.8,0.2,1.2,0.2c0.6,0,1-0.1,1.4-0.3c0.3-0.2,0.5-0.5,0.5-0.9c0-0.3-0.1-0.5-0.4-0.7s-0.7-0.5-1.5-0.7
		c-0.7-0.3-1.2-0.5-1.5-0.7s-0.5-0.4-0.7-0.7s-0.2-0.5-0.2-0.9c0-0.6,0.2-1.1,0.7-1.4c0.5-0.4,1.2-0.5,2-0.5c0.8,0,1.6,0.2,2.4,0.5
		l-0.4,0.9c-0.8-0.3-1.4-0.5-2-0.5c-0.5,0-0.9,0.1-1.2,0.3s-0.4,0.4-0.4,0.7c0,0.2,0.1,0.4,0.2,0.5s0.3,0.3,0.5,0.4
		c0.2,0.1,0.7,0.3,1.3,0.6c0.9,0.3,1.5,0.6,1.8,1C108.8,89.4,109,89.8,109,90.3z"/>
	<path class="st7" d="M113.2,91.6c0.2,0,0.4,0,0.6,0c0.2,0,0.3-0.1,0.4-0.1v0.9c-0.1,0.1-0.3,0.1-0.5,0.1s-0.5,0.1-0.6,0.1
		c-1.4,0-2.2-0.8-2.2-2.3v-4.5h-1.1v-0.5l1.1-0.5l0.5-1.6h0.7v1.7h2.2v0.9H112v4.4c0,0.5,0.1,0.8,0.3,1
		C112.6,91.4,112.9,91.6,113.2,91.6z"/>
	<path class="st7" d="M120.4,92.4l-0.2-1.1h-0.1c-0.4,0.5-0.7,0.8-1.1,1c-0.4,0.2-0.8,0.2-1.4,0.2c-0.7,0-1.3-0.2-1.7-0.6
		c-0.4-0.4-0.6-0.9-0.6-1.6c0-1.5,1.2-2.3,3.6-2.4l1.3,0v-0.5c0-0.6-0.1-1-0.4-1.3s-0.7-0.4-1.2-0.4c-0.6,0-1.3,0.2-2.1,0.6
		l-0.3-0.9c0.4-0.2,0.8-0.4,1.2-0.5c0.4-0.1,0.9-0.2,1.3-0.2c0.9,0,1.6,0.2,2,0.6s0.6,1,0.6,1.9v5.1H120.4z M117.8,91.6
		c0.7,0,1.3-0.2,1.7-0.6s0.6-0.9,0.6-1.6v-0.7l-1.1,0c-0.9,0-1.6,0.2-2,0.4c-0.4,0.2-0.6,0.6-0.6,1.2c0,0.4,0.1,0.7,0.4,0.9
		C117,91.4,117.4,91.6,117.8,91.6z"/>
	<path class="st7" d="M127,84.7c1,0,1.7,0.3,2.3,1c0.5,0.7,0.8,1.6,0.8,2.9s-0.3,2.2-0.8,2.9c-0.5,0.7-1.3,1-2.3,1
		c-0.5,0-0.9-0.1-1.3-0.3s-0.7-0.5-1-0.8h-0.1l-0.2,1h-0.8V81.7h1.1v2.6c0,0.6,0,1.1-0.1,1.6h0.1C125.2,85.1,126,84.7,127,84.7z
		 M126.9,85.7c-0.8,0-1.3,0.2-1.7,0.7s-0.5,1.2-0.5,2.2s0.2,1.8,0.5,2.3c0.4,0.5,0.9,0.7,1.7,0.7c0.7,0,1.2-0.3,1.6-0.8
		s0.5-1.2,0.5-2.2c0-1-0.2-1.7-0.5-2.2S127.6,85.7,126.9,85.7z"/>
	<path class="st7" d="M133.3,92.4h-1.1V81.7h1.1V92.4z"/>
	<path class="st7" d="M138.8,92.5c-1.1,0-2-0.3-2.6-1c-0.6-0.7-1-1.6-1-2.8c0-1.2,0.3-2.2,0.9-2.9s1.4-1.1,2.4-1.1
		c0.9,0,1.7,0.3,2.2,0.9s0.8,1.4,0.8,2.4v0.7h-5.2c0,0.9,0.2,1.5,0.7,2c0.4,0.5,1,0.7,1.8,0.7c0.8,0,1.6-0.2,2.4-0.5v1
		c-0.4,0.2-0.8,0.3-1.1,0.4C139.8,92.4,139.3,92.5,138.8,92.5z M138.5,85.7c-0.6,0-1.1,0.2-1.4,0.6c-0.4,0.4-0.6,0.9-0.6,1.6h3.9
		c0-0.7-0.2-1.3-0.5-1.6C139.6,85.9,139.1,85.7,138.5,85.7z"/>
	<path class="st7" d="M144.7,90.7l0.1,0.2c-0.1,0.5-0.3,1-0.5,1.6c-0.2,0.6-0.5,1.2-0.7,1.7h-0.9c0.1-0.5,0.3-1.1,0.4-1.8
		c0.1-0.7,0.3-1.3,0.3-1.7H144.7z"/>
	<path class="st7" d="M154.1,84.7c1,0,1.7,0.3,2.3,1c0.5,0.7,0.8,1.6,0.8,2.9s-0.3,2.2-0.8,2.9c-0.5,0.7-1.3,1-2.3,1
		c-0.5,0-0.9-0.1-1.3-0.3s-0.7-0.5-1-0.8h-0.1l-0.2,1h-0.8V81.7h1.1v2.6c0,0.6,0,1.1-0.1,1.6h0.1C152.3,85.1,153,84.7,154.1,84.7z
		 M153.9,85.7c-0.8,0-1.3,0.2-1.7,0.7s-0.5,1.2-0.5,2.2s0.2,1.8,0.5,2.3c0.4,0.5,0.9,0.7,1.7,0.7c0.7,0,1.2-0.3,1.6-0.8
		s0.5-1.2,0.5-2.2c0-1-0.2-1.7-0.5-2.2S154.6,85.7,153.9,85.7z"/>
	<path class="st7" d="M160.2,84.9v4.9c0,0.6,0.1,1.1,0.4,1.4c0.3,0.3,0.7,0.5,1.3,0.5c0.8,0,1.4-0.2,1.7-0.6s0.5-1.1,0.5-2.1v-3.9
		h1.1v7.5h-0.9l-0.2-1h-0.1c-0.2,0.4-0.6,0.7-1,0.8c-0.4,0.2-0.9,0.3-1.4,0.3c-0.9,0-1.6-0.2-2-0.6c-0.5-0.4-0.7-1.1-0.7-2.1v-4.9
		H160.2z"/>
	<path class="st7" d="M170.2,91.6c0.2,0,0.4,0,0.6,0c0.2,0,0.3-0.1,0.4-0.1v0.9c-0.1,0.1-0.3,0.1-0.5,0.1s-0.5,0.1-0.6,0.1
		c-1.4,0-2.2-0.8-2.2-2.3v-4.5h-1.1v-0.5l1.1-0.5l0.5-1.6h0.7v1.7h2.2v0.9H169v4.4c0,0.5,0.1,0.8,0.3,1
		C169.5,91.4,169.8,91.6,170.2,91.6z"/>
	<path class="st7" d="M178.8,91.6c0.2,0,0.4,0,0.6,0c0.2,0,0.3-0.1,0.4-0.1v0.9c-0.1,0.1-0.3,0.1-0.5,0.1s-0.5,0.1-0.6,0.1
		c-1.4,0-2.2-0.8-2.2-2.3v-4.5h-1.1v-0.5l1.1-0.5l0.5-1.6h0.7v1.7h2.2v0.9h-2.2v4.4c0,0.5,0.1,0.8,0.3,1
		C178.1,91.4,178.4,91.6,178.8,91.6z"/>
	<path class="st7" d="M186.4,92.4v-4.8c0-0.6-0.1-1.1-0.4-1.4c-0.3-0.3-0.7-0.5-1.3-0.5c-0.8,0-1.4,0.2-1.7,0.6s-0.5,1.1-0.5,2.1
		v3.9h-1.1V81.7h1.1v3.2c0,0.4,0,0.7-0.1,1h0.1c0.2-0.4,0.5-0.6,1-0.9c0.4-0.2,0.9-0.3,1.4-0.3c0.9,0,1.6,0.2,2.1,0.7
		s0.7,1.1,0.7,2.1v4.9H186.4z"/>
	<path class="st7" d="M193,92.5c-1.1,0-2-0.3-2.6-1c-0.6-0.7-1-1.6-1-2.8c0-1.2,0.3-2.2,0.9-2.9s1.4-1.1,2.4-1.1
		c0.9,0,1.7,0.3,2.2,0.9s0.8,1.4,0.8,2.4v0.7h-5.2c0,0.9,0.2,1.5,0.7,2c0.4,0.5,1,0.7,1.8,0.7c0.8,0,1.6-0.2,2.4-0.5v1
		c-0.4,0.2-0.8,0.3-1.1,0.4C194,92.4,193.5,92.5,193,92.5z M192.7,85.7c-0.6,0-1.1,0.2-1.4,0.6c-0.4,0.4-0.6,0.9-0.6,1.6h3.9
		c0-0.7-0.2-1.3-0.5-1.6C193.8,85.9,193.3,85.7,192.7,85.7z"/>
	<path class="st7" d="M201.2,84.7c0.3,0,0.6,0,0.9,0.1l-0.2,1.1c-0.3-0.1-0.6-0.1-0.8-0.1c-0.6,0-1.1,0.2-1.6,0.7s-0.6,1.1-0.6,1.8
		v4h-1.1v-7.5h0.9l0.1,1.4h0.1c0.3-0.5,0.6-0.9,1-1.1C200.3,84.9,200.7,84.7,201.2,84.7z"/>
	<path class="st7" d="M206.6,92.5c-1.1,0-2-0.3-2.6-1c-0.6-0.7-1-1.6-1-2.8c0-1.2,0.3-2.2,0.9-2.9s1.4-1.1,2.4-1.1
		c0.9,0,1.7,0.3,2.2,0.9s0.8,1.4,0.8,2.4v0.7h-5.2c0,0.9,0.2,1.5,0.7,2c0.4,0.5,1,0.7,1.8,0.7c0.8,0,1.6-0.2,2.4-0.5v1
		c-0.4,0.2-0.8,0.3-1.1,0.4C207.6,92.4,207.1,92.5,206.6,92.5z M206.3,85.7c-0.6,0-1.1,0.2-1.4,0.6c-0.4,0.4-0.6,0.9-0.6,1.6h3.9
		c0-0.7-0.2-1.3-0.5-1.6C207.4,85.9,206.9,85.7,206.3,85.7z"/>
	<path class="st7" d="M224.5,92.4v-4.9c0-0.6-0.1-1-0.4-1.3c-0.3-0.3-0.7-0.4-1.2-0.4c-0.7,0-1.2,0.2-1.6,0.6
		c-0.3,0.4-0.5,1-0.5,1.9v4.2h-1.1v-4.9c0-0.6-0.1-1-0.4-1.3c-0.3-0.3-0.7-0.4-1.2-0.4c-0.7,0-1.2,0.2-1.6,0.6
		c-0.3,0.4-0.5,1.1-0.5,2.1v3.9h-1.1v-7.5h0.9l0.2,1h0.1c0.2-0.4,0.5-0.6,0.9-0.9s0.8-0.3,1.3-0.3c1.2,0,1.9,0.4,2.3,1.3h0.1
		c0.2-0.4,0.5-0.7,1-0.9s0.9-0.3,1.4-0.3c0.8,0,1.5,0.2,1.9,0.7c0.4,0.4,0.6,1.1,0.6,2.1v4.9H224.5z"/>
	<path class="st7" d="M232.6,92.4l-0.2-1.1h-0.1c-0.4,0.5-0.7,0.8-1.1,1c-0.4,0.2-0.8,0.2-1.4,0.2c-0.7,0-1.3-0.2-1.7-0.6
		c-0.4-0.4-0.6-0.9-0.6-1.6c0-1.5,1.2-2.3,3.6-2.4l1.3,0v-0.5c0-0.6-0.1-1-0.4-1.3s-0.7-0.4-1.2-0.4c-0.6,0-1.3,0.2-2.1,0.6
		l-0.3-0.9c0.4-0.2,0.8-0.4,1.2-0.5c0.4-0.1,0.9-0.2,1.3-0.2c0.9,0,1.6,0.2,2,0.6s0.6,1,0.6,1.9v5.1H232.6z M230,91.6
		c0.7,0,1.3-0.2,1.7-0.6s0.6-0.9,0.6-1.6v-0.7l-1.1,0c-0.9,0-1.6,0.2-2,0.4c-0.4,0.2-0.6,0.6-0.6,1.2c0,0.4,0.1,0.7,0.4,0.9
		C229.2,91.4,229.6,91.6,230,91.6z"/>
	<path class="st7" d="M234.6,84.9h1.2l1.6,4.3c0.4,1,0.6,1.7,0.7,2.1h0.1c0.1-0.2,0.2-0.6,0.4-1.2c0.2-0.6,0.8-2.3,1.9-5.2h1.2
		l-3.2,8.5c-0.3,0.8-0.7,1.4-1.1,1.8c-0.4,0.4-0.9,0.5-1.6,0.5c-0.3,0-0.7,0-1-0.1v-0.9c0.3,0.1,0.5,0.1,0.8,0.1
		c0.8,0,1.3-0.4,1.7-1.3l0.4-1.1L234.6,84.9z"/>
	<path class="st7" d="M249.9,84.7c1,0,1.7,0.3,2.3,1c0.5,0.7,0.8,1.6,0.8,2.9s-0.3,2.2-0.8,2.9c-0.5,0.7-1.3,1-2.3,1
		c-0.5,0-0.9-0.1-1.3-0.3s-0.7-0.5-1-0.8h-0.1l-0.2,1h-0.8V81.7h1.1v2.6c0,0.6,0,1.1-0.1,1.6h0.1C248.1,85.1,248.9,84.7,249.9,84.7z
		 M249.8,85.7c-0.8,0-1.3,0.2-1.7,0.7s-0.5,1.2-0.5,2.2s0.2,1.8,0.5,2.3c0.4,0.5,0.9,0.7,1.7,0.7c0.7,0,1.2-0.3,1.6-0.8
		s0.5-1.2,0.5-2.2c0-1-0.2-1.7-0.5-2.2S250.5,85.7,249.8,85.7z"/>
	<path class="st7" d="M258.2,92.5c-1.1,0-2-0.3-2.6-1c-0.6-0.7-1-1.6-1-2.8c0-1.2,0.3-2.2,0.9-2.9s1.4-1.1,2.4-1.1
		c0.9,0,1.7,0.3,2.2,0.9s0.8,1.4,0.8,2.4v0.7h-5.2c0,0.9,0.2,1.5,0.7,2c0.4,0.5,1,0.7,1.8,0.7c0.8,0,1.6-0.2,2.4-0.5v1
		c-0.4,0.2-0.8,0.3-1.1,0.4C259.1,92.4,258.7,92.5,258.2,92.5z M257.9,85.7c-0.6,0-1.1,0.2-1.4,0.6c-0.4,0.4-0.6,0.9-0.6,1.6h3.9
		c0-0.7-0.2-1.3-0.5-1.6S258.5,85.7,257.9,85.7z"/>
	<path class="st7" d="M276.1,92.4v-4.9c0-0.6-0.1-1-0.4-1.3s-0.7-0.4-1.2-0.4c-0.7,0-1.2,0.2-1.6,0.6s-0.5,1-0.5,1.9v4.2h-1.1v-4.9
		c0-0.6-0.1-1-0.4-1.3s-0.7-0.4-1.2-0.4c-0.7,0-1.2,0.2-1.6,0.6c-0.3,0.4-0.5,1.1-0.5,2.1v3.9h-1.1v-7.5h0.9l0.2,1h0.1
		c0.2-0.4,0.5-0.6,0.9-0.9c0.4-0.2,0.8-0.3,1.3-0.3c1.2,0,1.9,0.4,2.3,1.3h0.1c0.2-0.4,0.5-0.7,1-0.9s0.9-0.3,1.4-0.3
		c0.8,0,1.5,0.2,1.9,0.7c0.4,0.4,0.6,1.1,0.6,2.1v4.9H276.1z"/>
	<path class="st7" d="M279.4,82.8c0-0.3,0.1-0.5,0.2-0.6s0.3-0.2,0.5-0.2c0.2,0,0.3,0.1,0.5,0.2s0.2,0.3,0.2,0.6s-0.1,0.4-0.2,0.6
		s-0.3,0.2-0.5,0.2c-0.2,0-0.4-0.1-0.5-0.2S279.4,83.1,279.4,82.8z M280.7,92.4h-1.1v-7.5h1.1V92.4z"/>
	<path class="st7" d="M288.2,92.4v-4.8c0-0.6-0.1-1.1-0.4-1.4s-0.7-0.5-1.3-0.5c-0.8,0-1.4,0.2-1.7,0.6s-0.5,1.1-0.5,2.1v3.9h-1.1
		v-7.5h0.9l0.2,1h0.1c0.2-0.4,0.6-0.7,1-0.9s0.9-0.3,1.4-0.3c0.9,0,1.6,0.2,2,0.7s0.7,1.1,0.7,2.1v4.9H288.2z"/>
	<path class="st7" d="M298.1,88.6c0,1.2-0.3,2.2-0.9,2.9s-1.5,1-2.5,1c-0.7,0-1.3-0.2-1.8-0.5s-0.9-0.8-1.2-1.4s-0.4-1.3-0.4-2.1
		c0-1.2,0.3-2.2,0.9-2.9s1.5-1,2.5-1c1,0,1.9,0.3,2.5,1C297.8,86.5,298.1,87.4,298.1,88.6z M292.4,88.6c0,1,0.2,1.7,0.6,2.2
		s0.9,0.8,1.7,0.8s1.3-0.2,1.7-0.7c0.4-0.5,0.6-1.2,0.6-2.2c0-1-0.2-1.7-0.6-2.2c-0.4-0.5-1-0.7-1.7-0.7c-0.7,0-1.3,0.2-1.7,0.7
		S292.4,87.6,292.4,88.6z"/>
	<path class="st7" d="M303.5,84.7c0.3,0,0.6,0,0.9,0.1l-0.2,1.1c-0.3-0.1-0.6-0.1-0.8-0.1c-0.6,0-1.1,0.2-1.6,0.7
		c-0.4,0.5-0.6,1.1-0.6,1.8v4h-1.1v-7.5h0.9l0.1,1.4h0.1c0.3-0.5,0.6-0.9,1-1.1S303.1,84.7,303.5,84.7z"/>
	<path class="st7" d="M312.5,92.5c-1.1,0-1.9-0.3-2.5-1c-0.6-0.7-0.9-1.6-0.9-2.8c0-1.3,0.3-2.2,0.9-2.9c0.6-0.7,1.5-1,2.6-1
		c0.4,0,0.7,0,1.1,0.1s0.6,0.2,0.8,0.3l-0.3,1c-0.3-0.1-0.5-0.2-0.8-0.2s-0.6-0.1-0.8-0.1c-1.5,0-2.3,1-2.3,2.9
		c0,0.9,0.2,1.6,0.6,2.1c0.4,0.5,0.9,0.7,1.7,0.7c0.6,0,1.3-0.1,1.9-0.4v1C313.9,92.4,313.2,92.5,312.5,92.5z"/>
	<path class="st7" d="M321.3,92.4v-4.8c0-0.6-0.1-1.1-0.4-1.4s-0.7-0.5-1.3-0.5c-0.8,0-1.4,0.2-1.7,0.6c-0.4,0.4-0.5,1.1-0.5,2.1
		v3.9h-1.1V81.7h1.1v3.2c0,0.4,0,0.7-0.1,1h0.1c0.2-0.4,0.5-0.6,1-0.9c0.4-0.2,0.9-0.3,1.4-0.3c0.9,0,1.6,0.2,2.1,0.7
		c0.5,0.4,0.7,1.1,0.7,2.1v4.9H321.3z"/>
	<path class="st7" d="M329.3,92.4l-0.2-1.1h-0.1c-0.4,0.5-0.7,0.8-1.1,1c-0.4,0.2-0.8,0.2-1.4,0.2c-0.7,0-1.3-0.2-1.7-0.6
		c-0.4-0.4-0.6-0.9-0.6-1.6c0-1.5,1.2-2.3,3.6-2.4l1.3,0v-0.5c0-0.6-0.1-1-0.4-1.3c-0.3-0.3-0.7-0.4-1.2-0.4c-0.6,0-1.3,0.2-2.1,0.6
		l-0.3-0.9c0.4-0.2,0.8-0.4,1.2-0.5c0.4-0.1,0.9-0.2,1.3-0.2c0.9,0,1.6,0.2,2,0.6c0.4,0.4,0.6,1,0.6,1.9v5.1H329.3z M326.8,91.6
		c0.7,0,1.3-0.2,1.7-0.6c0.4-0.4,0.6-0.9,0.6-1.6v-0.7l-1.1,0c-0.9,0-1.6,0.2-2,0.4c-0.4,0.2-0.6,0.6-0.6,1.2c0,0.4,0.1,0.7,0.4,0.9
		C326,91.4,326.3,91.6,326.8,91.6z"/>
	<path class="st7" d="M337.6,92.4v-4.8c0-0.6-0.1-1.1-0.4-1.4s-0.7-0.5-1.3-0.5c-0.8,0-1.4,0.2-1.7,0.6s-0.5,1.1-0.5,2.1v3.9h-1.1
		v-7.5h0.9l0.2,1h0.1c0.2-0.4,0.6-0.7,1-0.9s0.9-0.3,1.4-0.3c0.9,0,1.6,0.2,2,0.7s0.7,1.1,0.7,2.1v4.9H337.6z"/>
	<path class="st7" d="M347.2,84.9v0.7l-1.4,0.2c0.1,0.2,0.2,0.4,0.3,0.6s0.2,0.5,0.2,0.9c0,0.7-0.3,1.3-0.8,1.8s-1.2,0.7-2.1,0.7
		c-0.2,0-0.4,0-0.6-0.1c-0.5,0.3-0.7,0.6-0.7,1c0,0.2,0.1,0.4,0.3,0.5s0.5,0.1,0.9,0.1h1.3c0.8,0,1.4,0.2,1.9,0.5
		c0.4,0.3,0.7,0.8,0.7,1.5c0,0.8-0.3,1.5-1,1.9c-0.7,0.4-1.6,0.7-2.9,0.7c-1,0-1.7-0.2-2.3-0.5c-0.5-0.4-0.8-0.9-0.8-1.5
		c0-0.5,0.1-0.9,0.4-1.2s0.7-0.6,1.2-0.7c-0.2-0.1-0.4-0.2-0.5-0.4c-0.1-0.2-0.2-0.4-0.2-0.6c0-0.3,0.1-0.5,0.2-0.7s0.4-0.4,0.7-0.6
		c-0.4-0.2-0.7-0.4-0.9-0.8c-0.2-0.4-0.4-0.8-0.4-1.3c0-0.8,0.2-1.5,0.7-1.9s1.2-0.7,2.1-0.7c0.4,0,0.7,0,1.1,0.1H347.2z
		 M341.3,93.6c0,0.4,0.2,0.7,0.5,0.9c0.3,0.2,0.8,0.3,1.5,0.3c1,0,1.7-0.1,2.1-0.4c0.5-0.3,0.7-0.7,0.7-1.2c0-0.4-0.1-0.7-0.4-0.8
		s-0.7-0.2-1.4-0.2h-1.4c-0.5,0-0.9,0.1-1.2,0.4S341.3,93.1,341.3,93.6z M341.9,87.3c0,0.5,0.1,0.9,0.4,1.2s0.7,0.4,1.2,0.4
		c1.1,0,1.7-0.5,1.7-1.6c0-1.1-0.6-1.7-1.7-1.7c-0.5,0-0.9,0.1-1.2,0.4S341.9,86.7,341.9,87.3z"/>
	<path class="st7" d="M351.9,92.5c-1.1,0-2-0.3-2.6-1c-0.6-0.7-1-1.6-1-2.8c0-1.2,0.3-2.2,0.9-2.9c0.6-0.7,1.4-1.1,2.4-1.1
		c0.9,0,1.7,0.3,2.2,0.9s0.8,1.4,0.8,2.4v0.7h-5.2c0,0.9,0.2,1.5,0.7,2c0.4,0.5,1,0.7,1.8,0.7c0.8,0,1.6-0.2,2.4-0.5v1
		c-0.4,0.2-0.8,0.3-1.1,0.4C352.9,92.4,352.5,92.5,351.9,92.5z M351.6,85.7c-0.6,0-1.1,0.2-1.4,0.6c-0.4,0.4-0.6,0.9-0.6,1.6h3.9
		c0-0.7-0.2-1.3-0.5-1.6S352.2,85.7,351.6,85.7z"/>
	<path class="st7" d="M361.5,90.3c0,0.7-0.3,1.2-0.8,1.6s-1.2,0.6-2.2,0.6c-1,0-1.8-0.2-2.3-0.5V91c0.4,0.2,0.7,0.3,1.2,0.4
		c0.4,0.1,0.8,0.2,1.2,0.2c0.6,0,1-0.1,1.4-0.3s0.5-0.5,0.5-0.9c0-0.3-0.1-0.5-0.4-0.7c-0.3-0.2-0.7-0.5-1.5-0.7
		c-0.7-0.3-1.2-0.5-1.5-0.7c-0.3-0.2-0.5-0.4-0.7-0.7c-0.1-0.2-0.2-0.5-0.2-0.9c0-0.6,0.2-1.1,0.7-1.4s1.2-0.5,2-0.5
		c0.8,0,1.6,0.2,2.4,0.5l-0.4,0.9c-0.8-0.3-1.4-0.5-2-0.5c-0.5,0-0.9,0.1-1.2,0.3s-0.4,0.4-0.4,0.7c0,0.2,0.1,0.4,0.2,0.5
		c0.1,0.1,0.3,0.3,0.5,0.4s0.7,0.3,1.3,0.6c0.9,0.3,1.5,0.6,1.8,1C361.3,89.4,361.5,89.8,361.5,90.3z"/>
	<path class="st7" d="M369.4,91.6c0.2,0,0.4,0,0.6,0s0.3-0.1,0.4-0.1v0.9c-0.1,0.1-0.3,0.1-0.5,0.1c-0.2,0-0.5,0.1-0.6,0.1
		c-1.4,0-2.2-0.8-2.2-2.3v-4.5H366v-0.5l1.1-0.5l0.5-1.6h0.7v1.7h2.2v0.9h-2.2v4.4c0,0.5,0.1,0.8,0.3,1S369,91.6,369.4,91.6z"/>
	<path class="st7" d="M378.4,88.6c0,1.2-0.3,2.2-0.9,2.9s-1.5,1-2.5,1c-0.7,0-1.3-0.2-1.8-0.5s-0.9-0.8-1.2-1.4s-0.4-1.3-0.4-2.1
		c0-1.2,0.3-2.2,0.9-2.9s1.5-1,2.5-1c1,0,1.9,0.3,2.5,1C378.1,86.5,378.4,87.4,378.4,88.6z M372.7,88.6c0,1,0.2,1.7,0.6,2.2
		s0.9,0.8,1.7,0.8s1.3-0.2,1.7-0.7c0.4-0.5,0.6-1.2,0.6-2.2c0-1-0.2-1.7-0.6-2.2c-0.4-0.5-1-0.7-1.7-0.7c-0.7,0-1.3,0.2-1.7,0.7
		S372.7,87.6,372.7,88.6z"/>
	<path class="st7" d="M387,92.5c-1.1,0-1.9-0.3-2.5-1c-0.6-0.7-0.9-1.6-0.9-2.8c0-1.3,0.3-2.2,0.9-2.9c0.6-0.7,1.5-1,2.6-1
		c0.4,0,0.7,0,1.1,0.1s0.6,0.2,0.8,0.3l-0.3,1c-0.3-0.1-0.5-0.2-0.8-0.2s-0.6-0.1-0.8-0.1c-1.5,0-2.3,1-2.3,2.9
		c0,0.9,0.2,1.6,0.6,2.1c0.4,0.5,0.9,0.7,1.7,0.7c0.6,0,1.3-0.1,1.9-0.4v1C388.4,92.4,387.7,92.5,387,92.5z"/>
	<path class="st7" d="M397.1,88.6c0,1.2-0.3,2.2-0.9,2.9s-1.5,1-2.5,1c-0.7,0-1.3-0.2-1.8-0.5s-0.9-0.8-1.2-1.4s-0.4-1.3-0.4-2.1
		c0-1.2,0.3-2.2,0.9-2.9s1.5-1,2.5-1c1,0,1.9,0.3,2.5,1C396.8,86.5,397.1,87.4,397.1,88.6z M391.4,88.6c0,1,0.2,1.7,0.6,2.2
		s0.9,0.8,1.7,0.8s1.3-0.2,1.7-0.7c0.4-0.5,0.6-1.2,0.6-2.2c0-1-0.2-1.7-0.6-2.2c-0.4-0.5-1-0.7-1.7-0.7c-0.7,0-1.3,0.2-1.7,0.7
		S391.4,87.6,391.4,88.6z"/>
	<path class="st7" d="M408.7,92.4v-4.9c0-0.6-0.1-1-0.4-1.3s-0.7-0.4-1.2-0.4c-0.7,0-1.2,0.2-1.6,0.6s-0.5,1-0.5,1.9v4.2h-1.1v-4.9
		c0-0.6-0.1-1-0.4-1.3s-0.7-0.4-1.2-0.4c-0.7,0-1.2,0.2-1.6,0.6c-0.3,0.4-0.5,1.1-0.5,2.1v3.9h-1.1v-7.5h0.9l0.2,1h0.1
		c0.2-0.4,0.5-0.6,0.9-0.9c0.4-0.2,0.8-0.3,1.3-0.3c1.2,0,1.9,0.4,2.3,1.3h0.1c0.2-0.4,0.5-0.7,1-0.9s0.9-0.3,1.4-0.3
		c0.8,0,1.5,0.2,1.9,0.7c0.4,0.4,0.6,1.1,0.6,2.1v4.9H408.7z"/>
	<path class="st7" d="M415.3,92.5c-1.1,0-2-0.3-2.6-1c-0.6-0.7-1-1.6-1-2.8c0-1.2,0.3-2.2,0.9-2.9c0.6-0.7,1.4-1.1,2.4-1.1
		c0.9,0,1.7,0.3,2.2,0.9s0.8,1.4,0.8,2.4v0.7h-5.2c0,0.9,0.2,1.5,0.7,2c0.4,0.5,1,0.7,1.8,0.7c0.8,0,1.6-0.2,2.4-0.5v1
		c-0.4,0.2-0.8,0.3-1.1,0.4C416.2,92.4,415.8,92.5,415.3,92.5z M415,85.7c-0.6,0-1.1,0.2-1.4,0.6c-0.4,0.4-0.6,0.9-0.6,1.6h3.9
		c0-0.7-0.2-1.3-0.5-1.6S415.6,85.7,415,85.7z"/>
	<path class="st7" d="M419.8,91.6c0-0.3,0.1-0.5,0.2-0.7c0.1-0.2,0.3-0.2,0.6-0.2c0.3,0,0.5,0.1,0.6,0.2c0.1,0.2,0.2,0.4,0.2,0.7
		c0,0.3-0.1,0.5-0.2,0.7s-0.4,0.2-0.6,0.2c-0.2,0-0.4-0.1-0.6-0.2C419.9,92.2,419.8,92,419.8,91.6z"/>
</g>
<g>
	<path class="st7" d="M69.8,118.8h-1.2v-9h-3.2v-1H73v1h-3.2V118.8z"/>
	<path class="st7" d="M79.4,118.8V114c0-0.6-0.1-1.1-0.4-1.4c-0.3-0.3-0.7-0.5-1.3-0.5c-0.8,0-1.4,0.2-1.7,0.6
		c-0.4,0.4-0.5,1.1-0.5,2.1v3.9h-1.1v-10.6h1.1v3.2c0,0.4,0,0.7-0.1,1h0.1c0.2-0.4,0.5-0.6,1-0.9c0.4-0.2,0.9-0.3,1.4-0.3
		c0.9,0,1.6,0.2,2.1,0.7c0.5,0.4,0.7,1.1,0.7,2.1v4.9H79.4z"/>
	<path class="st7" d="M82.8,109.3c0-0.3,0.1-0.5,0.2-0.6c0.1-0.1,0.3-0.2,0.5-0.2c0.2,0,0.3,0.1,0.5,0.2c0.1,0.1,0.2,0.3,0.2,0.6
		c0,0.3-0.1,0.4-0.2,0.6c-0.1,0.1-0.3,0.2-0.5,0.2c-0.2,0-0.4-0.1-0.5-0.2C82.9,109.8,82.8,109.6,82.8,109.3z M84,118.8h-1.1v-7.5
		H84V118.8z"/>
	<path class="st7" d="M91.3,116.8c0,0.7-0.3,1.2-0.8,1.6c-0.5,0.4-1.2,0.6-2.2,0.6c-1,0-1.8-0.2-2.3-0.5v-1.1
		c0.4,0.2,0.7,0.3,1.2,0.4c0.4,0.1,0.8,0.2,1.2,0.2c0.6,0,1-0.1,1.4-0.3c0.3-0.2,0.5-0.5,0.5-0.9c0-0.3-0.1-0.5-0.4-0.7
		c-0.3-0.2-0.7-0.5-1.5-0.7c-0.7-0.3-1.2-0.5-1.5-0.7c-0.3-0.2-0.5-0.4-0.7-0.7s-0.2-0.5-0.2-0.9c0-0.6,0.2-1.1,0.7-1.4
		c0.5-0.4,1.2-0.5,2-0.5c0.8,0,1.6,0.2,2.4,0.5l-0.4,0.9c-0.8-0.3-1.4-0.5-2-0.5c-0.5,0-0.9,0.1-1.2,0.3c-0.3,0.2-0.4,0.4-0.4,0.7
		c0,0.2,0.1,0.4,0.2,0.5c0.1,0.1,0.3,0.3,0.5,0.4c0.2,0.1,0.7,0.3,1.3,0.6c0.9,0.3,1.5,0.6,1.8,1C91.1,115.9,91.3,116.3,91.3,116.8z
		"/>
	<path class="st7" d="M101.4,118.8L98,110h-0.1c0.1,0.7,0.1,1.5,0.1,2.5v6.4h-1.1v-10h1.8l3.2,8.2h0.1l3.2-8.2h1.7v10h-1.2v-6.4
		c0-0.7,0-1.5,0.1-2.4h-0.1l-3.4,8.8H101.4z"/>
	<path class="st7" d="M114,118.8l-0.2-1.1h-0.1c-0.4,0.5-0.7,0.8-1.1,1c-0.4,0.2-0.8,0.2-1.4,0.2c-0.7,0-1.3-0.2-1.7-0.6
		c-0.4-0.4-0.6-0.9-0.6-1.6c0-1.5,1.2-2.3,3.6-2.4l1.3,0v-0.5c0-0.6-0.1-1-0.4-1.3s-0.7-0.4-1.2-0.4c-0.6,0-1.3,0.2-2.1,0.6
		l-0.3-0.9c0.4-0.2,0.8-0.4,1.2-0.5c0.4-0.1,0.9-0.2,1.3-0.2c0.9,0,1.6,0.2,2,0.6s0.6,1,0.6,1.9v5.1H114z M111.4,118
		c0.7,0,1.3-0.2,1.7-0.6c0.4-0.4,0.6-0.9,0.6-1.6v-0.7l-1.1,0c-0.9,0-1.6,0.2-2,0.4c-0.4,0.2-0.6,0.6-0.6,1.2c0,0.4,0.1,0.7,0.4,0.9
		C110.7,117.9,111,118,111.4,118z"/>
	<path class="st7" d="M122.3,118.8V114c0-0.6-0.1-1.1-0.4-1.4c-0.3-0.3-0.7-0.5-1.3-0.5c-0.8,0-1.4,0.2-1.7,0.6
		c-0.4,0.4-0.5,1.1-0.5,2.1v3.9h-1.1v-7.5h0.9l0.2,1h0.1c0.2-0.4,0.6-0.7,1-0.9c0.4-0.2,0.9-0.3,1.4-0.3c0.9,0,1.6,0.2,2,0.7
		c0.5,0.4,0.7,1.1,0.7,2.1v4.9H122.3z"/>
	<path class="st7" d="M130.4,118.8l-0.2-1.1h-0.1c-0.4,0.5-0.7,0.8-1.1,1c-0.4,0.2-0.8,0.2-1.4,0.2c-0.7,0-1.3-0.2-1.7-0.6
		c-0.4-0.4-0.6-0.9-0.6-1.6c0-1.5,1.2-2.3,3.6-2.4l1.3,0v-0.5c0-0.6-0.1-1-0.4-1.3s-0.7-0.4-1.2-0.4c-0.6,0-1.3,0.2-2.1,0.6
		l-0.3-0.9c0.4-0.2,0.8-0.4,1.2-0.5c0.4-0.1,0.9-0.2,1.3-0.2c0.9,0,1.6,0.2,2,0.6s0.6,1,0.6,1.9v5.1H130.4z M127.8,118
		c0.7,0,1.3-0.2,1.7-0.6c0.4-0.4,0.6-0.9,0.6-1.6v-0.7l-1.1,0c-0.9,0-1.6,0.2-2,0.4c-0.4,0.2-0.6,0.6-0.6,1.2c0,0.4,0.1,0.7,0.4,0.9
		C127,117.9,127.4,118,127.8,118z"/>
	<path class="st7" d="M139.7,111.3v0.7l-1.4,0.2c0.1,0.2,0.2,0.4,0.3,0.6c0.1,0.3,0.2,0.5,0.2,0.9c0,0.7-0.3,1.3-0.8,1.8
		c-0.5,0.4-1.2,0.7-2.1,0.7c-0.2,0-0.4,0-0.6-0.1c-0.5,0.3-0.7,0.6-0.7,1c0,0.2,0.1,0.4,0.3,0.5c0.2,0.1,0.5,0.1,0.9,0.1h1.3
		c0.8,0,1.4,0.2,1.9,0.5c0.4,0.3,0.7,0.8,0.7,1.5c0,0.8-0.3,1.5-1,1.9c-0.7,0.4-1.6,0.7-2.9,0.7c-1,0-1.7-0.2-2.3-0.5
		c-0.5-0.4-0.8-0.9-0.8-1.5c0-0.5,0.1-0.8,0.4-1.2c0.3-0.3,0.7-0.6,1.2-0.7c-0.2-0.1-0.4-0.2-0.5-0.4c-0.1-0.2-0.2-0.4-0.2-0.6
		c0-0.3,0.1-0.5,0.2-0.7c0.1-0.2,0.4-0.4,0.7-0.6c-0.4-0.2-0.7-0.4-0.9-0.8c-0.2-0.4-0.4-0.8-0.4-1.3c0-0.8,0.2-1.5,0.7-1.9
		s1.2-0.7,2.1-0.7c0.4,0,0.7,0,1.1,0.1H139.7z M133.7,120.1c0,0.4,0.2,0.7,0.5,0.9c0.3,0.2,0.8,0.3,1.5,0.3c1,0,1.7-0.1,2.1-0.4
		c0.5-0.3,0.7-0.7,0.7-1.2c0-0.4-0.1-0.7-0.4-0.8c-0.3-0.2-0.7-0.2-1.4-0.2h-1.4c-0.5,0-0.9,0.1-1.2,0.4S133.7,119.6,133.7,120.1z
		 M134.3,113.7c0,0.5,0.1,0.9,0.4,1.2c0.3,0.3,0.7,0.4,1.2,0.4c1.1,0,1.7-0.5,1.7-1.6c0-1.1-0.6-1.7-1.7-1.7c-0.5,0-0.9,0.1-1.2,0.4
		S134.3,113.2,134.3,113.7z"/>
	<path class="st7" d="M144.4,119c-1.1,0-2-0.3-2.6-1c-0.6-0.7-1-1.6-1-2.8c0-1.2,0.3-2.2,0.9-2.9s1.4-1.1,2.4-1.1
		c0.9,0,1.7,0.3,2.2,0.9c0.5,0.6,0.8,1.4,0.8,2.4v0.7H142c0,0.9,0.2,1.5,0.7,2c0.4,0.5,1,0.7,1.8,0.7c0.8,0,1.6-0.2,2.4-0.5v1
		c-0.4,0.2-0.8,0.3-1.1,0.4C145.3,118.9,144.9,119,144.4,119z M144.1,112.2c-0.6,0-1.1,0.2-1.4,0.6c-0.4,0.4-0.6,0.9-0.6,1.6h3.9
		c0-0.7-0.2-1.3-0.5-1.6C145.1,112.3,144.7,112.2,144.1,112.2z"/>
	<path class="st7" d="M152.5,111.2c0.3,0,0.6,0,0.9,0.1l-0.2,1.1c-0.3-0.1-0.6-0.1-0.8-0.1c-0.6,0-1.1,0.2-1.6,0.7s-0.6,1.1-0.6,1.8
		v4h-1.1v-7.5h0.9l0.1,1.4h0.1c0.3-0.5,0.6-0.9,1-1.1C151.6,111.3,152,111.2,152.5,111.2z"/>
	<path class="st7" d="M158.4,109.3c0-0.3,0.1-0.5,0.2-0.6c0.1-0.1,0.3-0.2,0.5-0.2c0.2,0,0.3,0.1,0.5,0.2c0.1,0.1,0.2,0.3,0.2,0.6
		c0,0.3-0.1,0.4-0.2,0.6c-0.1,0.1-0.3,0.2-0.5,0.2c-0.2,0-0.4-0.1-0.5-0.2C158.4,109.8,158.4,109.6,158.4,109.3z M159.6,118.8h-1.1
		v-7.5h1.1V118.8z"/>
	<path class="st7" d="M166.8,116.8c0,0.7-0.3,1.2-0.8,1.6c-0.5,0.4-1.2,0.6-2.2,0.6c-1,0-1.8-0.2-2.3-0.5v-1.1
		c0.4,0.2,0.7,0.3,1.2,0.4c0.4,0.1,0.8,0.2,1.2,0.2c0.6,0,1-0.1,1.4-0.3c0.3-0.2,0.5-0.5,0.5-0.9c0-0.3-0.1-0.5-0.4-0.7
		c-0.3-0.2-0.7-0.5-1.5-0.7c-0.7-0.3-1.2-0.5-1.5-0.7c-0.3-0.2-0.5-0.4-0.7-0.7s-0.2-0.5-0.2-0.9c0-0.6,0.2-1.1,0.7-1.4
		c0.5-0.4,1.2-0.5,2-0.5c0.8,0,1.6,0.2,2.4,0.5l-0.4,0.9c-0.8-0.3-1.4-0.5-2-0.5c-0.5,0-0.9,0.1-1.2,0.3c-0.3,0.2-0.4,0.4-0.4,0.7
		c0,0.2,0.1,0.4,0.2,0.5c0.1,0.1,0.3,0.3,0.5,0.4c0.2,0.1,0.7,0.3,1.3,0.6c0.9,0.3,1.5,0.6,1.8,1
		C166.7,115.9,166.8,116.3,166.8,116.8z"/>
	<path class="st7" d="M175.7,112.2h-1.9v6.6h-1.1v-6.6h-1.3v-0.5l1.3-0.4v-0.4c0-1.8,0.8-2.8,2.4-2.8c0.4,0,0.9,0.1,1.4,0.2
		l-0.3,0.9c-0.4-0.1-0.8-0.2-1.1-0.2c-0.4,0-0.7,0.1-1,0.4c-0.2,0.3-0.3,0.7-0.3,1.4v0.5h1.9V112.2z"/>
	<path class="st7" d="M180.2,119c-1.1,0-2-0.3-2.6-1c-0.6-0.7-1-1.6-1-2.8c0-1.2,0.3-2.2,0.9-2.9s1.4-1.1,2.4-1.1
		c0.9,0,1.7,0.3,2.2,0.9c0.5,0.6,0.8,1.4,0.8,2.4v0.7h-5.2c0,0.9,0.2,1.5,0.7,2c0.4,0.5,1,0.7,1.8,0.7c0.8,0,1.6-0.2,2.4-0.5v1
		c-0.4,0.2-0.8,0.3-1.1,0.4C181.1,118.9,180.7,119,180.2,119z M179.9,112.2c-0.6,0-1.1,0.2-1.4,0.6c-0.4,0.4-0.6,0.9-0.6,1.6h3.9
		c0-0.7-0.2-1.3-0.5-1.6C181,112.3,180.5,112.2,179.9,112.2z"/>
	<path class="st7" d="M189.5,118.8l-0.2-1.1h-0.1c-0.4,0.5-0.7,0.8-1.1,1c-0.4,0.2-0.8,0.2-1.4,0.2c-0.7,0-1.3-0.2-1.7-0.6
		c-0.4-0.4-0.6-0.9-0.6-1.6c0-1.5,1.2-2.3,3.6-2.4l1.3,0v-0.5c0-0.6-0.1-1-0.4-1.3s-0.7-0.4-1.2-0.4c-0.6,0-1.3,0.2-2.1,0.6
		l-0.3-0.9c0.4-0.2,0.8-0.4,1.2-0.5c0.4-0.1,0.9-0.2,1.3-0.2c0.9,0,1.6,0.2,2,0.6s0.6,1,0.6,1.9v5.1H189.5z M186.9,118
		c0.7,0,1.3-0.2,1.7-0.6c0.4-0.4,0.6-0.9,0.6-1.6v-0.7l-1.1,0c-0.9,0-1.6,0.2-2,0.4c-0.4,0.2-0.6,0.6-0.6,1.2c0,0.4,0.1,0.7,0.4,0.9
		C186.2,117.9,186.5,118,186.9,118z"/>
	<path class="st7" d="M195.1,118c0.2,0,0.4,0,0.6,0c0.2,0,0.3-0.1,0.4-0.1v0.9c-0.1,0.1-0.3,0.1-0.5,0.1c-0.2,0-0.5,0.1-0.6,0.1
		c-1.4,0-2.2-0.8-2.2-2.3v-4.5h-1.1v-0.5l1.1-0.5l0.5-1.6h0.7v1.7h2.2v0.9h-2.2v4.4c0,0.5,0.1,0.8,0.3,1
		C194.4,117.9,194.7,118,195.1,118z"/>
	<path class="st7" d="M198.7,111.3v4.9c0,0.6,0.1,1.1,0.4,1.4c0.3,0.3,0.7,0.5,1.3,0.5c0.8,0,1.4-0.2,1.7-0.6
		c0.4-0.4,0.5-1.1,0.5-2.1v-3.9h1.1v7.5h-0.9l-0.2-1h-0.1c-0.2,0.4-0.6,0.7-1,0.8c-0.4,0.2-0.9,0.3-1.4,0.3c-0.9,0-1.6-0.2-2-0.6
		c-0.5-0.4-0.7-1.1-0.7-2.1v-4.9H198.7z"/>
	<path class="st7" d="M209.6,111.2c0.3,0,0.6,0,0.9,0.1l-0.2,1.1c-0.3-0.1-0.6-0.1-0.8-0.1c-0.6,0-1.1,0.2-1.6,0.7s-0.6,1.1-0.6,1.8
		v4h-1.1v-7.5h0.9l0.1,1.4h0.1c0.3-0.5,0.6-0.9,1-1.1C208.7,111.3,209.2,111.2,209.6,111.2z"/>
	<path class="st7" d="M215.1,119c-1.1,0-2-0.3-2.6-1c-0.6-0.7-1-1.6-1-2.8c0-1.2,0.3-2.2,0.9-2.9s1.4-1.1,2.4-1.1
		c0.9,0,1.7,0.3,2.2,0.9c0.5,0.6,0.8,1.4,0.8,2.4v0.7h-5.2c0,0.9,0.2,1.5,0.7,2c0.4,0.5,1,0.7,1.8,0.7c0.8,0,1.6-0.2,2.4-0.5v1
		c-0.4,0.2-0.8,0.3-1.1,0.4C216,118.9,215.6,119,215.1,119z M214.8,112.2c-0.6,0-1.1,0.2-1.4,0.6c-0.4,0.4-0.6,0.9-0.6,1.6h3.9
		c0-0.7-0.2-1.3-0.5-1.6C215.8,112.3,215.4,112.2,214.8,112.2z"/>
	<path class="st7" d="M226.4,119c-1.1,0-1.9-0.3-2.5-1c-0.6-0.7-0.9-1.6-0.9-2.8c0-1.3,0.3-2.2,0.9-2.9c0.6-0.7,1.5-1,2.6-1
		c0.4,0,0.7,0,1.1,0.1c0.4,0.1,0.6,0.2,0.8,0.3l-0.3,1c-0.3-0.1-0.5-0.2-0.8-0.2c-0.3-0.1-0.6-0.1-0.8-0.1c-1.5,0-2.3,1-2.3,2.9
		c0,0.9,0.2,1.6,0.6,2.1c0.4,0.5,0.9,0.7,1.7,0.7c0.6,0,1.3-0.1,1.9-0.4v1C227.8,118.8,227.2,119,226.4,119z"/>
	<path class="st7" d="M236.6,115.1c0,1.2-0.3,2.2-0.9,2.9c-0.6,0.7-1.5,1-2.5,1c-0.7,0-1.3-0.2-1.8-0.5s-0.9-0.8-1.2-1.4
		c-0.3-0.6-0.4-1.3-0.4-2.1c0-1.2,0.3-2.2,0.9-2.9c0.6-0.7,1.5-1,2.5-1c1,0,1.9,0.3,2.5,1C236.3,112.9,236.6,113.9,236.6,115.1z
		 M230.9,115.1c0,1,0.2,1.7,0.6,2.2c0.4,0.5,0.9,0.8,1.7,0.8c0.7,0,1.3-0.2,1.7-0.7c0.4-0.5,0.6-1.2,0.6-2.2c0-1-0.2-1.7-0.6-2.2
		c-0.4-0.5-1-0.7-1.7-0.7c-0.7,0-1.3,0.2-1.7,0.7C231,113.4,230.9,114.1,230.9,115.1z"/>
	<path class="st7" d="M248.1,118.8V114c0-0.6-0.1-1-0.4-1.3c-0.3-0.3-0.7-0.4-1.2-0.4c-0.7,0-1.2,0.2-1.6,0.6
		c-0.3,0.4-0.5,1-0.5,1.9v4.2h-1.1V114c0-0.6-0.1-1-0.4-1.3c-0.3-0.3-0.7-0.4-1.2-0.4c-0.7,0-1.2,0.2-1.6,0.6
		c-0.3,0.4-0.5,1.1-0.5,2.1v3.9h-1.1v-7.5h0.9l0.2,1h0.1c0.2-0.4,0.5-0.6,0.9-0.9s0.8-0.3,1.3-0.3c1.2,0,1.9,0.4,2.3,1.3h0.1
		c0.2-0.4,0.5-0.7,1-0.9c0.4-0.2,0.9-0.3,1.4-0.3c0.8,0,1.5,0.2,1.9,0.7c0.4,0.4,0.6,1.1,0.6,2.1v4.9H248.1z"/>
	<path class="st7" d="M255.1,119c-0.5,0-0.9-0.1-1.3-0.3c-0.4-0.2-0.7-0.5-1-0.8h-0.1c0.1,0.4,0.1,0.9,0.1,1.2v3.1h-1.1v-10.9h0.9
		l0.2,1h0.1c0.3-0.4,0.6-0.7,1-0.9c0.4-0.2,0.8-0.3,1.3-0.3c1,0,1.8,0.3,2.3,1c0.5,0.7,0.8,1.6,0.8,2.9c0,1.2-0.3,2.2-0.8,2.9
		C256.8,118.6,256,119,255.1,119z M254.9,112.2c-0.8,0-1.3,0.2-1.7,0.6s-0.5,1.1-0.5,2v0.3c0,1.1,0.2,1.8,0.5,2.3
		c0.4,0.5,0.9,0.7,1.7,0.7c0.6,0,1.2-0.3,1.5-0.8c0.4-0.5,0.6-1.2,0.6-2.2c0-0.9-0.2-1.7-0.6-2.1
		C256.1,112.4,255.6,112.2,254.9,112.2z"/>
	<path class="st7" d="M261.3,118.8h-1.1v-10.6h1.1V118.8z"/>
	<path class="st7" d="M266.9,119c-1.1,0-2-0.3-2.6-1c-0.6-0.7-1-1.6-1-2.8c0-1.2,0.3-2.2,0.9-2.9c0.6-0.7,1.4-1.1,2.4-1.1
		c0.9,0,1.7,0.3,2.2,0.9c0.5,0.6,0.8,1.4,0.8,2.4v0.7h-5.2c0,0.9,0.2,1.5,0.7,2c0.4,0.5,1,0.7,1.8,0.7c0.8,0,1.6-0.2,2.4-0.5v1
		c-0.4,0.2-0.8,0.3-1.1,0.4C267.8,118.9,267.4,119,266.9,119z M266.6,112.2c-0.6,0-1.1,0.2-1.4,0.6c-0.4,0.4-0.6,0.9-0.6,1.6h3.9
		c0-0.7-0.2-1.3-0.5-1.6C267.6,112.3,267.1,112.2,266.6,112.2z"/>
	<path class="st7" d="M274,118c0.2,0,0.4,0,0.6,0c0.2,0,0.3-0.1,0.4-0.1v0.9c-0.1,0.1-0.3,0.1-0.5,0.1c-0.2,0-0.5,0.1-0.6,0.1
		c-1.4,0-2.2-0.8-2.2-2.3v-4.5h-1.1v-0.5l1.1-0.5l0.5-1.6h0.7v1.7h2.2v0.9h-2.2v4.4c0,0.5,0.1,0.8,0.3,1
		C273.3,117.9,273.6,118,274,118z"/>
	<path class="st7" d="M279.7,119c-1.1,0-2-0.3-2.6-1c-0.6-0.7-1-1.6-1-2.8c0-1.2,0.3-2.2,0.9-2.9c0.6-0.7,1.4-1.1,2.4-1.1
		c0.9,0,1.7,0.3,2.2,0.9c0.5,0.6,0.8,1.4,0.8,2.4v0.7h-5.2c0,0.9,0.2,1.5,0.7,2c0.4,0.5,1,0.7,1.8,0.7c0.8,0,1.6-0.2,2.4-0.5v1
		c-0.4,0.2-0.8,0.3-1.1,0.4C280.6,118.9,280.2,119,279.7,119z M279.3,112.2c-0.6,0-1.1,0.2-1.4,0.6c-0.4,0.4-0.6,0.9-0.6,1.6h3.9
		c0-0.7-0.2-1.3-0.5-1.6C280.4,112.3,279.9,112.2,279.3,112.2z"/>
	<path class="st7" d="M285.5,117.2l0.1,0.2c-0.1,0.5-0.3,1-0.5,1.6c-0.2,0.6-0.5,1.2-0.7,1.7h-0.9c0.1-0.5,0.3-1.1,0.4-1.8
		c0.1-0.7,0.3-1.3,0.3-1.7H285.5z"/>
	<path class="st7" d="M296.5,118.8V114c0-0.6-0.1-1.1-0.4-1.4s-0.7-0.5-1.3-0.5c-0.8,0-1.4,0.2-1.7,0.6c-0.4,0.4-0.5,1.1-0.5,2.1
		v3.9h-1.1v-10.6h1.1v3.2c0,0.4,0,0.7-0.1,1h0.1c0.2-0.4,0.5-0.6,1-0.9c0.4-0.2,0.9-0.3,1.4-0.3c0.9,0,1.6,0.2,2.1,0.7
		c0.5,0.4,0.7,1.1,0.7,2.1v4.9H296.5z"/>
	<path class="st7" d="M304.6,118.8l-0.2-1.1h-0.1c-0.4,0.5-0.7,0.8-1.1,1c-0.4,0.2-0.8,0.2-1.4,0.2c-0.7,0-1.3-0.2-1.7-0.6
		c-0.4-0.4-0.6-0.9-0.6-1.6c0-1.5,1.2-2.3,3.6-2.4l1.3,0v-0.5c0-0.6-0.1-1-0.4-1.3c-0.3-0.3-0.7-0.4-1.2-0.4c-0.6,0-1.3,0.2-2.1,0.6
		l-0.3-0.9c0.4-0.2,0.8-0.4,1.2-0.5c0.4-0.1,0.9-0.2,1.3-0.2c0.9,0,1.6,0.2,2,0.6c0.4,0.4,0.6,1,0.6,1.9v5.1H304.6z M302,118
		c0.7,0,1.3-0.2,1.7-0.6c0.4-0.4,0.6-0.9,0.6-1.6v-0.7l-1.1,0c-0.9,0-1.6,0.2-2,0.4c-0.4,0.2-0.6,0.6-0.6,1.2c0,0.4,0.1,0.7,0.4,0.9
		C301.3,117.9,301.6,118,302,118z"/>
	<path class="st7" d="M312.6,116.8c0,0.7-0.3,1.2-0.8,1.6c-0.5,0.4-1.2,0.6-2.2,0.6c-1,0-1.8-0.2-2.3-0.5v-1.1
		c0.4,0.2,0.7,0.3,1.2,0.4c0.4,0.1,0.8,0.2,1.2,0.2c0.6,0,1-0.1,1.4-0.3c0.3-0.2,0.5-0.5,0.5-0.9c0-0.3-0.1-0.5-0.4-0.7
		c-0.3-0.2-0.7-0.5-1.5-0.7c-0.7-0.3-1.2-0.5-1.5-0.7c-0.3-0.2-0.5-0.4-0.7-0.7c-0.1-0.2-0.2-0.5-0.2-0.9c0-0.6,0.2-1.1,0.7-1.4
		c0.5-0.4,1.2-0.5,2-0.5c0.8,0,1.6,0.2,2.4,0.5l-0.4,0.9c-0.8-0.3-1.4-0.5-2-0.5c-0.5,0-0.9,0.1-1.2,0.3c-0.3,0.2-0.4,0.4-0.4,0.7
		c0,0.2,0.1,0.4,0.2,0.5c0.1,0.1,0.3,0.3,0.5,0.4c0.2,0.1,0.7,0.3,1.3,0.6c0.9,0.3,1.5,0.6,1.8,1
		C312.5,115.9,312.6,116.3,312.6,116.8z"/>
	<path class="st7" d="M321.6,119c-0.5,0-0.9-0.1-1.3-0.3c-0.4-0.2-0.7-0.5-1-0.8h-0.1c0.1,0.4,0.1,0.9,0.1,1.2v3.1h-1.1v-10.9h0.9
		l0.2,1h0.1c0.3-0.4,0.6-0.7,1-0.9c0.4-0.2,0.8-0.3,1.3-0.3c1,0,1.8,0.3,2.3,1c0.5,0.7,0.8,1.6,0.8,2.9c0,1.2-0.3,2.2-0.8,2.9
		C323.3,118.6,322.6,119,321.6,119z M321.4,112.2c-0.8,0-1.3,0.2-1.7,0.6s-0.5,1.1-0.5,2v0.3c0,1.1,0.2,1.8,0.5,2.3
		c0.4,0.5,0.9,0.7,1.7,0.7c0.6,0,1.2-0.3,1.5-0.8c0.4-0.5,0.5-1.2,0.5-2.2c0-0.9-0.2-1.7-0.5-2.1
		C322.6,112.4,322.1,112.2,321.4,112.2z"/>
	<path class="st7" d="M331.3,118.8l-0.2-1.1H331c-0.4,0.5-0.7,0.8-1.1,1c-0.4,0.2-0.8,0.2-1.4,0.2c-0.7,0-1.3-0.2-1.7-0.6
		c-0.4-0.4-0.6-0.9-0.6-1.6c0-1.5,1.2-2.3,3.6-2.4l1.3,0v-0.5c0-0.6-0.1-1-0.4-1.3c-0.3-0.3-0.7-0.4-1.2-0.4c-0.6,0-1.3,0.2-2.1,0.6
		l-0.3-0.9c0.4-0.2,0.8-0.4,1.2-0.5c0.4-0.1,0.9-0.2,1.3-0.2c0.9,0,1.6,0.2,2,0.6c0.4,0.4,0.6,1,0.6,1.9v5.1H331.3z M328.7,118
		c0.7,0,1.3-0.2,1.7-0.6c0.4-0.4,0.6-0.9,0.6-1.6v-0.7l-1.1,0c-0.9,0-1.6,0.2-2,0.4c-0.4,0.2-0.6,0.6-0.6,1.2c0,0.4,0.1,0.7,0.4,0.9
		C327.9,117.9,328.3,118,328.7,118z"/>
	<path class="st7" d="M339.3,116.8c0,0.7-0.3,1.2-0.8,1.6c-0.5,0.4-1.2,0.6-2.2,0.6c-1,0-1.8-0.2-2.3-0.5v-1.1
		c0.4,0.2,0.7,0.3,1.2,0.4c0.4,0.1,0.8,0.2,1.2,0.2c0.6,0,1-0.1,1.4-0.3c0.3-0.2,0.5-0.5,0.5-0.9c0-0.3-0.1-0.5-0.4-0.7
		c-0.3-0.2-0.7-0.5-1.5-0.7c-0.7-0.3-1.2-0.5-1.5-0.7c-0.3-0.2-0.5-0.4-0.7-0.7c-0.1-0.2-0.2-0.5-0.2-0.9c0-0.6,0.2-1.1,0.7-1.4
		c0.5-0.4,1.2-0.5,2-0.5c0.8,0,1.6,0.2,2.4,0.5l-0.4,0.9c-0.8-0.3-1.4-0.5-2-0.5c-0.5,0-0.9,0.1-1.2,0.3c-0.3,0.2-0.4,0.4-0.4,0.7
		c0,0.2,0.1,0.4,0.2,0.5c0.1,0.1,0.3,0.3,0.5,0.4c0.2,0.1,0.7,0.3,1.3,0.6c0.9,0.3,1.5,0.6,1.8,1
		C339.1,115.9,339.3,116.3,339.3,116.8z"/>
	<path class="st7" d="M346,116.8c0,0.7-0.3,1.2-0.8,1.6c-0.5,0.4-1.2,0.6-2.2,0.6c-1,0-1.8-0.2-2.3-0.5v-1.1
		c0.4,0.2,0.7,0.3,1.2,0.4c0.4,0.1,0.8,0.2,1.2,0.2c0.6,0,1-0.1,1.4-0.3c0.3-0.2,0.5-0.5,0.5-0.9c0-0.3-0.1-0.5-0.4-0.7
		c-0.3-0.2-0.7-0.5-1.5-0.7c-0.7-0.3-1.2-0.5-1.5-0.7c-0.3-0.2-0.5-0.4-0.7-0.7c-0.1-0.2-0.2-0.5-0.2-0.9c0-0.6,0.2-1.1,0.7-1.4
		c0.5-0.4,1.2-0.5,2-0.5c0.8,0,1.6,0.2,2.4,0.5l-0.4,0.9c-0.8-0.3-1.4-0.5-2-0.5c-0.5,0-0.9,0.1-1.2,0.3c-0.3,0.2-0.4,0.4-0.4,0.7
		c0,0.2,0.1,0.4,0.2,0.5c0.1,0.1,0.3,0.3,0.5,0.4c0.2,0.1,0.7,0.3,1.3,0.6c0.9,0.3,1.5,0.6,1.8,1C345.8,115.9,346,116.3,346,116.8z"
		/>
	<path class="st7" d="M351,119c-1.1,0-2-0.3-2.6-1c-0.6-0.7-1-1.6-1-2.8c0-1.2,0.3-2.2,0.9-2.9c0.6-0.7,1.4-1.1,2.4-1.1
		c0.9,0,1.7,0.3,2.2,0.9c0.5,0.6,0.8,1.4,0.8,2.4v0.7h-5.2c0,0.9,0.2,1.5,0.7,2c0.4,0.5,1,0.7,1.8,0.7c0.8,0,1.6-0.2,2.4-0.5v1
		c-0.4,0.2-0.8,0.3-1.1,0.4C351.9,118.9,351.5,119,351,119z M350.7,112.2c-0.6,0-1.1,0.2-1.4,0.6c-0.4,0.4-0.6,0.9-0.6,1.6h3.9
		c0-0.7-0.2-1.3-0.5-1.6C351.7,112.3,351.3,112.2,350.7,112.2z"/>
	<path class="st7" d="M360.8,117.8L360.8,117.8c-0.6,0.8-1.4,1.1-2.4,1.1c-1,0-1.7-0.3-2.3-1c-0.5-0.7-0.8-1.6-0.8-2.9
		c0-1.2,0.3-2.2,0.8-2.9s1.3-1,2.3-1c1,0,1.8,0.4,2.3,1.1h0.1l0-0.5l0-0.5v-3h1.1v10.6h-0.9L360.8,117.8z M358.5,118
		c0.8,0,1.3-0.2,1.7-0.6c0.3-0.4,0.5-1.1,0.5-2v-0.2c0-1.1-0.2-1.8-0.5-2.3c-0.4-0.5-0.9-0.7-1.7-0.7c-0.7,0-1.2,0.3-1.5,0.8
		c-0.4,0.5-0.5,1.2-0.5,2.2c0,1,0.2,1.7,0.5,2.2C357.3,117.8,357.8,118,358.5,118z"/>
	<path class="st7" d="M372.5,118.8l-0.2-1.1h-0.1c-0.4,0.5-0.7,0.8-1.1,1c-0.4,0.2-0.8,0.2-1.4,0.2c-0.7,0-1.3-0.2-1.7-0.6
		c-0.4-0.4-0.6-0.9-0.6-1.6c0-1.5,1.2-2.3,3.6-2.4l1.3,0v-0.5c0-0.6-0.1-1-0.4-1.3c-0.3-0.3-0.7-0.4-1.2-0.4c-0.6,0-1.3,0.2-2.1,0.6
		l-0.3-0.9c0.4-0.2,0.8-0.4,1.2-0.5c0.4-0.1,0.9-0.2,1.3-0.2c0.9,0,1.6,0.2,2,0.6c0.4,0.4,0.6,1,0.6,1.9v5.1H372.5z M369.9,118
		c0.7,0,1.3-0.2,1.7-0.6c0.4-0.4,0.6-0.9,0.6-1.6v-0.7l-1.1,0c-0.9,0-1.6,0.2-2,0.4c-0.4,0.2-0.6,0.6-0.6,1.2c0,0.4,0.1,0.7,0.4,0.9
		C369.1,117.9,369.5,118,369.9,118z"/>
	<path class="st7" d="M376.8,118.8h-1.1v-10.6h1.1V118.8z"/>
	<path class="st7" d="M380.4,118.8h-1.1v-10.6h1.1V118.8z"/>
	<path class="st7" d="M388.8,118c0.2,0,0.4,0,0.6,0c0.2,0,0.3-0.1,0.4-0.1v0.9c-0.1,0.1-0.3,0.1-0.5,0.1c-0.2,0-0.5,0.1-0.6,0.1
		c-1.4,0-2.2-0.8-2.2-2.3v-4.5h-1.1v-0.5l1.1-0.5l0.5-1.6h0.7v1.7h2.2v0.9h-2.2v4.4c0,0.5,0.1,0.8,0.3,1
		C388.2,117.9,388.5,118,388.8,118z"/>
	<path class="st7" d="M394.5,119c-1.1,0-2-0.3-2.6-1c-0.6-0.7-1-1.6-1-2.8c0-1.2,0.3-2.2,0.9-2.9c0.6-0.7,1.4-1.1,2.4-1.1
		c0.9,0,1.7,0.3,2.2,0.9c0.5,0.6,0.8,1.4,0.8,2.4v0.7h-5.2c0,0.9,0.2,1.5,0.7,2c0.4,0.5,1,0.7,1.8,0.7c0.8,0,1.6-0.2,2.4-0.5v1
		c-0.4,0.2-0.8,0.3-1.1,0.4C395.4,118.9,395,119,394.5,119z M394.2,112.2c-0.6,0-1.1,0.2-1.4,0.6c-0.4,0.4-0.6,0.9-0.6,1.6h3.9
		c0-0.7-0.2-1.3-0.5-1.6C395.3,112.3,394.8,112.2,394.2,112.2z"/>
	<path class="st7" d="M404,116.8c0,0.7-0.3,1.2-0.8,1.6c-0.5,0.4-1.2,0.6-2.2,0.6c-1,0-1.8-0.2-2.3-0.5v-1.1
		c0.4,0.2,0.7,0.3,1.2,0.4c0.4,0.1,0.8,0.2,1.2,0.2c0.6,0,1-0.1,1.4-0.3c0.3-0.2,0.5-0.5,0.5-0.9c0-0.3-0.1-0.5-0.4-0.7
		c-0.3-0.2-0.7-0.5-1.5-0.7c-0.7-0.3-1.2-0.5-1.5-0.7c-0.3-0.2-0.5-0.4-0.7-0.7c-0.1-0.2-0.2-0.5-0.2-0.9c0-0.6,0.2-1.1,0.7-1.4
		c0.5-0.4,1.2-0.5,2-0.5c0.8,0,1.6,0.2,2.4,0.5l-0.4,0.9c-0.8-0.3-1.4-0.5-2-0.5c-0.5,0-0.9,0.1-1.2,0.3c-0.3,0.2-0.4,0.4-0.4,0.7
		c0,0.2,0.1,0.4,0.2,0.5c0.1,0.1,0.3,0.3,0.5,0.4c0.2,0.1,0.7,0.3,1.3,0.6c0.9,0.3,1.5,0.6,1.8,1C403.9,115.9,404,116.3,404,116.8z"
		/>
	<path class="st7" d="M408.3,118c0.2,0,0.4,0,0.6,0c0.2,0,0.3-0.1,0.4-0.1v0.9c-0.1,0.1-0.3,0.1-0.5,0.1c-0.2,0-0.5,0.1-0.6,0.1
		c-1.4,0-2.2-0.8-2.2-2.3v-4.5h-1.1v-0.5l1.1-0.5l0.5-1.6h0.7v1.7h2.2v0.9h-2.2v4.4c0,0.5,0.1,0.8,0.3,1
		C407.6,117.9,407.9,118,408.3,118z"/>
	<path class="st7" d="M415.7,116.8c0,0.7-0.3,1.2-0.8,1.6c-0.5,0.4-1.2,0.6-2.2,0.6c-1,0-1.8-0.2-2.3-0.5v-1.1
		c0.4,0.2,0.7,0.3,1.2,0.4c0.4,0.1,0.8,0.2,1.2,0.2c0.6,0,1-0.1,1.4-0.3c0.3-0.2,0.5-0.5,0.5-0.9c0-0.3-0.1-0.5-0.4-0.7
		c-0.3-0.2-0.7-0.5-1.5-0.7c-0.7-0.3-1.2-0.5-1.5-0.7c-0.3-0.2-0.5-0.4-0.7-0.7c-0.1-0.2-0.2-0.5-0.2-0.9c0-0.6,0.2-1.1,0.7-1.4
		c0.5-0.4,1.2-0.5,2-0.5c0.8,0,1.6,0.2,2.4,0.5l-0.4,0.9c-0.8-0.3-1.4-0.5-2-0.5c-0.5,0-0.9,0.1-1.2,0.3c-0.3,0.2-0.4,0.4-0.4,0.7
		c0,0.2,0.1,0.4,0.2,0.5c0.1,0.1,0.3,0.3,0.5,0.4c0.2,0.1,0.7,0.3,1.3,0.6c0.9,0.3,1.5,0.6,1.8,1
		C415.5,115.9,415.7,116.3,415.7,116.8z"/>
	<path class="st7" d="M425.7,118.8l-0.2-1.1h-0.1c-0.4,0.5-0.7,0.8-1.1,1c-0.4,0.2-0.8,0.2-1.4,0.2c-0.7,0-1.3-0.2-1.7-0.6
		c-0.4-0.4-0.6-0.9-0.6-1.6c0-1.5,1.2-2.3,3.6-2.4l1.3,0v-0.5c0-0.6-0.1-1-0.4-1.3c-0.3-0.3-0.7-0.4-1.2-0.4c-0.6,0-1.3,0.2-2.1,0.6
		l-0.3-0.9c0.4-0.2,0.8-0.4,1.2-0.5c0.4-0.1,0.9-0.2,1.3-0.2c0.9,0,1.6,0.2,2,0.6c0.4,0.4,0.6,1,0.6,1.9v5.1H425.7z M423.2,118
		c0.7,0,1.3-0.2,1.7-0.6c0.4-0.4,0.6-0.9,0.6-1.6v-0.7l-1.1,0c-0.9,0-1.6,0.2-2,0.4c-0.4,0.2-0.6,0.6-0.6,1.2c0,0.4,0.1,0.7,0.4,0.9
		C422.4,117.9,422.7,118,423.2,118z"/>
	<path class="st7" d="M434.1,118.8V114c0-0.6-0.1-1.1-0.4-1.4s-0.7-0.5-1.3-0.5c-0.8,0-1.4,0.2-1.7,0.6s-0.5,1.1-0.5,2.1v3.9h-1.1
		v-7.5h0.9l0.2,1h0.1c0.2-0.4,0.6-0.7,1-0.9c0.4-0.2,0.9-0.3,1.4-0.3c0.9,0,1.6,0.2,2,0.7c0.5,0.4,0.7,1.1,0.7,2.1v4.9H434.1z"/>
	<path class="st7" d="M442.6,117.8L442.6,117.8c-0.6,0.8-1.4,1.1-2.4,1.1c-1,0-1.7-0.3-2.3-1c-0.5-0.7-0.8-1.6-0.8-2.9
		c0-1.2,0.3-2.2,0.8-2.9s1.3-1,2.3-1c1,0,1.8,0.4,2.3,1.1h0.1l0-0.5l0-0.5v-3h1.1v10.6h-0.9L442.6,117.8z M440.3,118
		c0.8,0,1.3-0.2,1.7-0.6c0.3-0.4,0.5-1.1,0.5-2v-0.2c0-1.1-0.2-1.8-0.5-2.3c-0.4-0.5-0.9-0.7-1.7-0.7c-0.7,0-1.2,0.3-1.5,0.8
		c-0.4,0.5-0.5,1.2-0.5,2.2c0,1,0.2,1.7,0.5,2.2C439.2,117.8,439.7,118,440.3,118z"/>
	<path class="st7" d="M66.5,126.1c0-0.3,0.1-0.5,0.2-0.6c0.1-0.1,0.3-0.2,0.5-0.2c0.2,0,0.3,0.1,0.5,0.2c0.1,0.1,0.2,0.3,0.2,0.6
		c0,0.3-0.1,0.4-0.2,0.6c-0.1,0.1-0.3,0.2-0.5,0.2c-0.2,0-0.4-0.1-0.5-0.2C66.5,126.6,66.5,126.4,66.5,126.1z M67.7,135.6h-1.1v-7.5
		h1.1V135.6z"/>
	<path class="st7" d="M74.9,133.6c0,0.7-0.3,1.2-0.8,1.6c-0.5,0.4-1.2,0.6-2.2,0.6c-1,0-1.8-0.2-2.3-0.5v-1.1
		c0.4,0.2,0.7,0.3,1.2,0.4c0.4,0.1,0.8,0.2,1.2,0.2c0.6,0,1-0.1,1.4-0.3c0.3-0.2,0.5-0.5,0.5-0.9c0-0.3-0.1-0.5-0.4-0.7
		c-0.3-0.2-0.7-0.5-1.5-0.7c-0.7-0.3-1.2-0.5-1.5-0.7c-0.3-0.2-0.5-0.4-0.7-0.7s-0.2-0.5-0.2-0.9c0-0.6,0.2-1.1,0.7-1.4
		c0.5-0.4,1.2-0.5,2-0.5c0.8,0,1.6,0.2,2.4,0.5l-0.4,0.9c-0.8-0.3-1.4-0.5-2-0.5c-0.5,0-0.9,0.1-1.2,0.3c-0.3,0.2-0.4,0.4-0.4,0.7
		c0,0.2,0.1,0.4,0.2,0.5c0.1,0.1,0.3,0.3,0.5,0.4c0.2,0.1,0.7,0.3,1.3,0.6c0.9,0.3,1.5,0.6,1.8,1C74.8,132.7,74.9,133.1,74.9,133.6z
		"/>
	<path class="st7" d="M85.5,134.6L85.5,134.6c-0.6,0.8-1.4,1.1-2.4,1.1c-1,0-1.7-0.3-2.3-1c-0.5-0.7-0.8-1.6-0.8-2.9
		c0-1.2,0.3-2.2,0.8-2.9s1.3-1,2.3-1c1,0,1.8,0.4,2.3,1.1h0.1l0-0.5l0-0.5v-3h1.1v10.6h-0.9L85.5,134.6z M83.3,134.8
		c0.8,0,1.3-0.2,1.7-0.6c0.3-0.4,0.5-1.1,0.5-2v-0.2c0-1.1-0.2-1.8-0.5-2.3c-0.4-0.5-0.9-0.7-1.7-0.7c-0.7,0-1.2,0.3-1.5,0.8
		c-0.4,0.5-0.5,1.2-0.5,2.2c0,1,0.2,1.7,0.5,2.2C82.1,134.6,82.6,134.8,83.3,134.8z"/>
	<path class="st7" d="M92.2,135.8c-1.1,0-2-0.3-2.6-1c-0.6-0.7-1-1.6-1-2.8c0-1.2,0.3-2.2,0.9-2.9s1.4-1.1,2.4-1.1
		c0.9,0,1.7,0.3,2.2,0.9c0.5,0.6,0.8,1.4,0.8,2.4v0.7h-5.2c0,0.9,0.2,1.5,0.7,2c0.4,0.5,1,0.7,1.8,0.7c0.8,0,1.6-0.2,2.4-0.5v1
		c-0.4,0.2-0.8,0.3-1.1,0.4C93.1,135.7,92.7,135.8,92.2,135.8z M91.9,129c-0.6,0-1.1,0.2-1.4,0.6c-0.4,0.4-0.6,0.9-0.6,1.6h3.9
		c0-0.7-0.2-1.3-0.5-1.6C92.9,129.1,92.5,129,91.9,129z"/>
	<path class="st7" d="M100,135.8c-1.1,0-2-0.3-2.6-1c-0.6-0.7-1-1.6-1-2.8c0-1.2,0.3-2.2,0.9-2.9s1.4-1.1,2.4-1.1
		c0.9,0,1.7,0.3,2.2,0.9c0.5,0.6,0.8,1.4,0.8,2.4v0.7h-5.2c0,0.9,0.2,1.5,0.7,2c0.4,0.5,1,0.7,1.8,0.7c0.8,0,1.6-0.2,2.4-0.5v1
		c-0.4,0.2-0.8,0.3-1.1,0.4C101,135.7,100.5,135.8,100,135.8z M99.7,129c-0.6,0-1.1,0.2-1.4,0.6c-0.4,0.4-0.6,0.9-0.6,1.6h3.9
		c0-0.7-0.2-1.3-0.5-1.6C100.8,129.1,100.3,129,99.7,129z"/>
	<path class="st7" d="M114.3,135.6v-4.9c0-0.6-0.1-1-0.4-1.3c-0.3-0.3-0.7-0.4-1.2-0.4c-0.7,0-1.2,0.2-1.6,0.6
		c-0.3,0.4-0.5,1-0.5,1.9v4.2h-1.1v-4.9c0-0.6-0.1-1-0.4-1.3c-0.3-0.3-0.7-0.4-1.2-0.4c-0.7,0-1.2,0.2-1.6,0.6
		c-0.3,0.4-0.5,1.1-0.5,2.1v3.9h-1.1v-7.5h0.9l0.2,1h0.1c0.2-0.4,0.5-0.6,0.9-0.9s0.8-0.3,1.3-0.3c1.2,0,1.9,0.4,2.3,1.3h0.1
		c0.2-0.4,0.5-0.7,1-0.9c0.4-0.2,0.9-0.3,1.4-0.3c0.8,0,1.5,0.2,1.9,0.7c0.4,0.4,0.6,1.1,0.6,2.1v4.9H114.3z"/>
	<path class="st7" d="M120.9,135.8c-1.1,0-2-0.3-2.6-1c-0.6-0.7-1-1.6-1-2.8c0-1.2,0.3-2.2,0.9-2.9s1.4-1.1,2.4-1.1
		c0.9,0,1.7,0.3,2.2,0.9c0.5,0.6,0.8,1.4,0.8,2.4v0.7h-5.2c0,0.9,0.2,1.5,0.7,2c0.4,0.5,1,0.7,1.8,0.7c0.8,0,1.6-0.2,2.4-0.5v1
		c-0.4,0.2-0.8,0.3-1.1,0.4C121.8,135.7,121.4,135.8,120.9,135.8z M120.6,129c-0.6,0-1.1,0.2-1.4,0.6c-0.4,0.4-0.6,0.9-0.6,1.6h3.9
		c0-0.7-0.2-1.3-0.5-1.6C121.6,129.1,121.2,129,120.6,129z"/>
	<path class="st7" d="M130.7,134.6L130.7,134.6c-0.6,0.8-1.4,1.1-2.4,1.1c-1,0-1.7-0.3-2.3-1c-0.5-0.7-0.8-1.6-0.8-2.9
		c0-1.2,0.3-2.2,0.8-2.9s1.3-1,2.3-1c1,0,1.8,0.4,2.3,1.1h0.1l0-0.5l0-0.5v-3h1.1v10.6h-0.9L130.7,134.6z M128.4,134.8
		c0.8,0,1.3-0.2,1.7-0.6c0.3-0.4,0.5-1.1,0.5-2v-0.2c0-1.1-0.2-1.8-0.5-2.3c-0.4-0.5-0.9-0.7-1.7-0.7c-0.7,0-1.2,0.3-1.5,0.8
		c-0.4,0.5-0.5,1.2-0.5,2.2c0,1,0.2,1.7,0.5,2.2C127.2,134.6,127.7,134.8,128.4,134.8z"/>
	<path class="st7" d="M141.2,128c0.3,0,0.6,0,0.9,0.1l-0.2,1.1c-0.3-0.1-0.6-0.1-0.8-0.1c-0.6,0-1.1,0.2-1.6,0.7s-0.6,1.1-0.6,1.8v4
		h-1.1v-7.5h0.9l0.1,1.4h0.1c0.3-0.5,0.6-0.9,1-1.1C140.3,128.1,140.8,128,141.2,128z"/>
	<path class="st7" d="M146.7,135.8c-1.1,0-2-0.3-2.6-1c-0.6-0.7-1-1.6-1-2.8c0-1.2,0.3-2.2,0.9-2.9s1.4-1.1,2.4-1.1
		c0.9,0,1.7,0.3,2.2,0.9c0.5,0.6,0.8,1.4,0.8,2.4v0.7h-5.2c0,0.9,0.2,1.5,0.7,2c0.4,0.5,1,0.7,1.8,0.7c0.8,0,1.6-0.2,2.4-0.5v1
		c-0.4,0.2-0.8,0.3-1.1,0.4C147.6,135.7,147.2,135.8,146.7,135.8z M146.4,129c-0.6,0-1.1,0.2-1.4,0.6c-0.4,0.4-0.6,0.9-0.6,1.6h3.9
		c0-0.7-0.2-1.3-0.5-1.6C147.4,129.1,147,129,146.4,129z"/>
	<path class="st7" d="M152.5,135.6h-1.1V125h1.1V135.6z"/>
	<path class="st7" d="M158.1,135.8c-1.1,0-2-0.3-2.6-1c-0.6-0.7-1-1.6-1-2.8c0-1.2,0.3-2.2,0.9-2.9s1.4-1.1,2.4-1.1
		c0.9,0,1.7,0.3,2.2,0.9c0.5,0.6,0.8,1.4,0.8,2.4v0.7h-5.2c0,0.9,0.2,1.5,0.7,2c0.4,0.5,1,0.7,1.8,0.7c0.8,0,1.6-0.2,2.4-0.5v1
		c-0.4,0.2-0.8,0.3-1.1,0.4C159,135.7,158.6,135.8,158.1,135.8z M157.8,129c-0.6,0-1.1,0.2-1.4,0.6c-0.4,0.4-0.6,0.9-0.6,1.6h3.9
		c0-0.7-0.2-1.3-0.5-1.6C158.8,129.1,158.4,129,157.8,129z"/>
	<path class="st7" d="M167.4,135.6l-0.2-1.1h-0.1c-0.4,0.5-0.7,0.8-1.1,1c-0.4,0.2-0.8,0.2-1.4,0.2c-0.7,0-1.3-0.2-1.7-0.6
		c-0.4-0.4-0.6-0.9-0.6-1.6c0-1.5,1.2-2.3,3.6-2.4l1.3,0v-0.5c0-0.6-0.1-1-0.4-1.3s-0.7-0.4-1.2-0.4c-0.6,0-1.3,0.2-2.1,0.6
		l-0.3-0.9c0.4-0.2,0.8-0.4,1.2-0.5c0.4-0.1,0.9-0.2,1.3-0.2c0.9,0,1.6,0.2,2,0.6s0.6,1,0.6,1.9v5.1H167.4z M164.8,134.8
		c0.7,0,1.3-0.2,1.7-0.6c0.4-0.4,0.6-0.9,0.6-1.6V132l-1.1,0c-0.9,0-1.6,0.2-2,0.4c-0.4,0.2-0.6,0.6-0.6,1.2c0,0.4,0.1,0.7,0.4,0.9
		C164,134.7,164.4,134.8,164.8,134.8z"/>
	<path class="st7" d="M175.4,133.6c0,0.7-0.3,1.2-0.8,1.6c-0.5,0.4-1.2,0.6-2.2,0.6c-1,0-1.8-0.2-2.3-0.5v-1.1
		c0.4,0.2,0.7,0.3,1.2,0.4c0.4,0.1,0.8,0.2,1.2,0.2c0.6,0,1-0.1,1.4-0.3c0.3-0.2,0.5-0.5,0.5-0.9c0-0.3-0.1-0.5-0.4-0.7
		c-0.3-0.2-0.7-0.5-1.5-0.7c-0.7-0.3-1.2-0.5-1.5-0.7c-0.3-0.2-0.5-0.4-0.7-0.7s-0.2-0.5-0.2-0.9c0-0.6,0.2-1.1,0.7-1.4
		c0.5-0.4,1.2-0.5,2-0.5c0.8,0,1.6,0.2,2.4,0.5l-0.4,0.9c-0.8-0.3-1.4-0.5-2-0.5c-0.5,0-0.9,0.1-1.2,0.3c-0.3,0.2-0.4,0.4-0.4,0.7
		c0,0.2,0.1,0.4,0.2,0.5c0.1,0.1,0.3,0.3,0.5,0.4c0.2,0.1,0.7,0.3,1.3,0.6c0.9,0.3,1.5,0.6,1.8,1
		C175.2,132.7,175.4,133.1,175.4,133.6z"/>
	<path class="st7" d="M180.4,135.8c-1.1,0-2-0.3-2.6-1c-0.6-0.7-1-1.6-1-2.8c0-1.2,0.3-2.2,0.9-2.9s1.4-1.1,2.4-1.1
		c0.9,0,1.7,0.3,2.2,0.9c0.5,0.6,0.8,1.4,0.8,2.4v0.7H178c0,0.9,0.2,1.5,0.7,2c0.4,0.5,1,0.7,1.8,0.7c0.8,0,1.6-0.2,2.4-0.5v1
		c-0.4,0.2-0.8,0.3-1.1,0.4C181.3,135.7,180.9,135.8,180.4,135.8z M180.1,129c-0.6,0-1.1,0.2-1.4,0.6c-0.4,0.4-0.6,0.9-0.6,1.6h3.9
		c0-0.7-0.2-1.3-0.5-1.6C181.1,129.1,180.7,129,180.1,129z"/>
	<path class="st7" d="M194.9,128.1v0.7l-1.4,0.2c0.1,0.2,0.2,0.4,0.3,0.6c0.1,0.3,0.2,0.5,0.2,0.9c0,0.7-0.3,1.3-0.8,1.8
		c-0.5,0.4-1.2,0.7-2.1,0.7c-0.2,0-0.4,0-0.6-0.1c-0.5,0.3-0.7,0.6-0.7,1c0,0.2,0.1,0.4,0.3,0.5c0.2,0.1,0.5,0.1,0.9,0.1h1.3
		c0.8,0,1.4,0.2,1.9,0.5c0.4,0.3,0.7,0.8,0.7,1.5c0,0.8-0.3,1.5-1,1.9c-0.7,0.4-1.6,0.7-2.9,0.7c-1,0-1.7-0.2-2.3-0.5
		c-0.5-0.4-0.8-0.9-0.8-1.5c0-0.5,0.1-0.8,0.4-1.2c0.3-0.3,0.7-0.6,1.2-0.7c-0.2-0.1-0.4-0.2-0.5-0.4c-0.1-0.2-0.2-0.4-0.2-0.6
		c0-0.3,0.1-0.5,0.2-0.7c0.1-0.2,0.4-0.4,0.7-0.6c-0.4-0.2-0.7-0.4-0.9-0.8c-0.2-0.4-0.4-0.8-0.4-1.3c0-0.8,0.2-1.5,0.7-1.9
		s1.2-0.7,2.1-0.7c0.4,0,0.7,0,1.1,0.1H194.9z M188.9,136.9c0,0.4,0.2,0.7,0.5,0.9c0.3,0.2,0.8,0.3,1.5,0.3c1,0,1.7-0.1,2.1-0.4
		c0.5-0.3,0.7-0.7,0.7-1.2c0-0.4-0.1-0.7-0.4-0.8c-0.3-0.2-0.7-0.2-1.4-0.2h-1.4c-0.5,0-0.9,0.1-1.2,0.4S188.9,136.4,188.9,136.9z
		 M189.5,130.5c0,0.5,0.1,0.9,0.4,1.2c0.3,0.3,0.7,0.4,1.2,0.4c1.1,0,1.7-0.5,1.7-1.6c0-1.1-0.6-1.7-1.7-1.7c-0.5,0-0.9,0.1-1.2,0.4
		S189.5,130,189.5,130.5z"/>
	<path class="st7" d="M199.8,128c0.3,0,0.6,0,0.9,0.1l-0.2,1.1c-0.3-0.1-0.6-0.1-0.8-0.1c-0.6,0-1.1,0.2-1.6,0.7s-0.6,1.1-0.6,1.8v4
		h-1.1v-7.5h0.9l0.1,1.4h0.1c0.3-0.5,0.6-0.9,1-1.1C198.9,128.1,199.3,128,199.8,128z"/>
	<path class="st7" d="M206.7,135.6l-0.2-1.1h-0.1c-0.4,0.5-0.7,0.8-1.1,1c-0.4,0.2-0.8,0.2-1.4,0.2c-0.7,0-1.3-0.2-1.7-0.6
		c-0.4-0.4-0.6-0.9-0.6-1.6c0-1.5,1.2-2.3,3.6-2.4l1.3,0v-0.5c0-0.6-0.1-1-0.4-1.3s-0.7-0.4-1.2-0.4c-0.6,0-1.3,0.2-2.1,0.6
		l-0.3-0.9c0.4-0.2,0.8-0.4,1.2-0.5c0.4-0.1,0.9-0.2,1.3-0.2c0.9,0,1.6,0.2,2,0.6s0.6,1,0.6,1.9v5.1H206.7z M204.2,134.8
		c0.7,0,1.3-0.2,1.7-0.6c0.4-0.4,0.6-0.9,0.6-1.6V132l-1.1,0c-0.9,0-1.6,0.2-2,0.4c-0.4,0.2-0.6,0.6-0.6,1.2c0,0.4,0.1,0.7,0.4,0.9
		C203.4,134.7,203.7,134.8,204.2,134.8z"/>
	<path class="st7" d="M215,134.6L215,134.6c-0.6,0.8-1.4,1.1-2.4,1.1c-1,0-1.7-0.3-2.3-1c-0.5-0.7-0.8-1.6-0.8-2.9
		c0-1.2,0.3-2.2,0.8-2.9s1.3-1,2.3-1c1,0,1.8,0.4,2.3,1.1h0.1l0-0.5l0-0.5v-3h1.1v10.6h-0.9L215,134.6z M212.7,134.8
		c0.8,0,1.3-0.2,1.7-0.6c0.3-0.4,0.5-1.1,0.5-2v-0.2c0-1.1-0.2-1.8-0.5-2.3c-0.4-0.5-0.9-0.7-1.7-0.7c-0.7,0-1.2,0.3-1.5,0.8
		c-0.4,0.5-0.5,1.2-0.5,2.2c0,1,0.2,1.7,0.5,2.2C211.5,134.6,212.1,134.8,212.7,134.8z"/>
	<path class="st7" d="M221.6,135.8c-1.1,0-2-0.3-2.6-1c-0.6-0.7-1-1.6-1-2.8c0-1.2,0.3-2.2,0.9-2.9s1.4-1.1,2.4-1.1
		c0.9,0,1.7,0.3,2.2,0.9c0.5,0.6,0.8,1.4,0.8,2.4v0.7h-5.2c0,0.9,0.2,1.5,0.7,2c0.4,0.5,1,0.7,1.8,0.7c0.8,0,1.6-0.2,2.4-0.5v1
		c-0.4,0.2-0.8,0.3-1.1,0.4C222.6,135.7,222.2,135.8,221.6,135.8z M221.3,129c-0.6,0-1.1,0.2-1.4,0.6c-0.4,0.4-0.6,0.9-0.6,1.6h3.9
		c0-0.7-0.2-1.3-0.5-1.6C222.4,129.1,221.9,129,221.3,129z"/>
	<path class="st7" d="M226.2,134.9c0-0.3,0.1-0.5,0.2-0.7c0.1-0.2,0.3-0.2,0.6-0.2c0.3,0,0.5,0.1,0.6,0.2c0.1,0.2,0.2,0.4,0.2,0.7
		c0,0.3-0.1,0.5-0.2,0.7c-0.2,0.2-0.4,0.2-0.6,0.2c-0.2,0-0.4-0.1-0.6-0.2C226.2,135.5,226.2,135.2,226.2,134.9z"/>
</g>
<g>
	<path d="M13.2,14.1H11L7.4,8.9L6.3,9.8v4.3H4.5V2.7h1.9v5.5c0.5-0.6,1-1.2,1.5-1.8l3.1-3.6h2.1c-2,2.3-3.4,4-4.3,5L13.2,14.1z"/>
	<path d="M18.3,14.3c-1.3,0-2.4-0.4-3.2-1.2c-0.8-0.8-1.1-1.9-1.1-3.2c0-1.4,0.4-2.5,1.1-3.3c0.7-0.8,1.7-1.2,2.9-1.2
		c1.1,0,2,0.3,2.7,1c0.7,0.7,1,1.6,1,2.9v1h-5.8c0,0.8,0.3,1.5,0.7,1.9c0.4,0.5,1,0.7,1.8,0.7c0.5,0,1,0,1.4-0.1
		c0.4-0.1,0.9-0.3,1.4-0.5v1.5c-0.4,0.2-0.9,0.4-1.4,0.5C19.4,14.2,18.9,14.3,18.3,14.3z M17.9,6.7c-0.6,0-1.1,0.2-1.4,0.6
		c-0.4,0.4-0.6,0.9-0.6,1.6h3.9c0-0.7-0.2-1.3-0.5-1.6C19,6.9,18.5,6.7,17.9,6.7z"/>
	<path d="M22.4,5.5h2l1.8,4.9c0.3,0.7,0.4,1.4,0.5,2h0.1c0-0.3,0.1-0.6,0.3-1c0.1-0.4,0.8-2.4,2-5.8h2l-3.7,9.8
		c-0.7,1.8-1.8,2.7-3.4,2.7c-0.4,0-0.8,0-1.2-0.1v-1.5c0.3,0.1,0.6,0.1,0.9,0.1c0.9,0,1.5-0.5,1.9-1.5l0.3-0.8L22.4,5.5z"/>
</g>
<line class="st4" x1="1.6" y1="100.5" x2="448.5" y2="100.5"/>
<line class="st4" x1="1.6" y1="57.9" x2="448.5" y2="57.9"/>
<rect class="st0" width="448.5" height="139.9"/>
</svg>
