<svg xml:space="preserve" id="key1_svg__Layer_1" width="450" x="0" y="0" style="enable-background:new 0 0 448.5 139.9" version="1.1" viewBox="0 0 448.5 139.9" xmlns="http://www.w3.org/2000/svg">
  <style>
    .key1_svg__st6{fill:#fcfcfc}
  </style>
  <path d="M53 43H6.1C3.8 43 2 41.2 2 38.9v-9.8C2 26.8 3.8 25 6.1 25H53c2.3 0 4.1 1.8 4.1 4.1v9.8c0 2.3-1.9 4.1-4.1 4.1z" style="fill:#c62b27"/>
  <path d="m19.4 38-1.2-2.9h-3.7L13.4 38h-1.1l3.7-9h.9l3.7 9h-1.2zm-1.5-3.8-1.1-2.8c-.1-.4-.3-.8-.4-1.3-.1.4-.2.8-.4 1.3l-1.1 2.8h3zm4.8 3.8h-1.1v-9.6h1.1V38zm5.5.1c-.5 0-.9-.1-1.2-.2s-.7-.4-.9-.7H26c.1.4.1.8.1 1.1V41H25v-9.8h.9l.1.9c.3-.4.6-.6.9-.8s.8-.2 1.2-.2c.9 0 1.6.3 2.1.9.5.6.8 1.5.8 2.6s-.3 2-.8 2.6c-.4.6-1.1.9-2 .9zM28 32c-.7 0-1.2.2-1.5.6-.3.4-.5 1-.5 1.8v.2c0 .9.2 1.6.5 2s.9.6 1.6.6c.6 0 1.1-.2 1.4-.7.3-.5.5-1.1.5-2 0-.8-.2-1.5-.5-1.9s-.8-.6-1.5-.6zm9.7 6v-4.4c0-.6-.1-1-.4-1.2-.3-.3-.7-.4-1.2-.4-.7 0-1.3.2-1.6.6-.3.4-.5 1-.5 1.9V38h-1.1v-9.6H34v2.9c0 .3 0 .6-.1.9h.1c.2-.3.5-.6.9-.8.4-.2.8-.3 1.3-.3.9 0 1.5.2 1.9.6.4.4.6 1 .6 1.9V38h-1zm7.5 0-.2-1c-.3.4-.7.7-1 .9-.3.1-.8.2-1.3.2-.7 0-1.2-.2-1.6-.5-.4-.3-.6-.8-.6-1.5 0-1.4 1.1-2.1 3.4-2.1h1.2v-.4c0-.5-.1-.9-.4-1.2-.3-.3-.7-.4-1.2-.4-.6 0-1.2.2-2 .5l-.3-.8c.3-.2.7-.3 1.1-.4.4-.1.8-.2 1.2-.2.8 0 1.5.2 1.9.5s.6.9.6 1.7V38h-.8zm-2.3-.7c.7 0 1.2-.2 1.6-.5s.6-.8.6-1.5v-.6H44c-.8 0-1.4.2-1.8.4-.4.2-.6.6-.6 1s.1.7.3.8c.2.3.5.4 1 .4z" class="key1_svg__st6"/>
  <path d="M53 84.6H6.1c-2.3 0-4.1-1.8-4.1-4.1v-9.8c0-2.3 1.8-4.1 4.1-4.1H53c2.3 0 4.1 1.8 4.1 4.1v9.8c0 2.2-1.9 4.1-4.1 4.1z" style="fill:#013a93"/>
  <path d="M17.4 70.5H20c1.2 0 2.1.2 2.7.5.6.4.8.9.8 1.7 0 .5-.2 1-.5 1.3-.3.3-.8.6-1.3.7v.1c1.4.2 2.1 1 2.1 2.2 0 .8-.3 1.4-.8 1.9-.6.5-1.4.7-2.4.7h-3.2v-9.1zm1.1 3.9h1.8c.8 0 1.3-.1 1.7-.3.3-.2.5-.6.5-1.2 0-.5-.2-.9-.6-1.1-.4-.2-1-.3-1.8-.3h-1.6v2.9zm0 .9v3.4h1.9c.8 0 1.3-.1 1.7-.4.4-.3.6-.7.6-1.3 0-.6-.2-1-.6-1.2s-1-.4-1.8-.4h-1.8zm10.2 4.4c-1 0-1.8-.3-2.4-.9s-.9-1.5-.9-2.5c0-1.1.3-2 .8-2.6.6-.6 1.3-1 2.2-1 .9 0 1.6.3 2.1.8s.8 1.3.8 2.2v.6h-4.8c0 .8.2 1.4.6 1.8.4.4.9.6 1.7.6.8 0 1.5-.2 2.2-.5v.9c-.4.2-.7.3-1.1.3-.4.2-.8.3-1.2.3zm-.3-6.2c-.6 0-1 .2-1.3.5-.3.4-.5.8-.6 1.5h3.7c0-.6-.1-1.1-.4-1.5-.5-.3-.9-.5-1.4-.5zm6.9 5.3h.5c.2 0 .3-.1.4-.1v.8c-.1.1-.3.1-.5.1s-.4.1-.6.1c-1.4 0-2-.7-2-2.1v-4h-1v-.5l1-.4.4-1.4h.6v1.6h2v.8h-2v4c0 .4.1.7.3.9.3.1.5.2.9.2zm6.6.7-.2-1h-.1c-.3.4-.7.7-1 .9-.3.1-.8.2-1.3.2-.7 0-1.2-.2-1.6-.5-.4-.3-.6-.8-.6-1.5 0-1.4 1.1-2.1 3.4-2.1h1.2v-.4c0-.5-.1-.9-.4-1.2-.2-.3-.6-.4-1.1-.4-.6 0-1.2.2-2 .5l-.3-.8c.3-.2.7-.3 1.1-.4.4-.1.8-.2 1.2-.2.8 0 1.5.2 1.9.5s.6.9.6 1.7v4.6h-.8zm-2.4-.7c.7 0 1.2-.2 1.6-.5s.6-.8.6-1.5v-.6h-1.1c-.8 0-1.4.2-1.8.4-.4.2-.6.6-.6 1s.1.7.3.8c.3.3.6.4 1 .4z" class="key1_svg__st6"/>
  <path d="M53 126.1H6.1c-2.3 0-4.1-1.8-4.1-4.1v-9.8c0-2.3 1.8-4.1 4.1-4.1H53c2.3 0 4.1 1.8 4.1 4.1v9.8c0 2.2-1.9 4.1-4.1 4.1z" style="fill:#259d24"/>
  <path d="M9 116.9v3.7H7.9v-9h2.6c1.1 0 2 .2 2.5.6s.8 1.1.8 1.9c0 1.2-.6 2-1.9 2.4l2.5 4h-1.3l-2.3-3.7H9zm0-.9h1.5c.8 0 1.3-.1 1.7-.4s.5-.7.5-1.3c0-.6-.2-1-.5-1.3s-.9-.4-1.7-.4H9v3.4zm9.8 4.8c-1 0-1.8-.3-2.4-.9-.6-.6-.9-1.5-.9-2.5 0-1.1.3-2 .8-2.6.6-.6 1.3-1 2.2-1 .9 0 1.6.3 2.1.8s.8 1.3.8 2.2v.6h-4.8c0 .8.2 1.4.6 1.8.4.4.9.6 1.7.6.8 0 1.5-.2 2.2-.5v.9c-.4.2-.7.3-1.1.3-.4.3-.8.3-1.2.3zm-.3-6.2c-.6 0-1 .2-1.3.5-.3.4-.5.8-.6 1.5h3.7c0-.6-.1-1.1-.4-1.5s-.9-.5-1.4-.5zm5.7 6.1h-1.1v-9.6h1.1v9.6zm5.2.1c-1 0-1.8-.3-2.4-.9-.6-.6-.9-1.5-.9-2.5 0-1.1.3-2 .8-2.6s1.3-1 2.2-1c.9 0 1.6.3 2.1.8s.8 1.3.8 2.2v.6h-4.8c0 .8.2 1.4.6 1.8.4.4.9.6 1.7.6.8 0 1.5-.2 2.2-.5v.9c-.4.2-.7.3-1.1.3-.4.3-.8.3-1.2.3zm-.3-6.2c-.6 0-1 .2-1.3.5-.3.4-.5.8-.6 1.5h3.7c0-.6-.1-1.1-.4-1.5s-.9-.5-1.4-.5zm8.9 6.1-.2-1h-.1c-.3.4-.7.7-1 .9-.3.1-.8.2-1.3.2-.7 0-1.2-.2-1.6-.5-.4-.3-.6-.8-.6-1.5 0-1.4 1.1-2.1 3.4-2.1h1.2v-.4c0-.5-.1-.9-.4-1.2s-.6-.4-1.1-.4c-.6 0-1.2.2-2 .5l-.3-.8c.3-.2.7-.3 1.1-.4.4-.1.8-.2 1.2-.2.8 0 1.4.2 1.9.5.4.4.6.9.6 1.7v4.6H38zm-2.4-.8c.7 0 1.2-.2 1.6-.5.4-.3.6-.8.6-1.5v-.6h-1.1c-.8 0-1.4.2-1.8.4-.4.2-.6.6-.6 1s.1.7.3.8c.3.3.6.4 1 .4zm9.9-1.1c0 .6-.2 1.1-.7 1.5-.5.3-1.2.5-2 .5-.9 0-1.6-.1-2.2-.4v-.9c.3.2.7.3 1.1.4.4.1.8.1 1.1.1.6 0 1-.1 1.3-.3.3-.2.4-.4.4-.8 0-.3-.1-.5-.4-.7-.2-.2-.7-.4-1.4-.7-.6-.2-1.1-.4-1.4-.6s-.5-.4-.6-.6c-.1-.2-.2-.5-.2-.8 0-.5.2-1 .7-1.3s1.1-.5 1.9-.5c.8 0 1.5.1 2.2.4l-.4.8c-.7-.3-1.3-.4-1.9-.4-.5 0-.9.1-1.1.2-.3.2-.4.4-.4.6 0 .2 0 .3.1.5.1.1.2.2.5.4.2.1.6.3 1.2.5.8.3 1.4.6 1.7.9.4.4.5.8.5 1.2zm4.7 2c-1 0-1.8-.3-2.4-.9-.6-.6-.9-1.5-.9-2.5 0-1.1.3-2 .8-2.6.6-.6 1.3-1 2.2-1 .9 0 1.6.3 2.1.8s.8 1.3.8 2.2v.6H48c0 .8.2 1.4.6 1.8.4.4.9.6 1.7.6.8 0 1.5-.2 2.2-.5v.9c-.4.2-.7.3-1.1.3s-.7.3-1.2.3zm-.3-6.2c-.6 0-1 .2-1.3.5-.3.4-.5.8-.6 1.5h3.7c0-.6-.1-1.1-.4-1.5-.4-.3-.9-.5-1.4-.5z" class="key1_svg__st6"/>
  <path d="M69.8 35.7h-1.2v-9h-3.2v-1H73v1h-3.2v9zm9.6 0v-4.8c0-.6-.1-1.1-.4-1.4s-.7-.5-1.3-.5c-.8 0-1.4.2-1.7.6-.4.4-.5 1.1-.5 2.1v3.9h-1.1V25h1.1v3.2c0 .4 0 .7-.1 1h.1c.2-.4.5-.6 1-.9.4-.2.9-.3 1.4-.3.9 0 1.6.2 2.1.7.5.4.7 1.1.7 2.1v4.9h-1.3zm3.4-9.5c0-.3.1-.5.2-.6s.3-.2.5-.2.3.1.5.2.2.3.2.6-.1.4-.2.6-.3.2-.5.2-.4-.1-.5-.2-.2-.4-.2-.6zm1.2 9.5h-1.1v-7.5H84v7.5zm7.3-2.1c0 .7-.3 1.2-.8 1.6s-1.2.6-2.2.6c-1 0-1.8-.2-2.3-.5v-1.1c.4.2.7.3 1.2.4.4.1.8.2 1.2.2.6 0 1-.1 1.4-.3s.5-.5.5-.9c0-.3-.1-.5-.4-.7-.3-.2-.7-.5-1.5-.7-.7-.3-1.2-.5-1.5-.7-.3-.2-.5-.4-.7-.7-.2-.1-.2-.4-.2-.8 0-.6.2-1.1.7-1.4s1.2-.5 2-.5 1.6.2 2.4.5l-.4.9c-.8-.3-1.4-.5-2-.5-.5 0-.9.1-1.2.3s-.4.4-.4.7c0 .2.1.4.2.5.1.1.3.3.5.4s.7.3 1.3.6c.9.3 1.5.6 1.8 1 .2.2.4.6.4 1.1zm10.1 2.1L98 26.8h-.1c.1.7.1 1.5.1 2.5v6.4h-1.1v-10h1.8l3.2 8.2h.1l3.2-8.2h1.7v10h-1.2v-6.4c0-.7 0-1.5.1-2.4h-.1l-3.4 8.8h-.9zm12.6 0-.2-1.1h-.1c-.4.5-.7.8-1.1 1-.4.2-.8.2-1.4.2-.7 0-1.3-.2-1.7-.6-.4-.4-.6-.9-.6-1.6 0-1.5 1.2-2.3 3.6-2.4h1.3v-.5c0-.6-.1-1-.4-1.3-.3-.3-.7-.4-1.2-.4-.6 0-1.3.2-2.1.6l-.3-.9c.4-.2.8-.4 1.2-.5.4-.1.9-.2 1.3-.2.9 0 1.6.2 2 .6.4.4.6 1 .6 1.9v5.1h-.9zm-2.6-.8c.7 0 1.3-.2 1.7-.6.4-.4.6-.9.6-1.6V32h-1.1c-.9 0-1.6.2-2 .4-.4.2-.6.6-.6 1.2 0 .4.1.7.4.9.3.3.6.4 1 .4zm10.9.8v-4.8c0-.6-.1-1.1-.4-1.4s-.7-.5-1.3-.5c-.8 0-1.4.2-1.7.6s-.5 1.1-.5 2.1v3.9h-1.1v-7.5h.9l.2 1h.1c.2-.4.6-.7 1-.9s.9-.3 1.4-.3c.9 0 1.6.2 2 .7s.7 1.1.7 2.1v4.9h-1.3zm8.1 0-.2-1.1h-.1c-.4.5-.7.8-1.1 1-.4.2-.8.2-1.4.2-.7 0-1.3-.2-1.7-.6-.4-.4-.6-.9-.6-1.6 0-1.5 1.2-2.3 3.6-2.4h1.3v-.5c0-.6-.1-1-.4-1.3-.3-.3-.7-.4-1.2-.4-.6 0-1.3.2-2.1.6l-.3-.9c.4-.2.8-.4 1.2-.5.4-.1.9-.2 1.3-.2.9 0 1.6.2 2 .6.4.4.6 1 .6 1.9v5.1h-.9zm-2.6-.8c.7 0 1.3-.2 1.7-.6.4-.4.6-.9.6-1.6V32H129c-.9 0-1.6.2-2 .4-.4.2-.6.6-.6 1.2 0 .4.1.7.4.9.2.3.6.4 1 .4zm11.9-6.7v.7l-1.4.2.3.6c.1.2.2.5.2.9 0 .7-.3 1.3-.8 1.8s-1.1.6-2 .6c-.2 0-.4 0-.6-.1-.5.3-.7.6-.7 1 0 .2.1.4.3.5s.5.1.9.1h1.3c.8 0 1.4.2 1.9.5.4.3.7.8.7 1.5 0 .8-.3 1.5-1 1.9s-1.8.6-3.1.6c-1 0-1.7-.2-2.3-.5-.5-.4-.8-.9-.8-1.5 0-.5.1-.9.4-1.2s.7-.6 1.2-.7c-.2-.1-.4-.2-.5-.4-.1-.2-.2-.4-.2-.6 0-.3.1-.5.2-.7s.4-.4.7-.6c-.4-.2-.7-.4-.9-.8-.2-.4-.4-.8-.4-1.3 0-.8.2-1.5.7-1.9s1.2-.7 2.1-.7c.4 0 .7 0 1.1.1h2.7zm-6 8.7c0 .4.2.7.5.9s.8.3 1.5.3c1 0 1.7-.1 2.1-.4.5-.3.7-.7.7-1.2 0-.4-.1-.7-.4-.8s-.7-.2-1.4-.2h-1.4c-.5 0-.9.1-1.2.4s-.4.6-.4 1zm.6-6.3c0 .5.1.9.4 1.2s.7.4 1.2.4c1.1 0 1.7-.5 1.7-1.6s-.6-1.7-1.7-1.7c-.5 0-.9.1-1.2.4s-.4.7-.4 1.3zm10.1 5.2c-1.1 0-2-.3-2.6-1-.6-.7-1-1.6-1-2.8 0-1.2.3-2.2.9-2.9.6-.7 1.4-1.1 2.4-1.1.9 0 1.7.3 2.2.9s.8 1.4.8 2.4v.7H142c0 .9.2 1.5.7 2 .4.5 1 .7 1.8.7s1.6-.2 2.4-.5v1c-.4.2-.8.3-1.1.4-.5.2-.9.2-1.4.2zm-.3-6.8c-.6 0-1.1.2-1.4.6-.4.4-.6.9-.6 1.6h3.9c0-.7-.2-1.3-.5-1.6s-.8-.6-1.4-.6zm8.4-1c.3 0 .6 0 .9.1l-.2 1.1c-.3-.1-.6-.1-.8-.1-.6 0-1.1.2-1.6.7-.4.5-.6 1.1-.6 1.8v4h-1.1v-7.5h.9l.1 1.4h.1c.3-.5.6-.9 1-1.1s.8-.4 1.3-.4zm5.9-1.8c0-.3.1-.5.2-.6s.3-.2.5-.2.3.1.5.2.2.3.2.6-.1.4-.2.6-.3.2-.5.2-.4-.1-.5-.2-.2-.4-.2-.6zm1.2 9.5h-1.1v-7.5h1.1v7.5zm7.2-2.1c0 .7-.3 1.2-.8 1.6s-1.2.6-2.2.6c-1 0-1.8-.2-2.3-.5v-1.1c.4.2.7.3 1.2.4.4.1.8.2 1.2.2.6 0 1-.1 1.4-.3s.5-.5.5-.9c0-.3-.1-.5-.4-.7-.3-.2-.7-.5-1.5-.7-.7-.3-1.2-.5-1.5-.7-.3-.2-.5-.4-.7-.7-.1-.2-.2-.5-.2-.9 0-.6.2-1.1.7-1.4s1.2-.5 2-.5 1.6.2 2.4.5l-.4.9c-.8-.3-1.4-.5-2-.5-.5 0-.9.1-1.2.3s-.4.4-.4.7c0 .2.1.4.2.5.1.1.3.3.5.4s.7.3 1.3.6c.9.3 1.5.6 1.8 1 .3.3.4.7.4 1.2zm9-5.5c1 0 1.7.3 2.3 1 .5.7.8 1.6.8 2.9s-.3 2.2-.8 2.9c-.5.7-1.3 1-2.3 1-.5 0-.9-.1-1.3-.3-.4-.2-.7-.5-1-.8h-.1l-.2 1h-.8V25h1.1v2.6c0 .6 0 1.1-.1 1.6h.1c.5-.8 1.3-1.1 2.3-1.1zm-.2.9c-.8 0-1.3.2-1.7.7s-.5 1.2-.5 2.2.2 1.8.5 2.3.9.7 1.7.7c.7 0 1.2-.3 1.6-.8s.5-1.2.5-2.2c0-1-.2-1.7-.5-2.2s-.9-.7-1.6-.7zm8.4 6.8c-1.1 0-2-.3-2.6-1-.6-.7-1-1.6-1-2.8 0-1.2.3-2.2.9-2.9.6-.7 1.4-1.1 2.4-1.1.9 0 1.7.3 2.2.9s.8 1.4.8 2.4v.7h-5.2c0 .9.2 1.5.7 2 .4.5 1 .7 1.8.7s1.6-.2 2.4-.5v1c-.4.2-.8.3-1.1.4-.3.2-.7.2-1.3.2zm-.3-6.8c-.6 0-1.1.2-1.4.6-.4.4-.6.9-.6 1.6h3.9c0-.7-.2-1.3-.5-1.6s-.8-.6-1.4-.6zm4.9-2.8c0-.3.1-.5.2-.6s.3-.2.5-.2.3.1.5.2.2.3.2.6-.1.4-.2.6-.3.2-.5.2-.4-.1-.5-.2-.2-.4-.2-.6zm1.3 9.5h-1.1v-7.5h1.1v7.5zm7.5 0v-4.8c0-.6-.1-1.1-.4-1.4s-.7-.5-1.3-.5c-.8 0-1.4.2-1.7.6s-.5 1.1-.5 2.1v3.9h-1.1v-7.5h.9l.2 1h.1c.2-.4.6-.7 1-.9s.9-.3 1.4-.3c.9 0 1.6.2 2 .7s.7 1.1.7 2.1v4.9h-1.3zm9.6-7.5v.7l-1.4.2.3.6c.1.2.2.5.2.9 0 .7-.2 1.3-.8 1.8s-1.2.7-2.1.7c-.2 0-.4 0-.6-.1-.5.3-.7.6-.7 1 0 .2.1.4.3.5s.5.1.9.1h1.3c.8 0 1.4.2 1.9.5.4.3.7.8.7 1.5 0 .8-.3 1.5-1 1.9s-1.7.5-3 .5c-1 0-1.7-.2-2.3-.5-.5-.4-.8-.9-.8-1.5 0-.5.1-.9.4-1.2s.7-.6 1.2-.7c-.2-.1-.4-.2-.5-.4-.1-.2-.2-.4-.2-.6 0-.3.1-.5.2-.7s.4-.4.7-.6c-.4-.2-.7-.4-.9-.8-.2-.4-.4-.8-.4-1.3 0-.8.2-1.5.7-1.9s1.2-.7 2.1-.7c.4 0 .7 0 1.1.1h2.7zm-6 8.7c0 .4.2.7.5.9s.8.3 1.5.3c1 0 1.7-.1 2.1-.4.5-.3.7-.7.7-1.2 0-.4-.1-.7-.4-.8s-.7-.2-1.4-.2h-1.4c-.5 0-.9.1-1.2.4s-.4.6-.4 1zm.6-6.3c0 .5.1.9.4 1.2s.7.4 1.2.4c1.1 0 1.7-.5 1.7-1.6s-.6-1.7-1.7-1.7c-.5 0-.9.1-1.2.4s-.4.7-.4 1.3zm15.2 5.1-.2-1.1h-.1c-.4.5-.7.8-1.1 1-.4.2-.8.2-1.4.2-.7 0-1.3-.2-1.7-.6-.4-.4-.6-.9-.6-1.6 0-1.5 1.2-2.3 3.6-2.4h1.3v-.5c0-.6-.1-1-.4-1.3-.3-.3-.7-.4-1.2-.4-.6 0-1.3.2-2.1.6l-.3-.9c.4-.2.8-.4 1.2-.5.4-.1.9-.2 1.3-.2.9 0 1.6.2 2 .6.4.4.6 1 .6 1.9v5.1h-.9zm-2.6-.8c.7 0 1.3-.2 1.7-.6.4-.4.6-.9.6-1.6V32h-1.1c-.9 0-1.6.2-2 .4-.4.2-.6.6-.6 1.2 0 .4.1.7.4.9.2.3.6.4 1 .4zm8.8.9c-1.1 0-1.9-.3-2.5-1-.6-.7-.9-1.6-.9-2.8 0-1.3.3-2.2.9-2.9.6-.7 1.5-1 2.6-1 .4 0 .7 0 1.1.1s.6.2.8.3l-.3 1c-.3-.1-.5-.2-.8-.2s-.6-.1-.8-.1c-1.5 0-2.3 1-2.3 2.9 0 .9.2 1.6.6 2.1.4.5.9.7 1.7.7.6 0 1.3-.1 1.9-.4v1c-.7.2-1.3.3-2 .3zm6-.9h.6c.2 0 .3-.1.4-.1v.9c-.1.1-.3.1-.5.1s-.5.1-.6.1c-1.4 0-2.2-.8-2.2-2.3v-4.5h-1.1v-.5l1.1-.5.5-1.6h.7v1.7h2.2v.9h-2.2v4.4c0 .5.1.8.3 1s.5.4.8.4zm2.5-8.7c0-.3.1-.5.2-.6s.3-.2.5-.2.3.1.5.2.2.3.2.6-.1.4-.2.6-.3.2-.5.2-.4-.1-.5-.2-.2-.4-.2-.6zm1.2 9.5h-1.1v-7.5h1.1v7.5zm4.1 0-2.8-7.5h1.2l1.6 4.4c.4 1 .6 1.7.6 2h.1c0-.2.2-.7.5-1.5s.9-2.4 1.8-5h1.2l-2.8 7.5h-1.4zm8.5.1c-1.1 0-2-.3-2.6-1-.6-.7-1-1.6-1-2.8 0-1.2.3-2.2.9-2.9.6-.7 1.4-1.1 2.4-1.1.9 0 1.7.3 2.2.9s.8 1.4.8 2.4v.7h-5.2c0 .9.2 1.5.7 2 .4.5 1 .7 1.8.7s1.6-.2 2.4-.5v1c-.4.2-.8.3-1.1.4-.4.2-.8.2-1.3.2zM245 29c-.6 0-1.1.2-1.4.6-.4.4-.6.9-.6 1.6h3.9c0-.7-.2-1.3-.5-1.6s-.8-.6-1.4-.6zm6.1 6.7H250V25h1.1v10.7zm1.2-7.5h1.2l1.6 4.3c.4 1 .6 1.7.7 2.1h.1c.1-.2.2-.6.4-1.2s.8-2.3 1.9-5.2h1.2l-3.2 8.5c-.3.8-.7 1.4-1.1 1.8-.4.4-.9.5-1.6.5-.3 0-.7 0-1-.1V38c.2.1.5.1.8.1.8 0 1.3-.4 1.7-1.3l.4-1.1-3.1-7.5zm17 6.5c-.6.8-1.4 1.1-2.4 1.1s-1.7-.3-2.3-1c-.5-.7-.8-1.6-.8-2.9s.3-2.2.8-2.9 1.3-1 2.3-1c1 0 1.8.4 2.3 1.1h.1v-4h1.1v10.6h-.9l-.2-1zm-2.3.2c.8 0 1.3-.2 1.7-.6.3-.4.5-1.1.5-2V32c0-1.1-.2-1.8-.5-2.3-.4-.5-.9-.7-1.7-.7-.7 0-1.2.3-1.5.8-.4.5-.5 1.2-.5 2.2 0 1 .2 1.7.5 2.2s.9.7 1.5.7zm9 .9c-1.1 0-2-.3-2.6-1-.6-.7-1-1.6-1-2.8 0-1.2.3-2.2.9-2.9.6-.7 1.4-1.1 2.4-1.1.9 0 1.7.3 2.2.9s.8 1.4.8 2.4v.7h-5.2c0 .9.2 1.5.7 2 .4.5 1 .7 1.8.7s1.6-.2 2.4-.5v1c-.4.2-.8.3-1.1.4-.4.2-.8.2-1.3.2zm-.4-6.8c-.6 0-1.1.2-1.4.6-.4.4-.6.9-.6 1.6h3.9c0-.7-.2-1.3-.5-1.6s-.8-.6-1.4-.6zm6.7 6.7-2.8-7.5h1.2l1.6 4.4c.4 1 .6 1.7.6 2h.1c0-.2.2-.7.5-1.5s.9-2.4 1.8-5h1.2l-2.8 7.5h-1.4zm8.5.1c-1.1 0-2-.3-2.6-1-.6-.7-1-1.6-1-2.8 0-1.2.3-2.2.9-2.9.6-.7 1.4-1.1 2.4-1.1.9 0 1.7.3 2.2.9s.8 1.4.8 2.4v.7h-5.2c0 .9.2 1.5.7 2 .4.5 1 .7 1.8.7s1.6-.2 2.4-.5v1c-.4.2-.8.3-1.1.4-.3.2-.8.2-1.3.2zm-.3-6.8c-.6 0-1.1.2-1.4.6-.4.4-.6.9-.6 1.6h3.9c0-.7-.2-1.3-.5-1.6s-.8-.6-1.4-.6zm6.1 6.7h-1.1V25h1.1v10.7zm8.9-3.8c0 1.2-.3 2.2-.9 2.9s-1.5 1-2.5 1c-.7 0-1.3-.2-1.8-.5s-.9-.8-1.2-1.4-.4-1.3-.4-2.1c0-1.2.3-2.2.9-2.9s1.5-1 2.5-1 1.9.3 2.5 1c.6.9.9 1.8.9 3zm-5.7 0c0 1 .2 1.7.6 2.2s.9.8 1.7.8 1.3-.2 1.7-.7c.4-.5.6-1.2.6-2.2 0-1-.2-1.7-.6-2.2-.4-.5-1-.7-1.7-.7s-1.3.2-1.7.7-.6 1.2-.6 2.1zm11.2 3.9c-.5 0-.9-.1-1.3-.3-.4-.2-.7-.5-1-.8h-.1c.1.4.1.9.1 1.2V39h-1.1V28.2h.9l.2 1h.1c.3-.4.6-.7 1-.9s.8-.3 1.3-.3c1 0 1.8.3 2.3 1 .5.7.8 1.6.8 2.9 0 1.2-.3 2.2-.8 2.9-.7.7-1.4 1-2.4 1zm-.2-6.8c-.8 0-1.3.2-1.7.6s-.5 1.1-.5 2v.3c0 1.1.2 1.8.5 2.3s.9.7 1.7.7c.6 0 1.2-.3 1.5-.8.4-.5.5-1.2.5-2.2 0-.9-.2-1.7-.5-2.1-.3-.5-.8-.8-1.5-.8zm8.5 6.8c-1.1 0-2-.3-2.6-1-.6-.7-1-1.6-1-2.8 0-1.2.3-2.2.9-2.9.6-.7 1.4-1.1 2.4-1.1.9 0 1.7.3 2.2.9s.8 1.4.8 2.4v.7h-5.2c0 .9.2 1.5.7 2 .4.5 1 .7 1.8.7s1.6-.2 2.4-.5v1c-.4.2-.8.3-1.1.4-.4.2-.8.2-1.3.2zm-.4-6.8c-.6 0-1.1.2-1.4.6-.4.4-.6.9-.6 1.6h3.9c0-.7-.2-1.3-.5-1.6s-.8-.6-1.4-.6zm10.1 5.7c-.6.8-1.4 1.1-2.4 1.1s-1.7-.3-2.3-1c-.5-.7-.8-1.6-.8-2.9s.3-2.2.8-2.9 1.3-1 2.3-1c1 0 1.8.4 2.3 1.1h.1v-4h1.1v10.6h-.9l-.2-1zm-2.2.2c.8 0 1.3-.2 1.7-.6.3-.4.5-1.1.5-2V32c0-1.1-.2-1.8-.5-2.3-.4-.5-.9-.7-1.7-.7-.7 0-1.2.3-1.5.8-.4.5-.5 1.2-.5 2.2 0 1 .2 1.7.5 2.2s.8.7 1.5.7zm5.6.1c0-.3.1-.5.2-.7.1-.2.3-.2.6-.2s.5.1.6.2c.1.2.2.4.2.7 0 .3-.1.5-.2.7s-.4.2-.6.2c-.2 0-.4-.1-.6-.2-.2-.2-.2-.4-.2-.7zM66.7 52.5v-10h1.2v10h-1.2zm6.2-.8h.6c.2 0 .3-.1.4-.1v.9c-.1.1-.3.1-.5.1s-.5.1-.6.1c-1.4 0-2.2-.8-2.2-2.3v-4.5h-1.1v-.5l1.1-.5.5-1.6h.7V45H74v.9h-2.2v4.4c0 .5.1.8.3 1s.4.4.8.4zM79 43c0-.3.1-.5.2-.6s.3-.2.5-.2.3.1.5.2.2.3.2.6-.1.4-.2.6-.3.2-.5.2-.4-.1-.5-.2-.2-.4-.2-.6zm1.2 9.5h-1.1V45h1.1v7.5zm7.2-2.1c0 .7-.3 1.2-.8 1.6s-1.2.6-2.2.6c-1 0-1.8-.2-2.3-.5V51c.4.2.7.3 1.2.4.4.1.8.2 1.2.2.6 0 1-.1 1.4-.3s.5-.5.5-.9c0-.3-.1-.5-.4-.7-.3-.2-.7-.5-1.5-.7-.7-.3-1.2-.5-1.5-.7-.3-.2-.5-.4-.7-.7-.1-.2-.2-.5-.2-.9 0-.6.2-1.1.7-1.4s1.2-.5 2-.5 1.6.2 2.4.5l-.4.9c-.8-.3-1.4-.5-2-.5-.5 0-.9.1-1.2.3s-.4.4-.4.7c0 .2.1.4.2.5.1.1.3.3.5.4s.7.3 1.3.6c.9.3 1.5.6 1.8 1 .3.3.4.7.4 1.2zm10.3 0c0 .7-.3 1.2-.8 1.6s-1.2.6-2.2.6c-1 0-1.8-.2-2.3-.5V51c.4.2.7.3 1.2.4.4.1.8.2 1.2.2.6 0 1-.1 1.4-.3s.5-.5.5-.9c0-.3-.1-.5-.4-.7-.3-.2-.7-.5-1.5-.7-.7-.3-1.2-.5-1.5-.7-.3-.2-.5-.4-.7-.7-.1-.2-.2-.5-.2-.9 0-.6.2-1.1.7-1.4s1.2-.5 2-.5 1.6.2 2.4.5l-.4.9c-.8-.3-1.4-.5-2-.5-.5 0-.9.1-1.2.3s-.4.4-.4.7c0 .2.1.4.2.5.1.1.3.3.5.4s.7.3 1.3.6c.9.3 1.5.6 1.8 1 .3.3.4.7.4 1.2zm3-5.4v4.9c0 .6.1 1.1.4 1.4s.7.5 1.3.5c.8 0 1.4-.2 1.7-.6.4-.4.5-1.1.5-2.1V45h1.1v7.5h-.9l-.2-1h-.1c-.2.4-.6.7-1 .8-.4.2-.9.3-1.4.3-.9 0-1.6-.2-2-.6-.5-.4-.7-1.1-.7-2.1V45h1.3zm11-.1c1 0 1.7.3 2.3 1 .5.7.8 1.6.8 2.9s-.3 2.2-.8 2.9c-.5.7-1.3 1-2.3 1-.5 0-.9-.1-1.3-.3-.4-.2-.7-.5-1-.8h-.1l-.2 1h-.8V41.8h1.1v2.6c0 .6 0 1.1-.1 1.6h.1c.4-.8 1.2-1.1 2.3-1.1zm-.2.9c-.8 0-1.3.2-1.7.7s-.5 1.2-.5 2.2.2 1.8.5 2.3.9.7 1.7.7c.7 0 1.2-.3 1.6-.8s.5-1.2.5-2.2c0-1-.2-1.7-.5-2.2s-.9-.7-1.6-.7zm4.4 10c-.4 0-.8-.1-1.1-.2v-.9c.3.1.6.1.9.1.4 0 .6-.1.8-.3.2-.2.2-.5.2-.9V45h1.1v8.6c.1 1.5-.6 2.2-1.9 2.2zm.8-12.8c0-.3.1-.5.2-.6s.3-.2.5-.2.3.1.5.2.2.3.2.6-.1.4-.2.6-.3.2-.5.2-.4-.1-.5-.2-.2-.4-.2-.6zm6.8 9.6c-1.1 0-2-.3-2.6-1-.6-.7-1-1.6-1-2.8 0-1.2.3-2.2.9-2.9.6-.7 1.4-1.1 2.4-1.1.9 0 1.7.3 2.2.9s.8 1.4.8 2.4v.7H121c0 .9.2 1.5.7 2 .4.5 1 .7 1.8.7s1.6-.2 2.4-.5v1c-.4.2-.8.3-1.1.4-.4.2-.8.2-1.3.2zm-.3-6.8c-.6 0-1.1.2-1.4.6-.4.4-.6.9-.6 1.6h3.9c0-.7-.2-1.3-.5-1.6s-.8-.6-1.4-.6zm8 6.8c-1.1 0-1.9-.3-2.5-1-.6-.7-.9-1.6-.9-2.8 0-1.3.3-2.2.9-2.9.6-.7 1.5-1 2.6-1 .4 0 .7 0 1.1.1s.6.2.8.3l-.3 1c-.3-.1-.5-.2-.8-.2s-.6-.1-.8-.1c-1.5 0-2.3 1-2.3 2.9 0 .9.2 1.6.6 2.1.4.5.9.7 1.7.7.6 0 1.3-.1 1.9-.4v1c-.7.2-1.3.3-2 .3zm6-.9h.6c.2 0 .3-.1.4-.1v.9c-.1.1-.3.1-.5.1s-.5.1-.6.1c-1.4 0-2.2-.8-2.2-2.3v-4.5h-1.1v-.5l1.1-.5.5-1.6h.7V45h2.2v.9H136v4.4c0 .5.1.8.3 1s.6.4.9.4zm8.6 0h.6c.2 0 .3-.1.4-.1v.9c-.1.1-.3.1-.5.1s-.5.1-.6.1c-1.4 0-2.2-.8-2.2-2.3v-4.5h-1.1v-.5l1.1-.5.5-1.6h.7V45h2.2v.9h-2.2v4.4c0 .5.1.8.3 1s.4.4.8.4zm9-3c0 1.2-.3 2.2-.9 2.9s-1.5 1-2.5 1c-.7 0-1.3-.2-1.8-.5s-.9-.8-1.2-1.4-.4-1.3-.4-2.1c0-1.2.3-2.2.9-2.9s1.5-1 2.5-1 1.9.3 2.5 1c.6.9.9 1.8.9 3zm-5.7 0c0 1 .2 1.7.6 2.2s.9.8 1.7.8 1.3-.2 1.7-.7c.4-.5.6-1.2.6-2.2 0-1-.2-1.7-.6-2.2-.4-.5-1-.7-1.7-.7s-1.3.2-1.7.7-.6 1.2-.6 2.1zm14.3 3.9c-1.1 0-1.9-.3-2.5-1-.6-.7-.9-1.6-.9-2.8 0-1.3.3-2.2.9-2.9.6-.7 1.5-1 2.6-1 .4 0 .7 0 1.1.1s.6.2.8.3l-.3 1c-.3-.1-.5-.2-.8-.2s-.6-.1-.8-.1c-1.5 0-2.3 1-2.3 2.9 0 .9.2 1.6.6 2.1.4.5.9.7 1.7.7.6 0 1.3-.1 1.9-.4v1c-.6.2-1.2.3-2 .3zm8.8-.1v-4.8c0-.6-.1-1.1-.4-1.4s-.7-.5-1.3-.5c-.8 0-1.4.2-1.7.6-.4.4-.5 1.1-.5 2.1v3.9h-1.1V41.8h1.1V45c0 .4 0 .7-.1 1h.1c.2-.4.5-.6 1-.9.4-.2.9-.3 1.4-.3.9 0 1.6.2 2.1.7.5.4.7 1.1.7 2.1v4.9h-1.3zm8.1 0-.2-1.1h-.1c-.4.5-.7.8-1.1 1-.4.2-.8.2-1.4.2-.7 0-1.3-.2-1.7-.6-.4-.4-.6-.9-.6-1.6 0-1.5 1.2-2.3 3.6-2.4h1.3v-.5c0-.6-.1-1-.4-1.3-.3-.3-.7-.4-1.2-.4-.6 0-1.3.2-2.1.6l-.3-.9c.4-.2.8-.4 1.2-.5.4-.1.9-.2 1.3-.2.9 0 1.6.2 2 .6.4.4.6 1 .6 1.9v5.1h-.9zm-2.6-.8c.7 0 1.3-.2 1.7-.6.4-.4.6-.9.6-1.6v-.7h-1.1c-.9 0-1.6.2-2 .4-.4.2-.6.6-.6 1.2 0 .4.1.7.4.9.2.3.6.4 1 .4zm10.9.8v-4.8c0-.6-.1-1.1-.4-1.4s-.7-.5-1.3-.5c-.8 0-1.4.2-1.7.6s-.5 1.1-.5 2.1v3.9h-1.1V45h.9l.2 1h.1c.2-.4.6-.7 1-.9s.9-.3 1.4-.3c.9 0 1.6.2 2 .7s.7 1.1.7 2.1v4.9h-1.3zm9.6-7.5v.7l-1.4.2.3.6c.1.2.2.5.2.9 0 .7-.3 1.3-.8 1.8s-1.2.7-2.1.7c-.2 0-.4 0-.6-.1-.5.3-.7.6-.7 1 0 .2.1.4.3.5s.5.1.9.1h1.3c.8 0 1.4.2 1.9.5.4.3.7.8.7 1.5 0 .8-.3 1.5-1 1.9s-1.6.7-2.9.7c-1 0-1.7-.2-2.3-.5-.5-.4-.8-.9-.8-1.5 0-.5.1-.9.4-1.2s.7-.6 1.2-.7c-.2-.1-.4-.2-.5-.4-.1-.2-.2-.4-.2-.6 0-.3.1-.5.2-.7s.4-.4.7-.6c-.4-.2-.7-.4-.9-.8-.2-.4-.4-.8-.4-1.3 0-.8.2-1.5.7-1.9s1.2-.7 2.1-.7c.4 0 .7 0 1.1.1h2.6zm-6 8.7c0 .4.2.7.5.9s.8.3 1.5.3c1 0 1.7-.1 2.1-.4.5-.3.7-.7.7-1.2 0-.4-.1-.7-.4-.8s-.7-.2-1.4-.2h-1.4c-.5 0-.9.1-1.2.4s-.4.6-.4 1zm.6-6.3c0 .5.1.9.4 1.2s.7.4 1.2.4c1.1 0 1.7-.5 1.7-1.6s-.6-1.7-1.7-1.7c-.5 0-.9.1-1.2.4s-.4.7-.4 1.3zm10.1 5.2c-1.1 0-2-.3-2.6-1-.6-.7-1-1.6-1-2.8 0-1.2.3-2.2.9-2.9.6-.7 1.4-1.1 2.4-1.1.9 0 1.7.3 2.2.9s.8 1.4.8 2.4v.7h-5.2c0 .9.2 1.5.7 2 .4.5 1 .7 1.8.7s1.6-.2 2.4-.5v1c-.4.2-.8.3-1.1.4-.4.2-.8.2-1.3.2zm-.3-6.8c-.6 0-1.1.2-1.4.6-.4.4-.6.9-.6 1.6h3.9c0-.7-.2-1.3-.5-1.6s-.8-.6-1.4-.6zm13.2 6.7-.2-1.1h-.1c-.4.5-.7.8-1.1 1-.4.2-.8.2-1.4.2-.7 0-1.3-.2-1.7-.6-.4-.4-.6-.9-.6-1.6 0-1.5 1.2-2.3 3.6-2.4h1.3v-.5c0-.6-.1-1-.4-1.3-.3-.3-.7-.4-1.2-.4-.6 0-1.3.2-2.1.6l-.3-.9c.4-.2.8-.4 1.2-.5.4-.1.9-.2 1.3-.2.9 0 1.6.2 2 .6.4.4.6 1 .6 1.9v5.1h-.9zm-2.5-.8c.7 0 1.3-.2 1.7-.6.4-.4.6-.9.6-1.6v-.7h-1.1c-.9 0-1.6.2-2 .4-.4.2-.6.6-.6 1.2 0 .4.1.7.4.9.2.3.5.4 1 .4zm10.8.8v-4.8c0-.6-.1-1.1-.4-1.4s-.7-.5-1.3-.5c-.8 0-1.4.2-1.7.6s-.5 1.1-.5 2.1v3.9H219V45h.9l.2 1h.1c.2-.4.6-.7 1-.9s.9-.3 1.4-.3c.9 0 1.6.2 2 .7s.7 1.1.7 2.1v4.9h-1.2zm8.6-1c-.6.8-1.4 1.1-2.4 1.1s-1.7-.3-2.3-1c-.5-.7-.8-1.6-.8-2.9s.3-2.2.8-2.9 1.3-1 2.3-1c1 0 1.8.4 2.3 1.1h.1v-4h1.1v10.6h-.9l-.2-1zm-2.3.2c.8 0 1.3-.2 1.7-.6.3-.4.5-1.1.5-2v-.2c0-1.1-.2-1.8-.5-2.3-.4-.5-.9-.7-1.7-.7-.7 0-1.2.3-1.5.8-.4.5-.5 1.2-.5 2.2 0 1 .2 1.7.5 2.2s.9.6 1.5.6zm14.6.8v-4.8c0-.6-.1-1.1-.4-1.4s-.7-.5-1.3-.5c-.8 0-1.4.2-1.7.6-.4.4-.5 1.1-.5 2.1v3.9H240V41.8h1.1V45c0 .4 0 .7-.1 1h.1c.2-.4.5-.6 1-.9.4-.2.9-.3 1.4-.3.9 0 1.6.2 2.1.7.5.4.7 1.1.7 2.1v4.9H245zm8 0-.2-1.1h-.1c-.4.5-.7.8-1.1 1-.4.2-.8.2-1.4.2-.7 0-1.3-.2-1.7-.6-.4-.4-.6-.9-.6-1.6 0-1.5 1.2-2.3 3.6-2.4h1.3v-.5c0-.6-.1-1-.4-1.3-.3-.3-.7-.4-1.2-.4-.6 0-1.3.2-2.1.6l-.3-.9c.4-.2.8-.4 1.2-.5.4-.1.9-.2 1.3-.2.9 0 1.6.2 2 .6.4.4.6 1 .6 1.9v5.1h-.9zm-2.5-.8c.7 0 1.3-.2 1.7-.6.4-.4.6-.9.6-1.6v-.7h-1.1c-.9 0-1.6.2-2 .4-.4.2-.6.6-.6 1.2 0 .4.1.7.4.9.2.3.5.4 1 .4zm10.5-1.3c0 .7-.3 1.2-.8 1.6s-1.2.6-2.2.6c-1 0-1.8-.2-2.3-.5V51c.4.2.7.3 1.2.4.4.1.8.2 1.2.2.6 0 1-.1 1.4-.3s.5-.5.5-.9c0-.3-.1-.5-.4-.7-.3-.2-.7-.5-1.5-.7-.7-.3-1.2-.5-1.5-.7-.3-.2-.5-.4-.7-.7-.1-.2-.2-.5-.2-.9 0-.6.2-1.1.7-1.4s1.2-.5 2-.5 1.6.2 2.4.5l-.4.9c-.8-.3-1.4-.5-2-.5-.5 0-.9.1-1.2.3s-.4.4-.4.7c0 .2.1.4.2.5.1.1.3.3.5.4.2.1.7.3 1.3.6.9.3 1.5.6 1.8 1 .3.3.4.7.4 1.2zm10.6 2.1v-4.8c0-.6-.1-1.1-.4-1.4s-.7-.5-1.3-.5c-.8 0-1.4.2-1.7.6s-.5 1.1-.5 2.1v3.9h-1.1V45h.9l.2 1h.1c.2-.4.6-.7 1-.9s.9-.3 1.4-.3c.9 0 1.6.2 2 .7s.7 1.1.7 2.1v4.9h-1.3zm10-3.8c0 1.2-.3 2.2-.9 2.9s-1.5 1-2.5 1c-.7 0-1.3-.2-1.8-.5s-.9-.8-1.2-1.4-.4-1.3-.4-2.1c0-1.2.3-2.2.9-2.9s1.5-1 2.5-1 1.9.3 2.5 1c.6.9.9 1.8.9 3zm-5.7 0c0 1 .2 1.7.6 2.2s.9.8 1.7.8 1.3-.2 1.7-.7c.4-.5.6-1.2.6-2.2 0-1-.2-1.7-.6-2.2-.4-.5-1-.7-1.7-.7s-1.3.2-1.7.7-.6 1.2-.6 2.1zm10.1 3h.6c.2 0 .3-.1.4-.1v.9c-.1.1-.3.1-.5.1s-.5.1-.6.1c-1.4 0-2.2-.8-2.2-2.3v-4.5h-1.1v-.5l1.1-.5.5-1.6h.7V45h2.2v.9h-2.2v4.4c0 .5.1.8.3 1s.4.4.8.4zm9.6-6.8c1 0 1.7.3 2.3 1 .5.7.8 1.6.8 2.9s-.3 2.2-.8 2.9c-.5.7-1.3 1-2.3 1-.5 0-.9-.1-1.3-.3-.4-.2-.7-.5-1-.8h-.1l-.2 1h-.8V41.8h1.1v2.6c0 .6 0 1.1-.1 1.6h.1c.5-.8 1.3-1.1 2.3-1.1zm-.1.9c-.8 0-1.3.2-1.7.7s-.5 1.2-.5 2.2.2 1.8.5 2.3.9.7 1.7.7c.7 0 1.2-.3 1.6-.8s.5-1.2.5-2.2c0-1-.2-1.7-.5-2.2s-.9-.7-1.6-.7zm8.4 6.8c-1.1 0-2-.3-2.6-1-.6-.7-1-1.6-1-2.8 0-1.2.3-2.2.9-2.9.6-.7 1.4-1.1 2.4-1.1.9 0 1.7.3 2.2.9s.8 1.4.8 2.4v.7h-5.2c0 .9.2 1.5.7 2 .4.5 1 .7 1.8.7s1.6-.2 2.4-.5v1c-.4.2-.8.3-1.1.4-.4.2-.8.2-1.3.2zm-.3-6.8c-.6 0-1.1.2-1.4.6-.4.4-.6.9-.6 1.6h3.9c0-.7-.2-1.3-.5-1.6s-.8-.6-1.4-.6zm8.1 6.8c-1.1 0-2-.3-2.6-1-.6-.7-1-1.6-1-2.8 0-1.2.3-2.2.9-2.9.6-.7 1.4-1.1 2.4-1.1.9 0 1.7.3 2.2.9s.8 1.4.8 2.4v.7h-5.2c0 .9.2 1.5.7 2 .4.5 1 .7 1.8.7s1.6-.2 2.4-.5v1c-.4.2-.8.3-1.1.4-.3.2-.7.2-1.3.2zm-.3-6.8c-.6 0-1.1.2-1.4.6-.4.4-.6.9-.6 1.6h3.9c0-.7-.2-1.3-.5-1.6s-.8-.6-1.4-.6zm10.2 6.7v-4.8c0-.6-.1-1.1-.4-1.4s-.7-.5-1.3-.5c-.8 0-1.4.2-1.7.6s-.5 1.1-.5 2.1v3.9h-1.1V45h.9l.2 1h.1c.2-.4.6-.7 1-.9s.9-.3 1.4-.3c.9 0 1.6.2 2 .7s.7 1.1.7 2.1v4.9h-1.3zm10.2.1c-1.1 0-2-.3-2.6-1-.6-.7-1-1.6-1-2.8 0-1.2.3-2.2.9-2.9.6-.7 1.4-1.1 2.4-1.1.9 0 1.7.3 2.2.9s.8 1.4.8 2.4v.7h-5.2c0 .9.2 1.5.7 2 .4.5 1 .7 1.8.7s1.6-.2 2.4-.5v1c-.4.2-.8.3-1.1.4-.3.2-.8.2-1.3.2zm-.3-6.8c-.6 0-1.1.2-1.4.6-.4.4-.6.9-.6 1.6h3.9c0-.7-.2-1.3-.5-1.6s-.8-.6-1.4-.6zm6.8 2.8-2.6-3.7h1.3l2 2.9 2-2.9h1.3l-2.6 3.7 2.7 3.8h-1.3l-2.1-3-2.1 3h-1.3l2.7-3.8zm8 3.1h.6c.2 0 .3-.1.4-.1v.9c-.1.1-.3.1-.5.1s-.5.1-.6.1c-1.4 0-2.2-.8-2.2-2.3v-4.5h-1.1v-.5l1.1-.5.5-1.6h.7V45h2.2v.9h-2.2v4.4c0 .5.1.8.3 1s.4.4.8.4zm5.7.9c-1.1 0-2-.3-2.6-1-.6-.7-1-1.6-1-2.8 0-1.2.3-2.2.9-2.9.6-.7 1.4-1.1 2.4-1.1.9 0 1.7.3 2.2.9s.8 1.4.8 2.4v.7h-5.2c0 .9.2 1.5.7 2 .4.5 1 .7 1.8.7s1.6-.2 2.4-.5v1c-.4.2-.8.3-1.1.4-.4.2-.8.2-1.3.2zm-.3-6.8c-.6 0-1.1.2-1.4.6-.4.4-.6.9-.6 1.6h3.9c0-.7-.2-1.3-.5-1.6s-.8-.6-1.4-.6zm10.1 6.7v-4.8c0-.6-.1-1.1-.4-1.4s-.7-.5-1.3-.5c-.8 0-1.4.2-1.7.6s-.5 1.1-.5 2.1v3.9h-1.1V45h.9l.2 1h.1c.2-.4.6-.7 1-.9s.9-.3 1.4-.3c.9 0 1.6.2 2 .7s.7 1.1.7 2.1v4.9h-1.3zm8.3-2.1c0 .7-.3 1.2-.8 1.6s-1.2.6-2.2.6c-1 0-1.8-.2-2.3-.5V51c.4.2.7.3 1.2.4.4.1.8.2 1.2.2.6 0 1-.1 1.4-.3s.5-.5.5-.9c0-.3-.1-.5-.4-.7-.3-.2-.7-.5-1.5-.7-.7-.3-1.2-.5-1.5-.7-.3-.2-.5-.4-.7-.7-.1-.2-.2-.5-.2-.9 0-.6.2-1.1.7-1.4s1.2-.5 2-.5 1.6.2 2.4.5l-.4.9c-.8-.3-1.4-.5-2-.5-.5 0-.9.1-1.2.3s-.4.4-.4.7c0 .2.1.4.2.5.1.1.3.3.5.4s.7.3 1.3.6c.9.3 1.5.6 1.8 1 .2.3.4.7.4 1.2zm1.7-7.4c0-.3.1-.5.2-.6s.3-.2.5-.2.3.1.5.2.2.3.2.6-.1.4-.2.6-.3.2-.5.2-.4-.1-.5-.2-.2-.4-.2-.6zm1.3 9.5H372V45h1.1v7.5zm4 0-2.8-7.5h1.2l1.6 4.4c.4 1 .6 1.7.6 2h.1c0-.2.2-.7.5-1.5s.9-2.4 1.8-5h1.2l-2.8 7.5h-1.4zm8.5.1c-1.1 0-2-.3-2.6-1-.6-.7-1-1.6-1-2.8 0-1.2.3-2.2.9-2.9.6-.7 1.4-1.1 2.4-1.1.9 0 1.7.3 2.2.9s.8 1.4.8 2.4v.7h-5.2c0 .9.2 1.5.7 2 .4.5 1 .7 1.8.7s1.6-.2 2.4-.5v1c-.4.2-.8.3-1.1.4-.3.2-.7.2-1.3.2zm-.3-6.8c-.6 0-1.1.2-1.4.6-.4.4-.6.9-.6 1.6h3.9c0-.7-.2-1.3-.5-1.6s-.8-.6-1.4-.6zm6.2 6.7h-1.1V41.8h1.1v10.7zm1.2-7.5h1.2l1.6 4.3c.4 1 .6 1.7.7 2.1h.1c.1-.2.2-.6.4-1.2s.8-2.3 1.9-5.2h1.2l-3.2 8.5c-.3.8-.7 1.4-1.1 1.8-.4.4-.9.5-1.6.5-.3 0-.7 0-1-.1v-.9c.3.1.5.1.8.1.8 0 1.3-.4 1.7-1.3l.4-1.1-3.1-7.5zm14.3 6.7h.6c.2 0 .3-.1.4-.1v.9c-.1.1-.3.1-.5.1s-.5.1-.6.1c-1.4 0-2.2-.8-2.2-2.3v-4.5h-1.1v-.5l1.1-.5.5-1.6h.7V45h2.2v.9h-2.2v4.4c0 .5.1.8.3 1s.4.4.8.4zm5.7.9c-1.1 0-2-.3-2.6-1-.6-.7-1-1.6-1-2.8 0-1.2.3-2.2.9-2.9.6-.7 1.4-1.1 2.4-1.1.9 0 1.7.3 2.2.9s.8 1.4.8 2.4v.7h-5.2c0 .9.2 1.5.7 2 .4.5 1 .7 1.8.7s1.6-.2 2.4-.5v1c-.4.2-.8.3-1.1.4-.4.2-.8.2-1.3.2zm-.3-6.8c-.6 0-1.1.2-1.4.6-.4.4-.6.9-.6 1.6h3.9c0-.7-.2-1.3-.5-1.6s-.8-.6-1.4-.6zm9.8 4.6c0 .7-.3 1.2-.8 1.6s-1.2.6-2.2.6c-1 0-1.8-.2-2.3-.5V51c.4.2.7.3 1.2.4.4.1.8.2 1.2.2.6 0 1-.1 1.4-.3s.5-.5.5-.9c0-.3-.1-.5-.4-.7-.3-.2-.7-.5-1.5-.7-.7-.3-1.2-.5-1.5-.7-.3-.2-.5-.4-.7-.7-.1-.2-.2-.5-.2-.9 0-.6.2-1.1.7-1.4s1.2-.5 2-.5 1.6.2 2.4.5l-.4.9c-.8-.3-1.4-.5-2-.5-.5 0-.9.1-1.2.3s-.4.4-.4.7c0 .2.1.4.2.5.1.1.3.3.5.4s.7.3 1.3.6c.9.3 1.5.6 1.8 1 .2.3.4.7.4 1.2zm4.3 1.3h.6c.2 0 .3-.1.4-.1v.9c-.1.1-.3.1-.5.1s-.5.1-.6.1c-1.4 0-2.2-.8-2.2-2.3v-4.5h-1.1v-.5l1.1-.5.5-1.6h.7V45h2.2v.9h-2.2v4.4c0 .5.1.8.3 1s.4.4.8.4zm5.7.9c-1.1 0-2-.3-2.6-1-.6-.7-1-1.6-1-2.8 0-1.2.3-2.2.9-2.9.6-.7 1.4-1.1 2.4-1.1.9 0 1.7.3 2.2.9s.8 1.4.8 2.4v.7h-5.2c0 .9.2 1.5.7 2 .4.5 1 .7 1.8.7s1.6-.2 2.4-.5v1c-.4.2-.8.3-1.1.4-.4.2-.8.2-1.3.2zm-.4-6.8c-.6 0-1.1.2-1.4.6-.4.4-.6.9-.6 1.6h3.9c0-.7-.2-1.3-.5-1.6s-.8-.6-1.4-.6zm10.1 5.7c-.6.8-1.4 1.1-2.4 1.1s-1.7-.3-2.3-1c-.5-.7-.8-1.6-.8-2.9s.3-2.2.8-2.9 1.3-1 2.3-1c1 0 1.8.4 2.3 1.1h.1v-4h1.1v10.6h-.9l-.2-1zm-2.2.2c.8 0 1.3-.2 1.7-.6.3-.4.5-1.1.5-2v-.2c0-1.1-.2-1.8-.5-2.3-.4-.5-.9-.7-1.7-.7-.7 0-1.2.3-1.5.8-.4.5-.5 1.2-.5 2.2 0 1 .2 1.7.5 2.2s.8.6 1.5.6zm5.6.1c0-.3.1-.5.2-.7.1-.2.3-.2.6-.2s.5.1.6.2c.1.2.2.4.2.7 0 .3-.1.5-.2.7s-.4.2-.6.2c-.2 0-.4-.1-.6-.2-.2-.2-.2-.4-.2-.7zM69.8 75.6h-1.2v-9h-3.2v-1H73v1h-3.2v9zm9.6 0v-4.8c0-.6-.1-1.1-.4-1.4-.3-.3-.7-.5-1.3-.5-.8 0-1.4.2-1.7.6s-.5 1.1-.5 2.1v3.9h-1.1V64.9h1.1v3.2c0 .4 0 .7-.1 1h.1c.2-.4.5-.6 1-.9.4-.2.9-.3 1.4-.3.9 0 1.6.2 2.1.7s.7 1.1.7 2.1v4.9h-1.3zm3.4-9.6c0-.3.1-.5.2-.6.1-.1.3-.2.5-.2s.3.1.5.2c.1.1.2.3.2.6s-.1.4-.2.6c-.1.1-.3.2-.5.2s-.4-.1-.5-.2c-.1-.1-.2-.3-.2-.6zm1.2 9.6h-1.1v-7.5H84v7.5zm7.3-2.1c0 .7-.3 1.2-.8 1.6s-1.2.6-2.2.6c-1 0-1.8-.2-2.3-.5v-1.1c.4.2.7.3 1.2.4.4.1.8.2 1.2.2.6 0 1-.1 1.4-.3.3-.2.5-.5.5-.9 0-.3-.1-.5-.4-.7s-.7-.5-1.5-.7c-.7-.3-1.2-.5-1.5-.7s-.5-.4-.7-.7-.2-.5-.2-.8c0-.6.2-1.1.7-1.4.5-.4 1.2-.5 2-.5s1.6.2 2.4.5l-.4.9c-.8-.3-1.4-.5-2-.5-.5 0-.9.1-1.2.3s-.4.4-.4.7c0 .2.1.4.2.5s.3.3.5.4c.2.1.7.3 1.3.6.9.3 1.5.6 1.8 1 .2.2.4.6.4 1.1zm10.1 2.1L98 66.7h-.1c.1.7.1 1.5.1 2.5v6.4h-1.1v-10h1.8l3.2 8.2h.1l3.2-8.2h1.7v10h-1.2v-6.4c0-.7 0-1.5.1-2.4h-.1l-3.4 8.8h-.9zm12.6 0-.2-1.1h-.1c-.4.5-.7.8-1.1 1-.4.2-.8.2-1.4.2-.7 0-1.3-.2-1.7-.6-.4-.4-.6-.9-.6-1.6 0-1.5 1.2-2.3 3.6-2.4h1.3v-.5c0-.6-.1-1-.4-1.3s-.7-.4-1.2-.4c-.6 0-1.3.2-2.1.6l-.3-.9c.4-.2.8-.4 1.2-.5.4-.1.9-.2 1.3-.2.9 0 1.6.2 2 .6s.6 1 .6 1.9v5.1h-.9zm-2.6-.8c.7 0 1.3-.2 1.7-.6s.6-.9.6-1.6v-.7h-1.1c-.9 0-1.6.2-2 .4-.4.2-.6.6-.6 1.2 0 .4.1.7.4.9.3.2.6.4 1 .4zm10.9.8v-4.8c0-.6-.1-1.1-.4-1.4-.3-.3-.7-.5-1.3-.5-.8 0-1.4.2-1.7.6-.4.4-.5 1.1-.5 2.1v3.9h-1.1V68h.9l.2 1h.1c.2-.4.6-.7 1-.9.4-.2.9-.3 1.4-.3.9 0 1.6.2 2 .7.5.4.7 1.1.7 2.1v4.9h-1.3zm8.1 0-.2-1.1h-.1c-.4.5-.7.8-1.1 1-.4.2-.8.2-1.4.2-.7 0-1.3-.2-1.7-.6-.4-.4-.6-.9-.6-1.6 0-1.5 1.2-2.3 3.6-2.4h1.3v-.5c0-.6-.1-1-.4-1.3s-.7-.4-1.2-.4c-.6 0-1.3.2-2.1.6l-.3-.9c.4-.2.8-.4 1.2-.5.4-.1.9-.2 1.3-.2.9 0 1.6.2 2 .6s.6 1 .6 1.9v5.1h-.9zm-2.6-.8c.7 0 1.3-.2 1.7-.6s.6-.9.6-1.6v-.7H129c-.9 0-1.6.2-2 .4-.4.2-.6.6-.6 1.2 0 .4.1.7.4.9.2.2.6.4 1 .4zm11.9-6.7v.7l-1.4.2.3.6c.1.3.2.5.2.9 0 .7-.2 1.3-.8 1.8-.5.4-1.2.7-2.1.7-.2 0-.4 0-.6-.1-.5.3-.7.6-.7 1 0 .2.1.4.3.5.2.1.5.1.9.1h1.3c.8 0 1.4.2 1.9.5.4.3.7.8.7 1.5 0 .8-.3 1.5-1 1.9-.7.4-1.6.7-2.9.7-1 0-1.7-.2-2.3-.5-.5-.4-.8-.9-.8-1.5 0-.5.1-.9.4-1.2.3-.3.7-.6 1.2-.7-.2-.1-.4-.2-.5-.4s-.2-.4-.2-.6c0-.3.1-.5.2-.7.1-.2.4-.4.7-.6-.4-.2-.7-.4-.9-.8-.2-.4-.4-.8-.4-1.3 0-.8.2-1.5.7-1.9s1.2-.7 2.1-.7c.4 0 .7 0 1.1.1h2.6zm-6 8.7c0 .4.2.7.5.9s.8.3 1.5.3c1 0 1.7-.1 2.1-.4s.7-.7.7-1.2c0-.4-.1-.7-.4-.8-.2-.2-.7-.2-1.4-.2h-1.4c-.5 0-.9.1-1.2.4s-.4.5-.4 1zm.6-6.3c0 .5.1.9.4 1.2.3.3.7.4 1.2.4 1.1 0 1.7-.5 1.7-1.6s-.6-1.7-1.7-1.7c-.5 0-.9.1-1.2.4s-.4.7-.4 1.3zm10.1 5.2c-1.1 0-2-.3-2.6-1-.6-.7-1-1.6-1-2.8 0-1.2.3-2.2.9-2.9s1.4-1.1 2.4-1.1c.9 0 1.7.3 2.2.9s.8 1.4.8 2.4v.8H142c0 .9.2 1.5.7 2 .4.5 1 .7 1.8.7s1.6-.2 2.4-.5v1c-.4.2-.8.3-1.1.4-.5 0-.9.1-1.4.1zm-.3-6.8c-.6 0-1.1.2-1.4.6-.4.4-.6.9-.6 1.6h3.9c0-.7-.2-1.3-.5-1.6-.4-.4-.8-.6-1.4-.6zm8.4-1c.3 0 .6 0 .9.1l-.2 1.1c-.3-.1-.6-.1-.8-.1-.6 0-1.1.2-1.6.7s-.6 1.1-.6 1.8v4h-1.1V68h.9l.1 1.4h.1c.3-.5.6-.9 1-1.1.4-.2.8-.4 1.3-.4zm5.9-1.9c0-.3.1-.5.2-.6.1-.1.3-.2.5-.2s.3.1.5.2c.1.1.2.3.2.6s-.1.4-.2.6c-.1.1-.3.2-.5.2s-.4-.1-.5-.2c-.2-.1-.2-.3-.2-.6zm1.2 9.6h-1.1v-7.5h1.1v7.5zm7.2-2.1c0 .7-.3 1.2-.8 1.6s-1.2.6-2.2.6c-1 0-1.8-.2-2.3-.5v-1.1c.4.2.7.3 1.2.4.4.1.8.2 1.2.2.6 0 1-.1 1.4-.3.3-.2.5-.5.5-.9 0-.3-.1-.5-.4-.7s-.7-.5-1.5-.7c-.7-.3-1.2-.5-1.5-.7s-.5-.4-.7-.7-.2-.5-.2-.9c0-.6.2-1.1.7-1.4.5-.4 1.2-.5 2-.5s1.6.2 2.4.5l-.4.9c-.8-.3-1.4-.5-2-.5-.5 0-.9.1-1.2.3s-.4.4-.4.7c0 .2.1.4.2.5s.3.3.5.4c.2.1.7.3 1.3.6.9.3 1.5.6 1.8 1 .3.3.4.7.4 1.2zm10.1 2.1-.2-1.1h-.1c-.4.5-.7.8-1.1 1-.4.2-.8.2-1.4.2-.7 0-1.3-.2-1.7-.6-.4-.4-.6-.9-.6-1.6 0-1.5 1.2-2.3 3.6-2.4h1.3v-.5c0-.6-.1-1-.4-1.3s-.7-.4-1.2-.4c-.6 0-1.3.2-2.1.6l-.3-.9c.4-.2.8-.4 1.2-.5.4-.1.9-.2 1.3-.2.9 0 1.6.2 2 .6s.6 1 .6 1.9v5.1h-.9zm-2.6-.8c.7 0 1.3-.2 1.7-.6s.6-.9.6-1.6v-.7h-1.1c-.9 0-1.6.2-2 .4-.4.2-.6.6-.6 1.2 0 .4.1.7.4.9.3.2.6.4 1 .4zm6.9.8h-1.1V64.9h1.1v10.7zm12 0v-4.9c0-.6-.1-1-.4-1.3-.3-.3-.7-.4-1.2-.4-.7 0-1.2.2-1.6.6-.3.4-.5 1-.5 1.9v4.2h-1.1v-4.9c0-.6-.1-1-.4-1.3-.3-.3-.7-.4-1.2-.4-.7 0-1.2.2-1.6.6-.3.4-.5 1.1-.5 2.1v3.9h-1.1v-7.5h.9l.2 1h.1c.2-.4.5-.6.9-.9s.8-.3 1.3-.3c1.2 0 1.9.4 2.3 1.3h.1c.2-.4.5-.7 1-.9s.9-.3 1.4-.3c.8 0 1.5.2 1.9.7.4.4.6 1.1.6 2.1v4.9h-1.1zm9.9-3.8c0 1.2-.3 2.2-.9 2.9s-1.5 1-2.5 1c-.7 0-1.3-.2-1.8-.5s-.9-.8-1.2-1.4c-.3-.6-.4-1.3-.4-2.1 0-1.2.3-2.2.9-2.9.6-.7 1.5-1 2.5-1s1.9.3 2.5 1c.6.9.9 1.8.9 3zm-5.7 0c0 1 .2 1.7.6 2.2s.9.8 1.7.8c.7 0 1.3-.2 1.7-.7.4-.5.6-1.2.6-2.2 0-1-.2-1.7-.6-2.2-.4-.5-1-.7-1.7-.7s-1.3.2-1.7.7c-.4.4-.6 1.1-.6 2.1zm12.5 1.7c0 .7-.3 1.2-.8 1.6s-1.2.6-2.2.6c-1 0-1.8-.2-2.3-.5v-1.1c.4.2.7.3 1.2.4.4.1.8.2 1.2.2.6 0 1-.1 1.4-.3.3-.2.5-.5.5-.9 0-.3-.1-.5-.4-.7s-.7-.5-1.5-.7c-.7-.3-1.2-.5-1.5-.7s-.5-.4-.7-.7-.2-.5-.2-.9c0-.6.2-1.1.7-1.4.5-.4 1.2-.5 2-.5s1.6.2 2.4.5l-.4.9c-.8-.3-1.4-.5-2-.5-.5 0-.9.1-1.2.3s-.4.4-.4.7c0 .2.1.4.2.5s.3.3.5.4c.2.1.7.3 1.3.6.9.3 1.5.6 1.8 1 .3.3.4.7.4 1.2zm4.3 1.3h.6c.2 0 .3-.1.4-.1v.9c-.1.1-.3.1-.5.1s-.5.1-.6.1c-1.4 0-2.2-.8-2.2-2.3V69h-1.1v-.5l1.1-.5.5-1.6h.7v1.7h2.2v.9H213v4.4c0 .5.1.8.3 1 .2.2.5.4.9.4zm9.6-6.9c.3 0 .6 0 .9.1l-.2 1.1c-.3-.1-.6-.1-.8-.1-.6 0-1.1.2-1.6.7s-.6 1.1-.6 1.8v4h-1.1V68h.9l.1 1.4h.1c.3-.5.6-.9 1-1.1.4-.2.8-.4 1.3-.4zm5.4 7.8c-1.1 0-2-.3-2.6-1-.6-.7-1-1.6-1-2.8 0-1.2.3-2.2.9-2.9s1.4-1.1 2.4-1.1c.9 0 1.7.3 2.2.9s.8 1.4.8 2.4v.8h-5.2c0 .9.2 1.5.7 2 .4.5 1 .7 1.8.7s1.6-.2 2.4-.5v1c-.4.2-.8.3-1.1.4-.3 0-.7.1-1.3.1zm-.3-6.8c-.6 0-1.1.2-1.4.6-.4.4-.6.9-.6 1.6h3.9c0-.7-.2-1.3-.5-1.6-.3-.4-.8-.6-1.4-.6zm9.6 6.7-.2-1.1h-.1c-.4.5-.7.8-1.1 1-.4.2-.8.2-1.4.2-.7 0-1.3-.2-1.7-.6-.4-.4-.6-.9-.6-1.6 0-1.5 1.2-2.3 3.6-2.4h1.3v-.5c0-.6-.1-1-.4-1.3s-.7-.4-1.2-.4c-.6 0-1.3.2-2.1.6l-.3-.9c.4-.2.8-.4 1.2-.5.4-.1.9-.2 1.3-.2.9 0 1.6.2 2 .6s.6 1 .6 1.9v5.1h-.9zm-2.5-.8c.7 0 1.3-.2 1.7-.6s.6-.9.6-1.6v-.7h-1.1c-.9 0-1.6.2-2 .4-.4.2-.6.6-.6 1.2 0 .4.1.7.4.9.2.2.5.4 1 .4zm10.8-.3c-.6.8-1.4 1.1-2.4 1.1s-1.7-.3-2.3-1c-.5-.7-.8-1.6-.8-2.9s.3-2.2.8-2.9 1.3-1 2.3-1c1 0 1.8.4 2.3 1.1h.1v-4h1.1v10.6h-.9l-.2-1zm-2.2.2c.8 0 1.3-.2 1.7-.6s.5-1.1.5-2v-.2c0-1.1-.2-1.8-.5-2.3-.4-.5-.9-.7-1.7-.7-.7 0-1.2.3-1.5.8-.4.5-.5 1.2-.5 2.2 0 1 .2 1.7.5 2.2.3.4.8.6 1.5.6zm4.5-6.6h1.2l1.6 4.3c.4 1 .6 1.7.7 2.1h.1c.1-.2.2-.6.4-1.2s.8-2.3 1.9-5.2h1.2l-3.2 8.5c-.3.8-.7 1.4-1.1 1.8-.4.4-.9.5-1.6.5-.3 0-.7 0-1-.1v-.9c.3.1.5.1.8.1.8 0 1.3-.4 1.7-1.3l.4-1.1-3.1-7.5zm8.1 6.7c0-.3.1-.5.2-.7.1-.2.3-.2.6-.2s.5.1.6.2c.1.2.2.4.2.7 0 .3-.1.5-.2.7s-.4.2-.6.2c-.2 0-.4-.1-.6-.2-.1-.1-.2-.3-.2-.7zm7.7.8v-10h1.2v10h-1.2zm6.1-.8h.6c.2 0 .3-.1.4-.1v.9c-.1.1-.3.1-.5.1s-.5.1-.6.1c-1.4 0-2.2-.8-2.2-2.3V69h-1.1v-.5l1.1-.5.5-1.6h.7v1.7h2.2v.9h-2.2v4.4c0 .5.1.8.3 1s.5.4.8.4zm11.3.8v-4.8c0-.6-.1-1.1-.4-1.4s-.7-.5-1.3-.5c-.8 0-1.4.2-1.7.6-.4.4-.5 1.1-.5 2.1v3.9h-1.1V64.9h1.1v3.2c0 .4 0 .7-.1 1h.1c.2-.4.5-.6 1-.9.4-.2.9-.3 1.4-.3.9 0 1.6.2 2.1.7.5.4.7 1.1.7 2.1v4.9h-1.3zm8.1 0-.2-1.1h-.1c-.4.5-.7.8-1.1 1-.4.2-.8.2-1.4.2-.7 0-1.3-.2-1.7-.6-.4-.4-.6-.9-.6-1.6 0-1.5 1.2-2.3 3.6-2.4h1.3v-.5c0-.6-.1-1-.4-1.3-.3-.3-.7-.4-1.2-.4-.6 0-1.3.2-2.1.6l-.3-.9c.4-.2.8-.4 1.2-.5.4-.1.9-.2 1.3-.2.9 0 1.6.2 2 .6.4.4.6 1 .6 1.9v5.1h-.9zm-2.6-.8c.7 0 1.3-.2 1.7-.6.4-.4.6-.9.6-1.6v-.7H289c-.9 0-1.6.2-2 .4-.4.2-.6.6-.6 1.2 0 .4.1.7.4.9.2.2.6.4 1 .4zm10.6-1.3c0 .7-.3 1.2-.8 1.6s-1.2.6-2.2.6c-1 0-1.8-.2-2.3-.5v-1.1c.4.2.7.3 1.2.4.4.1.8.2 1.2.2.6 0 1-.1 1.4-.3s.5-.5.5-.9c0-.3-.1-.5-.4-.7-.3-.2-.7-.5-1.5-.7-.7-.3-1.2-.5-1.5-.7-.3-.2-.5-.4-.7-.7-.1-.2-.2-.5-.2-.9 0-.6.2-1.1.7-1.4s1.2-.5 2-.5 1.6.2 2.4.5l-.4.9c-.8-.3-1.4-.5-2-.5-.5 0-.9.1-1.2.3s-.4.4-.4.7c0 .2.1.4.2.5.1.1.3.3.5.4s.7.3 1.3.6c.9.3 1.5.6 1.8 1 .3.3.4.7.4 1.2zm9-5.6c1 0 1.7.3 2.3 1 .5.7.8 1.6.8 2.9s-.3 2.2-.8 2.9c-.5.7-1.3 1-2.3 1-.5 0-.9-.1-1.3-.3-.4-.2-.7-.5-1-.8h-.1l-.2 1h-.8V64.9h1.1v2.6c0 .6 0 1.1-.1 1.6h.1c.5-.8 1.2-1.2 2.3-1.2zm-.2 1c-.8 0-1.3.2-1.7.7s-.5 1.2-.5 2.2.2 1.8.5 2.3.9.7 1.7.7c.7 0 1.2-.3 1.6-.8s.5-1.2.5-2.2c0-1-.2-1.7-.5-2.2s-.9-.7-1.6-.7zm8.4 6.8c-1.1 0-2-.3-2.6-1-.6-.7-1-1.6-1-2.8 0-1.2.3-2.2.9-2.9.6-.7 1.4-1.1 2.4-1.1.9 0 1.7.3 2.2.9s.8 1.4.8 2.4v.8h-5.2c0 .9.2 1.5.7 2 .4.5 1 .7 1.8.7s1.6-.2 2.4-.5v1c-.4.2-.8.3-1.1.4-.3 0-.8.1-1.3.1zm-.3-6.8c-.6 0-1.1.2-1.4.6-.4.4-.6.9-.6 1.6h3.9c0-.7-.2-1.3-.5-1.6s-.8-.6-1.4-.6zm8.2 6.8c-1.1 0-2-.3-2.6-1-.6-.7-1-1.6-1-2.8 0-1.2.3-2.2.9-2.9.6-.7 1.4-1.1 2.4-1.1.9 0 1.7.3 2.2.9s.8 1.4.8 2.4v.8H321c0 .9.2 1.5.7 2 .4.5 1 .7 1.8.7s1.6-.2 2.4-.5v1c-.4.2-.8.3-1.1.4-.4 0-.8.1-1.3.1zm-.3-6.8c-.6 0-1.1.2-1.4.6-.4.4-.6.9-.6 1.6h3.9c0-.7-.2-1.3-.5-1.6s-.8-.6-1.4-.6zm10.1 6.7v-4.8c0-.6-.1-1.1-.4-1.4s-.7-.5-1.3-.5c-.8 0-1.4.2-1.7.6s-.5 1.1-.5 2.1v3.9h-1.1V68h.9l.2 1h.1c.2-.4.6-.7 1-.9s.9-.3 1.4-.3c.9 0 1.6.2 2 .7s.7 1.1.7 2.1v4.9h-1.3zm9.5-.8h.6c.2 0 .3-.1.4-.1v.9c-.1.1-.3.1-.5.1s-.5.1-.6.1c-1.4 0-2.2-.8-2.2-2.3V69h-1.1v-.5l1.1-.5.5-1.6h.7v1.7h2.2v.9h-2.2v4.4c0 .5.1.8.3 1s.5.4.8.4zm5.7.9c-1.1 0-2-.3-2.6-1-.6-.7-1-1.6-1-2.8 0-1.2.3-2.2.9-2.9.6-.7 1.4-1.1 2.4-1.1.9 0 1.7.3 2.2.9s.8 1.4.8 2.4v.8H346c0 .9.2 1.5.7 2 .4.5 1 .7 1.8.7s1.6-.2 2.4-.5v1c-.4.2-.8.3-1.1.4-.3 0-.8.1-1.3.1zm-.3-6.8c-.6 0-1.1.2-1.4.6-.4.4-.6.9-.6 1.6h3.9c0-.7-.2-1.3-.5-1.6s-.8-.6-1.4-.6zm9.8 4.6c0 .7-.3 1.2-.8 1.6s-1.2.6-2.2.6c-1 0-1.8-.2-2.3-.5v-1.1c.4.2.7.3 1.2.4.4.1.8.2 1.2.2.6 0 1-.1 1.4-.3s.5-.5.5-.9c0-.3-.1-.5-.4-.7-.3-.2-.7-.5-1.5-.7-.7-.3-1.2-.5-1.5-.7-.3-.2-.5-.4-.7-.7-.1-.2-.2-.5-.2-.9 0-.6.2-1.1.7-1.4s1.2-.5 2-.5 1.6.2 2.4.5l-.4.9c-.8-.3-1.4-.5-2-.5-.5 0-.9.1-1.2.3s-.4.4-.4.7c0 .2.1.4.2.5.1.1.3.3.5.4s.7.3 1.3.6c.9.3 1.5.6 1.8 1 .3.3.4.7.4 1.2zm4.3 1.3h.6c.2 0 .3-.1.4-.1v.9c-.1.1-.3.1-.5.1s-.5.1-.6.1c-1.4 0-2.2-.8-2.2-2.3V69h-1.1v-.5l1.1-.5.5-1.6h.7v1.7h2.2v.9h-2.2v4.4c0 .5.1.8.3 1s.4.4.8.4zm5.7.9c-1.1 0-2-.3-2.6-1-.6-.7-1-1.6-1-2.8 0-1.2.3-2.2.9-2.9.6-.7 1.4-1.1 2.4-1.1.9 0 1.7.3 2.2.9s.8 1.4.8 2.4v.8h-5.2c0 .9.2 1.5.7 2 .4.5 1 .7 1.8.7s1.6-.2 2.4-.5v1c-.4.2-.8.3-1.1.4-.4 0-.8.1-1.3.1zm-.3-6.8c-.6 0-1.1.2-1.4.6-.4.4-.6.9-.6 1.6h3.9c0-.7-.2-1.3-.5-1.6s-.8-.6-1.4-.6zm10.1 5.6c-.6.8-1.4 1.1-2.4 1.1s-1.7-.3-2.3-1c-.5-.7-.8-1.6-.8-2.9s.3-2.2.8-2.9 1.3-1 2.3-1c1 0 1.8.4 2.3 1.1h.1v-4h1.1v10.6h-.9l-.2-1zm-2.3.2c.8 0 1.3-.2 1.7-.6.3-.4.5-1.1.5-2v-.2c0-1.1-.2-1.8-.5-2.3-.4-.5-.9-.7-1.7-.7-.7 0-1.2.3-1.5.8-.4.5-.5 1.2-.5 2.2 0 1 .2 1.7.5 2.2s.8.6 1.5.6zm14 .9-.2-1.1h-.1c-.4.5-.7.8-1.1 1-.4.2-.8.2-1.4.2-.7 0-1.3-.2-1.7-.6-.4-.4-.6-.9-.6-1.6 0-1.5 1.2-2.3 3.6-2.4h1.3v-.5c0-.6-.1-1-.4-1.3-.3-.3-.7-.4-1.2-.4-.6 0-1.3.2-2.1.6l-.3-.9c.4-.2.8-.4 1.2-.5.4-.1.9-.2 1.3-.2.9 0 1.6.2 2 .6.4.4.6 1 .6 1.9v5.1h-.9zm-2.6-.8c.7 0 1.3-.2 1.7-.6.4-.4.6-.9.6-1.6v-.7h-1.1c-.9 0-1.6.2-2 .4-.4.2-.6.6-.6 1.2 0 .4.1.7.4.9.3.2.6.4 1 .4zm10.9.8v-4.8c0-.6-.1-1.1-.4-1.4s-.7-.5-1.3-.5c-.8 0-1.4.2-1.7.6s-.5 1.1-.5 2.1v3.9h-1.1V68h.9l.2 1h.1c.2-.4.6-.7 1-.9s.9-.3 1.4-.3c.9 0 1.6.2 2 .7s.7 1.1.7 2.1v4.9h-1.3zm8.6-1.1c-.6.8-1.4 1.1-2.4 1.1s-1.7-.3-2.3-1c-.5-.7-.8-1.6-.8-2.9s.3-2.2.8-2.9 1.3-1 2.3-1c1 0 1.8.4 2.3 1.1h.1v-4h1.1v10.6h-.9l-.2-1zm-2.3.2c.8 0 1.3-.2 1.7-.6.3-.4.5-1.1.5-2v-.2c0-1.1-.2-1.8-.5-2.3-.4-.5-.9-.7-1.7-.7-.7 0-1.2.3-1.5.8-.4.5-.5 1.2-.5 2.2 0 1 .2 1.7.5 2.2s.8.6 1.5.6zm11.8.1h.6c.2 0 .3-.1.4-.1v.9c-.1.1-.3.1-.5.1s-.5.1-.6.1c-1.4 0-2.2-.8-2.2-2.3V69h-1.1v-.5l1.1-.5.5-1.6h.7v1.7h2.2v.9h-2.2v4.4c0 .5.1.8.3 1s.4.4.8.4zm7.7.8v-4.8c0-.6-.1-1.1-.4-1.4s-.7-.5-1.3-.5c-.8 0-1.4.2-1.7.6-.4.4-.5 1.1-.5 2.1v3.9h-1.1V64.9h1.1v3.2c0 .4 0 .7-.1 1h.1c.2-.4.5-.6 1-.9.4-.2.9-.3 1.4-.3.9 0 1.6.2 2.1.7.5.4.7 1.1.7 2.1v4.9h-1.3zm6.6.1c-1.1 0-2-.3-2.6-1-.6-.7-1-1.6-1-2.8 0-1.2.3-2.2.9-2.9.6-.7 1.4-1.1 2.4-1.1.9 0 1.7.3 2.2.9s.8 1.4.8 2.4v.8h-5.2c0 .9.2 1.5.7 2 .4.5 1 .7 1.8.7s1.6-.2 2.4-.5v1c-.4.2-.8.3-1.1.4-.4 0-.8.1-1.3.1zm-.3-6.8c-.6 0-1.1.2-1.4.6-.4.4-.6.9-.6 1.6h3.9c0-.7-.2-1.3-.5-1.6s-.8-.6-1.4-.6zM69.8 92.4h-1.2v-9h-3.2v-1H73v1h-3.2v9zm11-7.1c0 1-.3 1.8-1 2.3s-1.7.8-3 .8h-1.2v3.9h-1.2v-10H77c2.6.1 3.8 1 3.8 3zm-5.2 2.1h1c1 0 1.8-.2 2.2-.5.5-.3.7-.9.7-1.6 0-.7-.2-1.2-.6-1.5-.4-.3-1.1-.5-2-.5h-1.3v4.1zm7.3 5v-10h1.2v10h-1.2zm7.3-9.6c0-.3.1-.5.2-.6.1-.1.3-.2.5-.2s.3.1.5.2c.1.1.2.3.2.6s-.1.4-.2.6c-.1.1-.3.2-.5.2s-.4-.1-.5-.2c-.1-.1-.2-.3-.2-.6zm1.2 9.6h-1.1v-7.5h1.1v7.5zm7.3-2.1c0 .7-.3 1.2-.8 1.6s-1.2.6-2.2.6c-1 0-1.8-.2-2.3-.5v-1c.4.2.7.3 1.2.4.4.1.8.2 1.2.2.6 0 1-.1 1.4-.3.3-.2.5-.5.5-.9 0-.3-.1-.5-.4-.7s-.7-.5-1.5-.7c-.7-.3-1.2-.5-1.5-.7s-.5-.4-.7-.7-.2-.5-.2-.9c0-.6.2-1.1.7-1.4.5-.4 1.2-.5 2-.5s1.6.2 2.4.5l-.4.9c-.8-.3-1.4-.5-2-.5-.5 0-.9.1-1.2.3s-.4.4-.4.7c0 .2.1.4.2.5s.3.3.5.4c.2.1.7.3 1.3.6.9.3 1.5.6 1.8 1 .2.2.4.6.4 1.1zm10.3 0c0 .7-.3 1.2-.8 1.6s-1.2.6-2.2.6c-1 0-1.8-.2-2.3-.5v-1c.4.2.7.3 1.2.4.4.1.8.2 1.2.2.6 0 1-.1 1.4-.3.3-.2.5-.5.5-.9 0-.3-.1-.5-.4-.7s-.7-.5-1.5-.7c-.7-.3-1.2-.5-1.5-.7s-.5-.4-.7-.7-.2-.5-.2-.9c0-.6.2-1.1.7-1.4.5-.4 1.2-.5 2-.5s1.6.2 2.4.5l-.4.9c-.8-.3-1.4-.5-2-.5-.5 0-.9.1-1.2.3s-.4.4-.4.7c0 .2.1.4.2.5s.3.3.5.4c.2.1.7.3 1.3.6.9.3 1.5.6 1.8 1 .2.2.4.6.4 1.1zm4.2 1.3h.6c.2 0 .3-.1.4-.1v.9c-.1.1-.3.1-.5.1s-.5.1-.6.1c-1.4 0-2.2-.8-2.2-2.3v-4.5h-1.1v-.5l1.1-.5.5-1.6h.7v1.7h2.2v.9H112v4.4c0 .5.1.8.3 1 .3.2.6.4.9.4zm7.2.8-.2-1.1h-.1c-.4.5-.7.8-1.1 1-.4.2-.8.2-1.4.2-.7 0-1.3-.2-1.7-.6-.4-.4-.6-.9-.6-1.6 0-1.5 1.2-2.3 3.6-2.4h1.3v-.5c0-.6-.1-1-.4-1.3s-.7-.4-1.2-.4c-.6 0-1.3.2-2.1.6l-.3-.9c.4-.2.8-.4 1.2-.5.4-.1.9-.2 1.3-.2.9 0 1.6.2 2 .6s.6 1 .6 1.9v5.1h-.9zm-2.6-.8c.7 0 1.3-.2 1.7-.6s.6-.9.6-1.6v-.7H119c-.9 0-1.6.2-2 .4-.4.2-.6.6-.6 1.2 0 .4.1.7.4.9.2.2.6.4 1 .4zm9.2-6.9c1 0 1.7.3 2.3 1 .5.7.8 1.6.8 2.9s-.3 2.2-.8 2.9c-.5.7-1.3 1-2.3 1-.5 0-.9-.1-1.3-.3s-.7-.5-1-.8h-.1l-.2 1h-.8V81.7h1.1v2.6c0 .6 0 1.1-.1 1.6h.1c.5-.8 1.3-1.2 2.3-1.2zm-.1 1c-.8 0-1.3.2-1.7.7s-.5 1.2-.5 2.2.2 1.8.5 2.3c.4.5.9.7 1.7.7.7 0 1.2-.3 1.6-.8s.5-1.2.5-2.2c0-1-.2-1.7-.5-2.2s-.9-.7-1.6-.7zm6.4 6.7h-1.1V81.7h1.1v10.7zm5.5.1c-1.1 0-2-.3-2.6-1-.6-.7-1-1.6-1-2.8 0-1.2.3-2.2.9-2.9s1.4-1.1 2.4-1.1c.9 0 1.7.3 2.2.9s.8 1.4.8 2.4v.7h-5.2c0 .9.2 1.5.7 2 .4.5 1 .7 1.8.7s1.6-.2 2.4-.5v1c-.4.2-.8.3-1.1.4-.3.1-.8.2-1.3.2zm-.3-6.8c-.6 0-1.1.2-1.4.6-.4.4-.6.9-.6 1.6h3.9c0-.7-.2-1.3-.5-1.6-.3-.4-.8-.6-1.4-.6zm6.2 5 .1.2c-.1.5-.3 1-.5 1.6-.2.6-.5 1.2-.7 1.7h-.9c.1-.5.3-1.1.4-1.8.1-.7.3-1.3.3-1.7h1.3zm9.4-6c1 0 1.7.3 2.3 1 .5.7.8 1.6.8 2.9s-.3 2.2-.8 2.9c-.5.7-1.3 1-2.3 1-.5 0-.9-.1-1.3-.3s-.7-.5-1-.8h-.1l-.2 1h-.8V81.7h1.1v2.6c0 .6 0 1.1-.1 1.6h.1c.5-.8 1.2-1.2 2.3-1.2zm-.2 1c-.8 0-1.3.2-1.7.7s-.5 1.2-.5 2.2.2 1.8.5 2.3c.4.5.9.7 1.7.7.7 0 1.2-.3 1.6-.8s.5-1.2.5-2.2c0-1-.2-1.7-.5-2.2s-.9-.7-1.6-.7zm6.3-.8v4.9c0 .6.1 1.1.4 1.4.3.3.7.5 1.3.5.8 0 1.4-.2 1.7-.6s.5-1.1.5-2.1v-3.9h1.1v7.5h-.9l-.2-1h-.1c-.2.4-.6.7-1 .8-.4.2-.9.3-1.4.3-.9 0-1.6-.2-2-.6-.5-.4-.7-1.1-.7-2.1v-4.9h1.3zm10 6.7h.6c.2 0 .3-.1.4-.1v.9c-.1.1-.3.1-.5.1s-.5.1-.6.1c-1.4 0-2.2-.8-2.2-2.3v-4.5h-1.1v-.5l1.1-.5.5-1.6h.7v1.7h2.2v.9H169v4.4c0 .5.1.8.3 1 .2.2.5.4.9.4zm8.6 0h.6c.2 0 .3-.1.4-.1v.9c-.1.1-.3.1-.5.1s-.5.1-.6.1c-1.4 0-2.2-.8-2.2-2.3v-4.5h-1.1v-.5l1.1-.5.5-1.6h.7v1.7h2.2v.9h-2.2v4.4c0 .5.1.8.3 1 .1.2.4.4.8.4zm7.6.8v-4.8c0-.6-.1-1.1-.4-1.4-.3-.3-.7-.5-1.3-.5-.8 0-1.4.2-1.7.6s-.5 1.1-.5 2.1v3.9h-1.1V81.7h1.1v3.2c0 .4 0 .7-.1 1h.1c.2-.4.5-.6 1-.9.4-.2.9-.3 1.4-.3.9 0 1.6.2 2.1.7s.7 1.1.7 2.1v4.9h-1.3zm6.6.1c-1.1 0-2-.3-2.6-1-.6-.7-1-1.6-1-2.8 0-1.2.3-2.2.9-2.9s1.4-1.1 2.4-1.1c.9 0 1.7.3 2.2.9s.8 1.4.8 2.4v.7h-5.2c0 .9.2 1.5.7 2 .4.5 1 .7 1.8.7s1.6-.2 2.4-.5v1c-.4.2-.8.3-1.1.4-.3.1-.8.2-1.3.2zm-.3-6.8c-.6 0-1.1.2-1.4.6-.4.4-.6.9-.6 1.6h3.9c0-.7-.2-1.3-.5-1.6-.3-.4-.8-.6-1.4-.6zm8.5-1c.3 0 .6 0 .9.1l-.2 1.1c-.3-.1-.6-.1-.8-.1-.6 0-1.1.2-1.6.7s-.6 1.1-.6 1.8v4h-1.1v-7.5h.9l.1 1.4h.1c.3-.5.6-.9 1-1.1.4-.2.8-.4 1.3-.4zm5.4 7.8c-1.1 0-2-.3-2.6-1-.6-.7-1-1.6-1-2.8 0-1.2.3-2.2.9-2.9s1.4-1.1 2.4-1.1c.9 0 1.7.3 2.2.9s.8 1.4.8 2.4v.7h-5.2c0 .9.2 1.5.7 2 .4.5 1 .7 1.8.7s1.6-.2 2.4-.5v1c-.4.2-.8.3-1.1.4-.3.1-.8.2-1.3.2zm-.3-6.8c-.6 0-1.1.2-1.4.6-.4.4-.6.9-.6 1.6h3.9c0-.7-.2-1.3-.5-1.6-.3-.4-.8-.6-1.4-.6zm18.2 6.7v-4.9c0-.6-.1-1-.4-1.3-.3-.3-.7-.4-1.2-.4-.7 0-1.2.2-1.6.6-.3.4-.5 1-.5 1.9v4.2h-1.1v-4.9c0-.6-.1-1-.4-1.3-.3-.3-.7-.4-1.2-.4-.7 0-1.2.2-1.6.6-.3.4-.5 1.1-.5 2.1v3.9h-1.1V85h.9l.2 1h.1c.2-.4.5-.6.9-.9s.8-.3 1.3-.3c1.2 0 1.9.4 2.3 1.3h.1c.2-.4.5-.7 1-.9s.9-.3 1.4-.3c.8 0 1.5.2 1.9.7.4.4.6 1.1.6 2.1v4.9h-1.1zm8.1 0-.2-1.1h-.1c-.4.5-.7.8-1.1 1-.4.2-.8.2-1.4.2-.7 0-1.3-.2-1.7-.6-.4-.4-.6-.9-.6-1.6 0-1.5 1.2-2.3 3.6-2.4h1.3v-.5c0-.6-.1-1-.4-1.3s-.7-.4-1.2-.4c-.6 0-1.3.2-2.1.6l-.3-.9c.4-.2.8-.4 1.2-.5.4-.1.9-.2 1.3-.2.9 0 1.6.2 2 .6s.6 1 .6 1.9v5.1h-.9zm-2.6-.8c.7 0 1.3-.2 1.7-.6s.6-.9.6-1.6v-.7h-1.1c-.9 0-1.6.2-2 .4-.4.2-.6.6-.6 1.2 0 .4.1.7.4.9.2.2.6.4 1 .4zm4.6-6.7h1.2l1.6 4.3c.4 1 .6 1.7.7 2.1h.1c.1-.2.2-.6.4-1.2s.8-2.3 1.9-5.2h1.2l-3.2 8.5c-.3.8-.7 1.4-1.1 1.8-.4.4-.9.5-1.6.5-.3 0-.7 0-1-.1v-.9c.3.1.5.1.8.1.8 0 1.3-.4 1.7-1.3l.4-1.1-3.1-7.5zm15.3-.2c1 0 1.7.3 2.3 1 .5.7.8 1.6.8 2.9s-.3 2.2-.8 2.9c-.5.7-1.3 1-2.3 1-.5 0-.9-.1-1.3-.3s-.7-.5-1-.8h-.1l-.2 1h-.8V81.7h1.1v2.6c0 .6 0 1.1-.1 1.6h.1c.5-.8 1.3-1.2 2.3-1.2zm-.1 1c-.8 0-1.3.2-1.7.7s-.5 1.2-.5 2.2.2 1.8.5 2.3c.4.5.9.7 1.7.7.7 0 1.2-.3 1.6-.8s.5-1.2.5-2.2c0-1-.2-1.7-.5-2.2s-.9-.7-1.6-.7zm8.4 6.8c-1.1 0-2-.3-2.6-1-.6-.7-1-1.6-1-2.8 0-1.2.3-2.2.9-2.9s1.4-1.1 2.4-1.1c.9 0 1.7.3 2.2.9s.8 1.4.8 2.4v.7h-5.2c0 .9.2 1.5.7 2 .4.5 1 .7 1.8.7s1.6-.2 2.4-.5v1c-.4.2-.8.3-1.1.4-.4.1-.8.2-1.3.2zm-.3-6.8c-.6 0-1.1.2-1.4.6-.4.4-.6.9-.6 1.6h3.9c0-.7-.2-1.3-.5-1.6s-.8-.6-1.4-.6zm18.2 6.7v-4.9c0-.6-.1-1-.4-1.3s-.7-.4-1.2-.4c-.7 0-1.2.2-1.6.6s-.5 1-.5 1.9v4.2h-1.1v-4.9c0-.6-.1-1-.4-1.3s-.7-.4-1.2-.4c-.7 0-1.2.2-1.6.6-.3.4-.5 1.1-.5 2.1v3.9h-1.1V85h.9l.2 1h.1c.2-.4.5-.6.9-.9.4-.2.8-.3 1.3-.3 1.2 0 1.9.4 2.3 1.3h.1c.2-.4.5-.7 1-.9s.9-.3 1.4-.3c.8 0 1.5.2 1.9.7.4.4.6 1.1.6 2.1v4.9h-1.1zm3.3-9.6c0-.3.1-.5.2-.6s.3-.2.5-.2.3.1.5.2.2.3.2.6-.1.4-.2.6-.3.2-.5.2-.4-.1-.5-.2-.2-.3-.2-.6zm1.3 9.6h-1.1v-7.5h1.1v7.5zm7.5 0v-4.8c0-.6-.1-1.1-.4-1.4s-.7-.5-1.3-.5c-.8 0-1.4.2-1.7.6s-.5 1.1-.5 2.1v3.9h-1.1v-7.5h.9l.2 1h.1c.2-.4.6-.7 1-.9s.9-.3 1.4-.3c.9 0 1.6.2 2 .7s.7 1.1.7 2.1v4.9h-1.3zm9.9-3.8c0 1.2-.3 2.2-.9 2.9s-1.5 1-2.5 1c-.7 0-1.3-.2-1.8-.5s-.9-.8-1.2-1.4-.4-1.3-.4-2.1c0-1.2.3-2.2.9-2.9s1.5-1 2.5-1 1.9.3 2.5 1c.6.9.9 1.8.9 3zm-5.7 0c0 1 .2 1.7.6 2.2s.9.8 1.7.8 1.3-.2 1.7-.7c.4-.5.6-1.2.6-2.2 0-1-.2-1.7-.6-2.2-.4-.5-1-.7-1.7-.7s-1.3.2-1.7.7-.6 1.1-.6 2.1zm11.1-3.9c.3 0 .6 0 .9.1l-.2 1.1c-.3-.1-.6-.1-.8-.1-.6 0-1.1.2-1.6.7-.4.5-.6 1.1-.6 1.8v4h-1.1v-7.5h.9l.1 1.4h.1c.3-.5.6-.9 1-1.1s.9-.4 1.3-.4zm9 7.8c-1.1 0-1.9-.3-2.5-1-.6-.7-.9-1.6-.9-2.8 0-1.3.3-2.2.9-2.9.6-.7 1.5-1 2.6-1 .4 0 .7 0 1.1.1s.6.2.8.3l-.3 1c-.3-.1-.5-.2-.8-.2s-.6-.1-.8-.1c-1.5 0-2.3 1-2.3 2.9 0 .9.2 1.6.6 2.1.4.5.9.7 1.7.7.6 0 1.3-.1 1.9-.4v1c-.6.2-1.3.3-2 .3zm8.8-.1v-4.8c0-.6-.1-1.1-.4-1.4s-.7-.5-1.3-.5c-.8 0-1.4.2-1.7.6-.4.4-.5 1.1-.5 2.1v3.9h-1.1V81.7h1.1v3.2c0 .4 0 .7-.1 1h.1c.2-.4.5-.6 1-.9.4-.2.9-.3 1.4-.3.9 0 1.6.2 2.1.7.5.4.7 1.1.7 2.1v4.9h-1.3zm8 0-.2-1.1h-.1c-.4.5-.7.8-1.1 1-.4.2-.8.2-1.4.2-.7 0-1.3-.2-1.7-.6-.4-.4-.6-.9-.6-1.6 0-1.5 1.2-2.3 3.6-2.4h1.3v-.5c0-.6-.1-1-.4-1.3-.3-.3-.7-.4-1.2-.4-.6 0-1.3.2-2.1.6l-.3-.9c.4-.2.8-.4 1.2-.5.4-.1.9-.2 1.3-.2.9 0 1.6.2 2 .6.4.4.6 1 .6 1.9v5.1h-.9zm-2.5-.8c.7 0 1.3-.2 1.7-.6.4-.4.6-.9.6-1.6v-.7H328c-.9 0-1.6.2-2 .4-.4.2-.6.6-.6 1.2 0 .4.1.7.4.9.2.2.5.4 1 .4zm10.8.8v-4.8c0-.6-.1-1.1-.4-1.4s-.7-.5-1.3-.5c-.8 0-1.4.2-1.7.6s-.5 1.1-.5 2.1v3.9h-1.1v-7.5h.9l.2 1h.1c.2-.4.6-.7 1-.9s.9-.3 1.4-.3c.9 0 1.6.2 2 .7s.7 1.1.7 2.1v4.9h-1.3zm9.6-7.5v.7l-1.4.2.3.6c.1.2.2.5.2.9 0 .7-.3 1.3-.8 1.8s-1.2.7-2.1.7c-.2 0-.4 0-.6-.1-.5.3-.7.6-.7 1 0 .2.1.4.3.5s.5.1.9.1h1.3c.8 0 1.4.2 1.9.5.4.3.7.8.7 1.5 0 .8-.3 1.5-1 1.9-.7.4-1.6.7-2.9.7-1 0-1.7-.2-2.3-.5-.5-.4-.8-.9-.8-1.5 0-.5.1-.9.4-1.2s.7-.6 1.2-.7c-.2-.1-.4-.2-.5-.4-.1-.2-.2-.4-.2-.6 0-.3.1-.5.2-.7s.4-.4.7-.6c-.4-.2-.7-.4-.9-.8-.2-.4-.4-.8-.4-1.3 0-.8.2-1.5.7-1.9s1.2-.7 2.1-.7c.4 0 .7 0 1.1.1h2.6zm-5.9 8.7c0 .4.2.7.5.9.3.2.8.3 1.5.3 1 0 1.7-.1 2.1-.4.5-.3.7-.7.7-1.2 0-.4-.1-.7-.4-.8s-.7-.2-1.4-.2h-1.4c-.5 0-.9.1-1.2.4s-.4.5-.4 1zm.6-6.3c0 .5.1.9.4 1.2s.7.4 1.2.4c1.1 0 1.7-.5 1.7-1.6s-.6-1.7-1.7-1.7c-.5 0-.9.1-1.2.4s-.4.7-.4 1.3zm10 5.2c-1.1 0-2-.3-2.6-1-.6-.7-1-1.6-1-2.8 0-1.2.3-2.2.9-2.9.6-.7 1.4-1.1 2.4-1.1.9 0 1.7.3 2.2.9s.8 1.4.8 2.4v.7h-5.2c0 .9.2 1.5.7 2 .4.5 1 .7 1.8.7s1.6-.2 2.4-.5v1c-.4.2-.8.3-1.1.4-.3.1-.7.2-1.3.2zm-.3-6.8c-.6 0-1.1.2-1.4.6-.4.4-.6.9-.6 1.6h3.9c0-.7-.2-1.3-.5-1.6s-.8-.6-1.4-.6zm9.9 4.6c0 .7-.3 1.2-.8 1.6s-1.2.6-2.2.6c-1 0-1.8-.2-2.3-.5v-1c.4.2.7.3 1.2.4.4.1.8.2 1.2.2.6 0 1-.1 1.4-.3s.5-.5.5-.9c0-.3-.1-.5-.4-.7-.3-.2-.7-.5-1.5-.7-.7-.3-1.2-.5-1.5-.7-.3-.2-.5-.4-.7-.7-.1-.2-.2-.5-.2-.9 0-.6.2-1.1.7-1.4s1.2-.5 2-.5 1.6.2 2.4.5l-.4.9c-.8-.3-1.4-.5-2-.5-.5 0-.9.1-1.2.3s-.4.4-.4.7c0 .2.1.4.2.5.1.1.3.3.5.4s.7.3 1.3.6c.9.3 1.5.6 1.8 1 .2.2.4.6.4 1.1zm7.9 1.3h.6c.2 0 .3-.1.4-.1v.9c-.1.1-.3.1-.5.1s-.5.1-.6.1c-1.4 0-2.2-.8-2.2-2.3v-4.5H366v-.5l1.1-.5.5-1.6h.7v1.7h2.2v.9h-2.2v4.4c0 .5.1.8.3 1s.4.4.8.4zm9-3c0 1.2-.3 2.2-.9 2.9s-1.5 1-2.5 1c-.7 0-1.3-.2-1.8-.5s-.9-.8-1.2-1.4-.4-1.3-.4-2.1c0-1.2.3-2.2.9-2.9s1.5-1 2.5-1 1.9.3 2.5 1c.6.9.9 1.8.9 3zm-5.7 0c0 1 .2 1.7.6 2.2s.9.8 1.7.8 1.3-.2 1.7-.7c.4-.5.6-1.2.6-2.2 0-1-.2-1.7-.6-2.2-.4-.5-1-.7-1.7-.7s-1.3.2-1.7.7-.6 1.1-.6 2.1zm14.3 3.9c-1.1 0-1.9-.3-2.5-1-.6-.7-.9-1.6-.9-2.8 0-1.3.3-2.2.9-2.9.6-.7 1.5-1 2.6-1 .4 0 .7 0 1.1.1s.6.2.8.3l-.3 1c-.3-.1-.5-.2-.8-.2s-.6-.1-.8-.1c-1.5 0-2.3 1-2.3 2.9 0 .9.2 1.6.6 2.1.4.5.9.7 1.7.7.6 0 1.3-.1 1.9-.4v1c-.6.2-1.3.3-2 .3zm10.1-3.9c0 1.2-.3 2.2-.9 2.9s-1.5 1-2.5 1c-.7 0-1.3-.2-1.8-.5s-.9-.8-1.2-1.4-.4-1.3-.4-2.1c0-1.2.3-2.2.9-2.9s1.5-1 2.5-1 1.9.3 2.5 1c.6.9.9 1.8.9 3zm-5.7 0c0 1 .2 1.7.6 2.2s.9.8 1.7.8 1.3-.2 1.7-.7c.4-.5.6-1.2.6-2.2 0-1-.2-1.7-.6-2.2-.4-.5-1-.7-1.7-.7s-1.3.2-1.7.7-.6 1.1-.6 2.1zm17.3 3.8v-4.9c0-.6-.1-1-.4-1.3s-.7-.4-1.2-.4c-.7 0-1.2.2-1.6.6s-.5 1-.5 1.9v4.2h-1.1v-4.9c0-.6-.1-1-.4-1.3s-.7-.4-1.2-.4c-.7 0-1.2.2-1.6.6-.3.4-.5 1.1-.5 2.1v3.9h-1.1V85h.9l.2 1h.1c.2-.4.5-.6.9-.9.4-.2.8-.3 1.3-.3 1.2 0 1.9.4 2.3 1.3h.1c.2-.4.5-.7 1-.9s.9-.3 1.4-.3c.8 0 1.5.2 1.9.7.4.4.6 1.1.6 2.1v4.9h-1.1zm6.6.1c-1.1 0-2-.3-2.6-1-.6-.7-1-1.6-1-2.8 0-1.2.3-2.2.9-2.9.6-.7 1.4-1.1 2.4-1.1.9 0 1.7.3 2.2.9s.8 1.4.8 2.4v.7h-5.2c0 .9.2 1.5.7 2 .4.5 1 .7 1.8.7s1.6-.2 2.4-.5v1c-.4.2-.8.3-1.1.4-.4.1-.8.2-1.3.2zm-.3-6.8c-.6 0-1.1.2-1.4.6-.4.4-.6.9-.6 1.6h3.9c0-.7-.2-1.3-.5-1.6s-.8-.6-1.4-.6zm4.8 5.9c0-.3.1-.5.2-.7.1-.2.3-.2.6-.2s.5.1.6.2c.1.2.2.4.2.7 0 .3-.1.5-.2.7s-.4.2-.6.2c-.2 0-.4-.1-.6-.2-.1-.1-.2-.3-.2-.7zm-350 27.2h-1.2v-9h-3.2v-1H73v1h-3.2v9zm9.6 0V114c0-.6-.1-1.1-.4-1.4-.3-.3-.7-.5-1.3-.5-.8 0-1.4.2-1.7.6-.4.4-.5 1.1-.5 2.1v3.9h-1.1v-10.6h1.1v3.2c0 .4 0 .7-.1 1h.1c.2-.4.5-.6 1-.9.4-.2.9-.3 1.4-.3.9 0 1.6.2 2.1.7.5.4.7 1.1.7 2.1v4.9h-1.3zm3.4-9.5c0-.3.1-.5.2-.6.1-.1.3-.2.5-.2s.3.1.5.2c.1.1.2.3.2.6s-.1.4-.2.6c-.1.1-.3.2-.5.2s-.4-.1-.5-.2c-.1-.1-.2-.3-.2-.6zm1.2 9.5h-1.1v-7.5H84v7.5zm7.3-2c0 .7-.3 1.2-.8 1.6-.5.4-1.2.6-2.2.6-1 0-1.8-.2-2.3-.5v-1.1c.4.2.7.3 1.2.4.4.1.8.2 1.2.2.6 0 1-.1 1.4-.3.3-.2.5-.5.5-.9 0-.3-.1-.5-.4-.7-.3-.2-.7-.5-1.5-.7-.7-.3-1.2-.5-1.5-.7-.3-.2-.5-.4-.7-.7s-.2-.5-.2-.9c0-.6.2-1.1.7-1.4.5-.4 1.2-.5 2-.5s1.6.2 2.4.5l-.4.9c-.8-.3-1.4-.5-2-.5-.5 0-.9.1-1.2.3-.3.2-.4.4-.4.7 0 .2.1.4.2.5.1.1.3.3.5.4.2.1.7.3 1.3.6.9.3 1.5.6 1.8 1 .2.3.4.7.4 1.2zm10.1 2L98 110h-.1c.1.7.1 1.5.1 2.5v6.4h-1.1v-10h1.8l3.2 8.2h.1l3.2-8.2h1.7v10h-1.2v-6.4c0-.7 0-1.5.1-2.4h-.1l-3.4 8.8h-.9zm12.6 0-.2-1.1h-.1c-.4.5-.7.8-1.1 1-.4.2-.8.2-1.4.2-.7 0-1.3-.2-1.7-.6-.4-.4-.6-.9-.6-1.6 0-1.5 1.2-2.3 3.6-2.4h1.3v-.5c0-.6-.1-1-.4-1.3s-.7-.4-1.2-.4c-.6 0-1.3.2-2.1.6l-.3-.9c.4-.2.8-.4 1.2-.5.4-.1.9-.2 1.3-.2.9 0 1.6.2 2 .6s.6 1 .6 1.9v5.1h-.9zm-2.6-.8c.7 0 1.3-.2 1.7-.6.4-.4.6-.9.6-1.6v-.7h-1.1c-.9 0-1.6.2-2 .4-.4.2-.6.6-.6 1.2 0 .4.1.7.4.9.3.3.6.4 1 .4zm10.9.8V114c0-.6-.1-1.1-.4-1.4-.3-.3-.7-.5-1.3-.5-.8 0-1.4.2-1.7.6-.4.4-.5 1.1-.5 2.1v3.9h-1.1v-7.5h.9l.2 1h.1c.2-.4.6-.7 1-.9.4-.2.9-.3 1.4-.3.9 0 1.6.2 2 .7.5.4.7 1.1.7 2.1v4.9h-1.3zm8.1 0-.2-1.1h-.1c-.4.5-.7.8-1.1 1-.4.2-.8.2-1.4.2-.7 0-1.3-.2-1.7-.6-.4-.4-.6-.9-.6-1.6 0-1.5 1.2-2.3 3.6-2.4h1.3v-.5c0-.6-.1-1-.4-1.3s-.7-.4-1.2-.4c-.6 0-1.3.2-2.1.6l-.3-.9c.4-.2.8-.4 1.2-.5.4-.1.9-.2 1.3-.2.9 0 1.6.2 2 .6s.6 1 .6 1.9v5.1h-.9zm-2.6-.8c.7 0 1.3-.2 1.7-.6.4-.4.6-.9.6-1.6v-.7H129c-.9 0-1.6.2-2 .4-.4.2-.6.6-.6 1.2 0 .4.1.7.4.9.2.3.6.4 1 .4zm11.9-6.7v.7l-1.4.2.3.6c.1.3.2.5.2.9 0 .7-.3 1.3-.8 1.8-.5.4-1.2.7-2.1.7-.2 0-.4 0-.6-.1-.5.3-.7.6-.7 1 0 .2.1.4.3.5.2.1.5.1.9.1h1.3c.8 0 1.4.2 1.9.5.4.3.7.8.7 1.5 0 .8-.3 1.5-1 1.9-.7.4-1.6.7-2.9.7-1 0-1.7-.2-2.3-.5-.5-.4-.8-.9-.8-1.5 0-.5.1-.8.4-1.2.3-.3.7-.6 1.2-.7-.2-.1-.4-.2-.5-.4-.1-.2-.2-.4-.2-.6 0-.3.1-.5.2-.7.1-.2.4-.4.7-.6-.4-.2-.7-.4-.9-.8-.2-.4-.4-.8-.4-1.3 0-.8.2-1.5.7-1.9s1.2-.7 2.1-.7c.4 0 .7 0 1.1.1h2.6zm-6 8.8c0 .4.2.7.5.9.3.2.8.3 1.5.3 1 0 1.7-.1 2.1-.4.5-.3.7-.7.7-1.2 0-.4-.1-.7-.4-.8-.3-.2-.7-.2-1.4-.2h-1.4c-.5 0-.9.1-1.2.4s-.4.5-.4 1zm.6-6.4c0 .5.1.9.4 1.2.3.3.7.4 1.2.4 1.1 0 1.7-.5 1.7-1.6s-.6-1.7-1.7-1.7c-.5 0-.9.1-1.2.4s-.4.8-.4 1.3zm10.1 5.3c-1.1 0-2-.3-2.6-1-.6-.7-1-1.6-1-2.8 0-1.2.3-2.2.9-2.9s1.4-1.1 2.4-1.1c.9 0 1.7.3 2.2.9.5.6.8 1.4.8 2.4v.7H142c0 .9.2 1.5.7 2 .4.5 1 .7 1.8.7s1.6-.2 2.4-.5v1c-.4.2-.8.3-1.1.4-.5.1-.9.2-1.4.2zm-.3-6.8c-.6 0-1.1.2-1.4.6-.4.4-.6.9-.6 1.6h3.9c0-.7-.2-1.3-.5-1.6-.4-.5-.8-.6-1.4-.6zm8.4-1c.3 0 .6 0 .9.1l-.2 1.1c-.3-.1-.6-.1-.8-.1-.6 0-1.1.2-1.6.7s-.6 1.1-.6 1.8v4h-1.1v-7.5h.9l.1 1.4h.1c.3-.5.6-.9 1-1.1.4-.3.8-.4 1.3-.4zm5.9-1.9c0-.3.1-.5.2-.6.1-.1.3-.2.5-.2s.3.1.5.2c.1.1.2.3.2.6s-.1.4-.2.6c-.1.1-.3.2-.5.2s-.4-.1-.5-.2c-.2-.1-.2-.3-.2-.6zm1.2 9.5h-1.1v-7.5h1.1v7.5zm7.2-2c0 .7-.3 1.2-.8 1.6-.5.4-1.2.6-2.2.6-1 0-1.8-.2-2.3-.5v-1.1c.4.2.7.3 1.2.4.4.1.8.2 1.2.2.6 0 1-.1 1.4-.3.3-.2.5-.5.5-.9 0-.3-.1-.5-.4-.7-.3-.2-.7-.5-1.5-.7-.7-.3-1.2-.5-1.5-.7-.3-.2-.5-.4-.7-.7s-.2-.5-.2-.9c0-.6.2-1.1.7-1.4.5-.4 1.2-.5 2-.5s1.6.2 2.4.5l-.4.9c-.8-.3-1.4-.5-2-.5-.5 0-.9.1-1.2.3-.3.2-.4.4-.4.7 0 .2.1.4.2.5.1.1.3.3.5.4.2.1.7.3 1.3.6.9.3 1.5.6 1.8 1 .3.3.4.7.4 1.2zm8.9-4.6h-1.9v6.6h-1.1v-6.6h-1.3v-.5l1.3-.4v-.4c0-1.8.8-2.8 2.4-2.8.4 0 .9.1 1.4.2l-.3.9c-.4-.1-.8-.2-1.1-.2-.4 0-.7.1-1 .4-.2.3-.3.7-.3 1.4v.5h1.9v.9zm4.5 6.8c-1.1 0-2-.3-2.6-1-.6-.7-1-1.6-1-2.8 0-1.2.3-2.2.9-2.9s1.4-1.1 2.4-1.1c.9 0 1.7.3 2.2.9.5.6.8 1.4.8 2.4v.7h-5.2c0 .9.2 1.5.7 2 .4.5 1 .7 1.8.7s1.6-.2 2.4-.5v1c-.4.2-.8.3-1.1.4-.4.1-.8.2-1.3.2zm-.3-6.8c-.6 0-1.1.2-1.4.6-.4.4-.6.9-.6 1.6h3.9c0-.7-.2-1.3-.5-1.6-.3-.5-.8-.6-1.4-.6zm9.6 6.6-.2-1.1h-.1c-.4.5-.7.8-1.1 1-.4.2-.8.2-1.4.2-.7 0-1.3-.2-1.7-.6-.4-.4-.6-.9-.6-1.6 0-1.5 1.2-2.3 3.6-2.4h1.3v-.5c0-.6-.1-1-.4-1.3s-.7-.4-1.2-.4c-.6 0-1.3.2-2.1.6l-.3-.9c.4-.2.8-.4 1.2-.5.4-.1.9-.2 1.3-.2.9 0 1.6.2 2 .6s.6 1 .6 1.9v5.1h-.9zm-2.6-.8c.7 0 1.3-.2 1.7-.6.4-.4.6-.9.6-1.6v-.7h-1.1c-.9 0-1.6.2-2 .4-.4.2-.6.6-.6 1.2 0 .4.1.7.4.9.3.3.6.4 1 .4zm8.2 0h.6c.2 0 .3-.1.4-.1v.9c-.1.1-.3.1-.5.1s-.5.1-.6.1c-1.4 0-2.2-.8-2.2-2.3v-4.5h-1.1v-.5l1.1-.5.5-1.6h.7v1.7h2.2v.9H194v4.4c0 .5.1.8.3 1 .1.3.4.4.8.4zm3.6-6.7v4.9c0 .6.1 1.1.4 1.4.3.3.7.5 1.3.5.8 0 1.4-.2 1.7-.6.4-.4.5-1.1.5-2.1v-3.9h1.1v7.5h-.9l-.2-1h-.1c-.2.4-.6.7-1 .8-.4.2-.9.3-1.4.3-.9 0-1.6-.2-2-.6-.5-.4-.7-1.1-.7-2.1v-4.9h1.3zm10.9-.1c.3 0 .6 0 .9.1l-.2 1.1c-.3-.1-.6-.1-.8-.1-.6 0-1.1.2-1.6.7s-.6 1.1-.6 1.8v4h-1.1v-7.5h.9l.1 1.4h.1c.3-.5.6-.9 1-1.1.4-.3.9-.4 1.3-.4zm5.5 7.8c-1.1 0-2-.3-2.6-1-.6-.7-1-1.6-1-2.8 0-1.2.3-2.2.9-2.9s1.4-1.1 2.4-1.1c.9 0 1.7.3 2.2.9.5.6.8 1.4.8 2.4v.7h-5.2c0 .9.2 1.5.7 2 .4.5 1 .7 1.8.7s1.6-.2 2.4-.5v1c-.4.2-.8.3-1.1.4-.4.1-.8.2-1.3.2zm-.3-6.8c-.6 0-1.1.2-1.4.6-.4.4-.6.9-.6 1.6h3.9c0-.7-.2-1.3-.5-1.6-.4-.5-.8-.6-1.4-.6zm11.6 6.8c-1.1 0-1.9-.3-2.5-1-.6-.7-.9-1.6-.9-2.8 0-1.3.3-2.2.9-2.9.6-.7 1.5-1 2.6-1 .4 0 .7 0 1.1.1.4.1.6.2.8.3l-.3 1c-.3-.1-.5-.2-.8-.2-.3-.1-.6-.1-.8-.1-1.5 0-2.3 1-2.3 2.9 0 .9.2 1.6.6 2.1.4.5.9.7 1.7.7.6 0 1.3-.1 1.9-.4v1c-.6.1-1.2.3-2 .3zm10.2-3.9c0 1.2-.3 2.2-.9 2.9-.6.7-1.5 1-2.5 1-.7 0-1.3-.2-1.8-.5s-.9-.8-1.2-1.4c-.3-.6-.4-1.3-.4-2.1 0-1.2.3-2.2.9-2.9.6-.7 1.5-1 2.5-1s1.9.3 2.5 1c.6.8.9 1.8.9 3zm-5.7 0c0 1 .2 1.7.6 2.2.4.5.9.8 1.7.8.7 0 1.3-.2 1.7-.7.4-.5.6-1.2.6-2.2 0-1-.2-1.7-.6-2.2-.4-.5-1-.7-1.7-.7s-1.3.2-1.7.7c-.5.4-.6 1.1-.6 2.1zm17.2 3.7V114c0-.6-.1-1-.4-1.3-.3-.3-.7-.4-1.2-.4-.7 0-1.2.2-1.6.6-.3.4-.5 1-.5 1.9v4.2h-1.1v-5c0-.6-.1-1-.4-1.3-.3-.3-.7-.4-1.2-.4-.7 0-1.2.2-1.6.6-.3.4-.5 1.1-.5 2.1v3.9h-1.1v-7.5h.9l.2 1h.1c.2-.4.5-.6.9-.9s.8-.3 1.3-.3c1.2 0 1.9.4 2.3 1.3h.1c.2-.4.5-.7 1-.9.4-.2.9-.3 1.4-.3.8 0 1.5.2 1.9.7.4.4.6 1.1.6 2.1v4.9h-1.1zm7 .2c-.5 0-.9-.1-1.3-.3-.4-.2-.7-.5-1-.8h-.1c.1.4.1.9.1 1.2v3.1h-1.1v-10.9h.9l.2 1h.1c.3-.4.6-.7 1-.9.4-.2.8-.3 1.3-.3 1 0 1.8.3 2.3 1 .5.7.8 1.6.8 2.9 0 1.2-.3 2.2-.8 2.9-.7.7-1.5 1.1-2.4 1.1zm-.2-6.8c-.8 0-1.3.2-1.7.6s-.5 1.1-.5 2v.3c0 1.1.2 1.8.5 2.3.4.5.9.7 1.7.7.6 0 1.2-.3 1.5-.8.4-.5.6-1.2.6-2.2 0-.9-.2-1.7-.6-2.1-.3-.6-.8-.8-1.5-.8zm6.4 6.6h-1.1v-10.6h1.1v10.6zm5.6.2c-1.1 0-2-.3-2.6-1-.6-.7-1-1.6-1-2.8 0-1.2.3-2.2.9-2.9.6-.7 1.4-1.1 2.4-1.1.9 0 1.7.3 2.2.9.5.6.8 1.4.8 2.4v.7h-5.2c0 .9.2 1.5.7 2 .4.5 1 .7 1.8.7s1.6-.2 2.4-.5v1c-.4.2-.8.3-1.1.4-.4.1-.8.2-1.3.2zm-.3-6.8c-.6 0-1.1.2-1.4.6-.4.4-.6.9-.6 1.6h3.9c0-.7-.2-1.3-.5-1.6-.4-.5-.9-.6-1.4-.6zm7.4 5.8h.6c.2 0 .3-.1.4-.1v.9c-.1.1-.3.1-.5.1s-.5.1-.6.1c-1.4 0-2.2-.8-2.2-2.3v-4.5h-1.1v-.5l1.1-.5.5-1.6h.7v1.7h2.2v.9h-2.2v4.4c0 .5.1.8.3 1 .1.3.4.4.8.4zm5.7 1c-1.1 0-2-.3-2.6-1-.6-.7-1-1.6-1-2.8 0-1.2.3-2.2.9-2.9.6-.7 1.4-1.1 2.4-1.1.9 0 1.7.3 2.2.9.5.6.8 1.4.8 2.4v.7h-5.2c0 .9.2 1.5.7 2 .4.5 1 .7 1.8.7s1.6-.2 2.4-.5v1c-.4.2-.8.3-1.1.4-.4.1-.8.2-1.3.2zm-.4-6.8c-.6 0-1.1.2-1.4.6-.4.4-.6.9-.6 1.6h3.9c0-.7-.2-1.3-.5-1.6-.3-.5-.8-.6-1.4-.6zm6.2 5 .1.2c-.1.5-.3 1-.5 1.6-.2.6-.5 1.2-.7 1.7h-.9c.1-.5.3-1.1.4-1.8.1-.7.3-1.3.3-1.7h1.3zm11 1.6V114c0-.6-.1-1.1-.4-1.4s-.7-.5-1.3-.5c-.8 0-1.4.2-1.7.6-.4.4-.5 1.1-.5 2.1v3.9h-1.1v-10.6h1.1v3.2c0 .4 0 .7-.1 1h.1c.2-.4.5-.6 1-.9.4-.2.9-.3 1.4-.3.9 0 1.6.2 2.1.7.5.4.7 1.1.7 2.1v4.9h-1.3zm8.1 0-.2-1.1h-.1c-.4.5-.7.8-1.1 1-.4.2-.8.2-1.4.2-.7 0-1.3-.2-1.7-.6-.4-.4-.6-.9-.6-1.6 0-1.5 1.2-2.3 3.6-2.4h1.3v-.5c0-.6-.1-1-.4-1.3-.3-.3-.7-.4-1.2-.4-.6 0-1.3.2-2.1.6l-.3-.9c.4-.2.8-.4 1.2-.5.4-.1.9-.2 1.3-.2.9 0 1.6.2 2 .6.4.4.6 1 .6 1.9v5.1h-.9zm-2.6-.8c.7 0 1.3-.2 1.7-.6.4-.4.6-.9.6-1.6v-.7h-1.1c-.9 0-1.6.2-2 .4-.4.2-.6.6-.6 1.2 0 .4.1.7.4.9.3.3.6.4 1 .4zm10.6-1.2c0 .7-.3 1.2-.8 1.6-.5.4-1.2.6-2.2.6-1 0-1.8-.2-2.3-.5v-1.1c.4.2.7.3 1.2.4.4.1.8.2 1.2.2.6 0 1-.1 1.4-.3.3-.2.5-.5.5-.9 0-.3-.1-.5-.4-.7-.3-.2-.7-.5-1.5-.7-.7-.3-1.2-.5-1.5-.7-.3-.2-.5-.4-.7-.7-.1-.2-.2-.5-.2-.9 0-.6.2-1.1.7-1.4.5-.4 1.2-.5 2-.5s1.6.2 2.4.5l-.4.9c-.8-.3-1.4-.5-2-.5-.5 0-.9.1-1.2.3-.3.2-.4.4-.4.7 0 .2.1.4.2.5.1.1.3.3.5.4.2.1.7.3 1.3.6.9.3 1.5.6 1.8 1 .3.3.4.7.4 1.2zm9 2.2c-.5 0-.9-.1-1.3-.3-.4-.2-.7-.5-1-.8h-.1c.1.4.1.9.1 1.2v3.1h-1.1v-10.9h.9l.2 1h.1c.3-.4.6-.7 1-.9.4-.2.8-.3 1.3-.3 1 0 1.8.3 2.3 1 .5.7.8 1.6.8 2.9 0 1.2-.3 2.2-.8 2.9-.7.7-1.4 1.1-2.4 1.1zm-.2-6.8c-.8 0-1.3.2-1.7.6s-.5 1.1-.5 2v.3c0 1.1.2 1.8.5 2.3.4.5.9.7 1.7.7.6 0 1.2-.3 1.5-.8.4-.5.5-1.2.5-2.2 0-.9-.2-1.7-.5-2.1-.3-.6-.8-.8-1.5-.8zm9.9 6.6-.2-1.1h-.1c-.4.5-.7.8-1.1 1-.4.2-.8.2-1.4.2-.7 0-1.3-.2-1.7-.6-.4-.4-.6-.9-.6-1.6 0-1.5 1.2-2.3 3.6-2.4h1.3v-.5c0-.6-.1-1-.4-1.3-.3-.3-.7-.4-1.2-.4-.6 0-1.3.2-2.1.6l-.3-.9c.4-.2.8-.4 1.2-.5.4-.1.9-.2 1.3-.2.9 0 1.6.2 2 .6.4.4.6 1 .6 1.9v5.1h-.9zm-2.6-.8c.7 0 1.3-.2 1.7-.6.4-.4.6-.9.6-1.6v-.7h-1.1c-.9 0-1.6.2-2 .4-.4.2-.6.6-.6 1.2 0 .4.1.7.4.9.2.3.6.4 1 .4zm10.6-1.2c0 .7-.3 1.2-.8 1.6-.5.4-1.2.6-2.2.6-1 0-1.8-.2-2.3-.5v-1.1c.4.2.7.3 1.2.4.4.1.8.2 1.2.2.6 0 1-.1 1.4-.3.3-.2.5-.5.5-.9 0-.3-.1-.5-.4-.7-.3-.2-.7-.5-1.5-.7-.7-.3-1.2-.5-1.5-.7-.3-.2-.5-.4-.7-.7-.1-.2-.2-.5-.2-.9 0-.6.2-1.1.7-1.4.5-.4 1.2-.5 2-.5s1.6.2 2.4.5l-.4.9c-.8-.3-1.4-.5-2-.5-.5 0-.9.1-1.2.3-.3.2-.4.4-.4.7 0 .2.1.4.2.5.1.1.3.3.5.4.2.1.7.3 1.3.6.9.3 1.5.6 1.8 1 .2.3.4.7.4 1.2zm6.7 0c0 .7-.3 1.2-.8 1.6-.5.4-1.2.6-2.2.6-1 0-1.8-.2-2.3-.5v-1.1c.4.2.7.3 1.2.4.4.1.8.2 1.2.2.6 0 1-.1 1.4-.3.3-.2.5-.5.5-.9 0-.3-.1-.5-.4-.7-.3-.2-.7-.5-1.5-.7-.7-.3-1.2-.5-1.5-.7-.3-.2-.5-.4-.7-.7-.1-.2-.2-.5-.2-.9 0-.6.2-1.1.7-1.4.5-.4 1.2-.5 2-.5s1.6.2 2.4.5l-.4.9c-.8-.3-1.4-.5-2-.5-.5 0-.9.1-1.2.3-.3.2-.4.4-.4.7 0 .2.1.4.2.5.1.1.3.3.5.4.2.1.7.3 1.3.6.9.3 1.5.6 1.8 1 .2.3.4.7.4 1.2zm5 2.2c-1.1 0-2-.3-2.6-1-.6-.7-1-1.6-1-2.8 0-1.2.3-2.2.9-2.9.6-.7 1.4-1.1 2.4-1.1.9 0 1.7.3 2.2.9.5.6.8 1.4.8 2.4v.7h-5.2c0 .9.2 1.5.7 2 .4.5 1 .7 1.8.7s1.6-.2 2.4-.5v1c-.4.2-.8.3-1.1.4-.4.1-.8.2-1.3.2zm-.3-6.8c-.6 0-1.1.2-1.4.6-.4.4-.6.9-.6 1.6h3.9c0-.7-.2-1.3-.5-1.6-.4-.5-.8-.6-1.4-.6zm10.1 5.6c-.6.8-1.4 1.1-2.4 1.1s-1.7-.3-2.3-1c-.5-.7-.8-1.6-.8-2.9 0-1.2.3-2.2.8-2.9s1.3-1 2.3-1c1 0 1.8.4 2.3 1.1h.1v-4h1.1v10.6h-.9l-.2-1zm-2.3.2c.8 0 1.3-.2 1.7-.6.3-.4.5-1.1.5-2v-.2c0-1.1-.2-1.8-.5-2.3-.4-.5-.9-.7-1.7-.7-.7 0-1.2.3-1.5.8-.4.5-.5 1.2-.5 2.2 0 1 .2 1.7.5 2.2.3.4.8.6 1.5.6zm14 .8-.2-1.1h-.1c-.4.5-.7.8-1.1 1-.4.2-.8.2-1.4.2-.7 0-1.3-.2-1.7-.6-.4-.4-.6-.9-.6-1.6 0-1.5 1.2-2.3 3.6-2.4h1.3v-.5c0-.6-.1-1-.4-1.3-.3-.3-.7-.4-1.2-.4-.6 0-1.3.2-2.1.6l-.3-.9c.4-.2.8-.4 1.2-.5.4-.1.9-.2 1.3-.2.9 0 1.6.2 2 .6.4.4.6 1 .6 1.9v5.1h-.9zm-2.6-.8c.7 0 1.3-.2 1.7-.6.4-.4.6-.9.6-1.6v-.7h-1.1c-.9 0-1.6.2-2 .4-.4.2-.6.6-.6 1.2 0 .4.1.7.4.9.2.3.6.4 1 .4zm6.9.8h-1.1v-10.6h1.1v10.6zm3.6 0h-1.1v-10.6h1.1v10.6zm8.4-.8h.6c.2 0 .3-.1.4-.1v.9c-.1.1-.3.1-.5.1s-.5.1-.6.1c-1.4 0-2.2-.8-2.2-2.3v-4.5h-1.1v-.5l1.1-.5.5-1.6h.7v1.7h2.2v.9h-2.2v4.4c0 .5.1.8.3 1 .2.3.5.4.8.4zm5.7 1c-1.1 0-2-.3-2.6-1-.6-.7-1-1.6-1-2.8 0-1.2.3-2.2.9-2.9.6-.7 1.4-1.1 2.4-1.1.9 0 1.7.3 2.2.9.5.6.8 1.4.8 2.4v.7H392c0 .9.2 1.5.7 2 .4.5 1 .7 1.8.7s1.6-.2 2.4-.5v1c-.4.2-.8.3-1.1.4-.4.1-.8.2-1.3.2zm-.3-6.8c-.6 0-1.1.2-1.4.6-.4.4-.6.9-.6 1.6h3.9c0-.7-.2-1.3-.5-1.6-.3-.5-.8-.6-1.4-.6zm9.8 4.6c0 .7-.3 1.2-.8 1.6-.5.4-1.2.6-2.2.6-1 0-1.8-.2-2.3-.5v-1.1c.4.2.7.3 1.2.4.4.1.8.2 1.2.2.6 0 1-.1 1.4-.3.3-.2.5-.5.5-.9 0-.3-.1-.5-.4-.7-.3-.2-.7-.5-1.5-.7-.7-.3-1.2-.5-1.5-.7-.3-.2-.5-.4-.7-.7-.1-.2-.2-.5-.2-.9 0-.6.2-1.1.7-1.4.5-.4 1.2-.5 2-.5s1.6.2 2.4.5l-.4.9c-.8-.3-1.4-.5-2-.5-.5 0-.9.1-1.2.3-.3.2-.4.4-.4.7 0 .2.1.4.2.5.1.1.3.3.5.4.2.1.7.3 1.3.6.9.3 1.5.6 1.8 1 .3.3.4.7.4 1.2zm4.3 1.2h.6c.2 0 .3-.1.4-.1v.9c-.1.1-.3.1-.5.1s-.5.1-.6.1c-1.4 0-2.2-.8-2.2-2.3v-4.5h-1.1v-.5l1.1-.5.5-1.6h.7v1.7h2.2v.9h-2.2v4.4c0 .5.1.8.3 1 .1.3.4.4.8.4zm7.4-1.2c0 .7-.3 1.2-.8 1.6-.5.4-1.2.6-2.2.6-1 0-1.8-.2-2.3-.5v-1.1c.4.2.7.3 1.2.4.4.1.8.2 1.2.2.6 0 1-.1 1.4-.3.3-.2.5-.5.5-.9 0-.3-.1-.5-.4-.7-.3-.2-.7-.5-1.5-.7-.7-.3-1.2-.5-1.5-.7-.3-.2-.5-.4-.7-.7-.1-.2-.2-.5-.2-.9 0-.6.2-1.1.7-1.4.5-.4 1.2-.5 2-.5s1.6.2 2.4.5l-.4.9c-.8-.3-1.4-.5-2-.5-.5 0-.9.1-1.2.3-.3.2-.4.4-.4.7 0 .2.1.4.2.5.1.1.3.3.5.4.2.1.7.3 1.3.6.9.3 1.5.6 1.8 1 .2.3.4.7.4 1.2zm10 2-.2-1.1h-.1c-.4.5-.7.8-1.1 1-.4.2-.8.2-1.4.2-.7 0-1.3-.2-1.7-.6-.4-.4-.6-.9-.6-1.6 0-1.5 1.2-2.3 3.6-2.4h1.3v-.5c0-.6-.1-1-.4-1.3-.3-.3-.7-.4-1.2-.4-.6 0-1.3.2-2.1.6l-.3-.9c.4-.2.8-.4 1.2-.5.4-.1.9-.2 1.3-.2.9 0 1.6.2 2 .6.4.4.6 1 .6 1.9v5.1h-.9zm-2.5-.8c.7 0 1.3-.2 1.7-.6.4-.4.6-.9.6-1.6v-.7h-1.1c-.9 0-1.6.2-2 .4-.4.2-.6.6-.6 1.2 0 .4.1.7.4.9.2.3.5.4 1 .4zm10.9.8V114c0-.6-.1-1.1-.4-1.4s-.7-.5-1.3-.5c-.8 0-1.4.2-1.7.6s-.5 1.1-.5 2.1v3.9h-1.1v-7.5h.9l.2 1h.1c.2-.4.6-.7 1-.9.4-.2.9-.3 1.4-.3.9 0 1.6.2 2 .7.5.4.7 1.1.7 2.1v4.9h-1.3zm8.5-1c-.6.8-1.4 1.1-2.4 1.1s-1.7-.3-2.3-1c-.5-.7-.8-1.6-.8-2.9 0-1.2.3-2.2.8-2.9s1.3-1 2.3-1c1 0 1.8.4 2.3 1.1h.1v-4h1.1v10.6h-.9l-.2-1zm-2.3.2c.8 0 1.3-.2 1.7-.6.3-.4.5-1.1.5-2v-.2c0-1.1-.2-1.8-.5-2.3-.4-.5-.9-.7-1.7-.7-.7 0-1.2.3-1.5.8-.4.5-.5 1.2-.5 2.2 0 1 .2 1.7.5 2.2.4.4.9.6 1.5.6zm-373.8 8.1c0-.3.1-.5.2-.6.1-.1.3-.2.5-.2s.3.1.5.2c.1.1.2.3.2.6s-.1.4-.2.6c-.1.1-.3.2-.5.2s-.4-.1-.5-.2c-.2-.1-.2-.3-.2-.6zm1.2 9.5h-1.1v-7.5h1.1v7.5zm7.2-2c0 .7-.3 1.2-.8 1.6-.5.4-1.2.6-2.2.6-1 0-1.8-.2-2.3-.5v-1.1c.4.2.7.3 1.2.4.4.1.8.2 1.2.2.6 0 1-.1 1.4-.3.3-.2.5-.5.5-.9 0-.3-.1-.5-.4-.7-.3-.2-.7-.5-1.5-.7-.7-.3-1.2-.5-1.5-.7-.3-.2-.5-.4-.7-.7s-.2-.5-.2-.9c0-.6.2-1.1.7-1.4.5-.4 1.2-.5 2-.5s1.6.2 2.4.5l-.4.9c-.8-.3-1.4-.5-2-.5-.5 0-.9.1-1.2.3-.3.2-.4.4-.4.7 0 .2.1.4.2.5.1.1.3.3.5.4.2.1.7.3 1.3.6.9.3 1.5.6 1.8 1 .3.3.4.7.4 1.2zm10.6 1c-.6.8-1.4 1.1-2.4 1.1s-1.7-.3-2.3-1c-.5-.7-.8-1.6-.8-2.9 0-1.2.3-2.2.8-2.9s1.3-1 2.3-1c1 0 1.8.4 2.3 1.1h.1v-4h1.1v10.6h-.9l-.2-1zm-2.2.2c.8 0 1.3-.2 1.7-.6.3-.4.5-1.1.5-2v-.2c0-1.1-.2-1.8-.5-2.3-.4-.5-.9-.7-1.7-.7-.7 0-1.2.3-1.5.8-.4.5-.5 1.2-.5 2.2 0 1 .2 1.7.5 2.2.3.4.8.6 1.5.6zm8.9 1c-1.1 0-2-.3-2.6-1-.6-.7-1-1.6-1-2.8 0-1.2.3-2.2.9-2.9s1.4-1.1 2.4-1.1c.9 0 1.7.3 2.2.9.5.6.8 1.4.8 2.4v.7h-5.2c0 .9.2 1.5.7 2 .4.5 1 .7 1.8.7s1.6-.2 2.4-.5v1c-.4.2-.8.3-1.1.4-.4.1-.8.2-1.3.2zm-.3-6.8c-.6 0-1.1.2-1.4.6-.4.4-.6.9-.6 1.6h3.9c0-.7-.2-1.3-.5-1.6-.4-.5-.8-.6-1.4-.6zm8.1 6.8c-1.1 0-2-.3-2.6-1-.6-.7-1-1.6-1-2.8 0-1.2.3-2.2.9-2.9s1.4-1.1 2.4-1.1c.9 0 1.7.3 2.2.9.5.6.8 1.4.8 2.4v.7h-5.2c0 .9.2 1.5.7 2 .4.5 1 .7 1.8.7s1.6-.2 2.4-.5v1c-.4.2-.8.3-1.1.4-.3.1-.8.2-1.3.2zm-.3-6.8c-.6 0-1.1.2-1.4.6-.4.4-.6.9-.6 1.6h3.9c0-.7-.2-1.3-.5-1.6-.3-.5-.8-.6-1.4-.6zm14.6 6.6v-4.9c0-.6-.1-1-.4-1.3-.3-.3-.7-.4-1.2-.4-.7 0-1.2.2-1.6.6-.3.4-.5 1-.5 1.9v4.2h-1.1v-4.9c0-.6-.1-1-.4-1.3-.3-.3-.7-.4-1.2-.4-.7 0-1.2.2-1.6.6-.3.4-.5 1.1-.5 2.1v3.9h-1.1v-7.5h.9l.2 1h.1c.2-.4.5-.6.9-.9s.8-.3 1.3-.3c1.2 0 1.9.4 2.3 1.3h.1c.2-.4.5-.7 1-.9.4-.2.9-.3 1.4-.3.8 0 1.5.2 1.9.7.4.4.6 1.1.6 2.1v4.9h-1.1zm6.6.2c-1.1 0-2-.3-2.6-1-.6-.7-1-1.6-1-2.8 0-1.2.3-2.2.9-2.9s1.4-1.1 2.4-1.1c.9 0 1.7.3 2.2.9.5.6.8 1.4.8 2.4v.7h-5.2c0 .9.2 1.5.7 2 .4.5 1 .7 1.8.7s1.6-.2 2.4-.5v1c-.4.2-.8.3-1.1.4-.4.1-.8.2-1.3.2zm-.3-6.8c-.6 0-1.1.2-1.4.6-.4.4-.6.9-.6 1.6h3.9c0-.7-.2-1.3-.5-1.6-.4-.5-.8-.6-1.4-.6zm10.1 5.6c-.6.8-1.4 1.1-2.4 1.1s-1.7-.3-2.3-1c-.5-.7-.8-1.6-.8-2.9 0-1.2.3-2.2.8-2.9s1.3-1 2.3-1c1 0 1.8.4 2.3 1.1h.1v-4h1.1v10.6h-.9l-.2-1zm-2.3.2c.8 0 1.3-.2 1.7-.6.3-.4.5-1.1.5-2v-.2c0-1.1-.2-1.8-.5-2.3-.4-.5-.9-.7-1.7-.7-.7 0-1.2.3-1.5.8-.4.5-.5 1.2-.5 2.2 0 1 .2 1.7.5 2.2.3.4.8.6 1.5.6zm12.8-6.8c.3 0 .6 0 .9.1l-.2 1.1c-.3-.1-.6-.1-.8-.1-.6 0-1.1.2-1.6.7s-.6 1.1-.6 1.8v4h-1.1v-7.5h.9l.1 1.4h.1c.3-.5.6-.9 1-1.1.4-.3.9-.4 1.3-.4zm5.5 7.8c-1.1 0-2-.3-2.6-1-.6-.7-1-1.6-1-2.8 0-1.2.3-2.2.9-2.9s1.4-1.1 2.4-1.1c.9 0 1.7.3 2.2.9.5.6.8 1.4.8 2.4v.7h-5.2c0 .9.2 1.5.7 2 .4.5 1 .7 1.8.7s1.6-.2 2.4-.5v1c-.4.2-.8.3-1.1.4-.4.1-.8.2-1.3.2zm-.3-6.8c-.6 0-1.1.2-1.4.6-.4.4-.6.9-.6 1.6h3.9c0-.7-.2-1.3-.5-1.6-.4-.5-.8-.6-1.4-.6zm6.1 6.6h-1.1V125h1.1v10.6zm5.6.2c-1.1 0-2-.3-2.6-1-.6-.7-1-1.6-1-2.8 0-1.2.3-2.2.9-2.9s1.4-1.1 2.4-1.1c.9 0 1.7.3 2.2.9.5.6.8 1.4.8 2.4v.7h-5.2c0 .9.2 1.5.7 2 .4.5 1 .7 1.8.7s1.6-.2 2.4-.5v1c-.4.2-.8.3-1.1.4-.4.1-.8.2-1.3.2zm-.3-6.8c-.6 0-1.1.2-1.4.6-.4.4-.6.9-.6 1.6h3.9c0-.7-.2-1.3-.5-1.6-.4-.5-.8-.6-1.4-.6zm9.6 6.6-.2-1.1h-.1c-.4.5-.7.8-1.1 1-.4.2-.8.2-1.4.2-.7 0-1.3-.2-1.7-.6-.4-.4-.6-.9-.6-1.6 0-1.5 1.2-2.3 3.6-2.4h1.3v-.5c0-.6-.1-1-.4-1.3s-.7-.4-1.2-.4c-.6 0-1.3.2-2.1.6l-.3-.9c.4-.2.8-.4 1.2-.5.4-.1.9-.2 1.3-.2.9 0 1.6.2 2 .6s.6 1 .6 1.9v5.1h-.9zm-2.6-.8c.7 0 1.3-.2 1.7-.6.4-.4.6-.9.6-1.6v-.6H166c-.9 0-1.6.2-2 .4-.4.2-.6.6-.6 1.2 0 .4.1.7.4.9.2.2.6.3 1 .3zm10.6-1.2c0 .7-.3 1.2-.8 1.6-.5.4-1.2.6-2.2.6-1 0-1.8-.2-2.3-.5v-1.1c.4.2.7.3 1.2.4.4.1.8.2 1.2.2.6 0 1-.1 1.4-.3.3-.2.5-.5.5-.9 0-.3-.1-.5-.4-.7-.3-.2-.7-.5-1.5-.7-.7-.3-1.2-.5-1.5-.7-.3-.2-.5-.4-.7-.7s-.2-.5-.2-.9c0-.6.2-1.1.7-1.4.5-.4 1.2-.5 2-.5s1.6.2 2.4.5l-.4.9c-.8-.3-1.4-.5-2-.5-.5 0-.9.1-1.2.3-.3.2-.4.4-.4.7 0 .2.1.4.2.5.1.1.3.3.5.4.2.1.7.3 1.3.6.9.3 1.5.6 1.8 1 .2.3.4.7.4 1.2zm5 2.2c-1.1 0-2-.3-2.6-1-.6-.7-1-1.6-1-2.8 0-1.2.3-2.2.9-2.9s1.4-1.1 2.4-1.1c.9 0 1.7.3 2.2.9.5.6.8 1.4.8 2.4v.7H178c0 .9.2 1.5.7 2 .4.5 1 .7 1.8.7s1.6-.2 2.4-.5v1c-.4.2-.8.3-1.1.4-.5.1-.9.2-1.4.2zm-.3-6.8c-.6 0-1.1.2-1.4.6-.4.4-.6.9-.6 1.6h3.9c0-.7-.2-1.3-.5-1.6-.4-.5-.8-.6-1.4-.6zm14.8-.9v.7l-1.4.2.3.6c.1.3.2.5.2.9 0 .7-.3 1.3-.8 1.8-.5.4-1.2.7-2.1.7-.2 0-.4 0-.6-.1-.5.3-.7.6-.7 1 0 .2.1.4.3.5.2.1.5.1.9.1h1.3c.8 0 1.4.2 1.9.5.4.3.7.8.7 1.5 0 .8-.3 1.5-1 1.9-.7.4-1.6.7-2.9.7-1 0-1.7-.2-2.3-.5-.5-.4-.8-.9-.8-1.5 0-.5.1-.8.4-1.2.3-.3.7-.6 1.2-.7-.2-.1-.4-.2-.5-.4-.1-.2-.2-.4-.2-.6 0-.3.1-.5.2-.7.1-.2.4-.4.7-.6-.4-.2-.7-.4-.9-.8-.2-.4-.4-.8-.4-1.3 0-.8.2-1.5.7-1.9s1.2-.7 2.1-.7c.4 0 .7 0 1.1.1h2.6zm-6 8.8c0 .4.2.7.5.9.3.2.8.3 1.5.3 1 0 1.7-.1 2.1-.4.5-.3.7-.7.7-1.2 0-.4-.1-.7-.4-.8-.3-.2-.7-.2-1.4-.2h-1.4c-.5 0-.9.1-1.2.4s-.4.5-.4 1zm.6-6.4c0 .5.1.9.4 1.2.3.3.7.4 1.2.4 1.1 0 1.7-.5 1.7-1.6s-.6-1.7-1.7-1.7c-.5 0-.9.1-1.2.4s-.4.8-.4 1.3zm10.3-2.5c.3 0 .6 0 .9.1l-.2 1.1c-.3-.1-.6-.1-.8-.1-.6 0-1.1.2-1.6.7s-.6 1.1-.6 1.8v4h-1.1v-7.5h.9l.1 1.4h.1c.3-.5.6-.9 1-1.1.4-.3.8-.4 1.3-.4zm6.9 7.6-.2-1.1h-.1c-.4.5-.7.8-1.1 1-.4.2-.8.2-1.4.2-.7 0-1.3-.2-1.7-.6-.4-.4-.6-.9-.6-1.6 0-1.5 1.2-2.3 3.6-2.4h1.3v-.5c0-.6-.1-1-.4-1.3s-.7-.4-1.2-.4c-.6 0-1.3.2-2.1.6l-.3-.9c.4-.2.8-.4 1.2-.5.4-.1.9-.2 1.3-.2.9 0 1.6.2 2 .6s.6 1 .6 1.9v5.1h-.9zm-2.5-.8c.7 0 1.3-.2 1.7-.6.4-.4.6-.9.6-1.6v-.6h-1.1c-.9 0-1.6.2-2 .4-.4.2-.6.6-.6 1.2 0 .4.1.7.4.9.2.2.5.3 1 .3zm10.8-.2c-.6.8-1.4 1.1-2.4 1.1s-1.7-.3-2.3-1c-.5-.7-.8-1.6-.8-2.9 0-1.2.3-2.2.8-2.9s1.3-1 2.3-1c1 0 1.8.4 2.3 1.1h.1v-4h1.1v10.6h-.9l-.2-1zm-2.3.2c.8 0 1.3-.2 1.7-.6.3-.4.5-1.1.5-2v-.2c0-1.1-.2-1.8-.5-2.3-.4-.5-.9-.7-1.7-.7-.7 0-1.2.3-1.5.8-.4.5-.5 1.2-.5 2.2 0 1 .2 1.7.5 2.2.3.4.9.6 1.5.6zm8.9 1c-1.1 0-2-.3-2.6-1-.6-.7-1-1.6-1-2.8 0-1.2.3-2.2.9-2.9s1.4-1.1 2.4-1.1c.9 0 1.7.3 2.2.9.5.6.8 1.4.8 2.4v.7h-5.2c0 .9.2 1.5.7 2 .4.5 1 .7 1.8.7s1.6-.2 2.4-.5v1c-.4.2-.8.3-1.1.4-.3.1-.7.2-1.3.2zm-.3-6.8c-.6 0-1.1.2-1.4.6-.4.4-.6.9-.6 1.6h3.9c0-.7-.2-1.3-.5-1.6-.3-.5-.8-.6-1.4-.6zm4.9 5.9c0-.3.1-.5.2-.7.1-.2.3-.2.6-.2s.5.1.6.2c.1.2.2.4.2.7 0 .3-.1.5-.2.7-.2.2-.4.2-.6.2-.2 0-.4-.1-.6-.2-.2-.1-.2-.4-.2-.7z" style="fill:#555"/>
  <path d="M13.2 14.1H11L7.4 8.9l-1.1.9v4.3H4.5V2.7h1.9v5.5l1.5-1.8L11 2.8h2.1c-2 2.3-3.4 4-4.3 5l4.4 6.3zm5.1.2c-1.3 0-2.4-.4-3.2-1.2-.8-.8-1.1-1.9-1.1-3.2 0-1.4.4-2.5 1.1-3.3.7-.8 1.7-1.2 2.9-1.2 1.1 0 2 .3 2.7 1 .7.7 1 1.6 1 2.9v1h-5.8c0 .8.3 1.5.7 1.9.4.5 1 .7 1.8.7.5 0 1 0 1.4-.1.4-.1.9-.3 1.4-.5v1.5c-.4.2-.9.4-1.4.5-.4-.1-.9 0-1.5 0zm-.4-7.6c-.6 0-1.1.2-1.4.6-.4.4-.6.9-.6 1.6h3.9c0-.7-.2-1.3-.5-1.6-.3-.4-.8-.6-1.4-.6zm4.5-1.2h2l1.8 4.9c.3.7.4 1.4.5 2h.1c0-.3.1-.6.3-1 .1-.4.8-2.4 2-5.8h2l-3.7 9.8c-.7 1.8-1.8 2.7-3.4 2.7-.4 0-.8 0-1.2-.1v-1.5c.3.1.6.1.9.1.9 0 1.5-.5 1.9-1.5l.3-.8-3.5-8.8z"/>
  <path d="M1.6 100.5h446.9M1.6 57.9h446.9" style="fill:none;stroke:#efe9e9;stroke-miterlimit:10"/>
  <path d="M0 0h448.5v139.9H0z" style="fill:none"/>
</svg>
