<svg width="55" height="18" data-name="Layer 1" xmlns="http://www.w3.org/2000/svg">
  <title>release</title>
  <rect width="55" height="18" fill="#27a729" rx="5"/>
  <path fill="#fff" d="M7.75 9.58V13h-1.4V4.43h2.42a4 4 0 0 1 2.46.62A2.24 2.24 0 0 1 12 6.93a2.33 2.33 0 0 1-1.66 2.28L12.78 13h-1.6l-2-3.42Zm0-1.16h1a2.16 2.16 0 0 0 1.42-.37A1.32 1.32 0 0 0 10.58 7a1.18 1.18 0 0 0-.47-1.05 2.64 2.64 0 0 0-1.43-.31h-.93Zm8.95 4.7a3.17 3.17 0 0 1-2.36-.88 3.35 3.35 0 0 1-.85-2.43 3.68 3.68 0 0 1 .79-2.5 2.75 2.75 0 0 1 2.17-.91 2.67 2.67 0 0 1 2 .78 3 3 0 0 1 .74 2.15v.74h-4.28a2 2 0 0 0 .51 1.45 1.76 1.76 0 0 0 1.35.51 5.17 5.17 0 0 0 1.07-.11 5.31 5.31 0 0 0 1.06-.36v1.12a4.22 4.22 0 0 1-1 .34 6.75 6.75 0 0 1-1.2.1Zm-.25-5.67a1.36 1.36 0 0 0-1 .41 2 2 0 0 0-.47 1.21h2.94a1.79 1.79 0 0 0-.39-1.21 1.3 1.3 0 0 0-1.08-.41ZM22.17 13h-1.38V3.88h1.38Zm4.83.12a3.17 3.17 0 0 1-2.36-.88 3.35 3.35 0 0 1-.85-2.43 3.68 3.68 0 0 1 .79-2.5 2.75 2.75 0 0 1 2.17-.91 2.67 2.67 0 0 1 2 .78 3 3 0 0 1 .74 2.15v.74h-4.32a2.08 2.08 0 0 0 .5 1.45A1.8 1.8 0 0 0 27 12a5.17 5.17 0 0 0 1.07-.11 5.31 5.31 0 0 0 1.06-.36v1.12a4.22 4.22 0 0 1-1 .34 6.75 6.75 0 0 1-1.13.13Zm-.25-5.67a1.36 1.36 0 0 0-1.05.41 2 2 0 0 0-.47 1.21h2.94a1.79 1.79 0 0 0-.39-1.21 1.3 1.3 0 0 0-1.07-.41ZM35.1 13l-.27-.9a2.68 2.68 0 0 1-.94.8 2.89 2.89 0 0 1-1.22.22 2 2 0 0 1-1.49-.52 1.92 1.92 0 0 1-.54-1.46 1.72 1.72 0 0 1 .74-1.51 4.41 4.41 0 0 1 2.27-.56h1.12v-.38a1.35 1.35 0 0 0-.29-.93 1.19 1.19 0 0 0-.9-.3 3.31 3.31 0 0 0-1 .14 7.68 7.68 0 0 0-.88.4l-.45-1a4.68 4.68 0 0 1 1.16-.41 5.09 5.09 0 0 1 1.18-.15 2.8 2.8 0 0 1 1.87.54 2.12 2.12 0 0 1 .63 1.69V13Zm-2.05-.94a1.73 1.73 0 0 0 1.21-.42 1.52 1.52 0 0 0 .45-1.17v-.56h-.83a2.77 2.77 0 0 0-1.42.33 1 1 0 0 0-.44.88.9.9 0 0 0 .26.68 1.14 1.14 0 0 0 .77.26Zm9.31-.91a1.7 1.7 0 0 1-.69 1.46 3.29 3.29 0 0 1-2 .51 4.56 4.56 0 0 1-2.08-.4v-1.18a5.11 5.11 0 0 0 2.13.52c.84 0 1.27-.25 1.27-.77a.64.64 0 0 0-.14-.41 2.18 2.18 0 0 0-.46-.34 8.76 8.76 0 0 0-.9-.39A4.2 4.2 0 0 1 38 9.28a1.62 1.62 0 0 1-.39-1.13 1.48 1.48 0 0 1 .67-1.29 3.25 3.25 0 0 1 1.82-.46 5.16 5.16 0 0 1 2.17.47l-.45 1a4.79 4.79 0 0 0-1.76-.43c-.73 0-1.09.21-1.09.62a.64.64 0 0 0 .28.52 6.46 6.46 0 0 0 1.24.58 5.35 5.35 0 0 1 1.17.56 1.57 1.57 0 0 1 .71 1.4Zm4.32 1.97a3.14 3.14 0 0 1-2.36-.88 3.35 3.35 0 0 1-.86-2.43 3.73 3.73 0 0 1 .79-2.5 2.77 2.77 0 0 1 2.18-.91 2.69 2.69 0 0 1 2 .78 3 3 0 0 1 .74 2.15v.74h-4.29a2.13 2.13 0 0 0 .51 1.45 1.77 1.77 0 0 0 1.36.51 5.07 5.07 0 0 0 1.06-.11 5.39 5.39 0 0 0 1.07-.36v1.12a4.53 4.53 0 0 1-1 .34 6.93 6.93 0 0 1-1.2.1Zm-.25-5.67a1.36 1.36 0 0 0-1 .41 1.94 1.94 0 0 0-.47 1.21h2.94a1.79 1.79 0 0 0-.39-1.21 1.3 1.3 0 0 0-1.08-.41Z"/>
</svg>
