<svg xml:space="preserve" width="134.42" height="27" viewBox="0 0 134.42 134.42" xmlns="http://www.w3.org/2000/svg">
  <title>Slack workspace</title>
  <defs>
    <filter id="slack_inline_svg__e" style="color-interpolation-filters:sRGB">
      <feColorMatrix result="color2" values="-1 0 0 0 1 0 -1 0 0 1 0 0 -1 0 1 -0.21 -0.72 -0.07 2 0"/>
    </filter>
    <filter id="slack_inline_svg__d" style="color-interpolation-filters:sRGB">
      <feColorMatrix result="color2" values="-1 0 0 0 1 0 -1 0 0 1 0 0 -1 0 1 -0.21 -0.72 -0.07 2 0"/>
    </filter>
    <filter id="slack_inline_svg__c" style="color-interpolation-filters:sRGB">
      <feColorMatrix result="color2" values="-1 0 0 0 1 0 -1 0 0 1 0 0 -1 0 1 -0.21 -0.72 -0.07 2 0"/>
    </filter>
    <filter id="slack_inline_svg__b" style="color-interpolation-filters:sRGB">
      <feColorMatrix result="color2" values="-1 0 0 0 1 0 -1 0 0 1 0 0 -1 0 1 -0.21 -0.72 -0.07 2 0"/>
    </filter>
    <filter id="slack_inline_svg__a" style="color-interpolation-filters:sRGB">
      <feColorMatrix result="color2" values="-1 0 0 0 1 0 -1 0 0 1 0 0 -1 0 1 -0.21 -0.72 -0.07 2 0"/>
    </filter>
  </defs>
  <path d="M99.4 151.2c0 7.1-5.8 12.9-12.9 12.9-7.1 0-12.9-5.8-12.9-12.9 0-7.1 5.8-12.9 12.9-12.9h12.9zm6.5 0c0-7.1 5.8-12.9 12.9-12.9 7.1 0 12.9 5.8 12.9 12.9v32.3c0 7.1-5.8 12.9-12.9 12.9-7.1 0-12.9-5.8-12.9-12.9v-32.3z" style="filter:url(#slack_inline_svg__a)" transform="translate(-67.79 -67.79)"/>
  <path d="M118.8 99.4c-7.1 0-12.9-5.8-12.9-12.9 0-7.1 5.8-12.9 12.9-12.9 7.1 0 12.9 5.8 12.9 12.9v12.9z" style="filter:url(#slack_inline_svg__b)" transform="translate(-67.79 -67.79)"/>
  <path d="M118.8 105.9c7.1 0 12.9 5.8 12.9 12.9 0 7.1-5.8 12.9-12.9 12.9H86.5c-7.1 0-12.9-5.8-12.9-12.9 0-7.1 5.8-12.9 12.9-12.9h32.3z" style="filter:url(#slack_inline_svg__c)" transform="translate(-67.79 -67.79)"/>
  <path d="M170.6 118.8c0-7.1 5.8-12.9 12.9-12.9 7.1 0 12.9 5.8 12.9 12.9 0 7.1-5.8 12.9-12.9 12.9h-12.9zm-6.5 0c0 7.1-5.8 12.9-12.9 12.9-7.1 0-12.9-5.8-12.9-12.9V86.5c0-7.1 5.8-12.9 12.9-12.9 7.1 0 12.9 5.8 12.9 12.9z" style="filter:url(#slack_inline_svg__d)" transform="translate(-67.79 -67.79)"/>
  <path d="M151.2 170.6c7.1 0 12.9 5.8 12.9 12.9 0 7.1-5.8 12.9-12.9 12.9-7.1 0-12.9-5.8-12.9-12.9v-12.9zm0-6.5c-7.1 0-12.9-5.8-12.9-12.9 0-7.1 5.8-12.9 12.9-12.9h32.3c7.1 0 12.9 5.8 12.9 12.9 0 7.1-5.8 12.9-12.9 12.9z" style="filter:url(#slack_inline_svg__e)" transform="translate(-67.79 -67.79)"/>
</svg>
