<svg viewBox="0 0 249.9 203.2" xmlns="http://www.w3.org/2000/svg">
  <title>Twitter feed</title>
  <path fill="currentColor" d="M78.5 203.2c94.3 0 145.9-78.2 145.9-145.9 0-2.2 0-4.4-.1-6.6a104.47 104.47 0 0 0 25.6-26.6 103.93 103.93 0 0 1-29.5 8.1A51.59 51.59 0 0 0 243 3.8a102 102 0 0 1-32.6 12.4 51.29 51.29 0 0 0-88.7 35.1A56.68 56.68 0 0 0 123 63 145.61 145.61 0 0 1 17.3 9.4a51.48 51.48 0 0 0 15.9 68.5A51.87 51.87 0 0 1 10 71.5v.7a51.39 51.39 0 0 0 41.1 50.3 51.58 51.58 0 0 1-23.1.9A51.28 51.28 0 0 0 75.9 159a102.85 102.85 0 0 1-63.7 22 98.68 98.68 0 0 1-12.2-.7 145.86 145.86 0 0 0 78.5 22.9"/>
</svg>
