<svg id="Layer_1" data-name="Layer 1" xmlns="http://www.w3.org/2000/svg" width="55" height="18" viewBox="0 0 55 18"><title>0.7.0</title><rect width="55" height="18" rx="5" fill="#cd312c"/><path d="M17.28,13l-.86-2.38H13.15L12.31,13H10.83L14,4.4h1.52L18.77,13ZM16.05,9.41l-.8-2.33c-.06-.15-.14-.4-.24-.74s-.18-.58-.22-.73a12.6,12.6,0,0,1-.46,1.57l-.77,2.23Z" fill="#fff"/><path d="M21.13,13H19.75V3.88h1.38Z" fill="#fff"/><path d="M26.38,13.12a2.28,2.28,0,0,1-1.91-.89h-.08c.06.55.08.88.08,1v2.65H23.1V6.52h1.11c0,.12.1.41.19.87h.07a2.16,2.16,0,0,1,1.94-1,2.26,2.26,0,0,1,1.89.88A4,4,0,0,1,29,9.75a4,4,0,0,1-.68,2.48A2.3,2.3,0,0,1,26.38,13.12Zm-.33-5.59a1.43,1.43,0,0,0-1.2.48,2.49,2.49,0,0,0-.38,1.53v.21a3,3,0,0,0,.38,1.71,1.38,1.38,0,0,0,1.22.53,1.22,1.22,0,0,0,1.1-.58,3,3,0,0,0,.39-1.67,3,3,0,0,0-.38-1.65A1.27,1.27,0,0,0,26.05,7.53Z" fill="#fff"/><path d="M36.27,13H34.89V9a1.74,1.74,0,0,0-.3-1.12,1.15,1.15,0,0,0-1-.37,1.5,1.5,0,0,0-1.27.52A2.83,2.83,0,0,0,32,9.78V13H30.57V3.88H32V6.2a10.2,10.2,0,0,1-.07,1.19H32a1.89,1.89,0,0,1,.78-.73,2.52,2.52,0,0,1,1.17-.26,2.09,2.09,0,0,1,2.35,2.38Z" fill="#fff"/><path d="M42.25,13,42,12.1h0a2.59,2.59,0,0,1-.94.8,2.86,2.86,0,0,1-1.22.22,2,2,0,0,1-1.49-.52,1.92,1.92,0,0,1-.54-1.46,1.7,1.7,0,0,1,.75-1.51,4.35,4.35,0,0,1,2.27-.56l1.11,0V8.69a1.3,1.3,0,0,0-.29-.93,1.19,1.19,0,0,0-.9-.3,3.31,3.31,0,0,0-1,.14,8.48,8.48,0,0,0-.88.35L38.4,7a4.61,4.61,0,0,1,1.15-.41,5.09,5.09,0,0,1,1.18-.15,2.8,2.8,0,0,1,1.87.54,2.12,2.12,0,0,1,.63,1.69V13Zm-2.06-.94a1.71,1.71,0,0,0,1.21-.42,1.52,1.52,0,0,0,.45-1.17V9.91l-.83,0a2.7,2.7,0,0,0-1.41.33,1,1,0,0,0-.45.88.9.9,0,0,0,.26.68A1.14,1.14,0,0,0,40.19,12.06Z" fill="#fff"/></svg>