<svg xml:space="preserve" width="32" height="32" style="enable-background:new 0 0 32 32" xmlns="http://www.w3.org/2000/svg">
  <style>
    .failed-with-defects_svg__st0{display:none}.failed-with-defects_svg__st3{fill:none;stroke:#60a3ff;stroke-width:2.000000e-02;stroke-miterlimit:10}
  </style>
  <g id="failed-with-defects_svg__Layer_3">
    <path d="m15.6 14 3.4-3.4L17.4 9 14 12.4 10.6 9 9 10.6l3.4 3.4L9 17.5l1.6 1.6 3.5-3.5 3.4 3.4 1.6-1.6-3.5-3.4zM4 14C4 8.5 8.5 4 14 4s10 4.5 10 10h2c0-6.6-5.4-12-12-12S2 7.4 2 14s5.4 12 12 12v-2C8.5 24 4 19.5 4 14zm25.9 14.6-5-10.1c-.2-.3-.5-.5-.9-.5s-.7.2-.9.6l-5 10c-.1.1-.1.2-.1.4 0 .6.4 1 1 1h10c.6 0 1-.4 1-1 0-.1 0-.3-.1-.4zm-9.3-.6 3.4-6.8 3.4 6.8h-6.8z" style="fill:#d62525"/>
    <path d="M0 0h32v32H0z" style="fill:none"/>
  </g>
</svg>
