<svg xmlns="http://www.w3.org/2000/svg" viewBox="0 0 672 672">
  <g id="b688957e-3887-4e93-b42e-c6586d8bef22" data-name="Layer 5">
    <g>
      <rect x="37.624" y="458.446" width="104.799" height="94.704" rx="4.869" fill="#dd5040"/>
      <rect x="150.468" y="158.681" width="416.388" height="268.973" rx="8" fill="#6a93d7"/>
      <rect x="296.914" y="412.048" width="340.98" height="151.101" rx="5.006" fill="#6eceb2"/>
      <path d="M635.639,320.422a2.9,2.9,0,0,0,1.3-2.256V258.314a2.9,2.9,0,0,0-1.3-2.256l-51.282-29.914a2.846,2.846,0,0,0-2.591,0l-51.282,29.914a2.9,2.9,0,0,0-1.3,2.256v59.852a2.9,2.9,0,0,0,1.3,2.256l51.282,29.915a2.852,2.852,0,0,0,2.591,0Z" fill="#eea209"/>
      <polyline points="202.197 111.323 202.197 187.096 533.705 206.039" fill="none" stroke="#002684" stroke-linecap="round" stroke-linejoin="round" stroke-width="3"/>
      <g>
        <g>
          <g>
            <rect x="118.299" y="469.2" width="4.577" height="4.577" rx="1.385" transform="translate(-350.9 592.077) rotate(-90)" fill="#eea209"/>
            <rect x="118.299" y="450.89" width="4.577" height="4.577" rx="1.385" transform="translate(-332.591 573.767) rotate(-90)" fill="#eea209"/>
            <rect x="118.299" y="432.58" width="4.577" height="4.577" rx="1.385" transform="translate(-314.281 555.457) rotate(-90)" fill="#eea209"/>
            <rect x="118.299" y="414.271" width="4.577" height="4.577" rx="1.385" transform="translate(-295.971 537.147) rotate(-90)" fill="#eea209"/>
            <rect x="136.609" y="469.2" width="4.577" height="4.577" rx="1.385" transform="translate(-332.591 610.386) rotate(-90)" fill="#eea209"/>
            <rect x="136.609" y="450.89" width="4.577" height="4.577" rx="1.385" transform="translate(-314.281 592.077) rotate(-90)" fill="#eea209"/>
            <rect x="136.609" y="432.58" width="4.577" height="4.577" rx="1.385" transform="translate(-295.971 573.767) rotate(-90)" fill="#eea209"/>
            <rect x="136.609" y="414.271" width="4.577" height="4.577" rx="1.385" transform="translate(-277.661 555.457) rotate(-90)" fill="#eea209"/>
            <rect x="154.919" y="469.2" width="4.577" height="4.577" rx="1.385" transform="translate(-314.281 628.696) rotate(-90)" fill="#eea209"/>
            <rect x="154.919" y="450.89" width="4.577" height="4.577" rx="1.385" transform="translate(-295.971 610.386) rotate(-90)" fill="#eea209"/>
            <rect x="154.919" y="432.58" width="4.577" height="4.577" rx="1.385" transform="translate(-277.661 592.077) rotate(-90)" fill="#eea209"/>
            <rect x="154.919" y="414.271" width="4.577" height="4.577" rx="1.385" transform="translate(-259.352 573.767) rotate(-90)" fill="#eea209"/>
            <rect x="173.229" y="469.2" width="4.577" height="4.577" rx="1.385" transform="translate(-295.971 647.006) rotate(-90)" fill="#eea209"/>
            <rect x="173.229" y="450.89" width="4.577" height="4.577" rx="1.385" transform="translate(-277.661 628.696) rotate(-90)" fill="#eea209"/>
            <rect x="173.229" y="432.58" width="4.577" height="4.577" rx="1.385" transform="translate(-259.352 610.386) rotate(-90)" fill="#eea209"/>
            <rect x="173.229" y="414.271" width="4.577" height="4.577" rx="1.385" transform="translate(-241.042 592.077) rotate(-90)" fill="#eea209"/>
            <rect x="118.299" y="395.961" width="4.577" height="4.577" rx="1.385" transform="translate(-277.661 518.838) rotate(-90)" fill="#eea209"/>
            <rect x="118.299" y="377.651" width="4.577" height="4.577" rx="1.385" transform="translate(-259.352 500.528) rotate(-90)" fill="#eea209"/>
            <rect x="118.299" y="359.341" width="4.577" height="4.577" rx="1.385" transform="translate(-241.042 482.218) rotate(-90)" fill="#eea209"/>
            <rect x="118.299" y="341.031" width="4.577" height="4.577" rx="1.385" transform="translate(-222.732 463.908) rotate(-90)" fill="#eea209"/>
            <rect x="136.609" y="395.961" width="4.577" height="4.577" rx="1.385" transform="translate(-259.352 537.147) rotate(-90)" fill="#eea209"/>
            <rect x="136.609" y="377.651" width="4.577" height="4.577" rx="1.385" transform="translate(-241.042 518.838) rotate(-90)" fill="#eea209"/>
            <rect x="136.609" y="359.341" width="4.577" height="4.577" rx="1.385" transform="translate(-222.732 500.528) rotate(-90)" fill="#eea209"/>
            <rect x="136.609" y="341.031" width="4.577" height="4.577" rx="1.385" transform="translate(-204.422 482.218) rotate(-90)" fill="#eea209"/>
            <rect x="154.919" y="395.961" width="4.577" height="4.577" rx="1.385" transform="translate(-241.042 555.457) rotate(-90)" fill="#eea209"/>
            <rect x="154.919" y="377.651" width="4.577" height="4.577" rx="1.385" transform="translate(-222.732 537.147) rotate(-90)" fill="#eea209"/>
            <rect x="154.919" y="359.341" width="4.577" height="4.577" rx="1.385" transform="translate(-204.422 518.838) rotate(-90)" fill="#eea209"/>
            <rect x="154.919" y="341.031" width="4.577" height="4.577" rx="1.385" transform="translate(-186.112 500.528) rotate(-90)" fill="#eea209"/>
            <rect x="173.229" y="395.961" width="4.577" height="4.577" rx="1.385" transform="translate(-222.732 573.767) rotate(-90)" fill="#eea209"/>
            <rect x="173.229" y="377.651" width="4.577" height="4.577" rx="1.385" transform="translate(-204.422 555.457) rotate(-90)" fill="#eea209"/>
            <rect x="173.229" y="359.341" width="4.577" height="4.577" rx="1.385" transform="translate(-186.112 537.147) rotate(-90)" fill="#eea209"/>
            <rect x="173.229" y="341.031" width="4.577" height="4.577" rx="1.385" transform="translate(-167.803 518.838) rotate(-90)" fill="#eea209"/>
          </g>
          <g>
            <rect x="118.299" y="324.591" width="4.577" height="4.577" rx="1.385" transform="translate(-206.291 447.467) rotate(-90)" fill="#eea209"/>
            <rect x="118.299" y="306.281" width="4.577" height="4.577" rx="1.385" transform="translate(-187.981 429.158) rotate(-90)" fill="#eea209"/>
            <rect x="118.299" y="287.971" width="4.577" height="4.577" rx="1.385" transform="translate(-169.672 410.848) rotate(-90)" fill="#eea209"/>
            <rect x="118.299" y="269.661" width="4.577" height="4.577" rx="1.385" transform="translate(-151.362 392.538) rotate(-90)" fill="#eea209"/>
            <rect x="136.609" y="324.591" width="4.577" height="4.577" rx="1.385" transform="translate(-187.981 465.777) rotate(-90)" fill="#eea209"/>
            <rect x="136.609" y="306.281" width="4.577" height="4.577" rx="1.385" transform="translate(-169.672 447.467) rotate(-90)" fill="#eea209"/>
            <rect x="136.609" y="287.971" width="4.577" height="4.577" rx="1.385" transform="translate(-151.362 429.158) rotate(-90)" fill="#eea209"/>
            <rect x="136.609" y="269.661" width="4.577" height="4.577" rx="1.385" transform="translate(-133.052 410.848) rotate(-90)" fill="#eea209"/>
            <rect x="154.919" y="324.591" width="4.577" height="4.577" rx="1.385" transform="translate(-169.672 484.087) rotate(-90)" fill="#eea209"/>
            <rect x="154.919" y="306.281" width="4.577" height="4.577" rx="1.385" transform="translate(-151.362 465.777) rotate(-90)" fill="#eea209"/>
            <rect x="154.919" y="287.971" width="4.577" height="4.577" rx="1.385" transform="translate(-133.052 447.467) rotate(-90)" fill="#eea209"/>
            <rect x="154.919" y="269.661" width="4.577" height="4.577" rx="1.385" transform="translate(-114.742 429.158) rotate(-90)" fill="#eea209"/>
            <rect x="173.229" y="324.591" width="4.577" height="4.577" rx="1.385" transform="translate(-151.362 502.397) rotate(-90)" fill="#eea209"/>
            <rect x="173.229" y="306.281" width="4.577" height="4.577" rx="1.385" transform="translate(-133.052 484.087) rotate(-90)" fill="#eea209"/>
            <rect x="173.229" y="287.971" width="4.577" height="4.577" rx="1.385" transform="translate(-114.742 465.777) rotate(-90)" fill="#eea209"/>
            <rect x="173.229" y="269.661" width="4.577" height="4.577" rx="1.385" transform="translate(-96.433 447.467) rotate(-90)" fill="#eea209"/>
            <rect x="118.299" y="251.352" width="4.577" height="4.577" rx="1.385" transform="translate(-133.052 374.228) rotate(-90)" fill="#eea209"/>
            <rect x="118.299" y="233.042" width="4.577" height="4.577" rx="1.385" transform="translate(-114.742 355.919) rotate(-90)" fill="#eea209"/>
            <rect x="118.299" y="214.732" width="4.577" height="4.577" rx="1.385" transform="translate(-96.433 337.609) rotate(-90)" fill="#eea209"/>
            <rect x="118.299" y="196.422" width="4.577" height="4.577" rx="1.385" transform="translate(-78.123 319.299) rotate(-90)" fill="#eea209"/>
            <rect x="136.609" y="251.352" width="4.577" height="4.577" rx="1.385" transform="translate(-114.742 392.538) rotate(-90)" fill="#eea209"/>
            <rect x="136.609" y="233.042" width="4.577" height="4.577" rx="1.385" transform="translate(-96.433 374.228) rotate(-90)" fill="#eea209"/>
            <rect x="136.609" y="214.732" width="4.577" height="4.577" rx="1.385" transform="translate(-78.123 355.919) rotate(-90)" fill="#eea209"/>
            <rect x="136.609" y="196.422" width="4.577" height="4.577" rx="1.385" transform="translate(-59.813 337.609) rotate(-90)" fill="#eea209"/>
            <rect x="154.919" y="251.352" width="4.577" height="4.577" rx="1.385" transform="translate(-96.433 410.848) rotate(-90)" fill="#eea209"/>
            <rect x="154.919" y="233.042" width="4.577" height="4.577" rx="1.385" transform="translate(-78.123 392.538) rotate(-90)" fill="#eea209"/>
            <rect x="154.919" y="214.732" width="4.577" height="4.577" rx="1.385" transform="translate(-59.813 374.228) rotate(-90)" fill="#eea209"/>
            <rect x="154.919" y="196.422" width="4.577" height="4.577" rx="1.385" transform="translate(-41.503 355.919) rotate(-90)" fill="#eea209"/>
            <rect x="173.229" y="251.352" width="4.577" height="4.577" rx="1.385" transform="translate(-78.123 429.158) rotate(-90)" fill="#eea209"/>
            <rect x="173.229" y="233.042" width="4.577" height="4.577" rx="1.385" transform="translate(-59.813 410.848) rotate(-90)" fill="#eea209"/>
            <rect x="173.229" y="214.732" width="4.577" height="4.577" rx="1.385" transform="translate(-41.503 392.538) rotate(-90)" fill="#eea209"/>
            <rect x="173.229" y="196.422" width="4.577" height="4.577" rx="1.385" transform="translate(-23.194 374.228) rotate(-90)" fill="#eea209"/>
          </g>
        </g>
        <g>
          <g>
            <rect x="190.975" y="468.918" width="4.577" height="4.577" rx="1.385" transform="translate(-277.943 664.471) rotate(-90)" fill="#eea209"/>
            <rect x="190.975" y="450.608" width="4.577" height="4.577" rx="1.385" transform="translate(-259.633 646.161) rotate(-90)" fill="#eea209"/>
            <rect x="190.975" y="432.299" width="4.577" height="4.577" rx="1.385" transform="translate(-241.323 627.851) rotate(-90)" fill="#eea209"/>
            <rect x="190.975" y="413.989" width="4.577" height="4.577" rx="1.385" transform="translate(-223.014 609.542) rotate(-90)" fill="#eea209"/>
            <rect x="209.285" y="468.918" width="4.577" height="4.577" rx="1.385" transform="translate(-259.633 682.781) rotate(-90)" fill="#eea209"/>
            <rect x="209.285" y="450.608" width="4.577" height="4.577" rx="1.385" transform="translate(-241.323 664.471) rotate(-90)" fill="#eea209"/>
            <rect x="209.285" y="432.299" width="4.577" height="4.577" rx="1.385" transform="translate(-223.014 646.161) rotate(-90)" fill="#eea209"/>
            <rect x="209.285" y="413.989" width="4.577" height="4.577" rx="1.385" transform="translate(-204.704 627.851) rotate(-90)" fill="#eea209"/>
            <rect x="227.595" y="468.918" width="4.577" height="4.577" rx="1.385" transform="translate(-241.323 701.09) rotate(-90)" fill="#eea209"/>
            <rect x="227.595" y="450.608" width="4.577" height="4.577" rx="1.385" transform="translate(-223.014 682.781) rotate(-90)" fill="#eea209"/>
            <rect x="227.595" y="432.299" width="4.577" height="4.577" rx="1.385" transform="translate(-204.704 664.471) rotate(-90)" fill="#eea209"/>
            <rect x="227.595" y="413.989" width="4.577" height="4.577" rx="1.385" transform="translate(-186.394 646.161) rotate(-90)" fill="#eea209"/>
            <rect x="245.905" y="468.918" width="4.577" height="4.577" rx="1.385" transform="translate(-223.014 719.4) rotate(-90)" fill="#eea209"/>
            <rect x="245.905" y="450.608" width="4.577" height="4.577" rx="1.385" transform="translate(-204.704 701.09) rotate(-90)" fill="#eea209"/>
            <rect x="245.905" y="432.299" width="4.577" height="4.577" rx="1.385" transform="translate(-186.394 682.781) rotate(-90)" fill="#eea209"/>
            <rect x="245.905" y="413.989" width="4.577" height="4.577" rx="1.385" transform="translate(-168.084 664.471) rotate(-90)" fill="#eea209"/>
            <rect x="190.975" y="395.679" width="4.577" height="4.577" rx="1.385" transform="translate(-204.704 591.232) rotate(-90)" fill="#eea209"/>
            <rect x="190.975" y="377.369" width="4.577" height="4.577" rx="1.385" transform="translate(-186.394 572.922) rotate(-90)" fill="#eea209"/>
            <rect x="190.975" y="359.06" width="4.577" height="4.577" rx="1.385" transform="translate(-168.084 554.612) rotate(-90)" fill="#eea209"/>
            <rect x="190.975" y="340.75" width="4.577" height="4.577" rx="1.385" transform="translate(-149.775 536.303) rotate(-90)" fill="#eea209"/>
            <rect x="209.285" y="395.679" width="4.577" height="4.577" rx="1.385" transform="translate(-186.394 609.542) rotate(-90)" fill="#eea209"/>
            <rect x="209.285" y="377.369" width="4.577" height="4.577" rx="1.385" transform="translate(-168.084 591.232) rotate(-90)" fill="#eea209"/>
            <rect x="209.285" y="359.06" width="4.577" height="4.577" rx="1.385" transform="translate(-149.775 572.922) rotate(-90)" fill="#eea209"/>
            <rect x="209.285" y="340.75" width="4.577" height="4.577" rx="1.385" transform="translate(-131.465 554.612) rotate(-90)" fill="#eea209"/>
            <rect x="227.595" y="395.679" width="4.577" height="4.577" rx="1.385" transform="translate(-168.084 627.851) rotate(-90)" fill="#eea209"/>
            <rect x="227.595" y="377.369" width="4.577" height="4.577" rx="1.385" transform="translate(-149.775 609.542) rotate(-90)" fill="#eea209"/>
            <rect x="227.595" y="359.06" width="4.577" height="4.577" rx="1.385" transform="translate(-131.465 591.232) rotate(-90)" fill="#eea209"/>
            <rect x="227.595" y="340.75" width="4.577" height="4.577" rx="1.385" transform="translate(-113.155 572.922) rotate(-90)" fill="#eea209"/>
            <rect x="245.905" y="395.679" width="4.577" height="4.577" rx="1.385" transform="translate(-149.775 646.161) rotate(-90)" fill="#eea209"/>
            <rect x="245.905" y="377.369" width="4.577" height="4.577" rx="1.385" transform="translate(-131.465 627.851) rotate(-90)" fill="#eea209"/>
            <rect x="245.905" y="359.06" width="4.577" height="4.577" rx="1.385" transform="translate(-113.155 609.542) rotate(-90)" fill="#eea209"/>
            <rect x="245.905" y="340.75" width="4.577" height="4.577" rx="1.385" transform="translate(-94.845 591.232) rotate(-90)" fill="#eea209"/>
          </g>
          <g>
            <rect x="190.975" y="324.309" width="4.577" height="4.577" rx="1.385" transform="translate(-133.334 519.862) rotate(-90)" fill="#eea209"/>
            <rect x="190.975" y="305.999" width="4.577" height="4.577" rx="1.385" transform="translate(-115.024 501.552) rotate(-90)" fill="#eea209"/>
            <rect x="190.975" y="287.689" width="4.577" height="4.577" rx="1.385" transform="translate(-96.714 483.242) rotate(-90)" fill="#eea209"/>
            <rect x="190.975" y="269.38" width="4.577" height="4.577" rx="1.385" transform="translate(-78.404 464.932) rotate(-90)" fill="#eea209"/>
            <rect x="209.285" y="324.309" width="4.577" height="4.577" rx="1.385" transform="translate(-115.024 538.172) rotate(-90)" fill="#eea209"/>
            <rect x="209.285" y="305.999" width="4.577" height="4.577" rx="1.385" transform="translate(-96.714 519.862) rotate(-90)" fill="#eea209"/>
            <rect x="209.285" y="287.689" width="4.577" height="4.577" rx="1.385" transform="translate(-78.404 501.552) rotate(-90)" fill="#eea209"/>
            <rect x="209.285" y="269.38" width="4.577" height="4.577" rx="1.385" transform="translate(-60.095 483.242) rotate(-90)" fill="#eea209"/>
            <rect x="227.595" y="324.309" width="4.577" height="4.577" rx="1.385" transform="translate(-96.714 556.481) rotate(-90)" fill="#eea209"/>
            <rect x="227.595" y="305.999" width="4.577" height="4.577" rx="1.385" transform="translate(-78.404 538.172) rotate(-90)" fill="#eea209"/>
            <rect x="227.595" y="287.689" width="4.577" height="4.577" rx="1.385" transform="translate(-60.095 519.862) rotate(-90)" fill="#eea209"/>
            <rect x="227.595" y="269.38" width="4.577" height="4.577" rx="1.385" transform="translate(-41.785 501.552) rotate(-90)" fill="#eea209"/>
            <rect x="245.905" y="324.309" width="4.577" height="4.577" rx="1.385" transform="translate(-78.404 574.791) rotate(-90)" fill="#eea209"/>
            <rect x="245.905" y="305.999" width="4.577" height="4.577" rx="1.385" transform="translate(-60.095 556.481) rotate(-90)" fill="#eea209"/>
            <rect x="245.905" y="287.689" width="4.577" height="4.577" rx="1.385" transform="translate(-41.785 538.172) rotate(-90)" fill="#eea209"/>
            <rect x="245.905" y="269.38" width="4.577" height="4.577" rx="1.385" transform="translate(-23.475 519.862) rotate(-90)" fill="#eea209"/>
            <rect x="190.975" y="251.07" width="4.577" height="4.577" rx="1.385" transform="translate(-60.095 446.623) rotate(-90)" fill="#eea209"/>
            <rect x="190.975" y="232.76" width="4.577" height="4.577" rx="1.385" transform="translate(-41.785 428.313) rotate(-90)" fill="#eea209"/>
            <rect x="190.975" y="214.45" width="4.577" height="4.577" rx="1.385" transform="translate(-23.475 410.003) rotate(-90)" fill="#eea209"/>
            <rect x="190.975" y="196.141" width="4.577" height="4.577" rx="1.385" transform="translate(-5.165 391.693) rotate(-90)" fill="#eea209"/>
            <rect x="209.285" y="251.07" width="4.577" height="4.577" rx="1.385" transform="translate(-41.785 464.932) rotate(-90)" fill="#eea209"/>
            <rect x="209.285" y="232.76" width="4.577" height="4.577" rx="1.385" transform="translate(-23.475 446.623) rotate(-90)" fill="#eea209"/>
            <rect x="209.285" y="214.45" width="4.577" height="4.577" rx="1.385" transform="translate(-5.165 428.313) rotate(-90)" fill="#eea209"/>
            <rect x="209.285" y="196.141" width="4.577" height="4.577" rx="1.385" transform="translate(13.144 410.003) rotate(-90)" fill="#eea209"/>
            <rect x="227.595" y="251.07" width="4.577" height="4.577" rx="1.385" transform="translate(-23.475 483.242) rotate(-90)" fill="#eea209"/>
            <rect x="227.595" y="232.76" width="4.577" height="4.577" rx="1.385" transform="translate(-5.165 464.932) rotate(-90)" fill="#eea209"/>
            <rect x="227.595" y="214.45" width="4.577" height="4.577" rx="1.385" transform="translate(13.144 446.623) rotate(-90)" fill="#eea209"/>
            <rect x="227.595" y="196.141" width="4.577" height="4.577" rx="1.385" transform="translate(31.454 428.313) rotate(-90)" fill="#eea209"/>
            <rect x="245.905" y="251.07" width="4.577" height="4.577" rx="1.385" transform="translate(-5.165 501.552) rotate(-90)" fill="#eea209"/>
            <rect x="245.905" y="232.76" width="4.577" height="4.577" rx="1.385" transform="translate(13.144 483.242) rotate(-90)" fill="#eea209"/>
            <rect x="245.905" y="214.45" width="4.577" height="4.577" rx="1.385" transform="translate(31.454 464.932) rotate(-90)" fill="#eea209"/>
            <rect x="245.905" y="196.141" width="4.577" height="4.577" rx="1.385" transform="translate(49.764 446.623) rotate(-90)" fill="#eea209"/>
          </g>
        </g>
      </g>
      <circle cx="275.52" cy="166.133" r="21.311" fill="#fff"/>
      <circle cx="277.97" cy="168.153" r="21.311" fill="none" stroke="#002684" stroke-linecap="round" stroke-linejoin="round" stroke-width="3"/>
      <circle cx="323.113" cy="168.363" r="21.311" fill="#fff"/>
      <circle cx="325.329" cy="170.521" r="21.311" fill="none" stroke="#002684" stroke-linecap="round" stroke-linejoin="round" stroke-width="3"/>
      <circle cx="370.255" cy="170.952" r="21.311" fill="#fff"/>
      <circle cx="372.687" cy="172.889" r="21.311" fill="none" stroke="#002684" stroke-linecap="round" stroke-linejoin="round" stroke-width="3"/>
      <circle cx="417.817" cy="173.02" r="21.311" fill="#fff"/>
      <circle cx="420.045" cy="175.256" r="21.311" fill="none" stroke="#002684" stroke-linecap="round" stroke-linejoin="round" stroke-width="3"/>
      <circle cx="472.41" cy="177.57" r="21.311" fill="#fff"/>
      <circle cx="474.507" cy="179.992" r="21.311" fill="none" stroke="#002684" stroke-linecap="round" stroke-linejoin="round" stroke-width="3"/>
      <circle cx="529.071" cy="180.051" r="21.311" fill="#fff"/>
      <circle cx="531.337" cy="182.36" r="21.311" fill="none" stroke="#002684" stroke-linecap="round" stroke-linejoin="round" stroke-width="3"/>
      <circle cx="441.805" cy="319.016" r="21.311" fill="#fff"/>
      <circle cx="572.911" cy="271.04" r="21.311" fill="#fff"/>
      <circle cx="308.631" cy="329.769" r="21.311" fill="#fff"/>
      <polyline points="628.422 234.454 628.422 329.171 268.499 357.586" fill="none" stroke="#002684" stroke-linecap="round" stroke-linejoin="round" stroke-width="3"/>
      <circle cx="573.96" cy="279.445" r="21.311" fill="none" stroke="#002684" stroke-linecap="round" stroke-linejoin="round" stroke-width="3"/>
      <circle cx="436.621" cy="319.699" r="21.311" fill="none" stroke="#002684" stroke-linecap="round" stroke-linejoin="round" stroke-width="3"/>
      <circle cx="148.281" cy="404.929" r="21.311" fill="#fff"/>
      <circle cx="299.282" cy="331.539" r="21.311" fill="none" stroke="#002684" stroke-linecap="round" stroke-linejoin="round" stroke-width="3"/>
      <line x1="145.614" y1="431.635" x2="256.413" y2="397.197" fill="none" stroke="#002684" stroke-linecap="round" stroke-linejoin="round" stroke-width="3"/>
      <polygon points="202.197 414.416 145.367 509.133 259.027 509.133 202.197 414.416" fill="none" stroke="#002684" stroke-linecap="round" stroke-linejoin="round" stroke-width="3"/>
      <polyline points="294.546 449.935 353.744 518.604 628.422 518.604" fill="none" stroke="#002684" stroke-linecap="round" stroke-linejoin="round" stroke-width="3"/>
      <g>
        <polyline points="190.329 491.735 217.654 463.961 213.025 459.406 185.622 487.181" fill="#002684"/>
        <polyline points="218.773 486.732 190.998 459.406 186.444 464.036 214.218 491.439" fill="#002684"/>
      </g>
      <circle cx="142.999" cy="407.312" r="21.311" fill="none" stroke="#002684" stroke-linecap="round" stroke-linejoin="round" stroke-width="3"/>
      <path d="M148,128.754l-32.987-19.045a3.394,3.394,0,0,0-5.092,2.939v38.09a3.4,3.4,0,0,0,5.092,2.94L148,134.633A3.394,3.394,0,0,0,148,128.754Z" fill="#6eceb2"/>
      <g>
        <rect x="170.211" y="526.369" width="3.306" height="26.447" fill="#dd5040"/>
        <rect x="279.307" y="526.369" width="3.306" height="26.447" fill="#dd5040"/>
        <rect x="180.129" y="526.369" width="3.306" height="26.447" fill="#dd5040"/>
        <rect x="289.225" y="526.369" width="3.306" height="26.447" fill="#dd5040"/>
        <rect x="190.047" y="526.369" width="3.306" height="26.447" fill="#dd5040"/>
        <rect x="299.143" y="526.369" width="3.306" height="26.447" fill="#dd5040"/>
        <rect x="199.965" y="526.369" width="3.306" height="26.447" fill="#dd5040"/>
        <rect x="309.061" y="526.369" width="3.306" height="26.447" fill="#dd5040"/>
        <rect x="209.883" y="526.369" width="3.306" height="26.447" fill="#dd5040"/>
        <rect x="318.978" y="526.369" width="3.306" height="26.447" fill="#dd5040"/>
        <rect x="219.8" y="526.369" width="3.306" height="26.447" fill="#dd5040"/>
        <rect x="229.718" y="526.369" width="3.306" height="26.447" fill="#dd5040"/>
        <rect x="239.636" y="526.369" width="3.306" height="26.447" fill="#dd5040"/>
        <rect x="160.294" y="526.369" width="3.306" height="26.447" fill="#dd5040"/>
        <rect x="249.554" y="526.369" width="3.306" height="26.447" fill="#dd5040"/>
        <rect x="328.896" y="526.369" width="3.306" height="26.447" fill="#dd5040"/>
        <rect x="259.472" y="526.369" width="3.306" height="26.447" fill="#dd5040"/>
        <rect x="269.389" y="526.369" width="3.306" height="26.447" fill="#dd5040"/>
      </g>
      <circle cx="419.407" cy="495.266" r="21.311" fill="none" stroke="#002684" stroke-linecap="round" stroke-linejoin="round" stroke-width="3"/>
      <circle cx="465.765" cy="495.266" r="21.311" fill="none" stroke="#002684" stroke-linecap="round" stroke-linejoin="round" stroke-width="3"/>
      <circle cx="512.124" cy="493.979" r="21.311" fill="none" stroke="#002684" stroke-linecap="round" stroke-linejoin="round" stroke-width="3"/>
      <circle cx="557.194" cy="493.979" r="21.311" fill="none" stroke="#002684" stroke-linecap="round" stroke-linejoin="round" stroke-width="3"/>
      <circle cx="603.552" cy="493.979" r="21.311" fill="none" stroke="#002684" stroke-linecap="round" stroke-linejoin="round" stroke-width="3"/>
      <line x1="205.77" y1="204.242" x2="532.458" y2="223.782" fill="none" stroke="#f4f4f4" stroke-miterlimit="10"/>
      <line x1="270.61" y1="377.302" x2="466.483" y2="362.533" fill="none" stroke="#f4f4f4" stroke-miterlimit="10"/>
      <line x1="479.856" y1="360.694" x2="541.39" y2="354.989" fill="none" stroke="#f4f4f4" stroke-miterlimit="10"/>
      <polyline points="33.787 468.416 33.207 554.383 136.89 554.964 137.47 468.997" fill="none" stroke="#002684" stroke-linecap="round" stroke-linejoin="round" stroke-width="3"/>
      <circle cx="57.919" cy="530.366" r="21.311" fill="none" stroke="#002684" stroke-linecap="round" stroke-linejoin="round" stroke-width="3"/>
      <circle cx="105.187" cy="529.65" r="21.311" fill="none" stroke="#002684" stroke-linecap="round" stroke-linejoin="round" stroke-width="3"/>
    </g>
  </g>
</svg>
