<svg viewBox="0 0 672 672" xmlns="http://www.w3.org/2000/svg">
  <g data-name="Layer 5">
    <rect width="104.799" height="94.704" x="37.624" y="458.446" fill="#dd5040" rx="4.869"/>
    <rect width="416.388" height="268.973" x="150.468" y="158.681" fill="#6a93d7" rx="8"/>
    <rect width="340.98" height="151.101" x="296.914" y="412.048" fill="#6eceb2" rx="5.006"/>
    <path fill="#eea209" d="M635.639 320.422a2.9 2.9 0 0 0 1.3-2.256v-59.852a2.9 2.9 0 0 0-1.3-2.256l-51.282-29.914a2.846 2.846 0 0 0-2.591 0l-51.282 29.914a2.9 2.9 0 0 0-1.3 2.256v59.852a2.9 2.9 0 0 0 1.3 2.256l51.282 29.915a2.852 2.852 0 0 0 2.591 0Z"/>
    <path fill="none" stroke="#002684" stroke-linecap="round" stroke-linejoin="round" stroke-width="3" d="M202.197 111.323v75.773l331.508 18.943"/>
    <g fill="#eea209">
      <rect width="4.577" height="4.577" x="118.299" y="469.2" rx="1.385" transform="rotate(-90 120.589 471.488)"/>
      <rect width="4.577" height="4.577" x="118.299" y="450.89" rx="1.385" transform="rotate(-90 120.588 453.179)"/>
      <rect width="4.577" height="4.577" x="118.299" y="432.58" rx="1.385" transform="rotate(-90 120.588 434.869)"/>
      <rect width="4.577" height="4.577" x="118.299" y="414.271" rx="1.385" transform="rotate(-90 120.588 416.559)"/>
      <rect width="4.577" height="4.577" x="136.609" y="469.2" rx="1.385" transform="rotate(-90 138.898 471.488)"/>
      <rect width="4.577" height="4.577" x="136.609" y="450.89" rx="1.385" transform="rotate(-90 138.898 453.179)"/>
      <rect width="4.577" height="4.577" x="136.609" y="432.58" rx="1.385" transform="rotate(-90 138.898 434.869)"/>
      <rect width="4.577" height="4.577" x="136.609" y="414.271" rx="1.385" transform="rotate(-90 138.898 416.559)"/>
      <rect width="4.577" height="4.577" x="154.919" y="469.2" rx="1.385" transform="rotate(-90 157.208 471.488)"/>
      <rect width="4.577" height="4.577" x="154.919" y="450.89" rx="1.385" transform="rotate(-90 157.208 453.178)"/>
      <rect width="4.577" height="4.577" x="154.919" y="432.58" rx="1.385" transform="rotate(-90 157.208 434.869)"/>
      <rect width="4.577" height="4.577" x="154.919" y="414.271" rx="1.385" transform="rotate(-90 157.208 416.56)"/>
      <rect width="4.577" height="4.577" x="173.229" y="469.2" rx="1.385" transform="rotate(-90 175.518 471.488)"/>
      <rect width="4.577" height="4.577" x="173.229" y="450.89" rx="1.385" transform="rotate(-90 175.518 453.179)"/>
      <rect width="4.577" height="4.577" x="173.229" y="432.58" rx="1.385" transform="rotate(-90 175.517 434.869)"/>
      <rect width="4.577" height="4.577" x="173.229" y="414.271" rx="1.385" transform="rotate(-90 175.518 416.56)"/>
      <rect width="4.577" height="4.577" x="118.299" y="395.961" rx="1.385" transform="rotate(-90 120.589 398.25)"/>
      <rect width="4.577" height="4.577" x="118.299" y="377.651" rx="1.385" transform="rotate(-90 120.588 379.94)"/>
      <rect width="4.577" height="4.577" x="118.299" y="359.341" rx="1.385" transform="rotate(-90 120.588 361.63)"/>
      <rect width="4.577" height="4.577" x="118.299" y="341.031" rx="1.385" transform="rotate(-90 120.588 343.32)"/>
      <rect width="4.577" height="4.577" x="136.609" y="395.961" rx="1.385" transform="rotate(-90 138.898 398.25)"/>
      <rect width="4.577" height="4.577" x="136.609" y="377.651" rx="1.385" transform="rotate(-90 138.898 379.94)"/>
      <rect width="4.577" height="4.577" x="136.609" y="359.341" rx="1.385" transform="rotate(-90 138.898 361.63)"/>
      <rect width="4.577" height="4.577" x="136.609" y="341.031" rx="1.385" transform="rotate(-90 138.898 343.32)"/>
      <rect width="4.577" height="4.577" x="154.919" y="395.961" rx="1.385" transform="rotate(-90 157.208 398.25)"/>
      <rect width="4.577" height="4.577" x="154.919" y="377.651" rx="1.385" transform="rotate(-90 157.208 379.94)"/>
      <rect width="4.577" height="4.577" x="154.919" y="359.341" rx="1.385" transform="rotate(-90 157.208 361.63)"/>
      <rect width="4.577" height="4.577" x="154.919" y="341.031" rx="1.385" transform="rotate(-90 157.208 343.32)"/>
      <rect width="4.577" height="4.577" x="173.229" y="395.961" rx="1.385" transform="rotate(-90 175.518 398.25)"/>
      <rect width="4.577" height="4.577" x="173.229" y="377.651" rx="1.385" transform="rotate(-90 175.518 379.94)"/>
      <rect width="4.577" height="4.577" x="173.229" y="359.341" rx="1.385" transform="rotate(-90 175.518 361.63)"/>
      <rect width="4.577" height="4.577" x="173.229" y="341.031" rx="1.385" transform="rotate(-90 175.518 343.32)"/>
      <rect width="4.577" height="4.577" x="118.299" y="324.591" rx="1.385" transform="rotate(-90 120.588 326.879)"/>
      <rect width="4.577" height="4.577" x="118.299" y="306.281" rx="1.385" transform="rotate(-90 120.589 308.57)"/>
      <rect width="4.577" height="4.577" x="118.299" y="287.971" rx="1.385" transform="rotate(-90 120.588 290.26)"/>
      <rect width="4.577" height="4.577" x="118.299" y="269.661" rx="1.385" transform="rotate(-90 120.588 271.95)"/>
      <rect width="4.577" height="4.577" x="136.609" y="324.591" rx="1.385" transform="rotate(-90 138.898 326.879)"/>
      <rect width="4.577" height="4.577" x="136.609" y="306.281" rx="1.385" transform="rotate(-90 138.898 308.57)"/>
      <rect width="4.577" height="4.577" x="136.609" y="287.971" rx="1.385" transform="rotate(-90 138.898 290.26)"/>
      <rect width="4.577" height="4.577" x="136.609" y="269.661" rx="1.385" transform="rotate(-90 138.898 271.95)"/>
      <rect width="4.577" height="4.577" x="154.919" y="324.591" rx="1.385" transform="rotate(-90 157.208 326.88)"/>
      <rect width="4.577" height="4.577" x="154.919" y="306.281" rx="1.385" transform="rotate(-90 157.208 308.57)"/>
      <rect width="4.577" height="4.577" x="154.919" y="287.971" rx="1.385" transform="rotate(-90 157.208 290.26)"/>
      <rect width="4.577" height="4.577" x="154.919" y="269.661" rx="1.385" transform="rotate(-90 157.208 271.95)"/>
      <rect width="4.577" height="4.577" x="173.229" y="324.591" rx="1.385" transform="rotate(-90 175.518 326.88)"/>
      <rect width="4.577" height="4.577" x="173.229" y="306.281" rx="1.385" transform="rotate(-90 175.518 308.57)"/>
      <rect width="4.577" height="4.577" x="173.229" y="287.971" rx="1.385" transform="rotate(-90 175.518 290.26)"/>
      <rect width="4.577" height="4.577" x="173.229" y="269.661" rx="1.385" transform="rotate(-90 175.517 271.95)"/>
      <rect width="4.577" height="4.577" x="118.299" y="251.352" rx="1.385" transform="rotate(-90 120.588 253.64)"/>
      <rect width="4.577" height="4.577" x="118.299" y="233.042" rx="1.385" transform="rotate(-90 120.589 235.33)"/>
      <rect width="4.577" height="4.577" x="118.299" y="214.732" rx="1.385" transform="rotate(-90 120.588 217.021)"/>
      <rect width="4.577" height="4.577" x="118.299" y="196.422" rx="1.385" transform="rotate(-90 120.588 198.711)"/>
      <rect width="4.577" height="4.577" x="136.609" y="251.352" rx="1.385" transform="rotate(-90 138.898 253.64)"/>
      <rect width="4.577" height="4.577" x="136.609" y="233.042" rx="1.385" transform="rotate(-90 138.898 235.33)"/>
      <rect width="4.577" height="4.577" x="136.609" y="214.732" rx="1.385" transform="rotate(-90 138.898 217.021)"/>
      <rect width="4.577" height="4.577" x="136.609" y="196.422" rx="1.385" transform="rotate(-90 138.898 198.711)"/>
      <rect width="4.577" height="4.577" x="154.919" y="251.352" rx="1.385" transform="rotate(-90 157.208 253.64)"/>
      <rect width="4.577" height="4.577" x="154.919" y="233.042" rx="1.385" transform="rotate(-90 157.208 235.33)"/>
      <rect width="4.577" height="4.577" x="154.919" y="214.732" rx="1.385" transform="rotate(-90 157.208 217.02)"/>
      <rect width="4.577" height="4.577" x="154.919" y="196.422" rx="1.385" transform="rotate(-90 157.208 198.711)"/>
      <rect width="4.577" height="4.577" x="173.229" y="251.352" rx="1.385" transform="rotate(-90 175.518 253.64)"/>
      <rect width="4.577" height="4.577" x="173.229" y="233.042" rx="1.385" transform="rotate(-90 175.518 235.33)"/>
      <rect width="4.577" height="4.577" x="173.229" y="214.732" rx="1.385" transform="rotate(-90 175.518 217.02)"/>
      <rect width="4.577" height="4.577" x="173.229" y="196.422" rx="1.385" transform="rotate(-90 175.517 198.711)"/>
      <rect width="4.577" height="4.577" x="190.975" y="468.918" rx="1.385" transform="rotate(-90 193.264 471.207)"/>
      <rect width="4.577" height="4.577" x="190.975" y="450.608" rx="1.385" transform="rotate(-90 193.264 452.897)"/>
      <rect width="4.577" height="4.577" x="190.975" y="432.299" rx="1.385" transform="rotate(-90 193.264 434.587)"/>
      <rect width="4.577" height="4.577" x="190.975" y="413.989" rx="1.385" transform="rotate(-90 193.264 416.278)"/>
      <rect width="4.577" height="4.577" x="209.285" y="468.918" rx="1.385" transform="rotate(-90 211.574 471.207)"/>
      <rect width="4.577" height="4.577" x="209.285" y="450.608" rx="1.385" transform="rotate(-90 211.574 452.897)"/>
      <rect width="4.577" height="4.577" x="209.285" y="432.299" rx="1.385" transform="rotate(-90 211.573 434.587)"/>
      <rect width="4.577" height="4.577" x="209.285" y="413.989" rx="1.385" transform="rotate(-90 211.574 416.277)"/>
      <rect width="4.577" height="4.577" x="227.595" y="468.918" rx="1.385" transform="rotate(-90 229.884 471.207)"/>
      <rect width="4.577" height="4.577" x="227.595" y="450.608" rx="1.385" transform="rotate(-90 229.883 452.897)"/>
      <rect width="4.577" height="4.577" x="227.595" y="432.299" rx="1.385" transform="rotate(-90 229.884 434.588)"/>
      <rect width="4.577" height="4.577" x="227.595" y="413.989" rx="1.385" transform="rotate(-90 229.883 416.277)"/>
      <rect width="4.577" height="4.577" x="245.905" y="468.918" rx="1.385" transform="rotate(-90 248.193 471.207)"/>
      <rect width="4.577" height="4.577" x="245.905" y="450.608" rx="1.385" transform="rotate(-90 248.193 452.897)"/>
      <rect width="4.577" height="4.577" x="245.905" y="432.299" rx="1.385" transform="rotate(-90 248.194 434.587)"/>
      <rect width="4.577" height="4.577" x="245.905" y="413.989" rx="1.385" transform="rotate(-90 248.194 416.277)"/>
      <rect width="4.577" height="4.577" x="190.975" y="395.679" rx="1.385" transform="rotate(-90 193.264 397.968)"/>
      <rect width="4.577" height="4.577" x="190.975" y="377.369" rx="1.385" transform="rotate(-90 193.264 379.658)"/>
      <rect width="4.577" height="4.577" x="190.975" y="359.06" rx="1.385" transform="rotate(-90 193.264 361.348)"/>
      <rect width="4.577" height="4.577" x="190.975" y="340.75" rx="1.385" transform="rotate(-90 193.264 343.039)"/>
      <rect width="4.577" height="4.577" x="209.285" y="395.679" rx="1.385" transform="rotate(-90 211.574 397.968)"/>
      <rect width="4.577" height="4.577" x="209.285" y="377.369" rx="1.385" transform="rotate(-90 211.574 379.658)"/>
      <rect width="4.577" height="4.577" x="209.285" y="359.06" rx="1.385" transform="rotate(-90 211.574 361.349)"/>
      <rect width="4.577" height="4.577" x="209.285" y="340.75" rx="1.385" transform="rotate(-90 211.574 343.038)"/>
      <rect width="4.577" height="4.577" x="227.595" y="395.679" rx="1.385" transform="rotate(-90 229.884 397.968)"/>
      <rect width="4.577" height="4.577" x="227.595" y="377.369" rx="1.385" transform="rotate(-90 229.884 379.659)"/>
      <rect width="4.577" height="4.577" x="227.595" y="359.06" rx="1.385" transform="rotate(-90 229.884 361.349)"/>
      <rect width="4.577" height="4.577" x="227.595" y="340.75" rx="1.385" transform="rotate(-90 229.884 343.038)"/>
      <rect width="4.577" height="4.577" x="245.905" y="395.679" rx="1.385" transform="rotate(-90 248.193 397.968)"/>
      <rect width="4.577" height="4.577" x="245.905" y="377.369" rx="1.385" transform="rotate(-90 248.193 379.658)"/>
      <rect width="4.577" height="4.577" x="245.905" y="359.06" rx="1.385" transform="rotate(-90 248.194 361.349)"/>
      <rect width="4.577" height="4.577" x="245.905" y="340.75" rx="1.385" transform="rotate(-90 248.194 343.038)"/>
      <rect width="4.577" height="4.577" x="190.975" y="324.309" rx="1.385" transform="rotate(-90 193.264 326.598)"/>
      <rect width="4.577" height="4.577" x="190.975" y="305.999" rx="1.385" transform="rotate(-90 193.264 308.288)"/>
      <rect width="4.577" height="4.577" x="190.975" y="287.689" rx="1.385" transform="rotate(-90 193.264 289.978)"/>
      <rect width="4.577" height="4.577" x="190.975" y="269.38" rx="1.385" transform="rotate(-90 193.264 271.668)"/>
      <rect width="4.577" height="4.577" x="209.285" y="324.309" rx="1.385" transform="rotate(-90 211.574 326.598)"/>
      <rect width="4.577" height="4.577" x="209.285" y="305.999" rx="1.385" transform="rotate(-90 211.574 308.288)"/>
      <rect width="4.577" height="4.577" x="209.285" y="287.689" rx="1.385" transform="rotate(-90 211.574 289.978)"/>
      <rect width="4.577" height="4.577" x="209.285" y="269.38" rx="1.385" transform="rotate(-90 211.574 271.669)"/>
      <rect width="4.577" height="4.577" x="227.595" y="324.309" rx="1.385" transform="rotate(-90 229.884 326.598)"/>
      <rect width="4.577" height="4.577" x="227.595" y="305.999" rx="1.385" transform="rotate(-90 229.884 308.288)"/>
      <rect width="4.577" height="4.577" x="227.595" y="287.689" rx="1.385" transform="rotate(-90 229.884 289.978)"/>
      <rect width="4.577" height="4.577" x="227.595" y="269.38" rx="1.385" transform="rotate(-90 229.884 271.669)"/>
      <rect width="4.577" height="4.577" x="245.905" y="324.309" rx="1.385" transform="rotate(-90 248.194 326.598)"/>
      <rect width="4.577" height="4.577" x="245.905" y="305.999" rx="1.385" transform="rotate(-90 248.193 308.288)"/>
      <rect width="4.577" height="4.577" x="245.905" y="287.689" rx="1.385" transform="rotate(-90 248.194 289.978)"/>
      <rect width="4.577" height="4.577" x="245.905" y="269.38" rx="1.385" transform="rotate(-90 248.194 271.668)"/>
      <rect width="4.577" height="4.577" x="190.975" y="251.07" rx="1.385" transform="rotate(-90 193.264 253.359)"/>
      <rect width="4.577" height="4.577" x="190.975" y="232.76" rx="1.385" transform="rotate(-90 193.264 235.049)"/>
      <rect width="4.577" height="4.577" x="190.975" y="214.45" rx="1.385" transform="rotate(-90 193.264 216.739)"/>
      <rect width="4.577" height="4.577" x="190.975" y="196.141" rx="1.385" transform="rotate(-90 193.264 198.429)"/>
      <rect width="4.577" height="4.577" x="209.285" y="251.07" rx="1.385" transform="rotate(-90 211.574 253.359)"/>
      <rect width="4.577" height="4.577" x="209.285" y="232.76" rx="1.385" transform="rotate(-90 211.574 235.049)"/>
      <rect width="4.577" height="4.577" x="209.285" y="214.45" rx="1.385" transform="rotate(-90 211.574 216.739)"/>
      <rect width="4.577" height="4.577" x="209.285" y="196.141" rx="1.385" transform="rotate(-90 211.574 198.43)"/>
      <rect width="4.577" height="4.577" x="227.595" y="251.07" rx="1.385" transform="rotate(-90 229.884 253.359)"/>
      <rect width="4.577" height="4.577" x="227.595" y="232.76" rx="1.385" transform="rotate(-90 229.884 235.049)"/>
      <rect width="4.577" height="4.577" x="227.595" y="214.45" rx="1.385" transform="rotate(-90 229.884 216.74)"/>
      <rect width="4.577" height="4.577" x="227.595" y="196.141" rx="1.385" transform="rotate(-90 229.884 198.43)"/>
      <rect width="4.577" height="4.577" x="245.905" y="251.07" rx="1.385" transform="rotate(-90 248.194 253.359)"/>
      <rect width="4.577" height="4.577" x="245.905" y="232.76" rx="1.385" transform="rotate(-90 248.193 235.049)"/>
      <rect width="4.577" height="4.577" x="245.905" y="214.45" rx="1.385" transform="rotate(-90 248.193 216.739)"/>
      <rect width="4.577" height="4.577" x="245.905" y="196.141" rx="1.385" transform="rotate(-90 248.194 198.43)"/>
    </g>
    <circle cx="275.52" cy="166.133" r="21.311" fill="#fff"/>
    <circle cx="277.97" cy="168.153" r="21.311" fill="none" stroke="#002684" stroke-linecap="round" stroke-linejoin="round" stroke-width="3"/>
    <circle cx="323.113" cy="168.363" r="21.311" fill="#fff"/>
    <circle cx="325.329" cy="170.521" r="21.311" fill="none" stroke="#002684" stroke-linecap="round" stroke-linejoin="round" stroke-width="3"/>
    <circle cx="370.255" cy="170.952" r="21.311" fill="#fff"/>
    <circle cx="372.687" cy="172.889" r="21.311" fill="none" stroke="#002684" stroke-linecap="round" stroke-linejoin="round" stroke-width="3"/>
    <circle cx="417.817" cy="173.02" r="21.311" fill="#fff"/>
    <circle cx="420.045" cy="175.256" r="21.311" fill="none" stroke="#002684" stroke-linecap="round" stroke-linejoin="round" stroke-width="3"/>
    <circle cx="472.41" cy="177.57" r="21.311" fill="#fff"/>
    <circle cx="474.507" cy="179.992" r="21.311" fill="none" stroke="#002684" stroke-linecap="round" stroke-linejoin="round" stroke-width="3"/>
    <circle cx="529.071" cy="180.051" r="21.311" fill="#fff"/>
    <circle cx="531.337" cy="182.36" r="21.311" fill="none" stroke="#002684" stroke-linecap="round" stroke-linejoin="round" stroke-width="3"/>
    <circle cx="441.805" cy="319.016" r="21.311" fill="#fff"/>
    <circle cx="572.911" cy="271.04" r="21.311" fill="#fff"/>
    <circle cx="308.631" cy="329.769" r="21.311" fill="#fff"/>
    <path fill="none" stroke="#002684" stroke-linecap="round" stroke-linejoin="round" stroke-width="3" d="M628.422 234.454v94.717l-359.923 28.415"/>
    <circle cx="573.96" cy="279.445" r="21.311" fill="none" stroke="#002684" stroke-linecap="round" stroke-linejoin="round" stroke-width="3"/>
    <circle cx="436.621" cy="319.699" r="21.311" fill="none" stroke="#002684" stroke-linecap="round" stroke-linejoin="round" stroke-width="3"/>
    <circle cx="148.281" cy="404.929" r="21.311" fill="#fff"/>
    <circle cx="299.282" cy="331.539" r="21.311" fill="none" stroke="#002684" stroke-linecap="round" stroke-linejoin="round" stroke-width="3"/>
    <path fill="none" stroke="#002684" stroke-linecap="round" stroke-linejoin="round" stroke-width="3" d="m145.614 431.635 110.799-34.438m-54.216 17.219-56.83 94.717h113.66l-56.83-94.717zm92.349 35.519 59.198 68.669h274.678"/>
    <g fill="#002684">
      <path d="m190.329 491.735 27.325-27.774-4.629-4.555-27.403 27.775"/>
      <path d="m218.773 486.732-27.775-27.326-4.554 4.63 27.774 27.403"/>
    </g>
    <circle cx="142.999" cy="407.312" r="21.311" fill="none" stroke="#002684" stroke-linecap="round" stroke-linejoin="round" stroke-width="3"/>
    <path fill="#6eceb2" d="m148 128.754-32.987-19.045a3.394 3.394 0 0 0-5.092 2.939v38.09a3.4 3.4 0 0 0 5.092 2.94L148 134.633a3.394 3.394 0 0 0 0-5.879Z"/>
    <path fill="#dd5040" d="M170.211 526.369h3.306v26.447h-3.306zm109.096 0h3.306v26.447h-3.306zm-99.178 0h3.306v26.447h-3.306zm109.096 0h3.306v26.447h-3.306zm-99.178 0h3.306v26.447h-3.306zm109.096 0h3.306v26.447h-3.306zm-99.178 0h3.306v26.447h-3.306zm109.096 0h3.306v26.447h-3.306zm-99.178 0h3.306v26.447h-3.306zm109.095 0h3.306v26.447h-3.306zm-99.178 0h3.306v26.447H219.8zm9.918 0h3.306v26.447h-3.306zm9.918 0h3.306v26.447h-3.306zm-79.342 0h3.306v26.447h-3.306zm89.26 0h3.306v26.447h-3.306zm79.342 0h3.306v26.447h-3.306zm-69.424 0h3.306v26.447h-3.306zm9.917 0h3.306v26.447h-3.306z"/>
    <circle cx="419.407" cy="495.266" r="21.311" fill="none" stroke="#002684" stroke-linecap="round" stroke-linejoin="round" stroke-width="3"/>
    <circle cx="465.765" cy="495.266" r="21.311" fill="none" stroke="#002684" stroke-linecap="round" stroke-linejoin="round" stroke-width="3"/>
    <circle cx="512.124" cy="493.979" r="21.311" fill="none" stroke="#002684" stroke-linecap="round" stroke-linejoin="round" stroke-width="3"/>
    <circle cx="557.194" cy="493.979" r="21.311" fill="none" stroke="#002684" stroke-linecap="round" stroke-linejoin="round" stroke-width="3"/>
    <circle cx="603.552" cy="493.979" r="21.311" fill="none" stroke="#002684" stroke-linecap="round" stroke-linejoin="round" stroke-width="3"/>
    <path fill="none" stroke="#f4f4f4" stroke-miterlimit="10" d="m205.77 204.242 326.688 19.54M270.61 377.302l195.873-14.769m13.373-1.839 61.534-5.705"/>
    <path fill="none" stroke="#002684" stroke-linecap="round" stroke-linejoin="round" stroke-width="3" d="m33.787 468.416-.58 85.967 103.683.581.58-85.967"/>
    <circle cx="57.919" cy="530.366" r="21.311" fill="none" stroke="#002684" stroke-linecap="round" stroke-linejoin="round" stroke-width="3"/>
    <circle cx="105.187" cy="529.65" r="21.311" fill="none" stroke="#002684" stroke-linecap="round" stroke-linejoin="round" stroke-width="3"/>
  </g>
</svg>
