<svg xmlns="http://www.w3.org/2000/svg" viewBox="0 0 672 672">
  <g id="e9119a64-7c86-4690-9953-406de8fa0c90" data-name="Layer 2">
    <g>
      <rect x="133.307" y="87.797" width="216" height="416" rx="6.176" fill="#6eceb2"/>
      <rect x="104.36" y="166.967" width="402.087" height="279.227" rx="6.145" fill="#dd5040"/>
      <g>
        <circle cx="141.307" cy="389.797" r="12" fill="#fff"/>
        <circle cx="131.932" cy="381.922" r="12" fill="none" stroke="#002683" stroke-miterlimit="10" stroke-width="3"/>
      </g>
      <g>
        <circle cx="123.682" cy="423.047" r="2.375" fill="#002684"/>
        <circle cx="139.682" cy="423.047" r="2.375" fill="#002684"/>
        <circle cx="155.682" cy="423.047" r="2.375" fill="#002684"/>
        <circle cx="123.682" cy="439.797" r="2.375" fill="#002684"/>
        <circle cx="139.682" cy="439.797" r="2.375" fill="#002684"/>
        <circle cx="155.682" cy="439.797" r="2.375" fill="#002684"/>
        <circle cx="123.682" cy="455.047" r="2.375" fill="#002684"/>
        <circle cx="139.682" cy="455.047" r="2.375" fill="#002684"/>
        <circle cx="155.682" cy="455.047" r="2.375" fill="#002684"/>
        <circle cx="123.682" cy="471.047" r="2.375" fill="#002684"/>
        <circle cx="139.682" cy="471.047" r="2.375" fill="#002684"/>
        <circle cx="155.682" cy="471.047" r="2.375" fill="#002684"/>
        <circle cx="123.682" cy="487.047" r="2.375" fill="#002684"/>
        <circle cx="139.682" cy="487.047" r="2.375" fill="#002684"/>
        <circle cx="155.682" cy="487.047" r="2.375" fill="#002684"/>
        <circle cx="123.682" cy="503.047" r="2.375" fill="#002684"/>
        <circle cx="139.682" cy="503.047" r="2.375" fill="#002684"/>
        <circle cx="123.682" cy="519.047" r="2.375" fill="#002684"/>
        <circle cx="139.682" cy="519.047" r="2.375" fill="#002684"/>
        <circle cx="123.682" cy="535.797" r="2.375" fill="#002684"/>
        <circle cx="139.682" cy="535.797" r="2.375" fill="#002684"/>
        <circle cx="123.682" cy="551.797" r="2.375" fill="#002684"/>
        <circle cx="139.682" cy="551.797" r="2.375" fill="#002684"/>
      </g>
      <path d="M575.288,413.237a3.581,3.581,0,0,1,3.791,3.887V428.5c0,2.7,1.944,4.17,4.6,4.17v3.7c-2.654,0-4.6,1.469-4.6,4.17v11.375a3.58,3.58,0,0,1-3.791,3.886h-3.981v-2.985h4.5V440.963a5.953,5.953,0,0,1,4.5-6.066v-.759a5.953,5.953,0,0,1-4.5-6.066V416.223h-4.5v-2.986Z" fill="#002684"/>
      <g>
        <rect x="597.307" y="425.797" width="4" height="18" fill="#dd5040"/>
        <rect x="605.307" y="425.797" width="4" height="18" fill="#dd5040"/>
        <rect x="613.307" y="425.797" width="4" height="18" fill="#dd5040"/>
        <rect x="621.307" y="425.797" width="4" height="18" fill="#dd5040"/>
        <rect x="629.307" y="425.797" width="4" height="18" fill="#dd5040"/>
        <rect x="637.307" y="425.797" width="4" height="18" fill="#dd5040"/>
      </g>
      <g>
        <rect x="645.307" y="383.797" width="4" height="18" fill="#dd5040"/>
        <rect x="557.307" y="383.797" width="4" height="18" fill="#dd5040"/>
        <rect x="565.307" y="383.797" width="4" height="18" fill="#dd5040"/>
        <rect x="573.307" y="383.797" width="4" height="18" fill="#dd5040"/>
        <rect x="581.307" y="383.797" width="4" height="18" fill="#dd5040"/>
        <rect x="589.307" y="383.797" width="4" height="18" fill="#dd5040"/>
        <rect x="597.307" y="383.797" width="4" height="18" fill="#dd5040"/>
        <rect x="605.307" y="383.797" width="4" height="18" fill="#dd5040"/>
        <rect x="613.307" y="383.797" width="4" height="18" fill="#dd5040"/>
        <rect x="621.307" y="383.797" width="4" height="18" fill="#dd5040"/>
        <rect x="629.307" y="383.797" width="4" height="18" fill="#dd5040"/>
        <rect x="637.307" y="383.797" width="4" height="18" fill="#dd5040"/>
      </g>
      <rect x="355.664" y="340.087" width="273.643" height="22.338" rx="8" fill="#6eceb2"/>
      <rect x="453.394" y="245.15" width="111.691" height="50.261" rx="18" fill="#6a93d7"/>
      <g>
        <rect x="87.606" y="183.72" width="402.087" height="279.227" fill="none" stroke="#002684" stroke-miterlimit="10" stroke-width="3"/>
        <line x1="87.606" y1="203.266" x2="489.693" y2="203.266" fill="none" stroke="#002684" stroke-miterlimit="10" stroke-width="3"/>
        <circle cx="100.172" cy="193.493" r="1.396" fill="none" stroke="#002684" stroke-miterlimit="10" stroke-width="3"/>
        <circle cx="114.133" cy="193.493" r="1.396" fill="none" stroke="#002684" stroke-miterlimit="10" stroke-width="3"/>
        <circle cx="128.094" cy="193.493" r="1.396" fill="none" stroke="#002684" stroke-miterlimit="10" stroke-width="3"/>
        <line x1="176.959" y1="203.266" x2="176.959" y2="462.947" fill="none" stroke="#002684" stroke-miterlimit="10" stroke-width="3"/>
        <line x1="190.92" y1="217.227" x2="338.911" y2="217.227" fill="none" stroke="#002684" stroke-miterlimit="10" stroke-width="3"/>
        <line x1="202.09" y1="228.397" x2="322.157" y2="228.397" fill="none" stroke="#002684" stroke-miterlimit="10" stroke-width="3"/>
        <line x1="202.09" y1="239.566" x2="285.858" y2="239.566" fill="none" stroke="#002684" stroke-miterlimit="10" stroke-width="3"/>
        <line x1="213.259" y1="250.735" x2="313.78" y2="250.735" fill="none" stroke="#002684" stroke-miterlimit="10" stroke-width="3"/>
        <line x1="202.09" y1="261.904" x2="230.012" y2="261.904" fill="none" stroke="#002684" stroke-miterlimit="10" stroke-width="3"/>
        <line x1="190.92" y1="273.073" x2="196.505" y2="273.073" fill="none" stroke="#002684" stroke-miterlimit="10" stroke-width="3"/>
        <line x1="190.92" y1="287.034" x2="274.689" y2="287.034" fill="none" stroke="#002684" stroke-miterlimit="10" stroke-width="3"/>
        <line x1="190.92" y1="298.203" x2="288.65" y2="298.203" fill="none" stroke="#002684" stroke-miterlimit="10" stroke-width="3"/>
        <line x1="202.09" y1="309.372" x2="263.52" y2="309.372" fill="none" stroke="#002684" stroke-miterlimit="10" stroke-width="3"/>
        <line x1="202.09" y1="320.541" x2="263.52" y2="320.541" fill="none" stroke="#002684" stroke-miterlimit="10" stroke-width="3"/>
        <line x1="213.259" y1="331.711" x2="252.35" y2="331.711" fill="none" stroke="#002684" stroke-miterlimit="10" stroke-width="3"/>
        <line x1="213.259" y1="342.88" x2="271.896" y2="342.88" fill="none" stroke="#002684" stroke-miterlimit="10" stroke-width="3"/>
        <line x1="202.09" y1="354.049" x2="241.181" y2="354.049" fill="none" stroke="#002684" stroke-miterlimit="10" stroke-width="3"/>
        <line x1="190.92" y1="365.218" x2="218.843" y2="365.218" fill="none" stroke="#002684" stroke-miterlimit="10" stroke-width="3"/>
      </g>
      <g>
        <g>
          <g>
            <rect x="60.502" y="154.302" width="3.949" height="19.744" transform="translate(-97.79 92.263) rotate(-45)" fill="#6a93d7"/>
            <rect x="60.502" y="154.302" width="3.949" height="19.744" transform="translate(-9.435 324.44) rotate(-135)" fill="#6a93d7"/>
          </g>
          <g>
            <rect x="88.424" y="154.302" width="3.949" height="19.744" transform="translate(-89.612 112.007) rotate(-45)" fill="#6a93d7"/>
            <rect x="88.424" y="154.302" width="3.949" height="19.744" transform="translate(38.232 344.185) rotate(-135)" fill="#6a93d7"/>
          </g>
          <g>
            <rect x="116.347" y="154.302" width="3.949" height="19.744" transform="translate(-81.433 131.751) rotate(-45)" fill="#6a93d7"/>
            <rect x="116.347" y="154.302" width="3.949" height="19.744" transform="translate(85.899 363.929) rotate(-135)" fill="#6a93d7"/>
          </g>
          <g>
            <rect x="141.477" y="154.302" width="3.949" height="19.744" transform="translate(-74.073 149.521) rotate(-45)" fill="#6a93d7"/>
            <rect x="141.477" y="154.302" width="3.949" height="19.744" transform="translate(128.799 381.699) rotate(-135)" fill="#6a93d7"/>
          </g>
        </g>
        <g>
          <g>
            <rect x="57.709" y="157.094" width="3.949" height="19.744" transform="translate(-100.582 91.106) rotate(-45)" fill="#002684"/>
            <rect x="57.709" y="157.094" width="3.949" height="19.744" transform="translate(-16.177 327.233) rotate(-135)" fill="#002684"/>
          </g>
          <g>
            <rect x="85.632" y="157.094" width="3.949" height="19.744" transform="translate(-92.404 110.851) rotate(-45)" fill="#002684"/>
            <rect x="85.632" y="157.094" width="3.949" height="19.744" transform="translate(31.49 346.977) rotate(-135)" fill="#002684"/>
          </g>
          <g>
            <rect x="113.555" y="157.094" width="3.949" height="19.744" transform="translate(-84.225 130.595) rotate(-45)" fill="#002684"/>
            <rect x="113.555" y="157.094" width="3.949" height="19.744" transform="translate(79.157 366.721) rotate(-135)" fill="#002684"/>
          </g>
          <g>
            <rect x="138.685" y="157.094" width="3.949" height="19.744" transform="translate(-76.865 148.365) rotate(-45)" fill="#002684"/>
            <rect x="138.685" y="157.094" width="3.949" height="19.744" transform="translate(122.058 384.491) rotate(-135)" fill="#002684"/>
          </g>
        </g>
      </g>
      <g>
        <rect x="447.809" y="250.735" width="3.866" height="3.866" rx="1.385" fill="#002684"/>
        <rect x="463.274" y="250.735" width="3.866" height="3.866" rx="1.385" fill="#002684"/>
        <rect x="478.739" y="250.735" width="3.866" height="3.866" rx="1.385" fill="#002684"/>
        <rect x="494.204" y="250.735" width="3.866" height="3.866" rx="1.385" fill="#002684"/>
        <rect x="447.809" y="266.2" width="3.866" height="3.866" rx="1.385" fill="#002684"/>
        <rect x="463.274" y="266.2" width="3.866" height="3.866" rx="1.385" fill="#002684"/>
        <rect x="478.739" y="266.2" width="3.866" height="3.866" rx="1.385" fill="#002684"/>
        <rect x="494.204" y="266.2" width="3.866" height="3.866" rx="1.385" fill="#002684"/>
        <rect x="447.809" y="281.664" width="3.866" height="3.866" rx="1.385" fill="#002684"/>
        <rect x="463.274" y="281.664" width="3.866" height="3.866" rx="1.385" fill="#002684"/>
        <rect x="478.739" y="281.664" width="3.866" height="3.866" rx="1.385" fill="#002684"/>
        <rect x="494.204" y="281.664" width="3.866" height="3.866" rx="1.385" fill="#002684"/>
        <rect x="447.809" y="297.129" width="3.866" height="3.866" rx="1.385" fill="#002684"/>
        <rect x="463.274" y="297.129" width="3.866" height="3.866" rx="1.385" fill="#002684"/>
        <rect x="478.739" y="297.129" width="3.866" height="3.866" rx="1.385" fill="#002684"/>
        <rect x="494.204" y="297.129" width="3.866" height="3.866" rx="1.385" fill="#002684"/>
        <rect x="509.669" y="250.735" width="3.866" height="3.866" rx="1.385" fill="#002684"/>
        <rect x="525.134" y="250.735" width="3.866" height="3.866" rx="1.385" fill="#002684"/>
        <rect x="540.599" y="250.735" width="3.866" height="3.866" rx="1.385" fill="#002684"/>
        <rect x="556.064" y="250.735" width="3.866" height="3.866" rx="1.385" fill="#002684"/>
        <rect x="509.669" y="266.2" width="3.866" height="3.866" rx="1.385" fill="#002684"/>
        <rect x="525.134" y="266.2" width="3.866" height="3.866" rx="1.385" fill="#002684"/>
        <rect x="540.599" y="266.2" width="3.866" height="3.866" rx="1.385" fill="#002684"/>
        <rect x="556.064" y="266.2" width="3.866" height="3.866" rx="1.385" fill="#002684"/>
        <rect x="509.669" y="281.664" width="3.866" height="3.866" rx="1.385" fill="#002684"/>
        <rect x="525.134" y="281.664" width="3.866" height="3.866" rx="1.385" fill="#002684"/>
        <rect x="540.599" y="281.664" width="3.866" height="3.866" rx="1.385" fill="#002684"/>
        <rect x="556.064" y="281.664" width="3.866" height="3.866" rx="1.385" fill="#002684"/>
        <rect x="509.669" y="297.129" width="3.866" height="3.866" rx="1.385" fill="#002684"/>
        <rect x="525.134" y="297.129" width="3.866" height="3.866" rx="1.385" fill="#002684"/>
        <rect x="540.599" y="297.129" width="3.866" height="3.866" rx="1.385" fill="#002684"/>
        <rect x="556.064" y="297.129" width="3.866" height="3.866" rx="1.385" fill="#002684"/>
      </g>
      <circle cx="478.524" cy="437.817" r="58.638" fill="#eea209"/>
      <g>
        <circle cx="470.148" cy="445.481" r="58.638" fill="none" stroke="#002684" stroke-miterlimit="10" stroke-width="3"/>
        <polyline points="495.278 499.247 551.123 585.807 565.085 577.43 509.239 490.87" fill="none" stroke="#002684" stroke-miterlimit="10" stroke-width="3"/>
        <polygon points="447.809 446.194 464.563 462.947 498.07 429.44 492.486 423.855 464.563 451.778 453.394 440.609 447.809 446.194" fill="#002684"/>
      </g>
      <g>
        <rect x="380.795" y="342.88" width="2.792" height="22.338" fill="#fff"/>
        <rect x="472.94" y="342.88" width="2.792" height="22.338" fill="#fff"/>
        <rect x="389.172" y="342.88" width="2.792" height="22.338" fill="#fff"/>
        <rect x="481.317" y="342.88" width="2.792" height="22.338" fill="#fff"/>
        <rect x="397.549" y="342.88" width="2.792" height="22.338" fill="#fff"/>
        <rect x="489.693" y="342.88" width="2.792" height="22.338" fill="#fff"/>
        <rect x="405.925" y="342.88" width="2.792" height="22.338" fill="#fff"/>
        <rect x="498.07" y="342.88" width="2.792" height="22.338" fill="#fff"/>
        <rect x="414.302" y="342.88" width="2.792" height="22.338" fill="#fff"/>
        <rect x="506.447" y="342.88" width="2.792" height="22.338" fill="#fff"/>
        <rect x="422.679" y="342.88" width="2.792" height="22.338" fill="#fff"/>
        <rect x="431.056" y="342.88" width="2.792" height="22.338" fill="#fff"/>
        <rect x="439.433" y="342.88" width="2.792" height="22.338" fill="#fff"/>
        <rect x="372.418" y="342.88" width="2.792" height="22.338" fill="#fff"/>
        <rect x="447.809" y="342.88" width="2.792" height="22.338" fill="#fff"/>
        <rect x="514.824" y="342.88" width="2.792" height="22.338" fill="#fff"/>
        <rect x="456.186" y="342.88" width="2.792" height="22.338" fill="#fff"/>
        <rect x="464.563" y="342.88" width="2.792" height="22.338" fill="#fff"/>
      </g>
      <g>
        <rect x="22.307" y="231.797" width="152" height="4" fill="#eea209"/>
        <rect x="22.307" y="239.797" width="152" height="4" fill="#eea209"/>
        <rect x="22.307" y="247.797" width="152" height="4" fill="#eea209"/>
        <rect x="22.307" y="255.797" width="152" height="4" fill="#eea209"/>
        <rect x="22.307" y="263.797" width="152" height="4" fill="#eea209"/>
        <rect x="22.307" y="271.797" width="152" height="4" fill="#eea209"/>
        <rect x="22.307" y="279.797" width="152" height="4" fill="#eea209"/>
        <rect x="22.307" y="287.797" width="152" height="4" fill="#eea209"/>
        <rect x="22.307" y="295.797" width="152" height="4" fill="#eea209"/>
        <rect x="22.307" y="303.797" width="152" height="4" fill="#eea209"/>
        <rect x="22.307" y="311.797" width="152" height="4" fill="#eea209"/>
        <rect x="22.307" y="319.797" width="152" height="4" fill="#eea209"/>
      </g>
    </g>
  </g>
</svg>
