<svg viewBox="0 0 672 672" xmlns="http://www.w3.org/2000/svg">
  <g data-name="Layer 2">
    <rect width="216" height="416" x="133.307" y="87.797" fill="#6eceb2" rx="6.176"/>
    <rect width="402.087" height="279.227" x="104.36" y="166.967" fill="#dd5040" rx="6.145"/>
    <circle cx="141.307" cy="389.797" r="12" fill="#fff"/>
    <circle cx="131.932" cy="381.922" r="12" fill="none" stroke="#002683" stroke-miterlimit="10" stroke-width="3"/>
    <g fill="#002684">
      <circle cx="123.682" cy="423.047" r="2.375"/>
      <circle cx="139.682" cy="423.047" r="2.375"/>
      <circle cx="155.682" cy="423.047" r="2.375"/>
      <circle cx="123.682" cy="439.797" r="2.375"/>
      <circle cx="139.682" cy="439.797" r="2.375"/>
      <circle cx="155.682" cy="439.797" r="2.375"/>
      <circle cx="123.682" cy="455.047" r="2.375"/>
      <circle cx="139.682" cy="455.047" r="2.375"/>
      <circle cx="155.682" cy="455.047" r="2.375"/>
      <circle cx="123.682" cy="471.047" r="2.375"/>
      <circle cx="139.682" cy="471.047" r="2.375"/>
      <circle cx="155.682" cy="471.047" r="2.375"/>
      <circle cx="123.682" cy="487.047" r="2.375"/>
      <circle cx="139.682" cy="487.047" r="2.375"/>
      <circle cx="155.682" cy="487.047" r="2.375"/>
      <circle cx="123.682" cy="503.047" r="2.375"/>
      <circle cx="139.682" cy="503.047" r="2.375"/>
      <circle cx="123.682" cy="519.047" r="2.375"/>
      <circle cx="139.682" cy="519.047" r="2.375"/>
      <circle cx="123.682" cy="535.797" r="2.375"/>
      <circle cx="139.682" cy="535.797" r="2.375"/>
      <circle cx="123.682" cy="551.797" r="2.375"/>
      <circle cx="139.682" cy="551.797" r="2.375"/>
    </g>
    <path fill="#002684" d="M575.288 413.237a3.581 3.581 0 0 1 3.791 3.887V428.5c0 2.7 1.944 4.17 4.6 4.17v3.7c-2.654 0-4.6 1.469-4.6 4.17v11.375a3.58 3.58 0 0 1-3.791 3.886h-3.981v-2.985h4.5v-11.853a5.953 5.953 0 0 1 4.5-6.066v-.759a5.953 5.953 0 0 1-4.5-6.066v-11.849h-4.5v-2.986Z"/>
    <path fill="#dd5040" d="M597.307 425.797h4v18h-4zm8 0h4v18h-4zm8 0h4v18h-4zm8 0h4v18h-4zm8 0h4v18h-4zm8 0h4v18h-4zm8-42h4v18h-4zm-88 0h4v18h-4zm8 0h4v18h-4zm8 0h4v18h-4zm8 0h4v18h-4zm8 0h4v18h-4zm8 0h4v18h-4zm8 0h4v18h-4zm8 0h4v18h-4zm8 0h4v18h-4zm8 0h4v18h-4zm8 0h4v18h-4z"/>
    <rect width="273.643" height="22.338" x="355.664" y="340.087" fill="#6eceb2" rx="8"/>
    <rect width="111.691" height="50.261" x="453.394" y="245.15" fill="#6a93d7" rx="18"/>
    <g fill="none" stroke="#002684" stroke-miterlimit="10" stroke-width="3">
      <path d="M87.606 183.72h402.087v279.227H87.606zm0 19.546h402.087"/>
      <circle cx="100.172" cy="193.493" r="1.396"/>
      <circle cx="114.133" cy="193.493" r="1.396"/>
      <circle cx="128.094" cy="193.493" r="1.396"/>
      <path d="M176.959 203.266v259.681m13.961-245.72h147.991m-136.821 11.17h120.067M202.09 239.566h83.768m-72.599 11.169H313.78m-111.69 11.169h27.922m-39.092 11.169h5.585m-5.585 13.961h83.769m-83.769 11.169h97.73m-86.56 11.169h61.43m-61.43 11.169h61.43m-50.261 11.17h39.091m-39.091 11.169h58.637m-69.806 11.169h39.091m-50.261 11.169h27.923"/>
    </g>
    <g fill="#6a93d7">
      <path d="m54.1 158.59 2.792-2.793 13.96 13.961-2.792 2.793z"/>
      <path d="m56.892 172.55-2.793-2.792 13.961-13.96 2.793 2.792zm25.129-13.96 2.793-2.793 13.96 13.962-2.792 2.792z"/>
      <path d="m84.815 172.552-2.793-2.793 13.962-13.96 2.792 2.792zm25.13-13.962 2.792-2.793 13.961 13.961-2.792 2.792z"/>
      <path d="m112.737 172.551-2.792-2.792 13.961-13.961 2.792 2.792zm22.337-13.961 2.793-2.793 13.96 13.961-2.792 2.793z"/>
      <path d="m137.868 172.552-2.793-2.793 13.961-13.96 2.793 2.792z"/>
    </g>
    <g fill="#002684">
      <path d="m51.307 161.382 2.792-2.793 13.961 13.962-2.792 2.792z"/>
      <path d="m54.099 175.344-2.793-2.792 13.962-13.961 2.792 2.792zm25.131-13.962 2.792-2.792 13.96 13.961-2.792 2.792z"/>
      <path d="m82.021 175.344-2.792-2.793 13.961-13.96 2.792 2.792zm25.132-13.962 2.792-2.793 13.961 13.961-2.792 2.793z"/>
      <path d="m109.944 175.343-2.793-2.792 13.961-13.961 2.793 2.792zm22.338-13.961 2.793-2.792 13.96 13.96-2.792 2.793z"/>
      <path d="m135.075 175.344-2.792-2.793 13.96-13.96 2.793 2.792z"/>
    </g>
    <g fill="#002684">
      <rect width="3.866" height="3.866" x="447.809" y="250.735" rx="1.385"/>
      <rect width="3.866" height="3.866" x="463.274" y="250.735" rx="1.385"/>
      <rect width="3.866" height="3.866" x="478.739" y="250.735" rx="1.385"/>
      <rect width="3.866" height="3.866" x="494.204" y="250.735" rx="1.385"/>
      <rect width="3.866" height="3.866" x="447.809" y="266.2" rx="1.385"/>
      <rect width="3.866" height="3.866" x="463.274" y="266.2" rx="1.385"/>
      <rect width="3.866" height="3.866" x="478.739" y="266.2" rx="1.385"/>
      <rect width="3.866" height="3.866" x="494.204" y="266.2" rx="1.385"/>
      <rect width="3.866" height="3.866" x="447.809" y="281.664" rx="1.385"/>
      <rect width="3.866" height="3.866" x="463.274" y="281.664" rx="1.385"/>
      <rect width="3.866" height="3.866" x="478.739" y="281.664" rx="1.385"/>
      <rect width="3.866" height="3.866" x="494.204" y="281.664" rx="1.385"/>
      <rect width="3.866" height="3.866" x="447.809" y="297.129" rx="1.385"/>
      <rect width="3.866" height="3.866" x="463.274" y="297.129" rx="1.385"/>
      <rect width="3.866" height="3.866" x="478.739" y="297.129" rx="1.385"/>
      <rect width="3.866" height="3.866" x="494.204" y="297.129" rx="1.385"/>
      <rect width="3.866" height="3.866" x="509.669" y="250.735" rx="1.385"/>
      <rect width="3.866" height="3.866" x="525.134" y="250.735" rx="1.385"/>
      <rect width="3.866" height="3.866" x="540.599" y="250.735" rx="1.385"/>
      <rect width="3.866" height="3.866" x="556.064" y="250.735" rx="1.385"/>
      <rect width="3.866" height="3.866" x="509.669" y="266.2" rx="1.385"/>
      <rect width="3.866" height="3.866" x="525.134" y="266.2" rx="1.385"/>
      <rect width="3.866" height="3.866" x="540.599" y="266.2" rx="1.385"/>
      <rect width="3.866" height="3.866" x="556.064" y="266.2" rx="1.385"/>
      <rect width="3.866" height="3.866" x="509.669" y="281.664" rx="1.385"/>
      <rect width="3.866" height="3.866" x="525.134" y="281.664" rx="1.385"/>
      <rect width="3.866" height="3.866" x="540.599" y="281.664" rx="1.385"/>
      <rect width="3.866" height="3.866" x="556.064" y="281.664" rx="1.385"/>
      <rect width="3.866" height="3.866" x="509.669" y="297.129" rx="1.385"/>
      <rect width="3.866" height="3.866" x="525.134" y="297.129" rx="1.385"/>
      <rect width="3.866" height="3.866" x="540.599" y="297.129" rx="1.385"/>
      <rect width="3.866" height="3.866" x="556.064" y="297.129" rx="1.385"/>
    </g>
    <circle cx="478.524" cy="437.817" r="58.638" fill="#eea209"/>
    <circle cx="470.148" cy="445.481" r="58.638" fill="none" stroke="#002684" stroke-miterlimit="10" stroke-width="3"/>
    <path fill="none" stroke="#002684" stroke-miterlimit="10" stroke-width="3" d="m495.278 499.247 55.845 86.56 13.962-8.377-55.846-86.56"/>
    <path fill="#002684" d="m447.809 446.194 16.754 16.753 33.507-33.507-5.584-5.585-27.923 27.923-11.169-11.169-5.585 5.585z"/>
    <path fill="#fff" d="M380.795 342.88h2.792v22.338h-2.792zm92.145 0h2.792v22.338h-2.792zm-83.768 0h2.792v22.338h-2.792zm92.145 0h2.792v22.338h-2.792zm-83.768 0h2.792v22.338h-2.792zm92.144 0h2.792v22.338h-2.792zm-83.768 0h2.792v22.338h-2.792zm92.145 0h2.792v22.338h-2.792zm-83.768 0h2.792v22.338h-2.792zm92.145 0h2.792v22.338h-2.792zm-83.768 0h2.792v22.338h-2.792zm8.377 0h2.792v22.338h-2.792zm8.377 0h2.792v22.338h-2.792zm-67.015 0h2.792v22.338h-2.792zm75.391 0h2.792v22.338h-2.792zm67.015 0h2.792v22.338h-2.792zm-58.638 0h2.792v22.338h-2.792zm8.377 0h2.792v22.338h-2.792z"/>
    <path fill="#eea209" d="M22.307 231.797h152v4h-152zm0 8h152v4h-152zm0 8h152v4h-152zm0 8h152v4h-152zm0 8h152v4h-152zm0 8h152v4h-152zm0 8h152v4h-152zm0 8h152v4h-152zm0 8h152v4h-152zm0 8h152v4h-152zm0 8h152v4h-152zm0 8h152v4h-152z"/>
  </g>
</svg>
