<svg xmlns="http://www.w3.org/2000/svg" viewBox="0 0 672 672">
  <g id="f7c38bd9-fdbd-46df-8548-84d428815af3" data-name="Layer 8">
    <g>
      <g>
        <g>
          <g>
            <rect x="37.894" y="87.164" width="4.577" height="4.577" rx="1.385" fill="#6a93d7"/>
            <rect x="56.204" y="87.164" width="4.577" height="4.577" rx="1.385" fill="#6a93d7"/>
            <rect x="74.513" y="87.164" width="4.577" height="4.577" rx="1.385" fill="#6a93d7"/>
            <rect x="92.823" y="87.164" width="4.577" height="4.577" rx="1.385" fill="#6a93d7"/>
            <rect x="37.894" y="105.474" width="4.577" height="4.577" rx="1.385" fill="#6a93d7"/>
            <rect x="56.204" y="105.474" width="4.577" height="4.577" rx="1.385" fill="#6a93d7"/>
            <rect x="74.513" y="105.474" width="4.577" height="4.577" rx="1.385" fill="#6a93d7"/>
            <rect x="92.823" y="105.474" width="4.577" height="4.577" rx="1.385" fill="#6a93d7"/>
            <rect x="37.894" y="123.784" width="4.577" height="4.577" rx="1.385" fill="#6a93d7"/>
            <rect x="56.204" y="123.784" width="4.577" height="4.577" rx="1.385" fill="#6a93d7"/>
            <rect x="74.513" y="123.784" width="4.577" height="4.577" rx="1.385" fill="#6a93d7"/>
            <rect x="92.823" y="123.784" width="4.577" height="4.577" rx="1.385" fill="#6a93d7"/>
            <rect x="37.894" y="142.093" width="4.577" height="4.577" rx="1.385" fill="#6a93d7"/>
            <rect x="56.204" y="142.093" width="4.577" height="4.577" rx="1.385" fill="#6a93d7"/>
            <rect x="74.513" y="142.093" width="4.577" height="4.577" rx="1.385" fill="#6a93d7"/>
            <rect x="92.823" y="142.093" width="4.577" height="4.577" rx="1.385" fill="#6a93d7"/>
            <rect x="111.133" y="87.164" width="4.577" height="4.577" rx="1.385" fill="#6a93d7"/>
            <rect x="129.443" y="87.164" width="4.577" height="4.577" rx="1.385" fill="#6a93d7"/>
            <rect x="147.753" y="87.164" width="4.577" height="4.577" rx="1.385" fill="#6a93d7"/>
            <rect x="166.062" y="87.164" width="4.577" height="4.577" rx="1.385" fill="#6a93d7"/>
            <rect x="111.133" y="105.474" width="4.577" height="4.577" rx="1.385" fill="#6a93d7"/>
            <rect x="129.443" y="105.474" width="4.577" height="4.577" rx="1.385" fill="#6a93d7"/>
            <rect x="147.753" y="105.474" width="4.577" height="4.577" rx="1.385" fill="#6a93d7"/>
            <rect x="166.062" y="105.474" width="4.577" height="4.577" rx="1.385" fill="#6a93d7"/>
            <rect x="111.133" y="123.784" width="4.577" height="4.577" rx="1.385" fill="#6a93d7"/>
            <rect x="129.443" y="123.784" width="4.577" height="4.577" rx="1.385" fill="#6a93d7"/>
            <rect x="147.753" y="123.784" width="4.577" height="4.577" rx="1.385" fill="#6a93d7"/>
            <rect x="166.062" y="123.784" width="4.577" height="4.577" rx="1.385" fill="#6a93d7"/>
            <rect x="111.133" y="142.093" width="4.577" height="4.577" rx="1.385" fill="#6a93d7"/>
            <rect x="129.443" y="142.093" width="4.577" height="4.577" rx="1.385" fill="#6a93d7"/>
            <rect x="147.753" y="142.093" width="4.577" height="4.577" rx="1.385" fill="#6a93d7"/>
            <rect x="166.062" y="142.093" width="4.577" height="4.577" rx="1.385" fill="#6a93d7"/>
          </g>
          <g>
            <rect x="182.503" y="87.164" width="4.577" height="4.577" rx="1.385" fill="#6a93d7"/>
            <rect x="200.813" y="87.164" width="4.577" height="4.577" rx="1.385" fill="#6a93d7"/>
            <rect x="219.123" y="87.164" width="4.577" height="4.577" rx="1.385" fill="#6a93d7"/>
            <rect x="237.432" y="87.164" width="4.577" height="4.577" rx="1.385" fill="#6a93d7"/>
            <rect x="182.503" y="105.474" width="4.577" height="4.577" rx="1.385" fill="#6a93d7"/>
            <rect x="200.813" y="105.474" width="4.577" height="4.577" rx="1.385" fill="#6a93d7"/>
            <rect x="219.123" y="105.474" width="4.577" height="4.577" rx="1.385" fill="#6a93d7"/>
            <rect x="237.432" y="105.474" width="4.577" height="4.577" rx="1.385" fill="#6a93d7"/>
            <rect x="182.503" y="123.784" width="4.577" height="4.577" rx="1.385" fill="#6a93d7"/>
            <rect x="200.813" y="123.784" width="4.577" height="4.577" rx="1.385" fill="#6a93d7"/>
            <rect x="219.123" y="123.784" width="4.577" height="4.577" rx="1.385" fill="#6a93d7"/>
            <rect x="237.432" y="123.784" width="4.577" height="4.577" rx="1.385" fill="#6a93d7"/>
            <rect x="182.503" y="142.093" width="4.577" height="4.577" rx="1.385" fill="#6a93d7"/>
            <rect x="200.813" y="142.093" width="4.577" height="4.577" rx="1.385" fill="#6a93d7"/>
            <rect x="219.123" y="142.093" width="4.577" height="4.577" rx="1.385" fill="#6a93d7"/>
            <rect x="237.432" y="142.093" width="4.577" height="4.577" rx="1.385" fill="#6a93d7"/>
            <rect x="255.742" y="87.164" width="4.577" height="4.577" rx="1.385" fill="#6a93d7"/>
            <rect x="274.052" y="87.164" width="4.577" height="4.577" rx="1.385" fill="#6a93d7"/>
            <rect x="292.362" y="87.164" width="4.577" height="4.577" rx="1.385" fill="#6a93d7"/>
            <rect x="310.672" y="87.164" width="4.577" height="4.577" rx="1.385" fill="#6a93d7"/>
            <rect x="255.742" y="105.474" width="4.577" height="4.577" rx="1.385" fill="#6a93d7"/>
            <rect x="274.052" y="105.474" width="4.577" height="4.577" rx="1.385" fill="#6a93d7"/>
            <rect x="292.362" y="105.474" width="4.577" height="4.577" rx="1.385" fill="#6a93d7"/>
            <rect x="310.672" y="105.474" width="4.577" height="4.577" rx="1.385" fill="#6a93d7"/>
            <rect x="255.742" y="123.784" width="4.577" height="4.577" rx="1.385" fill="#6a93d7"/>
            <rect x="274.052" y="123.784" width="4.577" height="4.577" rx="1.385" fill="#6a93d7"/>
            <rect x="292.362" y="123.784" width="4.577" height="4.577" rx="1.385" fill="#6a93d7"/>
            <rect x="310.672" y="123.784" width="4.577" height="4.577" rx="1.385" fill="#6a93d7"/>
            <rect x="255.742" y="142.093" width="4.577" height="4.577" rx="1.385" fill="#6a93d7"/>
            <rect x="274.052" y="142.093" width="4.577" height="4.577" rx="1.385" fill="#6a93d7"/>
            <rect x="292.362" y="142.093" width="4.577" height="4.577" rx="1.385" fill="#6a93d7"/>
            <rect x="310.672" y="142.093" width="4.577" height="4.577" rx="1.385" fill="#6a93d7"/>
          </g>
        </g>
        <g>
          <g>
            <rect x="37.894" y="160.007" width="4.577" height="4.577" rx="1.385" fill="#6a93d7"/>
            <rect x="56.204" y="160.007" width="4.577" height="4.577" rx="1.385" fill="#6a93d7"/>
            <rect x="74.513" y="160.007" width="4.577" height="4.577" rx="1.385" fill="#6a93d7"/>
            <rect x="92.823" y="160.007" width="4.577" height="4.577" rx="1.385" fill="#6a93d7"/>
            <rect x="37.894" y="178.317" width="4.577" height="4.577" rx="1.385" fill="#6a93d7"/>
            <rect x="56.204" y="178.317" width="4.577" height="4.577" rx="1.385" fill="#6a93d7"/>
            <rect x="74.513" y="178.317" width="4.577" height="4.577" rx="1.385" fill="#6a93d7"/>
            <rect x="92.823" y="178.317" width="4.577" height="4.577" rx="1.385" fill="#6a93d7"/>
            <rect x="37.894" y="196.626" width="4.577" height="4.577" rx="1.385" fill="#6a93d7"/>
            <rect x="56.204" y="196.626" width="4.577" height="4.577" rx="1.385" fill="#6a93d7"/>
            <rect x="74.513" y="196.626" width="4.577" height="4.577" rx="1.385" fill="#6a93d7"/>
            <rect x="92.823" y="196.626" width="4.577" height="4.577" rx="1.385" fill="#6a93d7"/>
            <rect x="37.894" y="214.936" width="4.577" height="4.577" rx="1.385" fill="#6a93d7"/>
            <rect x="56.204" y="214.936" width="4.577" height="4.577" rx="1.385" fill="#6a93d7"/>
            <rect x="74.513" y="214.936" width="4.577" height="4.577" rx="1.385" fill="#6a93d7"/>
            <rect x="92.823" y="214.936" width="4.577" height="4.577" rx="1.385" fill="#6a93d7"/>
            <rect x="111.133" y="160.007" width="4.577" height="4.577" rx="1.385" fill="#6a93d7"/>
            <rect x="129.443" y="160.007" width="4.577" height="4.577" rx="1.385" fill="#6a93d7"/>
            <rect x="147.753" y="160.007" width="4.577" height="4.577" rx="1.385" fill="#6a93d7"/>
            <rect x="166.062" y="160.007" width="4.577" height="4.577" rx="1.385" fill="#6a93d7"/>
            <rect x="111.133" y="178.317" width="4.577" height="4.577" rx="1.385" fill="#6a93d7"/>
            <rect x="129.443" y="178.317" width="4.577" height="4.577" rx="1.385" fill="#6a93d7"/>
            <rect x="147.753" y="178.317" width="4.577" height="4.577" rx="1.385" fill="#6a93d7"/>
            <rect x="166.062" y="178.317" width="4.577" height="4.577" rx="1.385" fill="#6a93d7"/>
            <rect x="111.133" y="196.626" width="4.577" height="4.577" rx="1.385" fill="#6a93d7"/>
            <rect x="129.443" y="196.626" width="4.577" height="4.577" rx="1.385" fill="#6a93d7"/>
            <rect x="147.753" y="196.626" width="4.577" height="4.577" rx="1.385" fill="#6a93d7"/>
            <rect x="166.062" y="196.626" width="4.577" height="4.577" rx="1.385" fill="#6a93d7"/>
            <rect x="111.133" y="214.936" width="4.577" height="4.577" rx="1.385" fill="#6a93d7"/>
            <rect x="129.443" y="214.936" width="4.577" height="4.577" rx="1.385" fill="#6a93d7"/>
            <rect x="147.753" y="214.936" width="4.577" height="4.577" rx="1.385" fill="#6a93d7"/>
            <rect x="166.062" y="214.936" width="4.577" height="4.577" rx="1.385" fill="#6a93d7"/>
          </g>
          <g>
            <rect x="182.503" y="160.007" width="4.577" height="4.577" rx="1.385" fill="#6a93d7"/>
            <rect x="200.813" y="160.007" width="4.577" height="4.577" rx="1.385" fill="#6a93d7"/>
            <rect x="219.123" y="160.007" width="4.577" height="4.577" rx="1.385" fill="#6a93d7"/>
            <rect x="237.432" y="160.007" width="4.577" height="4.577" rx="1.385" fill="#6a93d7"/>
            <rect x="182.503" y="178.317" width="4.577" height="4.577" rx="1.385" fill="#6a93d7"/>
            <rect x="200.813" y="178.317" width="4.577" height="4.577" rx="1.385" fill="#6a93d7"/>
            <rect x="219.123" y="178.317" width="4.577" height="4.577" rx="1.385" fill="#6a93d7"/>
            <rect x="237.432" y="178.317" width="4.577" height="4.577" rx="1.385" fill="#6a93d7"/>
            <rect x="182.503" y="196.626" width="4.577" height="4.577" rx="1.385" fill="#6a93d7"/>
            <rect x="200.813" y="196.626" width="4.577" height="4.577" rx="1.385" fill="#6a93d7"/>
            <rect x="219.123" y="196.626" width="4.577" height="4.577" rx="1.385" fill="#6a93d7"/>
            <rect x="237.432" y="196.626" width="4.577" height="4.577" rx="1.385" fill="#6a93d7"/>
            <rect x="182.503" y="214.936" width="4.577" height="4.577" rx="1.385" fill="#6a93d7"/>
            <rect x="200.813" y="214.936" width="4.577" height="4.577" rx="1.385" fill="#6a93d7"/>
            <rect x="219.123" y="214.936" width="4.577" height="4.577" rx="1.385" fill="#6a93d7"/>
            <rect x="237.432" y="214.936" width="4.577" height="4.577" rx="1.385" fill="#6a93d7"/>
            <rect x="255.742" y="160.007" width="4.577" height="4.577" rx="1.385" fill="#6a93d7"/>
            <rect x="274.052" y="160.007" width="4.577" height="4.577" rx="1.385" fill="#6a93d7"/>
            <rect x="292.362" y="160.007" width="4.577" height="4.577" rx="1.385" fill="#6a93d7"/>
            <rect x="310.672" y="160.007" width="4.577" height="4.577" rx="1.385" fill="#6a93d7"/>
            <rect x="255.742" y="178.317" width="4.577" height="4.577" rx="1.385" fill="#6a93d7"/>
            <rect x="274.052" y="178.317" width="4.577" height="4.577" rx="1.385" fill="#6a93d7"/>
            <rect x="292.362" y="178.317" width="4.577" height="4.577" rx="1.385" fill="#6a93d7"/>
            <rect x="310.672" y="178.317" width="4.577" height="4.577" rx="1.385" fill="#6a93d7"/>
            <rect x="255.742" y="196.626" width="4.577" height="4.577" rx="1.385" fill="#6a93d7"/>
            <rect x="274.052" y="196.626" width="4.577" height="4.577" rx="1.385" fill="#6a93d7"/>
            <rect x="292.362" y="196.626" width="4.577" height="4.577" rx="1.385" fill="#6a93d7"/>
            <rect x="310.672" y="196.626" width="4.577" height="4.577" rx="1.385" fill="#6a93d7"/>
            <rect x="255.742" y="214.936" width="4.577" height="4.577" rx="1.385" fill="#6a93d7"/>
            <rect x="274.052" y="214.936" width="4.577" height="4.577" rx="1.385" fill="#6a93d7"/>
            <rect x="292.362" y="214.936" width="4.577" height="4.577" rx="1.385" fill="#6a93d7"/>
            <rect x="310.672" y="214.936" width="4.577" height="4.577" rx="1.385" fill="#6a93d7"/>
          </g>
        </g>
      </g>
      <g>
        <g>
          <g>
            <rect x="349.559" y="579.745" width="4.577" height="4.577" rx="1.385" transform="translate(-230.185 933.882) rotate(-90)" fill="#eea209"/>
            <rect x="349.559" y="561.435" width="4.577" height="4.577" rx="1.385" transform="translate(-211.875 915.572) rotate(-90)" fill="#eea209"/>
            <rect x="349.559" y="543.125" width="4.577" height="4.577" rx="1.385" transform="translate(-193.566 897.262) rotate(-90)" fill="#eea209"/>
            <rect x="349.559" y="524.815" width="4.577" height="4.577" rx="1.385" transform="translate(-175.256 878.952) rotate(-90)" fill="#eea209"/>
            <rect x="367.869" y="579.745" width="4.577" height="4.577" rx="1.385" transform="translate(-211.875 952.191) rotate(-90)" fill="#eea209"/>
            <rect x="367.869" y="561.435" width="4.577" height="4.577" rx="1.385" transform="translate(-193.566 933.882) rotate(-90)" fill="#eea209"/>
            <rect x="367.869" y="543.125" width="4.577" height="4.577" rx="1.385" transform="translate(-175.256 915.572) rotate(-90)" fill="#eea209"/>
            <rect x="367.869" y="524.815" width="4.577" height="4.577" rx="1.385" transform="translate(-156.946 897.262) rotate(-90)" fill="#eea209"/>
            <rect x="386.179" y="579.745" width="4.577" height="4.577" rx="1.385" transform="translate(-193.566 970.501) rotate(-90)" fill="#eea209"/>
            <rect x="386.179" y="561.435" width="4.577" height="4.577" rx="1.385" transform="translate(-175.256 952.191) rotate(-90)" fill="#eea209"/>
            <rect x="386.179" y="543.125" width="4.577" height="4.577" rx="1.385" transform="translate(-156.946 933.882) rotate(-90)" fill="#eea209"/>
            <rect x="386.179" y="524.815" width="4.577" height="4.577" rx="1.385" transform="translate(-138.636 915.572) rotate(-90)" fill="#eea209"/>
            <rect x="404.489" y="579.745" width="4.577" height="4.577" rx="1.385" transform="translate(-175.256 988.811) rotate(-90)" fill="#eea209"/>
            <rect x="404.489" y="561.435" width="4.577" height="4.577" rx="1.385" transform="translate(-156.946 970.501) rotate(-90)" fill="#eea209"/>
            <rect x="404.489" y="543.125" width="4.577" height="4.577" rx="1.385" transform="translate(-138.636 952.191) rotate(-90)" fill="#eea209"/>
            <rect x="404.489" y="524.815" width="4.577" height="4.577" rx="1.385" transform="matrix(0, -1, 1, 0, -120.326, 933.882)" fill="#eea209"/>
            <rect x="349.559" y="506.506" width="4.577" height="4.577" rx="1.385" transform="translate(-156.946 860.642) rotate(-90)" fill="#eea209"/>
            <rect x="349.559" y="488.196" width="4.577" height="4.577" rx="1.385" transform="translate(-138.636 842.333) rotate(-90)" fill="#eea209"/>
            <rect x="349.559" y="469.886" width="4.577" height="4.577" rx="1.385" transform="matrix(0, -1, 1, 0, -120.327, 824.023)" fill="#eea209"/>
            <rect x="349.559" y="451.576" width="4.577" height="4.577" rx="1.385" transform="translate(-102.017 805.713) rotate(-90)" fill="#eea209"/>
            <rect x="367.869" y="506.506" width="4.577" height="4.577" rx="1.385" transform="translate(-138.636 878.952) rotate(-90)" fill="#eea209"/>
            <rect x="367.869" y="488.196" width="4.577" height="4.577" rx="1.385" transform="translate(-120.327 860.642) rotate(-90)" fill="#eea209"/>
            <rect x="367.869" y="469.886" width="4.577" height="4.577" rx="1.385" transform="translate(-102.017 842.333) rotate(-90)" fill="#eea209"/>
            <rect x="367.869" y="451.576" width="4.577" height="4.577" rx="1.385" transform="translate(-83.707 824.023) rotate(-90)" fill="#eea209"/>
            <rect x="386.179" y="506.506" width="4.577" height="4.577" rx="1.385" transform="translate(-120.327 897.262) rotate(-90)" fill="#eea209"/>
            <rect x="386.179" y="488.196" width="4.577" height="4.577" rx="1.385" transform="translate(-102.017 878.952) rotate(-90)" fill="#eea209"/>
            <rect x="386.179" y="469.886" width="4.577" height="4.577" rx="1.385" transform="translate(-83.707 860.642) rotate(-90)" fill="#eea209"/>
            <rect x="386.179" y="451.576" width="4.577" height="4.577" rx="1.385" transform="translate(-65.397 842.333) rotate(-90)" fill="#eea209"/>
            <rect x="404.489" y="506.505" width="4.577" height="4.577" rx="1.385" transform="translate(-102.017 915.572) rotate(-90)" fill="#eea209"/>
            <rect x="404.489" y="488.196" width="4.577" height="4.577" rx="1.385" transform="translate(-83.707 897.262) rotate(-90)" fill="#eea209"/>
            <rect x="404.489" y="469.886" width="4.577" height="4.577" rx="1.385" transform="translate(-65.397 878.952) rotate(-90)" fill="#eea209"/>
            <rect x="404.489" y="451.576" width="4.577" height="4.577" rx="1.385" transform="translate(-47.087 860.642) rotate(-90)" fill="#eea209"/>
          </g>
          <g>
            <rect x="349.559" y="435.135" width="4.577" height="4.577" rx="1.385" transform="translate(-85.576 789.272) rotate(-90)" fill="#eea209"/>
            <rect x="349.559" y="416.826" width="4.577" height="4.577" rx="1.385" transform="translate(-67.266 770.962) rotate(-90)" fill="#eea209"/>
            <rect x="349.559" y="398.516" width="4.577" height="4.577" rx="1.385" transform="translate(-48.956 752.653) rotate(-90)" fill="#eea209"/>
            <rect x="349.559" y="380.206" width="4.577" height="4.577" rx="1.385" transform="translate(-30.647 734.343) rotate(-90)" fill="#eea209"/>
            <rect x="367.869" y="435.135" width="4.577" height="4.577" rx="1.385" transform="translate(-67.266 807.582) rotate(-90)" fill="#eea209"/>
            <rect x="367.869" y="416.826" width="4.577" height="4.577" rx="1.385" transform="translate(-48.956 789.272) rotate(-90)" fill="#eea209"/>
            <rect x="367.869" y="398.516" width="4.577" height="4.577" rx="1.385" transform="translate(-30.647 770.962) rotate(-90)" fill="#eea209"/>
            <rect x="367.869" y="380.206" width="4.577" height="4.577" rx="1.385" transform="translate(-12.337 752.653) rotate(-90)" fill="#eea209"/>
            <rect x="386.179" y="435.135" width="4.577" height="4.577" rx="1.385" transform="translate(-48.956 825.892) rotate(-90)" fill="#eea209"/>
            <rect x="386.179" y="416.826" width="4.577" height="4.577" rx="1.385" transform="translate(-30.647 807.582) rotate(-90)" fill="#eea209"/>
            <rect x="386.179" y="398.516" width="4.577" height="4.577" rx="1.385" transform="translate(-12.337 789.272) rotate(-90)" fill="#eea209"/>
            <rect x="386.179" y="380.206" width="4.577" height="4.577" rx="1.385" transform="translate(5.973 770.962) rotate(-90)" fill="#eea209"/>
            <rect x="404.489" y="435.135" width="4.577" height="4.577" rx="1.385" transform="translate(-30.647 844.202) rotate(-90)" fill="#eea209"/>
            <rect x="404.489" y="416.826" width="4.577" height="4.577" rx="1.385" transform="translate(-12.337 825.892) rotate(-90)" fill="#eea209"/>
            <rect x="404.489" y="398.516" width="4.577" height="4.577" rx="1.385" transform="translate(5.973 807.582) rotate(-90)" fill="#eea209"/>
            <rect x="404.489" y="380.206" width="4.577" height="4.577" rx="1.385" transform="matrix(0, -1, 1, 0, 24.283, 789.272)" fill="#eea209"/>
            <rect x="349.559" y="361.896" width="4.577" height="4.577" rx="1.385" transform="translate(-12.337 716.033) rotate(-90)" fill="#eea209"/>
            <rect x="349.559" y="343.587" width="4.577" height="4.577" rx="1.385" transform="translate(5.973 697.723) rotate(-90)" fill="#eea209"/>
            <rect x="349.559" y="325.277" width="4.577" height="4.577" rx="1.385" transform="matrix(0, -1, 1, 0, 24.283, 679.414)" fill="#eea209"/>
            <rect x="349.559" y="306.967" width="4.577" height="4.577" rx="1.385" transform="translate(42.592 661.104) rotate(-90)" fill="#eea209"/>
            <rect x="367.869" y="361.896" width="4.577" height="4.577" rx="1.385" transform="translate(5.973 734.343) rotate(-90)" fill="#eea209"/>
            <rect x="367.869" y="343.587" width="4.577" height="4.577" rx="1.385" transform="translate(24.283 716.033) rotate(-90)" fill="#eea209"/>
            <rect x="367.869" y="325.277" width="4.577" height="4.577" rx="1.385" transform="translate(42.592 697.723) rotate(-90)" fill="#eea209"/>
            <rect x="367.869" y="306.967" width="4.577" height="4.577" rx="1.385" transform="translate(60.902 679.414) rotate(-90)" fill="#eea209"/>
            <rect x="386.179" y="361.896" width="4.577" height="4.577" rx="1.385" transform="translate(24.283 752.653) rotate(-90)" fill="#eea209"/>
            <rect x="386.179" y="343.587" width="4.577" height="4.577" rx="1.385" transform="translate(42.592 734.343) rotate(-90)" fill="#eea209"/>
            <rect x="386.179" y="325.277" width="4.577" height="4.577" rx="1.385" transform="translate(60.902 716.033) rotate(-90)" fill="#eea209"/>
            <rect x="386.179" y="306.967" width="4.577" height="4.577" rx="1.385" transform="translate(79.212 697.723) rotate(-90)" fill="#eea209"/>
            <rect x="404.489" y="361.896" width="4.577" height="4.577" rx="1.385" transform="translate(42.592 770.962) rotate(-90)" fill="#eea209"/>
            <rect x="404.489" y="343.587" width="4.577" height="4.577" rx="1.385" transform="translate(60.902 752.653) rotate(-90)" fill="#eea209"/>
            <rect x="404.489" y="325.277" width="4.577" height="4.577" rx="1.385" transform="translate(79.212 734.343) rotate(-90)" fill="#eea209"/>
            <rect x="404.489" y="306.967" width="4.577" height="4.577" rx="1.385" transform="translate(97.522 716.033) rotate(-90)" fill="#eea209"/>
          </g>
        </g>
        <g>
          <g>
            <rect x="422.402" y="579.745" width="4.577" height="4.577" rx="1.385" transform="translate(-157.342 1006.724) rotate(-90)" fill="#eea209"/>
            <rect x="422.402" y="561.435" width="4.577" height="4.577" rx="1.385" transform="translate(-139.033 988.415) rotate(-90)" fill="#eea209"/>
            <rect x="422.402" y="543.125" width="4.577" height="4.577" rx="1.385" transform="translate(-120.723 970.105) rotate(-90)" fill="#eea209"/>
            <rect x="422.402" y="524.815" width="4.577" height="4.577" rx="1.385" transform="translate(-102.413 951.795) rotate(-90)" fill="#eea209"/>
            <rect x="440.712" y="579.745" width="4.577" height="4.577" rx="1.385" transform="translate(-139.033 1025.034) rotate(-90)" fill="#eea209"/>
            <rect x="440.712" y="561.435" width="4.577" height="4.577" rx="1.385" transform="translate(-120.723 1006.724) rotate(-90)" fill="#eea209"/>
            <rect x="440.712" y="543.125" width="4.577" height="4.577" rx="1.385" transform="translate(-102.413 988.415) rotate(-90)" fill="#eea209"/>
            <rect x="440.712" y="524.815" width="4.577" height="4.577" rx="1.385" transform="translate(-84.103 970.105) rotate(-90)" fill="#eea209"/>
            <rect x="459.022" y="579.745" width="4.577" height="4.577" rx="1.385" transform="translate(-120.723 1043.344) rotate(-90)" fill="#eea209"/>
            <rect x="459.022" y="561.435" width="4.577" height="4.577" rx="1.385" transform="translate(-102.413 1025.034) rotate(-90)" fill="#eea209"/>
            <rect x="459.022" y="543.125" width="4.577" height="4.577" rx="1.385" transform="translate(-84.103 1006.724) rotate(-90)" fill="#eea209"/>
            <rect x="459.022" y="524.815" width="4.577" height="4.577" rx="1.385" transform="translate(-65.793 988.415) rotate(-90)" fill="#eea209"/>
            <rect x="477.331" y="579.745" width="4.577" height="4.577" rx="1.385" transform="translate(-102.413 1061.654) rotate(-90)" fill="#eea209"/>
            <rect x="477.331" y="561.435" width="4.577" height="4.577" rx="1.385" transform="translate(-84.103 1043.344) rotate(-90)" fill="#eea209"/>
            <rect x="477.331" y="543.125" width="4.577" height="4.577" rx="1.385" transform="translate(-65.793 1025.034) rotate(-90)" fill="#eea209"/>
            <rect x="477.331" y="524.815" width="4.577" height="4.577" rx="1.385" transform="matrix(0, -1, 1, 0, -47.484, 1006.724)" fill="#eea209"/>
            <rect x="422.402" y="506.506" width="4.577" height="4.577" rx="1.385" transform="translate(-84.103 933.485) rotate(-90)" fill="#eea209"/>
            <rect x="422.402" y="488.196" width="4.577" height="4.577" rx="1.385" transform="translate(-65.793 915.175) rotate(-90)" fill="#eea209"/>
            <rect x="422.402" y="469.886" width="4.577" height="4.577" rx="1.385" transform="matrix(0, -1, 1, 0, -47.484, 896.866)" fill="#eea209"/>
            <rect x="422.402" y="451.576" width="4.577" height="4.577" rx="1.385" transform="translate(-29.174 878.556) rotate(-90)" fill="#eea209"/>
            <rect x="440.712" y="506.506" width="4.577" height="4.577" rx="1.385" transform="translate(-65.793 951.795) rotate(-90)" fill="#eea209"/>
            <rect x="440.712" y="488.196" width="4.577" height="4.577" rx="1.385" transform="translate(-47.484 933.485) rotate(-90)" fill="#eea209"/>
            <rect x="440.712" y="469.886" width="4.577" height="4.577" rx="1.385" transform="translate(-29.174 915.175) rotate(-90)" fill="#eea209"/>
            <rect x="440.712" y="451.576" width="4.577" height="4.577" rx="1.385" transform="translate(-10.864 896.866) rotate(-90)" fill="#eea209"/>
            <rect x="459.022" y="506.506" width="4.577" height="4.577" rx="1.385" transform="translate(-47.484 970.105) rotate(-90)" fill="#eea209"/>
            <rect x="459.022" y="488.196" width="4.577" height="4.577" rx="1.385" transform="translate(-29.174 951.795) rotate(-90)" fill="#eea209"/>
            <rect x="459.022" y="469.886" width="4.577" height="4.577" rx="1.385" transform="translate(-10.864 933.485) rotate(-90)" fill="#eea209"/>
            <rect x="459.022" y="451.576" width="4.577" height="4.577" rx="1.385" transform="translate(7.446 915.175) rotate(-90)" fill="#eea209"/>
            <rect x="477.331" y="506.505" width="4.577" height="4.577" rx="1.385" transform="translate(-29.174 988.415) rotate(-90)" fill="#eea209"/>
            <rect x="477.331" y="488.196" width="4.577" height="4.577" rx="1.385" transform="translate(-10.864 970.105) rotate(-90)" fill="#eea209"/>
            <rect x="477.331" y="469.886" width="4.577" height="4.577" rx="1.385" transform="translate(7.446 951.795) rotate(-90)" fill="#eea209"/>
            <rect x="477.331" y="451.576" width="4.577" height="4.577" rx="1.385" transform="translate(25.755 933.485) rotate(-90)" fill="#eea209"/>
          </g>
          <g>
            <rect x="422.402" y="435.135" width="4.577" height="4.577" rx="1.385" transform="translate(-12.733 862.115) rotate(-90)" fill="#eea209"/>
            <rect x="422.402" y="416.826" width="4.577" height="4.577" rx="1.385" transform="translate(5.577 843.805) rotate(-90)" fill="#eea209"/>
            <rect x="422.402" y="398.516" width="4.577" height="4.577" rx="1.385" transform="translate(23.886 825.496) rotate(-90)" fill="#eea209"/>
            <rect x="422.402" y="380.206" width="4.577" height="4.577" rx="1.385" transform="translate(42.196 807.186) rotate(-90)" fill="#eea209"/>
            <rect x="440.712" y="435.135" width="4.577" height="4.577" rx="1.385" transform="translate(5.577 880.425) rotate(-90)" fill="#eea209"/>
            <rect x="440.712" y="416.826" width="4.577" height="4.577" rx="1.385" transform="translate(23.886 862.115) rotate(-90)" fill="#eea209"/>
            <rect x="440.712" y="398.516" width="4.577" height="4.577" rx="1.385" transform="translate(42.196 843.805) rotate(-90)" fill="#eea209"/>
            <rect x="440.712" y="380.206" width="4.577" height="4.577" rx="1.385" transform="translate(60.506 825.496) rotate(-90)" fill="#eea209"/>
            <rect x="459.022" y="435.135" width="4.577" height="4.577" rx="1.385" transform="translate(23.886 898.735) rotate(-90)" fill="#eea209"/>
            <rect x="459.022" y="416.826" width="4.577" height="4.577" rx="1.385" transform="translate(42.196 880.425) rotate(-90)" fill="#eea209"/>
            <rect x="459.022" y="398.516" width="4.577" height="4.577" rx="1.385" transform="translate(60.506 862.115) rotate(-90)" fill="#eea209"/>
            <rect x="459.022" y="380.206" width="4.577" height="4.577" rx="1.385" transform="translate(78.816 843.805) rotate(-90)" fill="#eea209"/>
            <rect x="477.331" y="435.135" width="4.577" height="4.577" rx="1.385" transform="translate(42.196 917.044) rotate(-90)" fill="#eea209"/>
            <rect x="477.331" y="416.826" width="4.577" height="4.577" rx="1.385" transform="translate(60.506 898.735) rotate(-90)" fill="#eea209"/>
            <rect x="477.331" y="398.516" width="4.577" height="4.577" rx="1.385" transform="translate(78.816 880.425) rotate(-90)" fill="#eea209"/>
            <rect x="477.331" y="380.206" width="4.577" height="4.577" rx="1.385" transform="matrix(0, -1, 1, 0, 97.126, 862.115)" fill="#eea209"/>
            <rect x="422.402" y="361.896" width="4.577" height="4.577" rx="1.385" transform="translate(60.506 788.876) rotate(-90)" fill="#eea209"/>
            <rect x="422.402" y="343.587" width="4.577" height="4.577" rx="1.385" transform="translate(78.816 770.566) rotate(-90)" fill="#eea209"/>
            <rect x="422.402" y="325.277" width="4.577" height="4.577" rx="1.385" transform="matrix(0, -1, 1, 0, 97.125, 752.256)" fill="#eea209"/>
            <rect x="422.402" y="306.967" width="4.577" height="4.577" rx="1.385" transform="translate(115.435 733.947) rotate(-90)" fill="#eea209"/>
            <rect x="440.712" y="361.896" width="4.577" height="4.577" rx="1.385" transform="translate(78.816 807.186) rotate(-90)" fill="#eea209"/>
            <rect x="440.712" y="343.587" width="4.577" height="4.577" rx="1.385" transform="translate(97.125 788.876) rotate(-90)" fill="#eea209"/>
            <rect x="440.712" y="325.277" width="4.577" height="4.577" rx="1.385" transform="translate(115.435 770.566) rotate(-90)" fill="#eea209"/>
            <rect x="440.712" y="306.967" width="4.577" height="4.577" rx="1.385" transform="translate(133.745 752.256) rotate(-90)" fill="#eea209"/>
            <rect x="459.022" y="361.896" width="4.577" height="4.577" rx="1.385" transform="translate(97.126 825.496) rotate(-90)" fill="#eea209"/>
            <rect x="459.022" y="343.587" width="4.577" height="4.577" rx="1.385" transform="translate(115.435 807.186) rotate(-90)" fill="#eea209"/>
            <rect x="459.022" y="325.277" width="4.577" height="4.577" rx="1.385" transform="translate(133.745 788.876) rotate(-90)" fill="#eea209"/>
            <rect x="459.022" y="306.967" width="4.577" height="4.577" rx="1.385" transform="translate(152.055 770.566) rotate(-90)" fill="#eea209"/>
            <rect x="477.331" y="361.896" width="4.577" height="4.577" rx="1.385" transform="translate(115.435 843.805) rotate(-90)" fill="#eea209"/>
            <rect x="477.331" y="343.587" width="4.577" height="4.577" rx="1.385" transform="translate(133.745 825.495) rotate(-90)" fill="#eea209"/>
            <rect x="477.331" y="325.277" width="4.577" height="4.577" rx="1.385" transform="translate(152.055 807.186) rotate(-90)" fill="#eea209"/>
            <rect x="477.331" y="306.967" width="4.577" height="4.577" rx="1.385" transform="translate(170.365 788.876) rotate(-90)" fill="#eea209"/>
          </g>
        </g>
      </g>
      <rect x="132.054" y="256.622" width="289.341" height="144.31" rx="5.006" fill="#6eceb2"/>
      <rect x="172.153" y="288.572" width="15.8" height="80.132" transform="translate(360.106 657.275) rotate(180)" fill="#6a93d7"/>
      <rect x="204.193" y="288.633" width="15.8" height="80.132" transform="translate(424.185 657.397) rotate(180)" fill="#6a93d7"/>
      <rect x="268.176" y="288.418" width="15.8" height="80.132" transform="translate(552.152 656.967) rotate(180)" fill="#6a93d7"/>
      <rect x="300.293" y="288.335" width="15.8" height="80.132" transform="translate(616.386 656.801) rotate(180)" fill="#6a93d7"/>
      <rect x="332.12" y="288.396" width="15.8" height="80.132" transform="translate(680.04 656.923) rotate(180)" fill="#6a93d7"/>
      <rect x="396.107" y="288.571" width="15.8" height="80.132" transform="translate(808.013 657.273) rotate(180)" fill="#6a93d7"/>
      <rect x="492.563" y="246.637" width="15.8" height="80.132" transform="translate(1000.926 573.406) rotate(180)" fill="#6a93d7"/>
      <rect x="431.918" y="288.593" width="15.8" height="80.132" transform="translate(879.635 657.318) rotate(180)" fill="#6a93d7"/>
      <rect x="557.019" y="329.757" width="15.8" height="80.132" transform="translate(1129.838 739.645) rotate(180)" fill="#6a93d7"/>
      <rect x="592.042" y="287.836" width="15.8" height="80.132" transform="translate(1199.884 655.804) rotate(180)" fill="#6a93d7"/>
      <rect x="528.311" y="288.972" width="15.8" height="80.132" transform="translate(1072.422 658.075) rotate(180)" fill="#6a93d7"/>
      <rect x="428.121" y="288.547" width="15.8" height="80.132" transform="translate(872.041 657.226) rotate(180)" fill="none" stroke="#002684" stroke-miterlimit="10" stroke-width="3"/>
      <rect x="492.104" y="243.35" width="15.8" height="80.132" transform="translate(1000.008 566.832) rotate(180)" fill="none" stroke="#002684" stroke-miterlimit="10" stroke-width="3"/>
      <rect x="524.144" y="288.547" width="15.8" height="80.132" transform="translate(1064.088 657.226) rotate(180)" fill="none" stroke="#002684" stroke-miterlimit="10" stroke-width="3"/>
      <rect x="556.261" y="333.697" width="15.8" height="80.132" transform="translate(1128.322 747.525) rotate(180)" fill="none" stroke="#002684" stroke-miterlimit="10" stroke-width="3"/>
      <rect x="587.999" y="288.693" width="15.8" height="80.132" transform="translate(1191.797 657.518) rotate(180)" fill="none" stroke="#002684" stroke-miterlimit="10" stroke-width="3"/>
      <rect x="76.224" y="288.335" width="15.8" height="80.132" transform="translate(168.248 656.801) rotate(180)" fill="#002684"/>
      <rect x="108.147" y="288.335" width="15.8" height="80.132" transform="translate(232.094 656.801) rotate(180)" fill="#002684"/>
      <rect x="427.977" y="184.175" width="144.081" height="56.566" rx="3.869" fill="#dd5040"/>
      <path d="M495.919,416.724H610.087a0,0,0,0,1,0,0v55.745a0,0,0,0,1,0,0H495.919a3.869,3.869,0,0,1-3.869-3.869V420.592A3.869,3.869,0,0,1,495.919,416.724Z" fill="#eea209"/>
      <line x1="60.134" y1="392.572" x2="68.284" y2="392.572" fill="none" stroke="#dd5040" stroke-miterlimit="10"/>
      <line x1="75.842" y1="392.449" x2="196.033" y2="392.449" fill="none" stroke="#dd5040" stroke-miterlimit="10"/>
      <line x1="204.172" y1="392.449" x2="300.216" y2="392.449" fill="none" stroke="#dd5040" stroke-miterlimit="10"/>
      <line x1="107.773" y1="312.416" x2="147.602" y2="312.416" fill="none" stroke="#dd5040" stroke-miterlimit="10"/>
      <line x1="155.849" y1="312.592" x2="172.078" y2="312.592" fill="none" stroke="#dd5040" stroke-miterlimit="10"/>
      <line x1="179.829" y1="312.592" x2="355.927" y2="312.592" fill="none" stroke="#dd5040" stroke-miterlimit="10"/>
      <line x1="211.887" y1="344.573" x2="436.326" y2="344.573" fill="none" stroke="#dd5040" stroke-miterlimit="10"/>
      <line x1="444.117" y1="344.462" x2="500.165" y2="344.462" fill="none" stroke="#dd5040" stroke-miterlimit="10"/>
      <line x1="516.039" y1="264.336" x2="516.039" y2="280.602" fill="none" stroke="#dd5040" stroke-miterlimit="10"/>
      <polyline points="516.039 288.955 516.104 344.565 523.858 344.565" fill="none" stroke="#dd5040" stroke-miterlimit="10"/>
      <line x1="532.196" y1="344.627" x2="580.244" y2="344.628" fill="none" stroke="#dd5040" stroke-miterlimit="10"/>
      <line x1="579.98" y1="408.621" x2="579.98" y2="384.656" fill="none" stroke="#dd5040" stroke-miterlimit="10"/>
      <polyline points="579.98 376.593 579.98 368.641 636.101 368.807" fill="none" stroke="#dd5040" stroke-miterlimit="10"/>
      <rect x="76.053" y="176.733" width="273.643" height="22.338" rx="8" fill="#6eceb2"/>
      <rect x="168.682" y="475.815" width="293.927" height="22.338" rx="8" fill="#6eceb2"/>
      <g>
        <polygon points="324.3 487.407 333.571 496.678 352.113 478.137 349.022 475.046 333.571 490.498 327.391 484.317 324.3 487.407" fill="#002684"/>
        <polygon points="361.401 487.407 370.672 496.678 389.213 478.137 386.123 475.046 370.672 490.498 364.491 484.317 361.401 487.407" fill="#002684"/>
        <polygon points="398.502 487.407 407.773 496.678 426.314 478.137 423.224 475.046 407.773 490.498 401.592 484.317 398.502 487.407" fill="#002684"/>
      </g>
      <g>
        <polyline points="491.497 224.882 511.512 204.538 508.121 201.202 488.049 221.546" fill="#002684"/>
        <polyline points="512.331 221.217 491.987 201.202 488.651 204.592 508.995 224.665" fill="#002684"/>
      </g>
      <g>
        <polygon points="324.047 483.773 333.318 493.044 351.859 474.502 348.769 471.412 333.318 486.863 327.137 480.683 324.047 483.773" fill="#eea209"/>
        <polygon points="361.148 483.773 370.419 493.044 388.96 474.502 385.87 471.412 370.419 486.863 364.238 480.683 361.148 483.773" fill="#eea209"/>
        <polygon points="398.249 483.773 407.519 493.044 426.061 474.502 422.971 471.412 407.519 486.863 401.339 480.683 398.249 483.773" fill="#eea209"/>
      </g>
      <path d="M107.829,289.014,108,238.632a5.789,5.789,0,0,1,5.789-5.769l50.441.006" fill="none" stroke="#002684" stroke-miterlimit="10" stroke-width="4"/>
      <path d="M444.331,288.373l-.173-50.382a5.788,5.788,0,0,0-5.79-5.769l-50.44.006" fill="none" stroke="#002684" stroke-miterlimit="10" stroke-width="4"/>
      <path d="M444.088,368.271l-.174,50.382a5.788,5.788,0,0,1-5.79,5.769l-50.44-.006" fill="none" stroke="#002684" stroke-miterlimit="10" stroke-width="4"/>
      <path d="M108.216,368.36l.173,50.382a5.791,5.791,0,0,0,5.79,5.77l50.441-.006" fill="none" stroke="#002684" stroke-miterlimit="10" stroke-width="4"/>
      <line x1="243.52" y1="232.603" x2="315.755" y2="232.603" fill="none" stroke="#002684" stroke-miterlimit="10" stroke-width="4"/>
      <line x1="243.946" y1="424.639" x2="316.181" y2="424.639" fill="none" stroke="#002684" stroke-miterlimit="10" stroke-width="4"/>
      <g>
        <rect x="98.034" y="471.841" width="85.24" height="4" fill="#6a93d7"/>
        <rect x="98.034" y="487.841" width="85.24" height="4" fill="#6a93d7"/>
        <rect x="98.034" y="503.841" width="85.24" height="4" fill="#6a93d7"/>
        <rect x="98.034" y="519.841" width="85.24" height="4" fill="#6a93d7"/>
        <rect x="98.034" y="535.841" width="85.24" height="4" fill="#6a93d7"/>
        <rect x="98.034" y="551.841" width="85.24" height="4" fill="#6a93d7"/>
        <g>
          <rect x="111.66" y="463.475" width="85.24" height="4" fill="#6a93d7"/>
          <rect x="111.66" y="479.475" width="85.24" height="4" fill="#6a93d7"/>
          <rect x="111.66" y="495.475" width="85.24" height="4" fill="#6a93d7"/>
          <rect x="111.66" y="511.475" width="85.24" height="4" fill="#6a93d7"/>
          <rect x="111.66" y="527.475" width="85.24" height="4" fill="#6a93d7"/>
          <rect x="111.66" y="543.475" width="85.24" height="4" fill="#6a93d7"/>
        </g>
      </g>
    </g>
  </g>
</svg>
