<svg viewBox="0 0 672 672" xmlns="http://www.w3.org/2000/svg">
  <g data-name="Layer 7">
    <rect width="302.441" height="315.84" x="173.365" y="181.52" fill="#6a93d7" rx="6.648"/>
    <g fill="#002684" stroke="#002684" stroke-linecap="round" stroke-linejoin="round" stroke-width="3">
      <rect width="112.253" height="44.316" x="159.253" y="179.919" rx="12"/>
      <rect width="198.258" height="27.989" x="239.983" y="92.317" rx="12"/>
      <rect width="198.258" height="63.089" x="307.567" y="225.21" rx="12" transform="rotate(-90 406.697 256.755)"/>
      <rect width="223.914" height="27.989" x="135.024" y="372.21" rx="12"/>
      <rect width="111.957" height="27.989" x="156.015" y="306.902" rx="12"/>
    </g>
    <rect width="5.338" height="5.338" x="104.489" y="231.59" fill="#002684" rx="1.385" transform="rotate(-90 107.158 234.259)"/>
    <rect width="5.338" height="5.338" x="104.489" y="210.237" fill="#002684" rx="1.385" transform="rotate(-90 107.158 212.906)"/>
    <rect width="5.338" height="5.338" x="104.489" y="188.884" fill="#002684" rx="1.385" transform="rotate(-90 107.158 191.553)"/>
    <rect width="5.338" height="5.338" x="104.489" y="167.53" fill="#002684" rx="1.385" transform="rotate(-90 107.158 170.2)"/>
    <rect width="5.338" height="5.338" x="125.842" y="231.59" fill="#002684" rx="1.385" transform="rotate(-90 128.512 234.26)"/>
    <rect width="5.338" height="5.338" x="125.842" y="210.237" fill="#002684" rx="1.385" transform="rotate(-90 128.511 212.906)"/>
    <rect width="5.338" height="5.338" x="125.842" y="188.884" fill="#002684" rx="1.385" transform="rotate(-90 128.511 191.553)"/>
    <rect width="5.338" height="5.338" x="125.842" y="167.53" fill="#002684" rx="1.385" transform="rotate(-90 128.512 170.2)"/>
    <rect width="5.338" height="5.338" x="147.195" y="231.59" fill="#002684" rx="1.385" transform="rotate(-90 149.865 234.26)"/>
    <rect width="5.338" height="5.338" x="147.195" y="210.237" fill="#002684" rx="1.385" transform="rotate(-90 149.865 212.907)"/>
    <rect width="5.338" height="5.338" x="147.195" y="188.884" fill="#002684" rx="1.385" transform="rotate(-90 149.865 191.552)"/>
    <rect width="5.338" height="5.338" x="147.195" y="167.53" fill="#002684" rx="1.385" transform="rotate(-90 149.865 170.2)"/>
    <rect width="5.338" height="5.338" x="168.549" y="231.59" fill="#002684" rx="1.385" transform="rotate(-90 171.218 234.26)"/>
    <rect width="5.338" height="5.338" x="168.549" y="167.53" fill="#002684" rx="1.385" transform="rotate(-90 171.218 170.2)"/>
    <rect width="5.338" height="5.338" x="104.489" y="146.177" fill="#002684" rx="1.385" transform="rotate(-90 107.158 148.846)"/>
    <rect width="5.338" height="5.338" x="104.489" y="124.824" fill="#002684" rx="1.385" transform="rotate(-90 107.158 127.493)"/>
    <rect width="5.338" height="5.338" x="104.489" y="103.471" fill="#002684" rx="1.385" transform="rotate(-90 107.158 106.14)"/>
    <rect width="5.338" height="5.338" x="104.489" y="82.118" fill="#002684" rx="1.385" transform="rotate(-90 107.158 84.787)"/>
    <rect width="5.338" height="5.338" x="125.842" y="146.177" fill="#002684" rx="1.385" transform="rotate(-90 128.512 148.846)"/>
    <rect width="5.338" height="5.338" x="125.842" y="124.824" fill="#002684" rx="1.385" transform="rotate(-90 128.511 127.493)"/>
    <rect width="5.338" height="5.338" x="125.842" y="103.471" fill="#002684" rx="1.385" transform="rotate(-90 128.511 106.14)"/>
    <rect width="5.338" height="5.338" x="125.842" y="82.118" fill="#002684" rx="1.385" transform="rotate(-90 128.512 84.787)"/>
    <rect width="5.338" height="5.338" x="147.195" y="146.177" fill="#002684" rx="1.385" transform="rotate(-90 149.865 148.847)"/>
    <rect width="5.338" height="5.338" x="147.195" y="124.824" fill="#002684" rx="1.385" transform="rotate(-90 149.865 127.493)"/>
    <rect width="5.338" height="5.338" x="147.195" y="103.471" fill="#002684" rx="1.385" transform="rotate(-90 149.865 106.14)"/>
    <rect width="5.338" height="5.338" x="147.195" y="82.118" fill="#002684" rx="1.385" transform="rotate(-90 149.865 84.787)"/>
    <rect width="5.338" height="5.338" x="168.549" y="146.177" fill="#002684" rx="1.385" transform="rotate(-90 171.218 148.847)"/>
    <rect width="5.338" height="5.338" x="168.549" y="124.824" fill="#002684" rx="1.385" transform="rotate(-90 171.218 127.493)"/>
    <rect width="5.338" height="5.338" x="168.549" y="103.471" fill="#002684" rx="1.385" transform="rotate(-90 171.218 106.14)"/>
    <rect width="5.338" height="5.338" x="168.549" y="82.118" fill="#002684" rx="1.385" transform="rotate(-90 171.218 84.787)"/>
    <rect width="5.338" height="5.338" x="189.245" y="231.262" fill="#002684" rx="1.385" transform="rotate(-90 191.914 233.931)"/>
    <rect width="5.338" height="5.338" x="189.245" y="167.202" fill="#002684" rx="1.385" transform="rotate(-90 191.914 169.871)"/>
    <rect width="5.338" height="5.338" x="210.598" y="231.262" fill="#002684" rx="1.385" transform="rotate(-90 213.267 233.931)"/>
    <rect width="5.338" height="5.338" x="210.598" y="167.202" fill="#002684" rx="1.385" transform="rotate(-90 213.268 169.871)"/>
    <rect width="5.338" height="5.338" x="231.951" y="231.262" fill="#002684" rx="1.385" transform="rotate(-90 234.62 233.93)"/>
    <rect width="5.338" height="5.338" x="231.951" y="167.202" fill="#002684" rx="1.385" transform="rotate(-90 234.62 169.871)"/>
    <rect width="5.338" height="5.338" x="253.305" y="231.262" fill="#002684" rx="1.385" transform="rotate(-90 255.974 233.931)"/>
    <rect width="5.338" height="5.338" x="253.305" y="167.202" fill="#002684" rx="1.385" transform="rotate(-90 255.974 169.871)"/>
    <rect width="5.338" height="5.338" x="189.245" y="145.849" fill="#002684" rx="1.385" transform="rotate(-90 191.914 148.518)"/>
    <rect width="5.338" height="5.338" x="189.245" y="124.496" fill="#002684" rx="1.385" transform="rotate(-90 191.914 127.165)"/>
    <rect width="5.338" height="5.338" x="189.245" y="103.142" fill="#002684" rx="1.385" transform="rotate(-90 191.915 105.811)"/>
    <rect width="5.338" height="5.338" x="189.245" y="81.789" fill="#002684" rx="1.385" transform="rotate(-90 191.914 84.458)"/>
    <rect width="5.338" height="5.338" x="210.598" y="145.849" fill="#002684" rx="1.385" transform="rotate(-90 213.267 148.518)"/>
    <rect width="5.338" height="5.338" x="210.598" y="124.496" fill="#002684" rx="1.385" transform="rotate(-90 213.268 127.164)"/>
    <rect width="5.338" height="5.338" x="210.598" y="103.142" fill="#002684" rx="1.385" transform="rotate(-90 213.268 105.811)"/>
    <rect width="5.338" height="5.338" x="210.598" y="81.789" fill="#002684" rx="1.385" transform="rotate(-90 213.268 84.458)"/>
    <rect width="5.338" height="5.338" x="231.951" y="145.849" fill="#002684" rx="1.385" transform="rotate(-90 234.621 148.518)"/>
    <rect width="5.338" height="5.338" x="231.951" y="124.496" fill="#002684" rx="1.385" transform="rotate(-90 234.62 127.164)"/>
    <rect width="5.338" height="5.338" x="231.951" y="103.142" fill="#002684" rx="1.385" transform="rotate(-90 234.62 105.811)"/>
    <rect width="5.338" height="5.338" x="231.951" y="81.789" fill="#002684" rx="1.385" transform="rotate(-90 234.62 84.458)"/>
    <rect width="5.338" height="5.338" x="253.305" y="145.849" fill="#002684" rx="1.385" transform="rotate(-90 255.974 148.518)"/>
    <rect width="5.338" height="5.338" x="253.305" y="124.496" fill="#002684" rx="1.385" transform="rotate(-90 255.974 127.165)"/>
    <rect width="5.338" height="5.338" x="253.305" y="81.789" fill="#002684" rx="1.385" transform="rotate(-90 255.974 84.458)"/>
    <g fill="#eea209">
      <rect width="5.338" height="5.338" x="319.286" y="231.59" rx="1.385" transform="rotate(-90 321.956 234.26)"/>
      <rect width="5.338" height="5.338" x="319.286" y="210.237" rx="1.385" transform="rotate(-90 321.956 212.906)"/>
      <rect width="5.338" height="5.338" x="319.286" y="188.884" rx="1.385" transform="rotate(-90 321.956 191.552)"/>
      <rect width="5.338" height="5.338" x="319.286" y="167.53" rx="1.385" transform="rotate(-90 321.956 170.2)"/>
      <rect width="5.338" height="5.338" x="340.64" y="231.59" rx="1.385" transform="rotate(-90 343.309 234.26)"/>
      <rect width="5.338" height="5.338" x="340.64" y="210.237" rx="1.385" transform="rotate(-90 343.309 212.906)"/>
      <rect width="5.338" height="5.338" x="340.64" y="188.884" rx="1.385" transform="rotate(-90 343.309 191.553)"/>
      <rect width="5.338" height="5.338" x="340.64" y="167.53" rx="1.385" transform="rotate(-90 343.309 170.2)"/>
      <rect width="5.338" height="5.338" x="361.993" y="231.59" rx="1.385" transform="rotate(-90 364.662 234.259)"/>
      <rect width="5.338" height="5.338" x="361.993" y="210.237" rx="1.385" transform="rotate(-90 364.662 212.906)"/>
      <rect width="5.338" height="5.338" x="361.993" y="188.884" rx="1.385" transform="rotate(-90 364.662 191.553)"/>
      <rect width="5.338" height="5.338" x="361.993" y="167.53" rx="1.385" transform="rotate(-90 364.662 170.2)"/>
      <rect width="5.338" height="5.338" x="383.346" y="231.59" rx="1.385" transform="rotate(-90 386.016 234.26)"/>
      <rect width="5.338" height="5.338" x="383.346" y="210.237" rx="1.385" transform="rotate(-90 386.015 212.906)"/>
      <rect width="5.338" height="5.338" x="383.346" y="188.884" rx="1.385" transform="rotate(-90 386.015 191.553)"/>
      <rect width="5.338" height="5.338" x="383.346" y="167.53" rx="1.385" transform="rotate(-90 386.016 170.2)"/>
      <rect width="5.338" height="5.338" x="319.286" y="146.177" rx="1.385" transform="rotate(-90 321.956 148.847)"/>
      <rect width="5.338" height="5.338" x="319.286" y="124.824" rx="1.385" transform="rotate(-90 321.956 127.493)"/>
      <rect width="5.338" height="5.338" x="319.286" y="103.471" rx="1.385" transform="rotate(-90 321.956 106.14)"/>
      <rect width="5.338" height="5.338" x="319.286" y="82.118" rx="1.385" transform="rotate(-90 321.956 84.786)"/>
      <rect width="5.338" height="5.338" x="340.64" y="146.177" rx="1.385" transform="rotate(-90 343.309 148.846)"/>
      <rect width="5.338" height="5.338" x="340.64" y="124.824" rx="1.385" transform="rotate(-90 343.309 127.493)"/>
      <rect width="5.338" height="5.338" x="340.64" y="103.471" rx="1.385" transform="rotate(-90 343.309 106.14)"/>
      <rect width="5.338" height="5.338" x="340.64" y="82.118" rx="1.385" transform="rotate(-90 343.309 84.787)"/>
      <rect width="5.338" height="5.338" x="361.993" y="146.177" rx="1.385" transform="rotate(-90 364.662 148.846)"/>
      <rect width="5.338" height="5.338" x="361.993" y="124.824" rx="1.385" transform="rotate(-90 364.662 127.493)"/>
      <rect width="5.338" height="5.338" x="361.993" y="103.471" rx="1.385" transform="rotate(-90 364.662 106.14)"/>
      <rect width="5.338" height="5.338" x="361.993" y="82.118" rx="1.385" transform="rotate(-90 364.662 84.787)"/>
      <rect width="5.338" height="5.338" x="383.346" y="146.177" rx="1.385" transform="rotate(-90 386.016 148.846)"/>
      <rect width="5.338" height="5.338" x="383.346" y="124.824" rx="1.385" transform="rotate(-90 386.015 127.493)"/>
      <rect width="5.338" height="5.338" x="383.346" y="103.471" rx="1.385" transform="rotate(-90 386.015 106.14)"/>
      <rect width="5.338" height="5.338" x="383.346" y="82.118" rx="1.385" transform="rotate(-90 386.016 84.787)"/>
      <rect width="5.338" height="5.338" x="404.043" y="231.262" rx="1.385" transform="rotate(-90 406.712 233.931)"/>
      <rect width="5.338" height="5.338" x="404.043" y="209.909" rx="1.385" transform="rotate(-90 406.712 212.577)"/>
      <rect width="5.338" height="5.338" x="404.043" y="188.555" rx="1.385" transform="rotate(-90 406.712 191.225)"/>
      <rect width="5.338" height="5.338" x="404.043" y="167.202" rx="1.385" transform="rotate(-90 406.712 169.871)"/>
      <rect width="5.338" height="5.338" x="425.396" y="231.262" rx="1.385" transform="rotate(-90 428.065 233.931)"/>
      <rect width="5.338" height="5.338" x="425.396" y="209.909" rx="1.385" transform="rotate(-90 428.065 212.578)"/>
      <rect width="5.338" height="5.338" x="425.396" y="188.555" rx="1.385" transform="rotate(-90 428.065 191.224)"/>
      <rect width="5.338" height="5.338" x="425.396" y="167.202" rx="1.385" transform="rotate(-90 428.065 169.871)"/>
      <rect width="5.338" height="5.338" x="446.749" y="231.262" rx="1.385" transform="rotate(-90 449.418 233.931)"/>
      <rect width="5.338" height="5.338" x="446.749" y="209.909" rx="1.385" transform="rotate(-90 449.418 212.578)"/>
      <rect width="5.338" height="5.338" x="446.749" y="188.555" rx="1.385" transform="rotate(-90 449.419 191.224)"/>
      <rect width="5.338" height="5.338" x="446.749" y="167.202" rx="1.385" transform="rotate(-90 449.418 169.871)"/>
      <rect width="5.338" height="5.338" x="468.102" y="231.262" rx="1.385" transform="rotate(-90 470.771 233.931)"/>
      <rect width="5.338" height="5.338" x="468.102" y="209.909" rx="1.385" transform="rotate(-90 470.772 212.577)"/>
      <rect width="5.338" height="5.338" x="468.102" y="188.555" rx="1.385" transform="rotate(-90 470.772 191.224)"/>
      <rect width="5.338" height="5.338" x="468.102" y="167.202" rx="1.385" transform="rotate(-90 470.772 169.871)"/>
      <rect width="5.338" height="5.338" x="404.043" y="145.849" rx="1.385" transform="rotate(-90 406.712 148.518)"/>
      <rect width="5.338" height="5.338" x="404.043" y="124.496" rx="1.385" transform="rotate(-90 406.712 127.164)"/>
      <rect width="5.338" height="5.338" x="404.043" y="103.142" rx="1.385" transform="rotate(-90 406.712 105.811)"/>
      <rect width="5.338" height="5.338" x="404.043" y="81.789" rx="1.385" transform="rotate(-90 406.712 84.459)"/>
      <rect width="5.338" height="5.338" x="425.396" y="145.849" rx="1.385" transform="rotate(-90 428.065 148.518)"/>
      <rect width="5.338" height="5.338" x="425.396" y="124.496" rx="1.385" transform="rotate(-90 428.065 127.165)"/>
      <rect width="5.338" height="5.338" x="425.396" y="103.142" rx="1.385" transform="rotate(-90 428.065 105.811)"/>
      <rect width="5.338" height="5.338" x="425.396" y="81.789" rx="1.385" transform="rotate(-90 428.065 84.458)"/>
      <rect width="5.338" height="5.338" x="446.749" y="145.849" rx="1.385" transform="rotate(-90 449.418 148.518)"/>
      <rect width="5.338" height="5.338" x="446.749" y="124.496" rx="1.385" transform="rotate(-90 449.418 127.165)"/>
      <rect width="5.338" height="5.338" x="446.749" y="103.142" rx="1.385" transform="rotate(-90 449.419 105.811)"/>
      <rect width="5.338" height="5.338" x="446.749" y="81.789" rx="1.385" transform="rotate(-90 449.418 84.458)"/>
      <rect width="5.338" height="5.338" x="468.102" y="145.849" rx="1.385" transform="rotate(-90 470.771 148.518)"/>
      <rect width="5.338" height="5.338" x="468.102" y="124.496" rx="1.385" transform="rotate(-90 470.772 127.164)"/>
      <rect width="5.338" height="5.338" x="468.102" y="103.142" rx="1.385" transform="rotate(-90 470.772 105.811)"/>
      <rect width="5.338" height="5.338" x="468.102" y="81.789" rx="1.385" transform="rotate(-90 470.772 84.458)"/>
    </g>
    <g fill="#6eceb2">
      <rect width="5.338" height="5.338" x="103.098" y="447.045" rx="1.385" transform="rotate(-90 105.767 449.714)"/>
      <rect width="5.338" height="5.338" x="103.098" y="425.691" rx="1.385" transform="rotate(-90 105.767 428.36)"/>
      <rect width="5.338" height="5.338" x="103.098" y="404.338" rx="1.385" transform="rotate(-90 105.767 407.007)"/>
      <rect width="5.338" height="5.338" x="103.098" y="382.985" rx="1.385" transform="rotate(-90 105.767 385.654)"/>
      <rect width="5.338" height="5.338" x="124.451" y="447.045" rx="1.385" transform="rotate(-90 127.12 449.714)"/>
      <rect width="5.338" height="5.338" x="124.451" y="425.691" rx="1.385" transform="rotate(-90 127.12 428.361)"/>
      <rect width="5.338" height="5.338" x="124.451" y="404.338" rx="1.385" transform="rotate(-90 127.12 407.007)"/>
      <rect width="5.338" height="5.338" x="124.451" y="382.985" rx="1.385" transform="rotate(-90 127.12 385.654)"/>
      <rect width="5.338" height="5.338" x="145.804" y="447.045" rx="1.385" transform="rotate(-90 148.473 449.714)"/>
      <rect width="5.338" height="5.338" x="145.804" y="425.691" rx="1.385" transform="rotate(-90 148.474 428.36)"/>
      <rect width="5.338" height="5.338" x="145.804" y="404.338" rx="1.385" transform="rotate(-90 148.474 407.007)"/>
      <rect width="5.338" height="5.338" x="145.804" y="382.985" rx="1.385" transform="rotate(-90 148.473 385.654)"/>
      <rect width="5.338" height="5.338" x="167.157" y="447.045" rx="1.385" transform="rotate(-90 169.827 449.714)"/>
      <rect width="5.338" height="5.338" x="167.157" y="425.691" rx="1.385" transform="rotate(-90 169.827 428.36)"/>
      <rect width="5.338" height="5.338" x="167.157" y="404.338" rx="1.385" transform="rotate(-90 169.827 407.007)"/>
      <rect width="5.338" height="5.338" x="167.157" y="382.985" rx="1.385" transform="rotate(-90 169.827 385.654)"/>
      <rect width="5.338" height="5.338" x="103.098" y="361.632" rx="1.385" transform="rotate(-90 105.767 364.301)"/>
      <rect width="5.338" height="5.338" x="103.098" y="340.279" rx="1.385" transform="rotate(-90 105.767 342.948)"/>
      <rect width="5.338" height="5.338" x="103.098" y="318.925" rx="1.385" transform="rotate(-90 105.767 321.595)"/>
      <rect width="5.338" height="5.338" x="103.098" y="297.572" rx="1.385" transform="rotate(-90 105.767 300.241)"/>
      <rect width="5.338" height="5.338" x="124.451" y="361.632" rx="1.385" transform="rotate(-90 127.12 364.301)"/>
      <rect width="5.338" height="5.338" x="124.451" y="340.279" rx="1.385" transform="rotate(-90 127.12 342.948)"/>
      <rect width="5.338" height="5.338" x="124.451" y="318.925" rx="1.385" transform="rotate(-90 127.12 321.594)"/>
      <rect width="5.338" height="5.338" x="124.451" y="297.572" rx="1.385" transform="rotate(-90 127.12 300.241)"/>
      <rect width="5.338" height="5.338" x="145.804" y="361.632" rx="1.385" transform="rotate(-90 148.473 364.301)"/>
      <rect width="5.338" height="5.338" x="145.804" y="340.279" rx="1.385" transform="rotate(-90 148.474 342.948)"/>
      <rect width="5.338" height="5.338" x="145.804" y="318.925" rx="1.385" transform="rotate(-90 148.474 321.595)"/>
      <rect width="5.338" height="5.338" x="145.804" y="297.572" rx="1.385" transform="rotate(-90 148.474 300.242)"/>
      <rect width="5.338" height="5.338" x="167.157" y="361.632" rx="1.385" transform="rotate(-90 169.827 364.3)"/>
      <rect width="5.338" height="5.338" x="167.157" y="340.279" rx="1.385" transform="rotate(-90 169.827 342.947)"/>
      <rect width="5.338" height="5.338" x="167.157" y="318.925" rx="1.385" transform="rotate(-90 169.827 321.595)"/>
      <rect width="5.338" height="5.338" x="167.157" y="297.572" rx="1.385" transform="rotate(-90 169.827 300.242)"/>
      <rect width="5.338" height="5.338" x="187.854" y="446.716" rx="1.385" transform="rotate(-90 190.523 449.386)"/>
      <rect width="5.338" height="5.338" x="187.854" y="425.363" rx="1.385" transform="rotate(-90 190.523 428.032)"/>
      <rect width="5.338" height="5.338" x="187.854" y="404.01" rx="1.385" transform="rotate(-90 190.523 406.679)"/>
      <rect width="5.338" height="5.338" x="187.854" y="382.657" rx="1.385" transform="rotate(-90 190.523 385.326)"/>
      <rect width="5.338" height="5.338" x="209.207" y="446.716" rx="1.385" transform="rotate(-90 211.877 449.385)"/>
      <rect width="5.338" height="5.338" x="209.207" y="425.363" rx="1.385" transform="rotate(-90 211.876 428.032)"/>
      <rect width="5.338" height="5.338" x="209.207" y="404.01" rx="1.385" transform="rotate(-90 211.876 406.679)"/>
      <rect width="5.338" height="5.338" x="209.207" y="382.657" rx="1.385" transform="rotate(-90 211.876 385.326)"/>
      <rect width="5.338" height="5.338" x="230.56" y="446.716" rx="1.385" transform="rotate(-90 233.23 449.386)"/>
      <rect width="5.338" height="5.338" x="230.56" y="425.363" rx="1.385" transform="rotate(-90 233.23 428.032)"/>
      <rect width="5.338" height="5.338" x="230.56" y="404.01" rx="1.385" transform="rotate(-90 233.229 406.679)"/>
      <rect width="5.338" height="5.338" x="230.56" y="382.657" rx="1.385" transform="rotate(-90 233.23 385.325)"/>
      <rect width="5.338" height="5.338" x="251.914" y="446.716" rx="1.385" transform="rotate(-90 254.583 449.385)"/>
      <rect width="5.338" height="5.338" x="251.914" y="425.363" rx="1.385" transform="rotate(-90 254.583 428.032)"/>
      <rect width="5.338" height="5.338" x="251.914" y="404.01" rx="1.385" transform="rotate(-90 254.583 406.679)"/>
      <rect width="5.338" height="5.338" x="251.914" y="382.657" rx="1.385" transform="rotate(-90 254.583 385.325)"/>
      <rect width="5.338" height="5.338" x="187.854" y="361.303" rx="1.385" transform="rotate(-90 190.523 363.973)"/>
      <rect width="5.338" height="5.338" x="187.854" y="339.95" rx="1.385" transform="rotate(-90 190.523 342.619)"/>
      <rect width="5.338" height="5.338" x="187.854" y="318.597" rx="1.385" transform="rotate(-90 190.523 321.266)"/>
      <rect width="5.338" height="5.338" x="187.854" y="297.244" rx="1.385" transform="rotate(-90 190.523 299.913)"/>
      <rect width="5.338" height="5.338" x="209.207" y="361.303" rx="1.385" transform="rotate(-90 211.877 363.973)"/>
      <rect width="5.338" height="5.338" x="209.207" y="339.95" rx="1.385" transform="rotate(-90 211.876 342.619)"/>
      <rect width="5.338" height="5.338" x="209.207" y="318.597" rx="1.385" transform="rotate(-90 211.876 321.266)"/>
      <rect width="5.338" height="5.338" x="209.207" y="297.244" rx="1.385" transform="rotate(-90 211.876 299.913)"/>
      <rect width="5.338" height="5.338" x="230.56" y="361.303" rx="1.385" transform="rotate(-90 233.23 363.973)"/>
      <rect width="5.338" height="5.338" x="230.56" y="339.95" rx="1.385" transform="rotate(-90 233.23 342.62)"/>
      <rect width="5.338" height="5.338" x="230.56" y="318.597" rx="1.385" transform="rotate(-90 233.229 321.266)"/>
      <rect width="5.338" height="5.338" x="230.56" y="297.244" rx="1.385" transform="rotate(-90 233.23 299.913)"/>
      <rect width="5.338" height="5.338" x="251.914" y="361.303" rx="1.385" transform="rotate(-90 254.583 363.972)"/>
      <rect width="5.338" height="5.338" x="251.914" y="339.95" rx="1.385" transform="rotate(-90 254.583 342.62)"/>
      <rect width="5.338" height="5.338" x="251.914" y="318.597" rx="1.385" transform="rotate(-90 254.583 321.266)"/>
      <rect width="5.338" height="5.338" x="251.914" y="297.244" rx="1.385" transform="rotate(-90 254.583 299.913)"/>
    </g>
    <g fill="#dd5040">
      <rect width="5.338" height="5.338" x="317.895" y="447.045" rx="1.385" transform="rotate(-90 320.565 449.714)"/>
      <rect width="5.338" height="5.338" x="317.895" y="425.691" rx="1.385" transform="rotate(-90 320.565 428.36)"/>
      <rect width="5.338" height="5.338" x="317.895" y="404.338" rx="1.385" transform="rotate(-90 320.565 407.007)"/>
      <rect width="5.338" height="5.338" x="317.895" y="382.985" rx="1.385" transform="rotate(-90 320.565 385.655)"/>
      <rect width="5.338" height="5.338" x="339.249" y="447.045" rx="1.385" transform="rotate(-90 341.918 449.714)"/>
      <rect width="5.338" height="5.338" x="339.249" y="425.691" rx="1.385" transform="rotate(-90 341.918 428.36)"/>
      <rect width="5.338" height="5.338" x="339.249" y="404.338" rx="1.385" transform="rotate(-90 341.918 407.007)"/>
      <rect width="5.338" height="5.338" x="339.249" y="382.985" rx="1.385" transform="rotate(-90 341.918 385.654)"/>
      <rect width="5.338" height="5.338" x="360.602" y="447.045" rx="1.385" transform="rotate(-90 363.271 449.714)"/>
      <rect width="5.338" height="5.338" x="360.602" y="425.691" rx="1.385" transform="rotate(-90 363.271 428.361)"/>
      <rect width="5.338" height="5.338" x="360.602" y="404.338" rx="1.385" transform="rotate(-90 363.271 407.007)"/>
      <rect width="5.338" height="5.338" x="360.602" y="382.985" rx="1.385" transform="rotate(-90 363.271 385.654)"/>
      <rect width="5.338" height="5.338" x="381.955" y="447.045" rx="1.385" transform="rotate(-90 384.624 449.714)"/>
      <rect width="5.338" height="5.338" x="381.955" y="425.691" rx="1.385" transform="rotate(-90 384.625 428.36)"/>
      <rect width="5.338" height="5.338" x="381.955" y="404.338" rx="1.385" transform="rotate(-90 384.625 407.007)"/>
      <rect width="5.338" height="5.338" x="381.955" y="382.985" rx="1.385" transform="rotate(-90 384.624 385.654)"/>
      <rect width="5.338" height="5.338" x="317.895" y="361.632" rx="1.385" transform="rotate(-90 320.565 364.3)"/>
      <rect width="5.338" height="5.338" x="317.895" y="340.279" rx="1.385" transform="rotate(-90 320.565 342.947)"/>
      <rect width="5.338" height="5.338" x="317.895" y="318.925" rx="1.385" transform="rotate(-90 320.565 321.594)"/>
      <rect width="5.338" height="5.338" x="317.895" y="297.572" rx="1.385" transform="rotate(-90 320.565 300.242)"/>
      <rect width="5.338" height="5.338" x="339.249" y="361.632" rx="1.385" transform="rotate(-90 341.918 364.301)"/>
      <rect width="5.338" height="5.338" x="339.249" y="340.279" rx="1.385" transform="rotate(-90 341.918 342.947)"/>
      <rect width="5.338" height="5.338" x="339.249" y="318.925" rx="1.385" transform="rotate(-90 341.918 321.594)"/>
      <rect width="5.338" height="5.338" x="339.249" y="297.572" rx="1.385" transform="rotate(-90 341.918 300.241)"/>
      <rect width="5.338" height="5.338" x="360.602" y="361.632" rx="1.385" transform="rotate(-90 363.271 364.301)"/>
      <rect width="5.338" height="5.338" x="360.602" y="340.279" rx="1.385" transform="rotate(-90 363.271 342.948)"/>
      <rect width="5.338" height="5.338" x="360.602" y="318.925" rx="1.385" transform="rotate(-90 363.271 321.594)"/>
      <rect width="5.338" height="5.338" x="360.602" y="297.572" rx="1.385" transform="rotate(-90 363.271 300.241)"/>
      <rect width="5.338" height="5.338" x="381.955" y="361.632" rx="1.385" transform="rotate(-90 384.624 364.301)"/>
      <rect width="5.338" height="5.338" x="381.955" y="340.279" rx="1.385" transform="rotate(-90 384.625 342.947)"/>
      <rect width="5.338" height="5.338" x="381.955" y="318.925" rx="1.385" transform="rotate(-90 384.625 321.595)"/>
      <rect width="5.338" height="5.338" x="381.955" y="297.572" rx="1.385" transform="rotate(-90 384.624 300.241)"/>
      <rect width="5.338" height="5.338" x="402.651" y="446.716" rx="1.385" transform="rotate(-90 405.32 449.386)"/>
      <rect width="5.338" height="5.338" x="402.651" y="425.363" rx="1.385" transform="rotate(-90 405.32 428.032)"/>
      <rect width="5.338" height="5.338" x="402.651" y="404.01" rx="1.385" transform="rotate(-90 405.321 406.679)"/>
      <rect width="5.338" height="5.338" x="402.651" y="382.657" rx="1.385" transform="rotate(-90 405.32 385.325)"/>
      <rect width="5.338" height="5.338" x="424.005" y="446.716" rx="1.385" transform="rotate(-90 426.674 449.385)"/>
      <rect width="5.338" height="5.338" x="424.005" y="425.363" rx="1.385" transform="rotate(-90 426.674 428.032)"/>
      <rect width="5.338" height="5.338" x="424.005" y="404.01" rx="1.385" transform="rotate(-90 426.674 406.679)"/>
      <rect width="5.338" height="5.338" x="424.005" y="382.657" rx="1.385" transform="rotate(-90 426.674 385.326)"/>
      <rect width="5.338" height="5.338" x="445.358" y="446.716" rx="1.385" transform="rotate(-90 448.028 449.385)"/>
      <rect width="5.338" height="5.338" x="445.358" y="425.363" rx="1.385" transform="rotate(-90 448.027 428.032)"/>
      <rect width="5.338" height="5.338" x="445.358" y="404.01" rx="1.385" transform="rotate(-90 448.027 406.679)"/>
      <rect width="5.338" height="5.338" x="445.358" y="382.657" rx="1.385" transform="rotate(-90 448.027 385.326)"/>
      <rect width="5.338" height="5.338" x="413.788" y="446.175" rx="1.385" transform="rotate(-90 416.457 448.844)"/>
      <rect width="5.338" height="5.338" x="413.788" y="424.822" rx="1.385" transform="rotate(-90 416.457 427.49)"/>
      <rect width="5.338" height="5.338" x="466.711" y="404.01" rx="1.385" transform="rotate(-90 469.38 406.679)"/>
      <rect width="5.338" height="5.338" x="466.711" y="382.657" rx="1.385" transform="rotate(-90 469.38 385.325)"/>
      <rect width="5.338" height="5.338" x="402.651" y="361.303" rx="1.385" transform="rotate(-90 405.32 363.973)"/>
      <rect width="5.338" height="5.338" x="402.651" y="339.95" rx="1.385" transform="rotate(-90 405.32 342.62)"/>
      <rect width="5.338" height="5.338" x="402.651" y="318.597" rx="1.385" transform="rotate(-90 405.321 321.266)"/>
      <rect width="5.338" height="5.338" x="402.651" y="297.244" rx="1.385" transform="rotate(-90 405.32 299.912)"/>
      <rect width="5.338" height="5.338" x="424.005" y="361.303" rx="1.385" transform="rotate(-90 426.674 363.972)"/>
      <rect width="5.338" height="5.338" x="424.005" y="339.95" rx="1.385" transform="rotate(-90 426.674 342.619)"/>
      <rect width="5.338" height="5.338" x="424.005" y="318.597" rx="1.385" transform="rotate(-90 426.674 321.266)"/>
      <rect width="5.338" height="5.338" x="424.005" y="297.244" rx="1.385" transform="rotate(-90 426.674 299.913)"/>
      <rect width="5.338" height="5.338" x="445.358" y="361.303" rx="1.385" transform="rotate(-90 448.028 363.973)"/>
      <rect width="5.338" height="5.338" x="445.358" y="339.95" rx="1.385" transform="rotate(-90 448.027 342.619)"/>
      <rect width="5.338" height="5.338" x="445.358" y="318.597" rx="1.385" transform="rotate(-90 448.027 321.266)"/>
      <rect width="5.338" height="5.338" x="445.358" y="297.244" rx="1.385" transform="rotate(-90 448.027 299.913)"/>
      <rect width="5.338" height="5.338" x="466.711" y="361.303" rx="1.385" transform="rotate(-90 469.38 363.972)"/>
      <rect width="5.338" height="5.338" x="466.711" y="339.95" rx="1.385" transform="rotate(-90 469.38 342.62)"/>
      <rect width="5.338" height="5.338" x="466.711" y="318.597" rx="1.385" transform="rotate(-90 469.38 321.266)"/>
      <rect width="5.338" height="5.338" x="466.711" y="297.244" rx="1.385" transform="rotate(-90 469.38 299.913)"/>
    </g>
    <path fill="#f8f8f7" stroke="#002684" stroke-miterlimit="10" stroke-width="3" d="M545.533 603.122H375.265V376.875h121.287l48.981 46.649v179.598z"/>
    <path fill="none" stroke="#002684" stroke-linecap="round" stroke-linejoin="round" stroke-width="3" d="M496.552 423.524v-46.649l48.981 46.649h-48.981z"/>
    <rect width="5.338" height="5.338" x="395.584" y="435.186" fill="#002684" rx="1.385" transform="rotate(-90 398.253 437.855)"/>
    <rect width="5.338" height="5.338" x="405.349" y="435.198" fill="#eea209" rx="1.385" transform="rotate(-90 408.018 437.867)"/>
    <rect width="5.338" height="5.338" x="414.58" y="435.186" fill="#eea209" rx="1.385" transform="rotate(-90 417.249 437.855)"/>
    <rect width="5.338" height="5.338" x="423.926" y="435" fill="#eea209" rx="1.385" transform="rotate(-90 426.596 437.668)"/>
    <rect width="5.338" height="5.338" x="433.243" y="434.954" fill="#eea209" rx="1.385" transform="rotate(-90 435.912 437.623)"/>
    <rect width="5.338" height="5.338" x="442.567" y="434.899" fill="#eea209" rx="1.385" transform="rotate(-90 445.237 437.567)"/>
    <rect width="5.338" height="5.338" x="451.779" y="434.916" fill="#eea209" rx="1.385" transform="rotate(-90 454.448 437.585)"/>
    <rect width="5.338" height="5.338" x="395.641" y="453.536" fill="#eea209" rx="1.385" transform="rotate(-90 398.31 456.205)"/>
    <rect width="5.338" height="5.338" x="405.407" y="453.548" fill="#eea209" rx="1.385" transform="rotate(-90 408.076 456.217)"/>
    <rect width="5.338" height="5.338" x="414.638" y="453.536" fill="#eea209" rx="1.385" transform="rotate(-90 417.307 456.205)"/>
    <rect width="5.338" height="5.338" x="395.676" y="472.034" fill="#002684" rx="1.385" transform="rotate(-90 398.345 474.703)"/>
    <rect width="5.338" height="5.338" x="405.441" y="472.034" fill="#002684" rx="1.385" transform="rotate(-90 408.11 474.703)"/>
    <rect width="5.338" height="5.338" x="414.672" y="472.034" fill="#002684" rx="1.385" transform="rotate(-90 417.342 474.703)"/>
    <rect width="5.338" height="5.338" x="424.019" y="472.034" fill="#002684" rx="1.385" transform="rotate(-90 426.688 474.703)"/>
    <rect width="5.338" height="5.338" x="433.335" y="472.034" fill="#002684" rx="1.385" transform="rotate(-90 436.004 474.703)"/>
    <rect width="5.338" height="5.338" x="442.517" y="472.034" fill="#eea209" rx="1.385" transform="rotate(-90 445.187 474.704)"/>
    <rect width="5.338" height="5.338" x="451.689" y="472.034" fill="#eea209" rx="1.385" transform="rotate(-90 454.359 474.704)"/>
    <rect width="5.338" height="5.338" x="461.36" y="472.034" fill="#eea209" rx="1.385" transform="rotate(-90 464.029 474.703)"/>
    <rect width="5.338" height="5.338" x="395.836" y="490.655" fill="#002684" rx="1.385" transform="rotate(-90 398.505 493.324)"/>
    <rect width="5.338" height="5.338" x="405.601" y="490.655" fill="#002684" rx="1.385" transform="rotate(-90 408.27 493.324)"/>
    <rect width="5.338" height="5.338" x="414.832" y="490.655" fill="#002684" rx="1.385" transform="rotate(-90 417.501 493.324)"/>
    <rect width="5.338" height="5.338" x="424.178" y="490.655" fill="#002684" rx="1.385" transform="rotate(-90 426.848 493.325)"/>
    <rect width="5.338" height="5.338" x="433.495" y="490.655" fill="#002684" rx="1.385" transform="rotate(-90 436.164 493.324)"/>
    <rect width="5.338" height="5.338" x="442.677" y="490.655" fill="#eea209" rx="1.385" transform="rotate(-90 445.346 493.324)"/>
    <rect width="5.338" height="5.338" x="451.849" y="490.655" fill="#eea209" rx="1.385" transform="rotate(-90 454.519 493.325)"/>
    <rect width="5.338" height="5.338" x="461.147" y="490.655" fill="#eea209" rx="1.385" transform="rotate(-90 463.816 493.324)"/>
    <rect width="5.338" height="5.338" x="396.123" y="509.379" fill="#eea209" rx="1.385" transform="rotate(-90 398.793 512.048)"/>
    <rect width="5.338" height="5.338" x="405.295" y="509.379" fill="#eea209" rx="1.385" transform="rotate(-90 407.965 512.048)"/>
    <rect width="5.338" height="5.338" x="414.593" y="509.379" fill="#eea209" rx="1.385" transform="rotate(-90 417.262 512.048)"/>
    <rect width="5.338" height="5.338" x="396.074" y="528.225" fill="#6eceb2" rx="1.385" transform="rotate(-90 398.743 530.894)"/>
    <rect width="5.338" height="5.338" x="405.393" y="528.286" fill="#6eceb2" rx="1.385" transform="rotate(-90 408.062 530.956)"/>
    <rect width="5.338" height="5.338" x="414.576" y="528.278" fill="#6eceb2" rx="1.385" transform="rotate(-90 417.245 530.947)"/>
    <rect width="5.338" height="5.338" x="423.974" y="528.322" fill="#6eceb2" rx="1.385" transform="rotate(-90 426.643 530.991)"/>
    <rect width="5.338" height="5.338" x="433.314" y="528.383" fill="#6eceb2" rx="1.385" transform="rotate(-90 435.983 531.053)"/>
    <rect width="5.338" height="5.338" x="442.496" y="528.252" fill="#dd5040" rx="1.385" transform="rotate(-90 445.165 530.921)"/>
    <rect width="5.338" height="5.338" x="451.837" y="528.266" fill="#dd5040" rx="1.385" transform="rotate(-90 454.506 530.935)"/>
    <rect width="5.338" height="5.338" x="461.234" y="528.249" fill="#dd5040" rx="1.385" transform="rotate(-90 463.904 530.919)"/>
    <rect width="5.338" height="5.338" x="395.802" y="546.921" fill="#dd5040" rx="1.385" transform="rotate(-90 398.472 549.59)"/>
    <rect width="5.338" height="5.338" x="405.144" y="546.935" fill="#dd5040" rx="1.385" transform="rotate(-90 407.813 549.604)"/>
    <rect width="5.338" height="5.338" x="414.541" y="546.918" fill="#dd5040" rx="1.385" transform="rotate(-90 417.21 549.588)"/>
    <rect width="5.338" height="5.338" x="396.194" y="565.469" fill="#6eceb2" rx="1.385" transform="rotate(-90 398.864 568.139)"/>
    <rect width="5.338" height="5.338" x="405.513" y="565.53" fill="#6eceb2" rx="1.385" transform="rotate(-90 408.183 568.2)"/>
    <rect width="5.338" height="5.338" x="414.696" y="565.522" fill="#6eceb2" rx="1.385" transform="rotate(-90 417.366 568.191)"/>
    <rect width="5.338" height="5.338" x="424.094" y="565.566" fill="#6eceb2" rx="1.385" transform="rotate(-90 426.763 568.235)"/>
    <rect width="5.338" height="5.338" x="433.434" y="565.627" fill="#6eceb2" rx="1.385" transform="rotate(-90 436.104 568.297)"/>
    <rect width="5.338" height="5.338" x="442.616" y="565.496" fill="#6eceb2" rx="1.385" transform="rotate(-90 445.286 568.165)"/>
    <rect width="5.338" height="5.338" x="451.958" y="565.51" fill="#dd5040" rx="1.385" transform="rotate(-90 454.627 568.179)"/>
    <rect width="5.338" height="5.338" x="461.355" y="565.493" fill="#dd5040" rx="1.385" transform="rotate(-90 464.024 568.162)"/>
    <path fill="none" stroke="#002684" stroke-linecap="round" stroke-linejoin="round" stroke-width="3" d="m247.97 400.22.589 167.395H389.43m16.593-210.456.352 54.369m-194.771-76.277-.156 36.025"/>
    <path fill="none" stroke="#002684" stroke-linecap="round" stroke-linejoin="round" stroke-width="3" d="m211.448 400.616.466 105.715H373.98M272.986 200.925h100.885m64.311.211h20.658l.329 175.137"/>
    <path fill="#eea209" d="M93.803 497.873h133.316v4.665H93.803zm0 9.33h133.316v4.665H93.803zm0 9.33h133.316v4.665H93.803zm0 9.33h133.316v4.665H93.803zm0 9.329h133.316v4.665H93.803zm0 9.33h133.316v4.665H93.803zm0 9.33h133.316v4.665H93.803zm0 9.33h133.316v4.665H93.803zm0 9.329h133.316v4.665H93.803zm0 9.33h133.316v4.665H93.803zm0 9.33h133.316v4.665H93.803zm0 9.33h133.316v4.665H93.803z"/>
    <path fill="#dd5040" d="M515.199 365.56v-3.256h26.051v3.256zm-.001-107.461v-3.256h26.051v3.256zm0 97.692v-3.256h26.051v3.256zm0-107.462v-3.256h26.051v3.256zm0 97.692v-3.256h26.051v3.256zm0-107.461v-3.256h26.051v3.256zm0 97.692v-3.256h26.051v3.256zm.001-107.461v-3.256h26.051v3.256zm-.001 97.692v-3.256h26.051v3.256zm0-107.461v-3.256h26.051v3.256zm0 97.692v-3.256h26.051v3.256zm0-9.769v-3.256h26.051v3.256zm0-9.77v-3.256h26.051v3.256zm0 78.154v-3.256h26.051v3.256zm0-87.923v-3.256h26.051v3.256zm0-78.154v-3.256h26.051v3.256zm0 68.385v-3.256h26.051v3.256zm0-9.769v-3.256h26.051v3.256zm-.381-77.586v-3.256h26.051v3.256zm-.001-107.461v-3.256h26.051v3.256zm.001 97.692v-3.256h26.051v3.256zm0-107.462v-3.256h26.051v3.256zm-.001 97.692v-3.256h26.051v3.256zm.001-107.461v-3.256h26.051v3.256zm0 97.692v-3.256h26.051v3.256zm0-107.461v-3.256h26.051v3.256zm0 97.692v-3.256h26.051v3.256zm0-107.461v-3.256h26.051v3.256zm0 97.692v-3.256h26.051v3.256zm0-9.769v-3.256h26.051v3.256zm0-9.77v-3.256h26.051v3.256zm0 78.154v-3.256h26.051v3.256zm0-87.923v-3.256h26.051v3.256zm-.001-78.154v-3.256h26.051v3.256zm.001 68.385v-3.256h26.051v3.256zm0-9.769v-3.256h26.051v3.256zm34.38 249.363v-3.256h26.051v3.256zm-.001-107.461v-3.256h26.051v3.256zm0 97.692v-3.256h26.051v3.256zm.001-107.461v-3.256h26.051v3.256zm0 97.692v-3.256h26.051v3.256zm0-107.461v-3.256h26.051v3.256zm0 97.692v-3.256h26.051v3.256zm0-107.462v-3.256h26.051v3.256zm0 97.693v-3.256h26.051v3.256zm-.001-107.462v-3.256h26.051v3.256zm0 97.692v-3.256h26.051v3.256zm0-9.769v-3.256h26.051v3.256zm.001-9.769v-3.256h26.051v3.256zm0 78.154v-3.256h26.051v3.256zm0-87.923v-3.256h26.051v3.256zm0-78.154v-3.256h26.051v3.256zm0 68.384v-3.256h26.051v3.256zm-.001-9.769v-3.256h26.051v3.256z"/>
    <path fill="#f8f8f7" d="M580.637 618.58a2.9 2.9 0 0 0 1.3-2.255v-38.819a2.9 2.9 0 0 0-1.3-2.256l-33.253-19.4a2.846 2.846 0 0 0-2.591 0l-33.254 19.4a2.9 2.9 0 0 0-1.3 2.256v38.819a2.9 2.9 0 0 0 1.3 2.255l33.254 19.4a2.846 2.846 0 0 0 2.591 0Z"/>
    <path fill="none" stroke="#eea209" stroke-miterlimit="10" stroke-width="3" d="M580.637 618.58a2.9 2.9 0 0 0 1.3-2.255v-38.819a2.9 2.9 0 0 0-1.3-2.256l-33.253-19.4a2.846 2.846 0 0 0-2.591 0l-33.254 19.4a2.9 2.9 0 0 0-1.3 2.256v38.819a2.9 2.9 0 0 0 1.3 2.255l33.254 19.4a2.846 2.846 0 0 0 2.591 0Z"/>
    <path fill="#6eceb2" d="M572.947 614.1a2.9 2.9 0 0 0 1.295-2.256v-29.858a2.9 2.9 0 0 0-1.295-2.256l-25.573-14.917a2.846 2.846 0 0 0-2.591 0L519.21 579.73a2.9 2.9 0 0 0-1.3 2.256v29.858a2.9 2.9 0 0 0 1.3 2.256l25.573 14.917a2.846 2.846 0 0 0 2.591 0Z"/>
    <g fill="#f4f4f4">
      <rect width="5.338" height="5.338" x="168.549" y="210.237" rx="1.385" transform="rotate(-90 171.218 212.906)"/>
      <rect width="5.338" height="5.338" x="168.549" y="188.884" rx="1.385" transform="rotate(-90 171.218 191.553)"/>
      <rect width="5.338" height="5.338" x="189.245" y="209.909" rx="1.385" transform="rotate(-90 191.914 212.578)"/>
      <rect width="5.338" height="5.338" x="189.245" y="188.555" rx="1.385" transform="rotate(-90 191.915 191.225)"/>
      <rect width="5.338" height="5.338" x="210.598" y="209.909" rx="1.385" transform="rotate(-90 213.268 212.578)"/>
      <rect width="5.338" height="5.338" x="210.598" y="188.555" rx="1.385" transform="rotate(-90 213.268 191.225)"/>
      <rect width="5.338" height="5.338" x="231.951" y="209.909" rx="1.385" transform="rotate(-90 234.62 212.577)"/>
      <rect width="5.338" height="5.338" x="231.951" y="188.555" rx="1.385" transform="rotate(-90 234.62 191.225)"/>
      <rect width="5.338" height="5.338" x="253.305" y="209.909" rx="1.385" transform="rotate(-90 255.974 212.577)"/>
      <rect width="5.338" height="5.338" x="253.305" y="188.555" rx="1.385" transform="rotate(-90 255.974 191.225)"/>
    </g>
    <rect width="5.338" height="5.338" x="253.305" y="103.142" fill="#f4f4f4" rx="1.385" transform="rotate(-90 255.974 105.811)"/>
  </g>
</svg>
