<svg viewBox="0 0 672 672" xmlns="http://www.w3.org/2000/svg">
  <g data-name="Layer 4">
    <path fill="none" stroke="#dd5040" stroke-miterlimit="10" d="M552.988 288.091h10m6 0h34"/>
    <rect width="110" height="334" x="271.488" y="234.986" fill="#6eceb2" rx="5.047"/>
    <rect width="87.86" height="87.86" x="179.488" y="302.986" fill="#eea209" rx="4.857"/>
    <rect width="112" height="112" x="115.488" y="475.126" fill="#dd5040" rx="4.857"/>
    <rect width="87.86" height="87.86" x="173.951" y="308.986" fill="none" stroke="#002684" stroke-linecap="round" stroke-linejoin="round" stroke-width="3" rx="4.857"/>
    <rect width="87.86" height="87.86" x="281.628" y="308.986" fill="none" stroke="#002684" stroke-linecap="round" stroke-linejoin="round" stroke-width="3" rx="4.857"/>
    <rect width="87.86" height="87.86" x="389.628" y="308.986" fill="none" stroke="#002684" stroke-linecap="round" stroke-linejoin="round" stroke-width="3" rx="4.857"/>
    <rect width="87.86" height="87.86" x="497.488" y="308.986" fill="none" stroke="#002684" stroke-linecap="round" stroke-linejoin="round" stroke-width="3" rx="4.857"/>
    <rect width="87.86" height="87.86" x="65.488" y="415.265" fill="none" stroke="#002684" stroke-linecap="round" stroke-linejoin="round" stroke-width="3" rx="4.857"/>
    <rect width="87.86" height="87.86" x="173.488" y="415.265" fill="none" stroke="#002684" stroke-linecap="round" stroke-linejoin="round" stroke-width="3" rx="4.857"/>
    <rect width="87.86" height="87.86" x="287.628" y="409.126" fill="#eea209" rx="4.857"/>
    <rect width="87.86" height="87.86" x="281.488" y="415.265" fill="none" stroke="#002684" stroke-linecap="round" stroke-linejoin="round" stroke-width="3" rx="4.857"/>
    <rect width="87.86" height="87.86" x="397.488" y="409.126" fill="#eea209" rx="4.857"/>
    <rect width="87.86" height="87.86" x="389.628" y="414.986" fill="none" stroke="#002684" stroke-linecap="round" stroke-linejoin="round" stroke-width="3" rx="4.857"/>
    <g fill="#002684">
      <rect width="3.866" height="3.866" x="333.228" y="540.725" rx="1.385"/>
      <rect width="3.866" height="3.866" x="348.692" y="540.725" rx="1.385"/>
      <rect width="3.866" height="3.866" x="364.157" y="540.725" rx="1.385"/>
      <rect width="3.866" height="3.866" x="379.622" y="540.725" rx="1.385"/>
      <rect width="3.866" height="3.866" x="333.228" y="556.19" rx="1.385"/>
      <rect width="3.866" height="3.866" x="348.692" y="556.19" rx="1.385"/>
      <rect width="3.866" height="3.866" x="364.157" y="556.19" rx="1.385"/>
      <rect width="3.866" height="3.866" x="379.622" y="556.19" rx="1.385"/>
      <rect width="3.866" height="3.866" x="333.228" y="571.655" rx="1.385"/>
      <rect width="3.866" height="3.866" x="348.692" y="571.655" rx="1.385"/>
      <rect width="3.866" height="3.866" x="364.157" y="571.655" rx="1.385"/>
      <rect width="3.866" height="3.866" x="379.622" y="571.655" rx="1.385"/>
      <rect width="3.866" height="3.866" x="333.228" y="587.12" rx="1.385"/>
      <rect width="3.866" height="3.866" x="348.692" y="587.12" rx="1.385"/>
      <rect width="3.866" height="3.866" x="364.157" y="587.12" rx="1.385"/>
      <rect width="3.866" height="3.866" x="379.622" y="587.12" rx="1.385"/>
      <rect width="3.866" height="3.866" x="395.087" y="540.725" rx="1.385"/>
      <rect width="3.866" height="3.866" x="410.552" y="540.725" rx="1.385"/>
      <rect width="3.866" height="3.866" x="426.017" y="540.725" rx="1.385"/>
      <rect width="3.866" height="3.866" x="441.482" y="540.725" rx="1.385"/>
      <rect width="3.866" height="3.866" x="395.087" y="556.19" rx="1.385"/>
      <rect width="3.866" height="3.866" x="410.552" y="556.19" rx="1.385"/>
      <rect width="3.866" height="3.866" x="426.017" y="556.19" rx="1.385"/>
      <rect width="3.866" height="3.866" x="441.482" y="556.19" rx="1.385"/>
      <rect width="3.866" height="3.866" x="395.087" y="571.655" rx="1.385"/>
      <rect width="3.866" height="3.866" x="410.552" y="571.655" rx="1.385"/>
      <rect width="3.866" height="3.866" x="426.017" y="571.655" rx="1.385"/>
      <rect width="3.866" height="3.866" x="441.482" y="571.655" rx="1.385"/>
      <rect width="3.866" height="3.866" x="395.087" y="587.12" rx="1.385"/>
      <rect width="3.866" height="3.866" x="410.552" y="587.12" rx="1.385"/>
      <rect width="3.866" height="3.866" x="426.017" y="587.12" rx="1.385"/>
      <rect width="3.866" height="3.866" x="441.482" y="587.12" rx="1.385"/>
      <rect width="3.866" height="3.866" x="455.368" y="540.725" rx="1.385"/>
      <rect width="3.866" height="3.866" x="470.833" y="540.725" rx="1.385"/>
      <rect width="3.866" height="3.866" x="486.298" y="540.725" rx="1.385"/>
      <rect width="3.866" height="3.866" x="501.763" y="540.725" rx="1.385"/>
      <rect width="3.866" height="3.866" x="455.368" y="556.19" rx="1.385"/>
      <rect width="3.866" height="3.866" x="470.833" y="556.19" rx="1.385"/>
      <rect width="3.866" height="3.866" x="486.298" y="556.19" rx="1.385"/>
      <rect width="3.866" height="3.866" x="501.763" y="556.19" rx="1.385"/>
      <rect width="3.866" height="3.866" x="455.368" y="571.655" rx="1.385"/>
      <rect width="3.866" height="3.866" x="470.833" y="571.655" rx="1.385"/>
      <rect width="3.866" height="3.866" x="486.298" y="571.655" rx="1.385"/>
      <rect width="3.866" height="3.866" x="501.763" y="571.655" rx="1.385"/>
      <rect width="3.866" height="3.866" x="455.368" y="587.12" rx="1.385"/>
      <rect width="3.866" height="3.866" x="470.833" y="587.12" rx="1.385"/>
      <rect width="3.866" height="3.866" x="486.298" y="587.12" rx="1.385"/>
      <rect width="3.866" height="3.866" x="501.763" y="587.12" rx="1.385"/>
      <rect width="3.866" height="3.866" x="517.228" y="540.725" rx="1.385"/>
      <rect width="3.866" height="3.866" x="532.692" y="540.725" rx="1.385"/>
      <rect width="3.866" height="3.866" x="548.157" y="540.725" rx="1.385"/>
      <rect width="3.866" height="3.866" x="563.622" y="540.725" rx="1.385"/>
      <rect width="3.866" height="3.866" x="517.228" y="556.19" rx="1.385"/>
      <rect width="3.866" height="3.866" x="532.692" y="556.19" rx="1.385"/>
      <rect width="3.866" height="3.866" x="548.157" y="556.19" rx="1.385"/>
      <rect width="3.866" height="3.866" x="563.622" y="556.19" rx="1.385"/>
      <rect width="3.866" height="3.866" x="517.228" y="571.655" rx="1.385"/>
      <rect width="3.866" height="3.866" x="532.692" y="571.655" rx="1.385"/>
      <rect width="3.866" height="3.866" x="548.157" y="571.655" rx="1.385"/>
      <rect width="3.866" height="3.866" x="563.622" y="571.655" rx="1.385"/>
      <rect width="3.866" height="3.866" x="517.228" y="587.12" rx="1.385"/>
      <rect width="3.866" height="3.866" x="532.692" y="587.12" rx="1.385"/>
      <rect width="3.866" height="3.866" x="548.157" y="587.12" rx="1.385"/>
      <rect width="3.866" height="3.866" x="563.622" y="587.12" rx="1.385"/>
    </g>
    <path fill="#002684" d="m301.228 355.464 16.753 16.754 33.507-33.508-5.584-5.584-27.923 27.923-11.169-11.17-5.584 5.585z"/>
    <g fill="#002684">
      <path d="m312.027 478.228 33.233-33.779-5.63-5.539-33.328 33.779"/>
      <path d="m346.62 472.143-33.779-33.233-5.539 5.63 33.778 33.328"/>
    </g>
    <rect width="87.86" height="87.86" x="281.628" y="202.986" fill="none" stroke="#002684" stroke-linecap="round" stroke-linejoin="round" stroke-width="3" rx="4.857"/>
    <rect width="87.86" height="87.86" x="281.628" y="95.126" fill="none" stroke="#002684" stroke-linecap="round" stroke-linejoin="round" stroke-width="3" rx="4.857"/>
    <path fill="none" stroke="#dd5040" stroke-miterlimit="10" d="M387.488 169.126v66m0 6v48h160m-160-150v24m-180 126h56m-62 0h-22m-6 0h-8m-6 0h-60m344 48h176m-182 0h-26m-6 0h-58v-80m0-6v-20m0-150v144m-296 216h136m6 0h18m6 0h30m6 0h48v-80m0-16v10m0-16v-14m0-6v-110m0-6v-98m62 336h136m6 0h26m6 0h28m-374 72h124v-42m-130 42h-44m-6 0h-22m-6 0h-8"/>
    <g fill="#002684">
      <path d="m203.147 373.543 33.233-33.78-5.63-5.538-33.328 33.778"/>
      <path d="m237.74 367.458-33.779-33.233-5.539 5.629 33.779 33.328"/>
    </g>
    <path fill="#dd5040" d="M67.865 259.126h2.792v22.338h-2.792zm92.145 0h2.792v22.338h-2.792zm-83.768 0h2.792v22.338h-2.792zm92.145 0h2.792v22.338h-2.792zm-83.768 0h2.792v22.338h-2.792zm92.145 0h2.792v22.338h-2.792zm-83.768 0h2.792v22.338h-2.792zm92.145 0h2.792v22.338h-2.792zm-83.769 0h2.792v22.338h-2.792zm92.145 0h2.792v22.338h-2.792zm-83.768 0h2.792v22.338h-2.792zm8.377 0h2.792v22.338h-2.792zm8.377 0h2.792v22.338h-2.792zm-67.015 0h2.792v22.338h-2.792zm75.392 0h2.792v22.338h-2.792zm67.014 0h2.792v22.338h-2.792zm-58.638 0h2.792v22.338h-2.792zm8.377 0h2.792v22.338h-2.792zm66.232 0h2.792v22.338h-2.792zm92.145 0h2.792v22.338h-2.792zm-83.768 0h2.792v22.338h-2.792zm92.145 0h2.792v22.338h-2.792zm-83.768 0h2.792v22.338h-2.792zm92.145 0h2.792v22.338h-2.792zm-83.768 0h2.792v22.338h-2.792zm92.145 0h2.792v22.338h-2.792zm-83.769 0h2.792v22.338h-2.792zm92.145 0h2.792v22.338h-2.792zm-83.768 0h2.792v22.338h-2.792zm8.377 0h2.792v22.338h-2.792zm8.377 0h2.792v22.338h-2.792zm-67.015 0h2.792v22.338h-2.792zm75.392 0h2.792v22.338h-2.792zm67.014 0h2.792v22.338h-2.792zm-58.638 0h2.792v22.338h-2.792zm8.377 0h2.792v22.338h-2.792z"/>
    <g fill="#002684">
      <rect width="3.866" height="3.866" x="77.31" y="105.924" rx="1.385"/>
      <rect width="3.866" height="3.866" x="92.774" y="105.924" rx="1.385"/>
      <rect width="3.866" height="3.866" x="108.239" y="105.924" rx="1.385"/>
      <rect width="3.866" height="3.866" x="123.704" y="105.924" rx="1.385"/>
      <rect width="3.866" height="3.866" x="77.31" y="121.389" rx="1.385"/>
      <rect width="3.866" height="3.866" x="92.774" y="121.389" rx="1.385"/>
      <rect width="3.866" height="3.866" x="108.239" y="121.389" rx="1.385"/>
      <rect width="3.866" height="3.866" x="123.704" y="121.389" rx="1.385"/>
      <rect width="3.866" height="3.866" x="77.31" y="136.854" rx="1.385"/>
      <rect width="3.866" height="3.866" x="92.774" y="136.854" rx="1.385"/>
      <rect width="3.866" height="3.866" x="108.239" y="136.854" rx="1.385"/>
      <rect width="3.866" height="3.866" x="123.704" y="136.854" rx="1.385"/>
      <rect width="3.866" height="3.866" x="77.31" y="152.319" rx="1.385"/>
      <rect width="3.866" height="3.866" x="92.774" y="152.319" rx="1.385"/>
      <rect width="3.866" height="3.866" x="108.239" y="152.319" rx="1.385"/>
      <rect width="3.866" height="3.866" x="123.704" y="152.319" rx="1.385"/>
      <rect width="3.866" height="3.866" x="139.169" y="105.924" rx="1.385"/>
      <rect width="3.866" height="3.866" x="154.634" y="105.924" rx="1.385"/>
      <rect width="3.866" height="3.866" x="170.099" y="105.924" rx="1.385"/>
      <rect width="3.866" height="3.866" x="185.564" y="105.924" rx="1.385"/>
      <rect width="3.866" height="3.866" x="139.169" y="121.389" rx="1.385"/>
      <rect width="3.866" height="3.866" x="154.634" y="121.389" rx="1.385"/>
      <rect width="3.866" height="3.866" x="170.099" y="121.389" rx="1.385"/>
      <rect width="3.866" height="3.866" x="185.564" y="121.389" rx="1.385"/>
      <rect width="3.866" height="3.866" x="139.169" y="136.854" rx="1.385"/>
      <rect width="3.866" height="3.866" x="154.634" y="136.854" rx="1.385"/>
      <rect width="3.866" height="3.866" x="170.099" y="136.854" rx="1.385"/>
      <rect width="3.866" height="3.866" x="185.564" y="136.854" rx="1.385"/>
      <rect width="3.866" height="3.866" x="139.169" y="152.319" rx="1.385"/>
      <rect width="3.866" height="3.866" x="154.634" y="152.319" rx="1.385"/>
      <rect width="3.866" height="3.866" x="170.099" y="152.319" rx="1.385"/>
      <rect width="3.866" height="3.866" x="185.564" y="152.319" rx="1.385"/>
      <rect width="3.866" height="3.866" x="199.45" y="105.924" rx="1.385"/>
      <rect width="3.866" height="3.866" x="214.915" y="105.924" rx="1.385"/>
      <rect width="3.866" height="3.866" x="230.38" y="105.924" rx="1.385"/>
      <rect width="3.866" height="3.866" x="245.845" y="105.924" rx="1.385"/>
      <rect width="3.866" height="3.866" x="199.45" y="121.389" rx="1.385"/>
      <rect width="3.866" height="3.866" x="214.915" y="121.389" rx="1.385"/>
      <rect width="3.866" height="3.866" x="230.38" y="121.389" rx="1.385"/>
      <rect width="3.866" height="3.866" x="245.845" y="121.389" rx="1.385"/>
      <rect width="3.866" height="3.866" x="199.45" y="136.854" rx="1.385"/>
      <rect width="3.866" height="3.866" x="214.915" y="136.854" rx="1.385"/>
      <rect width="3.866" height="3.866" x="230.38" y="136.854" rx="1.385"/>
      <rect width="3.866" height="3.866" x="245.845" y="136.854" rx="1.385"/>
      <rect width="3.866" height="3.866" x="199.45" y="152.319" rx="1.385"/>
      <rect width="3.866" height="3.866" x="214.915" y="152.319" rx="1.385"/>
      <rect width="3.866" height="3.866" x="230.38" y="152.319" rx="1.385"/>
      <rect width="3.866" height="3.866" x="245.845" y="152.319" rx="1.385"/>
      <rect width="3.866" height="3.866" x="261.31" y="105.924" rx="1.385"/>
      <rect width="3.866" height="3.866" x="276.774" y="105.924" rx="1.385"/>
      <rect width="3.866" height="3.866" x="292.239" y="105.924" rx="1.385"/>
      <rect width="3.866" height="3.866" x="307.704" y="105.924" rx="1.385"/>
      <rect width="3.866" height="3.866" x="261.31" y="121.389" rx="1.385"/>
      <rect width="3.866" height="3.866" x="276.774" y="121.389" rx="1.385"/>
      <rect width="3.866" height="3.866" x="292.239" y="121.389" rx="1.385"/>
      <rect width="3.866" height="3.866" x="307.704" y="121.389" rx="1.385"/>
      <rect width="3.866" height="3.866" x="261.31" y="136.854" rx="1.385"/>
      <rect width="3.866" height="3.866" x="276.774" y="136.854" rx="1.385"/>
      <rect width="3.866" height="3.866" x="292.239" y="136.854" rx="1.385"/>
      <rect width="3.866" height="3.866" x="307.704" y="136.854" rx="1.385"/>
      <rect width="3.866" height="3.866" x="261.31" y="152.319" rx="1.385"/>
      <rect width="3.866" height="3.866" x="276.774" y="152.319" rx="1.385"/>
      <rect width="3.866" height="3.866" x="292.239" y="152.319" rx="1.385"/>
      <rect width="3.866" height="3.866" x="307.704" y="152.319" rx="1.385"/>
    </g>
  </g>
</svg>
