<?xml version="1.0" encoding="UTF-8"?>
<svg id="Layer_1" data-name="Layer 1" xmlns="http://www.w3.org/2000/svg" viewBox="0 0 116.66278 128.0859412">
  <defs>
    <style>
      .cls-1 {
        fill: #fff;
        stroke-width: 0px;
      }
    </style>
  </defs>
  <path class="cls-1" d="m110.9628863,70.0321677c2.4209156-1.1856515,4.3124179-3.3142774,5.117561-5.8951042.6617246-2.0183272.5790258-4.1083806.5790258-6.2094402-.0496462-6.8105459.0441262-13.6320982-.0386062-20.4426105-.1323449-3.7719983-2.1727521-7.0862421-5.4484233-8.9391718-14.5089001-8.26634-29.0122801-16.5437872-43.5267002-24.8156808-1.670905-.937488-3.3087574-1.985241-5.0458349-2.7958704-2.0514471-.9760942-4.4337565-1.136039-6.6451148-.7169244-2.2444108.4522345-4.279298,1.8970559-6.2535327,3.0219877C34.9276375,11.8476626,20.2423,20.4559385,5.4631565,29.053208,1.9779279,31.1101415.0202532,34.5457238.0202532,38.6044919.0037269,56.5820606.0312931,74.6975278.0037269,92.6750964c-.0772124,3.0275077,1.047753,5.856498,3.1488126,8.0237301,1.7315911,1.7426311,4.2517654,2.8841228,6.363865,4.1194205,12.5070991,7.1634545,25.0528044,14.2607365,37.5543836,21.435231,2.7352516,1.681945,5.9447504,2.3437032,9.0715167,1.4006952,4.5054153-1.2187378,7.725954-5.5035558,7.7038741-10.1633959.00552-15.3967419-.0054863-30.7935174.00552-46.1902593,13.5107596.00552,27.0215191-.01104,40.5322787.00552,2.310617-.0220463,4.494409-.1875111,6.5789087-1.2738703Zm-57.8701691-9.4851114c-.00552,18.8930104.00552,37.7860208,0,56.6789976-14.1063117-8.0016502-28.218177-15.992294-42.3245223-23.9884578.00552-18.2588521-.0110063-36.5121505.00552-54.7710026,15.3746956-8.9667044,30.7438713-17.9334425,46.1075269-26.9112205.4522009-.2481299.8988818-.4908071,1.3566027-.7279307,15.4684343,8.7571807,30.9313487,17.6577463,46.3998167,26.4314534.4852871.3639822,1.3345227.6176657,1.2352641,1.3621227.0606525,7.2957994,0,14.6247187.0220463,21.9260381h-52.8022542Z"/>
</svg>